STARTFONT 2.1
FONT -MIT-16FG KST-Medium-R-Normal--16-5-200-200-P-10-ISO8859-1
SIZE 5 200 200
FONTBOUNDINGBOX 10 16 0 -5
STARTPROPERTIES 17
ADD_STYLE_NAME ""
AVERAGE_WIDTH 10
CHARSET_ENCODING "1"
CHARSET_REGISTRY "ISO8859"
DEFAULT_CHAR 0
FAMILY "16FG KST"
FONT_ASCENT 11
FONT_DESCENT 5
FOUNDRY "MIT"
PIXEL_SIZE 16
POINT_SIZE 5
RESOLUTION_X 200
RESOLUTION_Y 200
SETWIDTH_NAME "Normal"
SLANT "R"
SPACING "P"
WEIGHT_NAME "Medium"
ENDPROPERTIES
CHARS 94
STARTCHAR char11
ENCODING 11
SWIDTH 2000 0
DWIDTH 10 0
BBX 10 16 0 -5
BITMAP
0000
0000
0C00
1E00
3F00
2D00
0C00
0C00
0C00
0C00
0000
0000
0000
0000
0000
0000
ENDCHAR
STARTCHAR char24
ENCODING 24
SWIDTH 2000 0
DWIDTH 10 0
BBX 10 16 0 -5
BITMAP
0000
0000
0000
1800
3000
7F80
7F80
3000
1800
0000
0000
0000
0000
0000
0000
0000
ENDCHAR
STARTCHAR char32
ENCODING 32
SWIDTH 2000 0
DWIDTH 10 0
BBX 10 16 0 -5
BITMAP
0000
0000
0000
0000
0000
0000
0000
0000
0000
0000
0000
0000
0000
0000
0000
0000
ENDCHAR
STARTCHAR char33
ENCODING 33
SWIDTH 2000 0
DWIDTH 10 0
BBX 10 16 0 -5
BITMAP
0000
0C00
0C00
0C00
0C00
0C00
0C00
0C00
0000
0C00
0C00
0000
0000
0000
0000
0000
ENDCHAR
STARTCHAR char34
ENCODING 34
SWIDTH 2000 0
DWIDTH 10 0
BBX 10 16 0 -5
BITMAP
0000
3300
3300
3300
3300
3300
0000
0000
0000
0000
0000
0000
0000
0000
0000
0000
ENDCHAR
STARTCHAR char35
ENCODING 35
SWIDTH 2000 0
DWIDTH 10 0
BBX 10 16 0 -5
BITMAP
0000
0480
0D80
0900
3F80
1200
7F00
2400
6C00
4800
0000
0000
0000
0000
0000
0000
ENDCHAR
STARTCHAR char36
ENCODING 36
SWIDTH 2000 0
DWIDTH 10 0
BBX 10 16 0 -5
BITMAP
0400
1F00
3580
3400
3C00
1F00
0780
0580
0580
3580
1F00
0400
0400
0000
0000
0000
ENDCHAR
STARTCHAR char37
ENCODING 37
SWIDTH 2000 0
DWIDTH 10 0
BBX 10 16 0 -5
BITMAP
0000
2180
5100
5200
2600
0400
0800
1900
1280
2280
6100
0000
0000
0000
0000
0000
ENDCHAR
STARTCHAR char38
ENCODING 38
SWIDTH 2000 0
DWIDTH 10 0
BBX 10 16 0 -5
BITMAP
0000
1C00
3600
3600
3600
1C00
3680
6380
6300
7780
3E80
0000
0000
0000
0000
0000
ENDCHAR
STARTCHAR char39
ENCODING 39
SWIDTH 2000 0
DWIDTH 10 0
BBX 10 16 0 -5
BITMAP
0000
0C00
0C00
0C00
0C00
0C00
0000
0000
0000
0000
0000
0000
0000
0000
0000
0000
ENDCHAR
STARTCHAR char40
ENCODING 40
SWIDTH 2000 0
DWIDTH 10 0
BBX 10 16 0 -5
BITMAP
0600
0C00
1800
1800
3000
3000
3000
3000
3000
3000
3000
3000
1800
1800
0C00
0600
ENDCHAR
STARTCHAR char41
ENCODING 41
SWIDTH 2000 0
DWIDTH 10 0
BBX 10 16 0 -5
BITMAP
1800
0C00
0600
0600
0300
0300
0300
0300
0300
0300
0300
0300
0600
0600
0C00
1800
ENDCHAR
STARTCHAR char42
ENCODING 42
SWIDTH 2000 0
DWIDTH 10 0
BBX 10 16 0 -5
BITMAP
0000
0C00
2D00
3F00
1E00
3F00
2D00
0C00
0000
0000
0000
0000
0000
0000
0000
0000
ENDCHAR
STARTCHAR char43
ENCODING 43
SWIDTH 2000 0
DWIDTH 10 0
BBX 10 16 0 -5
BITMAP
0000
0000
0C00
0C00
0C00
7F80
7F80
0C00
0C00
0C00
0000
0000
0000
0000
0000
0000
ENDCHAR
STARTCHAR char44
ENCODING 44
SWIDTH 2000 0
DWIDTH 10 0
BBX 10 16 0 -5
BITMAP
0000
0000
0000
0000
0000
0000
0000
0000
0000
0E00
0E00
0200
0600
0C00
0000
0000
ENDCHAR
STARTCHAR char45
ENCODING 45
SWIDTH 2000 0
DWIDTH 10 0
BBX 10 16 0 -5
BITMAP
0000
0000
0000
0000
0000
3F00
3F00
0000
0000
0000
0000
0000
0000
0000
0000
0000
ENDCHAR
STARTCHAR char46
ENCODING 46
SWIDTH 2000 0
DWIDTH 10 0
BBX 10 16 0 -5
BITMAP
0000
0000
0000
0000
0000
0000
0000
0000
0000
0C00
0C00
0000
0000
0000
0000
0000
ENDCHAR
STARTCHAR char47
ENCODING 47
SWIDTH 2000 0
DWIDTH 10 0
BBX 10 16 0 -5
BITMAP
0000
0180
0180
0300
0300
0600
0600
0C00
0C00
1800
1800
3000
3000
6000
6000
0000
ENDCHAR
STARTCHAR char48
ENCODING 48
SWIDTH 2000 0
DWIDTH 10 0
BBX 10 16 0 -5
BITMAP
0000
1E00
3300
3300
3300
3300
3300
3300
3300
3300
1E00
0000
0000
0000
0000
0000
ENDCHAR
STARTCHAR char49
ENCODING 49
SWIDTH 2000 0
DWIDTH 10 0
BBX 10 16 0 -5
BITMAP
0000
3C00
0C00
0C00
0C00
0C00
0C00
0C00
0C00
0C00
3F00
0000
0000
0000
0000
0000
ENDCHAR
STARTCHAR char50
ENCODING 50
SWIDTH 2000 0
DWIDTH 10 0
BBX 10 16 0 -5
BITMAP
0000
1E00
3300
2100
0300
0600
0C00
1800
3000
3000
3F00
0000
0000
0000
0000
0000
ENDCHAR
STARTCHAR char51
ENCODING 51
SWIDTH 2000 0
DWIDTH 10 0
BBX 10 16 0 -5
BITMAP
0000
1F00
3380
0180
0380
0F00
0300
0180
2180
3380
1F00
0000
0000
0000
0000
0000
ENDCHAR
STARTCHAR char52
ENCODING 52
SWIDTH 2000 0
DWIDTH 10 0
BBX 10 16 0 -5
BITMAP
0000
0700
0700
0B00
1B00
1300
3300
2300
3F80
0300
0300
0000
0000
0000
0000
0000
ENDCHAR
STARTCHAR char53
ENCODING 53
SWIDTH 2000 0
DWIDTH 10 0
BBX 10 16 0 -5
BITMAP
0000
3F00
3000
3000
3000
3E00
0300
0300
0300
3300
1E00
0000
0000
0000
0000
0000
ENDCHAR
STARTCHAR char54
ENCODING 54
SWIDTH 2000 0
DWIDTH 10 0
BBX 10 16 0 -5
BITMAP
0000
0E00
1B00
3000
3000
3E00
3300
3300
3300
3300
1E00
0000
0000
0000
0000
0000
ENDCHAR
STARTCHAR char55
ENCODING 55
SWIDTH 2000 0
DWIDTH 10 0
BBX 10 16 0 -5
BITMAP
0000
3F00
0300
0600
0600
0C00
0C00
1800
1800
3000
3000
0000
0000
0000
0000
0000
ENDCHAR
STARTCHAR char56
ENCODING 56
SWIDTH 2000 0
DWIDTH 10 0
BBX 10 16 0 -5
BITMAP
0000
1E00
3300
3300
3300
1E00
3300
6180
6180
7380
3F00
0000
0000
0000
0000
0000
ENDCHAR
STARTCHAR char57
ENCODING 57
SWIDTH 2000 0
DWIDTH 10 0
BBX 10 16 0 -5
BITMAP
0000
1E00
3300
3300
3300
3300
1F00
0300
0300
3700
1E00
0000
0000
0000
0000
0000
ENDCHAR
STARTCHAR char58
ENCODING 58
SWIDTH 2000 0
DWIDTH 10 0
BBX 10 16 0 -5
BITMAP
0000
0000
0000
0000
0E00
0E00
0000
0000
0000
0E00
0E00
0000
0000
0000
0000
0000
ENDCHAR
STARTCHAR char59
ENCODING 59
SWIDTH 2000 0
DWIDTH 10 0
BBX 10 16 0 -5
BITMAP
0000
0000
0000
0000
0E00
0E00
0000
0000
0000
0E00
0E00
0200
0600
0C00
0000
0000
ENDCHAR
STARTCHAR char60
ENCODING 60
SWIDTH 2000 0
DWIDTH 10 0
BBX 10 16 0 -5
BITMAP
0000
0000
0300
0600
0C00
1800
3000
6000
3000
1800
0C00
0600
0300
0000
0000
0000
ENDCHAR
STARTCHAR char61
ENCODING 61
SWIDTH 2000 0
DWIDTH 10 0
BBX 10 16 0 -5
BITMAP
0000
0000
0000
0000
0000
3F00
0000
3F00
0000
0000
0000
0000
0000
0000
0000
0000
ENDCHAR
STARTCHAR char62
ENCODING 62
SWIDTH 2000 0
DWIDTH 10 0
BBX 10 16 0 -5
BITMAP
0000
0000
3000
1800
0C00
0600
0300
0180
0300
0600
0C00
1800
3000
0000
0000
0000
ENDCHAR
STARTCHAR char63
ENCODING 63
SWIDTH 2000 0
DWIDTH 10 0
BBX 10 16 0 -5
BITMAP
0000
1E00
3300
3300
0300
0600
0C00
0C00
0000
0C00
0C00
0000
0000
0000
0000
0000
ENDCHAR
STARTCHAR char64
ENCODING 64
SWIDTH 2000 0
DWIDTH 10 0
BBX 10 16 0 -5
BITMAP
0000
1E00
3300
6180
6780
6D80
6D80
6D80
6700
3000
1E00
0000
0000
0000
0000
0000
ENDCHAR
STARTCHAR char65
ENCODING 65
SWIDTH 2000 0
DWIDTH 10 0
BBX 10 16 0 -5
BITMAP
0000
1C00
1C00
3600
3600
3600
6300
6300
7F00
C180
C180
0000
0000
0000
0000
0000
ENDCHAR
STARTCHAR char66
ENCODING 66
SWIDTH 2000 0
DWIDTH 10 0
BBX 10 16 0 -5
BITMAP
0000
3E00
3300
3300
3300
3E00
3300
3180
3180
3380
3F00
0000
0000
0000
0000
0000
ENDCHAR
STARTCHAR char67
ENCODING 67
SWIDTH 2000 0
DWIDTH 10 0
BBX 10 16 0 -5
BITMAP
0000
1F00
3180
6180
6000
6000
6000
6000
6180
3180
1F00
0000
0000
0000
0000
0000
ENDCHAR
STARTCHAR char68
ENCODING 68
SWIDTH 2000 0
DWIDTH 10 0
BBX 10 16 0 -5
BITMAP
0000
3E00
3300
3180
3180
3180
3180
3180
3180
3300
3E00
0000
0000
0000
0000
0000
ENDCHAR
STARTCHAR char69
ENCODING 69
SWIDTH 2000 0
DWIDTH 10 0
BBX 10 16 0 -5
BITMAP
0000
3F00
3000
3000
3000
3E00
3000
3000
3000
3000
3F00
0000
0000
0000
0000
0000
ENDCHAR
STARTCHAR char70
ENCODING 70
SWIDTH 2000 0
DWIDTH 10 0
BBX 10 16 0 -5
BITMAP
0000
3F00
3000
3000
3000
3E00
3000
3000
3000
3000
3000
0000
0000
0000
0000
0000
ENDCHAR
STARTCHAR char71
ENCODING 71
SWIDTH 2000 0
DWIDTH 10 0
BBX 10 16 0 -5
BITMAP
0000
1F00
3180
6180
6000
6000
6380
6180
6180
3380
1F00
0000
0000
0000
0000
0000
ENDCHAR
STARTCHAR char72
ENCODING 72
SWIDTH 2000 0
DWIDTH 10 0
BBX 10 16 0 -5
BITMAP
0000
6180
6180
6180
6180
7F80
6180
6180
6180
6180
6180
0000
0000
0000
0000
0000
ENDCHAR
STARTCHAR char73
ENCODING 73
SWIDTH 2000 0
DWIDTH 10 0
BBX 10 16 0 -5
BITMAP
0000
3F00
0C00
0C00
0C00
0C00
0C00
0C00
0C00
0C00
3F00
0000
0000
0000
0000
0000
ENDCHAR
STARTCHAR char74
ENCODING 74
SWIDTH 2000 0
DWIDTH 10 0
BBX 10 16 0 -5
BITMAP
0000
0F00
0300
0300
0300
0300
0300
6300
6300
7700
3E00
0000
0000
0000
0000
0000
ENDCHAR
STARTCHAR char75
ENCODING 75
SWIDTH 2000 0
DWIDTH 10 0
BBX 10 16 0 -5
BITMAP
0000
6300
6600
6C00
7800
7000
7800
6C00
6600
6300
6180
0000
0000
0000
0000
0000
ENDCHAR
STARTCHAR char76
ENCODING 76
SWIDTH 2000 0
DWIDTH 10 0
BBX 10 16 0 -5
BITMAP
0000
3000
3000
3000
3000
3000
3000
3000
3000
3000
3F00
0000
0000
0000
0000
0000
ENDCHAR
STARTCHAR char77
ENCODING 77
SWIDTH 2000 0
DWIDTH 10 0
BBX 10 16 0 -5
BITMAP
0000
6180
7380
7380
7F80
6D80
6D80
6D80
6180
6180
6180
0000
0000
0000
0000
0000
ENDCHAR
STARTCHAR char78
ENCODING 78
SWIDTH 2000 0
DWIDTH 10 0
BBX 10 16 0 -5
BITMAP
0000
7180
7180
7980
6980
6D80
6D80
6580
6780
6780
6380
0000
0000
0000
0000
0000
ENDCHAR
STARTCHAR char79
ENCODING 79
SWIDTH 2000 0
DWIDTH 10 0
BBX 10 16 0 -5
BITMAP
0000
1E00
3300
6180
6180
6180
6180
6180
6180
3300
1E00
0000
0000
0000
0000
0000
ENDCHAR
STARTCHAR char80
ENCODING 80
SWIDTH 2000 0
DWIDTH 10 0
BBX 10 16 0 -5
BITMAP
0000
3F00
3380
3180
3180
3380
3F00
3000
3000
3000
3000
0000
0000
0000
0000
0000
ENDCHAR
STARTCHAR char81
ENCODING 81
SWIDTH 2000 0
DWIDTH 10 0
BBX 10 16 0 -5
BITMAP
0000
1E00
3300
6180
6180
6180
6180
6180
6180
3300
1E00
0600
0300
0000
0000
0000
ENDCHAR
STARTCHAR char82
ENCODING 82
SWIDTH 2000 0
DWIDTH 10 0
BBX 10 16 0 -5
BITMAP
0000
7E00
6700
6300
6300
6700
7E00
6C00
6600
6300
6180
0000
0000
0000
0000
0000
ENDCHAR
STARTCHAR char83
ENCODING 83
SWIDTH 2000 0
DWIDTH 10 0
BBX 10 16 0 -5
BITMAP
0000
1E00
3300
6100
7000
3C00
0F00
0380
6180
7380
3F00
0000
0000
0000
0000
0000
ENDCHAR
STARTCHAR char84
ENCODING 84
SWIDTH 2000 0
DWIDTH 10 0
BBX 10 16 0 -5
BITMAP
0000
7F80
0C00
0C00
0C00
0C00
0C00
0C00
0C00
0C00
0C00
0000
0000
0000
0000
0000
ENDCHAR
STARTCHAR char85
ENCODING 85
SWIDTH 2000 0
DWIDTH 10 0
BBX 10 16 0 -5
BITMAP
0000
6180
6180
6180
6180
6180
6180
6180
6180
3300
1E00
0000
0000
0000
0000
0000
ENDCHAR
STARTCHAR char86
ENCODING 86
SWIDTH 2000 0
DWIDTH 10 0
BBX 10 16 0 -5
BITMAP
0000
6180
6180
6180
3300
3300
3300
1E00
1E00
0C00
0C00
0000
0000
0000
0000
0000
ENDCHAR
STARTCHAR char87
ENCODING 87
SWIDTH 2000 0
DWIDTH 10 0
BBX 10 16 0 -5
BITMAP
0000
C0C0
C0C0
C0C0
6180
6D80
6D80
2D00
3F00
3300
1200
0000
0000
0000
0000
0000
ENDCHAR
STARTCHAR char88
ENCODING 88
SWIDTH 2000 0
DWIDTH 10 0
BBX 10 16 0 -5
BITMAP
0000
6180
6180
3300
3300
1E00
1E00
3300
3300
6180
6180
0000
0000
0000
0000
0000
ENDCHAR
STARTCHAR char89
ENCODING 89
SWIDTH 2000 0
DWIDTH 10 0
BBX 10 16 0 -5
BITMAP
0000
6180
6180
3300
3300
1E00
1E00
0C00
0C00
0C00
0C00
0000
0000
0000
0000
0000
ENDCHAR
STARTCHAR char90
ENCODING 90
SWIDTH 2000 0
DWIDTH 10 0
BBX 10 16 0 -5
BITMAP
0000
3F80
0180
0180
0300
0600
0C00
1800
3000
3000
3F80
0000
0000
0000
0000
0000
ENDCHAR
STARTCHAR char91
ENCODING 91
SWIDTH 2000 0
DWIDTH 10 0
BBX 10 16 0 -5
BITMAP
3E00
3000
3000
3000
3000
3000
3000
3000
3000
3000
3000
3000
3000
3E00
0000
0000
ENDCHAR
STARTCHAR char92
ENCODING 92
SWIDTH 2000 0
DWIDTH 10 0
BBX 10 16 0 -5
BITMAP
0000
0000
0000
0000
0000
0000
0000
0000
0000
0000
0000
0000
0000
0000
0000
0000
ENDCHAR
STARTCHAR char93
ENCODING 93
SWIDTH 2000 0
DWIDTH 10 0
BBX 10 16 0 -5
BITMAP
3E00
0600
0600
0600
0600
0600
0600
0600
0600
0600
0600
0600
0600
3E00
0000
0000
ENDCHAR
STARTCHAR char97
ENCODING 97
SWIDTH 2000 0
DWIDTH 10 0
BBX 10 16 0 -5
BITMAP
0000
0000
0000
1E00
3700
0300
3B00
7700
6300
7700
3B80
0000
0000
0000
0000
0000
ENDCHAR
STARTCHAR char98
ENCODING 98
SWIDTH 2000 0
DWIDTH 10 0
BBX 10 16 0 -5
BITMAP
3000
3000
3000
3700
3B80
3180
3180
3180
3180
3B80
3700
0000
0000
0000
0000
0000
ENDCHAR
STARTCHAR char99
ENCODING 99
SWIDTH 2000 0
DWIDTH 10 0
BBX 10 16 0 -5
BITMAP
0000
0000
0000
0F00
1980
3000
3000
3000
3000
1980
0F00
0000
0000
0000
0000
0000
ENDCHAR
STARTCHAR char100
ENCODING 100
SWIDTH 2000 0
DWIDTH 10 0
BBX 10 16 0 -5
BITMAP
0300
0300
0300
3B00
7700
6300
6300
6300
6300
7700
3B00
0000
0000
0000
0000
0000
ENDCHAR
STARTCHAR char101
ENCODING 101
SWIDTH 2000 0
DWIDTH 10 0
BBX 10 16 0 -5
BITMAP
0000
0000
0000
0E00
1B00
3180
3F80
3000
3000
3980
1F00
0000
0000
0000
0000
0000
ENDCHAR
STARTCHAR char102
ENCODING 102
SWIDTH 2000 0
DWIDTH 10 0
BBX 10 16 0 -5
BITMAP
0F00
1980
1800
7E00
1800
1800
1800
1800
1800
1800
1800
0000
0000
0000
0000
0000
ENDCHAR
STARTCHAR char103
ENCODING 103
SWIDTH 2000 0
DWIDTH 10 0
BBX 10 16 0 -5
BITMAP
0000
0000
0000
3B00
6700
6300
6300
6300
6300
7700
3B00
0300
6700
3E00
0000
0000
ENDCHAR
STARTCHAR char104
ENCODING 104
SWIDTH 2000 0
DWIDTH 10 0
BBX 10 16 0 -5
BITMAP
3000
3000
3000
3700
3B80
3180
3180
3180
3180
3180
3180
0000
0000
0000
0000
0000
ENDCHAR
STARTCHAR char105
ENCODING 105
SWIDTH 2000 0
DWIDTH 10 0
BBX 10 16 0 -5
BITMAP
0600
0600
0000
1E00
0600
0600
0600
0600
0600
0600
0600
0000
0000
0000
0000
0000
ENDCHAR
STARTCHAR char106
ENCODING 106
SWIDTH 2000 0
DWIDTH 10 0
BBX 10 16 0 -5
BITMAP
0600
0600
0000
1E00
0600
0600
0600
0600
0600
0600
0600
6600
6600
3C00
0000
0000
ENDCHAR
STARTCHAR char107
ENCODING 107
SWIDTH 2000 0
DWIDTH 10 0
BBX 10 16 0 -5
BITMAP
3000
3000
3180
3300
3600
3C00
3C00
3600
3300
3300
3180
0000
0000
0000
0000
0000
ENDCHAR
STARTCHAR char108
ENCODING 108
SWIDTH 2000 0
DWIDTH 10 0
BBX 10 16 0 -5
BITMAP
1E00
0600
0600
0600
0600
0600
0600
0600
0600
0600
0600
0000
0000
0000
0000
0000
ENDCHAR
STARTCHAR char109
ENCODING 109
SWIDTH 2000 0
DWIDTH 10 0
BBX 10 16 0 -5
BITMAP
0000
0000
0000
7F00
6D80
6D80
6D80
6D80
6D80
6D80
6D80
0000
0000
0000
0000
0000
ENDCHAR
STARTCHAR char110
ENCODING 110
SWIDTH 2000 0
DWIDTH 10 0
BBX 10 16 0 -5
BITMAP
0000
0000
0000
3700
3B80
3180
3180
3180
3180
3180
3180
0000
0000
0000
0000
0000
ENDCHAR
STARTCHAR char111
ENCODING 111
SWIDTH 2000 0
DWIDTH 10 0
BBX 10 16 0 -5
BITMAP
0000
0000
0000
1E00
3300
6180
6180
6180
6180
3300
1E00
0000
0000
0000
0000
0000
ENDCHAR
STARTCHAR char112
ENCODING 112
SWIDTH 2000 0
DWIDTH 10 0
BBX 10 16 0 -5
BITMAP
0000
0000
0000
3700
3B80
3180
3180
3180
3180
3B80
3700
3000
3000
3000
0000
0000
ENDCHAR
STARTCHAR char113
ENCODING 113
SWIDTH 2000 0
DWIDTH 10 0
BBX 10 16 0 -5
BITMAP
0000
0000
0000
3B00
6700
6300
6300
6300
6300
7700
3B00
0300
0300
0300
0000
0000
ENDCHAR
STARTCHAR char114
ENCODING 114
SWIDTH 2000 0
DWIDTH 10 0
BBX 10 16 0 -5
BITMAP
0000
0000
0000
3700
3B00
3000
3000
3000
3000
3000
3000
0000
0000
0000
0000
0000
ENDCHAR
STARTCHAR char115
ENCODING 115
SWIDTH 2000 0
DWIDTH 10 0
BBX 10 16 0 -5
BITMAP
0000
0000
0000
1E00
3300
3000
3C00
0F00
0300
3300
1E00
0000
0000
0000
0000
0000
ENDCHAR
STARTCHAR char116
ENCODING 116
SWIDTH 2000 0
DWIDTH 10 0
BBX 10 16 0 -5
BITMAP
0000
1800
1800
7E00
1800
1800
1800
1800
1800
1B00
0E00
0000
0000
0000
0000
0000
ENDCHAR
STARTCHAR char117
ENCODING 117
SWIDTH 2000 0
DWIDTH 10 0
BBX 10 16 0 -5
BITMAP
0000
0000
0000
6300
6300
6300
6300
6300
6300
6700
3B00
0000
0000
0000
0000
0000
ENDCHAR
STARTCHAR char118
ENCODING 118
SWIDTH 2000 0
DWIDTH 10 0
BBX 10 16 0 -5
BITMAP
0000
0000
0000
6180
6180
3300
3300
3300
1E00
1E00
0C00
0000
0000
0000
0000
0000
ENDCHAR
STARTCHAR char119
ENCODING 119
SWIDTH 2000 0
DWIDTH 10 0
BBX 10 16 0 -5
BITMAP
0000
0000
0000
C0C0
C0C0
CCC0
6D80
6D80
3F00
3300
3300
0000
0000
0000
0000
0000
ENDCHAR
STARTCHAR char120
ENCODING 120
SWIDTH 2000 0
DWIDTH 10 0
BBX 10 16 0 -5
BITMAP
0000
0000
0000
6300
6300
3600
1C00
1C00
3600
6300
6300
0000
0000
0000
0000
0000
ENDCHAR
STARTCHAR char121
ENCODING 121
SWIDTH 2000 0
DWIDTH 10 0
BBX 10 16 0 -5
BITMAP
0000
0000
0000
6180
6180
3300
3300
1200
1E00
1E00
0C00
0C00
6C00
3800
0000
0000
ENDCHAR
STARTCHAR char122
ENCODING 122
SWIDTH 2000 0
DWIDTH 10 0
BBX 10 16 0 -5
BITMAP
0000
0000
0000
3F80
0180
0300
0600
0C00
1800
3000
3F80
0000
0000
0000
0000
0000
ENDCHAR
STARTCHAR char123
ENCODING 123
SWIDTH 2000 0
DWIDTH 10 0
BBX 10 16 0 -5
BITMAP
0700
0C00
1800
1800
1800
1800
3000
6000
3000
1800
1800
1800
1800
0C00
0700
0000
ENDCHAR
STARTCHAR char124
ENCODING 124
SWIDTH 2000 0
DWIDTH 10 0
BBX 10 16 0 -5
BITMAP
0C00
0C00
0C00
0C00
0C00
0C00
0C00
0C00
0C00
0C00
0C00
0C00
0C00
0C00
0000
0000
ENDCHAR
STARTCHAR char125
ENCODING 125
SWIDTH 2000 0
DWIDTH 10 0
BBX 10 16 0 -5
BITMAP
3800
0C00
0600
0600
0600
0600
0300
0180
0300
0600
0600
0600
0600
0C00
3800
0000
ENDCHAR
STARTCHAR char126
ENCODING 126
SWIDTH 2000 0
DWIDTH 10 0
BBX 10 16 0 -5
BITMAP
0000
0000
0000
0000
1840
3D80
6F00
8600
0000
0000
0000
0000
0000
0000
0000
0000
ENDCHAR
ENDFONT
