STARTFONT 2.1
FONT -MIT-18FG KST-Medium-R-Normal--18-6-200-200-P-12-ISO8859-1
SIZE 6 200 200
FONTBOUNDINGBOX 12 18 -5 -5
STARTPROPERTIES 17
ADD_STYLE_NAME ""
AVERAGE_WIDTH 12
CHARSET_ENCODING "1"
CHARSET_REGISTRY "ISO8859"
DEFAULT_CHAR 0
FAMILY "18FG KST"
FONT_ASCENT 13
FONT_DESCENT 5
FOUNDRY "MIT"
PIXEL_SIZE 18
POINT_SIZE 6
RESOLUTION_X 200
RESOLUTION_Y 200
SETWIDTH_NAME "Normal"
SLANT "R"
SPACING "P"
WEIGHT_NAME "Medium"
ENDPROPERTIES
CHARS 98
STARTCHAR char11
ENCODING 11
SWIDTH 1992 0
DWIDTH 12 0
BBX 6 18 3 -5
BITMAP
00
00
00
30
78
FC
B4
30
30
30
30
00
00
00
00
00
00
00
ENDCHAR
STARTCHAR char24
ENCODING 24
SWIDTH 1992 0
DWIDTH 12 0
BBX 8 18 2 -5
BITMAP
00
00
00
00
30
60
FF
FF
60
30
00
00
00
00
00
00
00
00
ENDCHAR
STARTCHAR char27
ENCODING 27
SWIDTH 1992 0
DWIDTH 12 0
BBX 10 18 2 -5
BITMAP
0C00
0C00
1E00
3300
6180
C0C0
C0C0
6180
3300
1E00
0C00
0C00
0000
0000
0000
0000
0000
0000
ENDCHAR
STARTCHAR char32
ENCODING 32
SWIDTH 1992 0
DWIDTH 12 0
BBX 1 18 0 -5
BITMAP
00
00
00
00
00
00
00
00
00
00
00
00
00
00
00
00
00
00
ENDCHAR
STARTCHAR char33
ENCODING 33
SWIDTH 1992 0
DWIDTH 12 0
BBX 3 18 4 -5
BITMAP
00
E0
E0
E0
E0
E0
60
40
40
00
00
E0
E0
00
00
00
00
00
ENDCHAR
STARTCHAR char34
ENCODING 34
SWIDTH 1992 0
DWIDTH 12 0
BBX 6 18 3 -5
BITMAP
00
CC
CC
CC
CC
CC
00
00
00
00
00
00
00
00
00
00
00
00
ENDCHAR
STARTCHAR char35
ENCODING 35
SWIDTH 1992 0
DWIDTH 12 0
BBX 10 18 1 -5
BITMAP
0000
1980
1980
1980
7FC0
71C0
3100
2300
E380
FF80
6600
6600
6600
0000
0000
0000
0000
0000
ENDCHAR
STARTCHAR char36
ENCODING 36
SWIDTH 1992 0
DWIDTH 12 0
BBX 10 18 1 -5
BITMAP
0C00
0C00
7F80
CDC0
CCC0
EC00
3C00
0F00
0DC0
CCC0
ECC0
7F80
0C00
0C00
0000
0000
0000
0000
ENDCHAR
STARTCHAR char37
ENCODING 37
SWIDTH 1992 0
DWIDTH 12 0
BBX 10 18 1 -5
BITMAP
0000
60C0
9180
9300
9300
6600
0600
0C00
1980
1A40
3240
6240
6180
0000
0000
0000
0000
0000
ENDCHAR
STARTCHAR char38
ENCODING 38
SWIDTH 1992 0
DWIDTH 12 0
BBX 10 18 1 -5
BITMAP
0000
3C00
6600
6600
6600
7C00
3C00
6CC0
C6C0
C380
C300
EF80
7CC0
0000
0000
0000
0000
0000
ENDCHAR
STARTCHAR char39
ENCODING 39
SWIDTH 1992 0
DWIDTH 12 0
BBX 2 18 5 -5
BITMAP
00
C0
C0
C0
C0
C0
00
00
00
00
00
00
00
00
00
00
00
00
ENDCHAR
STARTCHAR char40
ENCODING 40
SWIDTH 1992 0
DWIDTH 12 0
BBX 5 18 3 -5
BITMAP
18
30
30
60
60
60
C0
C0
C0
C0
C0
60
60
60
30
30
18
00
ENDCHAR
STARTCHAR char41
ENCODING 41
SWIDTH 1992 0
DWIDTH 12 0
BBX 5 18 4 -5
BITMAP
C0
60
60
30
30
30
18
18
18
18
18
30
30
30
60
60
C0
00
ENDCHAR
STARTCHAR char42
ENCODING 42
SWIDTH 1992 0
DWIDTH 12 0
BBX 6 18 3 -5
BITMAP
00
30
B4
FC
78
FC
B4
30
00
00
00
00
00
00
00
00
00
00
ENDCHAR
STARTCHAR char43
ENCODING 43
SWIDTH 1992 0
DWIDTH 12 0
BBX 10 18 1 -5
BITMAP
0000
0000
0C00
0C00
0C00
0C00
FFC0
FFC0
0C00
0C00
0C00
0C00
0000
0000
0000
0000
0000
0000
ENDCHAR
STARTCHAR char44
ENCODING 44
SWIDTH 1992 0
DWIDTH 12 0
BBX 3 18 5 -5
BITMAP
00
00
00
00
00
00
00
00
00
00
00
E0
E0
20
60
C0
00
00
ENDCHAR
STARTCHAR char45
ENCODING 45
SWIDTH 1992 0
DWIDTH 12 0
BBX 6 18 3 -5
BITMAP
00
00
00
00
00
00
FC
FC
00
00
00
00
00
00
00
00
00
00
ENDCHAR
STARTCHAR char46
ENCODING 46
SWIDTH 1992 0
DWIDTH 12 0
BBX 3 18 5 -5
BITMAP
00
00
00
00
00
00
00
00
00
00
00
E0
E0
00
00
00
00
00
ENDCHAR
STARTCHAR char47
ENCODING 47
SWIDTH 1992 0
DWIDTH 12 0
BBX 8 18 2 -5
BITMAP
03
03
06
06
0C
0C
18
18
30
30
60
60
C0
C0
00
00
00
00
ENDCHAR
STARTCHAR char48
ENCODING 48
SWIDTH 1992 0
DWIDTH 12 0
BBX 7 18 2 -5
BITMAP
00
38
6C
C6
C6
C6
C6
C6
C6
C6
C6
6C
38
00
00
00
00
00
ENDCHAR
STARTCHAR char49
ENCODING 49
SWIDTH 1992 0
DWIDTH 12 0
BBX 8 18 2 -5
BITMAP
00
18
38
78
F8
18
18
18
18
18
18
FF
FF
00
00
00
00
00
ENDCHAR
STARTCHAR char50
ENCODING 50
SWIDTH 1992 0
DWIDTH 12 0
BBX 8 18 2 -5
BITMAP
00
3E
7F
63
03
07
0E
1C
38
70
E0
FF
FF
00
00
00
00
00
ENDCHAR
STARTCHAR char51
ENCODING 51
SWIDTH 1992 0
DWIDTH 12 0
BBX 8 18 2 -5
BITMAP
00
3C
6E
46
06
0E
3C
06
03
C3
C3
E7
7E
00
00
00
00
00
ENDCHAR
STARTCHAR char52
ENCODING 52
SWIDTH 1992 0
DWIDTH 12 0
BBX 9 18 2 -5
BITMAP
0000
0E00
1600
1600
2600
2600
4600
4600
FF80
FF80
0600
0600
0600
0000
0000
0000
0000
0000
ENDCHAR
STARTCHAR char53
ENCODING 53
SWIDTH 1992 0
DWIDTH 12 0
BBX 8 18 2 -5
BITMAP
00
7E
60
60
60
7C
7E
03
03
03
C3
E7
7E
00
00
00
00
00
ENDCHAR
STARTCHAR char54
ENCODING 54
SWIDTH 1992 0
DWIDTH 12 0
BBX 7 18 2 -5
BITMAP
00
3C
66
C0
C0
C0
FC
E6
C6
C6
C6
E6
7C
00
00
00
00
00
ENDCHAR
STARTCHAR char55
ENCODING 55
SWIDTH 1992 0
DWIDTH 12 0
BBX 8 18 3 -5
BITMAP
00
FF
FF
06
06
0C
0C
18
18
30
30
60
60
00
00
00
00
00
ENDCHAR
STARTCHAR char56
ENCODING 56
SWIDTH 1992 0
DWIDTH 12 0
BBX 8 18 2 -5
BITMAP
00
3C
66
C3
C3
66
3C
66
C3
C3
C3
E7
7E
00
00
00
00
00
ENDCHAR
STARTCHAR char57
ENCODING 57
SWIDTH 1992 0
DWIDTH 12 0
BBX 7 18 2 -5
BITMAP
00
38
6C
C6
C6
C6
C6
EE
7E
06
06
CC
78
00
00
00
00
00
ENDCHAR
STARTCHAR char58
ENCODING 58
SWIDTH 1992 0
DWIDTH 12 0
BBX 3 18 5 -5
BITMAP
00
00
00
00
00
00
E0
E0
00
00
00
E0
E0
00
00
00
00
00
ENDCHAR
STARTCHAR char59
ENCODING 59
SWIDTH 1992 0
DWIDTH 12 0
BBX 3 18 5 -5
BITMAP
00
00
00
00
00
00
E0
E0
00
00
00
E0
E0
20
60
C0
00
00
ENDCHAR
STARTCHAR char60
ENCODING 60
SWIDTH 1992 0
DWIDTH 12 0
BBX 7 18 2 -5
BITMAP
00
06
0C
18
30
60
C0
C0
60
30
18
0C
06
00
00
00
00
00
ENDCHAR
STARTCHAR char61
ENCODING 61
SWIDTH 1992 0
DWIDTH 12 0
BBX 6 18 3 -5
BITMAP
00
00
00
00
FC
FC
00
00
FC
FC
00
00
00
00
00
00
00
00
ENDCHAR
STARTCHAR char62
ENCODING 62
SWIDTH 1992 0
DWIDTH 12 0
BBX 7 18 3 -5
BITMAP
00
C0
60
30
18
0C
06
06
0C
18
30
60
C0
00
00
00
00
00
ENDCHAR
STARTCHAR char63
ENCODING 63
SWIDTH 1992 0
DWIDTH 12 0
BBX 7 18 3 -5
BITMAP
00
7C
FE
C6
06
06
0C
18
30
30
00
30
30
00
00
00
00
00
ENDCHAR
STARTCHAR char64
ENCODING 64
SWIDTH 1992 0
DWIDTH 12 0
BBX 8 18 2 -5
BITMAP
00
3C
66
C3
CF
DB
DB
DB
DB
CE
C0
63
3E
00
00
00
00
00
ENDCHAR
STARTCHAR char65
ENCODING 65
SWIDTH 1992 0
DWIDTH 12 0
BBX 10 18 1 -5
BITMAP
0000
0C00
0C00
1E00
1E00
3300
3300
6180
6180
7F80
C0C0
C0C0
C0C0
0000
0000
0000
0000
0000
ENDCHAR
STARTCHAR char66
ENCODING 66
SWIDTH 1992 0
DWIDTH 12 0
BBX 8 18 2 -5
BITMAP
00
FC
C6
C6
C6
C4
FC
C6
C3
C3
C3
C6
FC
00
00
00
00
00
ENDCHAR
STARTCHAR char67
ENCODING 67
SWIDTH 1992 0
DWIDTH 12 0
BBX 7 18 2 -5
BITMAP
00
3C
66
C6
C0
C0
C0
C0
C0
C0
C6
66
3C
00
00
00
00
00
ENDCHAR
STARTCHAR char68
ENCODING 68
SWIDTH 1992 0
DWIDTH 12 0
BBX 8 18 2 -5
BITMAP
00
FC
C6
C3
C3
C3
C3
C3
C3
C3
C3
C6
FC
00
00
00
00
00
ENDCHAR
STARTCHAR char69
ENCODING 69
SWIDTH 1992 0
DWIDTH 12 0
BBX 7 18 3 -5
BITMAP
00
FE
C0
C0
C0
C0
FC
C0
C0
C0
C0
C0
FE
00
00
00
00
00
ENDCHAR
STARTCHAR char70
ENCODING 70
SWIDTH 1992 0
DWIDTH 12 0
BBX 7 18 3 -5
BITMAP
00
FE
C0
C0
C0
C0
FC
C0
C0
C0
C0
C0
C0
00
00
00
00
00
ENDCHAR
STARTCHAR char71
ENCODING 71
SWIDTH 1992 0
DWIDTH 12 0
BBX 8 18 2 -5
BITMAP
00
3E
63
C3
C0
C0
C0
CF
C3
C3
C3
67
3B
00
00
00
00
00
ENDCHAR
STARTCHAR char72
ENCODING 72
SWIDTH 1992 0
DWIDTH 12 0
BBX 8 18 2 -5
BITMAP
00
C3
C3
C3
C3
C3
FF
C3
C3
C3
C3
C3
C3
00
00
00
00
00
ENDCHAR
STARTCHAR char73
ENCODING 73
SWIDTH 1992 0
DWIDTH 12 0
BBX 6 18 3 -5
BITMAP
00
FC
30
30
30
30
30
30
30
30
30
30
FC
00
00
00
00
00
ENDCHAR
STARTCHAR char74
ENCODING 74
SWIDTH 1992 0
DWIDTH 12 0
BBX 8 18 2 -5
BITMAP
00
1F
03
03
03
03
03
03
C3
C3
C3
66
3C
00
00
00
00
00
ENDCHAR
STARTCHAR char75
ENCODING 75
SWIDTH 1992 0
DWIDTH 12 0
BBX 9 18 2 -5
BITMAP
0000
C300
C600
CC00
D800
F000
E000
F000
D800
CC00
C600
C300
C180
0000
0000
0000
0000
0000
ENDCHAR
STARTCHAR char76
ENCODING 76
SWIDTH 1992 0
DWIDTH 12 0
BBX 7 18 2 -5
BITMAP
00
C0
C0
C0
C0
C0
C0
C0
C0
C0
C0
C0
FE
00
00
00
00
00
ENDCHAR
STARTCHAR char77
ENCODING 77
SWIDTH 1992 0
DWIDTH 12 0
BBX 10 18 1 -5
BITMAP
0000
E1C0
F3C0
F3C0
D2C0
D2C0
DEC0
CCC0
CCC0
CCC0
C0C0
C0C0
C0C0
0000
0000
0000
0000
0000
ENDCHAR
STARTCHAR char78
ENCODING 78
SWIDTH 1992 0
DWIDTH 12 0
BBX 8 18 2 -5
BITMAP
00
E3
E3
F3
D3
D3
DB
DB
CB
CB
CF
C7
C7
00
00
00
00
00
ENDCHAR
STARTCHAR char79
ENCODING 79
SWIDTH 1992 0
DWIDTH 12 0
BBX 8 18 2 -5
BITMAP
00
3C
66
C3
C3
C3
C3
C3
C3
C3
C3
66
3C
00
00
00
00
00
ENDCHAR
STARTCHAR char80
ENCODING 80
SWIDTH 1992 0
DWIDTH 12 0
BBX 8 18 2 -5
BITMAP
00
FC
C6
C3
C3
C3
C6
FC
C0
C0
C0
C0
C0
00
00
00
00
00
ENDCHAR
STARTCHAR char81
ENCODING 81
SWIDTH 1992 0
DWIDTH 12 0
BBX 8 18 2 -5
BITMAP
00
3C
66
C3
C3
C3
C3
C3
C3
C3
C3
66
3C
0C
06
03
00
00
ENDCHAR
STARTCHAR char82
ENCODING 82
SWIDTH 1992 0
DWIDTH 12 0
BBX 9 18 2 -5
BITMAP
0000
FC00
C600
C300
C300
C300
C600
FC00
D800
CC00
C600
C300
C180
0000
0000
0000
0000
0000
ENDCHAR
STARTCHAR char83
ENCODING 83
SWIDTH 1992 0
DWIDTH 12 0
BBX 8 18 2 -5
BITMAP
00
3E
73
63
70
38
1C
0E
07
C3
C3
E7
7E
00
00
00
00
00
ENDCHAR
STARTCHAR char84
ENCODING 84
SWIDTH 1992 0
DWIDTH 12 0
BBX 8 18 2 -5
BITMAP
00
FF
18
18
18
18
18
18
18
18
18
18
18
00
00
00
00
00
ENDCHAR
STARTCHAR char85
ENCODING 85
SWIDTH 1992 0
DWIDTH 12 0
BBX 8 18 2 -5
BITMAP
00
C3
C3
C3
C3
C3
C3
C3
C3
C3
C3
66
3C
00
00
00
00
00
ENDCHAR
STARTCHAR char86
ENCODING 86
SWIDTH 1992 0
DWIDTH 12 0
BBX 10 18 1 -5
BITMAP
0000
C0C0
C0C0
C0C0
6180
6180
6180
6180
3300
3300
3300
1E00
1E00
0000
0000
0000
0000
0000
ENDCHAR
STARTCHAR char87
ENCODING 87
SWIDTH 1992 0
DWIDTH 12 0
BBX 10 18 1 -5
BITMAP
0000
C0C0
C0C0
C0C0
C0C0
6D80
6D80
6D80
6D80
3300
3300
3300
3300
0000
0000
0000
0000
0000
ENDCHAR
STARTCHAR char88
ENCODING 88
SWIDTH 1992 0
DWIDTH 12 0
BBX 8 18 2 -5
BITMAP
00
C3
C3
66
66
3C
18
3C
3C
66
66
C3
C3
00
00
00
00
00
ENDCHAR
STARTCHAR char89
ENCODING 89
SWIDTH 1992 0
DWIDTH 12 0
BBX 8 18 2 -5
BITMAP
00
C3
C3
66
66
24
3C
18
18
18
18
18
18
00
00
00
00
00
ENDCHAR
STARTCHAR char90
ENCODING 90
SWIDTH 1992 0
DWIDTH 12 0
BBX 8 18 2 -5
BITMAP
00
7F
03
03
06
0C
0C
18
30
30
60
C0
FF
00
00
00
00
00
ENDCHAR
STARTCHAR char91
ENCODING 91
SWIDTH 1992 0
DWIDTH 12 0
BBX 5 18 4 -5
BITMAP
F8
C0
C0
C0
C0
C0
C0
C0
C0
C0
C0
C0
C0
C0
C0
C0
F8
00
ENDCHAR
STARTCHAR char92
ENCODING 92
SWIDTH 1992 0
DWIDTH 12 0
BBX 8 18 2 -5
BITMAP
C0
C0
60
60
30
30
18
18
0C
0C
06
06
03
03
00
00
00
00
ENDCHAR
STARTCHAR char93
ENCODING 93
SWIDTH 1992 0
DWIDTH 12 0
BBX 5 18 3 -5
BITMAP
F8
18
18
18
18
18
18
18
18
18
18
18
18
18
18
18
F8
00
ENDCHAR
STARTCHAR char94
ENCODING 94
SWIDTH 1992 0
DWIDTH 12 0
BBX 9 18 1 -5
BITMAP
1C00
3600
6300
C180
0000
0000
0000
0000
0000
0000
0000
0000
0000
0000
0000
0000
0000
0000
ENDCHAR
STARTCHAR char95
ENCODING 95
SWIDTH 1992 0
DWIDTH 12 0
BBX 12 18 0 -5
BITMAP
0000
0000
0000
0000
0000
0000
0000
0000
0000
0000
0000
0000
0000
0000
0000
0000
FFF0
FFF0
ENDCHAR
STARTCHAR char96
ENCODING 96
SWIDTH 1992 0
DWIDTH 12 0
BBX 5 18 4 -5
BITMAP
C0
60
30
18
00
00
00
00
00
00
00
00
00
00
00
00
00
00
ENDCHAR
STARTCHAR char97
ENCODING 97
SWIDTH 1992 0
DWIDTH 12 0
BBX 8 18 2 -5
BITMAP
00
00
00
00
7C
C6
06
06
7E
C6
86
C6
7F
00
00
00
00
00
ENDCHAR
STARTCHAR char98
ENCODING 98
SWIDTH 1992 0
DWIDTH 12 0
BBX 8 18 2 -5
BITMAP
00
C0
C0
C0
DE
E7
C3
C3
C3
C3
C3
E7
DE
00
00
00
00
00
ENDCHAR
STARTCHAR char99
ENCODING 99
SWIDTH 1992 0
DWIDTH 12 0
BBX 8 18 2 -5
BITMAP
00
00
00
00
3E
63
C3
C0
C0
C0
C3
63
3E
00
00
00
00
00
ENDCHAR
STARTCHAR char100
ENCODING 100
SWIDTH 1992 0
DWIDTH 12 0
BBX 8 18 2 -5
BITMAP
00
03
03
03
3B
67
C3
C3
C3
C3
C3
67
3B
00
00
00
00
00
ENDCHAR
STARTCHAR char101
ENCODING 101
SWIDTH 1992 0
DWIDTH 12 0
BBX 8 18 2 -5
BITMAP
00
00
00
00
3C
66
C3
C3
FF
C0
C0
67
3E
00
00
00
00
00
ENDCHAR
STARTCHAR char102
ENCODING 102
SWIDTH 1992 0
DWIDTH 12 0
BBX 8 18 2 -5
BITMAP
00
1E
33
30
30
FC
30
30
30
30
30
30
30
00
00
00
00
00
ENDCHAR
STARTCHAR char103
ENCODING 103
SWIDTH 1992 0
DWIDTH 12 0
BBX 8 18 2 -5
BITMAP
00
00
00
00
3B
67
C3
C3
C3
C3
C7
7B
33
03
83
66
3C
00
ENDCHAR
STARTCHAR char104
ENCODING 104
SWIDTH 1992 0
DWIDTH 12 0
BBX 8 18 2 -5
BITMAP
00
C0
C0
C0
DE
E7
C3
C3
C3
C3
C3
C3
C3
00
00
00
00
00
ENDCHAR
STARTCHAR char105
ENCODING 105
SWIDTH 1992 0
DWIDTH 12 0
BBX 4 18 4 -5
BITMAP
00
30
10
00
F0
30
30
30
30
30
30
30
30
00
00
00
00
00
ENDCHAR
STARTCHAR char106
ENCODING 106
SWIDTH 1992 0
DWIDTH 12 0
BBX 7 18 2 -5
BITMAP
00
06
06
00
3E
06
06
06
06
06
06
06
C6
C6
6C
38
00
00
ENDCHAR
STARTCHAR char107
ENCODING 107
SWIDTH 1992 0
DWIDTH 12 0
BBX 8 18 2 -5
BITMAP
00
C0
C0
C0
C6
CC
D8
F0
F0
D8
CC
C6
C3
00
00
00
00
00
ENDCHAR
STARTCHAR char108
ENCODING 108
SWIDTH 1992 0
DWIDTH 12 0
BBX 2 18 5 -5
BITMAP
00
C0
C0
C0
C0
C0
C0
C0
C0
C0
C0
C0
C0
00
00
00
00
00
ENDCHAR
STARTCHAR char109
ENCODING 109
SWIDTH 1992 0
DWIDTH 12 0
BBX 10 18 1 -5
BITMAP
0000
0000
0000
0000
D980
EEC0
CCC0
CCC0
CCC0
CCC0
CCC0
CCC0
CCC0
0000
0000
0000
0000
0000
ENDCHAR
STARTCHAR char110
ENCODING 110
SWIDTH 1992 0
DWIDTH 12 0
BBX 8 18 2 -5
BITMAP
00
00
00
00
DE
E7
C3
C3
C3
C3
C3
C3
C3
00
00
00
00
00
ENDCHAR
STARTCHAR char111
ENCODING 111
SWIDTH 1992 0
DWIDTH 12 0
BBX 8 18 2 -5
BITMAP
00
00
00
00
3C
66
C3
C3
C3
C3
C3
66
3C
00
00
00
00
00
ENDCHAR
STARTCHAR char112
ENCODING 112
SWIDTH 1992 0
DWIDTH 12 0
BBX 8 18 2 -5
BITMAP
00
00
00
00
DC
E6
C3
C3
C3
C3
C3
E6
DC
C0
C0
C0
00
00
ENDCHAR
STARTCHAR char113
ENCODING 113
SWIDTH 1992 0
DWIDTH 12 0
BBX 8 18 2 -5
BITMAP
00
00
00
00
3B
67
C3
C3
C3
C3
C3
67
3B
03
03
03
00
00
ENDCHAR
STARTCHAR char114
ENCODING 114
SWIDTH 1992 0
DWIDTH 12 0
BBX 7 18 3 -5
BITMAP
00
00
00
00
DC
E6
C6
C0
C0
C0
C0
C0
C0
00
00
00
00
00
ENDCHAR
STARTCHAR char115
ENCODING 115
SWIDTH 1992 0
DWIDTH 12 0
BBX 8 18 2 -5
BITMAP
00
00
00
00
3E
C3
C0
E0
3E
07
83
C3
7E
00
00
00
00
00
ENDCHAR
STARTCHAR char116
ENCODING 116
SWIDTH 1992 0
DWIDTH 12 0
BBX 7 18 2 -5
BITMAP
00
00
30
30
FC
30
30
30
30
30
36
36
1C
00
00
00
00
00
ENDCHAR
STARTCHAR char117
ENCODING 117
SWIDTH 1992 0
DWIDTH 12 0
BBX 8 18 2 -5
BITMAP
00
00
00
00
C3
C3
C3
C3
C3
C3
C3
67
3B
00
00
00
00
00
ENDCHAR
STARTCHAR char118
ENCODING 118
SWIDTH 1992 0
DWIDTH 12 0
BBX 8 18 2 -5
BITMAP
00
00
00
00
C3
C3
C3
C3
66
66
66
3C
18
00
00
00
00
00
ENDCHAR
STARTCHAR char119
ENCODING 119
SWIDTH 1992 0
DWIDTH 12 0
BBX 10 18 1 -5
BITMAP
0000
0000
0000
0000
C0C0
C0C0
CCC0
6D80
6D80
6D80
3F00
3300
3300
0000
0000
0000
0000
0000
ENDCHAR
STARTCHAR char120
ENCODING 120
SWIDTH 1992 0
DWIDTH 12 0
BBX 8 18 2 -5
BITMAP
00
00
00
00
C3
66
66
3C
18
3C
66
66
C3
00
00
00
00
00
ENDCHAR
STARTCHAR char121
ENCODING 121
SWIDTH 1992 0
DWIDTH 12 0
BBX 10 18 1 -5
BITMAP
0000
0000
0000
0000
60C0
60C0
3180
3180
1B00
1B00
0E00
0E00
0C00
0C00
D800
D800
7000
0000
ENDCHAR
STARTCHAR char122
ENCODING 122
SWIDTH 1992 0
DWIDTH 12 0
BBX 8 18 2 -5
BITMAP
00
00
00
00
7F
03
06
0C
18
30
60
C0
FF
00
00
00
00
00
ENDCHAR
STARTCHAR char123
ENCODING 123
SWIDTH 1992 0
DWIDTH 12 0
BBX 7 18 2 -5
BITMAP
0E
18
30
30
30
30
30
60
C0
60
30
30
30
30
30
18
0E
00
ENDCHAR
STARTCHAR char124
ENCODING 124
SWIDTH 1992 0
DWIDTH 12 0
BBX 2 18 5 -5
BITMAP
C0
C0
C0
C0
C0
C0
C0
C0
C0
C0
C0
C0
C0
C0
C0
C0
C0
00
ENDCHAR
STARTCHAR char125
ENCODING 125
SWIDTH 1992 0
DWIDTH 12 0
BBX 7 18 3 -5
BITMAP
E0
30
18
18
18
18
18
0C
06
0C
18
18
18
18
18
30
E0
00
ENDCHAR
STARTCHAR char126
ENCODING 126
SWIDTH 1992 0
DWIDTH 12 0
BBX 11 18 1 -5
BITMAP
0000
0000
0000
0000
0000
1860
3CC0
6780
C300
0000
0000
0000
0000
0000
0000
0000
0000
0000
ENDCHAR
ENDFONT
