STARTFONT 2.1
FONT -MIT-20FGI KST-Medium-R-Normal--20-7-200-200-P-12-ISO8859-1
SIZE 7 200 200
FONTBOUNDINGBOX 12 20 -4 -5
STARTPROPERTIES 17
ADD_STYLE_NAME ""
AVERAGE_WIDTH 12
CHARSET_ENCODING "1"
CHARSET_REGISTRY "ISO8859"
DEFAULT_CHAR 0
FAMILY "20FGI KST"
FONT_ASCENT 15
FONT_DESCENT 5
FOUNDRY "MIT"
PIXEL_SIZE 20
POINT_SIZE 7
RESOLUTION_X 200
RESOLUTION_Y 200
SETWIDTH_NAME "Normal"
SLANT "R"
SPACING "P"
WEIGHT_NAME "Medium"
ENDPROPERTIES
CHARS 119
STARTCHAR char5
ENCODING 5
SWIDTH 1704 0
DWIDTH 12 0
BBX 10 20 0 -5
BITMAP
0000
0000
0000
0000
0000
0000
0000
0000
FFC0
FFC0
00C0
00C0
00C0
0000
0000
0000
0000
0000
0000
0000
ENDCHAR
STARTCHAR char6
ENCODING 6
SWIDTH 1704 0
DWIDTH 12 0
BBX 7 20 0 -5
BITMAP
00
00
00
00
00
1E
38
60
C0
C0
FC
C0
C0
60
38
1E
00
00
00
00
ENDCHAR
STARTCHAR char7
ENCODING 7
SWIDTH 1704 0
DWIDTH 12 0
BBX 10 20 0 -5
BITMAP
0000
0000
0000
0000
0000
FE00
FF80
63C0
6300
6300
6300
6300
6300
6300
E3C0
0000
0000
0000
0000
0000
ENDCHAR
STARTCHAR char8
ENCODING 8
SWIDTH 1704 0
DWIDTH 12 0
BBX 10 20 0 -5
BITMAP
0000
0000
E000
3000
1800
0C00
0C00
0E00
0E00
1B00
3300
6180
C180
C0C0
80C0
0000
0000
0000
0000
0000
ENDCHAR
STARTCHAR char11
ENCODING 11
SWIDTH 1704 0
DWIDTH 12 0
BBX 10 20 0 -5
BITMAP
0C00
1E00
3F00
6D80
CCC0
8C40
0C00
0C00
0C00
0C00
0C00
0C00
0C00
0C00
0C00
0000
0000
0000
0000
0000
ENDCHAR
STARTCHAR char13
ENCODING 13
SWIDTH 1704 0
DWIDTH 12 0
BBX 10 20 0 -5
BITMAP
0000
0000
0000
0000
FF80
FFC0
01C0
0380
C700
CE00
DC00
F800
F000
FE00
FE00
0000
0000
0000
0000
0000
ENDCHAR
STARTCHAR char14
ENCODING 14
SWIDTH 1704 0
DWIDTH 12 0
BBX 10 20 0 -5
BITMAP
0000
0000
0000
0000
0000
0000
0000
7380
F3C0
CCC0
CCC0
CCC0
F3C0
7380
0000
0000
0000
0000
0000
0000
ENDCHAR
STARTCHAR char15
ENCODING 15
SWIDTH 1704 0
DWIDTH 12 0
BBX 9 20 1 -5
BITMAP
3000
1C00
0600
0300
0300
0180
0F80
3F80
7380
C180
C180
C380
C700
7E00
3800
0000
0000
0000
0000
0000
ENDCHAR
STARTCHAR char16
ENCODING 16
SWIDTH 1704 0
DWIDTH 12 0
BBX 10 20 0 -5
BITMAP
0000
0000
0000
0000
0000
1FC0
3FC0
7000
E000
C000
C000
E000
7000
3FC0
1FC0
0000
0000
0000
0000
0000
ENDCHAR
STARTCHAR char17
ENCODING 17
SWIDTH 1704 0
DWIDTH 12 0
BBX 10 20 0 -5
BITMAP
0000
0000
0000
0000
0000
FE00
FF00
0380
01C0
00C0
00C0
01C0
0380
FF00
FE00
0000
0000
0000
0000
0000
ENDCHAR
STARTCHAR char18
ENCODING 18
SWIDTH 1704 0
DWIDTH 12 0
BBX 10 20 0 -5
BITMAP
3F00
7F80
E1C0
C0C0
C0C0
C0C0
C0C0
C0C0
C0C0
C0C0
C0C0
C0C0
C0C0
C0C0
C0C0
0000
0000
0000
0000
0000
ENDCHAR
STARTCHAR char19
ENCODING 19
SWIDTH 1704 0
DWIDTH 12 0
BBX 10 20 0 -5
BITMAP
C0C0
C0C0
C0C0
C0C0
C0C0
C0C0
C0C0
C0C0
C0C0
C0C0
C0C0
C0C0
E1C0
7F80
3F00
0000
0000
0000
0000
0000
ENDCHAR
STARTCHAR char20
ENCODING 20
SWIDTH 1704 0
DWIDTH 12 0
BBX 10 20 0 -5
BITMAP
C0C0
C0C0
C0C0
C0C0
7F80
7F80
6180
3300
3300
3300
1200
1E00
1E00
0C00
0C00
0000
0000
0000
0000
0000
ENDCHAR
STARTCHAR char21
ENCODING 21
SWIDTH 1704 0
DWIDTH 12 0
BBX 10 20 0 -5
BITMAP
FFC0
FF80
0180
0180
0180
0180
1F80
1F80
0180
0180
0180
0180
0180
FF80
FFC0
0000
0000
0000
0000
0000
ENDCHAR
STARTCHAR char22
ENCODING 22
SWIDTH 1704 0
DWIDTH 12 0
BBX 10 20 0 -5
BITMAP
0000
0000
0000
0000
0000
3F00
6180
E1C0
B340
9E40
8C40
9E40
F3C0
6180
3F00
0000
0000
0000
0000
0000
ENDCHAR
STARTCHAR char23
ENCODING 23
SWIDTH 1704 0
DWIDTH 12 0
BBX 10 20 0 -5
BITMAP
0000
0000
0000
0000
0000
0000
1200
2100
6180
FFC0
FFC0
6180
2100
1200
0000
0000
0000
0000
0000
0000
ENDCHAR
STARTCHAR char24
ENCODING 24
SWIDTH 1704 0
DWIDTH 12 0
BBX 10 20 0 -5
BITMAP
0000
0000
0000
0000
0000
0000
1000
3000
6000
FFC0
FFC0
6000
3000
1000
0000
0000
0000
0000
0000
0000
ENDCHAR
STARTCHAR char25
ENCODING 25
SWIDTH 1704 0
DWIDTH 12 0
BBX 10 20 0 -5
BITMAP
0000
0000
0000
0000
0000
0000
0600
0300
0180
FFC0
FFC0
0180
0300
0600
0000
0000
0000
0000
0000
0000
ENDCHAR
STARTCHAR char26
ENCODING 26
SWIDTH 1704 0
DWIDTH 12 0
BBX 10 20 0 -5
BITMAP
0000
0000
0000
0000
0000
00C0
0180
FFC0
FFC0
0E00
1C00
FFC0
FFC0
6000
C000
0000
0000
0000
0000
0000
ENDCHAR
STARTCHAR char27
ENCODING 27
SWIDTH 1704 0
DWIDTH 12 0
BBX 10 20 0 -5
BITMAP
0000
0000
0000
0000
0000
0000
0000
0000
3840
7CC0
EDC0
CF80
8700
0000
0000
0000
0000
0000
0000
0000
ENDCHAR
STARTCHAR char28
ENCODING 28
SWIDTH 1704 0
DWIDTH 12 0
BBX 10 20 0 -5
BITMAP
0000
00C0
0380
0F00
3C00
F000
F000
3C00
0F00
0380
00C0
0000
0000
FFC0
FFC0
0000
0000
0000
0000
0000
ENDCHAR
STARTCHAR char29
ENCODING 29
SWIDTH 1704 0
DWIDTH 12 0
BBX 10 20 0 -5
BITMAP
0000
C000
7000
3C00
0F00
03C0
03C0
0F00
3C00
7000
C000
0000
0000
FFC0
FFC0
0000
0000
0000
0000
0000
ENDCHAR
STARTCHAR char30
ENCODING 30
SWIDTH 1704 0
DWIDTH 12 0
BBX 9 20 0 -5
BITMAP
0000
0000
0000
0000
0000
FF80
FF80
0000
0000
FF80
FF80
0000
0000
FF80
FF80
0000
0000
0000
0000
0000
ENDCHAR
STARTCHAR char31
ENCODING 31
SWIDTH 1704 0
DWIDTH 12 0
BBX 10 20 0 -5
BITMAP
0000
0000
0000
0000
0000
8040
C0C0
4080
6180
2100
3300
1200
1E00
0C00
0C00
0000
0000
0000
0000
0000
ENDCHAR
STARTCHAR char32
ENCODING 32
SWIDTH 1704 0
DWIDTH 12 0
BBX 1 20 0 -5
BITMAP
00
00
00
00
00
00
00
00
00
00
00
00
00
00
00
00
00
00
00
00
ENDCHAR
STARTCHAR char33
ENCODING 33
SWIDTH 1704 0
DWIDTH 12 0
BBX 4 20 4 -5
BITMAP
30
30
30
30
30
60
60
60
60
60
C0
00
00
C0
C0
00
00
00
00
00
ENDCHAR
STARTCHAR char34
ENCODING 34
SWIDTH 1704 0
DWIDTH 12 0
BBX 7 20 2 -5
BITMAP
66
66
66
CC
CC
CC
00
00
00
00
00
00
00
00
00
00
00
00
00
00
ENDCHAR
STARTCHAR char35
ENCODING 35
SWIDTH 1704 0
DWIDTH 12 0
BBX 11 20 0 -5
BITMAP
0660
0660
0660
0CC0
3FE0
3FE0
1980
1980
3300
3300
FF80
FF80
6600
CC00
CC00
0000
0000
0000
0000
0000
ENDCHAR
STARTCHAR char36
ENCODING 36
SWIDTH 1704 0
DWIDTH 12 0
BBX 11 20 0 -5
BITMAP
0600
1F80
3FC0
66E0
6660
6600
3E00
3F00
0F80
0CC0
0CC0
CCC0
FF80
7F00
0C00
0000
0000
0000
0000
0000
ENDCHAR
STARTCHAR char37
ENCODING 37
SWIDTH 1704 0
DWIDTH 12 0
BBX 10 20 0 -5
BITMAP
70C0
8980
8980
8B00
7300
0600
0600
0C00
1800
1800
3380
3440
6440
6440
C380
0000
0000
0000
0000
0000
ENDCHAR
STARTCHAR char38
ENCODING 38
SWIDTH 1704 0
DWIDTH 12 0
BBX 11 20 0 -5
BITMAP
0380
07C0
0C60
0C60
0CC0
0780
1E00
3E00
7700
6360
C3C0
C380
C300
7FC0
3CC0
0000
0000
0000
0000
0000
ENDCHAR
STARTCHAR char39
ENCODING 39
SWIDTH 1704 0
DWIDTH 12 0
BBX 5 20 2 -5
BITMAP
30
78
78
30
30
60
C0
80
00
00
00
00
00
00
00
00
00
00
00
00
ENDCHAR
STARTCHAR char40
ENCODING 40
SWIDTH 1704 0
DWIDTH 12 0
BBX 7 20 4 -5
BITMAP
06
0C
1C
18
38
60
60
60
60
60
E0
60
70
30
18
00
00
00
00
00
ENDCHAR
STARTCHAR char41
ENCODING 41
SWIDTH 1704 0
DWIDTH 12 0
BBX 6 20 1 -5
BITMAP
30
18
1C
0C
0C
0C
0C
0C
0C
0C
18
30
70
60
C0
00
00
00
00
00
ENDCHAR
STARTCHAR char42
ENCODING 42
SWIDTH 1704 0
DWIDTH 12 0
BBX 10 20 0 -5
BITMAP
0000
0000
0000
0000
1E00
0C00
CCC0
EDC0
3300
0000
3300
EDC0
CCC0
0C00
1E00
0000
0000
0000
0000
0000
ENDCHAR
STARTCHAR char43
ENCODING 43
SWIDTH 1704 0
DWIDTH 12 0
BBX 10 20 0 -5
BITMAP
0000
0000
0000
0000
0000
0C00
0C00
0C00
0C00
FFC0
FFC0
0C00
0C00
0C00
0C00
0000
0000
0000
0000
0000
ENDCHAR
STARTCHAR char44
ENCODING 44
SWIDTH 1704 0
DWIDTH 12 0
BBX 4 20 2 -5
BITMAP
00
00
00
00
00
00
00
00
00
00
00
00
60
F0
F0
30
30
60
C0
80
ENDCHAR
STARTCHAR char45
ENCODING 45
SWIDTH 1704 0
DWIDTH 12 0
BBX 10 20 0 -5
BITMAP
0000
0000
0000
0000
0000
0000
0000
0000
0000
7FC0
FF80
0000
0000
0000
0000
0000
0000
0000
0000
0000
ENDCHAR
STARTCHAR char46
ENCODING 46
SWIDTH 1704 0
DWIDTH 12 0
BBX 4 20 2 -5
BITMAP
00
00
00
00
00
00
00
00
00
00
00
60
F0
F0
60
00
00
00
00
00
ENDCHAR
STARTCHAR char47
ENCODING 47
SWIDTH 1704 0
DWIDTH 12 0
BBX 10 20 0 -5
BITMAP
00C0
0180
0180
0300
0300
0600
0600
0C00
1800
1800
3000
3000
6000
6000
C000
0000
0000
0000
0000
0000
ENDCHAR
STARTCHAR char48
ENCODING 48
SWIDTH 1704 0
DWIDTH 12 0
BBX 12 20 0 -5
BITMAP
0780
0FC0
1CE0
1870
1870
31C0
33C0
36C0
3CC0
38C0
E180
E180
7380
3F00
1E00
0000
0000
0000
0000
0000
ENDCHAR
STARTCHAR char49
ENCODING 49
SWIDTH 1704 0
DWIDTH 12 0
BBX 8 20 1 -5
BITMAP
06
0E
1E
06
06
0C
0C
0C
0C
0C
18
18
18
FF
FF
00
00
00
00
00
ENDCHAR
STARTCHAR char50
ENCODING 50
SWIDTH 1704 0
DWIDTH 12 0
BBX 11 20 0 -5
BITMAP
0F80
1FC0
3060
3060
0060
00C0
0180
0300
0600
0C00
3000
6000
C000
FF80
FF80
0000
0000
0000
0000
0000
ENDCHAR
STARTCHAR char51
ENCODING 51
SWIDTH 1704 0
DWIDTH 12 0
BBX 11 20 0 -5
BITMAP
0F80
1FC0
30E0
3060
0060
0180
0F00
0F80
00C0
00C0
00C0
C180
C380
7F00
3E00
0000
0000
0000
0000
0000
ENDCHAR
STARTCHAR char52
ENCODING 52
SWIDTH 1704 0
DWIDTH 12 0
BBX 9 20 0 -5
BITMAP
0300
0300
0600
0600
0C00
1B00
3300
3300
6300
6300
FF80
FF80
0600
0600
0600
0000
0000
0000
0000
0000
ENDCHAR
STARTCHAR char53
ENCODING 53
SWIDTH 1704 0
DWIDTH 12 0
BBX 10 20 0 -5
BITMAP
3FC0
3FC0
3000
3000
6000
6000
7F00
7F80
01C0
00C0
00C0
C180
C380
7F00
3E00
0000
0000
0000
0000
0000
ENDCHAR
STARTCHAR char54
ENCODING 54
SWIDTH 1704 0
DWIDTH 12 0
BBX 11 20 0 -5
BITMAP
0F80
1FC0
3060
3060
3000
6000
6F00
7F80
71C0
60C0
C180
C180
E380
7F00
3E00
0000
0000
0000
0000
0000
ENDCHAR
STARTCHAR char55
ENCODING 55
SWIDTH 1704 0
DWIDTH 12 0
BBX 10 20 0 -5
BITMAP
7FC0
FF80
0180
0300
0300
0600
0600
0C00
1800
3000
3000
6000
6000
C000
C000
0000
0000
0000
0000
0000
ENDCHAR
STARTCHAR char56
ENCODING 56
SWIDTH 1704 0
DWIDTH 12 0
BBX 11 20 0 -5
BITMAP
0780
0FC0
1860
1860
1860
1980
0F00
1F80
39C0
70E0
6060
C0C0
E1C0
7F80
3F00
0000
0000
0000
0000
0000
ENDCHAR
STARTCHAR char57
ENCODING 57
SWIDTH 1704 0
DWIDTH 12 0
BBX 11 20 0 -5
BITMAP
0F80
1FC0
38E0
3060
3060
60C0
71C0
3FC0
1EC0
00C0
0180
C180
C380
7F00
3E00
0000
0000
0000
0000
0000
ENDCHAR
STARTCHAR char58
ENCODING 58
SWIDTH 1704 0
DWIDTH 12 0
BBX 5 20 2 -5
BITMAP
00
00
00
00
00
30
78
78
30
00
00
60
F0
F0
60
00
00
00
00
00
ENDCHAR
STARTCHAR char59
ENCODING 59
SWIDTH 1704 0
DWIDTH 12 0
BBX 5 20 2 -5
BITMAP
00
00
00
00
00
00
30
78
78
30
00
00
60
F0
F0
30
60
C0
80
00
ENDCHAR
STARTCHAR char60
ENCODING 60
SWIDTH 1704 0
DWIDTH 12 0
BBX 10 20 0 -5
BITMAP
0000
0000
0000
0000
0000
00C0
0380
0E00
3C00
F000
F000
3C00
0E00
0380
00C0
0000
0000
0000
0000
0000
ENDCHAR
STARTCHAR char61
ENCODING 61
SWIDTH 1704 0
DWIDTH 12 0
BBX 9 20 0 -5
BITMAP
0000
0000
0000
0000
0000
0000
0000
FF80
FF80
0000
0000
FF80
FF80
0000
0000
0000
0000
0000
0000
0000
ENDCHAR
STARTCHAR char62
ENCODING 62
SWIDTH 1704 0
DWIDTH 12 0
BBX 10 20 0 -5
BITMAP
0000
0000
0000
0000
0000
C000
7000
3C00
0F00
03C0
03C0
0F00
3C00
7000
C000
0000
0000
0000
0000
0000
ENDCHAR
STARTCHAR char63
ENCODING 63
SWIDTH 1704 0
DWIDTH 12 0
BBX 8 20 3 -5
BITMAP
3C
7E
E7
83
03
06
0C
18
30
60
C0
00
00
C0
C0
00
00
00
00
00
ENDCHAR
STARTCHAR char64
ENCODING 64
SWIDTH 1704 0
DWIDTH 12 0
BBX 11 20 0 -5
BITMAP
0000
0000
0000
07C0
1FE0
3060
6060
6720
6FA0
6CA0
6CA0
CFC0
C000
6000
7FC0
1FC0
0000
0000
0000
0000
ENDCHAR
STARTCHAR char65
ENCODING 65
SWIDTH 1704 0
DWIDTH 12 0
BBX 9 20 0 -5
BITMAP
0600
0F00
1B80
3180
3180
6180
6180
6180
7F80
7F80
C180
C180
C180
C180
C180
0000
0000
0000
0000
0000
ENDCHAR
STARTCHAR char66
ENCODING 66
SWIDTH 1704 0
DWIDTH 12 0
BBX 10 20 0 -5
BITMAP
3E00
3F80
31C0
30C0
30C0
6180
6300
7E00
7F00
6300
6180
C180
C180
C380
FF00
FC00
0000
0000
0000
0000
ENDCHAR
STARTCHAR char67
ENCODING 67
SWIDTH 1704 0
DWIDTH 12 0
BBX 9 20 0 -5
BITMAP
0E00
1F00
3B80
3180
3000
6000
6000
6000
6000
6000
C000
C180
E380
7F00
3E00
0000
0000
0000
0000
0000
ENDCHAR
STARTCHAR char68
ENCODING 68
SWIDTH 1704 0
DWIDTH 12 0
BBX 9 20 0 -5
BITMAP
3E00
3F00
3380
3180
3180
6180
6180
6180
6180
6180
C180
C180
C380
FF00
FE00
0000
0000
0000
0000
0000
ENDCHAR
STARTCHAR char69
ENCODING 69
SWIDTH 1704 0
DWIDTH 12 0
BBX 9 20 0 -5
BITMAP
3F80
3F80
3000
3000
3000
6000
7F00
7F00
6000
6000
C000
C000
C000
FF80
FF80
0000
0000
0000
0000
0000
ENDCHAR
STARTCHAR char70
ENCODING 70
SWIDTH 1704 0
DWIDTH 12 0
BBX 9 20 0 -5
BITMAP
3F80
3F80
3000
3000
3000
6000
6000
7F00
7F00
6000
C000
C000
C000
C000
C000
0000
0000
0000
0000
0000
ENDCHAR
STARTCHAR char71
ENCODING 71
SWIDTH 1704 0
DWIDTH 12 0
BBX 10 20 0 -5
BITMAP
0E00
1F00
39C0
30C0
3000
6000
6000
6000
6780
6780
C180
C180
E380
7F00
3E00
0000
0000
0000
0000
0000
ENDCHAR
STARTCHAR char72
ENCODING 72
SWIDTH 1704 0
DWIDTH 12 0
BBX 10 20 0 -5
BITMAP
30C0
30C0
30C0
30C0
30C0
6180
7F80
7F80
6180
6180
C300
C300
C300
C300
C300
0000
0000
0000
0000
0000
ENDCHAR
STARTCHAR char73
ENCODING 73
SWIDTH 1704 0
DWIDTH 12 0
BBX 8 20 2 -5
BITMAP
3F
3F
0C
0C
0C
18
18
18
18
18
30
30
30
FC
FC
00
00
00
00
00
ENDCHAR
STARTCHAR char74
ENCODING 74
SWIDTH 1704 0
DWIDTH 12 0
BBX 10 20 0 -5
BITMAP
00C0
00C0
00C0
00C0
00C0
0180
0180
0180
0180
0180
0300
C300
C700
7E00
3C00
0000
0000
0000
0000
0000
ENDCHAR
STARTCHAR char75
ENCODING 75
SWIDTH 1704 0
DWIDTH 12 0
BBX 10 20 0 -5
BITMAP
30C0
3180
3300
3600
3C00
7000
7000
7000
7000
6800
D800
CC00
C600
C300
C100
0000
0000
0000
0000
0000
ENDCHAR
STARTCHAR char76
ENCODING 76
SWIDTH 1704 0
DWIDTH 12 0
BBX 9 20 0 -5
BITMAP
3000
3000
3000
3000
3000
6000
6000
6000
6000
6000
C000
C000
C000
FF80
FF80
0000
0000
0000
0000
0000
ENDCHAR
STARTCHAR char77
ENCODING 77
SWIDTH 1704 0
DWIDTH 12 0
BBX 10 20 0 -5
BITMAP
30C0
39C0
3BC0
36C0
36C0
6D80
6980
6180
6180
6180
C300
C300
C300
C300
C300
0000
0000
0000
0000
0000
ENDCHAR
STARTCHAR char78
ENCODING 78
SWIDTH 1704 0
DWIDTH 12 0
BBX 10 20 0 -5
BITMAP
30C0
38C0
38C0
3CC0
3CC0
6CC0
6CC0
6EC0
66C0
66C0
C780
C780
C380
C380
C180
0000
0000
0000
0000
0000
ENDCHAR
STARTCHAR char79
ENCODING 79
SWIDTH 1704 0
DWIDTH 12 0
BBX 10 20 0 -5
BITMAP
0F80
1FC0
39C0
30C0
30C0
60C0
60C0
60C0
60C0
60C0
C180
C180
E380
7F00
3E00
0000
0000
0000
0000
0000
ENDCHAR
STARTCHAR char80
ENCODING 80
SWIDTH 1704 0
DWIDTH 12 0
BBX 10 20 0 -5
BITMAP
3F00
3F80
31C0
30C0
30C0
6180
6380
7F00
7E00
6000
C000
C000
C000
C000
C000
0000
0000
0000
0000
0000
ENDCHAR
STARTCHAR char81
ENCODING 81
SWIDTH 1704 0
DWIDTH 12 0
BBX 10 20 0 -5
BITMAP
0F80
1FC0
39C0
30C0
30C0
60C0
60C0
60C0
60C0
60C0
60C0
C780
E780
7F00
3FC0
00C0
0000
0000
0000
0000
ENDCHAR
STARTCHAR char82
ENCODING 82
SWIDTH 1704 0
DWIDTH 12 0
BBX 10 20 0 -5
BITMAP
3F00
3F80
31C0
30C0
30C0
6380
7F00
7E00
6600
6600
6300
C300
C300
C180
C180
0000
0000
0000
0000
0000
ENDCHAR
STARTCHAR char83
ENCODING 83
SWIDTH 1704 0
DWIDTH 12 0
BBX 10 20 0 -5
BITMAP
0F00
1F80
31C0
30C0
3000
3000
3F00
1F80
01C0
00C0
00C0
C180
C380
FF00
7E00
0000
0000
0000
0000
0000
ENDCHAR
STARTCHAR char84
ENCODING 84
SWIDTH 1704 0
DWIDTH 12 0
BBX 8 20 2 -5
BITMAP
FF
FF
30
30
30
60
60
60
60
60
C0
C0
C0
C0
C0
00
00
00
00
00
ENDCHAR
STARTCHAR char85
ENCODING 85
SWIDTH 1704 0
DWIDTH 12 0
BBX 10 20 0 -5
BITMAP
30C0
30C0
30C0
30C0
30C0
6180
6180
6180
6180
6180
C300
C300
E700
7E00
3C00
0000
0000
0000
0000
0000
ENDCHAR
STARTCHAR char86
ENCODING 86
SWIDTH 1704 0
DWIDTH 12 0
BBX 9 20 2 -5
BITMAP
C180
C180
C180
C180
C600
C600
C600
6C00
6C00
6C00
5000
7000
7000
6000
6000
0000
0000
0000
0000
0000
ENDCHAR
STARTCHAR char87
ENCODING 87
SWIDTH 1704 0
DWIDTH 12 0
BBX 10 20 0 -5
BITMAP
30C0
30C0
30C0
30C0
30C0
6180
6180
6180
6980
6D80
DB00
DB00
FF00
E700
C300
0000
0000
0000
0000
0000
ENDCHAR
STARTCHAR char88
ENCODING 88
SWIDTH 1704 0
DWIDTH 12 0
BBX 10 20 0 -5
BITMAP
30C0
30C0
1980
1980
0B00
0E00
0C00
0C00
0C00
1C00
3C00
6600
6600
C300
C300
0000
0000
0000
0000
0000
ENDCHAR
STARTCHAR char89
ENCODING 89
SWIDTH 1704 0
DWIDTH 12 0
BBX 9 20 2 -5
BITMAP
C180
C180
6180
6180
6600
6600
3C00
3C00
1800
1800
3000
3000
3000
3000
3000
0000
0000
0000
0000
0000
ENDCHAR
STARTCHAR char90
ENCODING 90
SWIDTH 1704 0
DWIDTH 12 0
BBX 10 20 0 -5
BITMAP
3FC0
3FC0
0040
00C0
0180
0180
0300
0600
0C00
1800
3000
C000
8000
FFC0
FFC0
0000
0000
0000
0000
0000
ENDCHAR
STARTCHAR char91
ENCODING 91
SWIDTH 1704 0
DWIDTH 12 0
BBX 7 20 4 -5
BITMAP
3E
3E
30
30
30
60
60
60
60
60
60
C0
C0
F8
F8
00
00
00
00
00
ENDCHAR
STARTCHAR char92
ENCODING 92
SWIDTH 1704 0
DWIDTH 12 0
BBX 9 20 0 -5
BITMAP
C000
C000
6000
6000
3000
3000
1800
1800
0C00
0600
0600
0300
0300
0180
0180
0000
0000
0000
0000
0000
ENDCHAR
STARTCHAR char93
ENCODING 93
SWIDTH 1704 0
DWIDTH 12 0
BBX 7 20 0 -5
BITMAP
3E
3E
06
06
06
0C
0C
0C
0C
0C
18
18
18
F8
F8
00
00
00
00
00
ENDCHAR
STARTCHAR char94
ENCODING 94
SWIDTH 1704 0
DWIDTH 12 0
BBX 9 20 0 -5
BITMAP
0800
1C00
3600
6300
C180
0000
0000
0000
0000
0000
0000
0000
0000
0000
0000
0000
0000
0000
0000
0000
ENDCHAR
STARTCHAR char95
ENCODING 95
SWIDTH 1704 0
DWIDTH 12 0
BBX 12 20 0 -5
BITMAP
0000
0000
0000
0000
0000
0000
0000
0000
0000
0000
0000
0000
0000
0000
0000
0000
FFF0
FFF0
0000
0000
ENDCHAR
STARTCHAR char96
ENCODING 96
SWIDTH 1704 0
DWIDTH 12 0
BBX 4 20 4 -5
BITMAP
10
30
60
C0
F0
F0
C0
00
00
00
00
00
00
00
00
00
00
00
00
00
ENDCHAR
STARTCHAR char97
ENCODING 97
SWIDTH 1704 0
DWIDTH 12 0
BBX 10 20 0 -5
BITMAP
0000
0000
0000
0000
0780
1F80
30C0
00C0
0FC0
3FC0
C180
C380
C780
FD80
7980
0000
0000
0000
0000
0000
ENDCHAR
STARTCHAR char98
ENCODING 98
SWIDTH 1704 0
DWIDTH 12 0
BBX 10 20 0 -5
BITMAP
0000
3000
3000
3000
3000
6700
6F80
79C0
70C0
60C0
C180
E180
F380
DF00
CE00
0000
0000
0000
0000
0000
ENDCHAR
STARTCHAR char99
ENCODING 99
SWIDTH 1704 0
DWIDTH 12 0
BBX 10 20 0 -5
BITMAP
0000
0000
0000
0000
0000
0F80
3F80
70C0
60C0
6000
C000
C000
E180
7F80
3F00
0000
0000
0000
0000
0000
ENDCHAR
STARTCHAR char100
ENCODING 100
SWIDTH 1704 0
DWIDTH 12 0
BBX 11 20 0 -5
BITMAP
0000
0060
0060
0060
0060
1EC0
3FC0
71C0
60C0
60C0
C180
C380
C780
7D80
3980
0000
0000
0000
0000
0000
ENDCHAR
STARTCHAR char101
ENCODING 101
SWIDTH 1704 0
DWIDTH 12 0
BBX 10 20 0 -5
BITMAP
0000
0000
0000
0000
0000
1F00
3F80
70C0
60C0
7FC0
FF80
C000
C180
7F80
3F00
0000
0000
0000
0000
0000
ENDCHAR
STARTCHAR char102
ENCODING 102
SWIDTH 1704 0
DWIDTH 12 0
BBX 7 20 3 -5
BITMAP
00
0E
1E
18
18
30
FC
FC
30
30
60
60
60
60
60
00
00
00
00
00
ENDCHAR
STARTCHAR char103
ENCODING 103
SWIDTH 1704 0
DWIDTH 12 0
BBX 10 20 0 -5
BITMAP
0000
0000
0000
0000
0000
1CC0
3EC0
73C0
61C0
60C0
C180
C180
E380
7F80
3F80
0300
0300
0300
7E00
3C00
ENDCHAR
STARTCHAR char104
ENCODING 104
SWIDTH 1704 0
DWIDTH 12 0
BBX 10 20 0 -5
BITMAP
0000
3000
3000
3000
3000
6700
6F80
79C0
70C0
60C0
60C0
C180
C180
C180
C180
0000
0000
0000
0000
0000
ENDCHAR
STARTCHAR char105
ENCODING 105
SWIDTH 1704 0
DWIDTH 12 0
BBX 4 20 4 -5
BITMAP
00
30
30
00
00
60
60
60
60
60
C0
C0
C0
C0
C0
00
00
00
00
00
ENDCHAR
STARTCHAR char106
ENCODING 106
SWIDTH 1704 0
DWIDTH 12 0
BBX 7 20 2 -5
BITMAP
00
06
06
00
00
0C
0C
0C
0C
0C
18
18
18
18
18
30
30
F0
E0
00
ENDCHAR
STARTCHAR char107
ENCODING 107
SWIDTH 1704 0
DWIDTH 12 0
BBX 10 20 0 -5
BITMAP
0000
0000
3000
3000
30C0
6300
6600
6C00
7800
7800
F000
D800
CC00
C600
C300
0000
0000
0000
0000
0000
ENDCHAR
STARTCHAR char108
ENCODING 108
SWIDTH 1704 0
DWIDTH 12 0
BBX 4 20 4 -5
BITMAP
00
30
30
30
30
60
60
60
60
60
C0
C0
C0
C0
C0
00
00
00
00
00
ENDCHAR
STARTCHAR char109
ENCODING 109
SWIDTH 1704 0
DWIDTH 12 0
BBX 11 20 0 -5
BITMAP
0000
0000
0000
0000
3000
6DC0
7FE0
6660
6660
6660
6660
CCC0
CCC0
CCC0
CCC0
0000
0000
0000
0000
0000
ENDCHAR
STARTCHAR char110
ENCODING 110
SWIDTH 1704 0
DWIDTH 12 0
BBX 10 20 0 -5
BITMAP
0000
0000
0000
0000
0000
6700
6F80
78C0
70C0
60C0
60C0
C180
C180
C180
C180
0000
0000
0000
0000
0000
ENDCHAR
STARTCHAR char111
ENCODING 111
SWIDTH 1704 0
DWIDTH 12 0
BBX 10 20 0 -5
BITMAP
0000
0000
0000
0000
0000
1F00
3F80
71C0
60C0
60C0
C180
C180
E380
7F00
3E00
0000
0000
0000
0000
0000
ENDCHAR
STARTCHAR char112
ENCODING 112
SWIDTH 1704 0
DWIDTH 12 0
BBX 10 20 0 -5
BITMAP
0000
0000
0000
0000
0000
6700
6F80
79C0
70C0
60C0
C180
E180
F380
DF00
CE00
C000
C000
C000
C000
0000
ENDCHAR
STARTCHAR char113
ENCODING 113
SWIDTH 1704 0
DWIDTH 12 0
BBX 10 20 0 -5
BITMAP
0000
0000
0000
0000
0000
1CC0
3EC0
73C0
61C0
60C0
C180
C380
E780
7D80
3980
0300
0300
0300
0300
0000
ENDCHAR
STARTCHAR char114
ENCODING 114
SWIDTH 1704 0
DWIDTH 12 0
BBX 10 20 0 -5
BITMAP
0000
0000
0000
0000
0000
6700
6F80
78C0
70C0
6000
C000
C000
C000
C000
C000
0000
0000
0000
0000
0000
ENDCHAR
STARTCHAR char115
ENCODING 115
SWIDTH 1704 0
DWIDTH 12 0
BBX 10 20 0 -5
BITMAP
0000
0000
0000
0000
0000
3F80
7FC0
6040
6000
3F00
1F80
0180
C180
FF80
7F00
0000
0000
0000
0000
0000
ENDCHAR
STARTCHAR char116
ENCODING 116
SWIDTH 1704 0
DWIDTH 12 0
BBX 6 20 3 -5
BITMAP
00
00
18
18
18
FC
FC
30
30
30
60
60
60
78
38
00
00
00
00
00
ENDCHAR
STARTCHAR char117
ENCODING 117
SWIDTH 1704 0
DWIDTH 12 0
BBX 10 20 0 -5
BITMAP
0000
0000
0000
0000
0000
60C0
60C0
60C0
60C0
60C0
C180
C380
E780
7D80
3980
0000
0000
0000
0000
0000
ENDCHAR
STARTCHAR char118
ENCODING 118
SWIDTH 1704 0
DWIDTH 12 0
BBX 10 20 1 -5
BITMAP
0000
0000
0000
0000
0000
8040
C0C0
4080
6180
2100
6600
2400
3C00
1800
1800
0000
0000
0000
0000
0000
ENDCHAR
STARTCHAR char119
ENCODING 119
SWIDTH 1704 0
DWIDTH 12 0
BBX 10 20 0 -5
BITMAP
0000
0000
0000
0000
0000
60C0
60C0
60C0
60C0
64C0
DD80
DD80
F780
E380
C180
0000
0000
0000
0000
0000
ENDCHAR
STARTCHAR char120
ENCODING 120
SWIDTH 1704 0
DWIDTH 12 0
BBX 10 20 0 -5
BITMAP
0000
0000
0000
0000
0000
60C0
60C0
3180
1B00
0E00
1C00
3E00
6300
C180
C180
0000
0000
0000
0000
0000
ENDCHAR
STARTCHAR char121
ENCODING 121
SWIDTH 1704 0
DWIDTH 12 0
BBX 10 20 0 -5
BITMAP
0000
0000
0000
0000
0000
60C0
60C0
60C0
60C0
60C0
C180
C180
C180
7F80
3F80
0180
0300
0300
FE00
7C00
ENDCHAR
STARTCHAR char122
ENCODING 122
SWIDTH 1704 0
DWIDTH 12 0
BBX 10 20 0 -5
BITMAP
0000
0000
0000
0000
0000
7FC0
7FC0
0180
0300
0600
1800
3000
6000
FF80
FF80
0000
0000
0000
0000
0000
ENDCHAR
STARTCHAR char123
ENCODING 123
SWIDTH 1704 0
DWIDTH 12 0
BBX 6 20 4 -5
BITMAP
1C
30
30
18
18
30
60
E0
60
30
60
60
C0
C0
70
00
00
00
00
00
ENDCHAR
STARTCHAR char124
ENCODING 124
SWIDTH 1704 0
DWIDTH 12 0
BBX 4 20 4 -5
BITMAP
30
30
30
30
30
30
30
60
60
60
60
60
60
60
C0
C0
C0
C0
C0
C0
ENDCHAR
STARTCHAR char125
ENCODING 125
SWIDTH 1704 0
DWIDTH 12 0
BBX 6 20 1 -5
BITMAP
38
0C
0C
18
18
30
18
1C
18
30
60
60
30
30
E0
00
00
00
00
00
ENDCHAR
STARTCHAR char126
ENCODING 126
SWIDTH 1704 0
DWIDTH 12 0
BBX 10 20 0 -5
BITMAP
0000
0000
0000
0000
0000
0000
0000
0000
3840
7CC0
6D80
CF80
8700
0000
0000
0000
0000
0000
0000
0000
ENDCHAR
ENDFONT
