STARTFONT 2.1
FONT -MIT-20VGI KST-Medium-R-Normal--20-7-200-200-P-12-ISO8859-1
SIZE 7 200 200
FONTBOUNDINGBOX 16 20 -4 -4
STARTPROPERTIES 17
ADD_STYLE_NAME ""
AVERAGE_WIDTH 12
CHARSET_ENCODING "1"
CHARSET_REGISTRY "ISO8859"
DEFAULT_CHAR 0
FAMILY "20VGI KST"
FONT_ASCENT 16
FONT_DESCENT 4
FOUNDRY "MIT"
PIXEL_SIZE 20
POINT_SIZE 7
RESOLUTION_X 200
RESOLUTION_Y 200
SETWIDTH_NAME "Normal"
SLANT "R"
SPACING "P"
WEIGHT_NAME "Medium"
ENDPROPERTIES
CHARS 68
STARTCHAR char32
ENCODING 32
SWIDTH 1136 0
DWIDTH 8 0
BBX 1 20 0 -4
BITMAP
00
00
00
00
00
00
00
00
00
00
00
00
00
00
00
00
00
00
00
00
ENDCHAR
STARTCHAR char40
ENCODING 40
SWIDTH 1704 0
DWIDTH 12 0
BBX 8 20 3 -4
BITMAP
01
03
06
06
0C
18
30
60
60
C0
C0
C0
C0
60
60
60
30
10
00
00
ENDCHAR
STARTCHAR char41
ENCODING 41
SWIDTH 1704 0
DWIDTH 12 0
BBX 10 20 1 -4
BITMAP
0100
0180
00C0
00C0
00C0
00C0
00C0
0180
0180
0300
0300
0600
0C00
0C00
3000
3000
C000
8000
0000
0000
ENDCHAR
STARTCHAR char48
ENCODING 48
SWIDTH 2130 0
DWIDTH 15 0
BBX 13 20 2 -4
BITMAP
0000
01F0
03F8
0E38
0C18
3838
3018
6030
6030
6030
C060
E0E0
C180
E380
FE00
7C00
0000
0000
0000
0000
ENDCHAR
STARTCHAR char49
ENCODING 49
SWIDTH 2130 0
DWIDTH 15 0
BBX 9 20 4 -4
BITMAP
0000
0180
0780
0300
0300
0600
0600
0C00
0C00
1800
1800
3000
3000
3000
F000
F000
0000
0000
0000
0000
ENDCHAR
STARTCHAR char50
ENCODING 50
SWIDTH 2130 0
DWIDTH 15 0
BBX 15 20 1 -4
BITMAP
0000
007E
01FE
079E
0606
0C0C
001C
0070
00E0
0380
0F00
3800
3000
7000
FFC0
FFC0
0000
0000
0000
0000
ENDCHAR
STARTCHAR char51
ENCODING 51
SWIDTH 2414 0
DWIDTH 17 0
BBX 16 20 1 -4
BITMAP
0000
00FE
03FE
0707
0C06
180C
001C
00F0
07C0
01E0
0070
C060
C060
E0E0
FF80
7F00
0000
0000
0000
0000
ENDCHAR
STARTCHAR char52
ENCODING 52
SWIDTH 2414 0
DWIDTH 17 0
BBX 15 20 2 -4
BITMAP
0000
001E
007C
00EC
0198
0630
0E30
1860
3860
60C0
FFE0
FFE0
0180
0180
0300
0300
0000
0000
0000
0000
ENDCHAR
STARTCHAR char53
ENCODING 53
SWIDTH 2130 0
DWIDTH 15 0
BBX 14 20 2 -4
BITMAP
0000
07FC
07FC
0C00
1800
1800
37C0
3FE0
3C70
6060
0060
00C0
00C0
E1C0
FF00
7E00
0000
0000
0000
0000
ENDCHAR
STARTCHAR char54
ENCODING 54
SWIDTH 1988 0
DWIDTH 14 0
BBX 13 20 2 -4
BITMAP
0000
00F0
01F8
0718
0600
1C00
19C0
37E0
3CE0
3870
7060
6060
E1C0
7380
FF00
3C00
0000
0000
0000
0000
ENDCHAR
STARTCHAR char55
ENCODING 55
SWIDTH 2272 0
DWIDTH 16 0
BBX 13 20 2 -4
BITMAP
0000
1FF8
1FF8
0030
0070
0060
00E0
0180
0380
0300
0E00
0C00
3800
3000
E000
C000
0000
0000
0000
0000
ENDCHAR
STARTCHAR char56
ENCODING 56
SWIDTH 2130 0
DWIDTH 15 0
BBX 14 20 2 -4
BITMAP
0000
01F0
03F8
060C
0C18
0C18
0EE0
07C0
0380
1FC0
38E0
6030
C060
E0E0
FF80
7F00
0000
0000
0000
0000
ENDCHAR
STARTCHAR char57
ENCODING 57
SWIDTH 2130 0
DWIDTH 15 0
BBX 14 20 2 -4
BITMAP
0000
01F0
03F8
0E38
0C1C
1838
1838
1838
38F0
1FF0
0FB0
0060
0060
E1C0
7F80
7E00
0000
0000
0000
0000
ENDCHAR
STARTCHAR char65
ENCODING 65
SWIDTH 1846 0
DWIDTH 13 0
BBX 11 20 0 -4
BITMAP
01C0
01C0
03E0
0360
0660
0E60
0C60
1C60
3060
3FE0
7FE0
7060
E060
C060
C060
C060
0000
0000
0000
0000
ENDCHAR
STARTCHAR char66
ENCODING 66
SWIDTH 1988 0
DWIDTH 14 0
BBX 14 20 0 -4
BITMAP
1FF0
1FF8
181C
180C
3018
3038
3070
3FE0
7FC0
60E0
6070
6030
C060
C0E0
FFC0
FF80
0000
0000
0000
0000
ENDCHAR
STARTCHAR char67
ENCODING 67
SWIDTH 1988 0
DWIDTH 14 0
BBX 14 20 0 -4
BITMAP
07F0
0FF8
1E3C
180C
7018
6000
6000
6000
C000
C000
C000
C030
C060
E1E0
7FC0
3F80
0000
0000
0000
0000
ENDCHAR
STARTCHAR char68
ENCODING 68
SWIDTH 1988 0
DWIDTH 14 0
BBX 14 20 0 -4
BITMAP
1FE0
1FF0
1878
181C
3018
3018
3018
3018
6030
6030
6030
6030
C0E0
C3C0
FF80
FF00
0000
0000
0000
0000
ENDCHAR
STARTCHAR char69
ENCODING 69
SWIDTH 1704 0
DWIDTH 12 0
BBX 12 20 0 -4
BITMAP
1FF0
1FF0
1800
1800
3000
3000
3000
3F80
7F00
6000
6000
6000
C000
C000
FF80
FF80
0000
0000
0000
0000
ENDCHAR
STARTCHAR char70
ENCODING 70
SWIDTH 1704 0
DWIDTH 12 0
BBX 12 20 0 -4
BITMAP
1FF0
1FF0
1800
1800
3000
3000
3000
3F80
7F00
6000
6000
6000
C000
C000
C000
C000
0000
0000
0000
0000
ENDCHAR
STARTCHAR char71
ENCODING 71
SWIDTH 1988 0
DWIDTH 14 0
BBX 14 20 0 -4
BITMAP
07F0
0FF8
1E1C
1C0C
3018
3000
3000
3000
61F0
61F0
6030
6030
E070
F1E0
7FA0
3F20
0000
0000
0000
0000
ENDCHAR
STARTCHAR char72
ENCODING 72
SWIDTH 1846 0
DWIDTH 13 0
BBX 13 20 0 -4
BITMAP
1818
1818
1818
1818
3030
3030
3030
3FF0
7FE0
6060
6060
6060
C0C0
C0C0
C0C0
C0C0
0000
0000
0000
0000
ENDCHAR
STARTCHAR char73
ENCODING 73
SWIDTH 710 0
DWIDTH 5 0
BBX 5 20 0 -4
BITMAP
18
18
18
18
30
30
30
30
60
60
60
60
C0
C0
C0
C0
00
00
00
00
ENDCHAR
STARTCHAR char74
ENCODING 74
SWIDTH 1562 0
DWIDTH 11 0
BBX 11 20 0 -4
BITMAP
0060
0060
0060
0060
00C0
00C0
00C0
00C0
0180
0180
0180
0180
0300
E700
7F00
3E00
0000
0000
0000
0000
ENDCHAR
STARTCHAR char75
ENCODING 75
SWIDTH 1846 0
DWIDTH 13 0
BBX 13 20 0 -4
BITMAP
1818
1838
1870
18E0
3380
3700
3E00
3E00
7E00
6E00
6700
6300
C300
C300
C180
C180
0000
0000
0000
0000
ENDCHAR
STARTCHAR char76
ENCODING 76
SWIDTH 1562 0
DWIDTH 11 0
BBX 8 20 0 -4
BITMAP
18
18
18
18
30
30
30
30
60
60
60
60
C0
C0
FF
FF
00
00
00
00
ENDCHAR
STARTCHAR char77
ENCODING 77
SWIDTH 2272 0
DWIDTH 16 0
BBX 16 20 0 -4
BITMAP
1803
1803
1C07
1C07
3C1E
3C1E
3C1E
3C7C
6C6C
6EEC
66CC
67CC
C798
C718
C718
C218
0000
0000
0000
0000
ENDCHAR
STARTCHAR char78
ENCODING 78
SWIDTH 1988 0
DWIDTH 14 0
BBX 14 20 0 -4
BITMAP
1C0C
1E0C
1E0C
1E0C
3618
3718
3318
3318
6330
63B0
61B0
61F0
C1E0
C1E0
C0E0
C060
0000
0000
0000
0000
ENDCHAR
STARTCHAR char79
ENCODING 79
SWIDTH 1988 0
DWIDTH 14 0
BBX 13 20 0 -4
BITMAP
03C0
0FF0
1C38
1818
7018
6018
6018
6018
C030
C030
C030
C070
C0C0
E1C0
7F80
1E00
0000
0000
0000
0000
ENDCHAR
STARTCHAR char80
ENCODING 80
SWIDTH 1846 0
DWIDTH 13 0
BBX 13 20 0 -4
BITMAP
1FE0
1FF0
1838
1818
3030
3030
3030
3070
7FC0
7F80
6000
6000
C000
C000
C000
C000
0000
0000
0000
0000
ENDCHAR
STARTCHAR char81
ENCODING 81
SWIDTH 1988 0
DWIDTH 14 0
BBX 14 20 0 -4
BITMAP
01E0
07F8
1C38
1818
381C
300C
6018
6018
6018
C018
C030
E070
6060
70E0
7F80
1E00
03C0
01C0
0000
0000
ENDCHAR
STARTCHAR char82
ENCODING 82
SWIDTH 1846 0
DWIDTH 13 0
BBX 13 20 0 -4
BITMAP
1FE0
1FF0
1838
1818
3030
3030
3030
3070
7FC0
7F80
6300
6380
C180
C180
C1C0
C0C0
0000
0000
0000
0000
ENDCHAR
STARTCHAR char83
ENCODING 83
SWIDTH 1846 0
DWIDTH 13 0
BBX 13 20 0 -4
BITMAP
03C0
0FF0
1C38
1818
3030
3000
3800
1F80
1FC0
01E0
0060
0060
C0C0
E1C0
7F80
1E00
0000
0000
0000
0000
ENDCHAR
STARTCHAR char84
ENCODING 84
SWIDTH 1704 0
DWIDTH 12 0
BBX 10 20 2 -4
BITMAP
FFC0
FFC0
0C00
0C00
1800
1800
1800
1800
3000
3000
3000
3000
6000
6000
6000
6000
0000
0000
0000
0000
ENDCHAR
STARTCHAR char85
ENCODING 85
SWIDTH 1988 0
DWIDTH 14 0
BBX 14 20 0 -4
BITMAP
180C
180C
180C
180C
3018
3018
3018
3018
6030
6030
6030
6030
C060
E0E0
FFE0
7FC0
0000
0000
0000
0000
ENDCHAR
STARTCHAR char86
ENCODING 86
SWIDTH 2130 0
DWIDTH 15 0
BBX 13 20 2 -4
BITMAP
C018
C018
C038
C038
C060
E0E0
60C0
61C0
6380
6300
6700
6700
6C00
7C00
3800
3800
0000
0000
0000
0000
ENDCHAR
STARTCHAR char87
ENCODING 87
SWIDTH 2556 0
DWIDTH 18 0
BBX 17 20 1 -4
BITMAP
60C180
60C180
60C180
60C180
63C700
63C600
63C600
67C600
6CCC00
6CD800
6CD800
6CD800
D9B000
F9F000
70E000
70E000
000000
000000
000000
000000
ENDCHAR
STARTCHAR char88
ENCODING 88
SWIDTH 1846 0
DWIDTH 13 0
BBX 13 20 0 -4
BITMAP
1818
1818
1C38
0C30
0CE0
0FC0
0780
0300
0F00
1F80
1980
30C0
E0C0
C0C0
C0C0
C0C0
0000
0000
0000
0000
ENDCHAR
STARTCHAR char89
ENCODING 89
SWIDTH 1704 0
DWIDTH 12 0
BBX 10 20 2 -4
BITMAP
C0C0
C0C0
C0C0
C1C0
C380
E700
6600
7C00
7800
7800
3000
3000
6000
6000
6000
6000
0000
0000
0000
0000
ENDCHAR
STARTCHAR char90
ENCODING 90
SWIDTH 1704 0
DWIDTH 12 0
BBX 12 20 0 -4
BITMAP
1FF0
1FF0
0070
0060
01C0
0380
0380
0700
0C00
1C00
1800
3800
E000
E000
FF80
FF80
0000
0000
0000
0000
ENDCHAR
STARTCHAR char91
ENCODING 91
SWIDTH 2130 0
DWIDTH 15 0
BBX 13 20 1 -4
BITMAP
00F8
00F8
0180
0180
0300
0300
0600
0600
0C00
0C00
1800
1800
1800
3000
3000
6000
6000
6000
F800
F800
ENDCHAR
STARTCHAR char93
ENCODING 93
SWIDTH 2130 0
DWIDTH 15 0
BBX 13 20 1 -4
BITMAP
00F8
00F8
0030
0030
0060
0060
00C0
00C0
00C0
0180
0180
0300
0300
0600
0600
0C00
0C00
0C00
F800
F800
ENDCHAR
STARTCHAR char95
ENCODING 95
SWIDTH 2840 0
DWIDTH 20 0
BBX 14 20 0 -4
BITMAP
0000
0000
0000
0000
0000
0000
0000
0000
0000
0000
0000
0000
0000
0000
0000
0000
FFFC
FFFC
0000
0000
ENDCHAR
STARTCHAR char97
ENCODING 97
SWIDTH 1420 0
DWIDTH 10 0
BBX 10 20 0 -4
BITMAP
0000
0000
0000
0000
0000
0F00
1F80
39C0
6180
0180
3F80
7380
C300
C700
FF00
7B00
0000
0000
0000
0000
ENDCHAR
STARTCHAR char98
ENCODING 98
SWIDTH 1562 0
DWIDTH 11 0
BBX 10 20 0 -4
BITMAP
0000
1800
1800
1800
3000
3000
3780
3FC0
71C0
60C0
60C0
60C0
C180
E380
FF00
DE00
0000
0000
0000
0000
ENDCHAR
STARTCHAR char99
ENCODING 99
SWIDTH 1420 0
DWIDTH 10 0
BBX 10 20 0 -4
BITMAP
0000
0000
0000
0000
0000
0F80
1FC0
38C0
6000
6000
6000
C000
C000
E300
7F00
3E00
0000
0000
0000
0000
ENDCHAR
STARTCHAR char100
ENCODING 100
SWIDTH 1704 0
DWIDTH 12 0
BBX 12 20 0 -4
BITMAP
0000
0030
0030
0030
0060
0060
0F60
1FE0
71C0
60C0
60C0
60C0
C180
E380
7F80
3D80
0000
0000
0000
0000
ENDCHAR
STARTCHAR char101
ENCODING 101
SWIDTH 1562 0
DWIDTH 11 0
BBX 10 20 0 -4
BITMAP
0000
0000
0000
0000
0000
0F80
1FC0
71C0
60C0
7FC0
7FC0
E000
C000
E180
7F80
3E00
0000
0000
0000
0000
ENDCHAR
STARTCHAR char102
ENCODING 102
SWIDTH 1278 0
DWIDTH 9 0
BBX 8 20 1 -4
BITMAP
00
07
0F
1C
30
30
FE
FE
60
60
60
60
C0
C0
C0
C0
00
00
00
00
ENDCHAR
STARTCHAR char103
ENCODING 103
SWIDTH 1704 0
DWIDTH 12 0
BBX 12 20 0 -4
BITMAP
0000
0000
0000
0000
0000
07F0
0FC0
39C0
30C0
39C0
1F80
1E00
7000
1F00
7380
C180
E180
7300
3E00
0000
ENDCHAR
STARTCHAR char104
ENCODING 104
SWIDTH 1562 0
DWIDTH 11 0
BBX 9 20 0 -4
BITMAP
0000
1800
1800
1800
3000
3000
3700
3F80
7380
6180
6180
6180
C300
C300
C300
C300
0000
0000
0000
0000
ENDCHAR
STARTCHAR char105
ENCODING 105
SWIDTH 710 0
DWIDTH 5 0
BBX 5 20 0 -4
BITMAP
00
18
18
00
00
30
30
30
60
60
60
60
C0
C0
C0
C0
00
00
00
00
ENDCHAR
STARTCHAR char106
ENCODING 106
SWIDTH 1136 0
DWIDTH 8 0
BBX 8 20 0 -4
BITMAP
00
03
03
00
00
06
06
0C
0C
0C
0C
18
18
18
18
30
70
E0
C0
00
ENDCHAR
STARTCHAR char107
ENCODING 107
SWIDTH 1420 0
DWIDTH 10 0
BBX 10 20 0 -4
BITMAP
0000
1800
1800
1800
3000
30C0
31C0
3380
6E00
7C00
7E00
7600
C600
C700
C300
C300
0000
0000
0000
0000
ENDCHAR
STARTCHAR char108
ENCODING 108
SWIDTH 710 0
DWIDTH 5 0
BBX 5 20 0 -4
BITMAP
18
18
18
18
30
30
30
30
60
60
60
60
C0
C0
C0
C0
00
00
00
00
ENDCHAR
STARTCHAR char109
ENCODING 109
SWIDTH 2130 0
DWIDTH 15 0
BBX 14 20 0 -4
BITMAP
0000
0000
0000
0000
0000
3630
3F78
39CC
6318
6318
6318
6318
C630
C630
C630
C630
0000
0000
0000
0000
ENDCHAR
STARTCHAR char110
ENCODING 110
SWIDTH 1562 0
DWIDTH 11 0
BBX 10 20 0 -4
BITMAP
0000
0000
0000
0000
0000
3700
3F80
39C0
6180
6180
6180
6180
C300
C300
C300
C300
0000
0000
0000
0000
ENDCHAR
STARTCHAR char111
ENCODING 111
SWIDTH 1562 0
DWIDTH 11 0
BBX 9 20 0 -4
BITMAP
0000
0000
0000
0000
0000
0E00
3F80
3180
7180
C180
C180
C180
C700
C600
FE00
3800
0000
0000
0000
0000
ENDCHAR
STARTCHAR char112
ENCODING 112
SWIDTH 1704 0
DWIDTH 12 0
BBX 11 20 0 -4
BITMAP
0000
0000
0000
0000
0000
1BC0
1FE0
38E0
3060
3060
3060
60C0
60C0
71C0
7F80
6F00
C000
C000
C000
C000
ENDCHAR
STARTCHAR char113
ENCODING 113
SWIDTH 1704 0
DWIDTH 12 0
BBX 11 20 0 -4
BITMAP
0000
0000
0000
0000
0000
0F60
1FE0
71C0
60C0
60C0
60C0
C180
C180
E380
7F80
3D80
0300
0300
0300
0300
ENDCHAR
STARTCHAR char114
ENCODING 114
SWIDTH 1278 0
DWIDTH 9 0
BBX 9 20 0 -4
BITMAP
0000
0000
0000
0000
0000
3380
3700
3E00
7800
7000
6000
6000
C000
C000
C000
C000
0000
0000
0000
0000
ENDCHAR
STARTCHAR char115
ENCODING 115
SWIDTH 1562 0
DWIDTH 11 0
BBX 11 20 0 -4
BITMAP
0000
0000
0000
0000
0000
0700
1FC0
38E0
7000
3F00
1F80
01C0
C180
E380
7F00
1C00
0000
0000
0000
0000
ENDCHAR
STARTCHAR char116
ENCODING 116
SWIDTH 1136 0
DWIDTH 8 0
BBX 6 20 1 -4
BITMAP
00
18
18
18
30
FC
FC
30
60
60
60
60
C0
C0
E0
70
00
00
00
00
ENDCHAR
STARTCHAR char117
ENCODING 117
SWIDTH 1562 0
DWIDTH 11 0
BBX 11 20 0 -4
BITMAP
0000
0000
0000
0000
0000
3060
3060
3060
60C0
60C0
60C0
60C0
C180
E380
7F00
3E00
0000
0000
0000
0000
ENDCHAR
STARTCHAR char118
ENCODING 118
SWIDTH 1562 0
DWIDTH 11 0
BBX 9 20 1 -4
BITMAP
0000
0000
0000
0000
0000
C180
C180
C180
C300
C600
C600
CC00
D800
7000
7000
2000
0000
0000
0000
0000
ENDCHAR
STARTCHAR char119
ENCODING 119
SWIDTH 2130 0
DWIDTH 15 0
BBX 13 20 1 -4
BITMAP
0000
0000
0000
0000
0000
C018
C018
C218
C470
CE60
CEE0
DEE0
F780
F780
6300
6300
0000
0000
0000
0000
ENDCHAR
STARTCHAR char120
ENCODING 120
SWIDTH 1562 0
DWIDTH 11 0
BBX 11 20 0 -4
BITMAP
0000
0000
0000
0000
0000
3060
38E0
18C0
1B80
1B00
0E00
1E00
3600
3600
6300
E380
0000
0000
0000
0000
ENDCHAR
STARTCHAR char121
ENCODING 121
SWIDTH 1704 0
DWIDTH 12 0
BBX 12 20 0 -4
BITMAP
0000
0000
0000
0000
0000
3030
3030
3030
30E0
30C0
39C0
1980
1F00
1E00
0E00
0C00
3800
3000
7000
E000
ENDCHAR
STARTCHAR char122
ENCODING 122
SWIDTH 1562 0
DWIDTH 11 0
BBX 11 20 0 -4
BITMAP
0000
0000
0000
0000
0000
3FE0
3FE0
01C0
0380
0700
0E00
1C00
7000
E000
FF80
FF80
0000
0000
0000
0000
ENDCHAR
ENDFONT
