STARTFONT 2.1
FONT -MIT-20VR KST-Medium-R-Normal--20-7-200-200-P-12-ISO8859-1
SIZE 7 200 200
FONTBOUNDINGBOX 22 20 -3 -5
STARTPROPERTIES 17
ADD_STYLE_NAME ""
AVERAGE_WIDTH 12
CHARSET_ENCODING "1"
CHARSET_REGISTRY "ISO8859"
DEFAULT_CHAR 0
FAMILY "20VR KST"
FONT_ASCENT 15
FONT_DESCENT 5
FOUNDRY "MIT"
PIXEL_SIZE 20
POINT_SIZE 7
RESOLUTION_X 200
RESOLUTION_Y 200
SETWIDTH_NAME "Normal"
SLANT "R"
SPACING "P"
WEIGHT_NAME "Medium"
ENDPROPERTIES
CHARS 121
STARTCHAR char0
ENCODING 0
SWIDTH 0 0
DWIDTH 0 0
BBX 1 20 0 -5
BITMAP
00
00
00
00
00
00
00
00
00
00
00
00
00
00
00
00
00
00
00
00
ENDCHAR
STARTCHAR char1
ENCODING 1
SWIDTH 1562 0
DWIDTH 11 0
BBX 11 20 0 -5
BITMAP
0000
0000
0000
0000
0080
03E0
0CC0
18C0
3180
3180
6300
6700
EF00
F780
C600
0000
0000
0000
0000
0000
ENDCHAR
STARTCHAR char2
ENCODING 2
SWIDTH 1278 0
DWIDTH 9 0
BBX 9 20 0 -5
BITMAP
0180
0300
0600
0E00
0C00
1B00
3F80
3980
7180
6180
E100
C300
C400
E800
7000
0000
0000
0000
0000
0000
ENDCHAR
STARTCHAR char3
ENCODING 3
SWIDTH 1136 0
DWIDTH 8 0
BBX 8 20 0 -5
BITMAP
00
00
00
00
00
03
0F
13
32
60
60
E0
E4
F8
60
00
00
00
00
00
ENDCHAR
STARTCHAR char4
ENCODING 4
SWIDTH 1846 0
DWIDTH 13 0
BBX 13 20 0 -5
BITMAP
0008
0018
0030
0070
0060
03C0
0DC0
18C0
3180
6180
E300
C700
EB40
F780
6700
0000
0000
0000
0000
0000
ENDCHAR
STARTCHAR char5
ENCODING 5
SWIDTH 1278 0
DWIDTH 9 0
BBX 9 20 0 -5
BITMAP
0000
0000
0000
0000
0000
0780
1980
3100
3E00
7000
E000
C200
C400
F800
6000
0000
0000
0000
0000
0000
ENDCHAR
STARTCHAR char6
ENCODING 6
SWIDTH 1846 0
DWIDTH 13 0
BBX 13 20 0 -5
BITMAP
0018
0078
00D0
0180
0180
0300
0300
0700
0FC0
0600
0E00
0C00
0C00
1800
1800
3000
B000
A000
C000
0000
ENDCHAR
STARTCHAR char7
ENCODING 7
SWIDTH 1704 0
DWIDTH 12 0
BBX 12 20 0 -5
BITMAP
0000
0000
0000
0000
0000
01D0
02F0
0C60
0860
18C0
31C0
3380
7580
7B00
6300
0600
4C00
D800
F000
4000
ENDCHAR
STARTCHAR char8
ENCODING 8
SWIDTH 1846 0
DWIDTH 13 0
BBX 13 20 0 -5
BITMAP
0040
0180
0180
0300
0300
0618
0638
0CF0
0D20
1A60
1CC0
3CC0
39C0
71E0
E180
0000
0000
0000
0000
0000
ENDCHAR
STARTCHAR char9
ENCODING 9
SWIDTH 1136 0
DWIDTH 8 0
BBX 8 20 0 -5
BITMAP
00
02
0F
04
00
0E
0C
18
18
30
60
60
E8
F0
C0
00
00
00
00
00
ENDCHAR
STARTCHAR char10
ENCODING 10
SWIDTH 1704 0
DWIDTH 12 0
BBX 12 20 0 -5
BITMAP
0000
0000
0070
00C0
0000
00C0
0180
0180
0300
0300
0600
0600
0C00
0C00
1800
1800
B000
A000
C000
0000
ENDCHAR
STARTCHAR char11
ENCODING 11
SWIDTH 1420 0
DWIDTH 10 0
BBX 10 20 0 -5
BITMAP
0080
0180
0300
0300
0600
0640
0CC0
0CC0
1900
1E00
3C00
3600
6600
67C0
8300
0000
0000
0000
0000
0000
ENDCHAR
STARTCHAR char12
ENCODING 12
SWIDTH 1278 0
DWIDTH 9 0
BBX 9 20 0 -5
BITMAP
0180
0300
0600
0600
0C00
0C00
1800
1800
3000
3000
6000
6000
E800
F000
6000
0000
0000
0000
0000
0000
ENDCHAR
STARTCHAR char13
ENCODING 13
SWIDTH 2414 0
DWIDTH 17 0
BBX 17 20 0 -5
BITMAP
000000
000000
000000
000000
000000
1C6180
0CE380
196700
1ACB00
359600
39AC00
734C00
639800
E71C00
C63800
000000
000000
000000
000000
000000
ENDCHAR
STARTCHAR char14
ENCODING 14
SWIDTH 1704 0
DWIDTH 12 0
BBX 12 20 0 -5
BITMAP
0000
0000
0000
0000
0000
0410
1C70
08E0
1940
12C0
3580
3980
7300
63C0
C300
0000
0000
0000
0000
0000
ENDCHAR
STARTCHAR char15
ENCODING 15
SWIDTH 1278 0
DWIDTH 9 0
BBX 9 20 0 -5
BITMAP
0000
0000
0000
0000
0000
0580
0B80
1180
2180
6300
4300
C200
C400
F800
E000
0000
0000
0000
0000
0000
ENDCHAR
STARTCHAR char16
ENCODING 16
SWIDTH 1704 0
DWIDTH 12 0
BBX 12 20 0 -5
BITMAP
0000
0000
0000
0000
0000
0230
06F0
0730
0E30
0C20
0C60
18C0
1880
1F00
3600
2000
6000
6000
C000
0000
ENDCHAR
STARTCHAR char17
ENCODING 17
SWIDTH 1562 0
DWIDTH 11 0
BBX 11 20 0 -5
BITMAP
0000
0000
0000
0000
0000
03A0
05E0
08C0
18C0
3180
6300
6700
EB00
F600
E600
0C00
0C00
1800
1C00
1000
ENDCHAR
STARTCHAR char18
ENCODING 18
SWIDTH 1420 0
DWIDTH 10 0
BBX 10 20 0 -5
BITMAP
0000
0000
0000
0000
0180
1BC0
3F80
1900
1800
3000
3000
6000
6000
F000
C000
0000
0000
0000
0000
0000
ENDCHAR
STARTCHAR char19
ENCODING 19
SWIDTH 1278 0
DWIDTH 9 0
BBX 9 20 0 -5
BITMAP
0000
0000
0000
0000
0780
0980
1100
1800
1E00
0E00
2600
4600
E400
F800
7000
0000
0000
0000
0000
0000
ENDCHAR
STARTCHAR char20
ENCODING 20
SWIDTH 1136 0
DWIDTH 8 0
BBX 8 20 0 -5
BITMAP
00
00
03
06
0C
3F
18
38
30
70
60
E0
E4
F8
70
00
00
00
00
00
ENDCHAR
STARTCHAR char21
ENCODING 21
SWIDTH 1562 0
DWIDTH 11 0
BBX 11 20 0 -5
BITMAP
0000
0000
0000
0000
0000
0860
38C0
1980
3180
3300
6700
6B00
D600
E780
C600
0000
0000
0000
0000
0000
ENDCHAR
STARTCHAR char22
ENCODING 22
SWIDTH 1420 0
DWIDTH 10 0
BBX 10 20 0 -5
BITMAP
0000
0000
0000
0000
0800
19C0
3380
3180
6100
6200
E200
E400
E800
7000
6000
0000
0000
0000
0000
0000
ENDCHAR
STARTCHAR char23
ENCODING 23
SWIDTH 2272 0
DWIDTH 16 0
BBX 16 20 0 -5
BITMAP
0000
0000
0000
0000
0000
1C67
18CE
39C4
31C4
3388
6590
6B20
F340
E380
C300
0000
0000
0000
0000
0000
ENDCHAR
STARTCHAR char24
ENCODING 24
SWIDTH 1846 0
DWIDTH 13 0
BBX 13 20 0 -5
BITMAP
0000
0000
0000
0000
0000
0618
0C30
0C60
0C80
0D00
0E00
0C00
1E00
6780
8300
0000
0000
0000
0000
0000
ENDCHAR
STARTCHAR char25
ENCODING 25
SWIDTH 1846 0
DWIDTH 13 0
BBX 13 20 0 -5
BITMAP
0000
0000
0000
0000
0000
0618
1E30
0C60
0860
18C0
11C0
3380
3580
7B00
6600
0600
4400
C800
F000
0000
ENDCHAR
STARTCHAR char26
ENCODING 26
SWIDTH 1704 0
DWIDTH 12 0
BBX 12 20 0 -5
BITMAP
0000
0000
0000
0000
0000
0390
0FE0
08C0
0180
0200
0400
0800
3880
7C80
8F00
0000
0000
0000
0000
0000
ENDCHAR
STARTCHAR char32
ENCODING 32
SWIDTH 994 0
DWIDTH 7 0
BBX 1 20 0 -5
BITMAP
00
00
00
00
00
00
00
00
00
00
00
00
00
00
00
00
00
00
00
00
ENDCHAR
STARTCHAR char33
ENCODING 33
SWIDTH 1136 0
DWIDTH 8 0
BBX 3 20 2 -5
BITMAP
00
00
40
E0
E0
E0
E0
40
40
40
40
40
00
40
E0
40
00
00
00
00
ENDCHAR
STARTCHAR char34
ENCODING 34
SWIDTH 1136 0
DWIDTH 8 0
BBX 5 20 0 -5
BITMAP
00
00
D8
D8
90
90
00
00
00
00
00
00
00
00
00
00
00
00
00
00
ENDCHAR
STARTCHAR char35
ENCODING 35
SWIDTH 2272 0
DWIDTH 16 0
BBX 14 20 0 -5
BITMAP
0000
0000
0000
0198
0198
0330
0330
3FFC
7FF8
0CC0
7FF8
FFF0
1980
3300
3300
6600
0000
0000
0000
0000
ENDCHAR
STARTCHAR char36
ENCODING 36
SWIDTH 1562 0
DWIDTH 11 0
BBX 9 20 0 -5
BITMAP
0000
0800
1A00
6F00
C900
C900
E800
7800
3E00
1F00
0B00
8980
8980
CB00
BE00
0800
0000
0000
0000
0000
ENDCHAR
STARTCHAR char37
ENCODING 37
SWIDTH 2556 0
DWIDTH 18 0
BBX 16 20 0 -5
BITMAP
0000
0C08
3338
61D0
C120
C240
C2C0
4C80
3100
033E
0261
04C1
0CC1
08C2
107C
0000
0000
0000
0000
0000
ENDCHAR
STARTCHAR char38
ENCODING 38
SWIDTH 2272 0
DWIDTH 16 0
BBX 1 20 0 -5
BITMAP
00
00
00
00
00
00
00
00
00
00
00
00
00
00
00
00
00
00
00
00
ENDCHAR
STARTCHAR char39
ENCODING 39
SWIDTH 1136 0
DWIDTH 8 0
BBX 4 20 0 -5
BITMAP
00
60
F0
10
20
40
00
00
00
00
00
00
00
00
00
00
00
00
00
00
ENDCHAR
STARTCHAR char40
ENCODING 40
SWIDTH 1136 0
DWIDTH 8 0
BBX 6 20 0 -5
BITMAP
00
04
18
20
60
60
C0
C0
C0
C0
C0
C0
C0
C0
60
60
20
18
04
00
ENDCHAR
STARTCHAR char41
ENCODING 41
SWIDTH 1136 0
DWIDTH 8 0
BBX 6 20 0 -5
BITMAP
00
80
60
10
18
18
0C
0C
0C
0C
0C
0C
0C
0C
18
18
10
60
80
00
ENDCHAR
STARTCHAR char42
ENCODING 42
SWIDTH 1562 0
DWIDTH 11 0
BBX 9 20 0 -5
BITMAP
0000
0000
0000
0000
0000
0800
1C00
C980
EB80
1C00
EB80
C980
1C00
0800
0000
0000
0000
0000
0000
0000
ENDCHAR
STARTCHAR char43
ENCODING 43
SWIDTH 1420 0
DWIDTH 10 0
BBX 8 20 0 -5
BITMAP
00
00
00
00
00
00
18
18
18
FF
FF
18
18
18
00
00
00
00
00
00
ENDCHAR
STARTCHAR char44
ENCODING 44
SWIDTH 1136 0
DWIDTH 8 0
BBX 3 20 0 -5
BITMAP
00
00
00
00
00
00
00
00
00
00
00
00
00
E0
E0
20
40
80
00
00
ENDCHAR
STARTCHAR char45
ENCODING 45
SWIDTH 1846 0
DWIDTH 13 0
BBX 10 20 0 -5
BITMAP
0000
0000
0000
0000
0000
0000
0000
0000
0000
FFC0
FFC0
0000
0000
0000
0000
0000
0000
0000
0000
0000
ENDCHAR
STARTCHAR char46
ENCODING 46
SWIDTH 1136 0
DWIDTH 8 0
BBX 2 20 0 -5
BITMAP
00
00
00
00
00
00
00
00
00
00
00
00
00
C0
C0
00
00
00
00
00
ENDCHAR
STARTCHAR char47
ENCODING 47
SWIDTH 1562 0
DWIDTH 11 0
BBX 9 20 0 -5
BITMAP
0000
0180
0180
0300
0300
0600
0600
0C00
0C00
1800
1800
3000
3000
6000
6000
C000
C000
0000
0000
0000
ENDCHAR
STARTCHAR char48
ENCODING 48
SWIDTH 1704 0
DWIDTH 12 0
BBX 10 20 0 -5
BITMAP
0000
0000
1E00
2100
4180
4080
C0C0
C0C0
C0C0
C0C0
C0C0
C180
6180
6300
1E00
0000
0000
0000
0000
0000
ENDCHAR
STARTCHAR char49
ENCODING 49
SWIDTH 1136 0
DWIDTH 8 0
BBX 6 20 0 -5
BITMAP
00
00
30
F0
30
30
30
30
30
30
30
30
30
30
FC
00
00
00
00
00
ENDCHAR
STARTCHAR char50
ENCODING 50
SWIDTH 1704 0
DWIDTH 12 0
BBX 10 20 0 -5
BITMAP
0000
0000
3E00
4700
8180
0180
0180
0300
0200
0400
0800
1000
2040
7F80
FF00
0000
0000
0000
0000
0000
ENDCHAR
STARTCHAR char51
ENCODING 51
SWIDTH 1562 0
DWIDTH 11 0
BBX 9 20 0 -5
BITMAP
0000
0000
3E00
4300
4300
0300
0200
0600
1F00
0380
0180
0180
0100
E200
7C00
0000
0000
0000
0000
0000
ENDCHAR
STARTCHAR char52
ENCODING 52
SWIDTH 1704 0
DWIDTH 12 0
BBX 10 20 0 -5
BITMAP
0000
0000
0100
0300
0700
0B00
1300
2300
4300
8300
FFC0
FFC0
0300
0300
0300
0000
0000
0000
0000
0000
ENDCHAR
STARTCHAR char53
ENCODING 53
SWIDTH 1562 0
DWIDTH 11 0
BBX 9 20 0 -5
BITMAP
0000
0000
1F80
3F00
2000
7000
7C00
1E00
0700
0300
0100
0100
0200
C600
F800
0000
0000
0000
0000
0000
ENDCHAR
STARTCHAR char54
ENCODING 54
SWIDTH 1562 0
DWIDTH 11 0
BBX 9 20 0 -5
BITMAP
0000
0180
0E00
1800
3000
6000
6C00
F300
C180
C180
C180
C180
C180
6300
3C00
0000
0000
0000
0000
0000
ENDCHAR
STARTCHAR char55
ENCODING 55
SWIDTH 1704 0
DWIDTH 12 0
BBX 10 20 0 -5
BITMAP
0000
0000
3FC0
7F80
8180
0100
0100
0300
0200
0200
0600
0400
0400
0C00
0800
0000
0000
0000
0000
0000
ENDCHAR
STARTCHAR char56
ENCODING 56
SWIDTH 1420 0
DWIDTH 10 0
BBX 8 20 0 -5
BITMAP
00
00
7C
C2
C2
C2
E6
7C
3C
4E
C7
C3
C3
C2
7E
00
00
00
00
00
ENDCHAR
STARTCHAR char57
ENCODING 57
SWIDTH 1704 0
DWIDTH 12 0
BBX 10 20 0 -5
BITMAP
0000
0000
3E00
6380
C180
C0C0
C0C0
60C0
73C0
1F80
0180
0300
0600
1C00
7000
0000
0000
0000
0000
0000
ENDCHAR
STARTCHAR char58
ENCODING 58
SWIDTH 1136 0
DWIDTH 8 0
BBX 2 20 0 -5
BITMAP
00
00
00
00
00
00
C0
C0
00
00
00
00
00
C0
C0
00
00
00
00
00
ENDCHAR
STARTCHAR char59
ENCODING 59
SWIDTH 1136 0
DWIDTH 8 0
BBX 3 20 0 -5
BITMAP
00
00
00
00
00
00
C0
C0
00
00
00
00
00
C0
E0
20
40
80
00
00
ENDCHAR
STARTCHAR char60
ENCODING 60
SWIDTH 1136 0
DWIDTH 8 0
BBX 6 20 0 -5
BITMAP
00
00
00
00
00
04
0C
18
30
60
C0
60
30
18
0C
04
00
00
00
00
ENDCHAR
STARTCHAR char61
ENCODING 61
SWIDTH 2272 0
DWIDTH 16 0
BBX 10 20 0 -5
BITMAP
0000
0000
0000
0000
0000
0000
0000
0000
FFC0
FFC0
0000
0000
FFC0
FFC0
0000
0000
0000
0000
0000
0000
ENDCHAR
STARTCHAR char62
ENCODING 62
SWIDTH 1136 0
DWIDTH 8 0
BBX 6 20 0 -5
BITMAP
00
00
00
00
00
80
C0
60
30
18
0C
18
30
60
C0
80
00
00
00
00
ENDCHAR
STARTCHAR char63
ENCODING 63
SWIDTH 1420 0
DWIDTH 10 0
BBX 8 20 1 -5
BITMAP
00
00
3C
4E
C3
C3
43
06
0C
08
10
10
00
30
30
00
00
00
00
00
ENDCHAR
STARTCHAR char64
ENCODING 64
SWIDTH 2272 0
DWIDTH 16 0
BBX 1 20 0 -5
BITMAP
00
00
00
00
00
00
00
00
00
00
00
00
00
00
00
00
00
00
00
00
ENDCHAR
STARTCHAR char65
ENCODING 65
SWIDTH 2698 0
DWIDTH 19 0
BBX 17 20 0 -5
BITMAP
000000
000000
004000
00C000
01E000
016000
027000
023000
043800
0FF800
081C00
100C00
100E00
200E00
F81F80
000000
000000
000000
000000
000000
ENDCHAR
STARTCHAR char66
ENCODING 66
SWIDTH 1988 0
DWIDTH 14 0
BBX 12 20 0 -5
BITMAP
0000
0000
FF80
30C0
3060
3060
3060
30C0
3F80
30E0
3070
3070
3070
30E0
FF80
0000
0000
0000
0000
0000
ENDCHAR
STARTCHAR char67
ENCODING 67
SWIDTH 2414 0
DWIDTH 17 0
BBX 15 20 0 -5
BITMAP
0000
0000
07E4
1C1C
3004
6004
E000
E000
E000
E000
E000
7002
3804
1C18
07E0
0000
0000
0000
0000
0000
ENDCHAR
STARTCHAR char68
ENCODING 68
SWIDTH 2556 0
DWIDTH 18 0
BBX 16 20 0 -5
BITMAP
0000
0000
FFC0
3070
301C
300E
3006
3007
3007
3007
3006
300E
301C
3030
FFC0
0000
0000
0000
0000
0000
ENDCHAR
STARTCHAR char69
ENCODING 69
SWIDTH 2130 0
DWIDTH 15 0
BBX 13 20 0 -5
BITMAP
0000
0000
FFF0
3010
3000
3000
3000
3040
3FC0
3040
3000
3000
3008
3018
FFF0
0000
0000
0000
0000
0000
ENDCHAR
STARTCHAR char70
ENCODING 70
SWIDTH 2130 0
DWIDTH 15 0
BBX 13 20 0 -5
BITMAP
0000
0000
FFF8
3008
3008
3000
3000
3020
3FE0
3020
3000
3000
3000
3000
FC00
0000
0000
0000
0000
0000
ENDCHAR
STARTCHAR char71
ENCODING 71
SWIDTH 2556 0
DWIDTH 18 0
BBX 16 20 0 -5
BITMAP
0000
0000
07F4
180C
3004
6004
E000
E000
E03F
E00E
E00E
600E
700E
380C
0FF0
0000
0000
0000
0000
0000
ENDCHAR
STARTCHAR char72
ENCODING 72
SWIDTH 2556 0
DWIDTH 18 0
BBX 16 20 0 -5
BITMAP
0000
0000
FC3F
300C
300C
300C
300C
300C
3FFC
300C
300C
300C
300C
300C
FC3F
0000
0000
0000
0000
0000
ENDCHAR
STARTCHAR char73
ENCODING 73
SWIDTH 1136 0
DWIDTH 8 0
BBX 6 20 1 -5
BITMAP
00
00
FC
30
30
30
30
30
30
30
30
30
30
30
FC
00
00
00
00
00
ENDCHAR
STARTCHAR char74
ENCODING 74
SWIDTH 1562 0
DWIDTH 11 0
BBX 9 20 0 -5
BITMAP
0000
0000
1F80
0600
0600
0600
0600
0600
0600
0600
0600
0600
4600
E400
7800
0000
0000
0000
0000
0000
ENDCHAR
STARTCHAR char75
ENCODING 75
SWIDTH 2414 0
DWIDTH 17 0
BBX 15 20 0 -5
BITMAP
0000
0000
FCFC
3020
3040
3080
3100
3200
3E00
3780
33C0
31E0
30F0
3078
FCFE
0000
0000
0000
0000
0000
ENDCHAR
STARTCHAR char76
ENCODING 76
SWIDTH 2130 0
DWIDTH 15 0
BBX 13 20 0 -5
BITMAP
0000
0000
FC00
3000
3000
3000
3000
3000
3000
3000
3000
3000
3008
3010
FFE0
0000
0000
0000
0000
0000
ENDCHAR
STARTCHAR char77
ENCODING 77
SWIDTH 2982 0
DWIDTH 21 0
BBX 19 20 0 -5
BITMAP
000000
000000
F801E0
380380
3C0380
2C0580
2E0580
260980
270980
231180
239180
21A180
21E180
20C180
F8C7E0
000000
000000
000000
000000
000000
ENDCHAR
STARTCHAR char78
ENCODING 78
SWIDTH 2556 0
DWIDTH 18 0
BBX 16 20 0 -5
BITMAP
0000
0000
F01F
7804
3C04
2E04
2704
2384
21C4
20E4
2074
203C
201C
200C
F804
0000
0000
0000
0000
0000
ENDCHAR
STARTCHAR char79
ENCODING 79
SWIDTH 2414 0
DWIDTH 17 0
BBX 15 20 0 -5
BITMAP
0000
0000
07C0
1830
701C
701C
E00E
E00E
E00E
E00E
E00E
701C
3018
1830
07C0
0000
0000
0000
0000
0000
ENDCHAR
STARTCHAR char80
ENCODING 80
SWIDTH 1846 0
DWIDTH 13 0
BBX 11 20 0 -5
BITMAP
0000
0000
FF80
30C0
3060
3060
3060
30C0
3F80
3000
3000
3000
3000
3000
FC00
0000
0000
0000
0000
0000
ENDCHAR
STARTCHAR char81
ENCODING 81
SWIDTH 2414 0
DWIDTH 17 0
BBX 15 20 0 -5
BITMAP
0000
0000
07C0
1830
3018
600C
E00E
E00E
E00E
E00E
E00E
E00E
600C
3018
1830
07C0
01C0
0070
001C
0000
ENDCHAR
STARTCHAR char82
ENCODING 82
SWIDTH 2414 0
DWIDTH 17 0
BBX 15 20 0 -5
BITMAP
0000
0000
FFC0
3060
3070
3070
3070
30C0
3F80
3380
31C0
30E0
3070
3038
FC1E
0000
0000
0000
0000
0000
ENDCHAR
STARTCHAR char83
ENCODING 83
SWIDTH 1704 0
DWIDTH 12 0
BBX 10 20 0 -5
BITMAP
0000
0000
3E80
6180
6080
6080
7800
3E00
1F80
07C0
01C0
80C0
C0C0
E180
BF00
0000
0000
0000
0000
0000
ENDCHAR
STARTCHAR char84
ENCODING 84
SWIDTH 2272 0
DWIDTH 16 0
BBX 14 20 0 -5
BITMAP
0000
0000
7FF8
8304
0300
0300
0300
0300
0300
0300
0300
0300
0300
0300
0FC0
0000
0000
0000
0000
0000
ENDCHAR
STARTCHAR char85
ENCODING 85
SWIDTH 2556 0
DWIDTH 18 0
BBX 16 20 0 -5
BITMAP
0000
0000
FC1F
3004
3004
3004
3004
3004
3004
3004
3004
3004
3004
1808
07F0
0000
0000
0000
0000
0000
ENDCHAR
STARTCHAR char86
ENCODING 86
SWIDTH 2556 0
DWIDTH 18 0
BBX 16 20 0 -5
BITMAP
0000
0000
FE1F
1804
1804
0C08
0C08
0610
0610
0320
0320
01C0
01C0
0080
0080
0000
0000
0000
0000
0000
ENDCHAR
STARTCHAR char87
ENCODING 87
SWIDTH 3408 0
DWIDTH 24 0
BBX 22 20 0 -5
BITMAP
000000
000000
FCFC7C
303010
183010
181830
0C1820
0C3C60
062C40
066EC0
034680
034680
018300
018300
008100
000000
000000
000000
000000
000000
ENDCHAR
STARTCHAR char88
ENCODING 88
SWIDTH 2556 0
DWIDTH 18 0
BBX 16 20 0 -5
BITMAP
0000
0000
FE1F
380C
1C18
0E30
0760
03C0
01C0
03E0
0670
0C38
181C
300E
F83F
0000
0000
0000
0000
0000
ENDCHAR
STARTCHAR char89
ENCODING 89
SWIDTH 2840 0
DWIDTH 20 0
BBX 18 20 0 -5
BITMAP
000000
000000
FE07C0
1C0300
0E0600
070C00
039800
01F000
00E000
00E000
00E000
00E000
00E000
00E000
07F800
000000
000000
000000
000000
000000
ENDCHAR
STARTCHAR char90
ENCODING 90
SWIDTH 2272 0
DWIDTH 16 0
BBX 14 20 0 -5
BITMAP
0000
0000
3FF8
6070
40E0
01C0
01C0
0380
0700
0E00
1C00
1C00
3804
700C
FFF8
0000
0000
0000
0000
0000
ENDCHAR
STARTCHAR char91
ENCODING 91
SWIDTH 1136 0
DWIDTH 8 0
BBX 4 20 0 -5
BITMAP
F0
C0
C0
C0
C0
C0
C0
C0
C0
C0
C0
C0
C0
C0
C0
C0
F0
00
00
00
ENDCHAR
STARTCHAR char92
ENCODING 92
SWIDTH 1562 0
DWIDTH 11 0
BBX 9 20 0 -5
BITMAP
C000
C000
6000
6000
3000
3000
1800
1800
0C00
0C00
0600
0600
0300
0300
0180
0180
0000
0000
0000
0000
ENDCHAR
STARTCHAR char93
ENCODING 93
SWIDTH 1136 0
DWIDTH 8 0
BBX 4 20 0 -5
BITMAP
F0
30
30
30
30
30
30
30
30
30
30
30
30
30
30
30
F0
00
00
00
ENDCHAR
STARTCHAR char95
ENCODING 95
SWIDTH 2840 0
DWIDTH 20 0
BBX 14 20 0 -5
BITMAP
0000
0000
0000
0000
0000
0000
0000
0000
0000
0000
0000
0000
0000
0000
0000
0000
FFFC
FFFC
0000
0000
ENDCHAR
STARTCHAR char96
ENCODING 96
SWIDTH 1136 0
DWIDTH 8 0
BBX 3 20 0 -5
BITMAP
20
40
C0
E0
60
00
00
00
00
00
00
00
00
00
00
00
00
00
00
00
ENDCHAR
STARTCHAR char97
ENCODING 97
SWIDTH 1704 0
DWIDTH 12 0
BBX 10 20 0 -5
BITMAP
0000
0000
0000
0000
0000
1E00
6300
C300
C300
0F00
3300
6300
C300
C740
7980
0000
0000
0000
0000
0000
ENDCHAR
STARTCHAR char98
ENCODING 98
SWIDTH 1704 0
DWIDTH 12 0
BBX 10 20 0 -5
BITMAP
0000
2000
E000
6000
6000
6600
6F80
7180
60C0
60C0
60C0
60C0
6080
7100
0E00
0000
0000
0000
0000
0000
ENDCHAR
STARTCHAR char99
ENCODING 99
SWIDTH 1562 0
DWIDTH 11 0
BBX 9 20 0 -5
BITMAP
0000
0000
0000
0000
0000
1C00
2300
4300
C000
C000
C000
C080
E100
7E00
3C00
0000
0000
0000
0000
0000
ENDCHAR
STARTCHAR char100
ENCODING 100
SWIDTH 1846 0
DWIDTH 13 0
BBX 11 20 0 -5
BITMAP
0000
0040
01C0
00C0
00C0
1EC0
21C0
60C0
40C0
C0C0
C0C0
C0C0
60C0
71E0
1E80
0000
0000
0000
0000
0000
ENDCHAR
STARTCHAR char101
ENCODING 101
SWIDTH 1420 0
DWIDTH 10 0
BBX 9 20 0 -5
BITMAP
0000
0000
0000
0000
0000
1E00
6100
4080
FF80
C000
C000
C000
6080
7F00
1C00
0000
0000
0000
0000
0000
ENDCHAR
STARTCHAR char102
ENCODING 102
SWIDTH 994 0
DWIDTH 7 0
BBX 7 20 0 -5
BITMAP
00
0E
10
10
30
7C
30
30
30
30
30
30
30
30
FC
00
00
00
00
00
ENDCHAR
STARTCHAR char103
ENCODING 103
SWIDTH 1704 0
DWIDTH 12 0
BBX 9 20 0 -5
BITMAP
0000
0000
0000
0000
0000
1C00
2380
6300
6300
6300
2300
3C00
4000
4000
7F00
4080
C080
C080
C180
7E00
ENDCHAR
STARTCHAR char104
ENCODING 104
SWIDTH 1846 0
DWIDTH 13 0
BBX 11 20 0 -5
BITMAP
0000
1000
7000
3000
3000
3780
38C0
30C0
30C0
30C0
30C0
30C0
30C0
30C0
FDE0
0000
0000
0000
0000
0000
ENDCHAR
STARTCHAR char105
ENCODING 105
SWIDTH 994 0
DWIDTH 7 0
BBX 4 20 1 -5
BITMAP
00
00
60
60
00
20
E0
60
60
60
60
60
60
60
F0
00
00
00
00
00
ENDCHAR
STARTCHAR char106
ENCODING 106
SWIDTH 1136 0
DWIDTH 8 0
BBX 6 20 0 -5
BITMAP
00
0C
0C
00
00
04
3C
0C
0C
0C
0C
0C
0C
0C
0C
0C
0C
08
C8
F0
ENDCHAR
STARTCHAR char107
ENCODING 107
SWIDTH 1846 0
DWIDTH 13 0
BBX 11 20 0 -5
BITMAP
0000
1000
7000
3000
3000
33C0
3100
3200
3400
3800
3C00
3600
3300
3180
FBE0
0000
0000
0000
0000
0000
ENDCHAR
STARTCHAR char108
ENCODING 108
SWIDTH 1136 0
DWIDTH 8 0
BBX 6 20 0 -5
BITMAP
00
10
70
30
30
30
30
30
30
30
30
30
30
30
FC
00
00
00
00
00
ENDCHAR
STARTCHAR char109
ENCODING 109
SWIDTH 2840 0
DWIDTH 20 0
BBX 18 20 0 -5
BITMAP
000000
000000
000000
000000
000000
379E00
F8E300
30C300
30C300
30C300
30C300
30C300
30C300
30C300
FDF7C0
000000
000000
000000
000000
000000
ENDCHAR
STARTCHAR char110
ENCODING 110
SWIDTH 1988 0
DWIDTH 14 0
BBX 12 20 0 -5
BITMAP
0000
0000
0000
0000
0000
3780
F8C0
30C0
30C0
30C0
30C0
30C0
30C0
30C0
FBF0
0000
0000
0000
0000
0000
ENDCHAR
STARTCHAR char111
ENCODING 111
SWIDTH 1704 0
DWIDTH 12 0
BBX 10 20 0 -5
BITMAP
0000
0000
0000
0000
0000
1E00
6180
4080
C0C0
C0C0
C0C0
C0C0
4080
6180
1E00
0000
0000
0000
0000
0000
ENDCHAR
STARTCHAR char112
ENCODING 112
SWIDTH 1846 0
DWIDTH 13 0
BBX 11 20 0 -5
BITMAP
0000
0000
0000
0000
0000
1300
77C0
38E0
3060
3060
3060
3060
3040
3880
3700
3000
3000
3000
3000
FC00
ENDCHAR
STARTCHAR char113
ENCODING 113
SWIDTH 1846 0
DWIDTH 13 0
BBX 11 20 0 -5
BITMAP
0000
0000
0000
0000
0000
1C80
6380
4180
C180
C180
C180
C180
C180
6380
3D80
0180
0180
0180
0180
07E0
ENDCHAR
STARTCHAR char114
ENCODING 114
SWIDTH 1420 0
DWIDTH 10 0
BBX 8 20 0 -5
BITMAP
00
00
00
00
00
13
77
38
30
30
30
30
30
30
FC
00
00
00
00
00
ENDCHAR
STARTCHAR char115
ENCODING 115
SWIDTH 1420 0
DWIDTH 10 0
BBX 8 20 0 -5
BITMAP
00
00
00
00
00
3A
46
42
62
38
1E
86
83
C3
BE
00
00
00
00
00
ENDCHAR
STARTCHAR char116
ENCODING 116
SWIDTH 1136 0
DWIDTH 8 0
BBX 7 20 0 -5
BITMAP
00
00
00
10
10
70
FC
30
30
30
30
30
30
32
1C
00
00
00
00
00
ENDCHAR
STARTCHAR char117
ENCODING 117
SWIDTH 1988 0
DWIDTH 14 0
BBX 12 20 0 -5
BITMAP
0000
0000
0000
0000
0000
F3C0
30C0
30C0
30C0
30C0
30C0
30C0
30C0
39F0
1EC0
0000
0000
0000
0000
0000
ENDCHAR
STARTCHAR char118
ENCODING 118
SWIDTH 1846 0
DWIDTH 13 0
BBX 11 20 0 -5
BITMAP
0000
0000
0000
0000
0000
F8E0
6040
7080
3080
3900
1900
1E00
0E00
0C00
0400
0000
0000
0000
0000
0000
ENDCHAR
STARTCHAR char119
ENCODING 119
SWIDTH 2556 0
DWIDTH 18 0
BBX 16 20 0 -5
BITMAP
0000
0000
0000
0000
0000
F7CF
6182
6184
3184
32C8
3AC8
1C70
1C70
0820
0820
0000
0000
0000
0000
0000
ENDCHAR
STARTCHAR char120
ENCODING 120
SWIDTH 1846 0
DWIDTH 13 0
BBX 11 20 0 -5
BITMAP
0000
0000
0000
0000
0000
7DC0
1880
0D00
0E00
0600
0F00
1300
2180
41C0
E3E0
0000
0000
0000
0000
0000
ENDCHAR
STARTCHAR char121
ENCODING 121
SWIDTH 1988 0
DWIDTH 14 0
BBX 12 20 0 -5
BITMAP
0000
0000
0000
0000
0000
F870
3020
3040
1840
1880
0C80
0D00
0700
0200
0200
0200
0400
0400
6800
7000
ENDCHAR
STARTCHAR char122
ENCODING 122
SWIDTH 1988 0
DWIDTH 14 0
BBX 12 20 0 -5
BITMAP
0000
0000
0000
0000
0000
7FE0
40C0
4180
0300
0600
0C00
1800
3010
6020
FFC0
0000
0000
0000
0000
0000
ENDCHAR
STARTCHAR char123
ENCODING 123
SWIDTH 2272 0
DWIDTH 16 0
BBX 1 20 0 -5
BITMAP
00
00
00
00
00
00
00
00
00
00
00
00
00
00
00
00
00
00
00
00
ENDCHAR
STARTCHAR char124
ENCODING 124
SWIDTH 1136 0
DWIDTH 8 0
BBX 2 20 3 -5
BITMAP
C0
C0
C0
C0
C0
C0
C0
C0
C0
C0
C0
C0
C0
C0
C0
C0
00
00
00
00
ENDCHAR
STARTCHAR char125
ENCODING 125
SWIDTH 2272 0
DWIDTH 16 0
BBX 1 20 0 -5
BITMAP
00
00
00
00
00
00
00
00
00
00
00
00
00
00
00
00
00
00
00
00
ENDCHAR
STARTCHAR char126
ENCODING 126
SWIDTH 2130 0
DWIDTH 15 0
BBX 13 20 0 -5
BITMAP
0000
0000
0000
0000
0000
0000
0000
0000
3C00
7E18
C3F0
01E0
0000
0000
0000
0000
0000
0000
0000
0000
ENDCHAR
ENDFONT
