STARTFONT 2.1
FONT -MIT-25FGI1 KST-Medium-R-Normal--25-9-200-200-P-16-ISO8859-1
SIZE 9 200 200
FONTBOUNDINGBOX 16 25 -5 -5
STARTPROPERTIES 17
ADD_STYLE_NAME ""
AVERAGE_WIDTH 16
CHARSET_ENCODING "1"
CHARSET_REGISTRY "ISO8859"
DEFAULT_CHAR 0
FAMILY "25FGI1 KST"
FONT_ASCENT 20
FONT_DESCENT 5
FOUNDRY "MIT"
PIXEL_SIZE 25
POINT_SIZE 9
RESOLUTION_X 200
RESOLUTION_Y 200
SETWIDTH_NAME "Normal"
SLANT "R"
SPACING "P"
WEIGHT_NAME "Medium"
ENDPROPERTIES
CHARS 97
STARTCHAR char11
ENCODING 11
SWIDTH 1776 0
DWIDTH 16 0
BBX 11 25 2 -5
BITMAP
0000
0000
0000
0300
0700
0F80
1F80
3FC0
7EC0
CE60
0E00
1C00
1C00
1C00
3800
3800
3800
0000
0000
0000
0000
0000
0000
0000
0000
ENDCHAR
STARTCHAR char24
ENCODING 24
SWIDTH 1776 0
DWIDTH 16 0
BBX 15 25 0 -5
BITMAP
0000
0000
0000
0000
0000
0000
0000
0000
01C0
0780
1E00
7FFE
FFFC
7FF8
3800
1C00
0E00
0000
0000
0000
0000
0000
0000
0000
0000
ENDCHAR
STARTCHAR char32
ENCODING 32
SWIDTH 1776 0
DWIDTH 16 0
BBX 1 25 0 -5
BITMAP
00
00
00
00
00
00
00
00
00
00
00
00
00
00
00
00
00
00
00
00
00
00
00
00
00
ENDCHAR
STARTCHAR char33
ENCODING 33
SWIDTH 1776 0
DWIDTH 16 0
BBX 8 25 4 -5
BITMAP
00
07
07
07
0E
0E
0E
1C
1C
1C
38
38
38
70
70
00
00
E0
E0
E0
00
00
00
00
00
ENDCHAR
STARTCHAR char34
ENCODING 34
SWIDTH 1776 0
DWIDTH 16 0
BBX 10 25 3 -5
BITMAP
0000
39C0
39C0
39C0
7380
7380
7380
E700
E700
E700
0000
0000
0000
0000
0000
0000
0000
0000
0000
0000
0000
0000
0000
0000
0000
ENDCHAR
STARTCHAR char35
ENCODING 35
SWIDTH 1776 0
DWIDTH 16 0
BBX 15 25 0 -5
BITMAP
0066
0066
00CC
00CC
0198
0198
0330
3FFC
3FFC
0660
0CC0
7FF8
7FF8
1980
3300
3300
6600
6600
CC00
CC00
0000
0000
0000
0000
0000
ENDCHAR
STARTCHAR char36
ENCODING 36
SWIDTH 1776 0
DWIDTH 16 0
BBX 14 25 1 -5
BITMAP
00C0
03F0
0FF8
1EDC
3CCC
38C0
3980
3980
1F80
0FC0
03E0
0370
0338
0338
0638
E638
E638
E670
7FE0
3FC0
0C00
0000
0000
0000
0000
ENDCHAR
STARTCHAR char37
ENCODING 37
SWIDTH 1776 0
DWIDTH 16 0
BBX 15 25 0 -5
BITMAP
0000
000E
0E0E
1B1C
331C
6338
6370
6670
6CE0
39C0
01C0
0380
071C
0736
0E66
1CC6
1CC6
38CC
70D8
E070
E000
0000
0000
0000
0000
ENDCHAR
STARTCHAR char38
ENCODING 38
SWIDTH 1776 0
DWIDTH 16 0
BBX 15 25 1 -5
BITMAP
0000
03C0
07E0
0EF0
1C70
1C70
1C70
1EE0
0FC0
0780
0F80
1FC6
39EE
70FC
F078
E078
E0FC
E7DE
7F8E
3E06
0000
0000
0000
0000
0000
ENDCHAR
STARTCHAR char39
ENCODING 39
SWIDTH 1776 0
DWIDTH 16 0
BBX 5 25 5 -5
BITMAP
00
38
38
38
70
70
70
E0
E0
E0
00
00
00
00
00
00
00
00
00
00
00
00
00
00
00
ENDCHAR
STARTCHAR char40
ENCODING 40
SWIDTH 1776 0
DWIDTH 16 0
BBX 11 25 2 -5
BITMAP
00E0
01C0
0380
0700
0E00
0E00
1C00
3800
3800
3800
7000
7000
7000
E000
E000
E000
E000
E000
E000
E000
E000
E000
7000
7000
7000
ENDCHAR
STARTCHAR char41
ENCODING 41
SWIDTH 1776 0
DWIDTH 16 0
BBX 11 25 2 -5
BITMAP
01C0
01C0
01C0
00E0
00E0
00E0
00E0
00E0
00E0
00E0
00E0
00E0
01C0
01C0
01C0
0380
0380
0380
0700
0E00
0E00
1C00
3800
7000
E000
ENDCHAR
STARTCHAR char42
ENCODING 42
SWIDTH 1776 0
DWIDTH 16 0
BBX 12 25 2 -5
BITMAP
0000
0000
3330
1B60
0B40
3FE0
7FC0
2D00
6D80
CCC0
0000
0000
0000
0000
0000
0000
0000
0000
0000
0000
0000
0000
0000
0000
0000
ENDCHAR
STARTCHAR char43
ENCODING 43
SWIDTH 1776 0
DWIDTH 16 0
BBX 14 25 1 -5
BITMAP
0000
0000
0000
0000
0000
01C0
01C0
01C0
0380
0380
3FFC
7FF8
FFF0
0700
0700
0E00
0E00
0E00
0000
0000
0000
0000
0000
0000
0000
ENDCHAR
STARTCHAR char44
ENCODING 44
SWIDTH 1776 0
DWIDTH 16 0
BBX 7 25 4 -5
BITMAP
00
00
00
00
00
00
00
00
00
00
00
00
00
00
00
00
1C
1E
3C
3C
18
38
F0
E0
00
ENDCHAR
STARTCHAR char45
ENCODING 45
SWIDTH 1776 0
DWIDTH 16 0
BBX 12 25 2 -5
BITMAP
0000
0000
0000
0000
0000
0000
0000
0000
0000
0000
3FF0
7FE0
FFC0
0000
0000
0000
0000
0000
0000
0000
0000
0000
0000
0000
0000
ENDCHAR
STARTCHAR char46
ENCODING 46
SWIDTH 1776 0
DWIDTH 16 0
BBX 5 25 5 -5
BITMAP
00
00
00
00
00
00
00
00
00
00
00
00
00
00
00
00
78
78
F0
F0
00
00
00
00
00
ENDCHAR
STARTCHAR char47
ENCODING 47
SWIDTH 1776 0
DWIDTH 16 0
BBX 16 25 0 -5
BITMAP
0007
0007
000E
001C
001C
0038
0070
0070
00E0
01C0
01C0
0380
0700
0700
0E00
1C00
1C00
3800
7000
7000
E000
0000
0000
0000
0000
ENDCHAR
STARTCHAR char48
ENCODING 48
SWIDTH 1776 0
DWIDTH 16 0
BBX 12 25 2 -5
BITMAP
0000
03C0
0FE0
1C70
1C70
3870
3870
7870
7070
7070
F0F0
E0E0
E0E0
E1E0
E1C0
E1C0
E380
E380
7F00
3C00
0000
0000
0000
0000
0000
ENDCHAR
STARTCHAR char49
ENCODING 49
SWIDTH 1776 0
DWIDTH 16 0
BBX 12 25 1 -5
BITMAP
0000
07F0
0FF0
0070
00F0
00E0
00E0
01E0
01C0
01C0
01C0
03C0
0380
0380
0380
0780
0700
0700
7FF0
FFE0
0000
0000
0000
0000
0000
ENDCHAR
STARTCHAR char50
ENCODING 50
SWIDTH 1776 0
DWIDTH 16 0
BBX 15 25 0 -5
BITMAP
0000
01F0
07FC
0E1E
1C0E
380E
380E
001E
003C
0078
00F0
03C0
0F80
1E00
3C00
7800
F000
E000
FFFE
FFFC
0000
0000
0000
0000
0000
ENDCHAR
STARTCHAR char51
ENCODING 51
SWIDTH 1776 0
DWIDTH 16 0
BBX 15 25 0 -5
BITMAP
0000
01F8
07FC
0E1E
0E0E
000E
000E
001E
003C
03F8
03F0
0038
001C
001C
E01C
E01C
E03C
7078
3FF0
1FC0
0000
0000
0000
0000
0000
ENDCHAR
STARTCHAR char52
ENCODING 52
SWIDTH 1776 0
DWIDTH 16 0
BBX 15 25 0 -5
BITMAP
0000
001E
003E
006C
00DC
01DC
0398
0738
0E38
1C38
3870
7070
E070
FFFE
FFFE
00E0
00E0
01C0
01C0
01C0
0000
0000
0000
0000
0000
ENDCHAR
STARTCHAR char53
ENCODING 53
SWIDTH 1776 0
DWIDTH 16 0
BBX 14 25 1 -5
BITMAP
0000
07FC
0FF8
0E00
0E00
1C00
1DE0
3FF8
3C38
381C
001C
001C
001C
E01C
E01C
E038
F078
7CF0
3FE0
0F80
0000
0000
0000
0000
0000
ENDCHAR
STARTCHAR char54
ENCODING 54
SWIDTH 1776 0
DWIDTH 16 0
BBX 14 25 1 -5
BITMAP
0000
03F0
07F8
0E1C
1C1C
3800
3B80
7FE0
7CF0
7070
F038
E038
E038
E038
E070
E070
E0F0
71E0
3FC0
1F00
0000
0000
0000
0000
0000
ENDCHAR
STARTCHAR char55
ENCODING 55
SWIDTH 1776 0
DWIDTH 16 0
BBX 14 25 1 -5
BITMAP
0000
7FFC
FFFC
001C
0038
0070
00E0
01C0
0380
0700
0E00
1C00
1C00
3800
3800
7000
7000
6000
E000
E000
0000
0000
0000
0000
0000
ENDCHAR
STARTCHAR char56
ENCODING 56
SWIDTH 1776 0
DWIDTH 16 0
BBX 14 25 1 -5
BITMAP
0000
01F0
07F8
0F3C
1E1C
1C1C
1C38
0E70
07E0
1FF0
3C38
701C
E01C
E01C
E01C
E01C
E038
70F0
3FE0
1F80
0000
0000
0000
0000
0000
ENDCHAR
STARTCHAR char57
ENCODING 57
SWIDTH 1776 0
DWIDTH 16 0
BBX 14 25 1 -5
BITMAP
0000
03E0
0FF0
1E38
1C1C
381C
381C
701C
701C
703C
7038
3878
3CF8
1FF0
0770
0060
E0E0
F1C0
7F80
3F00
0000
0000
0000
0000
0000
ENDCHAR
STARTCHAR char58
ENCODING 58
SWIDTH 1776 0
DWIDTH 16 0
BBX 7 25 5 -5
BITMAP
00
00
00
00
00
00
00
1E
1E
3C
3C
00
00
00
00
00
78
78
F0
F0
00
00
00
00
00
ENDCHAR
STARTCHAR char59
ENCODING 59
SWIDTH 1776 0
DWIDTH 16 0
BBX 8 25 4 -5
BITMAP
00
00
00
00
00
00
00
0F
0F
1E
1E
00
00
00
00
00
3C
3C
78
78
30
30
E0
C0
00
ENDCHAR
STARTCHAR char60
ENCODING 60
SWIDTH 1776 0
DWIDTH 16 0
BBX 13 25 2 -5
BITMAP
0000
0038
0070
00E0
01C0
0380
0700
0E00
1C00
3800
7000
E000
7000
3800
1C00
1C00
0E00
0700
0700
0380
0000
0000
0000
0000
0000
ENDCHAR
STARTCHAR char61
ENCODING 61
SWIDTH 1776 0
DWIDTH 16 0
BBX 15 25 0 -5
BITMAP
0000
0000
0000
0000
0000
0000
0000
07FE
0FFC
1FF8
0000
0000
0000
3FF0
7FE0
FFC0
0000
0000
0000
0000
0000
0000
0000
0000
0000
ENDCHAR
STARTCHAR char62
ENCODING 62
SWIDTH 1776 0
DWIDTH 16 0
BBX 14 25 1 -5
BITMAP
0000
0E00
0700
0700
0380
01C0
01C0
00E0
0070
0070
0038
001C
0038
0070
01E0
0380
0F00
1C00
7800
E000
0000
0000
0000
0000
0000
ENDCHAR
STARTCHAR char63
ENCODING 63
SWIDTH 1776 0
DWIDTH 16 0
BBX 12 25 2 -5
BITMAP
0000
0F80
3FE0
79E0
F0F0
E070
0070
0070
00E0
03C0
0780
1E00
3C00
3800
3800
0000
0000
7000
7000
7000
0000
0000
0000
0000
0000
ENDCHAR
STARTCHAR char64
ENCODING 64
SWIDTH 1776 0
DWIDTH 16 0
BBX 14 25 1 -5
BITMAP
0000
03E0
07F0
0C38
1818
300C
30EC
61FC
639C
671C
C618
C618
C630
C3F0
C1E0
C000
C000
60C0
3FC0
1F00
0000
0000
0000
0000
0000
ENDCHAR
STARTCHAR char65
ENCODING 65
SWIDTH 1776 0
DWIDTH 16 0
BBX 13 25 0 -5
BITMAP
0000
01F8
03F8
03B8
03B8
0738
0738
0F38
0E38
0E38
1C38
1C38
3FF8
3FF8
3838
7038
7038
E038
E038
E038
0000
0000
0000
0000
0000
ENDCHAR
STARTCHAR char66
ENCODING 66
SWIDTH 1776 0
DWIDTH 16 0
BBX 13 25 1 -5
BITMAP
0000
1FE0
1FF0
1C78
1C38
1C38
3C38
3838
3870
3FE0
3FC0
78E0
7070
7038
7038
7038
F078
E0F0
FFE0
FFC0
0000
0000
0000
0000
0000
ENDCHAR
STARTCHAR char67
ENCODING 67
SWIDTH 1776 0
DWIDTH 16 0
BBX 13 25 1 -5
BITMAP
0000
03E0
0FF8
1E38
3C18
3800
7800
7000
F000
E000
E000
E000
E000
E000
E000
F020
7070
78F0
3FE0
1FC0
0000
0000
0000
0000
0000
ENDCHAR
STARTCHAR char68
ENCODING 68
SWIDTH 1776 0
DWIDTH 16 0
BBX 13 25 1 -5
BITMAP
0000
1F80
1FE0
1CF0
1C70
1C38
3C38
3838
3838
3838
3838
7838
7038
7038
7070
7070
F0E0
E1E0
FFC0
FF00
0000
0000
0000
0000
0000
ENDCHAR
STARTCHAR char69
ENCODING 69
SWIDTH 1776 0
DWIDTH 16 0
BBX 13 25 1 -5
BITMAP
0000
1FF8
1FF8
1C00
1C00
1C00
3C00
3800
3800
3FE0
3FE0
7800
7000
7000
7000
7000
F000
E000
FFE0
FFE0
0000
0000
0000
0000
0000
ENDCHAR
STARTCHAR char70
ENCODING 70
SWIDTH 1776 0
DWIDTH 16 0
BBX 13 25 2 -5
BITMAP
0000
1FF8
1FF8
1C00
1C00
1C00
3C00
3800
3800
3FE0
3FE0
7800
7000
7000
7000
7000
F000
E000
E000
E000
0000
0000
0000
0000
0000
ENDCHAR
STARTCHAR char71
ENCODING 71
SWIDTH 1776 0
DWIDTH 16 0
BBX 13 25 1 -5
BITMAP
0000
07E0
0FF0
1E78
3830
3800
7000
7000
7000
E000
E000
E3F0
E3F0
E070
E070
E070
70E0
79E0
3FE0
1EE0
0000
0000
0000
0000
0000
ENDCHAR
STARTCHAR char72
ENCODING 72
SWIDTH 1776 0
DWIDTH 16 0
BBX 14 25 0 -5
BITMAP
0000
1C1C
1C1C
1C1C
1C1C
1C1C
3C3C
3838
3838
3FF8
3FF8
7870
7070
7070
7070
7070
F0F0
E0E0
E0E0
E0E0
0000
0000
0000
0000
0000
ENDCHAR
STARTCHAR char73
ENCODING 73
SWIDTH 1776 0
DWIDTH 16 0
BBX 14 25 1 -5
BITMAP
0000
1FFC
1FFC
01C0
01C0
01C0
03C0
0380
0380
0380
0380
0780
0700
0700
0700
0F00
0E00
0E00
FFE0
FFE0
0000
0000
0000
0000
0000
ENDCHAR
STARTCHAR char74
ENCODING 74
SWIDTH 1776 0
DWIDTH 16 0
BBX 13 25 1 -5
BITMAP
0000
03F8
03F8
0038
0038
0038
0078
0070
0070
0070
0070
00F0
E0E0
E0E0
E0E0
E1E0
F1C0
7BC0
3F80
1F00
0000
0000
0000
0000
0000
ENDCHAR
STARTCHAR char75
ENCODING 75
SWIDTH 1776 0
DWIDTH 16 0
BBX 14 25 1 -5
BITMAP
0000
1C1C
1C38
1C38
1C70
1CE0
3DC0
39C0
3B80
3F00
3F80
7B80
71C0
71C0
70E0
70E0
F070
E070
E038
E038
0000
0000
0000
0000
0000
ENDCHAR
STARTCHAR char76
ENCODING 76
SWIDTH 1776 0
DWIDTH 16 0
BBX 12 25 2 -5
BITMAP
0000
1C00
1C00
1C00
1C00
1C00
3C00
3800
3800
3800
3800
7800
7000
7000
7000
F000
E000
E000
FFF0
FFF0
0000
0000
0000
0000
0000
ENDCHAR
STARTCHAR char77
ENCODING 77
SWIDTH 1776 0
DWIDTH 16 0
BBX 16 25 0 -5
BITMAP
0000
380F
380F
3C1F
3C1F
3E3E
366E
366E
77CE
73CE
738E
738E
710E
F01E
E01C
E01C
E01C
E01C
E01C
E01C
0000
0000
0000
0000
0000
ENDCHAR
STARTCHAR char78
ENCODING 78
SWIDTH 1776 0
DWIDTH 16 0
BBX 15 25 0 -5
BITMAP
0000
1C0E
1C0E
1E0E
1E0E
1E0E
3F1C
3B1C
3B1C
3B9C
399C
71DC
71DC
70DC
70F8
7078
E078
E038
E038
E038
0000
0000
0000
0000
0000
ENDCHAR
STARTCHAR char79
ENCODING 79
SWIDTH 1776 0
DWIDTH 16 0
BBX 14 25 1 -5
BITMAP
0000
03E0
0FF0
1E78
3C38
381C
701C
701C
E01C
E01C
E01C
E01C
E01C
E038
E038
E070
70F0
79E0
3FC0
1F00
0000
0000
0000
0000
0000
ENDCHAR
STARTCHAR char80
ENCODING 80
SWIDTH 1776 0
DWIDTH 16 0
BBX 13 25 1 -5
BITMAP
0000
1FE0
1FF0
1C78
1C38
1C38
3C38
3838
3838
3878
38F0
7FE0
7F80
7000
7000
7000
F000
E000
E000
E000
0000
0000
0000
0000
0000
ENDCHAR
STARTCHAR char81
ENCODING 81
SWIDTH 1776 0
DWIDTH 16 0
BBX 14 25 1 -5
BITMAP
0000
03E0
0FF0
1E78
3C38
381C
701C
701C
F01C
E01C
E01C
E01C
E01C
E1B8
E3B8
F1F0
70F0
79F8
3FFC
1F18
0000
0000
0000
0000
0000
ENDCHAR
STARTCHAR char82
ENCODING 82
SWIDTH 1776 0
DWIDTH 16 0
BBX 13 25 1 -5
BITMAP
0000
1FE0
1FF0
1C78
1C38
1C38
3C38
3838
3878
38F0
3FE0
7F80
7700
7380
71C0
71C0
F0E0
E070
E078
E038
0000
0000
0000
0000
0000
ENDCHAR
STARTCHAR char83
ENCODING 83
SWIDTH 1776 0
DWIDTH 16 0
BBX 13 25 1 -5
BITMAP
0000
03E0
0FF8
1E78
3C10
3800
3800
3C00
1F00
1F80
07C0
01E0
00F0
00F0
0070
4070
E0F0
F1E0
7FC0
3F80
0000
0000
0000
0000
0000
ENDCHAR
STARTCHAR char84
ENCODING 84
SWIDTH 1776 0
DWIDTH 16 0
BBX 13 25 2 -5
BITMAP
0000
FFF8
FFF8
0700
0700
0700
0F00
0E00
0E00
0E00
0E00
1E00
1C00
1C00
1C00
1C00
3C00
3800
3800
3800
0000
0000
0000
0000
0000
ENDCHAR
STARTCHAR char85
ENCODING 85
SWIDTH 1776 0
DWIDTH 16 0
BBX 14 25 1 -5
BITMAP
0000
381C
381C
381C
381C
381C
783C
7038
7038
7038
7038
F078
E070
E070
E070
E070
E0F0
F1E0
7FC0
3F80
0000
0000
0000
0000
0000
ENDCHAR
STARTCHAR char86
ENCODING 86
SWIDTH 1776 0
DWIDTH 16 0
BBX 12 25 2 -5
BITMAP
0000
E070
E070
E070
E070
E0E0
E0E0
E0E0
E1C0
E1C0
E1C0
E380
E380
E380
E380
E700
E700
FE00
FE00
7E00
0000
0000
0000
0000
0000
ENDCHAR
STARTCHAR char87
ENCODING 87
SWIDTH 1776 0
DWIDTH 16 0
BBX 16 25 0 -5
BITMAP
0000
E007
E007
E007
E007
E007
E00E
E00E
E38E
E39C
E39C
E79C
E79C
EF9C
EDB8
EDB8
FDB8
F9F0
F0F0
F0F0
0000
0000
0000
0000
0000
ENDCHAR
STARTCHAR char88
ENCODING 88
SWIDTH 1776 0
DWIDTH 16 0
BBX 15 25 0 -5
BITMAP
0000
1C0E
1C0E
1C1C
0E38
0E38
0770
07E0
03E0
01C0
03C0
07C0
07E0
0EE0
1C70
3870
7038
7038
E01C
E01C
0000
0000
0000
0000
0000
ENDCHAR
STARTCHAR char89
ENCODING 89
SWIDTH 1776 0
DWIDTH 16 0
BBX 14 25 1 -5
BITMAP
0000
E01C
E01C
7038
7070
3870
38E0
1DC0
1DC0
0F80
0F00
0700
0E00
0E00
0E00
0E00
1C00
1C00
1C00
1C00
0000
0000
0000
0000
0000
ENDCHAR
STARTCHAR char90
ENCODING 90
SWIDTH 1776 0
DWIDTH 16 0
BBX 13 25 1 -5
BITMAP
0000
3FF8
3FF8
0038
0078
0070
01E0
01C0
03C0
0380
0F00
0E00
1E00
3C00
3800
7800
F000
E000
FFE0
FFE0
0000
0000
0000
0000
0000
ENDCHAR
STARTCHAR char91
ENCODING 91
SWIDTH 1776 0
DWIDTH 16 0
BBX 13 25 2 -5
BITMAP
07F8
07F0
0700
0700
0E00
0E00
0E00
0E00
1C00
1C00
1C00
1C00
1C00
3800
3800
3800
3800
7000
7000
7000
7000
E000
E000
FF80
FF00
ENDCHAR
STARTCHAR char92
ENCODING 92
SWIDTH 1776 0
DWIDTH 16 0
BBX 12 25 2 -5
BITMAP
C000
E000
E000
7000
7000
3800
3800
1800
1C00
1C00
0C00
0E00
0600
0700
0700
0380
0380
01C0
01C0
00C0
00E0
0060
0070
0070
0030
ENDCHAR
STARTCHAR char93
ENCODING 93
SWIDTH 1776 0
DWIDTH 16 0
BBX 13 25 1 -5
BITMAP
03F8
07F8
0038
0038
0070
0070
0070
0070
00E0
00E0
00E0
00E0
00E0
01C0
01C0
01C0
01C0
0380
0380
0380
0380
0700
0700
7F00
FF00
ENDCHAR
STARTCHAR char94
ENCODING 94
SWIDTH 1776 0
DWIDTH 16 0
BBX 14 25 2 -5
BITMAP
0000
0000
0000
0000
00C0
03E0
07F0
1C38
3818
701C
E01C
0000
0000
0000
0000
0000
0000
0000
0000
0000
0000
0000
0000
0000
0000
ENDCHAR
STARTCHAR char95
ENCODING 95
SWIDTH 1776 0
DWIDTH 16 0
BBX 16 25 0 -5
BITMAP
0000
0000
0000
0000
0000
0000
0000
0000
0000
0000
0000
0000
0000
0000
0000
0000
0000
0000
0000
0000
0000
0000
0000
FFFF
FFFF
ENDCHAR
STARTCHAR char96
ENCODING 96
SWIDTH 1776 0
DWIDTH 16 0
BBX 1 25 0 -5
BITMAP
00
00
00
00
00
00
00
00
00
00
00
00
00
00
00
00
00
00
00
00
00
00
00
00
00
ENDCHAR
STARTCHAR char97
ENCODING 97
SWIDTH 1776 0
DWIDTH 16 0
BBX 13 25 1 -5
BITMAP
0000
0000
0000
0000
0000
0000
0FE0
1FF0
1C78
0038
0038
1FB8
7FF0
70F0
E070
E070
E0E0
F1E0
7FF0
3E78
0000
0000
0000
0000
0000
ENDCHAR
STARTCHAR char98
ENCODING 98
SWIDTH 1776 0
DWIDTH 16 0
BBX 13 25 1 -5
BITMAP
0000
1C00
1C00
1C00
1C00
1C00
39E0
3FF0
3C78
3838
3838
7838
7038
7038
7038
7070
F070
F8E0
EFE0
E780
0000
0000
0000
0000
0000
ENDCHAR
STARTCHAR char99
ENCODING 99
SWIDTH 1776 0
DWIDTH 16 0
BBX 12 25 2 -5
BITMAP
0000
0000
0000
0000
0000
0000
07C0
1FE0
3CF0
7870
7000
E000
E000
E000
E000
E000
E0E0
F1E0
7FC0
3F80
0000
0000
0000
0000
0000
ENDCHAR
STARTCHAR char100
ENCODING 100
SWIDTH 1776 0
DWIDTH 16 0
BBX 13 25 2 -5
BITMAP
0000
0038
0038
0038
0038
0038
0F70
1FF0
39F0
7070
7070
E0E0
E0E0
E0E0
E0E0
E0E0
E1C0
F3C0
7FC0
3DC0
0000
0000
0000
0000
0000
ENDCHAR
STARTCHAR char101
ENCODING 101
SWIDTH 1776 0
DWIDTH 16 0
BBX 12 25 1 -5
BITMAP
0000
0000
0000
0000
0000
0000
07C0
1FE0
3CF0
3870
7030
70F0
FFE0
FFC0
E000
E000
E070
F0F0
7FE0
1FC0
0000
0000
0000
0000
0000
ENDCHAR
STARTCHAR char102
ENCODING 102
SWIDTH 1776 0
DWIDTH 16 0
BBX 13 25 2 -5
BITMAP
0000
07E0
0FF0
1E38
1C18
1C00
7F80
7F80
3800
3800
3800
7000
7000
7000
7000
7000
E000
E000
E000
E000
0000
0000
0000
0000
0000
ENDCHAR
STARTCHAR char103
ENCODING 103
SWIDTH 1776 0
DWIDTH 16 0
BBX 13 25 2 -5
BITMAP
0000
0000
0000
0000
0000
0000
07B8
1FF8
3C78
7838
7038
E070
E070
E070
E070
7070
78E0
3FE0
1EE0
00E0
01C0
E3C0
FF80
7E00
0000
ENDCHAR
STARTCHAR char104
ENCODING 104
SWIDTH 1776 0
DWIDTH 16 0
BBX 13 25 1 -5
BITMAP
0000
1C00
1C00
1C00
1C00
1C00
39E0
3FF0
3E78
3838
3838
7038
7070
7070
7070
7070
E070
E0E0
E0E0
E0E0
0000
0000
0000
0000
0000
ENDCHAR
STARTCHAR char105
ENCODING 105
SWIDTH 1776 0
DWIDTH 16 0
BBX 9 25 4 -5
BITMAP
0000
0380
0380
0380
0000
0000
FF00
FF00
0700
0700
0700
0E00
0E00
0E00
0E00
0E00
1C00
1C00
1C00
1C00
0000
0000
0000
0000
0000
ENDCHAR
STARTCHAR char106
ENCODING 106
SWIDTH 1776 0
DWIDTH 16 0
BBX 13 25 1 -5
BITMAP
0000
0038
0038
0038
0000
0000
0FF0
0FF0
0070
0070
00E0
00E0
00E0
00E0
00E0
01C0
01C0
01C0
E1C0
E1C0
E380
F780
7F00
1C00
0000
ENDCHAR
STARTCHAR char107
ENCODING 107
SWIDTH 1776 0
DWIDTH 16 0
BBX 13 25 1 -5
BITMAP
0000
1C00
1C00
1C00
1C00
1C00
3830
3878
38F0
39E0
3FC0
7F80
7F00
7700
7780
73C0
F1E0
E0F0
E078
E030
0000
0000
0000
0000
0000
ENDCHAR
STARTCHAR char108
ENCODING 108
SWIDTH 1776 0
DWIDTH 16 0
BBX 8 25 4 -5
BITMAP
00
FF
FF
07
07
07
0E
0E
0E
0E
0E
1C
1C
1C
1C
1C
38
38
38
38
00
00
00
00
00
ENDCHAR
STARTCHAR char109
ENCODING 109
SWIDTH 1776 0
DWIDTH 16 0
BBX 16 25 0 -5
BITMAP
0000
0000
0000
0000
0000
0000
339E
3FFF
39E7
38C7
30C7
718E
718E
718E
718E
E18E
E18E
E31C
E31C
E31C
0000
0000
0000
0000
0000
ENDCHAR
STARTCHAR char110
ENCODING 110
SWIDTH 1776 0
DWIDTH 16 0
BBX 13 25 1 -5
BITMAP
0000
0000
0000
0000
0000
0000
3BE0
3FF0
3E78
3838
3838
7838
7070
7070
7070
7070
E070
E0E0
E0E0
E0E0
0000
0000
0000
0000
0000
ENDCHAR
STARTCHAR char111
ENCODING 111
SWIDTH 1776 0
DWIDTH 16 0
BBX 13 25 1 -5
BITMAP
0000
0000
0000
0000
0000
0000
0FC0
1FF0
3C70
7838
7038
7038
E038
E038
E070
E070
E0F0
71E0
3FC0
1F80
0000
0000
0000
0000
0000
ENDCHAR
STARTCHAR char112
ENCODING 112
SWIDTH 1776 0
DWIDTH 16 0
BBX 13 25 1 -5
BITMAP
0000
0000
0000
0000
0000
0000
1CE0
1FF0
1F78
1C38
1C38
3838
3838
3838
3838
3870
7070
7CE0
7FE0
7780
7000
E000
E000
E000
0000
ENDCHAR
STARTCHAR char113
ENCODING 113
SWIDTH 1776 0
DWIDTH 16 0
BBX 13 25 2 -5
BITMAP
0000
0000
0000
0000
0000
0000
07B8
1FF8
3C78
7838
7038
E078
E070
E070
E070
E070
7070
79E0
3FE0
0EE0
00E0
01C0
01C0
01C0
0000
ENDCHAR
STARTCHAR char114
ENCODING 114
SWIDTH 1776 0
DWIDTH 16 0
BBX 13 25 1 -5
BITMAP
0000
0000
0000
0000
0000
0000
39E0
3BF0
3F78
3E38
3C10
7800
7000
7000
7000
7000
E000
E000
E000
E000
0000
0000
0000
0000
0000
ENDCHAR
STARTCHAR char115
ENCODING 115
SWIDTH 1776 0
DWIDTH 16 0
BBX 13 25 1 -5
BITMAP
0000
0000
0000
0000
0000
0000
07E0
0FF8
1E38
1C10
1C00
1F00
0FC0
03E0
00F0
4070
E070
F0F0
7FE0
3FC0
0000
0000
0000
0000
0000
ENDCHAR
STARTCHAR char116
ENCODING 116
SWIDTH 1776 0
DWIDTH 16 0
BBX 11 25 2 -5
BITMAP
0000
0000
0700
0E00
0E00
0E00
FFE0
FFE0
1C00
1C00
1C00
3800
3800
3800
3800
7040
70E0
79E0
7FC0
3F80
0000
0000
0000
0000
0000
ENDCHAR
STARTCHAR char117
ENCODING 117
SWIDTH 1776 0
DWIDTH 16 0
BBX 13 25 1 -5
BITMAP
0000
0000
0000
0000
0000
0000
3838
3838
3838
3838
7070
7070
7070
7070
7070
E070
E0E0
F1E0
FFE0
7EE0
0000
0000
0000
0000
0000
ENDCHAR
STARTCHAR char118
ENCODING 118
SWIDTH 1776 0
DWIDTH 16 0
BBX 12 25 3 -5
BITMAP
0000
0000
0000
0000
0000
0000
E070
E070
E0E0
E0E0
E1C0
E1C0
E380
E380
E700
E700
EE00
FE00
FC00
7C00
0000
0000
0000
0000
0000
ENDCHAR
STARTCHAR char119
ENCODING 119
SWIDTH 1776 0
DWIDTH 16 0
BBX 16 25 0 -5
BITMAP
0000
0000
0000
0000
0000
0000
E187
E187
E187
E38E
E38E
E38E
E79C
E6DC
EEDC
ECD8
ECD8
F8F0
F8F0
7060
0000
0000
0000
0000
0000
ENDCHAR
STARTCHAR char120
ENCODING 120
SWIDTH 1776 0
DWIDTH 16 0
BBX 14 25 1 -5
BITMAP
0000
0000
0000
0000
0000
0000
381C
383C
1C78
0EF0
0EE0
07C0
0380
0780
0FC0
1EE0
3CE0
7870
F038
E038
0000
0000
0000
0000
0000
ENDCHAR
STARTCHAR char121
ENCODING 121
SWIDTH 1776 0
DWIDTH 16 0
BBX 15 25 0 -5
BITMAP
0000
0000
0000
0000
0000
0000
380E
380E
1C0E
1C1C
0E1C
0E38
0738
0770
0370
03E0
01C0
01C0
0380
0380
0700
EF00
FE00
7C00
0000
ENDCHAR
STARTCHAR char122
ENCODING 122
SWIDTH 1776 0
DWIDTH 16 0
BBX 13 25 1 -5
BITMAP
0000
0000
0000
0000
0000
0000
3FF8
3FF8
0078
00F0
01E0
03C0
0780
0F00
1E00
3C00
7800
F000
FFE0
FFE0
0000
0000
0000
0000
0000
ENDCHAR
STARTCHAR char123
ENCODING 123
SWIDTH 1776 0
DWIDTH 16 0
BBX 12 25 2 -5
BITMAP
01F0
03E0
0700
0700
0E00
0E00
0E00
1C00
1C00
3800
F000
F000
3800
3800
3800
7000
7000
7000
E000
E000
E000
E000
7F00
3E00
0000
ENDCHAR
STARTCHAR char124
ENCODING 124
SWIDTH 1776 0
DWIDTH 16 0
BBX 8 25 4 -5
BITMAP
07
07
07
07
0E
0E
0E
0E
1C
1C
1C
1C
38
38
38
38
70
70
70
70
E0
E0
E0
E0
00
ENDCHAR
STARTCHAR char125
ENCODING 125
SWIDTH 1776 0
DWIDTH 16 0
BBX 12 25 2 -5
BITMAP
07C0
03E0
0070
0070
0070
00E0
00E0
01C0
01C0
01C0
00F0
00F0
03C0
0380
0380
0700
0700
0700
0700
0E00
0E00
0E00
7C00
F800
0000
ENDCHAR
STARTCHAR char126
ENCODING 126
SWIDTH 1776 0
DWIDTH 16 0
BBX 16 25 0 -5
BITMAP
0000
0000
0000
0000
0000
0000
0000
0000
0000
0E03
1F86
3FFC
61F8
C070
0000
0000
0000
0000
0000
0000
0000
0000
0000
0000
0000
ENDCHAR
ENDFONT
