STARTFONT 2.1
FONT -MIT-25VGI KST-Medium-R-Normal--25-9-200-200-P-14-ISO8859-1
SIZE 9 200 200
FONTBOUNDINGBOX 23 25 -6 -5
STARTPROPERTIES 17
ADD_STYLE_NAME ""
AVERAGE_WIDTH 14
CHARSET_ENCODING "1"
CHARSET_REGISTRY "ISO8859"
DEFAULT_CHAR 0
FAMILY "25VGI KST"
FONT_ASCENT 20
FONT_DESCENT 5
FOUNDRY "MIT"
PIXEL_SIZE 25
POINT_SIZE 9
RESOLUTION_X 200
RESOLUTION_Y 200
SETWIDTH_NAME "Normal"
SLANT "R"
SPACING "P"
WEIGHT_NAME "Medium"
ENDPROPERTIES
CHARS 128
STARTCHAR char0
ENCODING 0
SWIDTH 1998 0
DWIDTH 18 0
BBX 21 25 1 -5
BITMAP
03FFF8
07FFF0
07FFF0
07FFF0
07FFF0
0FFFE0
0FFFE0
0FFFE0
0FFFE0
1FFFC0
1FFFC0
1FFFC0
1FFFC0
3FFF80
3FFF80
3FFF80
3FFF80
7FFF00
7FFF00
7FFF00
7FFF00
FFFE00
FFFE00
FFFE00
FFFE00
ENDCHAR
STARTCHAR char1
ENCODING 1
SWIDTH 1554 0
DWIDTH 14 0
BBX 12 25 1 -5
BITMAP
00C0
00C0
00C0
00C0
0180
0180
0180
0180
0300
0300
0300
0300
0600
0600
C630
6660
6D80
3F00
1E00
0C00
0000
0000
0000
0000
0000
ENDCHAR
STARTCHAR char2
ENCODING 2
SWIDTH 2442 0
DWIDTH 22 0
BBX 21 25 1 -5
BITMAP
000000
000000
000000
000000
000000
000000
000018
000030
0000C0
0000C0
0E0180
1F8300
61CE00
C07C00
C03C00
C03000
81C000
C3B060
7E1CC0
3C0F80
000000
000000
000000
000000
000000
ENDCHAR
STARTCHAR char3
ENCODING 3
SWIDTH 2220 0
DWIDTH 20 0
BBX 23 25 0 -5
BITMAP
000000
000078
0000CC
00018E
000306
000C0C
001C18
001830
001030
0060C0
006180
00C3C0
00C0C0
0301C0
0300E0
060070
060030
1C80C0
18E180
187F00
380000
600000
600000
600000
E00000
ENDCHAR
STARTCHAR char4
ENCODING 4
SWIDTH 1887 0
DWIDTH 17 0
BBX 15 25 0 -5
BITMAP
0000
0000
0000
0000
0000
0020
0070
01B0
01B0
0318
0318
0C18
0C18
180C
180C
600C
600C
C006
C006
0000
0000
0000
0000
0000
0000
ENDCHAR
STARTCHAR char5
ENCODING 5
SWIDTH 1332 0
DWIDTH 12 0
BBX 10 25 1 -5
BITMAP
0000
0000
0000
0000
0000
0000
0000
0000
0000
0000
FFC0
FFC0
0180
0180
0180
0180
0000
0000
0000
0000
0000
0000
0000
0000
0000
ENDCHAR
STARTCHAR char6
ENCODING 6
SWIDTH 1332 0
DWIDTH 12 0
BBX 11 25 1 -5
BITMAP
0000
0000
0000
0000
01E0
0300
0600
1800
3000
3000
7000
FF80
E000
6000
6000
6000
3000
1800
0F00
0000
0000
0000
0000
0000
0000
ENDCHAR
STARTCHAR char7
ENCODING 7
SWIDTH 1776 0
DWIDTH 16 0
BBX 16 25 0 -5
BITMAP
0000
0000
0000
0000
0000
0000
0000
1FF8
1FFF
0C1F
0C18
0C18
0C18
1830
1830
1830
1830
3060
3060
F060
003C
0000
0000
0000
0000
ENDCHAR
STARTCHAR char8
ENCODING 8
SWIDTH 1665 0
DWIDTH 15 0
BBX 13 25 0 -5
BITMAP
0000
0000
0C00
0F00
0F00
0300
0180
0180
0180
0180
0180
03C0
0D80
18C0
18C0
3060
E0C0
C060
8038
0018
0000
0000
0000
0000
0000
ENDCHAR
STARTCHAR char9
ENCODING 9
SWIDTH 1776 0
DWIDTH 16 0
BBX 13 25 3 -5
BITMAP
0000
0000
0000
0008
C018
E038
7070
71C0
3B80
1F00
0E00
1C00
1C00
1E00
1600
2C00
2C00
3C00
1800
0000
0000
0000
0000
0000
0000
ENDCHAR
STARTCHAR char10
ENCODING 10
SWIDTH 1776 0
DWIDTH 16 0
BBX 15 25 0 -5
BITMAP
0000
0000
0000
00FC
07FE
0E0E
0C02
0E00
0F00
03C0
03F0
0FF8
3838
6018
6018
6018
E070
78E0
7FE0
1F80
0000
0000
0000
0000
0000
ENDCHAR
STARTCHAR char11
ENCODING 11
SWIDTH 1554 0
DWIDTH 14 0
BBX 12 25 3 -5
BITMAP
0300
0780
0FC0
1B60
6660
C630
0600
0600
0C00
0C00
0C00
0C00
1800
1800
1800
1800
3000
3000
3000
3000
0000
0000
0000
0000
0000
ENDCHAR
STARTCHAR char12
ENCODING 12
SWIDTH 1776 0
DWIDTH 16 0
BBX 16 25 0 -5
BITMAP
0000
0030
0030
0060
0060
0060
0060
3FFF
3FFF
00C0
00C0
0180
0180
0180
0180
0000
0000
FFFC
FFFC
0000
0000
0000
0000
0000
0000
ENDCHAR
STARTCHAR char13
ENCODING 13
SWIDTH 1776 0
DWIDTH 16 0
BBX 15 25 1 -5
BITMAP
0000
0000
0000
0000
0000
01E0
07F8
1998
318C
2184
6186
FFFC
FFFC
C30C
4308
C630
6660
3FC0
0F00
0000
0000
0000
0000
0000
0000
ENDCHAR
STARTCHAR char14
ENCODING 14
SWIDTH 2553 0
DWIDTH 23 0
BBX 22 25 1 -5
BITMAP
000000
000000
000000
000000
000000
000000
0781E0
0CC330
186618
303C0C
603018
603018
603018
603018
C0F030
619860
339CC0
1F0F80
000000
000000
000000
000000
000000
000000
000000
ENDCHAR
STARTCHAR char15
ENCODING 15
SWIDTH 1665 0
DWIDTH 15 0
BBX 14 25 1 -5
BITMAP
0380
00C0
0060
0070
0060
0030
0018
0018
0018
0F98
1FF8
303C
4038
C018
C018
C018
8060
C060
40C0
3F80
0000
0000
0000
0000
0000
ENDCHAR
STARTCHAR char16
ENCODING 16
SWIDTH 1887 0
DWIDTH 17 0
BBX 16 25 0 -5
BITMAP
0000
0000
0000
0000
0000
0000
07FF
0FFF
1C00
7000
6000
6000
6000
E000
7000
3FFC
1FFC
0000
0000
0000
0000
0000
0000
0000
0000
ENDCHAR
STARTCHAR char17
ENCODING 17
SWIDTH 1887 0
DWIDTH 17 0
BBX 15 25 0 -5
BITMAP
0000
0000
0000
0000
0000
0000
3FF8
3FFC
000E
000E
0006
0006
0006
001C
0038
FFF0
FFE0
0000
0000
0000
0000
0000
0000
0000
0000
ENDCHAR
STARTCHAR char18
ENCODING 18
SWIDTH 1665 0
DWIDTH 15 0
BBX 13 25 1 -5
BITMAP
0000
0000
0000
0000
0000
03E0
07F0
0E38
3838
3018
3018
3018
6030
6030
6030
6030
C060
C060
C060
C060
0000
0000
0000
0000
0000
ENDCHAR
STARTCHAR char19
ENCODING 19
SWIDTH 1665 0
DWIDTH 15 0
BBX 14 25 1 -5
BITMAP
0000
0000
0000
0000
0000
180C
180C
180C
3018
3018
3018
3018
6030
6030
6030
6030
E0E0
71C0
3F80
1F00
0000
0000
0000
0000
0000
ENDCHAR
STARTCHAR char20
ENCODING 20
SWIDTH 1776 0
DWIDTH 16 0
BBX 14 25 4 -5
BITMAP
C00C
C00C
6018
6018
C030
6060
6060
7FE0
7F80
6180
6180
3300
6600
6600
3C00
3C00
7800
3000
3000
3000
0000
0000
0000
0000
0000
ENDCHAR
STARTCHAR char21
ENCODING 21
SWIDTH 1665 0
DWIDTH 15 0
BBX 17 25 0 -5
BITMAP
0FFF80
0FFF80
000180
000180
000300
000300
000300
000300
000600
01FE00
01FE00
000600
000C00
000C00
000C00
000C00
001800
001800
FFF800
FFF800
000000
000000
000000
000000
000000
ENDCHAR
STARTCHAR char22
ENCODING 22
SWIDTH 1776 0
DWIDTH 16 0
BBX 14 25 1 -5
BITMAP
0000
0000
0000
0000
0000
01E0
0FF0
1008
3C3C
2664
C78C
C30C
C78C
4CC8
F0F0
6060
3FC0
0F00
0000
0000
0000
0000
0000
0000
0000
ENDCHAR
STARTCHAR char23
ENCODING 23
SWIDTH 1998 0
DWIDTH 18 0
BBX 16 25 1 -5
BITMAP
0000
0000
0000
0000
0000
0000
0000
0618
0C0C
300C
6006
FFFF
FFFF
C00C
6018
3030
1860
0000
0000
0000
0000
0000
0000
0000
0000
ENDCHAR
STARTCHAR char24
ENCODING 24
SWIDTH 1998 0
DWIDTH 18 0
BBX 16 25 1 -5
BITMAP
0000
0000
0000
0000
0000
0000
0200
0600
0C00
1800
6000
FFFF
FFFF
6000
6000
3000
1800
0800
0000
0000
0000
0000
0000
0000
0000
ENDCHAR
STARTCHAR char25
ENCODING 25
SWIDTH 1998 0
DWIDTH 18 0
BBX 16 25 1 -5
BITMAP
0000
0000
0000
0000
0000
0000
0010
0018
000C
0006
0006
FFFF
FFFF
0006
0018
0030
0060
0040
0000
0000
0000
0000
0000
0000
0000
ENDCHAR
STARTCHAR char26
ENCODING 26
SWIDTH 1776 0
DWIDTH 16 0
BBX 16 25 1 -5
BITMAP
0000
0000
0003
0003
0006
0006
0018
0018
0030
1FFE
3FFC
00C0
0180
3FFC
7FF8
0C00
1800
1800
6000
6000
C000
C000
0000
0000
0000
ENDCHAR
STARTCHAR char27
ENCODING 27
SWIDTH 1776 0
DWIDTH 16 0
BBX 13 25 2 -5
BITMAP
0000
0000
0080
0100
0380
0380
07C0
1DC0
38E0
7070
F078
E0E0
71C0
3B80
1F00
1C00
1C00
0800
0800
0000
0000
0000
0000
0000
0000
ENDCHAR
STARTCHAR char28
ENCODING 28
SWIDTH 1554 0
DWIDTH 14 0
BBX 15 25 0 -5
BITMAP
0000
0000
0000
0000
0006
001E
0078
01E0
0F00
3C00
3C00
0F00
0780
01E0
0078
0018
0000
0000
FFF0
FFF0
0000
0000
0000
0000
0000
ENDCHAR
STARTCHAR char29
ENCODING 29
SWIDTH 1554 0
DWIDTH 14 0
BBX 14 25 0 -5
BITMAP
0000
0000
0000
0000
1800
1E00
0780
01E0
00F0
003C
003C
00F0
0780
1E00
7800
6000
0000
0000
FFF0
FFF0
0000
0000
0000
0000
0000
ENDCHAR
STARTCHAR char30
ENCODING 30
SWIDTH 1332 0
DWIDTH 12 0
BBX 12 25 0 -5
BITMAP
0000
0000
0000
0000
0000
0000
0000
3FF0
3FF0
0000
0000
7FE0
7FE0
0000
0000
FFC0
FFC0
0000
0000
0000
0000
0000
0000
0000
0000
ENDCHAR
STARTCHAR char31
ENCODING 31
SWIDTH 1887 0
DWIDTH 17 0
BBX 15 25 3 -5
BITMAP
0000
0000
0000
0000
0000
0000
C006
C006
C018
C018
6030
6030
60C0
60C0
3180
3180
3600
3600
1C00
0800
0000
0000
0000
0000
0000
ENDCHAR
STARTCHAR char32
ENCODING 32
SWIDTH 1110 0
DWIDTH 10 0
BBX 1 25 0 -5
BITMAP
00
00
00
00
00
00
00
00
00
00
00
00
00
00
00
00
00
00
00
00
00
00
00
00
00
ENDCHAR
STARTCHAR char33
ENCODING 33
SWIDTH 777 0
DWIDTH 7 0
BBX 8 25 1 -5
BITMAP
00
06
0F
0F
1E
1E
1E
0C
18
18
18
18
30
00
00
00
60
F0
F0
60
00
00
00
00
00
ENDCHAR
STARTCHAR char34
ENCODING 34
SWIDTH 1221 0
DWIDTH 11 0
BBX 9 25 1 -5
BITMAP
7380
7380
7380
E700
E700
E700
4200
0000
0000
0000
0000
0000
0000
0000
0000
0000
0000
0000
0000
0000
0000
0000
0000
0000
0000
ENDCHAR
STARTCHAR char35
ENCODING 35
SWIDTH 1776 0
DWIDTH 16 0
BBX 15 25 1 -5
BITMAP
0000
0000
0000
0000
0000
0000
0318
0630
0630
3FFE
3FFE
0C60
0C60
0C60
7FFC
FFF8
18C0
18C0
18C0
0000
0000
0000
0000
0000
0000
ENDCHAR
STARTCHAR char36
ENCODING 36
SWIDTH 1443 0
DWIDTH 13 0
BBX 14 25 1 -5
BITMAP
0090
00F8
0738
0528
0D2C
0D2C
1A58
1E40
1F40
0FC0
0FC0
05E0
04F0
34B0
E920
E960
4960
69C0
7F00
1200
1200
1200
0000
0000
0000
ENDCHAR
STARTCHAR char37
ENCODING 37
SWIDTH 1665 0
DWIDTH 15 0
BBX 15 25 2 -5
BITMAP
0000
0006
1E0C
3F0C
6630
6630
6660
7E60
7980
0180
0300
0300
0C00
0DE0
1BF0
1B30
6660
6660
C7E0
C3C0
0000
0000
0000
0000
0000
ENDCHAR
STARTCHAR char38
ENCODING 38
SWIDTH 2109 0
DWIDTH 19 0
BBX 19 25 0 -5
BITMAP
000000
003C00
00EF00
00C700
018380
038600
038E00
01DC00
01F000
03C3E0
0FC080
1CE080
187080
70E300
707200
707200
783C00
F03800
787C00
3FCF00
0E0000
000000
000000
000000
000000
ENDCHAR
STARTCHAR char39
ENCODING 39
SWIDTH 777 0
DWIDTH 7 0
BBX 5 25 1 -5
BITMAP
00
F0
F8
D8
10
30
60
C0
00
00
00
00
00
00
00
00
00
00
00
00
00
00
00
00
00
ENDCHAR
STARTCHAR char40
ENCODING 40
SWIDTH 999 0
DWIDTH 9 0
BBX 9 25 2 -5
BITMAP
0080
0180
0300
0600
0C00
0C00
1800
3000
3000
7000
6000
C000
C000
E000
6000
C000
C000
6000
6000
6000
6000
3000
1000
0000
0000
ENDCHAR
STARTCHAR char41
ENCODING 41
SWIDTH 999 0
DWIDTH 9 0
BBX 9 25 1 -5
BITMAP
0400
0600
0300
0600
0300
0300
0180
0300
0300
0380
0180
0300
0300
0700
0600
0C00
0C00
1800
1800
6000
6000
C000
8000
0000
0000
ENDCHAR
STARTCHAR char42
ENCODING 42
SWIDTH 1443 0
DWIDTH 13 0
BBX 13 25 0 -5
BITMAP
0000
0000
0000
0000
0000
0080
01C0
0380
3938
3D78
0FE0
0700
0700
1FC0
7AF0
E4E0
0E00
0E00
0400
0000
0000
0000
0000
0000
0000
ENDCHAR
STARTCHAR char43
ENCODING 43
SWIDTH 1665 0
DWIDTH 15 0
BBX 12 25 2 -5
BITMAP
0000
0000
0000
0000
0000
0000
0300
0300
0300
0300
0600
FFF0
FFF0
0600
0C00
0C00
0C00
0C00
0000
0000
0000
0000
0000
0000
0000
ENDCHAR
STARTCHAR char44
ENCODING 44
SWIDTH 777 0
DWIDTH 7 0
BBX 5 25 0 -5
BITMAP
00
00
00
00
00
00
00
00
00
00
00
00
00
00
00
00
18
78
78
18
18
70
60
C0
80
ENDCHAR
STARTCHAR char45
ENCODING 45
SWIDTH 1443 0
DWIDTH 13 0
BBX 10 25 1 -5
BITMAP
0000
0000
0000
0000
0000
0000
0000
0000
0000
0000
0000
FFC0
FFC0
0000
0000
0000
0000
0000
0000
0000
0000
0000
0000
0000
0000
ENDCHAR
STARTCHAR char46
ENCODING 46
SWIDTH 666 0
DWIDTH 6 0
BBX 4 25 0 -5
BITMAP
00
00
00
00
00
00
00
00
00
00
00
00
00
00
00
00
00
E0
F0
E0
00
00
00
00
00
ENDCHAR
STARTCHAR char47
ENCODING 47
SWIDTH 1443 0
DWIDTH 13 0
BBX 16 25 1 -5
BITMAP
0003
000E
000C
000C
001C
0030
0030
0070
0060
00C0
01C0
0180
0180
0700
0600
0600
0E00
1800
1800
3800
3000
6000
E000
C000
C000
ENDCHAR
STARTCHAR char48
ENCODING 48
SWIDTH 1776 0
DWIDTH 16 0
BBX 15 25 1 -5
BITMAP
0000
01F0
03F8
071C
1C1C
180C
380E
3006
600C
600C
600C
600C
C018
C018
E038
6030
E0E0
71C0
3F80
1F00
0000
0000
0000
0000
0000
ENDCHAR
STARTCHAR char49
ENCODING 49
SWIDTH 1776 0
DWIDTH 16 0
BBX 9 25 3 -5
BITMAP
0000
0180
0380
0F80
0300
0300
0300
0300
0600
0600
0600
0600
0C00
0C00
0C00
0C00
1800
1800
FF00
FF00
0000
0000
0000
0000
0000
ENDCHAR
STARTCHAR char50
ENCODING 50
SWIDTH 1776 0
DWIDTH 16 0
BBX 15 25 1 -5
BITMAP
0000
00F0
03FC
078E
1C0E
1806
1806
0006
001C
0038
00F0
01E0
0700
0E00
1C00
3800
6000
E000
FFF0
FFF0
0000
0000
0000
0000
0000
ENDCHAR
STARTCHAR char51
ENCODING 51
SWIDTH 1776 0
DWIDTH 16 0
BBX 16 25 0 -5
BITMAP
0000
01FC
03FE
0707
1C07
1803
1803
0003
000E
007C
03F0
007C
001C
000C
600C
600C
E038
7070
3FE0
1FC0
0000
0000
0000
0000
0000
ENDCHAR
STARTCHAR char52
ENCODING 52
SWIDTH 1776 0
DWIDTH 16 0
BBX 15 25 1 -5
BITMAP
0000
003E
007E
0066
018C
018C
030C
030C
0C18
0C18
1818
1818
6030
7FFC
FFFC
0030
0060
0060
0060
0060
0000
0000
0000
0000
0000
ENDCHAR
STARTCHAR char53
ENCODING 53
SWIDTH 1776 0
DWIDTH 16 0
BBX 16 25 0 -5
BITMAP
0000
0FFF
0FFF
0C00
1800
1800
1800
19F8
37F8
3E1C
3C0C
3806
000C
000C
000C
000C
C038
E070
7FE0
3FC0
0000
0000
0000
0000
0000
ENDCHAR
STARTCHAR char54
ENCODING 54
SWIDTH 1776 0
DWIDTH 16 0
BBX 14 25 2 -5
BITMAP
0000
01F0
03FC
070C
0C00
1800
1800
3800
6780
6FE0
7CF0
7030
E070
C030
C030
E070
C0C0
F3C0
7F80
1E00
0000
0000
0000
0000
0000
ENDCHAR
STARTCHAR char55
ENCODING 55
SWIDTH 1776 0
DWIDTH 16 0
BBX 15 25 2 -5
BITMAP
0000
1FFE
1FFE
0006
0018
0018
0030
0030
00C0
00C0
0180
0180
0600
0600
0C00
0C00
3000
3000
6000
E000
0000
0000
0000
0000
0000
ENDCHAR
STARTCHAR char56
ENCODING 56
SWIDTH 1776 0
DWIDTH 16 0
BBX 16 25 0 -5
BITMAP
0000
00FC
03FF
0303
0C03
0C03
0C03
0606
0F3C
03F0
01E0
07F8
3C3C
300C
6006
6006
E01C
7038
7FF8
1FE0
0000
0000
0000
0000
0000
ENDCHAR
STARTCHAR char57
ENCODING 57
SWIDTH 1776 0
DWIDTH 16 0
BBX 15 25 1 -5
BITMAP
0000
00F0
03FC
079E
0C0C
1C0E
1806
1806
381C
181C
1E7C
0FEC
0798
0038
0030
0030
00E0
E1C0
7F80
1F00
0000
0000
0000
0000
0000
ENDCHAR
STARTCHAR char58
ENCODING 58
SWIDTH 777 0
DWIDTH 7 0
BBX 6 25 1 -5
BITMAP
00
00
00
00
00
00
00
00
18
3C
3C
18
00
00
00
00
60
F0
F0
60
00
00
00
00
00
ENDCHAR
STARTCHAR char59
ENCODING 59
SWIDTH 777 0
DWIDTH 7 0
BBX 7 25 0 -5
BITMAP
00
00
00
00
00
00
00
00
0C
1E
1E
0C
00
00
00
18
78
78
18
18
70
60
C0
80
00
ENDCHAR
STARTCHAR char60
ENCODING 60
SWIDTH 1554 0
DWIDTH 14 0
BBX 13 25 1 -5
BITMAP
0000
0000
0000
0000
0018
0078
01E0
0780
3C00
F000
F000
3C00
1E00
0780
01E0
0060
0000
0000
0000
0000
0000
0000
0000
0000
0000
ENDCHAR
STARTCHAR char61
ENCODING 61
SWIDTH 1776 0
DWIDTH 16 0
BBX 14 25 1 -5
BITMAP
0000
0000
0000
0000
0000
0000
0000
0000
0000
7FFC
7FFC
0000
0000
FFF8
FFF8
0000
0000
0000
0000
0000
0000
0000
0000
0000
0000
ENDCHAR
STARTCHAR char62
ENCODING 62
SWIDTH 1554 0
DWIDTH 14 0
BBX 13 25 0 -5
BITMAP
0000
0000
0000
0000
3000
3C00
0F00
03C0
01E0
0078
0078
01E0
0F00
3C00
F000
C000
0000
0000
0000
0000
0000
0000
0000
0000
0000
ENDCHAR
STARTCHAR char63
ENCODING 63
SWIDTH 1221 0
DWIDTH 11 0
BBX 10 25 2 -5
BITMAP
0000
0F80
19C0
3040
70C0
71C0
21C0
03C0
0F00
1E00
1C00
1800
2000
2000
2000
0000
0000
6000
F000
6000
0000
0000
0000
0000
0000
ENDCHAR
STARTCHAR char64
ENCODING 64
SWIDTH 2220 0
DWIDTH 20 0
BBX 20 25 1 -5
BITMAP
000000
000000
000000
000000
000000
01FF80
03FFC0
0600E0
0C0070
30F060
31F860
339C60
330C60
6618C0
6618C0
6618C0
67FF80
C7FE00
E00000
7FFF80
3FFF80
000000
000000
000000
000000
ENDCHAR
STARTCHAR char65
ENCODING 65
SWIDTH 1998 0
DWIDTH 18 0
BBX 16 25 0 -5
BITMAP
0000
001C
003C
007C
0066
00C6
0186
0186
0306
0306
0606
0606
0C06
1FFE
1FFE
3806
6006
6006
E007
C003
0000
0000
0000
0000
0000
ENDCHAR
STARTCHAR char66
ENCODING 66
SWIDTH 1887 0
DWIDTH 17 0
BBX 17 25 0 -5
BITMAP
000000
0FFC00
0FFF00
0C0F80
0C0380
180180
180180
180380
301F00
3FFE00
3FF800
301C00
600E00
600E00
600600
600600
C01C00
C03C00
FFF800
FFE000
000000
000000
000000
000000
000000
ENDCHAR
STARTCHAR char67
ENCODING 67
SWIDTH 1887 0
DWIDTH 17 0
BBX 17 25 0 -5
BITMAP
000000
00FC00
03FF00
078780
0E0180
180180
380180
300000
600000
600000
600000
600000
C00000
C00000
C00600
E00E00
601C00
707800
3FF000
0FC000
000000
000000
000000
000000
000000
ENDCHAR
STARTCHAR char68
ENCODING 68
SWIDTH 1887 0
DWIDTH 17 0
BBX 17 25 0 -5
BITMAP
000000
0FFC00
0FFE00
0C0F00
180380
180180
180180
180180
300300
300300
300300
300300
600600
600600
600600
600E00
C03C00
C0F800
FFE000
FFC000
000000
000000
000000
000000
000000
ENDCHAR
STARTCHAR char69
ENCODING 69
SWIDTH 1776 0
DWIDTH 16 0
BBX 16 25 0 -5
BITMAP
0000
0FFF
0FFF
0C00
1800
1800
1800
1800
3000
3FE0
3FE0
3000
6000
6000
6000
6000
C000
C000
FFF0
FFF0
0000
0000
0000
0000
0000
ENDCHAR
STARTCHAR char70
ENCODING 70
SWIDTH 1776 0
DWIDTH 16 0
BBX 16 25 0 -5
BITMAP
0000
0FFF
0FFF
0C00
1800
1800
1800
1800
3000
3FE0
3FE0
3000
6000
6000
6000
6000
C000
C000
C000
C000
0000
0000
0000
0000
0000
ENDCHAR
STARTCHAR char71
ENCODING 71
SWIDTH 1998 0
DWIDTH 18 0
BBX 17 25 1 -5
BITMAP
000000
03FE00
07FF00
0F0780
180380
380180
300180
300000
600000
600000
600000
607F00
C0FE00
C00600
C00600
C00E00
C03C00
F07C00
7FEC00
3FCC00
000000
000000
000000
000000
000000
ENDCHAR
STARTCHAR char72
ENCODING 72
SWIDTH 1887 0
DWIDTH 17 0
BBX 17 25 0 -5
BITMAP
000000
0C0180
0C0180
0C0180
180300
180300
180300
180300
300600
300600
3FFE00
3FFE00
600C00
600C00
600C00
600C00
C01800
C01800
C01800
C01800
000000
000000
000000
000000
000000
ENDCHAR
STARTCHAR char73
ENCODING 73
SWIDTH 1110 0
DWIDTH 10 0
BBX 10 25 0 -5
BITMAP
0000
0FC0
0FC0
0300
0600
0600
0600
0600
0C00
0C00
0C00
0C00
1800
1800
1800
1800
3000
3000
FC00
FC00
0000
0000
0000
0000
0000
ENDCHAR
STARTCHAR char74
ENCODING 74
SWIDTH 1554 0
DWIDTH 14 0
BBX 14 25 0 -5
BITMAP
0000
000C
000C
000C
0018
0018
0018
0030
0030
0030
0030
0030
0060
0060
0060
0060
C0C0
E1C0
7F80
3F00
0000
0000
0000
0000
0000
ENDCHAR
STARTCHAR char75
ENCODING 75
SWIDTH 1887 0
DWIDTH 17 0
BBX 17 25 0 -5
BITMAP
000000
0C0180
0C0380
0C0700
181C00
183800
187000
18E000
338000
370000
3F0000
3F8000
738000
61C000
60C000
606000
C06000
C06000
C03000
C03000
000000
000000
000000
000000
000000
ENDCHAR
STARTCHAR char76
ENCODING 76
SWIDTH 1443 0
DWIDTH 13 0
BBX 11 25 0 -5
BITMAP
0000
0C00
0C00
0C00
1800
1800
1800
1800
3000
3000
3000
3000
6000
6000
6000
6000
C000
C000
FFE0
FFE0
0000
0000
0000
0000
0000
ENDCHAR
STARTCHAR char77
ENCODING 77
SWIDTH 2442 0
DWIDTH 22 0
BBX 22 25 0 -5
BITMAP
000000
0C000C
0C000C
0C000C
1C0038
1C0038
1E0078
1E0078
3E01F0
3701B0
3303B0
330330
630E60
630C60
631C60
633860
C3F0C0
C1E0C0
C1E0C0
C0C0C0
000000
000000
000000
000000
000000
ENDCHAR
STARTCHAR char78
ENCODING 78
SWIDTH 1998 0
DWIDTH 18 0
BBX 18 25 0 -5
BITMAP
000000
0F00C0
0F00C0
0F00C0
1B0180
198180
198180
198180
318300
30C300
30C300
30C300
60C600
606600
606600
606600
C06C00
C03C00
C03C00
C01C00
000000
000000
000000
000000
000000
ENDCHAR
STARTCHAR char79
ENCODING 79
SWIDTH 1887 0
DWIDTH 17 0
BBX 17 25 0 -5
BITMAP
000000
00F800
03FE00
070700
0C0300
180300
380380
300180
300180
600300
600300
600300
600300
C00600
C00600
C00E00
600C00
603000
707000
3FE000
0F8000
000000
000000
000000
000000
ENDCHAR
STARTCHAR char80
ENCODING 80
SWIDTH 1776 0
DWIDTH 16 0
BBX 16 25 0 -5
BITMAP
0000
0FFE
0FFF
0C07
1803
1803
1803
1803
300E
301C
3FFC
3FF0
6000
6000
6000
6000
C000
C000
C000
C000
0000
0000
0000
0000
0000
ENDCHAR
STARTCHAR char81
ENCODING 81
SWIDTH 1887 0
DWIDTH 17 0
BBX 17 25 0 -5
BITMAP
000000
00F800
03FE00
070700
0C0300
1C0300
380380
300180
600180
600300
600300
600300
C00600
C00600
C00600
C00E00
C01C00
603800
707000
3FE000
1F0000
038000
03F000
00F000
000000
ENDCHAR
STARTCHAR char82
ENCODING 82
SWIDTH 1776 0
DWIDTH 16 0
BBX 16 25 0 -5
BITMAP
0000
0FFE
0FFF
0C07
1803
1803
1803
1803
3006
301C
3FFC
3FF0
60C0
60C0
6060
6060
C060
C030
C030
C018
0000
0000
0000
0000
0000
ENDCHAR
STARTCHAR char83
ENCODING 83
SWIDTH 1776 0
DWIDTH 16 0
BBX 16 25 0 -5
BITMAP
0000
00F0
03FC
079E
0E07
1806
1800
1800
1800
1C00
1FE0
07F8
0038
0018
0018
0018
6018
E070
79E0
3FC0
0F00
0000
0000
0000
0000
ENDCHAR
STARTCHAR char84
ENCODING 84
SWIDTH 1776 0
DWIDTH 16 0
BBX 14 25 2 -5
BITMAP
0000
FFFC
FFFC
0300
0600
0600
0600
0600
0C00
0C00
0C00
0C00
1800
1800
1800
1800
3000
3000
3000
3000
0000
0000
0000
0000
0000
ENDCHAR
STARTCHAR char85
ENCODING 85
SWIDTH 1887 0
DWIDTH 17 0
BBX 17 25 0 -5
BITMAP
000000
180180
180180
180180
300300
300300
300300
300300
600600
600600
600600
600600
C00C00
C00C00
C00C00
C00C00
C01C00
E03800
FFF000
3FC000
000000
000000
000000
000000
000000
ENDCHAR
STARTCHAR char86
ENCODING 86
SWIDTH 1887 0
DWIDTH 17 0
BBX 15 25 2 -5
BITMAP
0000
C006
C006
C00E
C00C
E01C
6018
6030
6030
6060
6060
60C0
60C0
6180
7380
3700
3600
3C00
3800
3800
0000
0000
0000
0000
0000
ENDCHAR
STARTCHAR char87
ENCODING 87
SWIDTH 2553 0
DWIDTH 23 0
BBX 21 25 2 -5
BITMAP
000000
C07018
C07018
C07018
C07038
C1F030
C1B070
C1B060
C330E0
C730C0
C631C0
CE3180
CC3380
CC3300
DC3700
D83600
F03C00
F03C00
E03800
E03800
000000
000000
000000
000000
000000
ENDCHAR
STARTCHAR char88
ENCODING 88
SWIDTH 1887 0
DWIDTH 17 0
BBX 17 25 0 -5
BITMAP
000000
0C0180
0C0180
0E0380
060300
060E00
070C00
033800
03F000
03E000
01C000
03C000
03E000
0E6000
1C7000
183000
703000
E03800
C01800
C01800
000000
000000
000000
000000
000000
ENDCHAR
STARTCHAR char89
ENCODING 89
SWIDTH 1776 0
DWIDTH 16 0
BBX 14 25 2 -5
BITMAP
0000
C00C
C00C
E01C
E038
6060
71C0
3380
3F00
3F00
1E00
1C00
1800
1800
1800
1800
3000
3000
3000
3000
0000
0000
0000
0000
0000
ENDCHAR
STARTCHAR char90
ENCODING 90
SWIDTH 1776 0
DWIDTH 16 0
BBX 16 25 0 -5
BITMAP
0000
0FFF
0FFF
0006
000E
0018
0038
0060
00E0
00C0
0180
0380
0600
0E00
0C00
1C00
3000
7000
FFF0
FFF0
0000
0000
0000
0000
0000
ENDCHAR
STARTCHAR char91
ENCODING 91
SWIDTH 1110 0
DWIDTH 10 0
BBX 13 25 1 -5
BITMAP
03F8
07F0
0600
0600
0600
0C00
0C00
0C00
0C00
1800
1800
1800
1800
3000
3000
3000
3000
6000
6000
6000
6000
C000
C000
FE00
FE00
ENDCHAR
STARTCHAR char92
ENCODING 92
SWIDTH 1443 0
DWIDTH 13 0
BBX 5 25 6 -5
BITMAP
60
E0
60
60
70
60
60
70
30
60
70
30
30
70
30
30
38
30
30
38
18
30
38
18
18
ENDCHAR
STARTCHAR char93
ENCODING 93
SWIDTH 1110 0
DWIDTH 10 0
BBX 13 25 1 -5
BITMAP
03F8
07F0
0030
0030
0030
0060
0060
0060
0060
00C0
00C0
00C0
00C0
0180
0180
0180
0180
0300
0300
0300
0300
0600
0600
FE00
FE00
ENDCHAR
STARTCHAR char94
ENCODING 94
SWIDTH 1554 0
DWIDTH 14 0
BBX 12 25 0 -5
BITMAP
0300
0780
1980
30C0
6060
C030
0000
0000
0000
0000
0000
0000
0000
0000
0000
0000
0000
0000
0000
0000
0000
0000
0000
0000
0000
ENDCHAR
STARTCHAR char95
ENCODING 95
SWIDTH 1776 0
DWIDTH 16 0
BBX 16 25 0 -5
BITMAP
0000
0000
0000
0000
0000
0000
0000
0000
0000
0000
0000
0000
0000
0000
0000
0000
0000
0000
0000
0000
0000
FFFF
FFFF
0000
0000
ENDCHAR
STARTCHAR char96
ENCODING 96
SWIDTH 777 0
DWIDTH 7 0
BBX 6 25 0 -5
BITMAP
00
38
7C
78
40
C0
60
30
18
00
00
00
00
00
00
00
00
00
00
00
00
00
00
00
00
ENDCHAR
STARTCHAR char97
ENCODING 97
SWIDTH 1554 0
DWIDTH 14 0
BBX 12 25 1 -5
BITMAP
0000
0000
0000
0000
0000
0000
0000
03E0
1FE0
1870
3030
0030
07E0
1FE0
7C60
7060
C0C0
E3C0
FEC0
3CC0
0000
0000
0000
0000
0000
ENDCHAR
STARTCHAR char98
ENCODING 98
SWIDTH 1776 0
DWIDTH 16 0
BBX 14 25 1 -5
BITMAP
0000
0C00
0C00
0C00
1800
1800
1800
19F0
37F0
3C38
3818
301C
6018
6018
6018
6038
E060
F0E0
DFC0
CF80
0000
0000
0000
0000
0000
ENDCHAR
STARTCHAR char99
ENCODING 99
SWIDTH 1443 0
DWIDTH 13 0
BBX 11 25 1 -5
BITMAP
0000
0000
0000
0000
0000
0000
0000
07C0
1FC0
3860
3020
7000
C000
C000
C000
E000
C080
E180
7F00
3E00
0000
0000
0000
0000
0000
ENDCHAR
STARTCHAR char100
ENCODING 100
SWIDTH 1665 0
DWIDTH 15 0
BBX 15 25 0 -5
BITMAP
0000
0006
0006
0006
000C
000C
000C
07CC
1FF8
3878
3038
7018
C030
C030
C030
E030
C0E0
E1E0
7FE0
3E60
0000
0000
0000
0000
0000
ENDCHAR
STARTCHAR char101
ENCODING 101
SWIDTH 1665 0
DWIDTH 15 0
BBX 14 25 0 -5
BITMAP
0000
0000
0000
0000
0000
0000
0000
03F0
0FF0
1C38
3818
300C
7FF8
7FF8
6000
C000
C030
F0E0
7FC0
1F80
0000
0000
0000
0000
0000
ENDCHAR
STARTCHAR char102
ENCODING 102
SWIDTH 1110 0
DWIDTH 10 0
BBX 9 25 1 -5
BITMAP
0000
0380
0780
0600
1800
1800
1800
7F00
FE00
3000
3000
3000
6000
6000
6000
6000
C000
C000
C000
C000
0000
0000
0000
0000
0000
ENDCHAR
STARTCHAR char103
ENCODING 103
SWIDTH 1665 0
DWIDTH 15 0
BBX 15 25 0 -5
BITMAP
0000
0000
0000
0000
0000
0000
0000
03EE
0FFC
3860
3030
3030
3030
30E0
3FC0
1F80
7000
4000
3FE0
E7F0
C030
C030
C0E0
FFC0
7F00
ENDCHAR
STARTCHAR char104
ENCODING 104
SWIDTH 1665 0
DWIDTH 15 0
BBX 13 25 0 -5
BITMAP
0000
0C00
0C00
0C00
1800
1800
1800
19F0
37F0
3C38
3818
3018
6030
6030
6030
6030
C060
C060
C060
C060
0000
0000
0000
0000
0000
ENDCHAR
STARTCHAR char105
ENCODING 105
SWIDTH 777 0
DWIDTH 7 0
BBX 6 25 0 -5
BITMAP
00
0C
0C
0C
00
00
00
18
30
30
30
30
60
60
60
60
C0
C0
C0
C0
00
00
00
00
00
ENDCHAR
STARTCHAR char106
ENCODING 106
SWIDTH 1110 0
DWIDTH 10 0
BBX 10 25 0 -5
BITMAP
0000
00C0
00C0
00C0
0000
0000
0000
0180
0180
0300
0300
0300
0300
0600
0600
0600
0600
0C00
0C00
0C00
0C00
1800
3800
F000
E000
ENDCHAR
STARTCHAR char107
ENCODING 107
SWIDTH 1554 0
DWIDTH 14 0
BBX 12 25 1 -5
BITMAP
0000
0000
0C00
0C00
1800
1800
1800
1870
31C0
3180
3300
3700
7E00
7B00
7180
61C0
C1C0
C0C0
C0E0
C060
0000
0000
0000
0000
0000
ENDCHAR
STARTCHAR char108
ENCODING 108
SWIDTH 777 0
DWIDTH 7 0
BBX 6 25 0 -5
BITMAP
00
0C
0C
0C
18
18
18
18
30
30
30
30
60
60
60
60
C0
C0
C0
C0
00
00
00
00
00
ENDCHAR
STARTCHAR char109
ENCODING 109
SWIDTH 2220 0
DWIDTH 20 0
BBX 18 25 1 -5
BITMAP
000000
000000
000000
000000
000000
000000
000000
18C180
378F00
36CD80
3C78C0
3870C0
60C180
60C180
60C180
60C180
C18300
C18300
C18300
C18300
000000
000000
000000
000000
000000
ENDCHAR
STARTCHAR char110
ENCODING 110
SWIDTH 1665 0
DWIDTH 15 0
BBX 13 25 1 -5
BITMAP
0000
0000
0000
0000
0000
0000
0000
18F0
37F0
3670
3C38
3818
6030
6030
6030
6030
C060
C060
C060
C060
0000
0000
0000
0000
0000
ENDCHAR
STARTCHAR char111
ENCODING 111
SWIDTH 1665 0
DWIDTH 15 0
BBX 14 25 0 -5
BITMAP
0000
0000
0000
0000
0000
0000
01E0
07F8
1E78
1818
381C
300C
6018
6018
6018
7038
E070
79E0
3FC0
0F00
0000
0000
0000
0000
0000
ENDCHAR
STARTCHAR char112
ENCODING 112
SWIDTH 1776 0
DWIDTH 16 0
BBX 15 25 0 -5
BITMAP
0000
0000
0000
0000
0000
0000
0000
0CF0
0FFC
1F3C
1C0C
1C0E
1806
300C
300C
381C
381C
7CF0
7FE0
6780
6000
C000
C000
C000
C000
ENDCHAR
STARTCHAR char113
ENCODING 113
SWIDTH 1665 0
DWIDTH 15 0
BBX 14 25 1 -5
BITMAP
0000
0000
0000
0000
0000
0000
0000
03CC
0FFC
3CF8
3038
7038
6018
C030
C030
E070
E070
F3E0
7FE0
1E60
0060
00C0
00C0
00C0
00C0
ENDCHAR
STARTCHAR char114
ENCODING 114
SWIDTH 1332 0
DWIDTH 12 0
BBX 11 25 0 -5
BITMAP
0000
0000
0000
0000
0000
0000
0000
18E0
37C0
3700
3C00
3800
6000
6000
6000
6000
C000
C000
C000
C000
0000
0000
0000
0000
0000
ENDCHAR
STARTCHAR char115
ENCODING 115
SWIDTH 1443 0
DWIDTH 13 0
BBX 12 25 0 -5
BITMAP
0000
0000
0000
0000
0000
0000
0000
03C0
1FE0
1870
3000
3800
7C00
1F80
01C0
0060
80C0
E1C0
7F80
1E00
0000
0000
0000
0000
0000
ENDCHAR
STARTCHAR char116
ENCODING 116
SWIDTH 1110 0
DWIDTH 10 0
BBX 8 25 1 -5
BITMAP
00
0C
0C
0C
18
18
7F
7F
30
30
30
30
60
60
60
60
C0
E0
E0
78
00
00
00
00
00
ENDCHAR
STARTCHAR char117
ENCODING 117
SWIDTH 1665 0
DWIDTH 15 0
BBX 14 25 0 -5
BITMAP
0000
0000
0000
0000
0000
0000
0000
180C
3018
3018
3018
3018
6030
6030
6030
6030
C060
E0E0
7FE0
3F60
0000
0000
0000
0000
0000
ENDCHAR
STARTCHAR char118
ENCODING 118
SWIDTH 1665 0
DWIDTH 15 0
BBX 13 25 1 -5
BITMAP
0000
0000
0000
0000
0000
0000
0000
6018
C030
C030
6060
60E0
6180
6180
3300
3300
2600
3C00
1800
1800
0000
0000
0000
0000
0000
ENDCHAR
STARTCHAR char119
ENCODING 119
SWIDTH 2331 0
DWIDTH 21 0
BBX 18 25 2 -5
BITMAP
000000
000000
000000
000000
000000
000000
000000
C0C0C0
C18380
C18300
C18300
C38600
C78C00
C6CC00
6CD800
6CD800
6CD800
78F000
70E000
30C000
000000
000000
000000
000000
000000
ENDCHAR
STARTCHAR char120
ENCODING 120
SWIDTH 1554 0
DWIDTH 14 0
BBX 14 25 0 -5
BITMAP
0000
0000
0000
0000
0000
0000
0000
180C
1838
1830
0C60
0EE0
0D80
0700
0700
0D80
3980
3180
60C0
E0E0
0000
0000
0000
0000
0000
ENDCHAR
STARTCHAR char121
ENCODING 121
SWIDTH 1887 0
DWIDTH 17 0
BBX 16 25 1 -5
BITMAP
0000
0000
0000
0000
0000
0000
0000
1803
1803
180C
180C
0C18
0C18
0C60
0C60
06C0
06C0
0700
0700
0600
0600
1800
3800
F000
E000
ENDCHAR
STARTCHAR char122
ENCODING 122
SWIDTH 1554 0
DWIDTH 14 0
BBX 14 25 0 -5
BITMAP
0000
0000
0000
0000
0000
0000
0000
1FFC
3FF8
0038
0070
00E0
0380
0700
0E00
1C00
7000
E000
FFE0
FFE0
0000
0000
0000
0000
0000
ENDCHAR
STARTCHAR char123
ENCODING 123
SWIDTH 1221 0
DWIDTH 11 0
BBX 12 25 3 -5
BITMAP
00F0
0380
0600
0600
0600
0E00
0600
0600
0600
0800
1000
3000
7000
6000
2000
1000
1800
3000
3000
7000
6000
C000
C000
7000
3C00
ENDCHAR
STARTCHAR char124
ENCODING 124
SWIDTH 999 0
DWIDTH 9 0
BBX 8 25 2 -5
BITMAP
03
06
06
06
06
0C
0C
0C
0C
18
18
18
18
30
30
30
30
60
60
60
60
C0
C0
C0
C0
ENDCHAR
STARTCHAR char125
ENCODING 125
SWIDTH 1221 0
DWIDTH 11 0
BBX 11 25 1 -5
BITMAP
03C0
01C0
0060
0060
0060
01C0
0180
0180
0180
0100
0080
00C0
00E0
0180
0100
0200
0600
0C00
0C00
0E00
0600
0C00
0C00
3800
F000
ENDCHAR
STARTCHAR char126
ENCODING 126
SWIDTH 1776 0
DWIDTH 16 0
BBX 15 25 0 -5
BITMAP
0000
0000
0000
0000
0000
0000
0000
0000
0E02
1F02
3F86
6798
C3F8
81F0
80E0
0000
0000
0000
0000
0000
0000
0000
0000
0000
0000
ENDCHAR
STARTCHAR char127
ENCODING 127
SWIDTH 1776 0
DWIDTH 16 0
BBX 19 25 0 -5
BITMAP
0001E0
0007E0
000E60
000E60
000C00
001800
001800
003800
003000
006000
006000
006000
006000
01C000
018000
018000
018000
030000
030000
030000
660000
CC0000
CC0000
7C0000
380000
ENDCHAR
ENDFONT
