STARTFONT 2.1
FONT -MIT-25VGB KST-Medium-R-Normal--25-9-200-200-P-14-ISO8859-1
SIZE 9 200 200
FONTBOUNDINGBOX 21 25 -3 -5
STARTPROPERTIES 17
ADD_STYLE_NAME ""
AVERAGE_WIDTH 14
CHARSET_ENCODING "1"
CHARSET_REGISTRY "ISO8859"
DEFAULT_CHAR 0
FAMILY "25VGB KST"
FONT_ASCENT 20
FONT_DESCENT 5
FOUNDRY "MIT"
PIXEL_SIZE 25
POINT_SIZE 9
RESOLUTION_X 200
RESOLUTION_Y 200
SETWIDTH_NAME "Normal"
SLANT "R"
SPACING "P"
WEIGHT_NAME "Medium"
ENDPROPERTIES
CHARS 121
STARTCHAR char1
ENCODING 1
SWIDTH 1665 0
DWIDTH 15 0
BBX 13 25 0 -5
BITMAP
0700
0700
0700
0700
0700
0700
0700
0700
0700
0700
0700
0700
0700
C718
E738
7770
3FE0
1FC0
0F80
0700
0000
0000
0000
0000
0000
ENDCHAR
STARTCHAR char2
ENCODING 2
SWIDTH 2442 0
DWIDTH 22 0
BBX 20 25 0 -5
BITMAP
000000
000000
000000
000000
000000
000000
000060
0000E0
0001C0
000380
1E0780
3F0F00
7FDE00
F1FC00
E0F800
E0F000
F1F800
7FDE70
3F8FE0
1E07C0
000000
000000
000000
000000
000000
ENDCHAR
STARTCHAR char3
ENCODING 3
SWIDTH 2220 0
DWIDTH 20 0
BBX 18 25 0 -5
BITMAP
000000
000F00
001F80
003FC0
0079C0
00F1C0
00E380
01C780
01C700
038E00
039C00
071E00
071F00
0E0F80
0E0780
1C0380
1DC780
39FF80
39FF00
30FE00
700000
700000
600000
600000
E00000
ENDCHAR
STARTCHAR char4
ENCODING 4
SWIDTH 1887 0
DWIDTH 17 0
BBX 15 25 0 -5
BITMAP
0000
0000
0000
0000
0000
0100
0380
07C0
07C0
0EE0
0EE0
1C70
1C70
3838
3838
701C
701C
E00E
E00E
0000
0000
0000
0000
0000
0000
ENDCHAR
STARTCHAR char5
ENCODING 5
SWIDTH 1332 0
DWIDTH 12 0
BBX 10 25 0 -5
BITMAP
0000
0000
0000
0000
0000
0000
0000
0000
0000
0000
FFC0
FFC0
FFC0
01C0
01C0
01C0
0000
0000
0000
0000
0000
0000
0000
0000
0000
ENDCHAR
STARTCHAR char6
ENCODING 6
SWIDTH 1332 0
DWIDTH 12 0
BBX 9 25 0 -5
BITMAP
0000
0000
0000
0380
0780
0E00
1C00
3800
7000
7000
FF80
FF80
F000
7000
7800
3C00
1E00
0F80
0380
0000
0000
0000
0000
0000
0000
ENDCHAR
STARTCHAR char7
ENCODING 7
SWIDTH 1776 0
DWIDTH 16 0
BBX 14 25 0 -5
BITMAP
0000
0000
0000
0000
0000
0000
0000
FFC0
FFF8
FFFC
38E0
38E0
38E0
38E0
38E0
38E0
38E0
38E0
F8E0
F8FC
007C
0000
0000
0000
0000
ENDCHAR
STARTCHAR char8
ENCODING 8
SWIDTH 1665 0
DWIDTH 15 0
BBX 13 25 0 -5
BITMAP
0000
0000
C000
F000
7800
7800
1C00
0C00
0E00
0600
0600
0F00
1F00
3B80
3380
71C0
E1C0
E0E0
C078
0038
0000
0000
0000
0000
0000
ENDCHAR
STARTCHAR char11
ENCODING 11
SWIDTH 1443 0
DWIDTH 13 0
BBX 11 25 0 -5
BITMAP
0000
0E00
1F00
3F80
7FC0
EEE0
CE60
0E00
0E00
0E00
0E00
0E00
0E00
0E00
0E00
0E00
0E00
0E00
0E00
0E00
0000
0000
0000
0000
0000
ENDCHAR
STARTCHAR char14
ENCODING 14
SWIDTH 2553 0
DWIDTH 23 0
BBX 21 25 0 -5
BITMAP
000000
000000
000000
000000
000000
000000
1F07C0
3F8FE0
7FDFF0
F1FC78
E0F838
E07038
E07038
E0F838
F1FC78
7FDFF0
3FDFE0
1F07C0
000000
000000
000000
000000
000000
000000
000000
ENDCHAR
STARTCHAR char15
ENCODING 15
SWIDTH 1665 0
DWIDTH 15 0
BBX 13 25 0 -5
BITMAP
1C00
1E00
0F00
0780
03C0
01E0
00F0
0070
0078
1F38
3FF8
7FF8
7078
E038
E038
E038
7078
7FF0
3FE0
1FC0
0000
0000
0000
0000
0000
ENDCHAR
STARTCHAR char16
ENCODING 16
SWIDTH 1998 0
DWIDTH 18 0
BBX 15 25 1 -5
BITMAP
0000
0000
0000
0000
0000
0000
1FFE
3FFE
7FFE
F000
E000
E000
E000
F000
7FFE
3FFE
1FFE
0000
0000
0000
0000
0000
0000
0000
0000
ENDCHAR
STARTCHAR char17
ENCODING 17
SWIDTH 1998 0
DWIDTH 18 0
BBX 15 25 1 -5
BITMAP
0000
0000
0000
0000
0000
0000
FFF0
FFF8
FFFC
001E
000E
000E
000E
001E
FFFC
FFF8
FFF0
0000
0000
0000
0000
0000
0000
0000
0000
ENDCHAR
STARTCHAR char18
ENCODING 18
SWIDTH 1665 0
DWIDTH 15 0
BBX 12 25 1 -5
BITMAP
0000
1F80
3FC0
7FE0
F9F0
F0F0
E070
E070
E070
E070
E070
E070
E070
E070
E070
E070
E070
E070
E070
E070
0000
0000
0000
0000
0000
ENDCHAR
STARTCHAR char19
ENCODING 19
SWIDTH 1665 0
DWIDTH 15 0
BBX 12 25 1 -5
BITMAP
0000
E070
E070
E070
E070
E070
E070
E070
E070
E070
E070
E070
E070
E070
E070
F0F0
F9F0
7FE0
3FC0
1F80
0000
0000
0000
0000
0000
ENDCHAR
STARTCHAR char20
ENCODING 20
SWIDTH 1887 0
DWIDTH 17 0
BBX 15 25 0 -5
BITMAP
0000
E00E
E00E
701C
701C
3018
3FF8
3FF8
1830
1830
1C70
0C60
0C60
0EE0
06C0
06C0
07C0
0380
0380
0100
0000
0000
0000
0000
0000
ENDCHAR
STARTCHAR char21
ENCODING 21
SWIDTH 1665 0
DWIDTH 15 0
BBX 13 25 0 -5
BITMAP
0000
FFF8
FFF8
FFF8
0038
0038
0038
0038
0038
03F8
03F8
03F8
0038
0038
0038
0038
0038
FFF8
FFF8
FFF8
0000
0000
0000
0000
0000
ENDCHAR
STARTCHAR char22
ENCODING 22
SWIDTH 1998 0
DWIDTH 18 0
BBX 16 25 0 -5
BITMAP
0000
0000
0000
0000
0FF0
1FF8
3C3C
781E
FC3F
EE77
C7E3
C3C3
C3C3
C7E3
EE77
FC3F
781E
3C3C
1FF8
0FF0
0000
0000
0000
0000
0000
ENDCHAR
STARTCHAR char23
ENCODING 23
SWIDTH 1887 0
DWIDTH 17 0
BBX 15 25 0 -5
BITMAP
0000
0000
0000
0000
0000
0000
0000
0C60
1C70
3838
701C
FFFE
FFFE
FFFE
701C
3838
1C70
0C60
0000
0000
0000
0000
0000
0000
0000
ENDCHAR
STARTCHAR char24
ENCODING 24
SWIDTH 1998 0
DWIDTH 18 0
BBX 15 25 0 -5
BITMAP
0000
0000
0000
0000
0000
0C00
1C00
3800
7000
FFFE
FFFE
FFFE
7000
3800
1C00
0C00
0000
0000
0000
0000
0000
0000
0000
0000
0000
ENDCHAR
STARTCHAR char25
ENCODING 25
SWIDTH 2442 0
DWIDTH 22 0
BBX 20 25 0 -5
BITMAP
000000
000000
000000
000000
000000
000600
000700
000380
0001C0
0000E0
FFFFF0
FFFFF0
FFFFF0
0000E0
0001C0
000380
000700
000600
000000
000000
000000
000000
000000
000000
000000
ENDCHAR
STARTCHAR char26
ENCODING 26
SWIDTH 1665 0
DWIDTH 15 0
BBX 13 25 0 -5
BITMAP
0000
0038
0038
0078
0070
00F0
00E0
01E0
01C0
3FF0
3FF0
3FF0
0700
3FF0
3FF0
3FF0
1C00
1C00
3800
3800
7000
7000
E000
E000
0000
ENDCHAR
STARTCHAR char27
ENCODING 27
SWIDTH 1776 0
DWIDTH 16 0
BBX 14 25 0 -5
BITMAP
0000
0000
0000
0000
0000
0000
0000
0000
1C0C
3E0C
7F1C
7FB8
F7F8
E3F0
C1E0
0000
0000
0000
0000
0000
0000
0000
0000
0000
0000
ENDCHAR
STARTCHAR char28
ENCODING 28
SWIDTH 1332 0
DWIDTH 12 0
BBX 10 25 0 -5
BITMAP
0000
00C0
01C0
03C0
0780
0F00
1E00
3C00
7800
F000
7800
3C00
1E00
0F00
0780
03C0
01C0
00C0
0000
0000
FFC0
FFC0
FFC0
0000
0000
ENDCHAR
STARTCHAR char29
ENCODING 29
SWIDTH 1332 0
DWIDTH 12 0
BBX 10 25 0 -5
BITMAP
0000
C000
E000
F000
7800
3C00
1E00
0F00
0780
03C0
0780
0F00
1E00
3C00
7800
F000
E000
C000
0000
0000
FFC0
FFC0
FFC0
0000
0000
ENDCHAR
STARTCHAR char30
ENCODING 30
SWIDTH 1332 0
DWIDTH 12 0
BBX 10 25 0 -5
BITMAP
0000
0000
0000
0000
0000
0000
FFC0
FFC0
0000
0000
FFC0
FFC0
0000
0000
FFC0
FFC0
0000
0000
0000
0000
0000
0000
0000
0000
0000
ENDCHAR
STARTCHAR char31
ENCODING 31
SWIDTH 1887 0
DWIDTH 17 0
BBX 15 25 0 -5
BITMAP
0000
0000
0000
0000
0000
0000
E00E
E00E
701C
701C
3838
3838
1C70
1C70
0EE0
0EE0
07C0
07C0
0380
0100
0000
0000
0000
0000
0000
ENDCHAR
STARTCHAR char32
ENCODING 32
SWIDTH 1110 0
DWIDTH 10 0
BBX 1 25 0 -5
BITMAP
00
00
00
00
00
00
00
00
00
00
00
00
00
00
00
00
00
00
00
00
00
00
00
00
00
ENDCHAR
STARTCHAR char33
ENCODING 33
SWIDTH 888 0
DWIDTH 8 0
BBX 4 25 2 -5
BITMAP
00
F0
F0
F0
F0
F0
F0
F0
F0
F0
F0
F0
F0
60
00
00
F0
F0
F0
F0
00
00
00
00
00
ENDCHAR
STARTCHAR char34
ENCODING 34
SWIDTH 1443 0
DWIDTH 13 0
BBX 10 25 1 -5
BITMAP
F3C0
F3C0
F3C0
F3C0
F3C0
F3C0
6180
0000
0000
0000
0000
0000
0000
0000
0000
0000
0000
0000
0000
0000
0000
0000
0000
0000
0000
ENDCHAR
STARTCHAR char35
ENCODING 35
SWIDTH 1554 0
DWIDTH 14 0
BBX 12 25 0 -5
BITMAP
0000
0000
0000
0000
39C0
39C0
39C0
FFF0
FFF0
FFF0
39C0
39C0
FFF0
FFF0
FFF0
39C0
39C0
0000
0000
0000
0000
0000
0000
0000
0000
ENDCHAR
STARTCHAR char36
ENCODING 36
SWIDTH 1443 0
DWIDTH 13 0
BBX 11 25 0 -5
BITMAP
0D80
0D80
0F80
3FC0
7FE0
7DE0
6DE0
6DE0
7D80
7D80
7F80
3F80
1FC0
0FE0
6DE0
6DE0
FDE0
7DE0
7FE0
3FC0
0F80
0D80
0D80
0000
0000
ENDCHAR
STARTCHAR char37
ENCODING 37
SWIDTH 1665 0
DWIDTH 15 0
BBX 13 25 0 -5
BITMAP
0000
03F8
07F0
7E70
FCE0
D8E0
F9C0
71C0
0380
0380
0700
0700
0E00
0E00
1C00
1C70
38F8
38D8
30F8
3070
0000
0000
0000
0000
0000
ENDCHAR
STARTCHAR char38
ENCODING 38
SWIDTH 2109 0
DWIDTH 19 0
BBX 17 25 0 -5
BITMAP
000000
03C000
0FF000
0EF800
1C7800
1C7800
1EF000
0FE000
0FC000
0F9F80
3F1F80
7F8600
7BC600
F1CE00
F1EC00
F0EC00
F8F800
F8FC00
7FFF00
3FCF00
0F8000
000000
000000
000000
000000
ENDCHAR
STARTCHAR char39
ENCODING 39
SWIDTH 777 0
DWIDTH 7 0
BBX 4 25 1 -5
BITMAP
F0
F0
F0
F0
70
70
60
E0
C0
00
00
00
00
00
00
00
00
00
00
00
00
00
00
00
00
ENDCHAR
STARTCHAR char40
ENCODING 40
SWIDTH 1110 0
DWIDTH 10 0
BBX 6 25 2 -5
BITMAP
0C
1C
3C
38
78
70
70
F0
E0
E0
E0
E0
E0
E0
E0
F0
70
78
78
3C
3C
1C
0C
00
00
ENDCHAR
STARTCHAR char41
ENCODING 41
SWIDTH 1110 0
DWIDTH 10 0
BBX 6 25 2 -5
BITMAP
C0
E0
F0
F0
78
78
38
3C
1C
1C
1C
1C
1C
1C
1C
3C
38
38
78
70
F0
E0
C0
00
00
ENDCHAR
STARTCHAR char42
ENCODING 42
SWIDTH 1887 0
DWIDTH 17 0
BBX 14 25 1 -5
BITMAP
0000
0000
0000
0000
0780
0780
E79C
F33C
F33C
7FF8
1FE0
0FC0
1FE0
7FF8
F33C
F33C
E79C
0780
0780
0000
0000
0000
0000
0000
0000
ENDCHAR
STARTCHAR char43
ENCODING 43
SWIDTH 1332 0
DWIDTH 12 0
BBX 9 25 1 -5
BITMAP
0000
0000
0000
0000
0000
0000
0000
1C00
1C00
1C00
FF80
FF80
FF80
1C00
1C00
1C00
0000
0000
0000
0000
0000
0000
0000
0000
0000
ENDCHAR
STARTCHAR char44
ENCODING 44
SWIDTH 777 0
DWIDTH 7 0
BBX 4 25 1 -5
BITMAP
00
00
00
00
00
00
00
00
00
00
00
00
00
00
00
00
F0
F0
F0
F0
70
70
60
E0
C0
ENDCHAR
STARTCHAR char45
ENCODING 45
SWIDTH 1443 0
DWIDTH 13 0
BBX 10 25 1 -5
BITMAP
0000
0000
0000
0000
0000
0000
0000
0000
0000
FFC0
FFC0
FFC0
FFC0
0000
0000
0000
0000
0000
0000
0000
0000
0000
0000
0000
0000
ENDCHAR
STARTCHAR char46
ENCODING 46
SWIDTH 666 0
DWIDTH 6 0
BBX 3 25 1 -5
BITMAP
00
00
00
00
00
00
00
00
00
00
00
00
00
00
00
00
00
E0
E0
E0
00
00
00
00
00
ENDCHAR
STARTCHAR char47
ENCODING 47
SWIDTH 1554 0
DWIDTH 14 0
BBX 11 25 1 -5
BITMAP
00E0
01E0
01C0
01C0
03C0
0380
0380
0780
0700
0700
0F00
0E00
0E00
1E00
1C00
1C00
3C00
3800
3800
7800
7000
7000
F000
E000
E000
ENDCHAR
STARTCHAR char48
ENCODING 48
SWIDTH 1776 0
DWIDTH 16 0
BBX 13 25 0 -5
BITMAP
0000
0F80
1FC0
3FE0
7DF0
78F0
F078
E038
E038
E038
E038
E038
E038
E038
F078
78F0
7DF0
3FE0
1FC0
0F80
0000
0000
0000
0000
0000
ENDCHAR
STARTCHAR char49
ENCODING 49
SWIDTH 1776 0
DWIDTH 16 0
BBX 7 25 3 -5
BITMAP
00
38
78
F8
38
38
38
38
38
38
38
38
38
38
38
38
38
38
FE
FE
00
00
00
00
00
ENDCHAR
STARTCHAR char50
ENCODING 50
SWIDTH 1776 0
DWIDTH 16 0
BBX 12 25 1 -5
BITMAP
0000
0F00
3FC0
7FE0
F0F0
E070
E070
0070
00F0
01E0
03C0
0780
0F00
1E00
3C00
7800
7000
FFF0
FFF0
FFF0
0000
0000
0000
0000
0000
ENDCHAR
STARTCHAR char51
ENCODING 51
SWIDTH 1776 0
DWIDTH 16 0
BBX 13 25 0 -5
BITMAP
0000
1FC0
3FE0
7FF0
F078
E038
0038
0078
00F0
07E0
07C0
07E0
00F0
0078
0038
E038
F078
7FF0
3FE0
1FC0
0000
0000
0000
0000
0000
ENDCHAR
STARTCHAR char52
ENCODING 52
SWIDTH 1776 0
DWIDTH 16 0
BBX 14 25 0 -5
BITMAP
0000
01F0
03F0
03F0
07F0
0770
0F70
0E70
1E70
1C70
3C70
3870
7FFC
7FFC
FFFC
0070
0070
0070
0070
0070
0000
0000
0000
0000
0000
ENDCHAR
STARTCHAR char53
ENCODING 53
SWIDTH 1776 0
DWIDTH 16 0
BBX 12 25 1 -5
BITMAP
0000
FFE0
FFE0
FFE0
E000
E000
E000
EF80
FFC0
FFE0
F8E0
E070
0070
0070
0070
0070
E0F0
FFE0
7FC0
3F80
0000
0000
0000
0000
0000
ENDCHAR
STARTCHAR char54
ENCODING 54
SWIDTH 1776 0
DWIDTH 16 0
BBX 13 25 0 -5
BITMAP
0000
0FC0
1FF0
3FF0
3C70
7800
7000
F000
E780
EFE0
FFF0
FCF0
F878
F038
F038
F878
7CF0
7FF0
3FE0
0FC0
0000
0000
0000
0000
0000
ENDCHAR
STARTCHAR char55
ENCODING 55
SWIDTH 1776 0
DWIDTH 16 0
BBX 12 25 0 -5
BITMAP
0000
FFF0
FFF0
FFF0
00E0
00E0
01C0
01C0
0380
0380
0700
0700
0E00
0E00
1C00
1C00
3800
3800
7000
7000
0000
0000
0000
0000
0000
ENDCHAR
STARTCHAR char56
ENCODING 56
SWIDTH 1776 0
DWIDTH 16 0
BBX 13 25 0 -5
BITMAP
0000
0F80
3FE0
3FE0
78F0
7070
7070
38E0
3FE0
1FC0
0F80
1FC0
7FF0
78F0
F078
E038
F078
78F0
7FF0
1FC0
0000
0000
0000
0000
0000
ENDCHAR
STARTCHAR char57
ENCODING 57
SWIDTH 1776 0
DWIDTH 16 0
BBX 12 25 1 -5
BITMAP
0000
1F80
3FC0
7FE0
70E0
E070
E070
E070
E070
70F0
7FF0
3FF0
0F70
0070
00F0
00E0
F1E0
FFC0
7F80
1F00
0000
0000
0000
0000
0000
ENDCHAR
STARTCHAR char58
ENCODING 58
SWIDTH 999 0
DWIDTH 9 0
BBX 6 25 1 -5
BITMAP
00
00
00
00
00
00
00
30
78
FC
FC
78
00
00
00
30
78
FC
FC
78
00
00
00
00
00
ENDCHAR
STARTCHAR char59
ENCODING 59
SWIDTH 999 0
DWIDTH 9 0
BBX 6 25 1 -5
BITMAP
00
00
00
00
00
00
00
00
30
78
FC
FC
78
00
00
00
38
FC
FC
CC
0C
1C
38
70
60
ENDCHAR
STARTCHAR char60
ENCODING 60
SWIDTH 1332 0
DWIDTH 12 0
BBX 10 25 0 -5
BITMAP
0000
0000
0000
00C0
01C0
0380
0700
0E00
1C00
3800
7000
E000
7000
3800
1C00
0E00
0700
0380
01C0
00C0
0000
0000
0000
0000
0000
ENDCHAR
STARTCHAR char61
ENCODING 61
SWIDTH 1332 0
DWIDTH 12 0
BBX 10 25 0 -5
BITMAP
0000
0000
0000
0000
0000
0000
0000
0000
FFC0
FFC0
FFC0
0000
0000
FFC0
FFC0
FFC0
0000
0000
0000
0000
0000
0000
0000
0000
0000
ENDCHAR
STARTCHAR char62
ENCODING 62
SWIDTH 1332 0
DWIDTH 12 0
BBX 10 25 0 -5
BITMAP
0000
0000
0000
C000
E000
7000
3800
1C00
0E00
0700
0380
01C0
0380
0700
0E00
1C00
3800
7000
E000
C000
0000
0000
0000
0000
0000
ENDCHAR
STARTCHAR char63
ENCODING 63
SWIDTH 1332 0
DWIDTH 12 0
BBX 10 25 0 -5
BITMAP
0000
3E00
7F80
E3C0
F1C0
F3C0
63C0
0780
0F00
1E00
1C00
1800
1800
1800
1800
0000
0000
3C00
3C00
3C00
0000
0000
0000
0000
0000
ENDCHAR
STARTCHAR char64
ENCODING 64
SWIDTH 2220 0
DWIDTH 20 0
BBX 17 25 1 -5
BITMAP
000000
000000
000000
000000
000000
0FFC00
3FFE00
7FFF00
600F00
67C780
CFE380
DEF380
DC7380
DC7380
DC7780
DE7F00
DFFF00
CFFE00
E00000
7FFF80
3FFF80
000000
000000
000000
000000
ENDCHAR
STARTCHAR char65
ENCODING 65
SWIDTH 2109 0
DWIDTH 19 0
BBX 17 25 0 -5
BITMAP
000000
03E000
03E000
03E000
077000
077000
077800
0E3800
0E3800
0E3800
1C1C00
1C1C00
1FFC00
3FFE00
3FFE00
380E00
700700
700700
F00780
E00380
000000
000000
000000
000000
000000
ENDCHAR
STARTCHAR char66
ENCODING 66
SWIDTH 1998 0
DWIDTH 18 0
BBX 14 25 1 -5
BITMAP
0000
FFE0
FFF8
FFFC
E07C
E01C
E01C
E01C
E07C
FFF8
FFE0
FFF8
E07C
E03C
E01C
E01C
E07C
FFFC
FFF8
FFE0
0000
0000
0000
0000
0000
ENDCHAR
STARTCHAR char67
ENCODING 67
SWIDTH 1887 0
DWIDTH 17 0
BBX 15 25 0 -5
BITMAP
0000
0FF0
1FF8
3FFC
783E
700E
F00E
E000
E000
E000
E000
E000
E000
E000
F00E
700E
781E
3FFC
1FF8
0FF0
0000
0000
0000
0000
0000
ENDCHAR
STARTCHAR char68
ENCODING 68
SWIDTH 1887 0
DWIDTH 17 0
BBX 14 25 1 -5
BITMAP
0000
FFC0
FFE0
FFF8
E0F8
E03C
E01C
E01C
E01C
E01C
E01C
E01C
E01C
E01C
E01C
E03C
E0F8
FFF8
FFE0
FFC0
0000
0000
0000
0000
0000
ENDCHAR
STARTCHAR char69
ENCODING 69
SWIDTH 1665 0
DWIDTH 15 0
BBX 12 25 1 -5
BITMAP
0000
FFF0
FFF0
FFF0
E000
E000
E000
E000
E000
FF80
FF80
FF80
E000
E000
E000
E000
E000
FFF0
FFF0
FFF0
0000
0000
0000
0000
0000
ENDCHAR
STARTCHAR char70
ENCODING 70
SWIDTH 1665 0
DWIDTH 15 0
BBX 12 25 1 -5
BITMAP
0000
FFF0
FFF0
FFF0
E000
E000
E000
E000
E000
FF80
FF80
FF80
E000
E000
E000
E000
E000
E000
E000
E000
0000
0000
0000
0000
0000
ENDCHAR
STARTCHAR char71
ENCODING 71
SWIDTH 1998 0
DWIDTH 18 0
BBX 15 25 1 -5
BITMAP
0000
1FF0
3FF8
7FFC
783E
F01E
E00E
E000
E000
E000
E000
E0FE
E0FE
E0FE
E00E
F01E
783E
7FFE
3FF6
1FE6
0000
0000
0000
0000
0000
ENDCHAR
STARTCHAR char72
ENCODING 72
SWIDTH 1776 0
DWIDTH 16 0
BBX 13 25 1 -5
BITMAP
0000
E038
E038
E038
E038
E038
E038
E038
E038
FFF8
FFF8
FFF8
E038
E038
E038
E038
E038
E038
E038
E038
0000
0000
0000
0000
0000
ENDCHAR
STARTCHAR char73
ENCODING 73
SWIDTH 777 0
DWIDTH 7 0
BBX 3 25 1 -5
BITMAP
00
E0
E0
E0
E0
E0
E0
E0
E0
E0
E0
E0
E0
E0
E0
E0
E0
E0
E0
E0
00
00
00
00
00
ENDCHAR
STARTCHAR char74
ENCODING 74
SWIDTH 1332 0
DWIDTH 12 0
BBX 10 25 0 -5
BITMAP
0000
01C0
01C0
01C0
01C0
01C0
01C0
01C0
01C0
01C0
01C0
01C0
01C0
01C0
01C0
01C0
E3C0
FFC0
7F80
3F00
0000
0000
0000
0000
0000
ENDCHAR
STARTCHAR char75
ENCODING 75
SWIDTH 1776 0
DWIDTH 16 0
BBX 13 25 1 -5
BITMAP
0000
E038
E078
E0F0
E1E0
E3C0
E780
EF00
FE00
FC00
FC00
FE00
EF00
E780
E3C0
E1E0
E0F0
E078
E038
E018
0000
0000
0000
0000
0000
ENDCHAR
STARTCHAR char76
ENCODING 76
SWIDTH 1554 0
DWIDTH 14 0
BBX 11 25 1 -5
BITMAP
0000
E000
E000
E000
E000
E000
E000
E000
E000
E000
E000
E000
E000
E000
E000
E000
E000
FFE0
FFE0
FFE0
0000
0000
0000
0000
0000
ENDCHAR
STARTCHAR char77
ENCODING 77
SWIDTH 2331 0
DWIDTH 21 0
BBX 18 25 1 -5
BITMAP
000000
E001C0
E001C0
F003C0
F003C0
F003C0
F807C0
F807C0
FC0FC0
FC0FC0
FC0FC0
EE1DC0
EE1DC0
E739C0
E739C0
E3F1C0
E3F1C0
E1E1C0
E1E1C0
E0C1C0
000000
000000
000000
000000
000000
ENDCHAR
STARTCHAR char78
ENCODING 78
SWIDTH 1887 0
DWIDTH 17 0
BBX 14 25 1 -5
BITMAP
0000
F01C
F81C
FC1C
FC1C
EE1C
EE1C
E71C
E71C
E39C
E39C
E1DC
E1DC
E0DC
E0FC
E07C
E07C
E03C
E03C
E01C
0000
0000
0000
0000
0000
ENDCHAR
STARTCHAR char79
ENCODING 79
SWIDTH 1887 0
DWIDTH 17 0
BBX 15 25 0 -5
BITMAP
0000
07C0
1FF0
3FF8
3838
701C
701C
E00E
E00E
E00E
E00E
E00E
E00E
E00E
E00E
701C
701C
3838
3FF8
1FF0
07C0
0000
0000
0000
0000
ENDCHAR
STARTCHAR char80
ENCODING 80
SWIDTH 1776 0
DWIDTH 16 0
BBX 13 25 1 -5
BITMAP
0000
FFE0
FFF0
FFF0
E078
E038
E038
E038
E078
FFF0
FFF0
FFC0
E000
E000
E000
E000
E000
E000
E000
E000
0000
0000
0000
0000
0000
ENDCHAR
STARTCHAR char81
ENCODING 81
SWIDTH 1887 0
DWIDTH 17 0
BBX 15 25 0 -5
BITMAP
0000
07C0
1FF0
3FF8
3838
701C
F01E
E00E
E00E
E00E
E00E
E00E
E00E
E00E
E00E
F01E
701C
3838
3FF8
1FF0
07C0
00E0
00FC
003C
0000
ENDCHAR
STARTCHAR char82
ENCODING 82
SWIDTH 1776 0
DWIDTH 16 0
BBX 13 25 1 -5
BITMAP
0000
FFE0
FFF0
FFF0
E078
E038
E038
E038
E078
FFF0
FFF0
FFC0
E380
E380
E1C0
E1E0
E0E0
E070
E070
E038
0000
0000
0000
0000
0000
ENDCHAR
STARTCHAR char83
ENCODING 83
SWIDTH 1776 0
DWIDTH 16 0
BBX 12 25 1 -5
BITMAP
0000
0F00
3FC0
7FE0
F1F0
E0F0
E000
E000
F000
7F00
3FC0
1FE0
01F0
00F0
0070
0070
E070
F0F0
7FE0
3FC0
0F00
0000
0000
0000
0000
ENDCHAR
STARTCHAR char84
ENCODING 84
SWIDTH 1665 0
DWIDTH 15 0
BBX 13 25 0 -5
BITMAP
0000
FFF8
FFF8
FFF8
0700
0700
0700
0700
0700
0700
0700
0700
0700
0700
0700
0700
0700
0700
0700
0700
0000
0000
0000
0000
0000
ENDCHAR
STARTCHAR char85
ENCODING 85
SWIDTH 1887 0
DWIDTH 17 0
BBX 14 25 1 -5
BITMAP
0000
E01C
E01C
E01C
E01C
E01C
E01C
E01C
E01C
E01C
E01C
E01C
E01C
E01C
E01C
F03C
F87C
7FF8
7FF8
3FF0
0000
0000
0000
0000
0000
ENDCHAR
STARTCHAR char86
ENCODING 86
SWIDTH 1887 0
DWIDTH 17 0
BBX 15 25 0 -5
BITMAP
0000
E00E
F01E
F01E
701C
783C
3838
3838
3C78
1C70
1C70
1EF0
0EE0
0EE0
0FE0
07C0
07C0
07C0
0380
0380
0000
0000
0000
0000
0000
ENDCHAR
STARTCHAR char87
ENCODING 87
SWIDTH 2553 0
DWIDTH 23 0
BBX 21 25 0 -5
BITMAP
000000
E0F838
E0F838
E0F838
E0F838
F1FC78
71DC70
71DC70
71DC70
7BDEF0
3B8EE0
3B8EE0
3B8EE0
3F8FE0
1F07C0
1F07C0
1F07C0
1F07C0
0E0380
0E0380
000000
000000
000000
000000
000000
ENDCHAR
STARTCHAR char88
ENCODING 88
SWIDTH 1776 0
DWIDTH 16 0
BBX 13 25 0 -5
BITMAP
0000
E038
E038
F078
78F0
38E0
3DE0
1DC0
0F80
0F80
0700
0F80
0F80
1DC0
3DE0
38E0
78F0
F078
E038
E038
0000
0000
0000
0000
0000
ENDCHAR
STARTCHAR char89
ENCODING 89
SWIDTH 1887 0
DWIDTH 17 0
BBX 15 25 0 -5
BITMAP
0000
0000
F01E
F01E
783C
783C
3C78
3C78
1EF0
0EE0
0FE0
07C0
07C0
0380
0380
0380
0380
0380
0380
0380
0000
0000
0000
0000
0000
ENDCHAR
STARTCHAR char90
ENCODING 90
SWIDTH 1665 0
DWIDTH 15 0
BBX 12 25 1 -5
BITMAP
0000
FFF0
FFF0
FFF0
00F0
00E0
01C0
01C0
0380
0380
0700
0700
0E00
0E00
1C00
3C00
3800
3FF0
FFF0
FFF0
0000
0000
0000
0000
0000
ENDCHAR
STARTCHAR char91
ENCODING 91
SWIDTH 1110 0
DWIDTH 10 0
BBX 7 25 1 -5
BITMAP
FE
FE
FE
F0
E0
E0
E0
E0
E0
E0
E0
E0
E0
E0
E0
E0
E0
E0
E0
E0
E0
F0
FE
FE
FE
ENDCHAR
STARTCHAR char92
ENCODING 92
SWIDTH 1554 0
DWIDTH 14 0
BBX 11 25 1 -5
BITMAP
E000
F000
7000
7000
7800
3800
3800
3C00
1C00
1C00
1E00
0E00
0E00
0F00
0700
0700
0780
0380
0380
03C0
01C0
01C0
01E0
00E0
00E0
ENDCHAR
STARTCHAR char93
ENCODING 93
SWIDTH 1110 0
DWIDTH 10 0
BBX 7 25 1 -5
BITMAP
FE
FE
FE
1E
0E
0E
0E
0E
0E
0E
0E
0E
0E
0E
0E
0E
0E
0E
0E
0E
0E
1E
FE
FE
FE
ENDCHAR
STARTCHAR char95
ENCODING 95
SWIDTH 1332 0
DWIDTH 12 0
BBX 12 25 0 -5
BITMAP
0000
0000
0000
0000
0000
0000
0000
0000
0000
0000
0000
0000
0000
0000
0000
0000
0000
0000
0000
0000
FFF0
FFF0
FFF0
0000
0000
ENDCHAR
STARTCHAR char96
ENCODING 96
SWIDTH 777 0
DWIDTH 7 0
BBX 4 25 1 -5
BITMAP
F0
F0
F0
F0
E0
E0
60
70
30
00
00
00
00
00
00
00
00
00
00
00
00
00
00
00
00
ENDCHAR
STARTCHAR char97
ENCODING 97
SWIDTH 1443 0
DWIDTH 13 0
BBX 10 25 1 -5
BITMAP
0000
0000
0000
0000
0000
0000
0000
3F00
7FC0
F3C0
01C0
0FC0
3FC0
FFC0
F9C0
E0C0
F1C0
FFC0
FFC0
3DC0
0000
0000
0000
0000
0000
ENDCHAR
STARTCHAR char98
ENCODING 98
SWIDTH 1665 0
DWIDTH 15 0
BBX 12 25 1 -5
BITMAP
0000
E000
E000
E000
E000
E000
E000
EF80
FFC0
FFE0
F0F0
E070
E070
E070
E070
E070
F0F0
FFE0
FFC0
EF80
0000
0000
0000
0000
0000
ENDCHAR
STARTCHAR char99
ENCODING 99
SWIDTH 1332 0
DWIDTH 12 0
BBX 10 25 0 -5
BITMAP
0000
0000
0000
0000
0000
0000
0000
1F00
3F80
7FC0
F9C0
F000
E000
E000
E000
F000
F9C0
7FC0
3F80
1F00
0000
0000
0000
0000
0000
ENDCHAR
STARTCHAR char100
ENCODING 100
SWIDTH 1554 0
DWIDTH 14 0
BBX 12 25 0 -5
BITMAP
0000
0070
0070
0070
0070
0070
0070
1F70
3FF0
7FF0
70F0
E070
E070
E070
E070
E070
70F0
7FF0
3FF0
1F30
0000
0000
0000
0000
0000
ENDCHAR
STARTCHAR char101
ENCODING 101
SWIDTH 1665 0
DWIDTH 15 0
BBX 13 25 0 -5
BITMAP
0000
0000
0000
0000
0000
0000
0000
0FC0
3FE0
3FF0
7870
7038
FFF8
FFF8
FFF8
F000
7878
7FF0
3FF0
0FC0
0000
0000
0000
0000
0000
ENDCHAR
STARTCHAR char102
ENCODING 102
SWIDTH 999 0
DWIDTH 9 0
BBX 7 25 0 -5
BITMAP
00
0E
1E
1E
38
38
38
FE
FE
FE
38
38
38
38
38
38
38
38
38
38
00
00
00
00
00
ENDCHAR
STARTCHAR char103
ENCODING 103
SWIDTH 1665 0
DWIDTH 15 0
BBX 12 25 1 -5
BITMAP
0000
0000
0000
0000
0000
0000
0000
1F70
7FF0
FFC0
F3C0
E1C0
F3C0
7FC0
7F80
3F00
E000
6000
3FE0
FFF0
E7F0
C070
F0F0
FFE0
7FC0
ENDCHAR
STARTCHAR char104
ENCODING 104
SWIDTH 1554 0
DWIDTH 14 0
BBX 11 25 1 -5
BITMAP
0000
E000
E000
E000
E000
E000
E000
EF80
FFC0
FFE0
F1E0
E0E0
E0E0
E0E0
E0E0
E0E0
E0E0
E0E0
E0E0
E0E0
0000
0000
0000
0000
0000
ENDCHAR
STARTCHAR char105
ENCODING 105
SWIDTH 777 0
DWIDTH 7 0
BBX 3 25 1 -5
BITMAP
00
E0
E0
E0
00
00
00
E0
E0
E0
E0
E0
E0
E0
E0
E0
E0
E0
E0
E0
00
00
00
00
00
ENDCHAR
STARTCHAR char106
ENCODING 106
SWIDTH 999 0
DWIDTH 9 0
BBX 6 25 0 -5
BITMAP
00
1C
1C
1C
00
00
00
1C
1C
1C
1C
1C
1C
1C
1C
1C
1C
1C
1C
1C
1C
3C
FC
F8
F0
ENDCHAR
STARTCHAR char107
ENCODING 107
SWIDTH 1443 0
DWIDTH 13 0
BBX 11 25 1 -5
BITMAP
0000
0000
E000
E000
E000
E000
E180
E380
E780
EF00
FE00
FC00
FE00
FF00
E780
E380
E1C0
E1E0
E0E0
E060
0000
0000
0000
0000
0000
ENDCHAR
STARTCHAR char108
ENCODING 108
SWIDTH 777 0
DWIDTH 7 0
BBX 3 25 1 -5
BITMAP
00
E0
E0
E0
E0
E0
E0
E0
E0
E0
E0
E0
E0
E0
E0
E0
E0
E0
E0
E0
00
00
00
00
00
ENDCHAR
STARTCHAR char109
ENCODING 109
SWIDTH 2220 0
DWIDTH 20 0
BBX 17 25 1 -5
BITMAP
000000
000000
000000
000000
000000
000000
000000
E60C00
EF3E00
FFBF00
FBF780
F1E380
E1C380
E1C380
E1C380
E1C380
E1C380
E1C380
E1C380
E1C380
000000
000000
000000
000000
000000
ENDCHAR
STARTCHAR char110
ENCODING 110
SWIDTH 1554 0
DWIDTH 14 0
BBX 11 25 1 -5
BITMAP
0000
0000
0000
0000
0000
0000
0000
E780
EFC0
FFC0
F9E0
F0E0
E0E0
E0E0
E0E0
E0E0
E0E0
E0E0
E0E0
E0E0
0000
0000
0000
0000
0000
ENDCHAR
STARTCHAR char111
ENCODING 111
SWIDTH 1554 0
DWIDTH 14 0
BBX 12 25 0 -5
BITMAP
0000
0000
0000
0000
0000
0000
0F00
3FC0
7FE0
79E0
F0F0
E070
E070
E070
E070
F0F0
F9F0
7FE0
3FC0
0F00
0000
0000
0000
0000
0000
ENDCHAR
STARTCHAR char112
ENCODING 112
SWIDTH 1665 0
DWIDTH 15 0
BBX 12 25 1 -5
BITMAP
0000
0000
0000
0000
0000
0000
0000
EF00
FFC0
FFE0
F9E0
F0F0
E070
E070
E070
F0F0
F9F0
FFE0
FFC0
EF00
E000
E000
E000
E000
E000
ENDCHAR
STARTCHAR char113
ENCODING 113
SWIDTH 1554 0
DWIDTH 14 0
BBX 12 25 0 -5
BITMAP
0000
0000
0000
0000
0000
0000
0000
0F70
3FF0
7FF0
79F0
F0F0
E070
E070
E070
F0F0
F9F0
7FF0
3FF0
0F70
0070
0070
0070
0070
0070
ENDCHAR
STARTCHAR char114
ENCODING 114
SWIDTH 1332 0
DWIDTH 12 0
BBX 9 25 1 -5
BITMAP
0000
0000
0000
0000
0000
0000
0000
E380
EF80
EF80
FE00
F800
F000
E000
E000
E000
E000
E000
E000
E000
0000
0000
0000
0000
0000
ENDCHAR
STARTCHAR char115
ENCODING 115
SWIDTH 1332 0
DWIDTH 12 0
BBX 10 25 0 -5
BITMAP
0000
0000
0000
0000
0000
0000
0000
3F00
7F80
FFC0
F1C0
E000
F000
7F00
1F80
03C0
E1C0
F3C0
7F80
3F00
0000
0000
0000
0000
0000
ENDCHAR
STARTCHAR char116
ENCODING 116
SWIDTH 999 0
DWIDTH 9 0
BBX 7 25 0 -5
BITMAP
00
38
38
38
38
38
FE
FE
FE
38
38
38
38
38
38
38
38
3C
3E
1E
00
00
00
00
00
ENDCHAR
STARTCHAR char117
ENCODING 117
SWIDTH 1554 0
DWIDTH 14 0
BBX 11 25 1 -5
BITMAP
0000
0000
0000
0000
0000
0000
0000
E0E0
E0E0
E0E0
E0E0
E0E0
E0E0
E0E0
E0E0
E0E0
F1E0
FFE0
7FE0
3F60
0000
0000
0000
0000
0000
ENDCHAR
STARTCHAR char118
ENCODING 118
SWIDTH 1554 0
DWIDTH 14 0
BBX 12 25 0 -5
BITMAP
0000
0000
0000
0000
0000
0000
0000
E070
E070
E070
70E0
70E0
39C0
39C0
1F80
1F80
0F00
0F00
0600
0600
0000
0000
0000
0000
0000
ENDCHAR
STARTCHAR char119
ENCODING 119
SWIDTH 2220 0
DWIDTH 20 0
BBX 18 25 0 -5
BITMAP
000000
000000
000000
000000
000000
000000
000000
E0C1C0
E0C1C0
F1E3C0
71E380
79E780
39E700
3BF700
3BF700
1F3E00
1F3E00
1F3E00
0E1C00
0E1C00
000000
000000
000000
000000
000000
ENDCHAR
STARTCHAR char120
ENCODING 120
SWIDTH 1443 0
DWIDTH 13 0
BBX 11 25 0 -5
BITMAP
0000
0000
0000
0000
0000
0000
0000
E0E0
F1E0
71C0
3B80
3B80
1F00
0E00
1F00
3B80
3B80
71C0
F1E0
E0E0
0000
0000
0000
0000
0000
ENDCHAR
STARTCHAR char121
ENCODING 121
SWIDTH 1665 0
DWIDTH 15 0
BBX 13 25 0 -5
BITMAP
0000
0000
0000
0000
0000
0000
0000
E038
E038
7070
7070
38E0
38E0
1DC0
1DC0
0F80
0F80
0700
0700
0E00
0E00
1C00
7C00
7800
7000
ENDCHAR
STARTCHAR char122
ENCODING 122
SWIDTH 1443 0
DWIDTH 13 0
BBX 11 25 0 -5
BITMAP
0000
0000
0000
0000
0000
0000
0000
FFE0
FFE0
FFE0
01E0
03C0
0780
0F00
1E00
3C00
7800
FFE0
FFE0
FFE0
0000
0000
0000
0000
0000
ENDCHAR
STARTCHAR char123
ENCODING 123
SWIDTH 1221 0
DWIDTH 11 0
BBX 8 25 1 -5
BITMAP
0F
1E
38
38
38
3C
1C
1C
1C
18
30
70
F0
70
30
18
1C
1C
1C
3C
38
38
38
1E
0F
ENDCHAR
STARTCHAR char124
ENCODING 124
SWIDTH 666 0
DWIDTH 6 0
BBX 3 25 1 -5
BITMAP
E0
E0
E0
E0
E0
E0
E0
E0
E0
E0
E0
E0
E0
E0
E0
E0
E0
E0
E0
E0
E0
E0
E0
E0
E0
ENDCHAR
STARTCHAR char125
ENCODING 125
SWIDTH 1221 0
DWIDTH 11 0
BBX 8 25 1 -5
BITMAP
F0
78
1C
1C
1C
3C
38
38
38
18
0C
0E
0F
0E
0C
18
38
38
38
3C
1C
1C
1C
78
F0
ENDCHAR
STARTCHAR char126
ENCODING 126
SWIDTH 1776 0
DWIDTH 16 0
BBX 14 25 0 -5
BITMAP
0000
0000
0000
0000
0000
0000
0000
0000
1C0C
3E0C
7F1C
7FB8
F7F8
E3F0
C1E0
0000
0000
0000
0000
0000
0000
0000
0000
0000
0000
ENDCHAR
ENDFONT
