STARTFONT 2.1
FONT -MIT-25VMIC KST-Medium-R-Normal--25-9-200-200-P-15-ISO8859-1
SIZE 9 200 200
FONTBOUNDINGBOX 28 25 -2 -5
STARTPROPERTIES 17
ADD_STYLE_NAME ""
AVERAGE_WIDTH 15
CHARSET_ENCODING "1"
CHARSET_REGISTRY "ISO8859"
DEFAULT_CHAR 0
FAMILY "25VMIC KST"
FONT_ASCENT 20
FONT_DESCENT 5
FOUNDRY "MIT"
PIXEL_SIZE 25
POINT_SIZE 9
RESOLUTION_X 200
RESOLUTION_Y 200
SETWIDTH_NAME "Normal"
SLANT "R"
SPACING "P"
WEIGHT_NAME "Medium"
ENDPROPERTIES
CHARS 125
STARTCHAR char1
ENCODING 1
SWIDTH 1776 0
DWIDTH 16 0
BBX 13 25 1 -5
BITMAP
0700
0700
0700
0700
0700
0700
0700
0700
0700
0700
0700
0700
0700
0700
E738
7770
3FE0
1FC0
0F80
0700
0200
0000
0000
0000
0000
ENDCHAR
STARTCHAR char2
ENCODING 2
SWIDTH 2442 0
DWIDTH 22 0
BBX 20 25 0 -5
BITMAP
000000
000000
000000
000000
000000
000000
000060
0000C0
000180
000180
1C0300
3F0600
61CE00
C07C00
C03C00
C03000
40E000
61D830
3F0E60
1E07C0
000000
000000
000000
000000
000000
ENDCHAR
STARTCHAR char3
ENCODING 3
SWIDTH 2220 0
DWIDTH 20 0
BBX 18 25 0 -5
BITMAP
000000
000F00
001980
0031C0
0060C0
00C0C0
01C180
018300
010300
030600
030C00
061E00
060600
0C0700
0C0380
1801C0
1800C0
390180
31C300
30FE00
700000
600000
600000
600000
E00000
ENDCHAR
STARTCHAR char4
ENCODING 4
SWIDTH 1887 0
DWIDTH 17 0
BBX 15 25 0 -5
BITMAP
0000
0000
0000
0100
0100
0380
0380
07C0
07C0
0EE0
0EE0
1C70
1C70
3838
3838
701C
701C
E00E
E00E
0000
0000
0000
0000
0000
0000
ENDCHAR
STARTCHAR char5
ENCODING 5
SWIDTH 1332 0
DWIDTH 12 0
BBX 11 25 0 -5
BITMAP
0000
0000
0000
0000
0000
0000
0000
0000
0000
0000
FFE0
FFE0
FFE0
00E0
00E0
00E0
0000
0000
0000
0000
0000
0000
0000
0000
0000
ENDCHAR
STARTCHAR char6
ENCODING 6
SWIDTH 1332 0
DWIDTH 12 0
BBX 9 25 0 -5
BITMAP
0000
0000
0000
0000
0780
0F80
1C00
3800
7000
E000
FF80
FF80
FF80
E000
7000
3800
1C00
0F80
0780
0000
0000
0000
0000
0000
0000
ENDCHAR
STARTCHAR char7
ENCODING 7
SWIDTH 1776 0
DWIDTH 16 0
BBX 14 25 0 -5
BITMAP
0000
0000
0000
0000
0000
0000
0000
FFC0
FFF8
307C
3060
3060
3060
3060
3060
3060
3060
3060
3060
F060
003C
0000
0000
0000
0000
ENDCHAR
STARTCHAR char8
ENCODING 8
SWIDTH 1665 0
DWIDTH 15 0
BBX 13 25 0 -5
BITMAP
0000
0000
C000
F000
7800
1800
0C00
0C00
0600
0600
0600
0F00
1B00
3180
3180
60C0
E0C0
C060
8038
0018
0000
0000
0000
0000
0000
ENDCHAR
STARTCHAR char9
ENCODING 9
SWIDTH 111 0
DWIDTH 1 0
BBX 1 25 0 -5
BITMAP
00
00
00
00
00
00
00
00
00
00
00
00
00
00
00
00
00
00
00
00
00
00
00
00
00
ENDCHAR
STARTCHAR char10
ENCODING 10
SWIDTH 111 0
DWIDTH 1 0
BBX 1 25 0 -5
BITMAP
00
00
00
00
00
00
00
00
00
00
00
00
00
00
00
00
00
00
00
00
00
00
00
00
00
ENDCHAR
STARTCHAR char11
ENCODING 11
SWIDTH 1554 0
DWIDTH 14 0
BBX 13 25 0 -5
BITMAP
0200
0700
0F80
1FC0
3FE0
7770
E738
C718
0700
0700
0700
0700
0700
0700
0700
0700
0700
0700
0700
0700
0700
0000
0000
0000
0000
ENDCHAR
STARTCHAR char12
ENCODING 12
SWIDTH 111 0
DWIDTH 1 0
BBX 1 25 0 -5
BITMAP
00
00
00
00
00
00
00
00
00
00
00
00
00
00
00
00
00
00
00
00
00
00
00
00
00
ENDCHAR
STARTCHAR char13
ENCODING 13
SWIDTH 111 0
DWIDTH 1 0
BBX 1 25 0 -5
BITMAP
00
00
00
00
00
00
00
00
00
00
00
00
00
00
00
00
00
00
00
00
00
00
00
00
00
ENDCHAR
STARTCHAR char14
ENCODING 14
SWIDTH 2553 0
DWIDTH 23 0
BBX 20 25 1 -5
BITMAP
000000
000000
000000
000000
000000
000000
1E0780
330CC0
619860
C0F030
C06030
C06030
C06030
C06030
C0F030
619860
339CC0
1F0F80
000000
000000
000000
000000
000000
000000
000000
ENDCHAR
STARTCHAR char15
ENCODING 15
SWIDTH 1665 0
DWIDTH 15 0
BBX 13 25 0 -5
BITMAP
1C00
0600
0300
0380
0180
00C0
0060
0060
0030
1F30
3FF0
6078
4038
C018
C018
C018
4030
6030
2060
1FC0
0000
0000
0000
0000
0000
ENDCHAR
STARTCHAR char16
ENCODING 16
SWIDTH 1887 0
DWIDTH 17 0
BBX 14 25 0 -5
BITMAP
0000
0000
0000
0000
0000
0FFC
1FFC
3FFC
7000
E000
C000
C000
C000
E000
7000
3FFC
1FFC
0FFC
0000
0000
0000
0000
0000
0000
0000
ENDCHAR
STARTCHAR char17
ENCODING 17
SWIDTH 1887 0
DWIDTH 17 0
BBX 14 25 0 -5
BITMAP
0000
0000
0000
0000
0000
FFC0
FFE0
FFF0
0038
001C
000C
000C
000C
001C
0038
FFF0
FFE0
FFC0
0000
0000
0000
0000
0000
0000
0000
ENDCHAR
STARTCHAR char18
ENCODING 18
SWIDTH 1665 0
DWIDTH 15 0
BBX 13 25 0 -5
BITMAP
0000
0000
0000
0000
0000
0F80
1FC0
38E0
7070
E038
E038
E038
E038
E038
E038
E038
E038
E038
E038
E038
0000
0000
0000
0000
0000
ENDCHAR
STARTCHAR char19
ENCODING 19
SWIDTH 1665 0
DWIDTH 15 0
BBX 13 25 0 -5
BITMAP
0000
0000
0000
0000
0000
E038
E038
E038
E038
E038
E038
E038
E038
E038
E038
E038
7070
38E0
1FC0
0F80
0000
0000
0000
0000
0000
ENDCHAR
STARTCHAR char20
ENCODING 20
SWIDTH 1776 0
DWIDTH 16 0
BBX 14 25 0 -5
BITMAP
C00C
C00C
6018
6018
6018
3030
3030
3FF0
1FE0
1860
1860
0CC0
0CC0
0CC0
0780
0780
0780
0300
0300
0300
0000
0000
0000
0000
0000
ENDCHAR
STARTCHAR char21
ENCODING 21
SWIDTH 1665 0
DWIDTH 15 0
BBX 13 25 0 -5
BITMAP
FFF8
FFF8
FFF8
0038
0038
0038
0038
0038
FFF8
FFF8
FFF8
0038
0038
0038
0038
0038
0038
FFF8
FFF8
FFF8
0000
0000
0000
0000
0000
ENDCHAR
STARTCHAR char22
ENCODING 22
SWIDTH 1776 0
DWIDTH 16 0
BBX 14 25 0 -5
BITMAP
0000
0000
0000
0000
0000
0780
1FE0
2010
7878
4CC8
C78C
C30C
C78C
4CC8
7878
3030
1FE0
0780
0000
0000
0000
0000
0000
0000
0000
ENDCHAR
STARTCHAR char23
ENCODING 23
SWIDTH 1998 0
DWIDTH 18 0
BBX 16 25 0 -5
BITMAP
0000
0000
0000
0000
0000
0000
0000
0C30
1818
300C
6006
FFFF
FFFF
6006
300C
1818
0C30
0000
0000
0000
0000
0000
0000
0000
0000
ENDCHAR
STARTCHAR char24
ENCODING 24
SWIDTH 1998 0
DWIDTH 18 0
BBX 16 25 0 -5
BITMAP
0000
0000
0000
0000
0000
0000
0400
0C00
1800
3000
6000
FFFF
FFFF
6000
3000
1800
0C00
0400
0000
0000
0000
0000
0000
0000
0000
ENDCHAR
STARTCHAR char25
ENCODING 25
SWIDTH 1998 0
DWIDTH 18 0
BBX 17 25 0 -5
BITMAP
000000
000000
000000
000000
000000
000000
002000
003000
003800
001C00
000E00
FFFF00
FFFF80
FFFF00
000E00
001C00
003800
003000
002000
000000
000000
000000
000000
000000
000000
ENDCHAR
STARTCHAR char26
ENCODING 26
SWIDTH 1776 0
DWIDTH 16 0
BBX 12 25 1 -5
BITMAP
0000
0000
0030
0030
0060
0060
00C0
00C0
0180
FFF0
FFF0
0300
0600
FFF0
FFF0
1800
3000
3000
6000
6000
C000
C000
0000
0000
0000
ENDCHAR
STARTCHAR char28
ENCODING 28
SWIDTH 1554 0
DWIDTH 14 0
BBX 12 25 0 -5
BITMAP
0000
0000
0000
0000
0030
00F0
03C0
0F00
3C00
F000
F000
3C00
0F00
03C0
00F0
0030
0000
0000
FFF0
FFF0
0000
0000
0000
0000
0000
ENDCHAR
STARTCHAR char29
ENCODING 29
SWIDTH 1554 0
DWIDTH 14 0
BBX 12 25 0 -5
BITMAP
0000
0000
0000
0000
C000
F000
3C00
0F00
03C0
00F0
00F0
03C0
0F00
3C00
F000
C000
0000
0000
FFF0
FFF0
0000
0000
0000
0000
0000
ENDCHAR
STARTCHAR char30
ENCODING 30
SWIDTH 1332 0
DWIDTH 12 0
BBX 10 25 0 -5
BITMAP
0000
0000
0000
0000
0000
0000
0000
FFC0
FFC0
0000
0000
FFC0
FFC0
0000
0000
FFC0
FFC0
0000
0000
0000
0000
0000
0000
0000
0000
ENDCHAR
STARTCHAR char31
ENCODING 31
SWIDTH 1887 0
DWIDTH 17 0
BBX 15 25 0 -5
BITMAP
0000
0000
0000
0000
0000
0000
C006
C006
600C
600C
3018
3018
1830
1830
0C60
0C60
06C0
06C0
0380
0100
0000
0000
0000
0000
0000
ENDCHAR
STARTCHAR char32
ENCODING 32
SWIDTH 1110 0
DWIDTH 10 0
BBX 1 25 0 -5
BITMAP
00
00
00
00
00
00
00
00
00
00
00
00
00
00
00
00
00
00
00
00
00
00
00
00
00
ENDCHAR
STARTCHAR char33
ENCODING 33
SWIDTH 777 0
DWIDTH 7 0
BBX 4 25 1 -5
BITMAP
00
F0
F0
F0
F0
F0
F0
F0
F0
F0
F0
F0
F0
00
00
00
F0
F0
F0
F0
00
00
00
00
00
ENDCHAR
STARTCHAR char34
ENCODING 34
SWIDTH 1221 0
DWIDTH 11 0
BBX 8 25 1 -5
BITMAP
E7
E7
E7
E7
E7
63
63
63
63
00
00
00
00
00
00
00
00
00
00
00
00
00
00
00
00
ENDCHAR
STARTCHAR char35
ENCODING 35
SWIDTH 1776 0
DWIDTH 16 0
BBX 13 25 1 -5
BITMAP
0000
0000
0000
0000
0000
0000
38E0
38E0
FFF8
FFF8
FFF8
38E0
38E0
38E0
FFF8
FFF8
FFF8
38E0
38E0
0000
0000
0000
0000
0000
0000
ENDCHAR
STARTCHAR char36
ENCODING 36
SWIDTH 2220 0
DWIDTH 20 0
BBX 17 25 1 -5
BITMAP
01C000
3FFE00
7FFF00
FFFF80
F1C780
E1C380
E1C000
E1C000
E1C000
FFFE00
7FFF00
3FFF80
01C380
01C380
01C380
01C380
E1C380
F1C780
FFFF80
7FFF00
3FFE00
01C000
000000
000000
000000
ENDCHAR
STARTCHAR char37
ENCODING 37
SWIDTH 2220 0
DWIDTH 20 0
BBX 18 25 0 -5
BITMAP
7CC000
FEC000
C6C000
C6C000
C6C000
FEC000
7CC000
00C000
00C000
00C000
00C000
00C000
00C000
00CF80
00DFC0
00D8C0
00D8C0
00D8C0
00DFC0
00CF80
000000
000000
000000
000000
000000
ENDCHAR
STARTCHAR char38
ENCODING 38
SWIDTH 2220 0
DWIDTH 20 0
BBX 18 25 0 -5
BITMAP
0FF800
1FFC00
3FFE00
3C0F00
380700
380000
3C0000
1E0000
0F0000
3F8000
7FC000
F0E000
E07000
E03B80
E01F80
E00F80
F00F00
FFFF80
7FFFC0
3FFDC0
000000
000000
000000
000000
000000
ENDCHAR
STARTCHAR char39
ENCODING 39
SWIDTH 777 0
DWIDTH 7 0
BBX 3 25 1 -5
BITMAP
E0
E0
E0
E0
E0
20
60
E0
C0
00
00
00
00
00
00
00
00
00
00
00
00
00
00
00
00
ENDCHAR
STARTCHAR char40
ENCODING 40
SWIDTH 999 0
DWIDTH 9 0
BBX 7 25 0 -5
BITMAP
3E
7E
F8
F0
E0
E0
E0
E0
E0
E0
E0
E0
E0
E0
E0
E0
E0
E0
E0
F0
F8
7E
3E
00
00
ENDCHAR
STARTCHAR char41
ENCODING 41
SWIDTH 999 0
DWIDTH 9 0
BBX 7 25 0 -5
BITMAP
F0
F8
3C
1E
0E
0E
0E
0E
0E
0E
0E
0E
0E
0E
0E
0E
0E
0E
0E
1E
3E
FC
F8
00
00
ENDCHAR
STARTCHAR char42
ENCODING 42
SWIDTH 1665 0
DWIDTH 15 0
BBX 14 25 0 -5
BITMAP
0000
0000
0000
0000
0780
0780
F7BC
F7BC
F03C
F03C
0000
0000
0000
F03C
F03C
F7BC
F7BC
0780
0780
0000
0000
0000
0000
0000
0000
ENDCHAR
STARTCHAR char43
ENCODING 43
SWIDTH 1665 0
DWIDTH 15 0
BBX 13 25 0 -5
BITMAP
0000
0000
0000
0000
0000
0700
0700
0700
0700
0700
FFF8
FFF8
FFF8
0700
0700
0700
0700
0700
0000
0000
0000
0000
0000
0000
0000
ENDCHAR
STARTCHAR char44
ENCODING 44
SWIDTH 777 0
DWIDTH 7 0
BBX 4 25 1 -5
BITMAP
00
00
00
00
00
00
00
00
00
00
00
00
00
00
00
F0
F0
F0
F0
F0
30
30
70
F0
E0
ENDCHAR
STARTCHAR char45
ENCODING 45
SWIDTH 1443 0
DWIDTH 13 0
BBX 11 25 0 -5
BITMAP
0000
0000
0000
0000
0000
0000
0000
0000
0000
0000
FFE0
FFE0
FFE0
0000
0000
0000
0000
0000
0000
0000
0000
0000
0000
0000
0000
ENDCHAR
STARTCHAR char46
ENCODING 46
SWIDTH 777 0
DWIDTH 7 0
BBX 4 25 1 -5
BITMAP
00
00
00
00
00
00
00
00
00
00
00
00
00
00
00
00
F0
F0
F0
F0
00
00
00
00
00
ENDCHAR
STARTCHAR char47
ENCODING 47
SWIDTH 1443 0
DWIDTH 13 0
BBX 11 25 0 -5
BITMAP
00E0
01E0
01C0
01C0
03C0
0380
0380
0780
0700
0700
0F00
0E00
0E00
1E00
1C00
1C00
3C00
3800
3800
7800
7000
7000
F000
E000
E000
ENDCHAR
STARTCHAR char48
ENCODING 48
SWIDTH 2220 0
DWIDTH 20 0
BBX 17 25 1 -5
BITMAP
000000
3FFE00
7FFF00
FFFF80
F00780
E00380
E00380
E00380
E00380
E00380
E00380
E00380
E00380
E00380
E00380
E00380
F00780
FFFF80
7FFF00
3FFE00
000000
000000
000000
000000
000000
ENDCHAR
STARTCHAR char49
ENCODING 49
SWIDTH 1110 0
DWIDTH 10 0
BBX 7 25 1 -5
BITMAP
00
1E
3E
7E
EE
0E
0E
0E
0E
0E
0E
0E
0E
0E
0E
0E
0E
0E
0E
0E
00
00
00
00
00
ENDCHAR
STARTCHAR char50
ENCODING 50
SWIDTH 2109 0
DWIDTH 19 0
BBX 16 25 1 -5
BITMAP
0000
3FFC
7FFE
FFFF
F00F
E007
E007
0007
0007
0007
000F
1FFF
3FFE
7FFC
F800
F000
E000
FFFF
FFFF
FFFF
0000
0000
0000
0000
0000
ENDCHAR
STARTCHAR char51
ENCODING 51
SWIDTH 2109 0
DWIDTH 19 0
BBX 16 25 1 -5
BITMAP
0000
3FFC
7FFE
FFFF
F00F
E007
E007
0007
000F
07FE
07FC
07FE
000F
0007
E007
E007
F00F
FFFF
7FFE
3FFC
0000
0000
0000
0000
0000
ENDCHAR
STARTCHAR char52
ENCODING 52
SWIDTH 2109 0
DWIDTH 19 0
BBX 16 25 1 -5
BITMAP
0000
001C
003C
007C
00FC
01FC
03DC
079C
0F1C
1E1C
3C1C
781C
F01C
FFFF
FFFF
FFFF
001C
001C
001C
001C
0000
0000
0000
0000
0000
ENDCHAR
STARTCHAR char53
ENCODING 53
SWIDTH 2109 0
DWIDTH 19 0
BBX 16 25 1 -5
BITMAP
0000
FFFF
FFFF
FFFF
E000
E000
E000
EFFC
FFFE
FFFF
F00F
E007
0007
0007
0007
E007
F00F
FFFF
7FFE
3FFC
0000
0000
0000
0000
0000
ENDCHAR
STARTCHAR char54
ENCODING 54
SWIDTH 2109 0
DWIDTH 19 0
BBX 16 25 1 -5
BITMAP
0000
3FFC
7FFE
FFFF
F00F
E007
E000
E000
EFFC
FFFE
FFFF
F00F
E007
E007
E007
E007
F00F
FFFF
7FFE
3FFC
0000
0000
0000
0000
0000
ENDCHAR
STARTCHAR char55
ENCODING 55
SWIDTH 2109 0
DWIDTH 19 0
BBX 16 25 1 -5
BITMAP
0000
FFFF
FFFF
FFFF
0007
0007
000F
001E
003C
0078
00F0
01E0
03C0
0780
0F00
1E00
3C00
7800
7000
7000
0000
0000
0000
0000
0000
ENDCHAR
STARTCHAR char56
ENCODING 56
SWIDTH 2109 0
DWIDTH 19 0
BBX 16 25 1 -5
BITMAP
0000
3FFC
7FFE
FFFF
F00F
E007
E007
E007
F00F
7FFE
3FFC
7FFE
F00F
E007
E007
E007
F00F
FFFF
7FFE
3FFC
0000
0000
0000
0000
0000
ENDCHAR
STARTCHAR char57
ENCODING 57
SWIDTH 2109 0
DWIDTH 19 0
BBX 16 25 1 -5
BITMAP
0000
3FFC
7FFE
FFFF
F00F
E007
E007
E007
E007
F00F
FFFF
7FFF
3FFF
0007
0007
E007
F00F
FFFF
7FFE
3FFC
0000
0000
0000
0000
0000
ENDCHAR
STARTCHAR char58
ENCODING 58
SWIDTH 777 0
DWIDTH 7 0
BBX 4 25 1 -5
BITMAP
00
00
00
00
00
00
00
00
F0
F0
F0
F0
00
00
00
00
F0
F0
F0
F0
00
00
00
00
00
ENDCHAR
STARTCHAR char59
ENCODING 59
SWIDTH 777 0
DWIDTH 7 0
BBX 4 25 1 -5
BITMAP
00
00
00
00
00
00
00
00
F0
F0
F0
F0
00
00
00
00
F0
F0
F0
F0
70
70
E0
C0
00
ENDCHAR
STARTCHAR char60
ENCODING 60
SWIDTH 1776 0
DWIDTH 16 0
BBX 14 25 0 -5
BITMAP
0000
0000
0000
000C
003C
00FC
03F0
0FC0
3F00
FC00
F000
FC00
3F00
0FC0
03F0
00FC
003C
000C
0000
0000
0000
0000
0000
0000
0000
ENDCHAR
STARTCHAR char61
ENCODING 61
SWIDTH 1443 0
DWIDTH 13 0
BBX 11 25 0 -5
BITMAP
0000
0000
0000
0000
0000
0000
0000
FFE0
FFE0
FFE0
0000
0000
FFE0
FFE0
FFE0
0000
0000
0000
0000
0000
0000
0000
0000
0000
0000
ENDCHAR
STARTCHAR char62
ENCODING 62
SWIDTH 1776 0
DWIDTH 16 0
BBX 14 25 0 -5
BITMAP
0000
0000
0000
C000
F000
FC00
3F00
0FC0
03F0
00FC
003C
00FC
03F0
0FC0
3F00
FC00
F000
C000
0000
0000
0000
0000
0000
0000
0000
ENDCHAR
STARTCHAR char63
ENCODING 63
SWIDTH 2220 0
DWIDTH 20 0
BBX 17 25 1 -5
BITMAP
000000
3FFE00
7FFF00
FFFF80
F00780
E00380
000380
000780
03FF80
07FF00
0FFE00
0F8000
0F0000
0F0000
000000
000000
0F0000
0F0000
0F0000
0F0000
000000
000000
000000
000000
000000
ENDCHAR
STARTCHAR char64
ENCODING 64
SWIDTH 2220 0
DWIDTH 20 0
BBX 18 25 0 -5
BITMAP
000000
000000
000000
000000
000000
1FFE00
3FFF00
780780
F003C0
E3E1C0
C7F0C0
CE38C0
CC18C0
CC18C0
CC18C0
CE39C0
CFFF80
C7FF00
E00000
700000
3FFFC0
1FFFC0
000000
000000
000000
ENDCHAR
STARTCHAR char65
ENCODING 65
SWIDTH 2109 0
DWIDTH 19 0
BBX 16 25 1 -5
BITMAP
0000
1FF8
7FFE
FFFF
F00F
E007
E007
E007
E007
E007
E007
E007
FFFF
FFFF
FFFF
E007
E007
E007
E007
E007
0000
0000
0000
0000
0000
ENDCHAR
STARTCHAR char66
ENCODING 66
SWIDTH 2109 0
DWIDTH 19 0
BBX 16 25 1 -5
BITMAP
0000
FFF8
FFFC
FFFE
E01E
E00E
E00E
E00E
E01C
FFF8
FFFC
FFFE
E00F
E007
E007
E007
E00F
FFFF
FFFE
FFFC
0000
0000
0000
0000
0000
ENDCHAR
STARTCHAR char67
ENCODING 67
SWIDTH 2220 0
DWIDTH 20 0
BBX 17 25 1 -5
BITMAP
000000
3FFE00
7FFF00
FFFF80
F00780
E00380
E00380
E00000
E00000
E00000
E00000
E00000
E00000
E00000
E00380
E00380
F00780
FFFF80
7FFF00
3FFE00
000000
000000
000000
000000
000000
ENDCHAR
STARTCHAR char68
ENCODING 68
SWIDTH 2220 0
DWIDTH 20 0
BBX 17 25 1 -5
BITMAP
000000
FFFE00
FFFF00
FFFF80
E00780
E00380
E00380
E00380
E00380
E00380
E00380
E00380
E00380
E00380
E00380
E00380
E00780
FFFF80
FFFF00
FFFE00
000000
000000
000000
000000
000000
ENDCHAR
STARTCHAR char69
ENCODING 69
SWIDTH 2109 0
DWIDTH 19 0
BBX 16 25 1 -5
BITMAP
0000
FFFF
FFFF
FFFF
E000
E000
E000
E000
E000
FFFE
FFFE
FFFE
E000
E000
E000
E000
E000
FFFF
FFFF
FFFF
0000
0000
0000
0000
0000
ENDCHAR
STARTCHAR char70
ENCODING 70
SWIDTH 2109 0
DWIDTH 19 0
BBX 16 25 1 -5
BITMAP
0000
FFFF
FFFF
FFFF
E000
E000
E000
E000
E000
FFFE
FFFE
FFFE
E000
E000
E000
E000
E000
E000
E000
E000
0000
0000
0000
0000
0000
ENDCHAR
STARTCHAR char71
ENCODING 71
SWIDTH 2220 0
DWIDTH 20 0
BBX 17 25 1 -5
BITMAP
000000
3FFE00
7FFF00
FFFF80
F00780
E00380
E00380
E00000
E00000
E00000
E00000
E0FF80
E0FF80
E00380
E00380
E00380
F00780
FFFF80
7FFF00
3FFE00
000000
000000
000000
000000
000000
ENDCHAR
STARTCHAR char72
ENCODING 72
SWIDTH 2220 0
DWIDTH 20 0
BBX 17 25 1 -5
BITMAP
000000
E00380
E00380
E00380
E00380
E00380
E00380
E00380
E00380
E00380
FFFF80
FFFF80
FFFF80
E00380
E00380
E00380
E00380
E00380
E00380
E00380
000000
000000
000000
000000
000000
ENDCHAR
STARTCHAR char73
ENCODING 73
SWIDTH 888 0
DWIDTH 8 0
BBX 3 25 2 -5
BITMAP
00
E0
E0
E0
E0
E0
E0
E0
E0
E0
E0
E0
E0
E0
E0
E0
E0
E0
E0
E0
00
00
00
00
00
ENDCHAR
STARTCHAR char74
ENCODING 74
SWIDTH 1998 0
DWIDTH 18 0
BBX 16 25 0 -5
BITMAP
0000
0007
0007
0007
0007
0007
0007
0007
0007
0007
0007
0007
0007
0007
0007
E007
F00F
FFFF
7FFE
3FFC
0000
0000
0000
0000
0000
ENDCHAR
STARTCHAR char75
ENCODING 75
SWIDTH 2109 0
DWIDTH 19 0
BBX 16 25 1 -5
BITMAP
0000
E00F
E01E
E03C
E078
E0F0
E1E0
E3C0
E780
FF00
FE00
FF00
E780
E3C0
E1E0
E0F0
E078
E03C
E01E
E00F
0000
0000
0000
0000
0000
ENDCHAR
STARTCHAR char76
ENCODING 76
SWIDTH 1998 0
DWIDTH 18 0
BBX 15 25 1 -5
BITMAP
0000
E000
E000
E000
E000
E000
E000
E000
E000
E000
E000
E000
E000
E000
E000
E000
E000
FFFE
FFFE
FFFE
0000
0000
0000
0000
0000
ENDCHAR
STARTCHAR char77
ENCODING 77
SWIDTH 2775 0
DWIDTH 25 0
BBX 22 25 1 -5
BITMAP
000000
F8007C
F8007C
FC00FC
FC00FC
FE01FC
EE01DC
EF03DC
E7039C
E7879C
E3871C
E3CF1C
E1CE1C
E1FE1C
E0FC1C
E0FC1C
E0781C
E0781C
E0301C
E0301C
000000
000000
000000
000000
000000
ENDCHAR
STARTCHAR char78
ENCODING 78
SWIDTH 2109 0
DWIDTH 19 0
BBX 16 25 1 -5
BITMAP
0000
F807
FC07
FC07
FE07
FE07
EF07
E707
E787
E387
E3C7
E1C7
E1E7
E0E7
E0F7
E077
E07F
E03F
E03F
E01F
0000
0000
0000
0000
0000
ENDCHAR
STARTCHAR char79
ENCODING 79
SWIDTH 2220 0
DWIDTH 20 0
BBX 17 25 1 -5
BITMAP
000000
3FFE00
7FFF00
FFFF80
F00780
E00380
E00380
E00380
E00380
E00380
E00380
E00380
E00380
E00380
E00380
E00380
F00780
FFFF80
7FFF00
3FFE00
000000
000000
000000
000000
000000
ENDCHAR
STARTCHAR char80
ENCODING 80
SWIDTH 2109 0
DWIDTH 19 0
BBX 16 25 1 -5
BITMAP
0000
FFFC
FFFE
FFFF
E00F
E007
E007
E007
E007
E00F
FFFF
FFFE
FFFC
E000
E000
E000
E000
E000
E000
E000
0000
0000
0000
0000
0000
ENDCHAR
STARTCHAR char81
ENCODING 81
SWIDTH 2331 0
DWIDTH 21 0
BBX 18 25 1 -5
BITMAP
000000
3FFE00
7FFF00
FFFF80
F00780
E00380
E00380
E00380
E00380
E00380
E00380
E00380
E06380
E07380
E07B80
E03F80
F01F80
FFFFC0
7FFBC0
3FF3C0
000000
000000
000000
000000
000000
ENDCHAR
STARTCHAR char82
ENCODING 82
SWIDTH 2220 0
DWIDTH 20 0
BBX 17 25 1 -5
BITMAP
000000
FFFE00
FFFF00
FFFF80
E00780
E00380
E00380
E00380
E00380
E00780
FFFF80
FFFF00
FFFE00
E00F00
E00780
E00380
E00380
E00380
E00380
E00380
000000
000000
000000
000000
000000
ENDCHAR
STARTCHAR char83
ENCODING 83
SWIDTH 2220 0
DWIDTH 20 0
BBX 17 25 1 -5
BITMAP
000000
3FFE00
7FFF00
FFFF80
F00780
E00380
E00000
E00000
E00000
FFFE00
7FFF00
3FFF80
000380
000380
000380
000380
E00380
F00780
FFFF80
7FFF00
3FFE00
000000
000000
000000
000000
ENDCHAR
STARTCHAR char84
ENCODING 84
SWIDTH 2220 0
DWIDTH 20 0
BBX 17 25 1 -5
BITMAP
000000
FFFF80
FFFF80
FFFF80
01C000
01C000
01C000
01C000
01C000
01C000
01C000
01C000
01C000
01C000
01C000
01C000
01C000
01C000
01C000
01C000
000000
000000
000000
000000
000000
ENDCHAR
STARTCHAR char85
ENCODING 85
SWIDTH 2220 0
DWIDTH 20 0
BBX 17 25 1 -5
BITMAP
000000
E00380
E00380
E00380
E00380
E00380
E00380
E00380
E00380
E00380
E00380
E00380
E00380
E00380
E00380
E00380
F00780
FFFF80
7FFF00
3FFE00
000000
000000
000000
000000
000000
ENDCHAR
STARTCHAR char86
ENCODING 86
SWIDTH 2442 0
DWIDTH 22 0
BBX 19 25 1 -5
BITMAP
000000
E000E0
E000E0
E000E0
7001C0
7001C0
380380
380380
1C0700
1C0700
0E0E00
0E0E00
071C00
071C00
03B800
03B800
01F000
01F000
00E000
00E000
000000
000000
000000
000000
000000
ENDCHAR
STARTCHAR char87
ENCODING 87
SWIDTH 3108 0
DWIDTH 28 0
BBX 28 25 0 -5
BITMAP
00000000
C0060030
C0060030
E00F0070
600F0060
600F0060
701F80E0
301980C0
301980C0
3839C1C0
1830C180
1830C180
1C70E380
0C606300
0C606300
0EE07700
06C03600
07C03E00
07C03E00
03801C00
00000000
00000000
00000000
00000000
00000000
ENDCHAR
STARTCHAR char88
ENCODING 88
SWIDTH 2220 0
DWIDTH 20 0
BBX 19 25 0 -5
BITMAP
000000
E000E0
F001E0
7803C0
3C0780
1E0F00
0F1E00
07BC00
03F800
01F000
00E000
01F000
03F800
07BC00
0F1E00
1E0F00
3C0780
7803C0
F001E0
E000E0
000000
000000
000000
000000
000000
ENDCHAR
STARTCHAR char89
ENCODING 89
SWIDTH 2220 0
DWIDTH 20 0
BBX 19 25 0 -5
BITMAP
000000
E000E0
F001E0
7803C0
3C0780
1E0F00
0F1E00
07BC00
03F800
01F000
00E000
00E000
00E000
00E000
00E000
00E000
00E000
00E000
00E000
00E000
000000
000000
000000
000000
000000
ENDCHAR
STARTCHAR char90
ENCODING 90
SWIDTH 2109 0
DWIDTH 19 0
BBX 17 25 0 -5
BITMAP
000000
FFFF80
FFFF80
FFFF80
000780
000F00
001E00
003C00
007800
00F000
01E000
03C000
078000
0F0000
1E0000
3C0000
780000
FFFF80
FFFF80
FFFF80
000000
000000
000000
000000
000000
ENDCHAR
STARTCHAR char91
ENCODING 91
SWIDTH 1110 0
DWIDTH 10 0
BBX 7 25 1 -5
BITMAP
FE
FE
FE
E0
E0
E0
E0
E0
E0
E0
E0
E0
E0
E0
E0
E0
E0
E0
E0
E0
E0
E0
FE
FE
FE
ENDCHAR
STARTCHAR char92
ENCODING 92
SWIDTH 1443 0
DWIDTH 13 0
BBX 10 25 1 -5
BITMAP
E000
E000
E000
F000
7000
7000
7800
3800
3800
3C00
1C00
1C00
1E00
0E00
0E00
0F00
0700
0700
0780
0380
0380
03C0
01C0
01C0
01C0
ENDCHAR
STARTCHAR char93
ENCODING 93
SWIDTH 1110 0
DWIDTH 10 0
BBX 7 25 1 -5
BITMAP
FE
FE
FE
0E
0E
0E
0E
0E
0E
0E
0E
0E
0E
0E
0E
0E
0E
0E
0E
0E
0E
0E
FE
FE
FE
ENDCHAR
STARTCHAR char95
ENCODING 95
SWIDTH 3108 0
DWIDTH 28 0
BBX 28 25 0 -5
BITMAP
00000000
00000000
00000000
00000000
00000000
00000000
00000000
00000000
00000000
00000000
00000000
00000000
00000000
00000000
00000000
00000000
00000000
00000000
00000000
00000000
FFFFFFF0
FFFFFFF0
FFFFFFF0
00000000
00000000
ENDCHAR
STARTCHAR char96
ENCODING 96
SWIDTH 777 0
DWIDTH 7 0
BBX 3 25 0 -5
BITMAP
00
E0
E0
E0
E0
80
C0
E0
60
00
00
00
00
00
00
00
00
00
00
00
00
00
00
00
00
ENDCHAR
STARTCHAR char97
ENCODING 97
SWIDTH 1776 0
DWIDTH 16 0
BBX 14 25 0 -5
BITMAP
0000
0000
0000
0000
0000
0000
3FF0
7FF8
FFFC
F03C
E01C
001C
3FFC
7FFC
F07C
E01C
E01C
F03C
7FFC
3FDC
0000
0000
0000
0000
0000
ENDCHAR
STARTCHAR char98
ENCODING 98
SWIDTH 1887 0
DWIDTH 17 0
BBX 15 25 1 -5
BITMAP
0000
E000
E000
E000
E000
E000
EFF8
FFFC
FFFE
F01E
E00E
E00E
E00E
E00E
E00E
E00E
F01E
FFFE
FFFC
EFF8
0000
0000
0000
0000
0000
ENDCHAR
STARTCHAR char99
ENCODING 99
SWIDTH 1776 0
DWIDTH 16 0
BBX 14 25 0 -5
BITMAP
0000
0000
0000
0000
0000
0000
3FF0
7FF8
FFFC
F03C
E01C
E000
E000
E000
E000
E01C
F03C
FFFC
7FF8
3FF0
0000
0000
0000
0000
0000
ENDCHAR
STARTCHAR char100
ENCODING 100
SWIDTH 1887 0
DWIDTH 17 0
BBX 15 25 1 -5
BITMAP
0000
000E
000E
000E
000E
000E
3FEE
7FFE
FFFE
F01E
E00E
E00E
E00E
E00E
E00E
E00E
F01E
FFFE
7FFE
3FEE
0000
0000
0000
0000
0000
ENDCHAR
STARTCHAR char101
ENCODING 101
SWIDTH 1776 0
DWIDTH 16 0
BBX 14 25 1 -5
BITMAP
0000
0000
0000
0000
0000
0000
3FF0
7FF8
FFFC
F03C
E01C
FFFC
FFFC
FFFC
E000
E01C
F03C
FFFC
7FF8
3FF0
0000
0000
0000
0000
0000
ENDCHAR
STARTCHAR char102
ENCODING 102
SWIDTH 1332 0
DWIDTH 12 0
BBX 9 25 1 -5
BITMAP
0000
1F00
3F80
3980
3800
3800
3800
3800
FF00
FF00
3800
3800
3800
3800
3800
3800
3800
3800
3800
3800
0000
0000
0000
0000
0000
ENDCHAR
STARTCHAR char103
ENCODING 103
SWIDTH 1887 0
DWIDTH 17 0
BBX 15 25 1 -5
BITMAP
0000
0000
0000
0000
0000
0000
3FEE
7FFE
FFFE
F01E
E00E
E00E
E00E
E00E
E00E
E00E
F01E
FFFE
7FFE
3FEE
000E
E01E
FFFE
7FFC
3FF8
ENDCHAR
STARTCHAR char104
ENCODING 104
SWIDTH 1887 0
DWIDTH 17 0
BBX 15 25 1 -5
BITMAP
0000
E000
E000
E000
E000
E000
EFF8
FFFC
FFFE
F01E
E00E
E00E
E00E
E00E
E00E
E00E
E00E
E00E
E00E
E00E
0000
0000
0000
0000
0000
ENDCHAR
STARTCHAR char105
ENCODING 105
SWIDTH 777 0
DWIDTH 7 0
BBX 3 25 1 -5
BITMAP
00
E0
E0
E0
00
00
00
E0
E0
E0
E0
E0
E0
E0
E0
E0
E0
E0
E0
E0
00
00
00
00
00
ENDCHAR
STARTCHAR char106
ENCODING 106
SWIDTH 999 0
DWIDTH 9 0
BBX 6 25 0 -5
BITMAP
00
1C
1C
1C
00
00
00
1C
1C
1C
1C
1C
1C
1C
1C
1C
1C
1C
1C
1C
1C
1C
3C
F8
F0
ENDCHAR
STARTCHAR char107
ENCODING 107
SWIDTH 1554 0
DWIDTH 14 0
BBX 11 25 1 -5
BITMAP
0000
0000
E000
E000
E000
E000
E000
E0E0
E1E0
E3C0
E780
EF00
FE00
FC00
FE00
EF00
E780
E3C0
E1E0
E0E0
0000
0000
0000
0000
0000
ENDCHAR
STARTCHAR char108
ENCODING 108
SWIDTH 777 0
DWIDTH 7 0
BBX 3 25 1 -5
BITMAP
00
E0
E0
E0
E0
E0
E0
E0
E0
E0
E0
E0
E0
E0
E0
E0
E0
E0
E0
E0
00
00
00
00
00
ENDCHAR
STARTCHAR char109
ENCODING 109
SWIDTH 2553 0
DWIDTH 23 0
BBX 21 25 1 -5
BITMAP
000000
000000
000000
000000
000000
000000
000000
E7C7E0
EFEFF0
FFFFF8
F0F878
E07038
E07038
E07038
E07038
E07038
E07038
E07038
E07038
E07038
000000
000000
000000
000000
000000
ENDCHAR
STARTCHAR char110
ENCODING 110
SWIDTH 1776 0
DWIDTH 16 0
BBX 14 25 1 -5
BITMAP
0000
0000
0000
0000
0000
0000
E7F0
EFF8
FFFC
F03C
E01C
E01C
E01C
E01C
E01C
E01C
E01C
E01C
E01C
E01C
0000
0000
0000
0000
0000
ENDCHAR
STARTCHAR char111
ENCODING 111
SWIDTH 1887 0
DWIDTH 17 0
BBX 15 25 1 -5
BITMAP
0000
0000
0000
0000
0000
0000
3FF8
7FFC
FFFE
F01E
E00E
E00E
E00E
E00E
E00E
E00E
F01E
FFFE
7FFC
3FF8
0000
0000
0000
0000
0000
ENDCHAR
STARTCHAR char112
ENCODING 112
SWIDTH 1887 0
DWIDTH 17 0
BBX 15 25 1 -5
BITMAP
0000
0000
0000
0000
0000
0000
EFF8
FFFC
FFFE
F01E
E00E
E00E
E00E
E00E
E00E
E00E
F01E
FFFE
FFFC
FFF8
E000
E000
E000
E000
E000
ENDCHAR
STARTCHAR char113
ENCODING 113
SWIDTH 1887 0
DWIDTH 17 0
BBX 14 25 1 -5
BITMAP
0000
0000
0000
0000
0000
0000
3FDC
7FFC
FFFC
F03C
E01C
E01C
E01C
E01C
E01C
E01C
F03C
FFFC
7FFC
3FDC
001C
001C
001C
001C
001C
ENDCHAR
STARTCHAR char114
ENCODING 114
SWIDTH 1332 0
DWIDTH 12 0
BBX 10 25 1 -5
BITMAP
0000
0000
0000
0000
0000
0000
EF80
FFC0
FFC0
F1C0
E000
E000
E000
E000
E000
E000
E000
E000
E000
0000
0000
0000
0000
0000
0000
ENDCHAR
STARTCHAR char115
ENCODING 115
SWIDTH 1887 0
DWIDTH 17 0
BBX 15 25 1 -5
BITMAP
0000
0000
0000
0000
0000
0000
3FF8
7FFC
FFFE
F01E
E000
FFF8
7FFC
3FFE
001E
E00E
F01E
FFFE
7FFC
3FF8
0000
0000
0000
0000
0000
ENDCHAR
STARTCHAR char116
ENCODING 116
SWIDTH 1221 0
DWIDTH 11 0
BBX 8 25 1 -5
BITMAP
00
38
38
38
38
38
FF
FF
38
38
38
38
38
38
38
38
38
3B
3F
3F
00
00
00
00
00
ENDCHAR
STARTCHAR char117
ENCODING 117
SWIDTH 1887 0
DWIDTH 17 0
BBX 15 25 1 -5
BITMAP
0000
0000
0000
0000
0000
0000
E00E
E00E
E00E
E00E
E00E
E00E
E00E
E00E
E00E
E00E
F01E
FFFE
7FFE
3FF6
0000
0000
0000
0000
0000
ENDCHAR
STARTCHAR char118
ENCODING 118
SWIDTH 1665 0
DWIDTH 15 0
BBX 13 25 0 -5
BITMAP
0000
0000
0000
0000
0000
0000
0000
E038
E038
E038
7070
7070
38E0
38E0
1DC0
1DC0
0D80
0F80
0700
0700
0000
0000
0000
0000
0000
ENDCHAR
STARTCHAR char119
ENCODING 119
SWIDTH 2775 0
DWIDTH 25 0
BBX 23 25 0 -5
BITMAP
000000
000000
000000
000000
000000
000000
000000
E0380E
E0380E
E0380E
707C1C
706C1C
38EE38
38EE38
1DC770
1DC770
0D8360
0F83E0
0701C0
0701C0
000000
000000
000000
000000
000000
ENDCHAR
STARTCHAR char120
ENCODING 120
SWIDTH 1665 0
DWIDTH 15 0
BBX 14 25 0 -5
BITMAP
0000
0000
0000
0000
0000
0000
0000
E01C
F03C
7878
3CF0
1FE0
0FC0
0780
0FC0
1FE0
3CF0
7878
F03C
E01C
0000
0000
0000
0000
0000
ENDCHAR
STARTCHAR char121
ENCODING 121
SWIDTH 1665 0
DWIDTH 15 0
BBX 13 25 0 -5
BITMAP
0000
0000
0000
0000
0000
0000
0000
E038
E038
E038
7070
7070
38E0
38E0
1DC0
1DC0
0F80
0F80
0700
0700
0E00
0E00
1C00
1C00
3800
ENDCHAR
STARTCHAR char122
ENCODING 122
SWIDTH 1554 0
DWIDTH 14 0
BBX 11 25 0 -5
BITMAP
0000
0000
0000
0000
0000
0000
0000
FFE0
FFE0
FFE0
01C0
0380
0700
0E00
1C00
3800
7000
FFE0
FFE0
FFE0
0000
0000
0000
0000
0000
ENDCHAR
STARTCHAR char123
ENCODING 123
SWIDTH 1221 0
DWIDTH 11 0
BBX 8 25 1 -5
BITMAP
0F
1C
30
30
30
38
18
18
18
10
20
60
E0
60
20
10
18
18
18
38
30
30
30
1C
0F
ENDCHAR
STARTCHAR char124
ENCODING 124
SWIDTH 777 0
DWIDTH 7 0
BBX 3 25 2 -5
BITMAP
E0
E0
E0
E0
E0
E0
E0
E0
E0
E0
E0
E0
E0
E0
E0
E0
E0
E0
E0
E0
E0
E0
E0
E0
E0
ENDCHAR
STARTCHAR char125
ENCODING 125
SWIDTH 1221 0
DWIDTH 11 0
BBX 8 25 1 -5
BITMAP
F0
38
0C
0C
0C
1C
18
18
18
08
04
06
07
06
04
08
18
18
18
1C
0C
0C
0C
38
F0
ENDCHAR
STARTCHAR char126
ENCODING 126
SWIDTH 1776 0
DWIDTH 16 0
BBX 14 25 0 -5
BITMAP
0000
0000
0000
0000
0000
0000
0000
0000
1C04
3E04
7F0C
6798
C3F8
81F0
80E0
0000
0000
0000
0000
0000
0000
0000
0000
0000
0000
ENDCHAR
STARTCHAR char127
ENCODING 127
SWIDTH 1776 0
DWIDTH 16 0
BBX 1 25 0 -5
BITMAP
00
00
00
00
00
00
00
00
00
00
00
00
00
00
00
00
00
00
00
00
00
00
00
00
00
ENDCHAR
ENDFONT
