STARTFONT 2.1
FONT -MIT-25VRI KST-Medium-R-Normal--25-9-200-200-P-15-ISO8859-1
SIZE 9 200 200
FONTBOUNDINGBOX 26 25 -2 -5
STARTPROPERTIES 17
ADD_STYLE_NAME ""
AVERAGE_WIDTH 15
CHARSET_ENCODING "1"
CHARSET_REGISTRY "ISO8859"
DEFAULT_CHAR 0
FAMILY "25VRI KST"
FONT_ASCENT 20
FONT_DESCENT 5
FOUNDRY "MIT"
PIXEL_SIZE 25
POINT_SIZE 9
RESOLUTION_X 200
RESOLUTION_Y 200
SETWIDTH_NAME "Normal"
SLANT "R"
SPACING "P"
WEIGHT_NAME "Medium"
ENDPROPERTIES
CHARS 122
STARTCHAR char1
ENCODING 1
SWIDTH 1554 0
DWIDTH 14 0
BBX 12 25 0 -5
BITMAP
0600
0600
0600
0600
0600
0600
0600
0600
0600
0600
0600
0600
0600
0600
C630
6660
36C0
1F80
0F00
0600
0000
0000
0000
0000
0000
ENDCHAR
STARTCHAR char2
ENCODING 2
SWIDTH 2442 0
DWIDTH 22 0
BBX 20 25 0 -5
BITMAP
000000
000000
000000
000000
000000
000000
000060
0000C0
000180
000180
1C0300
3F0600
61CE00
C07C00
C03C00
C03000
40E000
61D830
3F0E60
1E07C0
000000
000000
000000
000000
000000
ENDCHAR
STARTCHAR char3
ENCODING 3
SWIDTH 2220 0
DWIDTH 20 0
BBX 18 25 0 -5
BITMAP
000000
000F00
001980
0031C0
0060C0
00C0C0
01C180
018300
010300
030600
030C00
061E00
060600
0C0700
0C0380
1801C0
1800C0
390180
31C300
30FE00
700000
600000
600000
600000
E00000
ENDCHAR
STARTCHAR char4
ENCODING 4
SWIDTH 1887 0
DWIDTH 17 0
BBX 15 25 0 -5
BITMAP
0000
0000
0000
0000
0000
0100
0380
06C0
06C0
0C60
0C60
1830
1830
3018
3018
600C
600C
C006
C006
0000
0000
0000
0000
0000
0000
ENDCHAR
STARTCHAR char5
ENCODING 5
SWIDTH 1332 0
DWIDTH 12 0
BBX 10 25 0 -5
BITMAP
0000
0000
0000
0000
0000
0000
0000
0000
0000
0000
FFC0
FFC0
00C0
00C0
00C0
00C0
0000
0000
0000
0000
0000
0000
0000
0000
0000
ENDCHAR
STARTCHAR char6
ENCODING 6
SWIDTH 1332 0
DWIDTH 12 0
BBX 9 25 0 -5
BITMAP
0000
0000
0000
0000
0780
0C00
1800
3000
6000
6000
E000
FF80
E000
6000
6000
3000
1800
0C00
0780
0000
0000
0000
0000
0000
0000
ENDCHAR
STARTCHAR char7
ENCODING 7
SWIDTH 1776 0
DWIDTH 16 0
BBX 14 25 0 -5
BITMAP
0000
0000
0000
0000
0000
0000
0000
FFC0
FFF8
307C
3060
3060
3060
3060
3060
3060
3060
3060
3060
F060
003C
0000
0000
0000
0000
ENDCHAR
STARTCHAR char8
ENCODING 8
SWIDTH 1665 0
DWIDTH 15 0
BBX 13 25 0 -5
BITMAP
0000
0000
C000
F000
7800
1800
0C00
0C00
0600
0600
0600
0F00
1B00
3180
3180
60C0
E0C0
C060
8038
0018
0000
0000
0000
0000
0000
ENDCHAR
STARTCHAR char11
ENCODING 11
SWIDTH 1554 0
DWIDTH 14 0
BBX 12 25 0 -5
BITMAP
0600
0F00
1F80
36C0
6660
C630
0600
0600
0600
0600
0600
0600
0600
0600
0600
0600
0600
0600
0600
0600
0000
0000
0000
0000
0000
ENDCHAR
STARTCHAR char12
ENCODING 12
SWIDTH 2109 0
DWIDTH 19 0
BBX 19 25 0 -5
BITMAP
000000
0071C0
01DB60
019E60
039E60
038E00
030C00
071C00
071C00
1FFF00
071C00
071C00
0E3800
0E3800
0E3800
0E3800
0C3000
0C3000
1C7000
186000
DB6000
9A6000
B2C000
E38000
000000
ENDCHAR
STARTCHAR char14
ENCODING 14
SWIDTH 2553 0
DWIDTH 23 0
BBX 20 25 1 -5
BITMAP
000000
000000
000000
000000
000000
000000
1E0780
330CC0
619860
C0F030
C06030
C06030
C06030
C06030
C0F030
619860
339CC0
1F0F80
000000
000000
000000
000000
000000
000000
000000
ENDCHAR
STARTCHAR char15
ENCODING 15
SWIDTH 1665 0
DWIDTH 15 0
BBX 13 25 0 -5
BITMAP
1C00
0600
0300
0380
0180
00C0
0060
0060
0030
1F30
3FF0
6078
4038
C018
C018
C018
4030
6030
2060
1FC0
0000
0000
0000
0000
0000
ENDCHAR
STARTCHAR char16
ENCODING 16
SWIDTH 1887 0
DWIDTH 17 0
BBX 14 25 0 -5
BITMAP
0000
0000
0000
0000
0000
0000
1FFC
3FFC
7000
E000
C000
C000
C000
E000
7000
3FFC
1FFC
0000
0000
0000
0000
0000
0000
0000
0000
ENDCHAR
STARTCHAR char17
ENCODING 17
SWIDTH 1887 0
DWIDTH 17 0
BBX 14 25 0 -5
BITMAP
0000
0000
0000
0000
0000
0000
FFE0
FFF0
0038
001C
000C
000C
000C
001C
0038
FFF0
FFE0
0000
0000
0000
0000
0000
0000
0000
0000
ENDCHAR
STARTCHAR char18
ENCODING 18
SWIDTH 1665 0
DWIDTH 15 0
BBX 11 25 1 -5
BITMAP
0000
0000
0000
0000
0000
1F00
3F80
71C0
E0E0
C060
C060
C060
C060
C060
C060
C060
C060
C060
C060
C060
0000
0000
0000
0000
0000
ENDCHAR
STARTCHAR char19
ENCODING 19
SWIDTH 1665 0
DWIDTH 15 0
BBX 11 25 1 -5
BITMAP
0000
0000
0000
0000
0000
C060
C060
C060
C060
C060
C060
C060
C060
C060
C060
C060
E0E0
71C0
3F80
1F00
0000
0000
0000
0000
0000
ENDCHAR
STARTCHAR char20
ENCODING 20
SWIDTH 1776 0
DWIDTH 16 0
BBX 14 25 0 -5
BITMAP
C00C
C00C
6018
6018
6018
3030
3030
3FF0
1FE0
1860
1860
0CC0
0CC0
0CC0
0780
0780
0780
0300
0300
0300
0000
0000
0000
0000
0000
ENDCHAR
STARTCHAR char21
ENCODING 21
SWIDTH 1665 0
DWIDTH 15 0
BBX 13 25 0 -5
BITMAP
FFF8
FFF8
0018
0018
0018
0018
0018
0018
0018
07F8
07F8
0018
0018
0018
0018
0018
0018
0018
FFF8
FFF8
0000
0000
0000
0000
0000
ENDCHAR
STARTCHAR char22
ENCODING 22
SWIDTH 1776 0
DWIDTH 16 0
BBX 14 25 0 -5
BITMAP
0000
0000
0000
0000
0000
0780
1FE0
2010
7878
4CC8
C78C
C30C
C78C
4CC8
7878
3030
1FE0
0780
0000
0000
0000
0000
0000
0000
0000
ENDCHAR
STARTCHAR char23
ENCODING 23
SWIDTH 1998 0
DWIDTH 18 0
BBX 16 25 0 -5
BITMAP
0000
0000
0000
0000
0000
0000
0000
0C30
1818
300C
6006
FFFF
FFFF
6006
300C
1818
0C30
0000
0000
0000
0000
0000
0000
0000
0000
ENDCHAR
STARTCHAR char24
ENCODING 24
SWIDTH 1998 0
DWIDTH 18 0
BBX 16 25 0 -5
BITMAP
0000
0000
0000
0000
0000
0000
0400
0C00
1800
3000
6000
FFFF
FFFF
6000
3000
1800
0C00
0400
0000
0000
0000
0000
0000
0000
0000
ENDCHAR
STARTCHAR char25
ENCODING 25
SWIDTH 1998 0
DWIDTH 18 0
BBX 16 25 0 -5
BITMAP
0000
0000
0000
0000
0000
0000
0020
0030
0018
000C
0006
FFFF
FFFF
0006
000C
0018
0030
0020
0000
0000
0000
0000
0000
0000
0000
ENDCHAR
STARTCHAR char26
ENCODING 26
SWIDTH 1776 0
DWIDTH 16 0
BBX 12 25 1 -5
BITMAP
0000
0000
0030
0030
0060
0060
00C0
00C0
0180
FFF0
FFF0
0300
0600
FFF0
FFF0
1800
3000
3000
6000
6000
C000
C000
0000
0000
0000
ENDCHAR
STARTCHAR char27
ENCODING 27
SWIDTH 1776 0
DWIDTH 16 0
BBX 14 25 0 -5
BITMAP
0000
0000
0000
0000
0000
0000
0000
0000
1C04
3E04
7F0C
6798
C3F8
81F0
80E0
0000
0000
0000
0000
0000
0000
0000
0000
0000
0000
ENDCHAR
STARTCHAR char28
ENCODING 28
SWIDTH 1554 0
DWIDTH 14 0
BBX 12 25 0 -5
BITMAP
0000
0000
0000
0000
0030
00F0
03C0
0F00
3C00
F000
F000
3C00
0F00
03C0
00F0
0030
0000
0000
FFF0
FFF0
0000
0000
0000
0000
0000
ENDCHAR
STARTCHAR char29
ENCODING 29
SWIDTH 1554 0
DWIDTH 14 0
BBX 12 25 0 -5
BITMAP
0000
0000
0000
0000
C000
F000
3C00
0F00
03C0
00F0
00F0
03C0
0F00
3C00
F000
C000
0000
0000
FFF0
FFF0
0000
0000
0000
0000
0000
ENDCHAR
STARTCHAR char30
ENCODING 30
SWIDTH 1332 0
DWIDTH 12 0
BBX 10 25 0 -5
BITMAP
0000
0000
0000
0000
0000
0000
0000
FFC0
FFC0
0000
0000
FFC0
FFC0
0000
0000
FFC0
FFC0
0000
0000
0000
0000
0000
0000
0000
0000
ENDCHAR
STARTCHAR char31
ENCODING 31
SWIDTH 1887 0
DWIDTH 17 0
BBX 15 25 0 -5
BITMAP
0000
0000
0000
0000
0000
0000
C006
C006
600C
600C
3018
3018
1830
1830
0C60
0C60
06C0
06C0
0380
0100
0000
0000
0000
0000
0000
ENDCHAR
STARTCHAR char32
ENCODING 32
SWIDTH 1110 0
DWIDTH 10 0
BBX 1 25 0 -5
BITMAP
00
00
00
00
00
00
00
00
00
00
00
00
00
00
00
00
00
00
00
00
00
00
00
00
00
ENDCHAR
STARTCHAR char33
ENCODING 33
SWIDTH 1110 0
DWIDTH 10 0
BBX 8 25 0 -5
BITMAP
00
06
0F
0F
0E
0E
0E
1C
1C
18
18
18
30
30
30
00
00
70
F0
E0
00
00
00
00
00
ENDCHAR
STARTCHAR char34
ENCODING 34
SWIDTH 1221 0
DWIDTH 11 0
BBX 8 25 1 -5
BITMAP
E7
E7
E7
E7
E7
E7
42
00
00
00
00
00
00
00
00
00
00
00
00
00
00
00
00
00
00
ENDCHAR
STARTCHAR char35
ENCODING 35
SWIDTH 1554 0
DWIDTH 14 0
BBX 14 25 0 -5
BITMAP
0000
0000
0000
0000
0000
0000
0000
0330
0770
0660
3FFC
7FF8
0CC0
0CC0
1980
7FF0
FFE0
3300
7700
6600
0000
0000
0000
0000
0000
ENDCHAR
STARTCHAR char36
ENCODING 36
SWIDTH 1665 0
DWIDTH 15 0
BBX 13 25 0 -5
BITMAP
0000
0140
03E0
0FF0
1E78
3A48
3258
3298
3A80
3E80
1F80
0FC0
07C0
05E0
0560
C530
8930
C960
69E0
7FC0
3F00
1400
1400
0000
0000
ENDCHAR
STARTCHAR char37
ENCODING 37
SWIDTH 1665 0
DWIDTH 15 0
BBX 13 25 0 -5
BITMAP
0000
03F8
0630
7C30
8860
8860
88C0
70C0
0180
0180
0300
0300
0600
0600
0C00
0C70
1888
1888
3088
3070
0000
0000
0000
0000
0000
ENDCHAR
STARTCHAR char38
ENCODING 38
SWIDTH 2442 0
DWIDTH 22 0
BBX 20 25 0 -5
BITMAP
000000
00F800
01DE00
038E00
038E00
038E00
039C00
03B800
03E0C0
03C1E0
0FC3E0
1DE2E0
39E600
71F400
70FC00
F0F800
F87810
787C70
7CFEE0
3FDFC0
1F0700
000000
000000
000000
000000
ENDCHAR
STARTCHAR char39
ENCODING 39
SWIDTH 777 0
DWIDTH 7 0
BBX 5 25 0 -5
BITMAP
00
00
60
F0
F8
F8
18
30
E0
C0
00
00
00
00
00
00
00
00
00
00
00
00
00
00
00
ENDCHAR
STARTCHAR char40
ENCODING 40
SWIDTH 1110 0
DWIDTH 10 0
BBX 8 25 1 -5
BITMAP
01
03
06
0C
18
10
30
20
60
C0
C0
C0
C0
C0
C0
C0
40
40
60
20
30
10
00
00
00
ENDCHAR
STARTCHAR char41
ENCODING 41
SWIDTH 1110 0
DWIDTH 10 0
BBX 8 25 1 -5
BITMAP
08
0C
04
06
02
02
03
03
03
03
03
03
03
06
04
0C
08
18
30
60
C0
80
00
00
00
ENDCHAR
STARTCHAR char42
ENCODING 42
SWIDTH 1887 0
DWIDTH 17 0
BBX 15 25 0 -5
BITMAP
0000
0000
0000
0000
0380
0180
E10E
F11E
3118
0D60
0380
0100
0380
0D60
3118
F11E
E10E
0300
0380
0000
0000
0000
0000
0000
0000
ENDCHAR
STARTCHAR char43
ENCODING 43
SWIDTH 1443 0
DWIDTH 13 0
BBX 10 25 1 -5
BITMAP
0000
0000
0000
0000
0000
0000
0000
0C00
0C00
0C00
0C00
FFC0
FFC0
0C00
0C00
0C00
0C00
0000
0000
0000
0000
0000
0000
0000
0000
ENDCHAR
STARTCHAR char44
ENCODING 44
SWIDTH 777 0
DWIDTH 7 0
BBX 5 25 0 -5
BITMAP
00
00
00
00
00
00
00
00
00
00
00
00
00
00
00
00
20
F0
F8
F8
18
38
60
C0
00
ENDCHAR
STARTCHAR char45
ENCODING 45
SWIDTH 1332 0
DWIDTH 12 0
BBX 10 25 0 -5
BITMAP
0000
0000
0000
0000
0000
0000
0000
0000
0000
0000
0000
FFC0
FFC0
0000
0000
0000
0000
0000
0000
0000
0000
0000
0000
0000
0000
ENDCHAR
STARTCHAR char46
ENCODING 46
SWIDTH 666 0
DWIDTH 6 0
BBX 4 25 0 -5
BITMAP
00
00
00
00
00
00
00
00
00
00
00
00
00
00
00
00
60
F0
F0
F0
00
00
00
00
00
ENDCHAR
STARTCHAR char47
ENCODING 47
SWIDTH 2220 0
DWIDTH 20 0
BBX 19 25 0 -5
BITMAP
000000
000000
000020
000060
0000C0
000180
000300
000600
000C00
001800
003000
006000
00C000
018000
030000
060000
0C0000
180000
300000
600000
C00000
000000
000000
000000
000000
ENDCHAR
STARTCHAR char48
ENCODING 48
SWIDTH 1554 0
DWIDTH 14 0
BBX 11 25 0 -5
BITMAP
0000
0000
0780
0CC0
18C0
38E0
70E0
70E0
70E0
F0E0
E0E0
E0E0
E1E0
E1E0
E1C0
E1C0
E380
E380
6700
3E00
0000
0000
0000
0000
0000
ENDCHAR
STARTCHAR char49
ENCODING 49
SWIDTH 1554 0
DWIDTH 14 0
BBX 8 25 2 -5
BITMAP
00
00
1F
0F
07
07
07
0F
0E
0E
0E
0E
1E
1C
1C
1C
1C
1C
3C
FF
00
00
00
00
00
ENDCHAR
STARTCHAR char50
ENCODING 50
SWIDTH 1554 0
DWIDTH 14 0
BBX 12 25 0 -5
BITMAP
0000
0000
07C0
0CE0
1870
1070
1C70
1C70
1C70
00E0
01C0
0180
0300
0600
0C00
1860
3040
FFC0
FFC0
FFC0
0000
0000
0000
0000
0000
ENDCHAR
STARTCHAR char51
ENCODING 51
SWIDTH 1554 0
DWIDTH 14 0
BBX 12 25 0 -5
BITMAP
0000
0000
0FC0
1CE0
1C70
1C70
08F0
00E0
01E0
0BC0
1FC0
01E0
00E0
00E0
00E0
E1E0
E1E0
E1C0
C380
7F00
0000
0000
0000
0000
0000
ENDCHAR
STARTCHAR char52
ENCODING 52
SWIDTH 1554 0
DWIDTH 14 0
BBX 12 25 0 -5
BITMAP
0000
0000
0060
00E0
01E0
01E0
03E0
05C0
0DC0
09C0
19C0
33C0
2390
6390
FFF0
03B0
03B0
0780
0780
1FC0
0000
0000
0000
0000
0000
ENDCHAR
STARTCHAR char53
ENCODING 53
SWIDTH 1554 0
DWIDTH 14 0
BBX 12 25 0 -5
BITMAP
0000
0010
0FF0
0FE0
1FE0
1800
1000
1000
1000
3800
3F80
01C0
00E0
00E0
40E0
E0E0
E1E0
61C0
6380
3F00
0000
0000
0000
0000
0000
ENDCHAR
STARTCHAR char54
ENCODING 54
SWIDTH 1554 0
DWIDTH 14 0
BBX 11 25 0 -5
BITMAP
0000
00E0
03C0
0700
0C00
1C00
3800
7800
7780
FDC0
F0E0
E0E0
E0E0
E0E0
E0E0
C1E0
C1C0
E1C0
6380
3E00
0000
0000
0000
0000
0000
ENDCHAR
STARTCHAR char55
ENCODING 55
SWIDTH 1554 0
DWIDTH 14 0
BBX 11 25 0 -5
BITMAP
0000
0000
3FE0
3FE0
7FE0
40C0
C080
0180
0100
0300
0300
0600
0600
0C00
1C00
3800
3800
3800
3800
3800
0000
0000
0000
0000
0000
ENDCHAR
STARTCHAR char56
ENCODING 56
SWIDTH 1554 0
DWIDTH 14 0
BBX 12 25 0 -5
BITMAP
0000
0000
07E0
0E70
1C70
1C70
3C70
3870
1870
1CE0
0FC0
1FC0
38E0
70E0
70E0
F0E0
F0E0
61E0
73C0
3F80
0000
0000
0000
0000
0000
ENDCHAR
STARTCHAR char57
ENCODING 57
SWIDTH 1554 0
DWIDTH 14 0
BBX 12 25 0 -5
BITMAP
0000
0000
07C0
1C60
3870
3830
7830
7070
7070
7070
7070
70F0
39E0
1FE0
01E0
01C0
0380
0600
1C00
7800
E000
0000
0000
0000
0000
ENDCHAR
STARTCHAR char58
ENCODING 58
SWIDTH 777 0
DWIDTH 7 0
BBX 5 25 0 -5
BITMAP
00
00
00
00
00
00
00
00
10
78
78
78
00
00
00
00
40
F0
F0
F0
00
00
00
00
00
ENDCHAR
STARTCHAR char59
ENCODING 59
SWIDTH 888 0
DWIDTH 8 0
BBX 6 25 0 -5
BITMAP
00
00
00
00
00
00
00
00
08
3C
3C
3C
00
00
00
00
20
F0
F8
F8
18
38
60
C0
00
ENDCHAR
STARTCHAR char60
ENCODING 60
SWIDTH 1554 0
DWIDTH 14 0
BBX 12 25 0 -5
BITMAP
0000
0000
0000
0000
0030
00F0
03C0
0F00
3C00
F000
F000
3C00
0F00
03C0
00F0
0030
0000
0000
0000
0000
0000
0000
0000
0000
0000
ENDCHAR
STARTCHAR char61
ENCODING 61
SWIDTH 1776 0
DWIDTH 16 0
BBX 13 25 1 -5
BITMAP
0000
0000
0000
0000
0000
0000
0000
0000
0000
FFF8
FFF8
0000
0000
FFF8
FFF8
0000
0000
0000
0000
0000
0000
0000
0000
0000
0000
ENDCHAR
STARTCHAR char62
ENCODING 62
SWIDTH 1554 0
DWIDTH 14 0
BBX 12 25 0 -5
BITMAP
0000
0000
0000
0000
C000
F000
3C00
0F00
03C0
00F0
00F0
03C0
0F00
3C00
F000
C000
0000
0000
0000
0000
0000
0000
0000
0000
0000
ENDCHAR
STARTCHAR char63
ENCODING 63
SWIDTH 1443 0
DWIDTH 13 0
BBX 11 25 0 -5
BITMAP
0000
0000
1FC0
30C0
3860
3860
3860
00E0
01E0
07C0
0FC0
1F00
1C00
1800
3000
3000
0000
2000
7000
F800
7000
0000
0000
0000
0000
ENDCHAR
STARTCHAR char64
ENCODING 64
SWIDTH 2220 0
DWIDTH 20 0
BBX 17 25 1 -5
BITMAP
000000
000000
000000
000000
000000
0FFC00
1FFE00
300F00
600300
47C180
CFE180
9C7180
983180
983180
983180
983300
9C7F00
8FFE00
C00000
600000
3FFF80
000000
000000
000000
000000
ENDCHAR
STARTCHAR char65
ENCODING 65
SWIDTH 2220 0
DWIDTH 20 0
BBX 18 25 0 -5
BITMAP
000000
001FC0
003FC0
0033C0
0063C0
0063C0
00C3C0
00C3C0
0183C0
0303C0
0303C0
0603C0
07FFC0
0C03C0
0C0380
180780
180780
380780
300F80
FC3FC0
000000
000000
000000
000000
000000
ENDCHAR
STARTCHAR char66
ENCODING 66
SWIDTH 2109 0
DWIDTH 19 0
BBX 17 25 0 -5
BITMAP
000000
1FFE00
038700
078380
078380
078780
078780
070780
0F0F00
0F1C00
0FF800
0F1E00
0E0E00
1E0F00
1E0700
1E0700
1C0F00
1C0E00
3C3E00
FFF800
000000
000000
000000
000000
000000
ENDCHAR
STARTCHAR char67
ENCODING 67
SWIDTH 1887 0
DWIDTH 17 0
BBX 16 25 0 -5
BITMAP
01F8
079D
0F07
1E07
3C02
7802
7800
7800
F000
F000
F000
F000
F000
F000
F006
F006
780C
7E3C
3FFC
0F8E
0000
0000
0000
0000
0000
ENDCHAR
STARTCHAR char68
ENCODING 68
SWIDTH 2220 0
DWIDTH 20 0
BBX 18 25 0 -5
BITMAP
000000
0FFC00
03CF00
07C380
078380
0781C0
0781C0
0781C0
0F01C0
0F01C0
0F01C0
0F03C0
0F03C0
1E03C0
1E0380
1E0780
1E0700
1E0F00
3C7C00
FFF000
000000
000000
000000
000000
000000
ENDCHAR
STARTCHAR char69
ENCODING 69
SWIDTH 2109 0
DWIDTH 19 0
BBX 17 25 0 -5
BITMAP
000000
1FFF80
078780
078180
078180
078180
079980
0F1800
0F1000
0F7000
0FF000
1F3000
1E3000
1E3000
1E2300
1E0300
3C0600
3C0E00
3C1E00
FFFE00
000000
000000
000000
000000
000000
ENDCHAR
STARTCHAR char70
ENCODING 70
SWIDTH 2220 0
DWIDTH 20 0
BBX 18 25 0 -5
BITMAP
000000
0FFFC0
03C3C0
07C080
078080
078080
078880
079800
0F1800
0F7000
0FF000
0F3000
0E3000
1E3000
1E3000
1E0000
1E0000
1E0000
3C0000
FF0000
000000
000000
000000
000000
000000
ENDCHAR
STARTCHAR char71
ENCODING 71
SWIDTH 2109 0
DWIDTH 19 0
BBX 17 25 0 -5
BITMAP
000000
01F380
079B80
0E0F00
1E0F00
3C0700
380300
780200
780000
F00000
F00000
F00000
F00000
F03F80
F01E00
F01E00
783E00
783C00
3C7800
1FF000
0FC000
000000
000000
000000
000000
ENDCHAR
STARTCHAR char72
ENCODING 72
SWIDTH 2664 0
DWIDTH 24 0
BBX 22 25 0 -5
BITMAP
000000
0FF3FC
03C0F0
03C0F0
0781E0
0781E0
0781E0
0781E0
0F03C0
0F03C0
0FFFC0
0F03C0
0F03C0
0F03C0
1E0780
1E0780
1E0780
1E0780
3C0F00
FF3FC0
000000
000000
000000
000000
000000
ENDCHAR
STARTCHAR char73
ENCODING 73
SWIDTH 1443 0
DWIDTH 13 0
BBX 12 25 0 -5
BITMAP
0000
0FF0
03C0
03C0
0780
0780
0780
0780
0F00
0F00
0F00
0F00
0F00
1E00
1E00
1E00
1E00
3C00
3C00
FF00
0000
0000
0000
0000
0000
ENDCHAR
STARTCHAR char74
ENCODING 74
SWIDTH 1776 0
DWIDTH 16 0
BBX 14 25 0 -5
BITMAP
0000
03FC
00F0
00F0
01E0
01E0
01E0
01E0
01E0
03C0
03C0
03C0
03C0
03C0
03C0
0780
0780
0780
6700
E700
C700
7E00
1800
0000
0000
ENDCHAR
STARTCHAR char75
ENCODING 75
SWIDTH 2442 0
DWIDTH 22 0
BBX 20 25 0 -5
BITMAP
000000
1FF3F0
03C0C0
078180
078300
078600
078C00
0F1800
0F7000
0FE000
0FE000
0FF000
1E7800
1E7800
1E3C00
1E1E00
1E0E00
3C0F00
3C0780
FF1FE0
000000
000000
000000
000000
000000
ENDCHAR
STARTCHAR char76
ENCODING 76
SWIDTH 1887 0
DWIDTH 17 0
BBX 15 25 0 -5
BITMAP
0000
0FF0
03C0
0780
0780
0780
0780
0F00
0F00
0F00
0F00
0F00
1E00
1E00
1E02
1E02
3C06
3C0E
3C1E
FFFC
0000
0000
0000
0000
0000
ENDCHAR
STARTCHAR char77
ENCODING 77
SWIDTH 2886 0
DWIDTH 26 0
BBX 24 25 0 -5
BITMAP
000000
0FE03F
03E07C
03E07C
03E0F8
07E0F8
07E1F8
07E178
07E378
05E278
0DE6F0
0DE4F0
0DFCF0
09F8F0
18F9F0
18F1E0
18F1E0
18E1E0
10C1E0
FCCFF8
000000
000000
000000
000000
000000
ENDCHAR
STARTCHAR char78
ENCODING 78
SWIDTH 2331 0
DWIDTH 21 0
BBX 21 25 0 -5
BITMAP
000000
1FC0F8
03C030
07C030
07E020
05E060
04F060
04F060
0C7840
0C78C0
083CC0
083CC0
183C80
181E80
101F80
100F80
100F80
300700
300700
FC0300
000000
000000
000000
000000
000000
ENDCHAR
STARTCHAR char79
ENCODING 79
SWIDTH 1998 0
DWIDTH 18 0
BBX 16 25 0 -5
BITMAP
0000
03F8
071C
0E0E
1C06
3C07
7807
7807
780F
F00F
F00F
F00F
F00F
F01E
E01E
E01E
E03C
6038
7070
38E0
1F80
0000
0000
0000
0000
ENDCHAR
STARTCHAR char80
ENCODING 80
SWIDTH 2220 0
DWIDTH 20 0
BBX 18 25 0 -5
BITMAP
000000
0FFC00
03CF00
078380
078380
0783C0
0783C0
0F03C0
0F0780
0F0F00
0FFE00
0FF000
1E0000
1E0000
1E0000
1E0000
3C0000
3C0000
3C0000
FF0000
000000
000000
000000
000000
000000
ENDCHAR
STARTCHAR char81
ENCODING 81
SWIDTH 1998 0
DWIDTH 18 0
BBX 16 25 0 -5
BITMAP
0000
03F8
071C
0E0E
1C06
3C07
7807
7807
780F
F00F
F00F
F00F
F00F
F01E
E01E
E01E
E03C
6038
7070
38E0
1F80
0F00
0700
0780
03C0
ENDCHAR
STARTCHAR char82
ENCODING 82
SWIDTH 2109 0
DWIDTH 19 0
BBX 17 25 0 -5
BITMAP
000000
1FFE00
078F00
078780
0F0780
0F0780
0F0780
0F0700
1E0F00
1FFC00
1FE000
1E7000
1E3800
1E3C00
3C1C00
3C1E00
3C1E00
3C1E00
780E00
FE0F80
000000
000000
000000
000000
000000
ENDCHAR
STARTCHAR char83
ENCODING 83
SWIDTH 1776 0
DWIDTH 16 0
BBX 14 25 0 -5
BITMAP
0000
07E4
0C7C
181C
101C
3008
3808
3E00
1F80
1FC0
0FE0
03F0
01F0
00F8
4078
C038
C038
E030
F060
9DC0
0F00
0000
0000
0000
0000
ENDCHAR
STARTCHAR char84
ENCODING 84
SWIDTH 1998 0
DWIDTH 18 0
BBX 18 25 0 -5
BITMAP
000000
3FFFC0
38E780
71E180
61E180
41E180
C3C180
03C000
03C000
03C000
03C000
078000
078000
078000
078000
0F0000
0F0000
0F0000
0F0000
7FC000
000000
000000
000000
000000
000000
ENDCHAR
STARTCHAR char85
ENCODING 85
SWIDTH 2220 0
DWIDTH 20 0
BBX 20 25 0 -5
BITMAP
000000
7F81F0
1E0060
1E0040
3C0040
3C00C0
3C0080
3C0080
780180
780100
780100
780100
780300
F00200
F00600
F00600
F00400
700C00
783800
3FF000
070000
000000
000000
000000
000000
ENDCHAR
STARTCHAR char86
ENCODING 86
SWIDTH 1998 0
DWIDTH 18 0
BBX 15 25 1 -5
BITMAP
0000
FE3E
700C
7018
7010
7030
7020
7060
7040
70C0
7080
7180
7100
7300
7200
7600
7400
7C00
7800
7800
0000
0000
0000
0000
0000
ENDCHAR
STARTCHAR char87
ENCODING 87
SWIDTH 2997 0
DWIDTH 27 0
BBX 26 25 0 -5
BITMAP
00000000
FFFFFFC0
3C3C6300
3C3CC600
3C3D8C00
3C3D0800
3C3F1800
3C3E1000
3C3E3000
787C6000
787C4000
78F8C000
79F98000
79790000
7B7B0000
7E7E0000
7C7C0000
7C7C0000
78780000
70780000
00000000
00000000
00000000
00000000
00000000
ENDCHAR
STARTCHAR char88
ENCODING 88
SWIDTH 2331 0
DWIDTH 21 0
BBX 19 25 0 -5
BITMAP
000000
1FE7E0
078180
07C100
03C300
03C600
01E400
01EC00
01F800
00F000
00F000
00F800
00F800
01F800
033C00
023C00
063C00
0C1E00
081E00
FE7FC0
000000
000000
000000
000000
000000
ENDCHAR
STARTCHAR char89
ENCODING 89
SWIDTH 2220 0
DWIDTH 20 0
BBX 18 25 0 -5
BITMAP
000000
FF9FC0
3C0600
1E0600
1E0C00
1E0800
1E1800
0F1000
0F3000
0F2000
076000
07C000
07C000
078000
078000
0F0000
0F0000
0F0000
0F0000
7FC000
000000
000000
000000
000000
000000
ENDCHAR
STARTCHAR char90
ENCODING 90
SWIDTH 2109 0
DWIDTH 19 0
BBX 17 25 0 -5
BITMAP
000000
07FF80
0F0780
0E1F80
0C1E00
083E00
083C00
007800
00F800
00F000
01E000
03E000
07C000
0F8000
0F0200
1F0600
1E0600
3C0E00
7C1C00
FFFC00
000000
000000
000000
000000
000000
ENDCHAR
STARTCHAR char91
ENCODING 91
SWIDTH 1665 0
DWIDTH 15 0
BBX 13 25 0 -5
BITMAP
00F8
01F8
01C0
01C0
0180
0380
0380
0380
0700
0700
0600
0E00
0E00
1C00
1C00
1C00
3800
3800
3800
7000
7000
7000
E000
E000
F800
ENDCHAR
STARTCHAR char92
ENCODING 92
SWIDTH 1443 0
DWIDTH 13 0
BBX 10 25 1 -5
BITMAP
C000
E000
6000
6000
7000
3000
3000
3800
1800
1800
1C00
0C00
0C00
0E00
0600
0600
0700
0300
0300
0380
0180
0180
01C0
00C0
00C0
ENDCHAR
STARTCHAR char93
ENCODING 93
SWIDTH 1665 0
DWIDTH 15 0
BBX 13 25 0 -5
BITMAP
00F8
00F8
0038
0038
0030
0070
0070
0060
00E0
00C0
01C0
01C0
0180
0380
0380
0300
0700
0700
0600
0E00
0E00
0C00
1C00
3C00
F800
ENDCHAR
STARTCHAR char95
ENCODING 95
SWIDTH 1776 0
DWIDTH 16 0
BBX 16 25 0 -5
BITMAP
0000
0000
0000
0000
0000
0000
0000
0000
0000
0000
0000
0000
0000
0000
0000
0000
0000
0000
0000
0000
0000
FFFF
FFFF
0000
0000
ENDCHAR
STARTCHAR char96
ENCODING 96
SWIDTH 777 0
DWIDTH 7 0
BBX 5 25 0 -5
BITMAP
00
70
F8
F0
80
C0
60
30
18
00
00
00
00
00
00
00
00
00
00
00
00
00
00
00
00
ENDCHAR
STARTCHAR char97
ENCODING 97
SWIDTH 1665 0
DWIDTH 15 0
BBX 13 25 0 -5
BITMAP
0000
0000
0000
0000
0000
0000
0000
0000
0700
1FB0
3CF0
78F0
70E0
F0E0
F0C0
E1C0
E1C8
E398
67F0
7DE0
0000
0000
0000
0000
0000
ENDCHAR
STARTCHAR char98
ENCODING 98
SWIDTH 1554 0
DWIDTH 14 0
BBX 11 25 0 -5
BITMAP
0000
3E00
1E00
1E00
1C00
1C00
3C00
3800
3980
7FC0
7CE0
78E0
70E0
70E0
F0E0
E0E0
E1E0
E1C0
E380
7F00
0000
0000
0000
0000
0000
ENDCHAR
STARTCHAR char99
ENCODING 99
SWIDTH 1443 0
DWIDTH 13 0
BBX 11 25 0 -5
BITMAP
0000
0000
0000
0000
0000
0000
0000
0000
0380
1FC0
3CE0
78E0
70C0
F000
F000
F000
E040
E0C0
7180
3F00
0000
0000
0000
0000
0000
ENDCHAR
STARTCHAR char100
ENCODING 100
SWIDTH 1776 0
DWIDTH 16 0
BBX 14 25 0 -5
BITMAP
0000
00FC
003C
0038
0038
0038
0078
0070
0770
1F70
3DF0
38E0
78E0
71E0
F1E0
E1C0
E1C8
63D8
77F0
3E60
0000
0000
0000
0000
0000
ENDCHAR
STARTCHAR char101
ENCODING 101
SWIDTH 1443 0
DWIDTH 13 0
BBX 11 25 0 -5
BITMAP
0000
0000
0000
0000
0000
0000
0000
0000
0380
0FE0
3CE0
38E0
78E0
F1E0
FF80
F000
E040
60C0
7180
3F00
0000
0000
0000
0000
0000
ENDCHAR
STARTCHAR char102
ENCODING 102
SWIDTH 1443 0
DWIDTH 13 0
BBX 13 25 0 -5
BITMAP
0000
0070
01D8
0198
0398
0380
0300
0700
0700
3FF0
0700
0700
0E00
0E00
0E00
0E00
0C00
0C00
1C00
1C00
D800
9800
B000
E000
0000
ENDCHAR
STARTCHAR char103
ENCODING 103
SWIDTH 1887 0
DWIDTH 17 0
BBX 14 25 1 -5
BITMAP
0000
0000
0000
0000
0000
0000
0000
0000
0000
018C
07DC
0EF4
1C60
1860
1860
18E0
3DC0
6380
7000
3F80
7FC0
E0E0
C060
E0C0
3F80
ENDCHAR
STARTCHAR char104
ENCODING 104
SWIDTH 1665 0
DWIDTH 15 0
BBX 13 25 0 -5
BITMAP
0000
1F00
0700
0F00
0F00
0F00
0E00
1E00
1E00
1CE0
1DF0
3F38
3C38
3C70
3870
7860
78E8
70F8
70F0
F060
0000
0000
0000
0000
0000
ENDCHAR
STARTCHAR char105
ENCODING 105
SWIDTH 999 0
DWIDTH 9 0
BBX 7 25 0 -5
BITMAP
00
0C
1E
1E
1E
00
00
00
FC
FC
3C
38
38
78
78
72
F2
F6
FC
78
00
00
00
00
00
ENDCHAR
STARTCHAR char106
ENCODING 106
SWIDTH 1665 0
DWIDTH 15 0
BBX 13 25 0 -5
BITMAP
0000
0000
0078
0078
0070
0000
0000
0000
07E0
07E0
00E0
01E0
01E0
01C0
01C0
03C0
0380
0380
0780
0780
0700
0F00
6F00
EE00
7C00
ENDCHAR
STARTCHAR char107
ENCODING 107
SWIDTH 1665 0
DWIDTH 15 0
BBX 13 25 0 -5
BITMAP
0000
3F00
0F00
0E00
0E00
1E00
1E00
1C00
1C70
1CF8
3CB8
3D30
3F00
3F80
79C0
79C0
7398
7390
F3F0
F1E0
0000
0000
0000
0000
0000
ENDCHAR
STARTCHAR char108
ENCODING 108
SWIDTH 1110 0
DWIDTH 10 0
BBX 8 25 0 -5
BITMAP
00
3F
0F
0E
0E
1E
1E
1C
1C
1C
3C
38
38
78
78
70
72
F6
FC
78
00
00
00
00
00
ENDCHAR
STARTCHAR char109
ENCODING 109
SWIDTH 2664 0
DWIDTH 24 0
BBX 21 25 1 -5
BITMAP
000000
000000
000000
000000
000000
000000
000000
000000
7EF1C0
7DF7E0
1E3CF0
3C38F0
3878E0
3870E0
3871E0
78F1C0
70F1C8
70E1D8
70E1F0
F1E0E0
000000
000000
000000
000000
000000
ENDCHAR
STARTCHAR char110
ENCODING 110
SWIDTH 1665 0
DWIDTH 15 0
BBX 13 25 0 -5
BITMAP
0000
0000
0000
0000
0000
0000
0000
0000
7CE0
7DF0
1E78
3C78
3C70
3C70
38E0
78E0
78E8
70F8
70F0
F070
0000
0000
0000
0000
0000
ENDCHAR
STARTCHAR char111
ENCODING 111
SWIDTH 1554 0
DWIDTH 14 0
BBX 12 25 0 -5
BITMAP
0000
0000
0000
0000
0000
0000
0000
0000
0380
1FC0
38E0
3860
7070
F0F0
F0F0
F0E0
E1E0
E1C0
7380
3F00
0000
0000
0000
0000
0000
ENDCHAR
STARTCHAR char112
ENCODING 112
SWIDTH 1776 0
DWIDTH 16 0
BBX 14 25 0 -5
BITMAP
0000
0000
0000
0000
0000
0000
0000
0000
0000
3E70
0ED8
0F1C
0F0C
1E0C
1E0C
1C1C
1C1C
3E38
3B78
39E0
3800
7800
7000
7000
F800
ENDCHAR
STARTCHAR char113
ENCODING 113
SWIDTH 1665 0
DWIDTH 15 0
BBX 13 25 0 -5
BITMAP
0000
0000
0000
0000
0000
0000
0000
0000
0000
0738
1FF0
3C70
7070
6070
E0E0
E0E0
E0E0
61E0
63C0
3DC0
01C0
03C0
0380
0380
07C0
ENDCHAR
STARTCHAR char114
ENCODING 114
SWIDTH 1221 0
DWIDTH 11 0
BBX 10 25 0 -5
BITMAP
0000
0000
0000
0000
0000
0000
0000
0000
0180
FBC0
3FC0
7D80
7800
7800
7000
7000
F000
F000
E000
E000
0000
0000
0000
0000
0000
ENDCHAR
STARTCHAR char115
ENCODING 115
SWIDTH 1221 0
DWIDTH 11 0
BBX 9 25 0 -5
BITMAP
0000
0000
0000
0000
0000
0000
0000
0000
0F00
1B80
3180
3980
3C00
3E00
1F00
0F80
6780
E380
E300
7E00
0000
0000
0000
0000
0000
ENDCHAR
STARTCHAR char116
ENCODING 116
SWIDTH 1110 0
DWIDTH 10 0
BBX 8 25 0 -5
BITMAP
00
00
00
00
00
00
1C
1C
1C
FF
3C
38
38
78
78
70
72
76
FC
78
00
00
00
00
00
ENDCHAR
STARTCHAR char117
ENCODING 117
SWIDTH 1776 0
DWIDTH 16 0
BBX 14 25 0 -5
BITMAP
0000
0000
0000
0000
0000
0000
0000
0000
0000
F8F0
78F0
78E0
70E0
70E0
71E0
F1C0
E1CC
E3C8
EF78
7C30
0000
0000
0000
0000
0000
ENDCHAR
STARTCHAR char118
ENCODING 118
SWIDTH 1554 0
DWIDTH 14 0
BBX 12 25 0 -5
BITMAP
0000
0000
0000
0000
0000
0000
0000
0000
1C30
3E70
6E70
CE10
CE10
1C30
1C30
3C20
3860
38C0
3980
1F00
0000
0000
0000
0000
0000
ENDCHAR
STARTCHAR char119
ENCODING 119
SWIDTH 2220 0
DWIDTH 20 0
BBX 18 25 0 -5
BITMAP
000000
000000
000000
000000
000000
000000
000000
000000
1C0080
3E3DC0
7E3DC0
DC38C0
9C7840
1C7840
38F8C0
38F080
39F180
7B7180
7F7300
3E3E00
000000
000000
000000
000000
000000
ENDCHAR
STARTCHAR char120
ENCODING 120
SWIDTH 1776 0
DWIDTH 16 0
BBX 14 25 0 -5
BITMAP
0000
0000
0000
0000
0000
0000
0000
0000
0C08
3E3C
6E6C
46C0
C780
0780
0700
0710
0F10
4FB0
DBE0
71C0
0000
0000
0000
0000
0000
ENDCHAR
STARTCHAR char121
ENCODING 121
SWIDTH 1665 0
DWIDTH 15 0
BBX 14 25 0 -5
BITMAP
0000
0000
0000
0000
0000
0000
0000
0000
0000
0C0C
3E1C
3E1C
6E30
4F20
4760
0760
07C0
03C0
0380
0380
0300
0300
C600
EC00
7800
ENDCHAR
STARTCHAR char122
ENCODING 122
SWIDTH 1554 0
DWIDTH 14 0
BBX 12 25 0 -5
BITMAP
0000
0000
0000
0000
0000
0000
0000
0000
1810
1F10
3FF0
39E0
2180
0300
0600
1C40
3860
7E20
DFE0
87C0
0000
0000
0000
0000
0000
ENDCHAR
STARTCHAR char123
ENCODING 123
SWIDTH 1221 0
DWIDTH 11 0
BBX 8 25 1 -5
BITMAP
0F
1C
30
30
30
38
18
18
18
10
20
60
E0
60
20
10
18
18
18
38
30
30
30
1C
0F
ENDCHAR
STARTCHAR char124
ENCODING 124
SWIDTH 777 0
DWIDTH 7 0
BBX 2 25 2 -5
BITMAP
C0
C0
C0
C0
C0
C0
C0
C0
C0
C0
C0
C0
C0
C0
C0
C0
C0
C0
C0
C0
C0
C0
C0
C0
C0
ENDCHAR
STARTCHAR char125
ENCODING 125
SWIDTH 1221 0
DWIDTH 11 0
BBX 8 25 1 -5
BITMAP
F0
38
0C
0C
0C
1C
18
18
18
08
04
06
07
06
04
08
18
18
18
1C
0C
0C
0C
38
F0
ENDCHAR
STARTCHAR char126
ENCODING 126
SWIDTH 1776 0
DWIDTH 16 0
BBX 14 25 0 -5
BITMAP
0000
0000
0000
0000
0000
0000
0000
0000
1C04
3E04
7F0C
6798
C3F8
81F0
80E0
0000
0000
0000
0000
0000
0000
0000
0000
0000
0000
ENDCHAR
ENDFONT
