STARTFONT 2.1
FONT -MIT-30FGB1 KST-Medium-R-Normal--30-10-200-200-P-16-ISO8859-1
SIZE 10 200 200
FONTBOUNDINGBOX 16 30 -7 -10
STARTPROPERTIES 17
ADD_STYLE_NAME ""
AVERAGE_WIDTH 16
CHARSET_ENCODING "1"
CHARSET_REGISTRY "ISO8859"
DEFAULT_CHAR 0
FAMILY "30FGB1 KST"
FONT_ASCENT 20
FONT_DESCENT 10
FOUNDRY "MIT"
PIXEL_SIZE 30
POINT_SIZE 10
RESOLUTION_X 200
RESOLUTION_Y 200
SETWIDTH_NAME "Normal"
SLANT "R"
SPACING "P"
WEIGHT_NAME "Medium"
ENDPROPERTIES
CHARS 98
STARTCHAR char11
ENCODING 11
SWIDTH 1600 0
DWIDTH 16 0
BBX 9 30 4 -10
BITMAP
0000
0000
0000
0800
1C00
3E00
7F00
FF80
DD80
9C80
1C00
1C00
1C00
1C00
1C00
1C00
1C00
1C00
0000
0000
0000
0000
0000
0000
0000
0000
0000
0000
0000
0000
ENDCHAR
STARTCHAR char28
ENCODING 28
SWIDTH 1600 0
DWIDTH 16 0
BBX 11 30 3 -10
BITMAP
0000
0000
0C00
1E00
0F00
0780
03C0
00E0
00E0
00E0
00E0
01C0
03C0
8780
CF00
FE00
FC00
F800
FC00
FE00
0000
0000
0000
0000
0000
0000
0000
0000
0000
0000
ENDCHAR
STARTCHAR char29
ENCODING 29
SWIDTH 1600 0
DWIDTH 16 0
BBX 14 30 1 -10
BITMAP
0000
0000
0000
0000
0000
C000
F000
3C00
1F00
07C0
01F0
007C
007C
01F0
03E0
0F80
3E00
F800
C000
0000
0000
0000
FFFC
FFFC
0000
0000
0000
0000
0000
0000
ENDCHAR
STARTCHAR char31
ENCODING 31
SWIDTH 1600 0
DWIDTH 16 0
BBX 1 30 0 -10
BITMAP
00
00
00
00
00
00
00
00
00
00
00
00
00
00
00
00
00
00
00
00
00
00
00
00
00
00
00
00
00
00
ENDCHAR
STARTCHAR char32
ENCODING 32
SWIDTH 1600 0
DWIDTH 16 0
BBX 1 30 0 -10
BITMAP
00
00
00
00
00
00
00
00
00
00
00
00
00
00
00
00
00
00
00
00
00
00
00
00
00
00
00
00
00
00
ENDCHAR
STARTCHAR char33
ENCODING 33
SWIDTH 1600 0
DWIDTH 16 0
BBX 3 30 6 -10
BITMAP
00
E0
E0
E0
E0
E0
E0
E0
E0
E0
E0
E0
E0
E0
00
00
00
E0
E0
E0
00
00
00
00
00
00
00
00
00
00
ENDCHAR
STARTCHAR char34
ENCODING 34
SWIDTH 1600 0
DWIDTH 16 0
BBX 8 30 4 -10
BITMAP
00
E7
E7
E7
E7
E7
E7
E7
E7
E7
00
00
00
00
00
00
00
00
00
00
00
00
00
00
00
00
00
00
00
00
ENDCHAR
STARTCHAR char35
ENCODING 35
SWIDTH 1600 0
DWIDTH 16 0
BBX 14 30 1 -10
BITMAP
0198
0198
0330
0330
0330
0660
0660
7FFC
7FFC
0CC0
0CC0
FFF8
FFF8
1980
1980
3300
3300
3300
6600
6600
0000
0000
0000
0000
0000
0000
0000
0000
0000
0000
ENDCHAR
STARTCHAR char36
ENCODING 36
SWIDTH 1600 0
DWIDTH 16 0
BBX 12 30 2 -10
BITMAP
0600
1FC0
3FE0
7660
6600
6600
6600
7600
3E00
1F80
07C0
06E0
0670
0630
0630
C630
C630
E670
7FE0
3FC0
0600
0000
0000
0000
0000
0000
0000
0000
0000
0000
ENDCHAR
STARTCHAR char37
ENCODING 37
SWIDTH 1600 0
DWIDTH 16 0
BBX 14 30 1 -10
BITMAP
0000
0038
7838
FC70
CC70
CCE0
CCE0
FDC0
79C0
0380
0380
0700
0700
0E78
0EFC
1CCC
1CCC
38CC
38FC
7078
7000
0000
0000
0000
0000
0000
0000
0000
0000
0000
ENDCHAR
STARTCHAR char38
ENCODING 38
SWIDTH 1600 0
DWIDTH 16 0
BBX 14 30 1 -10
BITMAP
0000
0F00
1F80
39C0
30C0
30C0
39C0
1F80
0F00
1F0C
3F8C
71DC
E0F8
C0F8
C070
C0F0
E0F8
71DC
7F9C
1F0C
0000
0000
0000
0000
0000
0000
0000
0000
0000
0000
ENDCHAR
STARTCHAR char39
ENCODING 39
SWIDTH 1600 0
DWIDTH 16 0
BBX 3 30 7 -10
BITMAP
00
E0
E0
E0
E0
E0
E0
E0
E0
E0
00
00
00
00
00
00
00
00
00
00
00
00
00
00
00
00
00
00
00
00
ENDCHAR
STARTCHAR char40
ENCODING 40
SWIDTH 1600 0
DWIDTH 16 0
BBX 7 30 4 -10
BITMAP
0E
1C
1C
38
38
70
70
E0
E0
E0
E0
E0
E0
E0
E0
E0
E0
70
70
38
38
1C
1C
0E
00
00
00
00
00
00
ENDCHAR
STARTCHAR char41
ENCODING 41
SWIDTH 1600 0
DWIDTH 16 0
BBX 7 30 5 -10
BITMAP
E0
70
70
38
38
1C
1C
0E
0E
0E
0E
0E
0E
0E
0E
0E
0E
1C
1C
38
38
70
70
E0
00
00
00
00
00
00
ENDCHAR
STARTCHAR char42
ENCODING 42
SWIDTH 1600 0
DWIDTH 16 0
BBX 11 30 2 -10
BITMAP
0000
0400
0E00
CE60
EEE0
FFE0
7FC0
3F80
1F00
3F80
7BC0
F1E0
E0E0
0000
0000
0000
0000
0000
0000
0000
0000
0000
0000
0000
0000
0000
0000
0000
0000
0000
ENDCHAR
STARTCHAR char43
ENCODING 43
SWIDTH 1600 0
DWIDTH 16 0
BBX 13 30 1 -10
BITMAP
0000
0000
0000
0000
0000
0700
0700
0700
0700
0700
FFF8
FFF8
FFF8
0700
0700
0700
0700
0700
0000
0000
0000
0000
0000
0000
0000
0000
0000
0000
0000
0000
ENDCHAR
STARTCHAR char44
ENCODING 44
SWIDTH 1600 0
DWIDTH 16 0
BBX 5 30 5 -10
BITMAP
00
00
00
00
00
00
00
00
00
00
00
00
00
00
00
00
70
F8
F8
78
38
70
E0
C0
00
00
00
00
00
00
ENDCHAR
STARTCHAR char45
ENCODING 45
SWIDTH 1600 0
DWIDTH 16 0
BBX 10 30 3 -10
BITMAP
0000
0000
0000
0000
0000
0000
0000
0000
0000
0000
FFC0
FFC0
FFC0
0000
0000
0000
0000
0000
0000
0000
0000
0000
0000
0000
0000
0000
0000
0000
0000
0000
ENDCHAR
STARTCHAR char46
ENCODING 46
SWIDTH 1600 0
DWIDTH 16 0
BBX 5 30 6 -10
BITMAP
00
00
00
00
00
00
00
00
00
00
00
00
00
00
00
00
70
F8
F8
70
00
00
00
00
00
00
00
00
00
00
ENDCHAR
STARTCHAR char47
ENCODING 47
SWIDTH 1600 0
DWIDTH 16 0
BBX 11 30 3 -10
BITMAP
00E0
00E0
01C0
01C0
0380
0380
0300
0700
0700
0600
0E00
0C00
1C00
1C00
3800
3800
7000
7000
6000
E000
E000
0000
0000
0000
0000
0000
0000
0000
0000
0000
ENDCHAR
STARTCHAR char48
ENCODING 48
SWIDTH 1600 0
DWIDTH 16 0
BBX 11 30 2 -10
BITMAP
0000
1F00
3F80
7BC0
71C0
E0E0
E0E0
E0E0
E0E0
E0E0
E0E0
E0E0
E0E0
E0E0
E0E0
E0E0
71C0
7BC0
3F80
1F00
0000
0000
0000
0000
0000
0000
0000
0000
0000
0000
ENDCHAR
STARTCHAR char49
ENCODING 49
SWIDTH 1600 0
DWIDTH 16 0
BBX 9 30 4 -10
BITMAP
0000
FC00
FC00
1C00
1C00
1C00
1C00
1C00
1C00
1C00
1C00
1C00
1C00
1C00
1C00
1C00
1C00
1C00
FF80
FF80
0000
0000
0000
0000
0000
0000
0000
0000
0000
0000
ENDCHAR
STARTCHAR char50
ENCODING 50
SWIDTH 1600 0
DWIDTH 16 0
BBX 11 30 2 -10
BITMAP
0000
1F80
3FC0
70E0
7060
7060
0060
00E0
01C0
0380
0700
0E00
1C00
3800
7000
E000
E000
E000
FFE0
FFE0
0000
0000
0000
0000
0000
0000
0000
0000
0000
0000
ENDCHAR
STARTCHAR char51
ENCODING 51
SWIDTH 1600 0
DWIDTH 16 0
BBX 12 30 2 -10
BITMAP
0000
1F00
3F80
71C0
70E0
00E0
00E0
00E0
01C0
0F80
0FC0
01E0
0070
0070
0070
C070
E070
F1E0
7FC0
1F80
0000
0000
0000
0000
0000
0000
0000
0000
0000
0000
ENDCHAR
STARTCHAR char52
ENCODING 52
SWIDTH 1600 0
DWIDTH 16 0
BBX 13 30 1 -10
BITMAP
0000
01E0
03E0
03E0
07E0
0EE0
0CE0
1CE0
18E0
38E0
30E0
70E0
E0E0
FFF8
FFF8
00E0
00E0
00E0
00E0
00E0
0000
0000
0000
0000
0000
0000
0000
0000
0000
0000
ENDCHAR
STARTCHAR char53
ENCODING 53
SWIDTH 1600 0
DWIDTH 16 0
BBX 11 30 3 -10
BITMAP
0000
7FC0
7FC0
6000
6000
6000
6000
6F00
7F80
71C0
70E0
00E0
00E0
00E0
00E0
C0E0
E0C0
71C0
3F80
1F00
0000
0000
0000
0000
0000
0000
0000
0000
0000
0000
ENDCHAR
STARTCHAR char54
ENCODING 54
SWIDTH 1600 0
DWIDTH 16 0
BBX 12 30 2 -10
BITMAP
0000
0FC0
1FE0
3860
3000
6000
6000
E780
EFC0
F8E0
F070
E070
E070
E070
E070
6070
7060
38E0
1FC0
0F80
0000
0000
0000
0000
0000
0000
0000
0000
0000
0000
ENDCHAR
STARTCHAR char55
ENCODING 55
SWIDTH 1600 0
DWIDTH 16 0
BBX 11 30 3 -10
BITMAP
0000
FFE0
FFE0
00E0
01C0
01C0
0180
0380
0300
0300
0700
0600
0E00
0C00
1C00
1800
3800
3800
7000
7000
0000
0000
0000
0000
0000
0000
0000
0000
0000
0000
ENDCHAR
STARTCHAR char56
ENCODING 56
SWIDTH 1600 0
DWIDTH 16 0
BBX 13 30 1 -10
BITMAP
0000
1FC0
3FE0
78F0
7070
7070
7070
7070
38E0
1FC0
3FE0
7070
E038
E038
E038
E038
E038
7070
3FE0
1FC0
0000
0000
0000
0000
0000
0000
0000
0000
0000
0000
ENDCHAR
STARTCHAR char57
ENCODING 57
SWIDTH 1600 0
DWIDTH 16 0
BBX 12 30 2 -10
BITMAP
0000
1F00
3FC0
78C0
7060
E060
E070
E070
E070
E070
E070
70F0
3FF0
1F70
0060
00E0
00C0
71C0
7F80
3F00
0000
0000
0000
0000
0000
0000
0000
0000
0000
0000
ENDCHAR
STARTCHAR char58
ENCODING 58
SWIDTH 1600 0
DWIDTH 16 0
BBX 5 30 6 -10
BITMAP
00
00
00
00
00
00
00
70
F8
F8
70
00
00
00
00
00
70
F8
F8
70
00
00
00
00
00
00
00
00
00
00
ENDCHAR
STARTCHAR char59
ENCODING 59
SWIDTH 1600 0
DWIDTH 16 0
BBX 5 30 6 -10
BITMAP
00
00
00
00
00
00
00
70
F8
F8
70
00
00
00
00
00
70
F8
F8
78
38
70
E0
C0
00
00
00
00
00
00
ENDCHAR
STARTCHAR char60
ENCODING 60
SWIDTH 1600 0
DWIDTH 16 0
BBX 12 30 1 -10
BITMAP
0000
0070
00E0
01C0
0380
0700
0E00
1C00
3800
7000
E000
7000
3800
1C00
0E00
0700
0380
01C0
00E0
0070
0000
0000
0000
0000
0000
0000
0000
0000
0000
0000
ENDCHAR
STARTCHAR char61
ENCODING 61
SWIDTH 1600 0
DWIDTH 16 0
BBX 11 30 2 -10
BITMAP
0000
0000
0000
0000
0000
0000
0000
FFE0
FFE0
FFE0
0000
0000
0000
FFE0
FFE0
FFE0
0000
0000
0000
0000
0000
0000
0000
0000
0000
0000
0000
0000
0000
0000
ENDCHAR
STARTCHAR char62
ENCODING 62
SWIDTH 1600 0
DWIDTH 16 0
BBX 12 30 3 -10
BITMAP
0000
E000
7000
3800
1C00
0E00
0700
0380
01C0
00E0
0070
00E0
01C0
0380
0700
0E00
1C00
3800
7000
E000
0000
0000
0000
0000
0000
0000
0000
0000
0000
0000
ENDCHAR
STARTCHAR char63
ENCODING 63
SWIDTH 1600 0
DWIDTH 16 0
BBX 10 30 4 -10
BITMAP
0000
3F00
7F80
F3C0
E1C0
E1C0
01C0
03C0
0780
0F00
1E00
1C00
1C00
1C00
1C00
0000
0000
1C00
1C00
1C00
0000
0000
0000
0000
0000
0000
0000
0000
0000
0000
ENDCHAR
STARTCHAR char64
ENCODING 64
SWIDTH 1600 0
DWIDTH 16 0
BBX 12 30 2 -10
BITMAP
0000
1F80
3FC0
70E0
6070
E030
C3F0
C7F0
CE70
CC30
CC30
CC30
CE70
C7F0
C3E0
E000
6000
7180
3F80
1F80
0000
0000
0000
0000
0000
0000
0000
0000
0000
0000
ENDCHAR
STARTCHAR char65
ENCODING 65
SWIDTH 1600 0
DWIDTH 16 0
BBX 14 30 1 -10
BITMAP
0000
0780
0780
0FC0
0CC0
0CC0
1CC0
1CE0
1CE0
1860
3870
3870
3FF0
3FF0
7038
7038
7038
E01C
E01C
E01C
0000
0000
0000
0000
0000
0000
0000
0000
0000
0000
ENDCHAR
STARTCHAR char66
ENCODING 66
SWIDTH 1600 0
DWIDTH 16 0
BBX 12 30 2 -10
BITMAP
0000
FF80
FFC0
E1E0
E0E0
E0E0
E0E0
E0E0
E1C0
FF80
FF80
E1C0
E0E0
E070
E070
E070
E0F0
E1E0
FFC0
FF80
0000
0000
0000
0000
0000
0000
0000
0000
0000
0000
ENDCHAR
STARTCHAR char67
ENCODING 67
SWIDTH 1600 0
DWIDTH 16 0
BBX 12 30 2 -10
BITMAP
0000
0F80
1FC0
38E0
7070
7070
E000
E000
E000
E000
E000
E000
E000
E000
E000
7070
7070
38E0
1FC0
0F80
0000
0000
0000
0000
0000
0000
0000
0000
0000
0000
ENDCHAR
STARTCHAR char68
ENCODING 68
SWIDTH 1600 0
DWIDTH 16 0
BBX 12 30 2 -10
BITMAP
0000
FF00
FF80
E1C0
E0E0
E070
E070
E070
E070
E070
E070
E070
E070
E070
E070
E070
E0E0
E1C0
FF80
FF00
0000
0000
0000
0000
0000
0000
0000
0000
0000
0000
ENDCHAR
STARTCHAR char69
ENCODING 69
SWIDTH 1600 0
DWIDTH 16 0
BBX 12 30 2 -10
BITMAP
0000
FFF0
FFF0
E000
E000
E000
E000
E000
E000
FFC0
FFC0
E000
E000
E000
E000
E000
E000
E000
FFF0
FFF0
0000
0000
0000
0000
0000
0000
0000
0000
0000
0000
ENDCHAR
STARTCHAR char70
ENCODING 70
SWIDTH 1600 0
DWIDTH 16 0
BBX 12 30 2 -10
BITMAP
0000
FFF0
FFF0
E000
E000
E000
E000
E000
E000
FFC0
FFC0
E000
E000
E000
E000
E000
E000
E000
E000
E000
0000
0000
0000
0000
0000
0000
0000
0000
0000
0000
ENDCHAR
STARTCHAR char71
ENCODING 71
SWIDTH 1600 0
DWIDTH 16 0
BBX 12 30 2 -10
BITMAP
0000
1F80
3FC0
78E0
F070
E070
E000
E000
E000
E000
E000
E7F0
E7F0
E030
E030
E030
F070
78F0
3FF0
1FB0
0000
0000
0000
0000
0000
0000
0000
0000
0000
0000
ENDCHAR
STARTCHAR char72
ENCODING 72
SWIDTH 1600 0
DWIDTH 16 0
BBX 12 30 2 -10
BITMAP
0000
E070
E070
E070
E070
E070
E070
E070
E070
FFF0
FFF0
E070
E070
E070
E070
E070
E070
E070
E070
E070
0000
0000
0000
0000
0000
0000
0000
0000
0000
0000
ENDCHAR
STARTCHAR char73
ENCODING 73
SWIDTH 1600 0
DWIDTH 16 0
BBX 11 30 3 -10
BITMAP
0000
FFE0
FFE0
0E00
0E00
0E00
0E00
0E00
0E00
0E00
0E00
0E00
0E00
0E00
0E00
0E00
0E00
0E00
FFE0
FFE0
0000
0000
0000
0000
0000
0000
0000
0000
0000
0000
ENDCHAR
STARTCHAR char74
ENCODING 74
SWIDTH 1600 0
DWIDTH 16 0
BBX 12 30 2 -10
BITMAP
0000
07F0
07F0
0070
0070
0070
0070
0070
0070
0070
0070
0070
E070
E070
E070
E070
E070
70E0
3FC0
1F80
0000
0000
0000
0000
0000
0000
0000
0000
0000
0000
ENDCHAR
STARTCHAR char75
ENCODING 75
SWIDTH 1600 0
DWIDTH 16 0
BBX 13 30 1 -10
BITMAP
0000
E030
E070
E0E0
E1C0
E380
E700
EE00
FC00
F800
F800
FC00
FE00
EF00
E780
E3C0
E1E0
E0F0
E078
E038
0000
0000
0000
0000
0000
0000
0000
0000
0000
0000
ENDCHAR
STARTCHAR char76
ENCODING 76
SWIDTH 1600 0
DWIDTH 16 0
BBX 12 30 3 -10
BITMAP
0000
E000
E000
E000
E000
E000
E000
E000
E000
E000
E000
E000
E000
E000
E000
E000
E000
E000
FFF0
FFF0
0000
0000
0000
0000
0000
0000
0000
0000
0000
0000
ENDCHAR
STARTCHAR char77
ENCODING 77
SWIDTH 1600 0
DWIDTH 16 0
BBX 13 30 1 -10
BITMAP
0000
E038
F078
F078
F8F8
F8F8
FDF8
EDB8
EFB8
EFB8
E738
E738
E238
E238
E038
E038
E038
E038
E038
E038
0000
0000
0000
0000
0000
0000
0000
0000
0000
0000
ENDCHAR
STARTCHAR char78
ENCODING 78
SWIDTH 1600 0
DWIDTH 16 0
BBX 12 30 2 -10
BITMAP
0000
E070
F070
F070
F870
F870
FC70
EC70
EC70
EE70
E670
E770
E770
E370
E3F0
E1F0
E1F0
E0F0
E0F0
E070
0000
0000
0000
0000
0000
0000
0000
0000
0000
0000
ENDCHAR
STARTCHAR char79
ENCODING 79
SWIDTH 1600 0
DWIDTH 16 0
BBX 14 30 1 -10
BITMAP
0000
0FC0
1FE0
3CF0
7878
7038
E01C
E01C
E01C
E01C
E01C
E01C
E01C
E01C
E01C
7038
7878
3CF0
1FE0
0FC0
0000
0000
0000
0000
0000
0000
0000
0000
0000
0000
ENDCHAR
STARTCHAR char80
ENCODING 80
SWIDTH 1600 0
DWIDTH 16 0
BBX 11 30 3 -10
BITMAP
0000
FF00
FF80
E1C0
E0E0
E0E0
E0E0
E0E0
E0E0
E0E0
E1C0
FF80
FF00
E000
E000
E000
E000
E000
E000
E000
0000
0000
0000
0000
0000
0000
0000
0000
0000
0000
ENDCHAR
STARTCHAR char81
ENCODING 81
SWIDTH 1600 0
DWIDTH 16 0
BBX 14 30 1 -10
BITMAP
0000
0FC0
1FE0
3CF0
7878
7038
E01C
E01C
E01C
E01C
E01C
E01C
E01C
E01C
E01C
7038
7878
3CF0
1FE0
0FC0
01C0
00E0
0070
0030
0000
0000
0000
0000
0000
0000
ENDCHAR
STARTCHAR char82
ENCODING 82
SWIDTH 1600 0
DWIDTH 16 0
BBX 13 30 2 -10
BITMAP
0000
FF80
FFC0
E1E0
E0E0
E0E0
E0E0
E0E0
E0E0
E1C0
FF80
FF00
E700
E380
E1C0
E1C0
E0E0
E070
E078
E030
0000
0000
0000
0000
0000
0000
0000
0000
0000
0000
ENDCHAR
STARTCHAR char83
ENCODING 83
SWIDTH 1600 0
DWIDTH 16 0
BBX 13 30 1 -10
BITMAP
0000
1FE0
3FF0
7870
7030
7000
7800
3E00
1F00
0FC0
03E0
00F0
0078
0038
0038
E038
E038
F078
7FF0
3FE0
0000
0000
0000
0000
0000
0000
0000
0000
0000
0000
ENDCHAR
STARTCHAR char84
ENCODING 84
SWIDTH 1600 0
DWIDTH 16 0
BBX 13 30 2 -10
BITMAP
0000
FFF8
FFF8
0700
0700
0700
0700
0700
0700
0700
0700
0700
0700
0700
0700
0700
0700
0700
0700
0700
0000
0000
0000
0000
0000
0000
0000
0000
0000
0000
ENDCHAR
STARTCHAR char85
ENCODING 85
SWIDTH 1600 0
DWIDTH 16 0
BBX 12 30 2 -10
BITMAP
0000
E070
E070
E070
E070
E070
E070
E070
E070
E070
E070
E070
E070
E070
E070
E070
E070
70E0
3FC0
1F80
0000
0000
0000
0000
0000
0000
0000
0000
0000
0000
ENDCHAR
STARTCHAR char86
ENCODING 86
SWIDTH 1600 0
DWIDTH 16 0
BBX 14 30 1 -10
BITMAP
0000
E01C
E01C
E01C
E01C
7038
7038
7038
3870
3870
3870
3870
3870
1CE0
1CE0
1CE0
0CC0
0FC0
0780
0780
0000
0000
0000
0000
0000
0000
0000
0000
0000
0000
ENDCHAR
STARTCHAR char87
ENCODING 87
SWIDTH 1600 0
DWIDTH 16 0
BBX 14 30 1 -10
BITMAP
0000
E01C
E01C
E01C
E01C
E01C
E01C
7038
7338
7338
7338
77B8
77B8
37B0
3FF0
3CF0
3CF0
3870
1860
1860
0000
0000
0000
0000
0000
0000
0000
0000
0000
0000
ENDCHAR
STARTCHAR char88
ENCODING 88
SWIDTH 1600 0
DWIDTH 16 0
BBX 13 30 2 -10
BITMAP
0000
E038
E038
7070
7070
38E0
38E0
1DC0
0F80
0F80
0700
0F80
0F80
1DC0
18C0
38E0
7070
7070
E038
E038
0000
0000
0000
0000
0000
0000
0000
0000
0000
0000
ENDCHAR
STARTCHAR char89
ENCODING 89
SWIDTH 1600 0
DWIDTH 16 0
BBX 13 30 2 -10
BITMAP
0000
E038
E038
7070
7070
38E0
38E0
1DC0
1DC0
0F80
0700
0700
0700
0700
0700
0700
0700
0700
0700
0700
0000
0000
0000
0000
0000
0000
0000
0000
0000
0000
ENDCHAR
STARTCHAR char90
ENCODING 90
SWIDTH 1600 0
DWIDTH 16 0
BBX 12 30 2 -10
BITMAP
0000
7FF0
7FF0
00E0
00E0
01C0
0180
0380
0300
0700
0600
0E00
0C00
1C00
3800
3800
7000
7000
FFF0
FFF0
0000
0000
0000
0000
0000
0000
0000
0000
0000
0000
ENDCHAR
STARTCHAR char91
ENCODING 91
SWIDTH 1600 0
DWIDTH 16 0
BBX 9 30 2 -10
BITMAP
FF80
FF80
E000
E000
E000
E000
E000
E000
E000
E000
E000
E000
E000
E000
E000
E000
E000
E000
E000
E000
E000
E000
FF80
FF80
0000
0000
0000
0000
0000
0000
ENDCHAR
STARTCHAR char92
ENCODING 92
SWIDTH 1600 0
DWIDTH 16 0
BBX 12 30 2 -10
BITMAP
E000
E000
7000
7000
3800
3800
1800
1C00
1C00
0C00
0E00
0600
0700
0700
0380
0380
01C0
01C0
00C0
00E0
00E0
0060
0070
0070
0000
0000
0000
0000
0000
0000
ENDCHAR
STARTCHAR char93
ENCODING 93
SWIDTH 1600 0
DWIDTH 16 0
BBX 9 30 5 -10
BITMAP
FF80
FF80
0380
0380
0380
0380
0380
0380
0380
0380
0380
0380
0380
0380
0380
0380
0380
0380
0380
0380
0380
0380
FF80
FF80
0000
0000
0000
0000
0000
0000
ENDCHAR
STARTCHAR char94
ENCODING 94
SWIDTH 1600 0
DWIDTH 16 0
BBX 16 30 0 -10
BITMAP
0180
03C0
07E0
0FF0
1E78
3C3C
781E
F00F
0000
0000
0000
0000
0000
0000
0000
0000
0000
0000
0000
0000
0000
0000
0000
0000
0000
0000
0000
0000
0000
0000
ENDCHAR
STARTCHAR char95
ENCODING 95
SWIDTH 1600 0
DWIDTH 16 0
BBX 16 30 0 -10
BITMAP
0000
0000
0000
0000
0000
0000
0000
0000
0000
0000
0000
0000
0000
0000
0000
0000
0000
0000
0000
0000
0000
0000
0000
FFFF
FFFF
0000
0000
0000
0000
0000
ENDCHAR
STARTCHAR char97
ENCODING 97
SWIDTH 1600 0
DWIDTH 16 0
BBX 12 30 2 -10
BITMAP
0000
0000
0000
0000
0000
0000
3F80
7FC0
60E0
00E0
00E0
3EE0
7FE0
F1E0
E0E0
E0E0
E0E0
F1E0
7FF0
3E70
0000
0000
0000
0000
0000
0000
0000
0000
0000
0000
ENDCHAR
STARTCHAR char98
ENCODING 98
SWIDTH 1600 0
DWIDTH 16 0
BBX 12 30 2 -10
BITMAP
0000
E000
E000
E000
E000
E000
EF80
FFC0
F0E0
E070
E070
E070
E070
E070
E070
E070
E070
F0E0
FFC0
EF80
0000
0000
0000
0000
0000
0000
0000
0000
0000
0000
ENDCHAR
STARTCHAR char99
ENCODING 99
SWIDTH 1600 0
DWIDTH 16 0
BBX 12 30 2 -10
BITMAP
0000
0000
0000
0000
0000
0000
1FC0
3FE0
78F0
F070
E000
E000
E000
E000
E000
E000
F070
78F0
3FE0
1FC0
0000
0000
0000
0000
0000
0000
0000
0000
0000
0000
ENDCHAR
STARTCHAR char100
ENCODING 100
SWIDTH 1600 0
DWIDTH 16 0
BBX 12 30 2 -10
BITMAP
0000
0070
0070
0070
0070
0070
1F70
3FF0
70F0
E070
E070
E070
E070
E070
E070
E070
E070
70F0
3FF0
1F70
0000
0000
0000
0000
0000
0000
0000
0000
0000
0000
ENDCHAR
STARTCHAR char101
ENCODING 101
SWIDTH 1600 0
DWIDTH 16 0
BBX 12 30 2 -10
BITMAP
0000
0000
0000
0000
0000
0000
1F80
3FC0
70E0
70E0
E070
E070
FFF0
FFF0
E000
E000
7070
7070
3FE0
1FC0
0000
0000
0000
0000
0000
0000
0000
0000
0000
0000
ENDCHAR
STARTCHAR char102
ENCODING 102
SWIDTH 1600 0
DWIDTH 16 0
BBX 13 30 2 -10
BITMAP
0000
07F0
0FF8
1E38
1C00
1C00
FFC0
FFC0
1C00
1C00
1C00
1C00
1C00
1C00
1C00
1C00
1C00
1C00
1C00
1C00
0000
0000
0000
0000
0000
0000
0000
0000
0000
0000
ENDCHAR
STARTCHAR char103
ENCODING 103
SWIDTH 1600 0
DWIDTH 16 0
BBX 12 30 2 -10
BITMAP
0000
0000
0000
0000
0000
0000
1F70
3FF0
70F0
E070
E070
E070
E070
E070
E070
E070
70F0
3FF0
1F70
0070
6070
70E0
3FC0
1F80
0000
0000
0000
0000
0000
0000
ENDCHAR
STARTCHAR char104
ENCODING 104
SWIDTH 1600 0
DWIDTH 16 0
BBX 11 30 2 -10
BITMAP
0000
E000
E000
E000
E000
E000
EF80
FFC0
F9E0
F0E0
E0E0
E0E0
E0E0
E0E0
E0E0
E0E0
E0E0
E0E0
E0E0
E0E0
0000
0000
0000
0000
0000
0000
0000
0000
0000
0000
ENDCHAR
STARTCHAR char105
ENCODING 105
SWIDTH 1600 0
DWIDTH 16 0
BBX 7 30 4 -10
BITMAP
00
0E
0E
0E
00
00
FE
FE
0E
0E
0E
0E
0E
0E
0E
0E
0E
0E
0E
0E
00
00
00
00
00
00
00
00
00
00
ENDCHAR
STARTCHAR char106
ENCODING 106
SWIDTH 1600 0
DWIDTH 16 0
BBX 11 30 2 -10
BITMAP
0000
00E0
00E0
00E0
0000
0000
0FE0
0FE0
00E0
00E0
00E0
00E0
00E0
00E0
00E0
00E0
00E0
00E0
E0E0
E0E0
E0E0
71C0
3F80
1F00
0000
0000
0000
0000
0000
0000
ENDCHAR
STARTCHAR char107
ENCODING 107
SWIDTH 1600 0
DWIDTH 16 0
BBX 12 30 3 -10
BITMAP
0000
E000
E000
E000
E000
E000
E0C0
E1C0
E380
E700
EE00
FC00
FC00
FE00
EF00
E780
E3C0
E1E0
E0F0
E060
0000
0000
0000
0000
0000
0000
0000
0000
0000
0000
ENDCHAR
STARTCHAR char108
ENCODING 108
SWIDTH 1600 0
DWIDTH 16 0
BBX 7 30 4 -10
BITMAP
00
FE
FE
0E
0E
0E
0E
0E
0E
0E
0E
0E
0E
0E
0E
0E
0E
0E
0E
0E
00
00
00
00
00
00
00
00
00
00
ENDCHAR
STARTCHAR char109
ENCODING 109
SWIDTH 1600 0
DWIDTH 16 0
BBX 14 30 1 -10
BITMAP
0000
0000
0000
0000
0000
0000
DCF0
FFF8
F7BC
E31C
E31C
E31C
E31C
E31C
E31C
E31C
E31C
E31C
E31C
E31C
0000
0000
0000
0000
0000
0000
0000
0000
0000
0000
ENDCHAR
STARTCHAR char110
ENCODING 110
SWIDTH 1600 0
DWIDTH 16 0
BBX 11 30 2 -10
BITMAP
0000
0000
0000
0000
0000
0000
EF80
FFC0
F9E0
F0E0
E0E0
E0E0
E0E0
E0E0
E0E0
E0E0
E0E0
E0E0
E0E0
E0E0
0000
0000
0000
0000
0000
0000
0000
0000
0000
0000
ENDCHAR
STARTCHAR char111
ENCODING 111
SWIDTH 1600 0
DWIDTH 16 0
BBX 12 30 2 -10
BITMAP
0000
0000
0000
0000
0000
0000
1F80
3FC0
70E0
E070
E070
E070
E070
E070
E070
E070
E070
70E0
3FC0
1F80
0000
0000
0000
0000
0000
0000
0000
0000
0000
0000
ENDCHAR
STARTCHAR char112
ENCODING 112
SWIDTH 1600 0
DWIDTH 16 0
BBX 12 30 2 -10
BITMAP
0000
0000
0000
0000
0000
0000
EF80
FFC0
F1E0
E0F0
E070
E070
E070
E070
E070
E070
E0F0
F1E0
FFC0
EF80
E000
E000
E000
E000
0000
0000
0000
0000
0000
0000
ENDCHAR
STARTCHAR char113
ENCODING 113
SWIDTH 1600 0
DWIDTH 16 0
BBX 12 30 2 -10
BITMAP
0000
0000
0000
0000
0000
0000
1F70
3FF0
70F0
E070
E070
E070
E070
E070
E070
E070
E070
70F0
3FF0
1F70
0070
0070
0070
0070
0000
0000
0000
0000
0000
0000
ENDCHAR
STARTCHAR char114
ENCODING 114
SWIDTH 1600 0
DWIDTH 16 0
BBX 12 30 2 -10
BITMAP
0000
0000
0000
0000
0000
0000
E7C0
EFE0
FCF0
F860
F000
E000
E000
E000
E000
E000
E000
E000
E000
E000
0000
0000
0000
0000
0000
0000
0000
0000
0000
0000
ENDCHAR
STARTCHAR char115
ENCODING 115
SWIDTH 1600 0
DWIDTH 16 0
BBX 12 30 2 -10
BITMAP
0000
0000
0000
0000
0000
0000
1FC0
3FE0
78E0
7000
7800
3E00
1F80
07E0
01F0
00F0
E070
F0F0
7FE0
3FC0
0000
0000
0000
0000
0000
0000
0000
0000
0000
0000
ENDCHAR
STARTCHAR char116
ENCODING 116
SWIDTH 1600 0
DWIDTH 16 0
BBX 12 30 2 -10
BITMAP
0000
0000
1C00
1C00
1C00
1C00
FFE0
FFE0
1C00
1C00
1C00
1C00
1C00
1C00
1C00
1C70
1C70
1E70
0FE0
07C0
0000
0000
0000
0000
0000
0000
0000
0000
0000
0000
ENDCHAR
STARTCHAR char117
ENCODING 117
SWIDTH 1600 0
DWIDTH 16 0
BBX 11 30 2 -10
BITMAP
0000
0000
0000
0000
0000
0000
E0E0
E0E0
E0E0
E0E0
E0E0
E0E0
E0E0
E0E0
E0E0
E0E0
E0E0
F1E0
7FE0
3EE0
0000
0000
0000
0000
0000
0000
0000
0000
0000
0000
ENDCHAR
STARTCHAR char118
ENCODING 118
SWIDTH 1600 0
DWIDTH 16 0
BBX 14 30 1 -10
BITMAP
0000
0000
0000
0000
0000
0000
E01C
E01C
7038
7038
3830
3870
3870
1CE0
1CE0
0CC0
0CC0
0780
0780
0300
0000
0000
0000
0000
0000
0000
0000
0000
0000
0000
ENDCHAR
STARTCHAR char119
ENCODING 119
SWIDTH 1600 0
DWIDTH 16 0
BBX 16 30 0 -10
BITMAP
0000
0000
0000
0000
0000
0000
E007
E007
E007
718E
718E
73CE
73CE
37EC
366C
366C
3C3C
1C38
1C38
1818
0000
0000
0000
0000
0000
0000
0000
0000
0000
0000
ENDCHAR
STARTCHAR char120
ENCODING 120
SWIDTH 1600 0
DWIDTH 16 0
BBX 13 30 1 -10
BITMAP
0000
0000
0000
0000
0000
0000
E038
F078
7070
38E0
1DC0
0F80
0700
0700
0F80
1DC0
38E0
7070
F078
E038
0000
0000
0000
0000
0000
0000
0000
0000
0000
0000
ENDCHAR
STARTCHAR char121
ENCODING 121
SWIDTH 1600 0
DWIDTH 16 0
BBX 15 30 0 -10
BITMAP
0000
0000
0000
0000
0000
0000
700E
700E
381C
381C
1C38
1C38
0E70
0E70
07E0
03E0
03C0
01C0
01C0
0380
0380
E700
FF00
7E00
0000
0000
0000
0000
0000
0000
ENDCHAR
STARTCHAR char122
ENCODING 122
SWIDTH 1600 0
DWIDTH 16 0
BBX 12 30 2 -10
BITMAP
0000
0000
0000
0000
0000
0000
7FF0
7FF0
0070
00E0
01C0
0380
0700
0E00
1C00
3800
7000
E000
FFF0
FFF0
0000
0000
0000
0000
0000
0000
0000
0000
0000
0000
ENDCHAR
STARTCHAR char123
ENCODING 123
SWIDTH 1600 0
DWIDTH 16 0
BBX 9 30 3 -10
BITMAP
0780
0E00
1C00
1C00
1C00
1C00
1C00
1C00
1C00
3800
7000
E000
7000
3800
1C00
1C00
1C00
1C00
1C00
1C00
1C00
1C00
0E00
0780
0000
0000
0000
0000
0000
0000
ENDCHAR
STARTCHAR char124
ENCODING 124
SWIDTH 1600 0
DWIDTH 16 0
BBX 3 30 6 -10
BITMAP
E0
E0
E0
E0
E0
E0
E0
E0
E0
E0
E0
E0
E0
E0
E0
E0
E0
E0
E0
E0
E0
E0
E0
E0
00
00
00
00
00
00
ENDCHAR
STARTCHAR char125
ENCODING 125
SWIDTH 1600 0
DWIDTH 16 0
BBX 9 30 4 -10
BITMAP
F000
3800
1C00
1C00
1C00
1C00
1C00
1C00
1C00
0E00
0700
0380
0700
0E00
1C00
1C00
1C00
1C00
1C00
1C00
1C00
1C00
3800
F000
0000
0000
0000
0000
0000
0000
ENDCHAR
STARTCHAR char126
ENCODING 126
SWIDTH 1600 0
DWIDTH 16 0
BBX 16 30 0 -10
BITMAP
0000
0000
0000
0000
0000
0000
0000
0000
0000
0000
0E03
1F86
3FFC
61F8
C070
0000
0000
0000
0000
0000
0000
0000
0000
0000
0000
0000
0000
0000
0000
0000
ENDCHAR
ENDFONT
