STARTFONT 2.1
FONT -MIT-31VGVB KST-Medium-R-Normal--31-11-200-200-P-16-ISO8859-1
SIZE 11 200 200
FONTBOUNDINGBOX 30 31 -4 -7
STARTPROPERTIES 17
ADD_STYLE_NAME ""
AVERAGE_WIDTH 16
CHARSET_ENCODING "1"
CHARSET_REGISTRY "ISO8859"
DEFAULT_CHAR 0
FAMILY "31VGVB KST"
FONT_ASCENT 24
FONT_DESCENT 7
FOUNDRY "MIT"
PIXEL_SIZE 31
POINT_SIZE 11
RESOLUTION_X 200
RESOLUTION_Y 200
SETWIDTH_NAME "Normal"
SLANT "R"
SPACING "P"
WEIGHT_NAME "Medium"
ENDPROPERTIES
CHARS 119
STARTCHAR char2
ENCODING 2
SWIDTH 360 0
DWIDTH 4 0
BBX 2 31 0 -7
BITMAP
00
00
00
00
00
00
00
00
00
00
00
00
00
00
00
00
C0
C0
00
00
C0
C0
C0
C0
C0
C0
C0
C0
C0
C0
00
ENDCHAR
STARTCHAR char3
ENCODING 3
SWIDTH 1080 0
DWIDTH 12 0
BBX 9 31 0 -7
BITMAP
0000
0000
0000
0000
0000
0000
0000
0000
0000
0000
0000
0000
0000
0000
0000
CE00
DF00
F380
E180
C180
C180
C180
E180
F380
DF00
CE00
C000
C000
C000
C000
0000
ENDCHAR
STARTCHAR char4
ENCODING 4
SWIDTH 1800 0
DWIDTH 20 0
BBX 18 31 0 -7
BITMAP
000000
000000
000000
000000
000000
000000
00C000
01E000
033000
033000
033000
061800
061800
0C0C00
0C0C00
0C0C00
380700
380700
700380
700380
C000C0
C000C0
C000C0
000000
000000
000000
000000
000000
000000
000000
000000
ENDCHAR
STARTCHAR char5
ENCODING 5
SWIDTH 1080 0
DWIDTH 12 0
BBX 9 31 0 -7
BITMAP
0000
0000
0000
0000
0000
0000
0000
0000
0000
0000
0000
0000
0000
0000
0000
0000
0000
0000
0000
1E00
3F00
6180
0180
1F80
7F80
C180
C380
C780
FD80
7980
0000
ENDCHAR
STARTCHAR char6
ENCODING 6
SWIDTH 1260 0
DWIDTH 14 0
BBX 11 31 0 -7
BITMAP
0000
0000
0000
0000
0000
03E0
0600
0C00
3800
3800
7000
7000
F000
FFE0
F000
F000
7000
7000
3800
0C00
0600
0600
03E0
0000
0000
0000
0000
0000
0000
0000
0000
ENDCHAR
STARTCHAR char7
ENCODING 7
SWIDTH 1710 0
DWIDTH 19 0
BBX 17 31 0 -7
BITMAP
000000
000000
000000
000000
000000
000000
000000
000000
FFF000
FFF000
FFFF00
381F80
381800
381800
381800
381800
381800
381800
381800
381800
381800
381800
381800
F81800
000F80
000000
000000
000000
000000
000000
000000
ENDCHAR
STARTCHAR char8
ENCODING 8
SWIDTH 1080 0
DWIDTH 12 0
BBX 9 31 0 -7
BITMAP
0000
0000
0000
0000
0000
0000
0000
0000
0000
0000
0000
0000
0000
0000
0000
0000
0000
0000
0000
0000
1F00
7F00
E180
C180
C000
C000
C000
E180
7F80
3F00
0000
ENDCHAR
STARTCHAR char11
ENCODING 11
SWIDTH 1620 0
DWIDTH 18 0
BBX 15 31 0 -7
BITMAP
0380
07C0
0FE0
1FF0
3BB8
739C
E38E
0380
0380
0380
0380
0380
0380
0380
0380
0380
0380
0380
0380
0380
0380
0380
0380
0380
0000
0000
0000
0000
0000
0000
0000
ENDCHAR
STARTCHAR char14
ENCODING 14
SWIDTH 1080 0
DWIDTH 12 0
BBX 9 31 0 -7
BITMAP
0000
0000
0000
0000
0000
0000
0000
0000
0000
0000
0000
0000
0000
0000
0000
0000
0000
0000
0000
0000
C180
C180
C180
C180
C980
DD80
DD80
F780
E380
C180
0000
ENDCHAR
STARTCHAR char15
ENCODING 15
SWIDTH 1080 0
DWIDTH 12 0
BBX 10 31 0 -7
BITMAP
0000
0000
0000
0000
0000
0000
0000
0000
0000
0000
0000
0000
0000
0000
0000
0000
0000
0000
0000
C000
DB80
FFC0
CCC0
CCC0
CCC0
CCC0
CCC0
CCC0
CCC0
CCC0
0000
ENDCHAR
STARTCHAR char16
ENCODING 16
SWIDTH 1080 0
DWIDTH 12 0
BBX 9 31 0 -7
BITMAP
0000
0000
0000
0000
0000
0000
0000
0000
0000
0000
0000
0000
0000
0000
0000
0000
0000
0000
0000
0000
CE00
DF00
F180
E180
C000
C000
C000
C000
C000
C000
0000
ENDCHAR
STARTCHAR char17
ENCODING 17
SWIDTH 1800 0
DWIDTH 20 0
BBX 17 31 0 -7
BITMAP
000000
000000
000000
000000
000000
000000
000000
FFF800
FFFC00
FFFC00
000F00
000780
000380
000380
000380
000380
000780
000F00
FFFC00
FFF800
000000
000000
000000
000000
000000
000000
000000
000000
000000
000000
000000
ENDCHAR
STARTCHAR char18
ENCODING 18
SWIDTH 1080 0
DWIDTH 12 0
BBX 9 31 0 -7
BITMAP
0000
0000
0000
0000
0000
0000
0000
0000
0000
0000
0000
0000
0000
0000
0000
0000
0180
0180
0180
0180
3D80
7F80
E380
C180
C180
C180
C380
C780
7D80
3980
0000
ENDCHAR
STARTCHAR char19
ENCODING 19
SWIDTH 360 0
DWIDTH 4 0
BBX 2 31 0 -7
BITMAP
C0
C0
00
00
C0
C0
C0
C0
C0
C0
C0
C0
C0
C0
00
00
00
00
00
00
00
00
00
00
00
00
00
00
00
00
00
ENDCHAR
STARTCHAR char20
ENCODING 20
SWIDTH 1710 0
DWIDTH 19 0
BBX 17 31 0 -7
BITMAP
C00380
C00380
700700
700700
700700
700700
380C00
380C00
3FFC00
3FFC00
0FF800
0C1800
0C1800
063000
063000
063000
063000
03E000
03E000
03E000
01C000
01C000
01C000
01C000
000000
000000
000000
000000
000000
000000
000000
ENDCHAR
STARTCHAR char21
ENCODING 21
SWIDTH 720 0
DWIDTH 8 0
BBX 6 31 0 -7
BITMAP
00
00
00
00
00
00
00
FC
FC
00
00
00
00
00
00
00
00
00
00
00
00
00
00
00
00
00
00
00
00
00
00
ENDCHAR
STARTCHAR char23
ENCODING 23
SWIDTH 1350 0
DWIDTH 15 0
BBX 13 31 0 -7
BITMAP
0000
71E0
FBF0
DF38
CE18
0C18
0C18
0C18
0C18
0C18
0C18
0C18
0C18
0C18
0C18
0C18
0C18
0C18
0C18
0C18
0018
0018
0018
0018
0000
0000
0000
0000
0000
0000
0000
ENDCHAR
STARTCHAR char24
ENCODING 24
SWIDTH 2070 0
DWIDTH 23 0
BBX 20 31 0 -7
BITMAP
000000
000000
000000
000000
000000
000000
000000
030000
070000
070000
0E0000
3C0000
780000
FFFFF0
FFFFF0
FFFFF0
780000
3C0000
0E0000
070000
030000
030000
000000
000000
000000
000000
000000
000000
000000
000000
000000
ENDCHAR
STARTCHAR char25
ENCODING 25
SWIDTH 1980 0
DWIDTH 22 0
BBX 19 31 0 -7
BITMAP
000000
000000
000000
000000
000000
000000
000000
000800
000C00
000C00
000700
000380
0000C0
FFFFE0
FFFFE0
FFFFE0
0000C0
000380
000700
000C00
000800
000800
000000
000000
000000
000000
000000
000000
000000
000000
000000
ENDCHAR
STARTCHAR char26
ENCODING 26
SWIDTH 1710 0
DWIDTH 19 0
BBX 15 31 1 -7
BITMAP
0000
0000
000E
000E
000E
0018
0018
0030
0030
0030
0060
FFFE
FFFE
01C0
0380
0380
FFFE
FFFE
0C00
1800
1800
1800
7000
7000
E000
E000
0000
0000
0000
0000
0000
ENDCHAR
STARTCHAR char28
ENCODING 28
SWIDTH 1260 0
DWIDTH 14 0
BBX 12 31 0 -7
BITMAP
0F00
6660
E670
F6F0
3FC0
1F80
3FC0
F6F0
E670
6660
0F00
0F00
0000
0000
0000
0000
0000
0000
0000
0000
0000
0000
0000
0000
0000
0000
0000
0000
0000
0000
0000
ENDCHAR
STARTCHAR char29
ENCODING 29
SWIDTH 630 0
DWIDTH 7 0
BBX 4 31 1 -7
BITMAP
00
00
00
00
60
F0
F0
60
00
00
00
00
00
00
00
00
00
00
00
00
00
00
00
00
00
00
00
00
00
00
00
ENDCHAR
STARTCHAR char30
ENCODING 30
SWIDTH 810 0
DWIDTH 9 0
BBX 6 31 0 -7
BITMAP
00
00
00
00
00
00
00
00
00
00
00
00
00
00
00
00
FC
FC
30
30
30
30
30
30
30
30
30
30
FC
FC
00
ENDCHAR
STARTCHAR char31
ENCODING 31
SWIDTH 1800 0
DWIDTH 20 0
BBX 18 31 0 -7
BITMAP
000000
000000
000000
000000
000000
000000
000000
C000C0
C000C0
C000C0
700380
700380
380700
380700
0C0C00
0C0C00
0C0C00
061800
061800
033000
033000
033000
01E000
00C000
000000
000000
000000
000000
000000
000000
000000
ENDCHAR
STARTCHAR char32
ENCODING 32
SWIDTH 1080 0
DWIDTH 12 0
BBX 1 31 0 -7
BITMAP
00
00
00
00
00
00
00
00
00
00
00
00
00
00
00
00
00
00
00
00
00
00
00
00
00
00
00
00
00
00
00
ENDCHAR
STARTCHAR char33
ENCODING 33
SWIDTH 810 0
DWIDTH 9 0
BBX 6 31 1 -7
BITMAP
00
78
FC
FC
FC
FC
FC
FC
78
78
78
78
78
78
78
78
00
00
00
78
FC
FC
FC
78
00
00
00
00
00
00
00
ENDCHAR
STARTCHAR char34
ENCODING 34
SWIDTH 1170 0
DWIDTH 13 0
BBX 10 31 1 -7
BITMAP
F3C0
F3C0
F3C0
F3C0
F3C0
F3C0
F3C0
6180
0000
0000
0000
0000
0000
0000
0000
0000
0000
0000
0000
0000
0000
0000
0000
0000
0000
0000
0000
0000
0000
0000
0000
ENDCHAR
STARTCHAR char35
ENCODING 35
SWIDTH 1800 0
DWIDTH 20 0
BBX 17 31 1 -7
BITMAP
000000
000000
000000
000000
000000
000000
000000
0E3800
0E3800
0E3800
0E3800
FFFF80
FFFF80
0E3800
0E3800
0E3800
0E3800
FFFF80
FFFF80
0E3800
0E3800
0E3800
0E3800
000000
000000
000000
000000
000000
000000
000000
000000
ENDCHAR
STARTCHAR char36
ENCODING 36
SWIDTH 1620 0
DWIDTH 18 0
BBX 15 31 1 -7
BITMAP
0000
0C60
0FE0
3FFC
7C7E
6C7E
EC6E
EC60
EC60
EC60
EC60
7C60
7FE0
3FF8
0FFC
0C7C
0C6E
0C6E
0C6E
EC6E
EC6E
FC7C
7FFC
1FF8
0C60
0000
0000
0000
0000
0000
0000
ENDCHAR
STARTCHAR char37
ENCODING 37
SWIDTH 1710 0
DWIDTH 19 0
BBX 17 31 0 -7
BITMAP
000000
000000
001E00
3C1E00
7F1E00
E73C00
E73C00
E77800
7E7800
3C7800
00F000
00F000
01E000
01E000
03C000
03C000
03C000
079E00
0F3F00
1E7380
1E7380
1E7380
3C3F00
3C1E00
000000
000000
000000
000000
000000
000000
000000
ENDCHAR
STARTCHAR char38
ENCODING 38
SWIDTH 2160 0
DWIDTH 24 0
BBX 21 31 0 -7
BITMAP
000000
01F800
07BE00
07BE00
071E00
0E0F80
0F0E00
0F1E00
07BC00
07BC00
07F000
07E3F8
3FE060
7DF060
78F860
78F860
F8F8E0
F83CC0
F83CC0
FC1F80
FC0F80
FC0F80
7E1FC0
3FFBF0
078000
000000
000000
000000
000000
000000
000000
ENDCHAR
STARTCHAR char39
ENCODING 39
SWIDTH 810 0
DWIDTH 9 0
BBX 7 31 0 -7
BITMAP
00
FC
FE
FE
EE
06
0E
3C
78
78
00
00
00
00
00
00
00
00
00
00
00
00
00
00
00
00
00
00
00
00
00
ENDCHAR
STARTCHAR char40
ENCODING 40
SWIDTH 1080 0
DWIDTH 12 0
BBX 8 31 0 -7
BITMAP
03
07
0E
0E
0E
3C
3C
3C
78
78
78
F8
F0
F0
F0
F0
F8
78
78
78
3C
3C
3C
0E
0E
0E
07
03
00
00
00
ENDCHAR
STARTCHAR char41
ENCODING 41
SWIDTH 1080 0
DWIDTH 12 0
BBX 8 31 0 -7
BITMAP
C0
E0
70
70
70
3C
3C
3C
1E
1E
1E
1F
0F
0F
0F
0F
1F
1E
1E
1E
3C
3C
3C
70
70
70
E0
C0
00
00
00
ENDCHAR
STARTCHAR char42
ENCODING 42
SWIDTH 1530 0
DWIDTH 17 0
BBX 16 31 0 -7
BITMAP
0000
0000
0000
0000
0000
0000
0380
07C0
07C0
07C0
E187
FBBE
3FF8
07C0
07C0
3FF8
FBBE
C30E
07C0
07C0
07C0
0380
0100
0000
0000
0000
0000
0000
0000
0000
0000
ENDCHAR
STARTCHAR char43
ENCODING 43
SWIDTH 1710 0
DWIDTH 19 0
BBX 16 31 1 -7
BITMAP
0000
0000
0000
0000
0000
0000
0000
03C0
03C0
03C0
03C0
03C0
03C0
FFFF
FFFF
FFFF
03C0
03C0
03C0
03C0
03C0
03C0
0000
0000
0000
0000
0000
0000
0000
0000
0000
ENDCHAR
STARTCHAR char44
ENCODING 44
SWIDTH 720 0
DWIDTH 8 0
BBX 6 31 0 -7
BITMAP
00
00
00
00
00
00
00
00
00
00
00
00
00
00
00
00
00
00
00
78
FC
FC
FC
3C
3C
7C
78
78
F0
C0
00
ENDCHAR
STARTCHAR char45
ENCODING 45
SWIDTH 1530 0
DWIDTH 17 0
BBX 13 31 1 -7
BITMAP
0000
0000
0000
0000
0000
0000
0000
0000
0000
0000
0000
0000
0000
FFF8
FFF8
FFF8
0000
0000
0000
0000
0000
0000
0000
0000
0000
0000
0000
0000
0000
0000
0000
ENDCHAR
STARTCHAR char46
ENCODING 46
SWIDTH 720 0
DWIDTH 8 0
BBX 5 31 0 -7
BITMAP
00
00
00
00
00
00
00
00
00
00
00
00
00
00
00
00
00
00
00
00
70
F8
F8
70
00
00
00
00
00
00
00
ENDCHAR
STARTCHAR char47
ENCODING 47
SWIDTH 1530 0
DWIDTH 17 0
BBX 13 31 1 -7
BITMAP
0038
0078
0070
0070
0070
01F0
01E0
01E0
03E0
03E0
03C0
03C0
07C0
0700
0700
0700
0F00
0E00
0E00
1E00
1C00
1C00
1C00
7C00
7800
7800
F800
F800
F000
F000
0000
ENDCHAR
STARTCHAR char48
ENCODING 48
SWIDTH 1800 0
DWIDTH 20 0
BBX 17 31 1 -7
BITMAP
000000
07F000
0FF800
1FFC00
3E3E00
7C1F00
780F00
F80F80
F00780
F00780
F00780
F00780
F00780
F00780
F00780
F00780
F00780
F80F80
780F00
7C1F00
3E3E00
1FFC00
0FF800
07F000
000000
000000
000000
000000
000000
000000
000000
ENDCHAR
STARTCHAR char49
ENCODING 49
SWIDTH 1800 0
DWIDTH 20 0
BBX 10 31 4 -7
BITMAP
0000
1E00
3E00
FE00
FE00
1E00
1E00
1E00
1E00
1E00
1E00
1E00
1E00
1E00
1E00
1E00
1E00
1E00
1E00
1E00
1E00
1E00
FFC0
FFC0
0000
0000
0000
0000
0000
0000
0000
ENDCHAR
STARTCHAR char50
ENCODING 50
SWIDTH 1800 0
DWIDTH 20 0
BBX 16 31 2 -7
BITMAP
0000
07E0
1FF8
3FFC
7E7E
F81F
F00F
F00F
000F
001F
003F
007E
00FC
01F8
07F0
0FE0
1FC0
3F00
7E00
7C00
F800
FFFF
FFFF
FFFF
0000
0000
0000
0000
0000
0000
0000
ENDCHAR
STARTCHAR char51
ENCODING 51
SWIDTH 1800 0
DWIDTH 20 0
BBX 17 31 1 -7
BITMAP
000000
0FF800
3FFC00
7FFE00
7C3F00
F80F80
F00780
F00780
000780
000F80
001F00
07FE00
07FC00
07FE00
001F00
000F80
000780
F00780
F00780
F80F80
7C3F00
7FFE00
3FFC00
0FF800
000000
000000
000000
000000
000000
000000
000000
ENDCHAR
STARTCHAR char52
ENCODING 52
SWIDTH 1800 0
DWIDTH 20 0
BBX 18 31 1 -7
BITMAP
000000
00FE00
01FE00
01FE00
03DE00
03DE00
079E00
079E00
0F1E00
0F1E00
1E1E00
1E1E00
3C1E00
3C1E00
781E00
FFFFC0
FFFFC0
FFFFC0
001E00
001E00
001E00
001E00
001E00
001E00
000000
000000
000000
000000
000000
000000
000000
ENDCHAR
STARTCHAR char53
ENCODING 53
SWIDTH 1800 0
DWIDTH 20 0
BBX 16 31 2 -7
BITMAP
0000
FFFE
FFFE
FFFE
F000
F000
F000
F000
F000
F3F8
FFFC
FFFE
FC3E
F81F
000F
000F
000F
000F
000F
F81F
FC3F
FFFE
3FFC
0FF8
0000
0000
0000
0000
0000
0000
0000
ENDCHAR
STARTCHAR char54
ENCODING 54
SWIDTH 1800 0
DWIDTH 20 0
BBX 15 31 2 -7
BITMAP
0000
0FE0
1FF8
3FFC
7E3E
7C1E
F800
F800
F000
F000
F3E0
F7F8
FFF8
FC7C
F83E
F01E
F01E
F01E
F01E
F83E
7C7E
7FFC
3FF8
0FE0
0000
0000
0000
0000
0000
0000
0000
ENDCHAR
STARTCHAR char55
ENCODING 55
SWIDTH 1800 0
DWIDTH 20 0
BBX 15 31 3 -7
BITMAP
0000
FFFE
FFFE
FFFE
003E
003C
007C
0078
00F8
00F0
01F0
01E0
03E0
03C0
07C0
0780
0F80
0F00
1F00
1E00
3E00
3C00
7C00
7800
0000
0000
0000
0000
0000
0000
0000
ENDCHAR
STARTCHAR char56
ENCODING 56
SWIDTH 1800 0
DWIDTH 20 0
BBX 17 31 1 -7
BITMAP
000000
0FF800
3FFE00
3FFE00
7C1F00
780F00
780F00
780F00
7C1F00
3E3E00
3F7E00
0FF800
07F000
1FFC00
7F7F00
7C1F00
F80F80
F00780
F00780
F80F80
FC1F80
7FFF00
7FFF00
1FFC00
000000
000000
000000
000000
000000
000000
000000
ENDCHAR
STARTCHAR char57
ENCODING 57
SWIDTH 1800 0
DWIDTH 20 0
BBX 15 31 3 -7
BITMAP
0000
0FE0
3FF8
7FFC
FC7C
F83E
F01E
F01E
F01E
F01E
F83E
FC7E
7FFE
3FFE
0FFE
001E
001E
003E
003E
F07C
F8FC
7FF8
3FF0
1FE0
0000
0000
0000
0000
0000
0000
0000
ENDCHAR
STARTCHAR char58
ENCODING 58
SWIDTH 810 0
DWIDTH 9 0
BBX 6 31 1 -7
BITMAP
00
00
00
00
00
00
00
00
00
00
78
FC
FC
78
00
00
00
00
00
78
FC
FC
FC
78
00
00
00
00
00
00
00
ENDCHAR
STARTCHAR char59
ENCODING 59
SWIDTH 720 0
DWIDTH 8 0
BBX 6 31 0 -7
BITMAP
00
00
00
00
00
00
00
00
00
00
78
FC
FC
78
00
00
00
00
78
FC
FC
FC
3C
3C
7C
78
E0
E0
C0
00
00
ENDCHAR
STARTCHAR char60
ENCODING 60
SWIDTH 1620 0
DWIDTH 18 0
BBX 15 31 0 -7
BITMAP
0000
0000
0000
0000
0000
000E
003E
01F8
07E0
07E0
3F00
FC00
FC00
3F00
07E0
07E0
01F8
003E
000E
0000
0000
0000
0000
0000
0000
0000
0000
0000
0000
0000
0000
ENDCHAR
STARTCHAR char61
ENCODING 61
SWIDTH 1800 0
DWIDTH 20 0
BBX 17 31 1 -7
BITMAP
000000
000000
000000
000000
000000
000000
000000
000000
000000
000000
000000
FFFF80
FFFF80
000000
000000
000000
FFFF80
FFFF80
000000
000000
000000
000000
000000
000000
000000
000000
000000
000000
000000
000000
000000
ENDCHAR
STARTCHAR char62
ENCODING 62
SWIDTH 1620 0
DWIDTH 18 0
BBX 15 31 0 -7
BITMAP
0000
0000
0000
0000
0000
E000
FC00
3F00
07E0
07E0
01F8
003E
003E
01F8
07E0
07E0
3F00
FC00
E000
0000
0000
0000
0000
0000
0000
0000
0000
0000
0000
0000
0000
ENDCHAR
STARTCHAR char63
ENCODING 63
SWIDTH 1260 0
DWIDTH 14 0
BBX 12 31 0 -7
BITMAP
0000
3F80
7BE0
7BE0
E0E0
F8F0
F9F0
61F0
03F0
03F0
07E0
0F80
0F00
0E00
0C00
0C00
0C00
0C00
0000
0000
0E00
0E00
3F00
0E00
0000
0000
0000
0000
0000
0000
0000
ENDCHAR
STARTCHAR char64
ENCODING 64
SWIDTH 2250 0
DWIDTH 25 0
BBX 22 31 1 -7
BITMAP
000000
000000
000000
000000
000000
000000
07FFC0
0FFFE0
1E00F0
3C00F0
780078
F3F83C
F7FC3C
EF9F3C
EF0F3C
EF0F3C
EF0F3C
EF0F3C
EF0F78
EF9FF0
E7FFE0
E1FE00
F00000
7FFFFC
1FFFFC
000000
000000
000000
000000
000000
000000
ENDCHAR
STARTCHAR char65
ENCODING 65
SWIDTH 1980 0
DWIDTH 22 0
BBX 20 31 0 -7
BITMAP
000000
00F000
00F000
01F800
01F800
01F800
03FC00
03FC00
03FC00
079E00
079E00
079E00
0F0F00
0F0F00
0F0F00
1FFF80
1FFF80
1FFF80
3C03C0
3C03C0
3C03C0
7801E0
7801E0
F801F0
000000
000000
000000
000000
000000
000000
000000
ENDCHAR
STARTCHAR char66
ENCODING 66
SWIDTH 1890 0
DWIDTH 21 0
BBX 18 31 1 -7
BITMAP
000000
FFFC00
FFFF00
FFFF80
F01FC0
F007C0
F003C0
F003C0
F003C0
F007C0
F01F80
FFFF00
FFFC00
FFFF00
F01F80
F007C0
F003C0
F003C0
F003C0
F007C0
F01FC0
FFFF80
FFFF00
FFFC00
000000
000000
000000
000000
000000
000000
000000
ENDCHAR
STARTCHAR char67
ENCODING 67
SWIDTH 1890 0
DWIDTH 21 0
BBX 19 31 0 -7
BITMAP
000000
03FC00
0FFF00
1FFF80
3F0FC0
7E07E0
7C03E0
F801E0
F80000
F00000
F00000
F00000
F00000
F00000
F00000
F00000
F80000
F801E0
7C03E0
7E07E0
3F0FC0
1FFF80
0FFF00
03FC00
000000
000000
000000
000000
000000
000000
000000
ENDCHAR
STARTCHAR char68
ENCODING 68
SWIDTH 1890 0
DWIDTH 21 0
BBX 18 31 1 -7
BITMAP
000000
FFF800
FFFE00
FFFF00
F03F80
F00F80
F007C0
F007C0
F003C0
F003C0
F003C0
F003C0
F003C0
F003C0
F003C0
F003C0
F003C0
F007C0
F007C0
F00FC0
F03F80
FFFF80
FFFE00
FFF800
000000
000000
000000
000000
000000
000000
000000
ENDCHAR
STARTCHAR char69
ENCODING 69
SWIDTH 1710 0
DWIDTH 19 0
BBX 16 31 1 -7
BITMAP
0000
FFFF
FFFF
FFFF
F000
F000
F000
F000
F000
F000
F000
FFF0
FFF0
FFF0
F000
F000
F000
F000
F000
F000
F000
FFFF
FFFF
FFFF
0000
0000
0000
0000
0000
0000
0000
ENDCHAR
STARTCHAR char70
ENCODING 70
SWIDTH 1710 0
DWIDTH 19 0
BBX 16 31 1 -7
BITMAP
0000
FFFF
FFFF
FFFF
F000
F000
F000
F000
F000
F000
F000
FFF0
FFF0
FFF0
F000
F000
F000
F000
F000
F000
F000
F000
F000
F000
0000
0000
0000
0000
0000
0000
0000
ENDCHAR
STARTCHAR char71
ENCODING 71
SWIDTH 1980 0
DWIDTH 22 0
BBX 19 31 1 -7
BITMAP
000000
0FFE00
1FFF80
3FFF80
7E0FC0
7C03E0
F801E0
F801E0
F00000
F00000
F00000
F00000
F00000
F03FE0
F03FE0
F03FE0
F001E0
F801E0
F803E0
7C07E0
7E0FE0
3FFFE0
1FFFE0
0FFEE0
000000
000000
000000
000000
000000
000000
000000
ENDCHAR
STARTCHAR char72
ENCODING 72
SWIDTH 1800 0
DWIDTH 20 0
BBX 17 31 1 -7
BITMAP
000000
F00780
F00780
F00780
F00780
F00780
F00780
F00780
F00780
F00780
F00780
FFFF80
FFFF80
FFFF80
F00780
F00780
F00780
F00780
F00780
F00780
F00780
F00780
F00780
F00780
000000
000000
000000
000000
000000
000000
000000
ENDCHAR
STARTCHAR char73
ENCODING 73
SWIDTH 720 0
DWIDTH 8 0
BBX 4 31 1 -7
BITMAP
00
F0
F0
F0
F0
F0
F0
F0
F0
F0
F0
F0
F0
F0
F0
F0
F0
F0
F0
F0
F0
F0
F0
F0
00
00
00
00
00
00
00
ENDCHAR
STARTCHAR char74
ENCODING 74
SWIDTH 1620 0
DWIDTH 18 0
BBX 14 31 0 -7
BITMAP
0000
003C
003C
003C
003C
003C
003C
003C
003C
003C
003C
003C
003C
003C
003C
003C
003C
003C
F03C
F07C
F87C
7FFC
7FF8
1FE0
0000
0000
0000
0000
0000
0000
0000
ENDCHAR
STARTCHAR char75
ENCODING 75
SWIDTH 1800 0
DWIDTH 20 0
BBX 16 31 1 -7
BITMAP
0000
F00F
F01F
F03F
F07E
F0FC
F1F8
F3F0
F7E0
FFC0
FF80
FF00
FE00
FF00
FF80
F7C0
F3E0
F1F0
F0F8
F07C
F03E
F01F
F01F
F00F
0000
0000
0000
0000
0000
0000
0000
ENDCHAR
STARTCHAR char76
ENCODING 76
SWIDTH 1530 0
DWIDTH 17 0
BBX 14 31 1 -7
BITMAP
0000
F000
F000
F000
F000
F000
F000
F000
F000
F000
F000
F000
F000
F000
F000
F000
F000
F000
F000
F000
F000
FFFC
FFFC
FFFC
0000
0000
0000
0000
0000
0000
0000
ENDCHAR
STARTCHAR char77
ENCODING 77
SWIDTH 2340 0
DWIDTH 26 0
BBX 22 31 1 -7
BITMAP
000000
F0003C
F8007C
F8007C
FC00FC
FC00FC
FC00FC
FE01FC
FE01FC
FF03FC
FF03FC
FF87FC
FF87FC
FF87FC
F7CFBC
F7CFBC
F3CF3C
F3FF3C
F1FE3C
F1FE3C
F1FE3C
F0FC3C
F0FC3C
F0783C
000000
000000
000000
000000
000000
000000
000000
ENDCHAR
STARTCHAR char78
ENCODING 78
SWIDTH 1890 0
DWIDTH 21 0
BBX 18 31 1 -7
BITMAP
000000
FC03C0
FC03C0
FE03C0
FE03C0
FF03C0
FF03C0
FF83C0
FF83C0
F7C3C0
F7C3C0
F3E3C0
F3E3C0
F1F3C0
F1F3C0
F0FBC0
F0FBC0
F07FC0
F07FC0
F03FC0
F03FC0
F01FC0
F01FC0
F00FC0
000000
000000
000000
000000
000000
000000
000000
ENDCHAR
STARTCHAR char79
ENCODING 79
SWIDTH 1890 0
DWIDTH 21 0
BBX 19 31 0 -7
BITMAP
000000
03F800
0FFE00
1FFF00
3E0F80
3C0780
7803C0
7803C0
F001E0
F001E0
F001E0
F001E0
F001E0
F001E0
F001E0
F001E0
F001E0
F001E0
F803E0
7803C0
7C07C0
3E0F80
3FFF80
1FFF00
03F800
000000
000000
000000
000000
000000
000000
ENDCHAR
STARTCHAR char80
ENCODING 80
SWIDTH 1800 0
DWIDTH 20 0
BBX 17 31 1 -7
BITMAP
000000
FFFC00
FFFE00
FFFF00
F01F80
F00F80
F00780
F00780
F00780
F00F80
F01F80
FFFF00
FFFE00
FFF800
F00000
F00000
F00000
F00000
F00000
F00000
F00000
F00000
F00000
F00000
000000
000000
000000
000000
000000
000000
000000
ENDCHAR
STARTCHAR char81
ENCODING 81
SWIDTH 1890 0
DWIDTH 21 0
BBX 19 31 0 -7
BITMAP
000000
03F800
0FFE00
1FFF00
3E0F80
3C0780
7803C0
7803C0
F001E0
F001E0
F001E0
F001E0
F001E0
F001E0
F001E0
F001E0
F001E0
F001E0
F803E0
7803C0
7C07C0
3E0F80
3FFF80
1FFF00
03F800
007C00
003F80
001FC0
000FC0
000000
000000
ENDCHAR
STARTCHAR char82
ENCODING 82
SWIDTH 1800 0
DWIDTH 20 0
BBX 17 31 1 -7
BITMAP
000000
FFFC00
FFFE00
FFFF00
F01F80
F00F80
F00780
F00780
F00780
F00F80
F01F80
FFFF00
FFFE00
FFF800
F1F000
F0F800
F0F800
F07C00
F03E00
F03F00
F01F00
F00F80
F00F80
F00780
000000
000000
000000
000000
000000
000000
000000
ENDCHAR
STARTCHAR char83
ENCODING 83
SWIDTH 1710 0
DWIDTH 19 0
BBX 16 31 1 -7
BITMAP
0000
07E0
1FF8
3FFE
7E7F
781F
F00F
F000
F000
F000
F800
7E00
7FE0
3FFC
0FFE
00FE
001F
000F
000F
F00F
F81F
FE7E
7FFE
1FFC
07E0
0000
0000
0000
0000
0000
0000
ENDCHAR
STARTCHAR char84
ENCODING 84
SWIDTH 1800 0
DWIDTH 20 0
BBX 18 31 0 -7
BITMAP
000000
FFFFC0
FFFFC0
FFFFC0
01E000
01E000
01E000
01E000
01E000
01E000
01E000
01E000
01E000
01E000
01E000
01E000
01E000
01E000
01E000
01E000
01E000
01E000
01E000
01E000
000000
000000
000000
000000
000000
000000
000000
ENDCHAR
STARTCHAR char85
ENCODING 85
SWIDTH 1890 0
DWIDTH 21 0
BBX 18 31 1 -7
BITMAP
000000
F003C0
F003C0
F003C0
F003C0
F003C0
F003C0
F003C0
F003C0
F003C0
F003C0
F003C0
F003C0
F003C0
F003C0
F003C0
F003C0
F003C0
F003C0
F807C0
7C0F80
7FFF80
3FFF00
0FFC00
000000
000000
000000
000000
000000
000000
000000
ENDCHAR
STARTCHAR char86
ENCODING 86
SWIDTH 1890 0
DWIDTH 21 0
BBX 19 31 0 -7
BITMAP
000000
F001E0
F001E0
F803E0
F803E0
7803C0
7C07C0
3C0780
3C0780
3C0780
3E0F80
1E0F00
1E0F00
1F1F00
1F1F00
0F1E00
0F1E00
0FBE00
07BC00
07BC00
07FC00
07FC00
01F000
01F000
000000
000000
000000
000000
000000
000000
000000
ENDCHAR
STARTCHAR char87
ENCODING 87
SWIDTH 2880 0
DWIDTH 32 0
BBX 30 31 0 -7
BITMAP
00000000
F000003C
F000003C
F000003C
F807807C
78078078
78078078
7C0FC0F8
3C0FC0F0
3C0FC0F0
3E1FE1F0
1E1FE1E0
1E1FE1E0
1F3FF3E0
0F3CF3C0
0F3CF3C0
0FFCFFC0
07F87F80
07F87F80
07F87F80
03F03F00
03F03F00
01E01E00
01E01E00
00000000
00000000
00000000
00000000
00000000
00000000
00000000
ENDCHAR
STARTCHAR char88
ENCODING 88
SWIDTH 1800 0
DWIDTH 20 0
BBX 18 31 0 -7
BITMAP
000000
F003C0
F003C0
F807C0
7C0F80
7C0F80
3E1F00
1F3E00
1F3E00
0FFC00
07F800
03F000
01E000
03F000
07F800
0FFC00
1F3E00
1F3E00
3E1F00
7C0F80
7C0F80
F807C0
F003C0
F003C0
000000
000000
000000
000000
000000
000000
000000
ENDCHAR
STARTCHAR char89
ENCODING 89
SWIDTH 1800 0
DWIDTH 20 0
BBX 18 31 0 -7
BITMAP
000000
F003C0
F003C0
F807C0
7C0F80
7C0F80
3E1F00
1F3E00
1F3E00
0FFC00
07F800
03F000
03F000
01E000
01E000
01E000
01E000
01E000
01E000
01E000
01E000
01E000
01E000
01E000
000000
000000
000000
000000
000000
000000
000000
ENDCHAR
STARTCHAR char90
ENCODING 90
SWIDTH 1710 0
DWIDTH 19 0
BBX 17 31 0 -7
BITMAP
000000
FFFF80
FFFF80
FFFF80
000F80
001F00
001F00
003E00
007E00
00FC00
00F800
01F000
03F000
07E000
07C000
0F8000
1F8000
3F0000
3E0000
7C0000
FC0000
FFFF80
FFFF80
FFFF80
000000
000000
000000
000000
000000
000000
000000
ENDCHAR
STARTCHAR char91
ENCODING 91
SWIDTH 1170 0
DWIDTH 13 0
BBX 10 31 1 -7
BITMAP
FFC0
FFC0
F000
F000
F000
F000
F000
F000
F000
F000
F000
F000
F000
F000
F000
F000
F000
F000
F000
F000
F000
F000
F000
F000
F000
F000
F000
F000
FFC0
FFC0
0000
ENDCHAR
STARTCHAR char92
ENCODING 92
SWIDTH 1530 0
DWIDTH 17 0
BBX 13 31 1 -7
BITMAP
F000
F800
7800
7800
7800
7C00
1C00
1C00
1E00
1E00
0E00
0E00
0F00
0700
0700
0700
07C0
03C0
03C0
03E0
01E0
01E0
01E0
01F0
0070
0070
0078
0078
0038
0038
0000
ENDCHAR
STARTCHAR char93
ENCODING 93
SWIDTH 1170 0
DWIDTH 13 0
BBX 10 31 1 -7
BITMAP
FFC0
FFC0
03C0
03C0
03C0
03C0
03C0
03C0
03C0
03C0
03C0
03C0
03C0
03C0
03C0
03C0
03C0
03C0
03C0
03C0
03C0
03C0
03C0
03C0
03C0
03C0
03C0
03C0
FFC0
FFC0
0000
ENDCHAR
STARTCHAR char95
ENCODING 95
SWIDTH 1710 0
DWIDTH 19 0
BBX 19 31 0 -7
BITMAP
000000
000000
000000
000000
000000
000000
000000
000000
000000
000000
000000
000000
000000
000000
000000
000000
000000
000000
000000
000000
000000
000000
000000
000000
000000
FFFFE0
FFFFE0
FFFFE0
000000
000000
000000
ENDCHAR
STARTCHAR char96
ENCODING 96
SWIDTH 810 0
DWIDTH 9 0
BBX 7 31 0 -7
BITMAP
00
7C
FE
FE
FC
C0
E0
78
3C
3C
0E
00
00
00
00
00
00
00
00
00
00
00
00
00
00
00
00
00
00
00
00
ENDCHAR
STARTCHAR char97
ENCODING 97
SWIDTH 1620 0
DWIDTH 18 0
BBX 16 31 1 -7
BITMAP
0000
0000
0000
0000
0000
0000
0000
0000
0FC0
3FF8
7FFC
FC7E
F83F
003F
07FF
1FFF
3FFF
7E3F
FC3F
FC3F
FC3F
7E7F
3FFF
1FDF
0FBF
0000
0000
0000
0000
0000
0000
ENDCHAR
STARTCHAR char98
ENCODING 98
SWIDTH 1710 0
DWIDTH 19 0
BBX 18 31 1 -7
BITMAP
000000
FC0000
FC0000
FC0000
FC0000
FC0000
FC0000
FC0000
FCFC00
FDFE00
FFFF00
FF1F80
FE0F80
FC0FC0
F807C0
F807C0
F807C0
F807C0
FC07C0
FE0FC0
FF1F80
FFFF00
FFFE00
FDFC00
000000
000000
000000
000000
000000
000000
000000
ENDCHAR
STARTCHAR char99
ENCODING 99
SWIDTH 1440 0
DWIDTH 16 0
BBX 16 31 0 -7
BITMAP
0000
0000
0000
0000
0000
0000
0000
0000
0FE0
3FFC
7FFE
7E3F
FC1F
FC00
FC00
FC00
FC00
FC00
FC00
FC1F
7E3F
7FFE
3FFC
07F0
0000
0000
0000
0000
0000
0000
0000
ENDCHAR
STARTCHAR char100
ENCODING 100
SWIDTH 1620 0
DWIDTH 18 0
BBX 18 31 0 -7
BITMAP
000000
000F80
0007C0
0007C0
0007C0
0007C0
0007C0
0007C0
03F7C0
0FFFC0
3FFFC0
7E3FC0
FC1FC0
FC0FC0
F807C0
F807C0
F807C0
F807C0
FC0FC0
FC1FC0
7E3FC0
3FFFC0
1FF7C0
07E7C0
000000
000000
000000
000000
000000
000000
000000
ENDCHAR
STARTCHAR char101
ENCODING 101
SWIDTH 1710 0
DWIDTH 19 0
BBX 18 31 1 -7
BITMAP
000000
000000
F00000
000000
000000
000000
000000
000000
01F000
0FFE00
3FFF00
7E1F80
FC0F80
F807C0
FFFFC0
FFFFC0
FFFFC0
FC0000
FC0000
FC07C0
7E0FC0
3FFF80
1FFF00
07FC00
000000
000000
000000
000000
000000
000000
000000
ENDCHAR
STARTCHAR char102
ENCODING 102
SWIDTH 1080 0
DWIDTH 12 0
BBX 11 31 1 -7
BITMAP
0000
07E0
0FE0
1FE0
1F80
1F00
1F00
1F00
FFE0
FFE0
FFE0
1F00
1F00
1F00
1F00
1F00
1F00
1F00
1F00
1F00
1F00
1F00
1F00
1F00
0000
0000
0000
0000
0000
0000
0000
ENDCHAR
STARTCHAR char103
ENCODING 103
SWIDTH 1530 0
DWIDTH 17 0
BBX 16 31 1 -7
BITMAP
0000
0000
0000
0000
0000
0000
0000
0000
1FDE
3FFF
7FFE
F8F8
F07C
F07C
F07C
F8FC
7FF8
7FF8
3FE0
FE00
F800
7FF0
3FFC
7FFE
F87E
F03E
F87E
FFFE
7FFC
1FF0
0000
ENDCHAR
STARTCHAR char104
ENCODING 104
SWIDTH 1530 0
DWIDTH 17 0
BBX 15 31 1 -7
BITMAP
0000
F000
F800
F800
F800
F800
F800
F800
F7F0
FFF8
FFF8
FCFC
F87C
F87E
F83E
F83E
F83E
F83E
F83E
F83E
F83E
F83E
F83E
F83E
0000
0000
0000
0000
0000
0000
0000
ENDCHAR
STARTCHAR char105
ENCODING 105
SWIDTH 810 0
DWIDTH 9 0
BBX 6 31 1 -7
BITMAP
00
78
FC
FC
78
00
00
00
FC
FC
FC
FC
FC
FC
FC
FC
FC
FC
FC
FC
FC
FC
FC
FC
00
00
00
00
00
00
00
ENDCHAR
STARTCHAR char106
ENCODING 106
SWIDTH 1080 0
DWIDTH 12 0
BBX 10 31 0 -7
BITMAP
0000
0780
0FC0
0FC0
0780
0000
0000
0000
0FC0
0FC0
0FC0
0FC0
0FC0
0FC0
0FC0
0FC0
0FC0
0FC0
0FC0
0FC0
0FC0
0FC0
0FC0
0FC0
0FC0
0FC0
1FC0
FF80
FF00
FC00
0000
ENDCHAR
STARTCHAR char107
ENCODING 107
SWIDTH 1530 0
DWIDTH 17 0
BBX 16 31 1 -7
BITMAP
0000
FC00
FC00
FC00
FC00
FC00
FC00
FC00
FC1E
FC3E
FC7E
FCFC
FBF0
FFE0
FFC0
FFC0
FFE0
FFF0
F9F8
F8FC
F87E
F83F
F81F
F80F
0000
0000
0000
0000
0000
0000
0000
ENDCHAR
STARTCHAR char108
ENCODING 108
SWIDTH 810 0
DWIDTH 9 0
BBX 6 31 1 -7
BITMAP
00
FC
FC
FC
FC
FC
FC
FC
FC
FC
FC
FC
FC
FC
FC
FC
FC
FC
FC
FC
FC
FC
FC
FC
00
00
00
00
00
00
00
ENDCHAR
STARTCHAR char109
ENCODING 109
SWIDTH 2160 0
DWIDTH 24 0
BBX 23 31 1 -7
BITMAP
000000
000000
000000
000000
000000
000000
000000
000000
F9E1F0
FBF7F8
FFFFFC
FF7F7E
FE3E3E
FC3C3E
F83C3E
F83C3E
F83C3E
F83C3E
F83C3E
F83C3E
F83C3E
F83C3E
F83C3E
F83C3E
000000
000000
000000
000000
000000
000000
000000
ENDCHAR
STARTCHAR char110
ENCODING 110
SWIDTH 1530 0
DWIDTH 17 0
BBX 16 31 1 -7
BITMAP
0000
0000
0000
0000
0000
0000
0000
0000
F9F0
FBFC
FFFE
FF7E
FE3F
FC1F
F81F
F81F
F81F
F81F
F81F
F81F
F81F
F81F
F81F
F81F
0000
0000
0000
0000
0000
0000
0000
ENDCHAR
STARTCHAR char111
ENCODING 111
SWIDTH 1620 0
DWIDTH 18 0
BBX 17 31 1 -7
BITMAP
000000
000000
000000
000000
000000
000000
000000
000000
07F000
1FFC00
3FFE00
7F7F00
7C1F00
FC1F80
F80F80
F80F80
F80F80
F80F80
FC1F80
FC1F00
7F7F00
3FFE00
1FFC00
07F000
000000
000000
000000
000000
000000
000000
000000
ENDCHAR
STARTCHAR char112
ENCODING 112
SWIDTH 1710 0
DWIDTH 19 0
BBX 18 31 1 -7
BITMAP
000000
000000
000000
000000
000000
000000
000000
000000
F9FC00
FBFE00
FFFF00
FF3F80
FC0F80
FC0FC0
F807C0
F807C0
F807C0
F807C0
FC0FC0
FC0F80
FF3F80
FFFF00
FBFE00
F9F000
F80000
F80000
F80000
F80000
F80000
F80000
000000
ENDCHAR
STARTCHAR char113
ENCODING 113
SWIDTH 1710 0
DWIDTH 19 0
BBX 18 31 1 -7
BITMAP
000000
000000
000000
000000
000000
000000
000000
000000
07E7C0
1FF7C0
3FFFC0
7F3FC0
7C0FC0
FC0FC0
F807C0
F807C0
F807C0
F807C0
FC0FC0
7C0FC0
7F3FC0
3FFFC0
1FF7C0
07E7C0
0007C0
0007C0
0007C0
0007C0
0007C0
0007C0
000000
ENDCHAR
STARTCHAR char114
ENCODING 114
SWIDTH 1260 0
DWIDTH 14 0
BBX 13 31 1 -7
BITMAP
0000
0000
0000
0000
0000
0000
0000
0000
FC38
FCF8
FDF8
FFE0
FF80
FF00
FE00
FC00
FC00
FC00
FC00
FC00
FC00
FC00
FC00
FC00
0000
0000
0000
0000
0000
0000
0000
ENDCHAR
STARTCHAR char115
ENCODING 115
SWIDTH 1440 0
DWIDTH 16 0
BBX 15 31 1 -7
BITMAP
0000
0000
0000
0000
0000
0000
0000
0000
07C0
3FF8
7FFC
FC7E
F83E
FC00
FE00
7FE0
1FFC
01FE
007E
F83E
FC7E
7FFC
3FF8
0FE0
0000
0000
0000
0000
0000
0000
0000
ENDCHAR
STARTCHAR char116
ENCODING 116
SWIDTH 1170 0
DWIDTH 13 0
BBX 11 31 0 -7
BITMAP
0000
1F00
1F00
1F00
1F00
1F00
1F00
FFE0
FFE0
FFE0
1F00
1F00
1F00
1F00
1F00
1F00
1F00
1F00
1F00
1F00
1F00
1F80
0FE0
07E0
0000
0000
0000
0000
0000
0000
0000
ENDCHAR
STARTCHAR char117
ENCODING 117
SWIDTH 1620 0
DWIDTH 18 0
BBX 17 31 1 -7
BITMAP
000000
000000
000000
000000
000000
000000
000000
000000
F80F80
F80F80
F80F80
F80F80
F80F80
F80F80
F80F80
F80F80
F80F80
F80F80
F80F80
F80F80
FC1F80
FFFF80
7FEF80
1FCF80
000000
000000
000000
000000
000000
000000
000000
ENDCHAR
STARTCHAR char118
ENCODING 118
SWIDTH 1710 0
DWIDTH 19 0
BBX 18 31 1 -7
BITMAP
000000
000000
000000
000000
000000
000000
000000
000000
F807C0
F807C0
7C0F80
7C0F80
3E1F00
3E1F00
1F3E00
1F3E00
0FBC00
0FFC00
07F800
07F800
03F000
01F000
00E000
004000
000000
000000
000000
000000
000000
000000
000000
ENDCHAR
STARTCHAR char119
ENCODING 119
SWIDTH 2340 0
DWIDTH 26 0
BBX 25 31 0 -7
BITMAP
00000000
00000000
00000000
00000000
00000000
00000000
00000000
00000000
F83C0F80
F83C0F80
F87E0F80
7C7E1F00
7C7E1F00
7CFF1F00
3CFF3E00
3CFF3E00
3CFF3E00
1FE7FC00
1FE7FC00
1FC7FC00
0FC3F800
0FC3F800
0FC3F800
0781F000
00000000
00000000
00000000
00000000
00000000
00000000
00000000
ENDCHAR
STARTCHAR char120
ENCODING 120
SWIDTH 1710 0
DWIDTH 19 0
BBX 19 31 0 -7
BITMAP
000000
000000
000000
000000
000000
000000
000000
000000
F803E0
FC07E0
7E0FC0
3F1F80
1FBF00
0FFE00
07FC00
03F800
07FC00
0FFE00
1FBF00
3F1F80
7E0FC0
FC07E0
F803E0
F001E0
000000
000000
000000
000000
000000
000000
000000
ENDCHAR
STARTCHAR char121
ENCODING 121
SWIDTH 1620 0
DWIDTH 18 0
BBX 17 31 0 -7
BITMAP
000000
000000
000000
000000
000000
000000
000000
000000
780780
780780
7C0F80
3C0F00
3E1F00
1E1E00
1F3E00
1F3E00
0FFE00
0FFC00
07FC00
07F800
03F800
03F800
03F000
03F000
07F000
07E000
0FE000
FFC000
FFC000
FF0000
000000
ENDCHAR
STARTCHAR char122
ENCODING 122
SWIDTH 1440 0
DWIDTH 16 0
BBX 16 31 0 -7
BITMAP
0000
0000
0000
0000
0000
0000
0000
0000
FFFF
FFFF
FFFF
007F
00FE
01FC
03F8
07F0
0FE0
1FC0
3F80
7F00
FE00
FFFF
FFFF
FFFF
0000
0000
0000
0000
0000
0000
0000
ENDCHAR
STARTCHAR char123
ENCODING 123
SWIDTH 1260 0
DWIDTH 14 0
BBX 11 31 1 -7
BITMAP
07E0
0F00
1C00
1C00
1C00
1C00
1E00
0E00
0E00
0E00
0E00
0C00
1800
7800
F800
F800
7800
1800
0C00
0E00
0E00
0E00
0E00
1E00
1C00
1C00
1C00
1C00
0F00
07E0
0000
ENDCHAR
STARTCHAR char124
ENCODING 124
SWIDTH 810 0
DWIDTH 9 0
BBX 4 31 2 -7
BITMAP
F0
F0
F0
F0
F0
F0
F0
F0
F0
F0
F0
F0
F0
F0
F0
F0
F0
F0
F0
F0
F0
F0
F0
F0
F0
F0
F0
F0
F0
F0
00
ENDCHAR
STARTCHAR char125
ENCODING 125
SWIDTH 1260 0
DWIDTH 14 0
BBX 11 31 1 -7
BITMAP
FC00
1E00
0700
0700
0700
0700
0F00
0E00
0E00
0E00
0E00
0600
0300
03C0
03E0
03E0
03C0
0300
0600
0E00
0E00
0E00
0E00
0F00
0700
0700
0700
0700
1E00
FC00
0000
ENDCHAR
STARTCHAR char126
ENCODING 126
SWIDTH 1800 0
DWIDTH 20 0
BBX 18 31 0 -7
BITMAP
000000
000000
000000
000000
000000
000000
000000
000000
000000
000000
0F00C0
3F80C0
7FE3C0
7BF780
E1FF80
E1FF80
C0FE00
C03C00
000000
000000
000000
000000
000000
000000
000000
000000
000000
000000
000000
000000
000000
ENDCHAR
STARTCHAR char127
ENCODING 127
SWIDTH 1890 0
DWIDTH 21 0
BBX 19 31 0 -7
BITMAP
000000
0001C0
0003E0
0006E0
0006E0
000C00
000C00
001800
001800
003000
003000
006000
006000
00C000
00C000
018000
018000
030000
030000
060000
060000
EC0000
EC0000
F80000
700000
000000
000000
000000
000000
000000
000000
ENDCHAR
ENDFONT
