STARTFONT 2.1
FONT -MIT-32FRB KST-Medium-R-Normal--32-11-200-200-P-19-ISO8859-1
SIZE 11 200 200
FONTBOUNDINGBOX 19 32 -4 -8
STARTPROPERTIES 17
ADD_STYLE_NAME ""
AVERAGE_WIDTH 19
CHARSET_ENCODING "1"
CHARSET_REGISTRY "ISO8859"
DEFAULT_CHAR 0
FAMILY "32FRB KST"
FONT_ASCENT 24
FONT_DESCENT 8
FOUNDRY "MIT"
PIXEL_SIZE 32
POINT_SIZE 11
RESOLUTION_X 200
RESOLUTION_Y 200
SETWIDTH_NAME "Normal"
SLANT "R"
SPACING "P"
WEIGHT_NAME "Medium"
ENDPROPERTIES
CHARS 53
STARTCHAR char32
ENCODING 32
SWIDTH 1710 0
DWIDTH 19 0
BBX 1 32 0 -8
BITMAP
00
00
00
00
00
00
00
00
00
00
00
00
00
00
00
00
00
00
00
00
00
00
00
00
00
00
00
00
00
00
00
00
ENDCHAR
STARTCHAR char65
ENCODING 65
SWIDTH 1710 0
DWIDTH 19 0
BBX 18 32 1 -8
BITMAP
000000
000000
01E000
01E000
01E000
037000
037000
037000
077800
077800
063800
0E3C00
0E3C00
0E3C00
1C1E00
1C1E00
1FFE00
3FFF00
380F00
380F00
700780
700780
F80FC0
F80FC0
000000
000000
000000
000000
000000
000000
000000
000000
ENDCHAR
STARTCHAR char66
ENCODING 66
SWIDTH 1710 0
DWIDTH 19 0
BBX 16 32 1 -8
BITMAP
0000
0000
FFF8
FFFC
783E
781E
781E
781E
781E
781E
783C
7FF8
7FF8
783C
781E
780F
780F
780F
780F
780F
781F
783E
FFFC
FFF8
0000
0000
0000
0000
0000
0000
0000
0000
ENDCHAR
STARTCHAR char67
ENCODING 67
SWIDTH 1710 0
DWIDTH 19 0
BBX 16 32 2 -8
BITMAP
0000
0000
07E6
1FF6
3E3E
3C1E
780E
F806
F006
F000
F000
F000
F000
F000
F000
F000
F000
F800
7802
7807
3C0F
3E3E
1FFC
07F0
0000
0000
0000
0000
0000
0000
0000
0000
ENDCHAR
STARTCHAR char68
ENCODING 68
SWIDTH 1710 0
DWIDTH 19 0
BBX 16 32 1 -8
BITMAP
0000
0000
FFE0
FFF8
783C
781E
780E
780F
780F
780F
780F
780F
780F
780F
780F
780F
780F
780F
780F
780E
781E
783C
FFF8
FFE0
0000
0000
0000
0000
0000
0000
0000
0000
ENDCHAR
STARTCHAR char69
ENCODING 69
SWIDTH 1710 0
DWIDTH 19 0
BBX 16 32 1 -8
BITMAP
0000
0000
FFFE
FFFE
780E
7806
7806
7800
7800
7860
78E0
7FE0
7FE0
78E0
7860
7800
7800
7800
7803
7803
7807
780F
FFFF
FFFF
0000
0000
0000
0000
0000
0000
0000
0000
ENDCHAR
STARTCHAR char70
ENCODING 70
SWIDTH 1710 0
DWIDTH 19 0
BBX 15 32 2 -8
BITMAP
0000
0000
FFFE
FFFE
780E
7806
7806
7800
7800
7860
78E0
7FE0
7FE0
78E0
7860
7800
7800
7800
7800
7800
7800
7800
FC00
FC00
0000
0000
0000
0000
0000
0000
0000
0000
ENDCHAR
STARTCHAR char71
ENCODING 71
SWIDTH 1710 0
DWIDTH 19 0
BBX 16 32 2 -8
BITMAP
0000
0000
07CC
1FEC
3E7C
3C3C
781C
780C
F800
F000
F000
F000
F07F
F07F
F01E
F01E
F01E
F01E
F81E
781E
783E
3C7E
3FF6
0FE6
0000
0000
0000
0000
0000
0000
0000
0000
ENDCHAR
STARTCHAR char72
ENCODING 72
SWIDTH 1710 0
DWIDTH 19 0
BBX 17 32 1 -8
BITMAP
000000
000000
FC1F80
FC1F80
780F00
780F00
780F00
780F00
780F00
780F00
780F00
7FFF00
7FFF00
780F00
780F00
780F00
780F00
780F00
780F00
780F00
780F00
780F00
FC1F80
FC1F80
000000
000000
000000
000000
000000
000000
000000
000000
ENDCHAR
STARTCHAR char73
ENCODING 73
SWIDTH 1710 0
DWIDTH 19 0
BBX 12 32 3 -8
BITMAP
0000
0000
FFF0
FFF0
0F00
0F00
0F00
0F00
0F00
0F00
0F00
0F00
0F00
0F00
0F00
0F00
0F00
0F00
0F00
0F00
0F00
0F00
FFF0
FFF0
0000
0000
0000
0000
0000
0000
0000
0000
ENDCHAR
STARTCHAR char74
ENCODING 74
SWIDTH 1710 0
DWIDTH 19 0
BBX 16 32 2 -8
BITMAP
0000
0000
03FF
03FF
0078
0078
0078
0078
0078
0078
0078
0078
0078
0078
0078
F078
F078
F078
F078
F078
F078
78F0
3FE0
1FC0
0000
0000
0000
0000
0000
0000
0000
0000
ENDCHAR
STARTCHAR char75
ENCODING 75
SWIDTH 1710 0
DWIDTH 19 0
BBX 17 32 1 -8
BITMAP
000000
000000
FC7E00
FC7E00
783800
787000
78E000
79C000
79C000
7B8000
7F0000
7F0000
7F8000
7FC000
7BC000
79E000
78F000
78F000
787800
783C00
783C00
781E00
FC3F80
FC3F80
000000
000000
000000
000000
000000
000000
000000
000000
ENDCHAR
STARTCHAR char76
ENCODING 76
SWIDTH 1710 0
DWIDTH 19 0
BBX 15 32 2 -8
BITMAP
0000
0000
FC00
FC00
7800
7800
7800
7800
7800
7800
7800
7800
7800
7800
7800
7800
7800
7800
7806
7806
780E
781E
FFFE
FFFE
0000
0000
0000
0000
0000
0000
0000
0000
ENDCHAR
STARTCHAR char77
ENCODING 77
SWIDTH 1710 0
DWIDTH 19 0
BBX 17 32 1 -8
BITMAP
000000
000000
FC1F80
FC1F80
7C1F00
7C1F00
7E3F00
7E3F00
7E3F00
7E3F00
7E3F00
763F00
776F00
776F00
776F00
776F00
776F00
73EF00
73EF00
73CF00
73CF00
73CF00
F99F80
F99F80
000000
000000
000000
000000
000000
000000
000000
000000
ENDCHAR
STARTCHAR char78
ENCODING 78
SWIDTH 1710 0
DWIDTH 19 0
BBX 17 32 1 -8
BITMAP
000000
000000
FC0F80
FC0F80
7E0700
7E0700
7E0700
7F0700
7F0700
778700
778700
77C700
73C700
73E700
71E700
71F700
70F700
70F700
707F00
707F00
703F00
703F00
F81F00
F81F00
000000
000000
000000
000000
000000
000000
000000
000000
ENDCHAR
STARTCHAR char79
ENCODING 79
SWIDTH 1710 0
DWIDTH 19 0
BBX 15 32 2 -8
BITMAP
0000
0000
07C0
1FF0
3C78
783C
783C
F01E
F01E
F01E
F01E
F01E
F01E
F01E
F01E
F01E
F01E
F01E
F01E
783C
783C
3C78
1FF0
07C0
0000
0000
0000
0000
0000
0000
0000
0000
ENDCHAR
STARTCHAR char80
ENCODING 80
SWIDTH 1710 0
DWIDTH 19 0
BBX 16 32 2 -8
BITMAP
0000
0000
FFF0
FFFC
783E
781E
780F
780F
780F
780F
780F
781E
783E
7FFC
7FF0
7800
7800
7800
7800
7800
7800
7800
FC00
FC00
0000
0000
0000
0000
0000
0000
0000
0000
ENDCHAR
STARTCHAR char81
ENCODING 81
SWIDTH 1710 0
DWIDTH 19 0
BBX 17 32 2 -8
BITMAP
000000
000000
07C000
1FF000
3C7800
783C00
783C00
F01E00
F01E00
F01E00
F01E00
F01E00
F01E00
F01E00
F01E00
F01E00
F01E00
F79E00
FFDE00
78FC00
787C00
3C7980
1FFF80
07CF00
000000
000000
000000
000000
000000
000000
000000
000000
ENDCHAR
STARTCHAR char82
ENCODING 82
SWIDTH 1710 0
DWIDTH 19 0
BBX 17 32 1 -8
BITMAP
000000
000000
FFF000
FFFC00
783E00
781F00
780F00
780F00
780F00
780F00
781E00
783E00
7FFC00
7FF000
79E000
78F000
787800
787800
783C00
783C00
781E00
780F00
FC0780
FC0780
000000
000000
000000
000000
000000
000000
000000
000000
ENDCHAR
STARTCHAR char83
ENCODING 83
SWIDTH 1710 0
DWIDTH 19 0
BBX 15 32 2 -8
BITMAP
0000
0000
07CC
1FEC
3E7C
7C3C
781C
780C
7C0C
7E00
3F00
1FC0
07F0
01F8
007C
003E
001E
C01E
C01E
E01E
F03E
F87C
DFF8
CFE0
0000
0000
0000
0000
0000
0000
0000
0000
ENDCHAR
STARTCHAR char84
ENCODING 84
SWIDTH 1710 0
DWIDTH 19 0
BBX 16 32 2 -8
BITMAP
0000
0000
FFFF
FFFF
E3C7
C3C3
03C0
03C0
03C0
03C0
03C0
03C0
03C0
03C0
03C0
03C0
03C0
03C0
03C0
03C0
03C0
03C0
0FF0
0FF0
0000
0000
0000
0000
0000
0000
0000
0000
ENDCHAR
STARTCHAR char85
ENCODING 85
SWIDTH 1710 0
DWIDTH 19 0
BBX 16 32 2 -8
BITMAP
0000
0000
FC1F
FC1F
780E
780E
780E
780E
780E
780E
780E
780E
780E
780E
780E
780E
780E
780E
780E
780E
7C1E
3E3C
1FF8
0FF0
0000
0000
0000
0000
0000
0000
0000
0000
ENDCHAR
STARTCHAR char86
ENCODING 86
SWIDTH 1710 0
DWIDTH 19 0
BBX 17 32 1 -8
BITMAP
000000
000000
FC0F80
FC0F80
780700
780700
780E00
3C0E00
3C0E00
3C0E00
1E1C00
1E1C00
1E1C00
0F3800
0F3800
0F3800
073000
07B000
07B000
03E000
03E000
03E000
01C000
01C000
000000
000000
000000
000000
000000
000000
000000
000000
ENDCHAR
STARTCHAR char87
ENCODING 87
SWIDTH 1710 0
DWIDTH 19 0
BBX 19 32 0 -8
BITMAP
000000
000000
FC63E0
FC63E0
7861C0
78F1C0
78F1C0
78F1C0
78F1C0
78F1C0
3CF380
3CFB80
3DFB80
3DFB80
3DBB80
3DBB80
3DBB80
1F9F80
1F9F80
1F9F00
1F1F00
0F0F00
0F0E00
0E0E00
000000
000000
000000
000000
000000
000000
000000
000000
ENDCHAR
STARTCHAR char88
ENCODING 88
SWIDTH 1710 0
DWIDTH 19 0
BBX 16 32 2 -8
BITMAP
0000
0000
7E3E
7E3E
3C1C
3C1C
1E38
1E38
0F70
0F70
07E0
07E0
03C0
07E0
0FF0
0EF0
1C78
1C78
383C
383C
701E
701E
F83F
F83F
0000
0000
0000
0000
0000
0000
0000
0000
ENDCHAR
STARTCHAR char89
ENCODING 89
SWIDTH 1710 0
DWIDTH 19 0
BBX 17 32 1 -8
BITMAP
000000
000000
FC0F80
FC0F80
780700
780700
3C0E00
3C0E00
1E1C00
1E1C00
0F3800
07F000
03E000
03E000
01C000
01C000
01C000
01C000
01C000
01C000
01C000
01C000
07F000
07F000
000000
000000
000000
000000
000000
000000
000000
000000
ENDCHAR
STARTCHAR char90
ENCODING 90
SWIDTH 1710 0
DWIDTH 19 0
BBX 15 32 2 -8
BITMAP
0000
0000
7FFE
7FFE
700E
601E
603C
003C
0078
00F0
00F0
01E0
03C0
03C0
0780
0F00
0F00
1E00
3C06
3C06
780E
F01E
FFFE
FFFE
0000
0000
0000
0000
0000
0000
0000
0000
ENDCHAR
STARTCHAR char97
ENCODING 97
SWIDTH 1710 0
DWIDTH 19 0
BBX 15 32 2 -8
BITMAP
0000
0000
0000
0000
0000
0000
0000
0000
0FE0
3FF8
787C
703C
003C
003C
1F3C
7FFC
F87C
F03C
F03C
F03C
F03C
F87C
7FFE
3F9E
0000
0000
0000
0000
0000
0000
0000
0000
ENDCHAR
STARTCHAR char98
ENCODING 98
SWIDTH 1710 0
DWIDTH 19 0
BBX 15 32 2 -8
BITMAP
0000
0000
F800
F800
7800
7800
7800
7800
79E0
7BF8
7E7C
7C3C
781E
781E
781E
781E
781E
781E
781E
781E
7C3C
7E7C
FBF8
F9E0
0000
0000
0000
0000
0000
0000
0000
0000
ENDCHAR
STARTCHAR char99
ENCODING 99
SWIDTH 1710 0
DWIDTH 19 0
BBX 15 32 2 -8
BITMAP
0000
0000
0000
0000
0000
0000
0000
0000
0FF8
3FFC
7C3E
781C
F000
F000
F000
F000
F000
F000
F000
F000
781C
7C3E
3FFC
0FF8
0000
0000
0000
0000
0000
0000
0000
0000
ENDCHAR
STARTCHAR char100
ENCODING 100
SWIDTH 1710 0
DWIDTH 19 0
BBX 15 32 2 -8
BITMAP
0000
0000
007C
007C
003C
003C
003C
003C
1F3C
3FBC
7CFC
F87C
F03C
F03C
F03C
F03C
F03C
F03C
F03C
F03C
F87C
7CFC
3FBE
1F3E
0000
0000
0000
0000
0000
0000
0000
0000
ENDCHAR
STARTCHAR char101
ENCODING 101
SWIDTH 1710 0
DWIDTH 19 0
BBX 15 32 2 -8
BITMAP
0000
0000
0000
0000
0000
0000
0000
0000
0FE0
3FF8
7C7C
783C
F01E
F01E
F01E
FFFE
FFFE
F000
F000
F000
781C
7C3E
3FFC
0FF0
0000
0000
0000
0000
0000
0000
0000
0000
ENDCHAR
STARTCHAR char102
ENCODING 102
SWIDTH 1710 0
DWIDTH 19 0
BBX 16 32 2 -8
BITMAP
0000
0000
03FC
07FE
0F8F
0F06
0F00
0F00
FFF0
FFF0
0F00
0F00
0F00
0F00
0F00
0F00
0F00
0F00
0F00
0F00
0F00
0F00
FFF0
FFF0
0000
0000
0000
0000
0000
0000
0000
0000
ENDCHAR
STARTCHAR char103
ENCODING 103
SWIDTH 1710 0
DWIDTH 19 0
BBX 15 32 3 -8
BITMAP
0000
0000
0000
0000
0000
0000
0000
0000
0F3E
3FBE
78FC
787C
F03C
F03C
F03C
F03C
F03C
F03C
F03C
F03C
787C
7CFC
3FBC
0F3C
003C
003C
E03C
E078
7FF0
3FE0
0000
0000
ENDCHAR
STARTCHAR char104
ENCODING 104
SWIDTH 1710 0
DWIDTH 19 0
BBX 16 32 2 -8
BITMAP
0000
0000
F800
F800
7800
7800
7800
7800
79F8
7BFC
7E3E
7C1E
781E
781E
781E
781E
781E
781E
781E
781E
781E
781E
FC3F
FC3F
0000
0000
0000
0000
0000
0000
0000
0000
ENDCHAR
STARTCHAR char105
ENCODING 105
SWIDTH 1710 0
DWIDTH 19 0
BBX 12 32 4 -8
BITMAP
0000
0000
0F00
0F00
0F00
0000
0000
0000
FF00
FF00
0F00
0F00
0F00
0F00
0F00
0F00
0F00
0F00
0F00
0F00
0F00
0F00
FFF0
FFF0
0000
0000
0000
0000
0000
0000
0000
0000
ENDCHAR
STARTCHAR char106
ENCODING 106
SWIDTH 1710 0
DWIDTH 19 0
BBX 13 32 3 -8
BITMAP
0000
0000
0078
0078
0078
0000
0000
0000
07F8
07F8
0078
0078
0078
0078
0078
0078
0078
0078
0078
0078
0078
0078
0078
6078
F078
F078
78F0
3FF0
1FC0
0000
0000
0000
ENDCHAR
STARTCHAR char107
ENCODING 107
SWIDTH 1710 0
DWIDTH 19 0
BBX 16 32 2 -8
BITMAP
0000
0000
F800
F800
7800
7800
7800
7800
78FC
78FC
7870
78E0
79C0
7B80
7F00
7F00
7F80
7BC0
79E0
78F0
7878
783C
FC7F
FC7F
0000
0000
0000
0000
0000
0000
0000
0000
ENDCHAR
STARTCHAR char108
ENCODING 108
SWIDTH 1710 0
DWIDTH 19 0
BBX 12 32 4 -8
BITMAP
0000
0000
FF00
FF00
0F00
0F00
0F00
0F00
0F00
0F00
0F00
0F00
0F00
0F00
0F00
0F00
0F00
0F00
0F00
0F00
0F00
0F00
FFF0
FFF0
0000
0000
0000
0000
0000
0000
0000
0000
ENDCHAR
STARTCHAR char109
ENCODING 109
SWIDTH 1710 0
DWIDTH 19 0
BBX 17 32 1 -8
BITMAP
000000
000000
000000
000000
000000
000000
000000
000000
F71C00
FFFE00
7DEF00
79CF00
79CF00
79CF00
79CF00
79CF00
79CF00
79CF00
79CF00
79CF00
79CF00
79CF00
FDDF80
FDDF80
000000
000000
000000
000000
000000
000000
000000
000000
ENDCHAR
STARTCHAR char110
ENCODING 110
SWIDTH 1710 0
DWIDTH 19 0
BBX 16 32 2 -8
BITMAP
0000
0000
0000
0000
0000
0000
0000
0000
F9F8
FBFC
7E3E
7C1E
781E
781E
781E
781E
781E
781E
781E
781E
781E
781E
FC3F
FC3F
0000
0000
0000
0000
0000
0000
0000
0000
ENDCHAR
STARTCHAR char111
ENCODING 111
SWIDTH 1710 0
DWIDTH 19 0
BBX 15 32 2 -8
BITMAP
0000
0000
0000
0000
0000
0000
0000
0000
0FE0
3FF8
7C7C
783C
F01E
F01E
F01E
F01E
F01E
F01E
F01E
F01E
783C
7C7C
3FF8
0FE0
0000
0000
0000
0000
0000
0000
0000
0000
ENDCHAR
STARTCHAR char112
ENCODING 112
SWIDTH 1710 0
DWIDTH 19 0
BBX 15 32 2 -8
BITMAP
0000
0000
0000
0000
0000
0000
0000
0000
F9E0
FBF8
7E7C
7C3C
781E
781E
781E
781E
781E
781E
781E
781E
7C3C
7E7C
7BF8
79E0
7800
7800
7800
FC00
FC00
0000
0000
0000
ENDCHAR
STARTCHAR char113
ENCODING 113
SWIDTH 1710 0
DWIDTH 19 0
BBX 15 32 2 -8
BITMAP
0000
0000
0000
0000
0000
0000
0000
0000
0F3E
3FBE
7CFC
787C
F03C
F03C
F03C
F03C
F03C
F03C
F03C
F03C
787C
7CFC
3FBC
0F3C
003C
003C
003C
007E
007E
0000
0000
0000
ENDCHAR
STARTCHAR char114
ENCODING 114
SWIDTH 1710 0
DWIDTH 19 0
BBX 15 32 2 -8
BITMAP
0000
0000
0000
0000
0000
0000
0000
0000
F9F8
FBFC
7E3E
7C1C
7800
7800
7800
7800
7800
7800
7800
7800
7800
7800
FC00
FC00
0000
0000
0000
0000
0000
0000
0000
0000
ENDCHAR
STARTCHAR char115
ENCODING 115
SWIDTH 1710 0
DWIDTH 19 0
BBX 14 32 3 -8
BITMAP
0000
0000
0000
0000
0000
0000
0000
0000
0FE0
3FF0
7C78
7830
7800
7C00
3F00
1FC0
07F0
01F8
007C
603C
F03C
F87C
7FF8
3FE0
0000
0000
0000
0000
0000
0000
0000
0000
ENDCHAR
STARTCHAR char116
ENCODING 116
SWIDTH 1710 0
DWIDTH 19 0
BBX 14 32 2 -8
BITMAP
0000
0000
0000
0000
0300
0700
0F00
0F00
FFF0
FFF0
0F00
0F00
0F00
0F00
0F00
0F00
0F00
0F00
0F00
0F1C
0F1C
0F9C
07F8
03F0
0000
0000
0000
0000
0000
0000
0000
0000
ENDCHAR
STARTCHAR char117
ENCODING 117
SWIDTH 1710 0
DWIDTH 19 0
BBX 16 32 2 -8
BITMAP
0000
0000
0000
0000
0000
0000
0000
0000
F83E
F83E
781E
781E
781E
781E
781E
781E
781E
781E
781E
781E
783E
7C7E
3FDF
1F9F
0000
0000
0000
0000
0000
0000
0000
0000
ENDCHAR
STARTCHAR char118
ENCODING 118
SWIDTH 1710 0
DWIDTH 19 0
BBX 17 32 1 -8
BITMAP
000000
000000
000000
000000
000000
000000
000000
000000
FC0F80
FC0F80
780700
780700
3C0E00
3C0E00
1E1C00
1E1C00
1E1C00
0F3800
0F3800
0F3800
07F000
07F000
03E000
03E000
000000
000000
000000
000000
000000
000000
000000
000000
ENDCHAR
STARTCHAR char119
ENCODING 119
SWIDTH 1710 0
DWIDTH 19 0
BBX 19 32 0 -8
BITMAP
000000
000000
000000
000000
000000
000000
000000
000000
FC63E0
FC63E0
7861C0
78F1C0
78F1C0
78F1C0
78F9C0
3DFB80
3DBB80
3DBB80
3DBB80
3F3B80
1F3F00
1F1F00
1E1F00
1E1E00
000000
000000
000000
000000
000000
000000
000000
000000
ENDCHAR
STARTCHAR char120
ENCODING 120
SWIDTH 1710 0
DWIDTH 19 0
BBX 17 32 1 -8
BITMAP
000000
000000
000000
000000
000000
000000
000000
000000
7F1F80
7F1F80
1E0E00
0F1C00
0F3800
07B800
03F000
01E000
03E000
07F000
0E7800
0E3C00
1C3C00
381E00
FC3F80
FC3F80
000000
000000
000000
000000
000000
000000
000000
000000
ENDCHAR
STARTCHAR char121
ENCODING 121
SWIDTH 1710 0
DWIDTH 19 0
BBX 17 32 1 -8
BITMAP
000000
000000
000000
000000
000000
000000
000000
000000
FC0F80
FC0F80
780700
780700
3C0E00
3C0E00
1E1C00
1E1C00
0F3800
0F3800
077000
07F000
03E000
03E000
01E000
01C000
01C000
038000
E38000
E38000
FF0000
7E0000
000000
000000
ENDCHAR
STARTCHAR char122
ENCODING 122
SWIDTH 1710 0
DWIDTH 19 0
BBX 15 32 2 -8
BITMAP
0000
0000
0000
0000
0000
0000
0000
0000
7FFC
7FFC
701C
603C
0078
00F0
01E0
03C0
0780
0F00
1E00
3C06
7806
F00E
FFFE
FFFE
0000
0000
0000
0000
0000
0000
0000
0000
ENDCHAR
ENDFONT
