STARTFONT 2.1
FONT -MIT-33FR KST-Medium-R-Normal--33-11-200-200-P-23-ISO8859-1
SIZE 11 200 200
FONTBOUNDINGBOX 23 33 -8 -10
STARTPROPERTIES 17
ADD_STYLE_NAME ""
AVERAGE_WIDTH 23
CHARSET_ENCODING "1"
CHARSET_REGISTRY "ISO8859"
DEFAULT_CHAR 0
FAMILY "33FR KST"
FONT_ASCENT 23
FONT_DESCENT 10
FOUNDRY "MIT"
PIXEL_SIZE 33
POINT_SIZE 11
RESOLUTION_X 200
RESOLUTION_Y 200
SETWIDTH_NAME "Normal"
SLANT "R"
SPACING "P"
WEIGHT_NAME "Medium"
ENDPROPERTIES
CHARS 125
STARTCHAR char1
ENCODING 1
SWIDTH 2070 0
DWIDTH 23 0
BBX 20 33 0 -10
BITMAP
000000
00F000
00F000
00F000
00F000
00F000
00F000
00F000
00F000
00F000
00F000
00F000
00F000
00F000
F0F0F0
78F1E0
3CF3C0
1EF780
0FFF00
07FE00
03FC00
01F800
00F000
000000
000000
000000
000000
000000
000000
000000
000000
000000
000000
ENDCHAR
STARTCHAR char2
ENCODING 2
SWIDTH 2070 0
DWIDTH 23 0
BBX 19 33 0 -10
BITMAP
000000
000000
000000
000000
000000
000000
000000
000000
000000
000000
000000
000060
0FE0E0
3FF0E0
7839C0
701DC0
F01F80
F00F00
F00E00
701F00
783F00
3FF380
0FE1E0
000000
000000
000000
000000
000000
000000
000000
000000
000000
000000
ENDCHAR
STARTCHAR char3
ENCODING 3
SWIDTH 2070 0
DWIDTH 23 0
BBX 19 33 0 -10
BITMAP
000000
000000
000000
000000
000000
000000
07FC00
0FFF00
1E0780
1C0380
1C0380
380700
380E00
3FFC00
7FFC00
701F00
700780
7003E0
7001C0
7801C0
7F03C0
EFFF80
E0FF00
C00000
000000
000000
000000
000000
000000
000000
000000
000000
000000
ENDCHAR
STARTCHAR char4
ENCODING 4
SWIDTH 2070 0
DWIDTH 23 0
BBX 20 33 0 -10
BITMAP
000000
000000
000000
000000
000000
000000
000000
000000
006000
00F000
01F800
03FC00
079E00
0F0F00
1E0780
3C03C0
7801E0
F000F0
E00070
000000
000000
000000
000000
000000
000000
000000
000000
000000
000000
000000
000000
000000
000000
ENDCHAR
STARTCHAR char5
ENCODING 5
SWIDTH 2070 0
DWIDTH 23 0
BBX 17 33 1 -10
BITMAP
000000
000000
000000
000000
000000
000000
000000
000000
000000
000000
FFFF80
FFFF80
000780
000780
000780
000000
000000
000000
000000
000000
000000
000000
000000
000000
000000
000000
000000
000000
000000
000000
000000
000000
000000
ENDCHAR
STARTCHAR char6
ENCODING 6
SWIDTH 2070 0
DWIDTH 23 0
BBX 18 33 1 -10
BITMAP
000000
000000
000000
000000
000000
000000
03FF00
0FFFC0
1F8000
3C0000
780000
700000
F00000
FFF800
FFF800
F00000
700000
780000
3C0000
1F8000
0FFF00
03FF80
000000
000000
000000
000000
000000
000000
000000
000000
000000
000000
000000
ENDCHAR
STARTCHAR char7
ENCODING 7
SWIDTH 2070 0
DWIDTH 23 0
BBX 20 33 0 -10
BITMAP
000000
000000
000000
000000
000000
000000
1F0000
7FC070
E7FFE0
0E7FC0
0E0E00
0E0F00
1C0F00
1C0700
1C0700
380780
380780
380380
380380
7003C0
7003C0
7001C0
000000
000000
000000
000000
000000
000000
000000
000000
000000
000000
000000
ENDCHAR
STARTCHAR char8
ENCODING 8
SWIDTH 2070 0
DWIDTH 23 0
BBX 20 33 0 -10
BITMAP
000000
E00000
780000
3C0000
1E0000
0F0000
078000
03C000
01E000
00E000
00F000
00F000
01F000
03F800
03F800
07BC00
0F3C00
0E1C00
1E1E00
3C0F00
380780
7003C0
F000F0
000000
000000
000000
000000
000000
000000
000000
000000
000000
000000
ENDCHAR
STARTCHAR char9
ENCODING 9
SWIDTH 2070 0
DWIDTH 23 0
BBX 20 33 0 -10
BITMAP
000000
000000
000000
000000
000000
000000
000000
000000
800070
E001F0
7807C0
1C0F00
071E00
03FC00
01F800
00F000
00F000
01F000
01F800
019800
019800
01F800
00F000
000000
000000
000000
000000
000000
000000
000000
000000
000000
000000
ENDCHAR
STARTCHAR char10
ENCODING 10
SWIDTH 2070 0
DWIDTH 23 0
BBX 20 33 0 -10
BITMAP
000000
000000
000000
000000
000000
003FF0
00FFF0
00E000
00E000
07FE00
1FFF80
3E07C0
7801E0
7000E0
F000F0
F000F0
7000E0
7801E0
3E07C0
1FFF80
07FE00
000000
000000
000000
000000
000000
000000
000000
000000
000000
000000
000000
000000
ENDCHAR
STARTCHAR char11
ENCODING 11
SWIDTH 2070 0
DWIDTH 23 0
BBX 20 33 0 -10
BITMAP
000000
00F000
01F800
03FC00
07FE00
0FFF00
1EF780
3CF3C0
78F1E0
F0F0F0
E0F070
00F000
00F000
00F000
00F000
00F000
00F000
00F000
00F000
00F000
00F000
00F000
00F000
000000
000000
000000
000000
000000
000000
000000
000000
000000
000000
ENDCHAR
STARTCHAR char12
ENCODING 12
SWIDTH 2070 0
DWIDTH 23 0
BBX 20 33 0 -10
BITMAP
000000
000000
000000
00F000
00F000
00F000
00F000
00F000
00F000
FFFFF0
FFFFF0
00F000
00F000
00F000
00F000
00F000
00F000
000000
000000
FFFFF0
FFFFF0
000000
000000
000000
000000
000000
000000
000000
000000
000000
000000
000000
000000
ENDCHAR
STARTCHAR char13
ENCODING 13
SWIDTH 2070 0
DWIDTH 23 0
BBX 20 33 0 -10
BITMAP
000000
000000
000000
000000
000000
03FC00
0FFF00
1F6F80
3C63C0
7061E0
606060
E06070
C06030
FFFFF0
FFFFF0
C06030
E06070
606060
7861E0
3C63C0
1F6F80
0FFF00
03FC00
000000
000000
000000
000000
000000
000000
000000
000000
000000
000000
ENDCHAR
STARTCHAR char14
ENCODING 14
SWIDTH 2070 0
DWIDTH 23 0
BBX 20 33 0 -10
BITMAP
000000
000000
000000
000000
000000
000000
000000
000000
000000
000000
1E0780
7F9FE0
F1F8F0
E0F070
E0F070
E0F070
F1F8F0
7F9FE0
1E0780
000000
000000
000000
000000
000000
000000
000000
000000
000000
000000
000000
000000
000000
000000
ENDCHAR
STARTCHAR char15
ENCODING 15
SWIDTH 2070 0
DWIDTH 23 0
BBX 16 33 1 -10
BITMAP
0000
0000
0000
0000
0000
0000
0000
0FE0
3FF8
783C
F01C
C00E
000E
0FEF
3FFF
7C3F
F01F
F00F
F00E
F01E
7C3C
3FF8
0FE0
0000
0000
0000
0000
0000
0000
0000
0000
0000
0000
ENDCHAR
STARTCHAR char16
ENCODING 16
SWIDTH 2070 0
DWIDTH 23 0
BBX 20 33 0 -10
BITMAP
000000
000000
000000
000000
000000
000000
03FFF0
1FFFF0
3F8000
780000
700000
F00000
F00000
F00000
F00000
F00000
700000
780000
3F8000
1FFFF0
03FFF0
000000
000000
000000
000000
000000
000000
000000
000000
000000
000000
000000
000000
ENDCHAR
STARTCHAR char17
ENCODING 17
SWIDTH 2070 0
DWIDTH 23 0
BBX 20 33 0 -10
BITMAP
000000
000000
000000
000000
000000
000000
FFFE00
FFFF80
001FC0
0000E0
0000E0
0000F0
0000F0
0000F0
0000F0
0000F0
0000E0
0001E0
001FC0
FFFF80
FFFE00
000000
000000
000000
000000
000000
000000
000000
000000
000000
000000
000000
000000
ENDCHAR
STARTCHAR char18
ENCODING 18
SWIDTH 2070 0
DWIDTH 23 0
BBX 19 33 1 -10
BITMAP
000000
000000
000000
000000
000000
000000
07FC00
1FFF00
3C0780
7803C0
7803C0
F001E0
F001E0
F001E0
F001E0
F001E0
F001E0
F001E0
F001E0
F001E0
000000
000000
000000
000000
000000
000000
000000
000000
000000
000000
000000
000000
000000
ENDCHAR
STARTCHAR char19
ENCODING 19
SWIDTH 2070 0
DWIDTH 23 0
BBX 19 33 1 -10
BITMAP
000000
000000
000000
000000
000000
000000
000000
F001E0
F001E0
F001E0
F001E0
F001E0
F001E0
F001E0
F001E0
7803C0
7803C0
3C0780
1FFF00
07FC00
000000
000000
000000
000000
000000
000000
000000
000000
000000
000000
000000
000000
000000
ENDCHAR
STARTCHAR char20
ENCODING 20
SWIDTH 2070 0
DWIDTH 23 0
BBX 20 33 0 -10
BITMAP
000000
FC03F0
7801E0
7801E0
3801C0
3C03C0
3C03C0
1C0380
1FFF80
1FFF80
0E0700
0F0F00
0F0F00
070E00
079E00
079E00
039C00
03FC00
01F800
01F800
00F000
00F000
00F000
000000
000000
000000
000000
000000
000000
000000
000000
000000
000000
ENDCHAR
STARTCHAR char21
ENCODING 21
SWIDTH 2070 0
DWIDTH 23 0
BBX 20 33 0 -10
BITMAP
000000
FFFFF0
FFFFF0
C000F0
8000F0
0000F0
0000F0
0000F0
0000F0
0000F0
0200F0
03FFF0
03FFF0
0200F0
0000F0
0000F0
0000F0
0000F0
0000F0
8000F0
C000F0
FFFFF0
FFFFF0
000000
000000
000000
000000
000000
000000
000000
000000
000000
000000
ENDCHAR
STARTCHAR char22
ENCODING 22
SWIDTH 2070 0
DWIDTH 23 0
BBX 20 33 0 -10
BITMAP
000000
000000
000000
000000
000000
03FC00
0FFF00
1F0F80
3C03C0
7E07E0
670E60
E39C70
C1F830
C0F030
C0F030
C1F830
E39C70
670E60
7E07E0
3C03C0
1F0F80
0FFF00
03FC00
000000
000000
000000
000000
000000
000000
000000
000000
000000
000000
ENDCHAR
STARTCHAR char23
ENCODING 23
SWIDTH 2070 0
DWIDTH 23 0
BBX 21 33 0 -10
BITMAP
000000
000000
000000
000000
000000
078F00
0F0780
1E03C0
3C01E0
7800F0
FFFFF8
FFFFF8
7800F0
3C01E0
1E03C0
0F0780
078F00
000000
000000
000000
000000
000000
000000
000000
000000
000000
000000
000000
000000
000000
000000
000000
000000
ENDCHAR
STARTCHAR char24
ENCODING 24
SWIDTH 2070 0
DWIDTH 23 0
BBX 20 33 0 -10
BITMAP
000000
000000
000000
000000
03C000
078000
0F0000
1E0000
3C0000
780000
FFFFF0
FFFFF0
780000
3C0000
1E0000
0F0000
078000
03C000
000000
000000
000000
000000
000000
000000
000000
000000
000000
000000
000000
000000
000000
000000
000000
ENDCHAR
STARTCHAR char25
ENCODING 25
SWIDTH 2070 0
DWIDTH 23 0
BBX 19 33 0 -10
BITMAP
000000
000000
000000
000000
007800
003C00
001E00
000F00
000780
0003C0
FFFFE0
FFFFE0
0003C0
000780
000F00
001E00
003C00
007800
000000
000000
000000
000000
000000
000000
000000
000000
000000
000000
000000
000000
000000
000000
000000
ENDCHAR
STARTCHAR char26
ENCODING 26
SWIDTH 2070 0
DWIDTH 23 0
BBX 19 33 1 -10
BITMAP
000000
000000
000000
0001E0
0003C0
000780
000F00
FFFFE0
FFFFE0
003C00
007800
00F000
01E000
03C000
078000
FFFFE0
FFFFE0
1E0000
3C0000
780000
F00000
000000
000000
000000
000000
000000
000000
000000
000000
000000
000000
000000
000000
ENDCHAR
STARTCHAR char28
ENCODING 28
SWIDTH 2070 0
DWIDTH 23 0
BBX 20 33 0 -10
BITMAP
000000
000000
000000
000000
000070
0003F0
001FC0
00FE00
07F000
3F8000
FC0000
FC0000
3F8000
07F000
00FE00
001FC0
0003F0
000070
000000
FFFFF0
FFFFF0
000000
000000
000000
000000
000000
000000
000000
000000
000000
000000
000000
000000
ENDCHAR
STARTCHAR char29
ENCODING 29
SWIDTH 2070 0
DWIDTH 23 0
BBX 20 33 0 -10
BITMAP
000000
000000
000000
000000
E00000
FC0000
3F8000
07F000
00FE00
001FC0
0003F0
0003F0
001FC0
00FE00
07F000
3F8000
FC0000
E00000
000000
FFFFF0
FFFFF0
000000
000000
000000
000000
000000
000000
000000
000000
000000
000000
000000
000000
ENDCHAR
STARTCHAR char30
ENCODING 30
SWIDTH 2070 0
DWIDTH 23 0
BBX 19 33 1 -10
BITMAP
000000
000000
000000
FFFFE0
FFFFE0
000000
000000
000000
000000
000000
000000
FFFFE0
FFFFE0
000000
000000
000000
000000
000000
000000
FFFFE0
FFFFE0
000000
000000
000000
000000
000000
000000
000000
000000
000000
000000
000000
000000
ENDCHAR
STARTCHAR char31
ENCODING 31
SWIDTH 2070 0
DWIDTH 23 0
BBX 20 33 0 -10
BITMAP
000000
000000
000000
000000
000000
000000
000000
000000
E00070
F000F0
7801E0
3C03C0
1E0780
0F0F00
079E00
03FC00
01F800
00F000
006000
000000
000000
000000
000000
000000
000000
000000
000000
000000
000000
000000
000000
000000
000000
ENDCHAR
STARTCHAR char32
ENCODING 32
SWIDTH 2070 0
DWIDTH 23 0
BBX 1 33 0 -10
BITMAP
00
00
00
00
00
00
00
00
00
00
00
00
00
00
00
00
00
00
00
00
00
00
00
00
00
00
00
00
00
00
00
00
00
ENDCHAR
STARTCHAR char33
ENCODING 33
SWIDTH 2070 0
DWIDTH 23 0
BBX 4 33 8 -10
BITMAP
00
00
60
F0
F0
F0
F0
F0
F0
F0
F0
F0
F0
F0
F0
60
60
00
00
60
F0
F0
60
00
00
00
00
00
00
00
00
00
00
ENDCHAR
STARTCHAR char34
ENCODING 34
SWIDTH 2070 0
DWIDTH 23 0
BBX 12 33 4 -10
BITMAP
0000
0000
6060
F0F0
F0F0
F0F0
6060
6060
6060
0000
0000
0000
0000
0000
0000
0000
0000
0000
0000
0000
0000
0000
0000
0000
0000
0000
0000
0000
0000
0000
0000
0000
0000
ENDCHAR
STARTCHAR char35
ENCODING 35
SWIDTH 2070 0
DWIDTH 23 0
BBX 20 33 0 -10
BITMAP
000000
0380E0
0380E0
0380E0
0701C0
0701C0
FFFFF0
FFFFF0
0E0380
0E0380
0E0380
0E0380
1C0700
1C0700
1C0700
1C0700
FFFFF0
FFFFF0
380E00
380E00
701C00
701C00
701C00
000000
000000
000000
000000
000000
000000
000000
000000
000000
000000
ENDCHAR
STARTCHAR char36
ENCODING 36
SWIDTH 2070 0
DWIDTH 23 0
BBX 19 33 0 -10
BITMAP
031800
07FF20
1FFFE0
3F1FE0
7B19E0
F318E0
F31800
F31800
F31800
7B1800
7F9800
1FF800
07FF00
031FC0
031BE0
0319E0
0319E0
8319E0
C319E0
F31BE0
FB1FC0
BFFF80
8FFE00
031800
000000
000000
000000
000000
000000
000000
000000
000000
000000
ENDCHAR
STARTCHAR char37
ENCODING 37
SWIDTH 2070 0
DWIDTH 23 0
BBX 20 33 0 -10
BITMAP
000000
000000
7800F0
FC01E0
CC03C0
CC0780
FC0780
780F00
001E00
003C00
003C00
007800
00F000
01E000
03C000
03C000
078000
0F01E0
1E03F0
1E0330
3C0330
7803F0
F001E0
000000
000000
000000
000000
000000
000000
000000
000000
000000
000000
ENDCHAR
STARTCHAR char38
ENCODING 38
SWIDTH 2070 0
DWIDTH 23 0
BBX 20 33 0 -10
BITMAP
000000
03F000
07F800
073C00
071C00
071C00
073800
03B800
01F000
01F000
01F000
03F800
07B800
0F3C00
1E1E10
3C1E30
780F70
F007E0
F00380
F007C0
780FE0
3FFEE0
0FF870
000000
000000
000000
000000
000000
000000
000000
000000
000000
000000
ENDCHAR
STARTCHAR char39
ENCODING 39
SWIDTH 2070 0
DWIDTH 23 0
BBX 6 33 7 -10
BITMAP
00
00
38
7C
7C
38
70
E0
00
00
00
00
00
00
00
00
00
00
00
00
00
00
00
00
00
00
00
00
00
00
00
00
00
ENDCHAR
STARTCHAR char40
ENCODING 40
SWIDTH 2070 0
DWIDTH 23 0
BBX 9 33 5 -10
BITMAP
0000
0000
0780
0F00
1E00
3C00
3C00
7800
7800
7800
F000
F000
F000
F000
F000
7800
7800
7800
3C00
3C00
1E00
0F00
0780
0000
0000
0000
0000
0000
0000
0000
0000
0000
0000
ENDCHAR
STARTCHAR char41
ENCODING 41
SWIDTH 2070 0
DWIDTH 23 0
BBX 9 33 8 -10
BITMAP
0000
0000
F000
7800
3C00
1E00
1E00
0F00
0F00
0F00
0780
0780
0780
0780
0780
0F00
0F00
0F00
1E00
1E00
3C00
7800
F000
0000
0000
0000
0000
0000
0000
0000
0000
0000
0000
ENDCHAR
STARTCHAR char42
ENCODING 42
SWIDTH 2070 0
DWIDTH 23 0
BBX 19 33 0 -10
BITMAP
000000
000000
004000
00E000
38E380
3CE780
1EEF00
0FFE00
07FC00
03F800
FFFFE0
FFFFE0
03F800
07FC00
0FFE00
1EEF00
3CE780
38E380
00E000
004000
000000
000000
000000
000000
000000
000000
000000
000000
000000
000000
000000
000000
000000
ENDCHAR
STARTCHAR char43
ENCODING 43
SWIDTH 2070 0
DWIDTH 23 0
BBX 20 33 0 -10
BITMAP
000000
000000
000000
000000
00F000
00F000
00F000
00F000
00F000
00F000
00F000
00F000
FFFFF0
FFFFF0
00F000
00F000
00F000
00F000
00F000
00F000
00F000
00F000
000000
000000
000000
000000
000000
000000
000000
000000
000000
000000
000000
ENDCHAR
STARTCHAR char44
ENCODING 44
SWIDTH 2070 0
DWIDTH 23 0
BBX 6 33 5 -10
BITMAP
00
00
00
00
00
00
00
00
00
00
00
00
00
00
00
00
00
00
38
7C
7C
3C
78
F0
00
00
00
00
00
00
00
00
00
ENDCHAR
STARTCHAR char45
ENCODING 45
SWIDTH 2070 0
DWIDTH 23 0
BBX 17 33 1 -10
BITMAP
000000
000000
000000
000000
000000
000000
000000
000000
000000
000000
000000
FFFF80
FFFF80
000000
000000
000000
000000
000000
000000
000000
000000
000000
000000
000000
000000
000000
000000
000000
000000
000000
000000
000000
000000
ENDCHAR
STARTCHAR char46
ENCODING 46
SWIDTH 2070 0
DWIDTH 23 0
BBX 5 33 6 -10
BITMAP
00
00
00
00
00
00
00
00
00
00
00
00
00
00
00
00
00
00
00
70
F8
F8
70
00
00
00
00
00
00
00
00
00
00
ENDCHAR
STARTCHAR char47
ENCODING 47
SWIDTH 2070 0
DWIDTH 23 0
BBX 20 33 0 -10
BITMAP
000000
000000
0000F0
0001E0
0003C0
000780
000780
000F00
001E00
003C00
003C00
007800
00F000
01E000
03C000
03C000
078000
0F0000
1E0000
1E0000
3C0000
780000
F00000
000000
000000
000000
000000
000000
000000
000000
000000
000000
000000
ENDCHAR
STARTCHAR char48
ENCODING 48
SWIDTH 2070 0
DWIDTH 23 0
BBX 19 33 1 -10
BITMAP
000000
03F9E0
0FFFC0
1E0F80
3C0780
380F80
780FC0
781FC0
F039E0
F039E0
F071E0
F0E1E0
F0E1E0
F1C1E0
F381E0
F381E0
7F03C0
7E03C0
3E0380
3C0780
7E0F00
7FFE00
E3F800
000000
000000
000000
000000
000000
000000
000000
000000
000000
000000
ENDCHAR
STARTCHAR char49
ENCODING 49
SWIDTH 2070 0
DWIDTH 23 0
BBX 9 33 7 -10
BITMAP
0000
1E00
3E00
7E00
FE00
1E00
1E00
1E00
1E00
1E00
1E00
1E00
1E00
1E00
1E00
1E00
1E00
1E00
1E00
1E00
1E00
1E00
7F80
0000
0000
0000
0000
0000
0000
0000
0000
0000
0000
ENDCHAR
STARTCHAR char50
ENCODING 50
SWIDTH 2070 0
DWIDTH 23 0
BBX 20 33 0 -10
BITMAP
000000
03FE00
1FFFC0
3F07E0
7C01E0
F000F0
E000F0
C000F0
8001E0
0003C0
000780
001F00
003E00
007800
01F000
03E000
07C000
1F0000
3E0000
780000
F00010
FFFFF0
FFFFF0
000000
000000
000000
000000
000000
000000
000000
000000
000000
000000
ENDCHAR
STARTCHAR char51
ENCODING 51
SWIDTH 2070 0
DWIDTH 23 0
BBX 20 33 0 -10
BITMAP
000000
FFFFF0
FFFFF0
8003E0
000780
000F00
001E00
003C00
007800
00F000
01FC00
01FF80
000FC0
0003E0
0001E0
0000F0
0000F0
F000F0
F001E0
7803E0
3C07C0
1FFF80
07FE00
000000
000000
000000
000000
000000
000000
000000
000000
000000
000000
ENDCHAR
STARTCHAR char52
ENCODING 52
SWIDTH 2070 0
DWIDTH 23 0
BBX 20 33 0 -10
BITMAP
000000
001E00
003E00
007E00
00FE00
00FE00
01FE00
03DE00
079E00
0F1E00
1E1E00
1E1E00
3C1E00
781E00
F01E00
FFFFF0
FFFFF0
001E00
001E00
001E00
001E00
001E00
007F80
000000
000000
000000
000000
000000
000000
000000
000000
000000
000000
ENDCHAR
STARTCHAR char53
ENCODING 53
SWIDTH 2070 0
DWIDTH 23 0
BBX 20 33 0 -10
BITMAP
000000
FFFFF0
FFFFF0
F00010
F00000
F00000
F00000
F00000
F00000
F00000
FFFC00
FFFF80
001FC0
0003E0
0001E0
0000F0
0000F0
F000F0
F001E0
7803E0
3C07C0
1FFF80
07FE00
000000
000000
000000
000000
000000
000000
000000
000000
000000
000000
ENDCHAR
STARTCHAR char54
ENCODING 54
SWIDTH 2070 0
DWIDTH 23 0
BBX 21 33 0 -10
BITMAP
000000
00FF00
07FFE0
0F81F0
1E0078
3C0038
780000
780000
F00000
F00000
F00000
F1FE00
F7FFC0
FF07E0
FC00F0
F80078
F00078
F00078
F00078
7800F0
3E03E0
1FFFC0
03FE00
000000
000000
000000
000000
000000
000000
000000
000000
000000
000000
ENDCHAR
STARTCHAR char55
ENCODING 55
SWIDTH 2070 0
DWIDTH 23 0
BBX 20 33 0 -10
BITMAP
000000
FFFFF0
FFFFF0
8001E0
0003C0
000780
000F00
000F00
001E00
003C00
007800
007800
00F000
01E000
03C000
03C000
078000
0F0000
1E0000
1E0000
3C0000
780000
F00000
000000
000000
000000
000000
000000
000000
000000
000000
000000
000000
ENDCHAR
STARTCHAR char56
ENCODING 56
SWIDTH 2070 0
DWIDTH 23 0
BBX 21 33 0 -10
BITMAP
000000
000000
03FE00
1FFFC0
3E03E0
7C01F0
F800F8
F800F8
F800F8
7C01F0
3E03E0
1FFFC0
07FF00
1FFFC0
3E03E0
7C01F0
F800F8
F800F8
F800F8
F800F8
7C01F0
3E03E0
1FFFC0
03FE00
000000
000000
000000
000000
000000
000000
000000
000000
000000
ENDCHAR
STARTCHAR char57
ENCODING 57
SWIDTH 2070 0
DWIDTH 23 0
BBX 20 33 0 -10
BITMAP
000000
000000
07FE00
1FFF80
3E07C0
7801E0
7000F0
F000F0
F000F0
F000F0
7801F0
3E07F0
1FFFF0
03FCF0
0000F0
0000F0
0001E0
0003C0
0003C0
000F80
00FF00
1FF800
7F8000
000000
000000
000000
000000
000000
000000
000000
000000
000000
000000
ENDCHAR
STARTCHAR char58
ENCODING 58
SWIDTH 2070 0
DWIDTH 23 0
BBX 5 33 6 -10
BITMAP
00
00
00
00
00
00
00
00
00
70
F8
F8
70
00
00
00
00
00
00
70
F8
F8
70
00
00
00
00
00
00
00
00
00
00
ENDCHAR
STARTCHAR char59
ENCODING 59
SWIDTH 2070 0
DWIDTH 23 0
BBX 6 33 5 -10
BITMAP
00
00
00
00
00
00
00
00
00
38
7C
7C
38
00
00
00
00
00
38
7C
7C
3C
78
F0
00
00
00
00
00
00
00
00
00
ENDCHAR
STARTCHAR char60
ENCODING 60
SWIDTH 2070 0
DWIDTH 23 0
BBX 20 33 0 -10
BITMAP
000000
000000
000000
0001F0
0007C0
001F00
007C00
01F000
07C000
1F0000
7C0000
F00000
7C0000
1F0000
07C000
01F000
007C00
001F00
0007C0
0001F0
000000
000000
000000
000000
000000
000000
000000
000000
000000
000000
000000
000000
000000
ENDCHAR
STARTCHAR char61
ENCODING 61
SWIDTH 2070 0
DWIDTH 23 0
BBX 19 33 1 -10
BITMAP
000000
000000
000000
000000
000000
000000
000000
FFFFE0
FFFFE0
000000
000000
000000
000000
000000
000000
FFFFE0
FFFFE0
000000
000000
000000
000000
000000
000000
000000
000000
000000
000000
000000
000000
000000
000000
000000
000000
ENDCHAR
STARTCHAR char62
ENCODING 62
SWIDTH 2070 0
DWIDTH 23 0
BBX 20 33 0 -10
BITMAP
000000
000000
000000
F80000
3E0000
0F8000
03E000
00F800
003E00
000F80
0003E0
0000F0
0003E0
000F80
003E00
00F800
03E000
0F8000
3E0000
F80000
000000
000000
000000
000000
000000
000000
000000
000000
000000
000000
000000
000000
000000
ENDCHAR
STARTCHAR char63
ENCODING 63
SWIDTH 2070 0
DWIDTH 23 0
BBX 17 33 2 -10
BITMAP
000000
0FF800
3FFE00
7C1F00
F00780
E00780
000780
000780
000F00
001E00
003C00
007800
00F000
01E000
01E000
01E000
01E000
000000
000000
01E000
03F000
03F000
01E000
000000
000000
000000
000000
000000
000000
000000
000000
000000
000000
ENDCHAR
STARTCHAR char64
ENCODING 64
SWIDTH 2070 0
DWIDTH 23 0
BBX 20 33 0 -10
BITMAP
000000
000000
03FC00
0FFF00
1E0780
3C03C0
7801E0
7001E0
F0F0F0
F1F8F0
F39CF0
F39CF0
F39CF0
F39CF0
F39CF0
F39CF0
F39CF0
F39CF0
F3FEE0
71FFE0
7877C0
3C0380
1FC000
0FFC00
000000
000000
000000
000000
000000
000000
000000
000000
000000
ENDCHAR
STARTCHAR char65
ENCODING 65
SWIDTH 2070 0
DWIDTH 23 0
BBX 20 33 0 -10
BITMAP
000000
01F800
00F000
00F000
00F000
01F800
01F800
01F800
03FC00
039C00
039C00
079E00
070E00
07FE00
0FFF00
0E0700
0E0700
1E0780
1C0380
1C0380
3C03C0
3801C0
FE07F0
000000
000000
000000
000000
000000
000000
000000
000000
000000
000000
ENDCHAR
STARTCHAR char66
ENCODING 66
SWIDTH 2070 0
DWIDTH 23 0
BBX 20 33 0 -10
BITMAP
000000
FFFF00
3FFFC0
3C03E0
3C01E0
3C00F0
3C00F0
3C00F0
3C00E0
3C01E0
3C03C0
3FFF00
3FFF00
3C03C0
3C01E0
3C00E0
3C00F0
3C00F0
3C00F0
3C01E0
3C03E0
3FFFC0
FFFF00
000000
000000
000000
000000
000000
000000
000000
000000
000000
000000
ENDCHAR
STARTCHAR char67
ENCODING 67
SWIDTH 2070 0
DWIDTH 23 0
BBX 20 33 0 -10
BITMAP
000000
03FE00
0FFF80
1E03C0
3C01E0
7800F0
7800F0
7801F0
F00000
F00000
F00000
F00000
F00000
F00000
F00000
F00000
7800F0
7800F0
7800F0
3C01E0
1E03C0
0FFF80
03FE00
000000
000000
000000
000000
000000
000000
000000
000000
000000
000000
ENDCHAR
STARTCHAR char68
ENCODING 68
SWIDTH 2070 0
DWIDTH 23 0
BBX 21 33 0 -10
BITMAP
000000
FFF800
3FFE00
3C3F80
3C0FC0
3C03E0
3C01F0
3C00F0
3C00F8
3C0078
3C0078
3C0078
3C0078
3C0078
3C0078
3C0078
3C00F0
3C00F0
3C01E0
3C03C0
3C0F80
3FFE00
FFF800
000000
000000
000000
000000
000000
000000
000000
000000
000000
000000
ENDCHAR
STARTCHAR char69
ENCODING 69
SWIDTH 2070 0
DWIDTH 23 0
BBX 21 33 0 -10
BITMAP
000000
FFFFF8
3FFFF8
3C0018
3C0008
3C0000
3C0000
3C0000
3C0000
3C0000
3C0100
3FFF00
3FFF00
3C0100
3C0000
3C0000
3C0000
3C0000
3C0000
3C0008
3C0018
3FFFF8
FFFFF8
000000
000000
000000
000000
000000
000000
000000
000000
000000
000000
ENDCHAR
STARTCHAR char70
ENCODING 70
SWIDTH 2070 0
DWIDTH 23 0
BBX 21 33 0 -10
BITMAP
000000
FFFFF8
3FFFF8
3C0018
3C0008
3C0000
3C0000
3C0000
3C0000
3C0000
3C0100
3FFF00
3FFF00
3C0100
3C0000
3C0000
3C0000
3C0000
3C0000
3C0000
3C0000
3C0000
FF0000
000000
000000
000000
000000
000000
000000
000000
000000
000000
000000
ENDCHAR
STARTCHAR char71
ENCODING 71
SWIDTH 2070 0
DWIDTH 23 0
BBX 20 33 0 -10
BITMAP
000000
03FE00
0FFF80
1E03C0
3C01E0
3800F0
7800F0
7800F0
F00000
F00000
F00000
F00000
F00000
F03FF0
F03FF0
F020F0
7800F0
7800F0
3800F0
3C01E0
1E03C0
0FFF80
03FE00
000000
000000
000000
000000
000000
000000
000000
000000
000000
000000
ENDCHAR
STARTCHAR char72
ENCODING 72
SWIDTH 2070 0
DWIDTH 23 0
BBX 21 33 0 -10
BITMAP
000000
FF07F8
3C01E0
3C01E0
3C01E0
3C01E0
3C01E0
3C01E0
3C01E0
3C01E0
3C01E0
3FFFE0
3FFFE0
3C01E0
3C01E0
3C01E0
3C01E0
3C01E0
3C01E0
3C01E0
3C01E0
3C01E0
FF07F8
000000
000000
000000
000000
000000
000000
000000
000000
000000
000000
ENDCHAR
STARTCHAR char73
ENCODING 73
SWIDTH 2070 0
DWIDTH 23 0
BBX 8 33 7 -10
BITMAP
00
FF
3C
3C
3C
3C
3C
3C
3C
3C
3C
3C
3C
3C
3C
3C
3C
3C
3C
3C
3C
3C
FF
00
00
00
00
00
00
00
00
00
00
ENDCHAR
STARTCHAR char74
ENCODING 74
SWIDTH 2070 0
DWIDTH 23 0
BBX 21 33 0 -10
BITMAP
000000
0007F8
0001E0
0001E0
0001E0
0001E0
0001E0
0001E0
0001E0
0001E0
0001E0
0001E0
0001E0
0001E0
0001E0
F001E0
F001E0
F803E0
7803C0
7C07C0
3E0F80
1FFF00
07FC00
000000
000000
000000
000000
000000
000000
000000
000000
000000
000000
ENDCHAR
STARTCHAR char75
ENCODING 75
SWIDTH 2070 0
DWIDTH 23 0
BBX 20 33 0 -10
BITMAP
000000
FF07F0
3C03C0
3C0780
3C0F00
3C1E00
3C3C00
3C7800
3CF000
3DE000
3FC000
3F8000
3F8000
3FC000
3DE000
3CF000
3C7800
3C3C00
3C1E00
3C0F00
3C0780
3C03C0
FF07F0
000000
000000
000000
000000
000000
000000
000000
000000
000000
000000
ENDCHAR
STARTCHAR char76
ENCODING 76
SWIDTH 2070 0
DWIDTH 23 0
BBX 21 33 0 -10
BITMAP
000000
FF0000
3C0000
3C0000
3C0000
3C0000
3C0000
3C0000
3C0000
3C0000
3C0000
3C0000
3C0000
3C0000
3C0000
3C0000
3C0000
3C0000
3C0000
3C0008
3C0018
3FFFF8
FFFFF8
000000
000000
000000
000000
000000
000000
000000
000000
000000
000000
ENDCHAR
STARTCHAR char77
ENCODING 77
SWIDTH 2070 0
DWIDTH 23 0
BBX 21 33 0 -10
BITMAP
000000
FC01F8
3E03E0
3E03E0
3F07E0
3F07E0
3F8FE0
3F8FE0
3FDFE0
3DDDE0
3DFDE0
3CF9E0
3CF9E0
3C71E0
3C71E0
3C21E0
3C21E0
3C01E0
3C01E0
3C01E0
3C01E0
3C01E0
FF07F8
000000
000000
000000
000000
000000
000000
000000
000000
000000
000000
ENDCHAR
STARTCHAR char78
ENCODING 78
SWIDTH 2070 0
DWIDTH 23 0
BBX 21 33 0 -10
BITMAP
000000
FC07F8
3C01E0
3E01E0
3E01E0
3F01E0
3F01E0
3F81E0
3FC1E0
3DC1E0
3DE1E0
3CF1E0
3C71E0
3C79E0
3C3DE0
3C1DE0
3C1FE0
3C0FE0
3C07E0
3C07E0
3C03E0
3C01E0
FF01F8
000000
000000
000000
000000
000000
000000
000000
000000
000000
000000
ENDCHAR
STARTCHAR char79
ENCODING 79
SWIDTH 2070 0
DWIDTH 23 0
BBX 19 33 1 -10
BITMAP
000000
000000
03F800
0FFE00
1E0F00
3C0780
380380
7803C0
7803C0
F001E0
F001E0
F001E0
F001E0
F001E0
F001E0
F001E0
F001E0
7803C0
7803C0
380380
3C0780
1E0F00
0FFE00
03F800
000000
000000
000000
000000
000000
000000
000000
000000
000000
ENDCHAR
STARTCHAR char80
ENCODING 80
SWIDTH 2070 0
DWIDTH 23 0
BBX 19 33 0 -10
BITMAP
000000
FFFC00
3FFF80
3C0FC0
3C03C0
3C01E0
3C01E0
3C01E0
3C01E0
3C03C0
3C0FC0
3FFF80
3FFC00
3C0000
3C0000
3C0000
3C0000
3C0000
3C0000
3C0000
3C0000
3C0000
FF0000
000000
000000
000000
000000
000000
000000
000000
000000
000000
000000
ENDCHAR
STARTCHAR char81
ENCODING 81
SWIDTH 2070 0
DWIDTH 23 0
BBX 19 33 0 -10
BITMAP
000000
000000
03F800
0FFE00
1E0F00
3C0780
380380
7803C0
7803C0
F001E0
F001E0
F001E0
F001E0
F001E0
F001E0
F001E0
F0F1E0
79FBC0
7BFFC0
3F1F80
3E0F80
1E0FC0
0FFFE0
03F8E0
000000
000000
000000
000000
000000
000000
000000
000000
000000
ENDCHAR
STARTCHAR char82
ENCODING 82
SWIDTH 2070 0
DWIDTH 23 0
BBX 21 33 0 -10
BITMAP
000000
FFFC00
3FFF80
3C0FC0
3C03C0
3C01E0
3C01E0
3C01E0
3C01E0
3C03C0
3C0FC0
3FFF80
3FFC00
3C1E00
3C1E00
3C0F00
3C0F00
3C0780
3C0780
3C03C0
3C03C0
3C01E0
FF07F8
000000
000000
000000
000000
000000
000000
000000
000000
000000
000000
ENDCHAR
STARTCHAR char83
ENCODING 83
SWIDTH 2070 0
DWIDTH 23 0
BBX 19 33 0 -10
BITMAP
000000
07FF20
1FFFE0
3E07E0
7801E0
F000E0
F00000
F00000
F00000
780000
7F8000
1FF800
07FF00
003FC0
0003E0
0001E0
0001E0
8001E0
C001E0
F003E0
F807C0
BFFF80
8FFE00
000000
000000
000000
000000
000000
000000
000000
000000
000000
000000
ENDCHAR
STARTCHAR char84
ENCODING 84
SWIDTH 2070 0
DWIDTH 23 0
BBX 20 33 0 -10
BITMAP
000000
FFFFF0
FFFFF0
C0F030
80F010
00F000
00F000
00F000
00F000
00F000
00F000
00F000
00F000
00F000
00F000
00F000
00F000
00F000
00F000
00F000
00F000
03F800
000000
000000
000000
000000
000000
000000
000000
000000
000000
000000
000000
ENDCHAR
STARTCHAR char85
ENCODING 85
SWIDTH 2070 0
DWIDTH 23 0
BBX 21 33 0 -10
BITMAP
000000
FF07F8
3C01E0
3C01E0
3C01E0
3C01E0
3C01E0
3C01E0
3C01E0
3C01E0
3C01E0
3C01E0
3C01E0
3C01E0
3C01E0
3C01E0
3C01E0
1E03C0
1E03C0
0F0780
078F00
03FE00
00F800
000000
000000
000000
000000
000000
000000
000000
000000
000000
000000
ENDCHAR
STARTCHAR char86
ENCODING 86
SWIDTH 2070 0
DWIDTH 23 0
BBX 20 33 0 -10
BITMAP
000000
FC03F0
7801E0
7801E0
3801C0
3C03C0
3C03C0
1C0380
1E0780
1E0780
0E0700
0F0F00
0F0F00
070E00
079E00
079E00
039C00
03FC00
01F800
01F800
00F000
00F000
01F800
000000
000000
000000
000000
000000
000000
000000
000000
000000
000000
ENDCHAR
STARTCHAR char87
ENCODING 87
SWIDTH 2070 0
DWIDTH 23 0
BBX 21 33 0 -10
BITMAP
000000
FC01F8
7800F0
7800F0
7820F0
7820F0
3C71E0
3C71E0
3C71E0
3CF9E0
3CF9E0
1EFBC0
1EFBC0
1FFFC0
1FFF80
1FDF80
0FDF80
0F8F80
0F8F80
0F8F80
070700
070700
1F8FC0
000000
000000
000000
000000
000000
000000
000000
000000
000000
000000
ENDCHAR
STARTCHAR char88
ENCODING 88
SWIDTH 2070 0
DWIDTH 23 0
BBX 21 33 0 -10
BITMAP
000000
FE03F8
3C01E0
1E03C0
0F0780
070700
078F00
03DE00
01FC00
00F800
00F800
007000
007000
00F800
00F800
01FC00
03DE00
078F00
070700
0F0780
1E03C0
3C01E0
FE03F8
000000
000000
000000
000000
000000
000000
000000
000000
000000
000000
ENDCHAR
STARTCHAR char89
ENCODING 89
SWIDTH 2070 0
DWIDTH 23 0
BBX 22 33 0 -10
BITMAP
000000
FC00FC
780078
3C00F0
1E01E0
0F03C0
0F03C0
078780
03CF00
01FE00
01FE00
00FC00
007800
007800
007800
007800
007800
007800
007800
007800
007800
007800
01FE00
000000
000000
000000
000000
000000
000000
000000
000000
000000
000000
ENDCHAR
STARTCHAR char90
ENCODING 90
SWIDTH 2070 0
DWIDTH 23 0
BBX 19 33 1 -10
BITMAP
000000
FFFFE0
FFFFE0
C003E0
8007C0
000F80
001F00
003E00
003E00
007C00
00F800
01F000
01F000
03E000
07C000
0F8000
0F8000
1F0000
3E0000
7C0020
F80060
FFFFE0
FFFFE0
000000
000000
000000
000000
000000
000000
000000
000000
000000
000000
ENDCHAR
STARTCHAR char91
ENCODING 91
SWIDTH 2070 0
DWIDTH 23 0
BBX 8 33 6 -10
BITMAP
00
00
FF
FF
F0
F0
F0
F0
F0
F0
F0
F0
F0
F0
F0
F0
F0
F0
F0
F0
F0
FF
FF
00
00
00
00
00
00
00
00
00
00
ENDCHAR
STARTCHAR char92
ENCODING 92
SWIDTH 2070 0
DWIDTH 23 0
BBX 20 33 0 -10
BITMAP
000000
F00000
780000
3C0000
1E0000
1E0000
0F0000
078000
03C000
03C000
01E000
00F000
00F000
007800
003C00
003C00
001E00
000F00
000780
000780
0003C0
0001E0
0000F0
000000
000000
000000
000000
000000
000000
000000
000000
000000
000000
ENDCHAR
STARTCHAR char93
ENCODING 93
SWIDTH 2070 0
DWIDTH 23 0
BBX 7 33 7 -10
BITMAP
00
FE
FE
1E
1E
1E
1E
1E
1E
1E
1E
1E
1E
1E
1E
1E
1E
1E
1E
1E
FE
FE
00
00
00
00
00
00
00
00
00
00
00
ENDCHAR
STARTCHAR char95
ENCODING 95
SWIDTH 2070 0
DWIDTH 23 0
BBX 23 33 0 -10
BITMAP
000000
000000
000000
000000
000000
000000
000000
000000
000000
000000
000000
000000
000000
000000
000000
000000
000000
000000
000000
000000
000000
000000
000000
000000
FFFFFE
FFFFFE
000000
000000
000000
000000
000000
000000
000000
ENDCHAR
STARTCHAR char96
ENCODING 96
SWIDTH 2070 0
DWIDTH 23 0
BBX 6 33 8 -10
BITMAP
00
00
70
F8
F8
70
38
1C
00
00
00
00
00
00
00
00
00
00
00
00
00
00
00
00
00
00
00
00
00
00
00
00
00
ENDCHAR
STARTCHAR char97
ENCODING 97
SWIDTH 2070 0
DWIDTH 23 0
BBX 20 33 0 -10
BITMAP
000000
000000
000000
000000
000000
000000
000000
000000
000000
000000
0FFC00
3FFF80
780FC0
E003E0
0001E0
0FF1E0
3FFDE0
781FE0
F007E0
F003E0
F807E0
7FFEE0
1FFCF0
000000
000000
000000
000000
000000
000000
000000
000000
000000
000000
ENDCHAR
STARTCHAR char98
ENCODING 98
SWIDTH 2070 0
DWIDTH 23 0
BBX 20 33 0 -10
BITMAP
000000
F80000
780000
780000
780000
780000
780000
780000
780000
780000
780000
7BFE00
7FFF80
7F07C0
7C01E0
7800E0
7800F0
7800F0
7800E0
7C01E0
7F07C0
7FFF80
FBFE00
000000
000000
000000
000000
000000
000000
000000
000000
000000
000000
ENDCHAR
STARTCHAR char99
ENCODING 99
SWIDTH 2070 0
DWIDTH 23 0
BBX 19 33 0 -10
BITMAP
000000
000000
000000
000000
000000
000000
000000
000000
000000
000000
000000
07FE00
1FFF80
3E07C0
7801E0
700000
F00000
F00000
700000
7801E0
3E07C0
1FFF80
07FE00
000000
000000
000000
000000
000000
000000
000000
000000
000000
000000
ENDCHAR
STARTCHAR char100
ENCODING 100
SWIDTH 2070 0
DWIDTH 23 0
BBX 20 33 0 -10
BITMAP
000000
0003F0
0001E0
0001E0
0001E0
0001E0
0001E0
0001E0
0001E0
0001E0
0001E0
07FDE0
1FFFE0
3E0FE0
7803E0
7001E0
F001E0
F001E0
7001E0
7803E0
3E0FE0
1FFFE0
07FDF0
000000
000000
000000
000000
000000
000000
000000
000000
000000
000000
ENDCHAR
STARTCHAR char101
ENCODING 101
SWIDTH 2070 0
DWIDTH 23 0
BBX 20 33 0 -10
BITMAP
000000
000000
000000
000000
000000
000000
000000
000000
000000
000000
01F800
0FFF00
3E07C0
7801E0
7000F0
FFFFF0
FFFFF0
F00000
F00000
780000
3E00F0
0FFFE0
01FF00
000000
000000
000000
000000
000000
000000
000000
000000
000000
000000
ENDCHAR
STARTCHAR char102
ENCODING 102
SWIDTH 2070 0
DWIDTH 23 0
BBX 20 33 0 -10
BITMAP
000000
007F00
01FFC0
03E3E0
07C1F0
0780F0
0780F0
0780F0
078000
078000
078000
FFFE00
FFFE00
078000
078000
078000
078000
078000
078000
078000
078000
078000
1FE000
000000
000000
000000
000000
000000
000000
000000
000000
000000
000000
ENDCHAR
STARTCHAR char103
ENCODING 103
SWIDTH 2070 0
DWIDTH 23 0
BBX 21 33 0 -10
BITMAP
000000
000000
000000
000000
000000
000000
000000
000000
000000
000000
000038
000078
07FFF0
1FFF80
1E0780
3C03C0
3C03C0
3C03C0
3C03C0
3C03C0
1E0780
1FFF00
3BFE00
380000
380000
1FFF00
3FFF80
7807C0
F003C0
F003C0
F807C0
7FFF80
1FFE00
ENDCHAR
STARTCHAR char104
ENCODING 104
SWIDTH 2070 0
DWIDTH 23 0
BBX 20 33 0 -10
BITMAP
000000
FC0000
3C0000
3C0000
3C0000
3C0000
3C0000
3C0000
3C0000
3C0000
3C0000
3CFC00
3DFF00
3F8780
3F03C0
3E01E0
3C01E0
3C01E0
3C01E0
3C01E0
3C01E0
3C01E0
7E03F0
000000
000000
000000
000000
000000
000000
000000
000000
000000
000000
ENDCHAR
STARTCHAR char105
ENCODING 105
SWIDTH 2070 0
DWIDTH 23 0
BBX 8 33 6 -10
BITMAP
00
00
00
00
00
00
38
7C
38
00
00
FC
3C
3C
3C
3C
3C
3C
3C
3C
3C
3C
FF
00
00
00
00
00
00
00
00
00
00
ENDCHAR
STARTCHAR char106
ENCODING 106
SWIDTH 2070 0
DWIDTH 23 0
BBX 11 33 2 -10
BITMAP
0000
0000
0000
0000
0000
0000
0380
07C0
0380
0000
0000
0FE0
03C0
03C0
03C0
03C0
03C0
03C0
03C0
03C0
03C0
03C0
03C0
E3C0
E3C0
7F80
3F00
0000
0000
0000
0000
0000
0000
ENDCHAR
STARTCHAR char107
ENCODING 107
SWIDTH 2070 0
DWIDTH 23 0
BBX 20 33 0 -10
BITMAP
000000
000000
FC0000
3C0000
3C0000
3C0000
3C0000
3C0000
3C0000
3C0000
3C0010
3C0070
3C03F0
3C1FC0
3CFE00
3FFC00
3FDE00
3F0F00
3C0780
3C03C0
3C01E0
FC00F0
000000
000000
000000
000000
000000
000000
000000
000000
000000
000000
000000
ENDCHAR
STARTCHAR char108
ENCODING 108
SWIDTH 2070 0
DWIDTH 23 0
BBX 8 33 6 -10
BITMAP
00
00
FC
3C
3C
3C
3C
3C
3C
3C
3C
3C
3C
3C
3C
3C
3C
3C
3C
3C
3C
3C
FF
00
00
00
00
00
00
00
00
00
00
ENDCHAR
STARTCHAR char109
ENCODING 109
SWIDTH 2070 0
DWIDTH 23 0
BBX 20 33 0 -10
BITMAP
000000
000000
000000
000000
000000
000000
000000
000000
000000
000000
000000
F70E00
7F9F80
7FFFC0
7DFBC0
78F1E0
78F1E0
78F1E0
78F1E0
78F1E0
78F1E0
78F1E0
FDFBF0
000000
000000
000000
000000
000000
000000
000000
000000
000000
000000
ENDCHAR
STARTCHAR char110
ENCODING 110
SWIDTH 2070 0
DWIDTH 23 0
BBX 20 33 0 -10
BITMAP
000000
000000
000000
000000
000000
000000
000000
000000
000000
000000
000000
FCFC00
3DFF00
3F8780
3F03C0
3E01E0
3C01E0
3C01E0
3C01E0
3C01E0
3C01E0
3C01E0
FE03F0
000000
000000
000000
000000
000000
000000
000000
000000
000000
000000
ENDCHAR
STARTCHAR char111
ENCODING 111
SWIDTH 2070 0
DWIDTH 23 0
BBX 20 33 0 -10
BITMAP
000000
000000
000000
000000
000000
000000
000000
000000
000000
000000
000000
07FE00
1FFF80
3E07C0
7801E0
7000E0
F000F0
F000F0
7000E0
7801E0
3E07C0
1FFF80
07FE00
000000
000000
000000
000000
000000
000000
000000
000000
000000
000000
ENDCHAR
STARTCHAR char112
ENCODING 112
SWIDTH 2070 0
DWIDTH 23 0
BBX 20 33 0 -10
BITMAP
000000
000000
000000
000000
000000
000000
000000
000000
000000
000000
000000
FCFE00
3FFF80
3FC7C0
3F01E0
3E00E0
3E00F0
3E00F0
3E00E0
3F01E0
3FC7C0
3FFF80
3CFE00
3C0000
3C0000
3C0000
3C0000
3C0000
3C0000
3C0000
FF0000
000000
000000
ENDCHAR
STARTCHAR char113
ENCODING 113
SWIDTH 2070 0
DWIDTH 23 0
BBX 20 33 0 -10
BITMAP
000000
000000
000000
000000
000000
000000
000000
000000
000000
000000
000000
07FBF0
1FFFC0
3E1FC0
7807C0
7003C0
F003C0
F003C0
7003C0
7807C0
3E1FC0
1FFFC0
07FBC0
0003C0
0003C0
0003C0
0003C0
0003C0
0003C0
0003C0
0003F0
000000
000000
ENDCHAR
STARTCHAR char114
ENCODING 114
SWIDTH 2070 0
DWIDTH 23 0
BBX 20 33 0 -10
BITMAP
000000
000000
000000
000000
000000
000000
000000
000000
000000
000000
000000
000000
FCFE00
3DFF80
3F83C0
3F01E0
3E00F0
3C0000
3C0000
3C0000
3C0000
3C0000
FF0000
000000
000000
000000
000000
000000
000000
000000
000000
000000
000000
ENDCHAR
STARTCHAR char115
ENCODING 115
SWIDTH 2070 0
DWIDTH 23 0
BBX 18 33 1 -10
BITMAP
000000
000000
000000
000000
000000
000000
000000
000000
000000
000000
000000
1FFE00
7FFF80
F003C0
F001C0
7F0000
1FF000
03FE00
003F80
E003C0
F003C0
7FFF80
1FFE00
000000
000000
000000
000000
000000
000000
000000
000000
000000
000000
ENDCHAR
STARTCHAR char116
ENCODING 116
SWIDTH 2070 0
DWIDTH 23 0
BBX 17 33 1 -10
BITMAP
000000
000000
000000
000000
000000
000000
078000
078000
078000
078000
078000
FFFC00
FFFC00
078000
078000
078000
078000
078000
078780
078780
03CF80
03FF00
00FC00
000000
000000
000000
000000
000000
000000
000000
000000
000000
000000
ENDCHAR
STARTCHAR char117
ENCODING 117
SWIDTH 2070 0
DWIDTH 23 0
BBX 20 33 0 -10
BITMAP
000000
000000
000000
000000
000000
000000
000000
000000
000000
000000
000000
FF0FF0
3C03C0
3C03C0
3C03C0
3C03C0
3C03C0
3C03C0
3C03C0
3C03C0
1E07C0
0FFFC0
03FBF0
000000
000000
000000
000000
000000
000000
000000
000000
000000
000000
ENDCHAR
STARTCHAR char118
ENCODING 118
SWIDTH 2070 0
DWIDTH 23 0
BBX 20 33 0 -10
BITMAP
000000
000000
000000
000000
000000
000000
000000
000000
000000
000000
000000
FE07F0
3C03C0
3C03C0
1E0780
0F0F00
0F0F00
079E00
03FC00
03FC00
01F800
00F000
03FC00
000000
000000
000000
000000
000000
000000
000000
000000
000000
000000
ENDCHAR
STARTCHAR char119
ENCODING 119
SWIDTH 2070 0
DWIDTH 23 0
BBX 19 33 0 -10
BITMAP
000000
000000
000000
000000
000000
000000
000000
000000
000000
000000
FDF7E0
78E3C0
38E380
38E380
1DF700
1DF700
1FFF00
0FBE00
0FBE00
0FBE00
071C00
071C00
1FBF00
000000
000000
000000
000000
000000
000000
000000
000000
000000
000000
ENDCHAR
STARTCHAR char120
ENCODING 120
SWIDTH 2070 0
DWIDTH 23 0
BBX 20 33 0 -10
BITMAP
000000
000000
000000
000000
000000
000000
000000
000000
000000
000000
000000
FE07F0
3C03C0
1F0F80
0F9F00
07FE00
03FC00
03FC00
07FE00
0F9F00
1F0F80
3C03C0
FE07F0
000000
000000
000000
000000
000000
000000
000000
000000
000000
000000
ENDCHAR
STARTCHAR char121
ENCODING 121
SWIDTH 2070 0
DWIDTH 23 0
BBX 20 33 0 -10
BITMAP
000000
000000
000000
000000
000000
000000
000000
000000
000000
000000
000000
FF0FF0
3C03C0
1E0780
1F0780
0F0F00
078F00
03DE00
03FE00
01FC00
00FC00
007800
007800
00F000
01F000
01E000
03C000
078000
0F8000
9F0000
FE0000
000000
000000
ENDCHAR
STARTCHAR char122
ENCODING 122
SWIDTH 2070 0
DWIDTH 23 0
BBX 19 33 0 -10
BITMAP
000000
000000
000000
000000
000000
000000
000000
000000
000000
000000
000000
FFFFE0
FFFFE0
8003E0
000F80
003E00
00F800
03E000
0F8000
3E0000
F80020
FFFFE0
FFFFE0
000000
000000
000000
000000
000000
000000
000000
000000
000000
000000
ENDCHAR
STARTCHAR char123
ENCODING 123
SWIDTH 2070 0
DWIDTH 23 0
BBX 12 33 3 -10
BITMAP
0000
0000
01E0
0780
0F00
0E00
1E00
1E00
1E00
1C00
1C00
3C00
F000
F000
3C00
1C00
1C00
1E00
1E00
1E00
0E00
0F00
0780
01F0
0000
0000
0000
0000
0000
0000
0000
0000
0000
ENDCHAR
STARTCHAR char124
ENCODING 124
SWIDTH 2070 0
DWIDTH 23 0
BBX 3 33 8 -10
BITMAP
00
E0
E0
E0
E0
E0
E0
E0
E0
E0
E0
E0
E0
E0
E0
E0
E0
E0
E0
E0
E0
E0
E0
00
00
00
00
00
00
00
00
00
00
ENDCHAR
STARTCHAR char125
ENCODING 125
SWIDTH 2070 0
DWIDTH 23 0
BBX 12 33 6 -10
BITMAP
0000
0000
F800
1E00
0F00
0700
0700
0780
0780
0380
0380
03C0
00F0
00F0
03C0
0380
0380
0780
0780
0780
0700
0F00
1E00
F800
0000
0000
0000
0000
0000
0000
0000
0000
0000
ENDCHAR
STARTCHAR char126
ENCODING 126
SWIDTH 2070 0
DWIDTH 23 0
BBX 20 33 0 -10
BITMAP
000000
000000
000000
000000
000000
000000
0E0000
3F8000
7FC000
E0E030
C07070
003FE0
001FC0
000700
000000
000000
000000
000000
000000
000000
000000
000000
000000
000000
000000
000000
000000
000000
000000
000000
000000
000000
000000
ENDCHAR
STARTCHAR char127
ENCODING 127
SWIDTH 2070 0
DWIDTH 23 0
BBX 19 33 1 -10
BITMAP
000000
000000
000FC0
001FE0
003CE0
0038E0
003800
007000
007000
007000
007000
00E000
00E000
00E000
00E000
00E000
01C000
01C000
01C000
01C000
038000
E38000
E78000
7F0000
3E0000
000000
000000
000000
000000
000000
000000
000000
000000
ENDCHAR
ENDFONT
