STARTFONT 2.1
FONT -MIT-35VRB KST-Medium-R-Normal--35-12-200-200-P-18-ISO8859-1
SIZE 12 200 200
FONTBOUNDINGBOX 31 35 -1 -9
STARTPROPERTIES 17
ADD_STYLE_NAME ""
AVERAGE_WIDTH 18
CHARSET_ENCODING "1"
CHARSET_REGISTRY "ISO8859"
DEFAULT_CHAR 0
FAMILY "35VRB KST"
FONT_ASCENT 26
FONT_DESCENT 9
FOUNDRY "MIT"
PIXEL_SIZE 35
POINT_SIZE 12
RESOLUTION_X 200
RESOLUTION_Y 200
SETWIDTH_NAME "Normal"
SLANT "R"
SPACING "P"
WEIGHT_NAME "Medium"
ENDPROPERTIES
CHARS 121
STARTCHAR char1
ENCODING 1
SWIDTH 1494 0
DWIDTH 18 0
BBX 15 35 0 -9
BITMAP
0000
0000
0380
0380
0380
0380
0380
0380
0380
0380
0380
0380
0380
0380
0380
0380
0380
C386
E38E
F39E
7BBC
3FF8
1FF0
0FE0
07C0
0380
0000
0000
0000
0000
0000
0000
0000
0000
0000
ENDCHAR
STARTCHAR char2
ENCODING 2
SWIDTH 2158 0
DWIDTH 26 0
BBX 23 35 0 -9
BITMAP
000000
000000
000000
000000
000000
000000
000000
000000
000000
00000C
00001C
00003C
000078
0000F0
1F01F0
3F83E0
7FE7C0
F8FF80
F07F00
E07E00
F07C00
F8FE00
7FF78E
3FE3FC
1F81F8
0F00F0
000000
000000
000000
000000
000000
000000
000000
000000
000000
ENDCHAR
STARTCHAR char3
ENCODING 3
SWIDTH 1909 0
DWIDTH 23 0
BBX 21 35 0 -9
BITMAP
000000
000000
000000
0003C0
0007E0
0007F0
001FF8
003E78
007C78
0078F0
0070F0
00F1E0
00E1C0
01C380
01C700
038780
0387C0
0787E0
0703F0
0F01F0
1E00F0
1EF1F0
3CFFF0
3CFFE0
387FC0
383F80
780000
700000
600000
600000
E00000
000000
000000
000000
000000
ENDCHAR
STARTCHAR char4
ENCODING 4
SWIDTH 1660 0
DWIDTH 20 0
BBX 17 35 0 -9
BITMAP
000000
000000
000000
000000
000000
000000
000000
000000
008000
01C000
03E000
03F000
03F000
077800
077800
0E3C00
1E3C00
1C1E00
3C0E00
3C0E00
780700
780700
F00380
E00380
000000
000000
000000
000000
000000
000000
000000
000000
000000
000000
000000
ENDCHAR
STARTCHAR char5
ENCODING 5
SWIDTH 1743 0
DWIDTH 21 0
BBX 17 35 0 -9
BITMAP
000000
000000
000000
000000
000000
000000
000000
000000
000000
000000
000000
000000
000000
FFFF80
FFFF80
FFFF80
000380
000380
000380
000380
000380
000000
000000
000000
000000
000000
000000
000000
000000
000000
000000
000000
000000
000000
000000
ENDCHAR
STARTCHAR char6
ENCODING 6
SWIDTH 1162 0
DWIDTH 14 0
BBX 10 35 0 -9
BITMAP
0000
0000
0000
0000
0000
0000
01C0
03C0
0700
0E00
1C00
3800
7800
7800
FFC0
FFC0
F800
7800
7800
7C00
3E00
1F00
0FC0
01C0
0000
0000
0000
0000
0000
0000
0000
0000
0000
0000
0000
ENDCHAR
STARTCHAR char7
ENCODING 7
SWIDTH 1577 0
DWIDTH 19 0
BBX 16 35 0 -9
BITMAP
0000
0000
0000
0000
0000
0000
0000
0000
0000
0000
FFE0
FFF0
FFFE
FFFF
3C78
3C78
3C78
3C78
3C78
3C78
3C78
3C78
3C78
FC78
FC7F
F83F
001F
0000
0000
0000
0000
0000
0000
0000
0000
ENDCHAR
STARTCHAR char8
ENCODING 8
SWIDTH 1494 0
DWIDTH 18 0
BBX 15 35 0 -9
BITMAP
0000
0000
0000
0000
0000
C000
F800
7C00
7C00
1E00
0E00
0600
0700
0300
0300
0780
0F80
1FC0
39C0
39E0
70F0
E0F0
E078
C03E
001E
000E
0000
0000
0000
0000
0000
0000
0000
0000
0000
ENDCHAR
STARTCHAR char11
ENCODING 11
SWIDTH 1245 0
DWIDTH 15 0
BBX 13 35 0 -9
BITMAP
0000
0000
0000
0700
0F80
1F80
3FE0
7FF0
FF78
C738
0700
0700
0700
0700
0700
0700
0700
0700
0700
0700
0700
0700
0700
0700
0700
0700
0000
0000
0000
0000
0000
0000
0000
0000
0000
ENDCHAR
STARTCHAR char14
ENCODING 14
SWIDTH 1826 0
DWIDTH 22 0
BBX 19 35 0 -9
BITMAP
000000
000000
000000
000000
000000
000000
000000
000000
000000
000000
000000
000000
000000
1E1E00
3F3F00
7FFF80
F1F1C0
E1F1E0
E1F1E0
F1F1C0
7FFF80
3F3F00
1E1E00
000000
000000
000000
000000
000000
000000
000000
000000
000000
000000
000000
000000
ENDCHAR
STARTCHAR char15
ENCODING 15
SWIDTH 1494 0
DWIDTH 18 0
BBX 15 35 0 -9
BITMAP
0000
0000
0E00
1F00
0F80
0780
03E0
01F0
00F8
007C
003C
003C
001E
1F9E
3FFE
7FFE
783E
F01E
E00E
E00E
F01E
783E
7FFC
3FF8
1FF0
0FE0
0000
0000
0000
0000
0000
0000
0000
0000
0000
ENDCHAR
STARTCHAR char16
ENCODING 16
SWIDTH 1743 0
DWIDTH 21 0
BBX 18 35 1 -9
BITMAP
000000
000000
000000
000000
000000
000000
000000
000000
000000
0FFF80
1FFFC0
3FFFC0
7FFF80
F80000
F00000
F00000
F00000
F00000
780000
7FFFC0
1FFFC0
0FFFC0
000000
000000
000000
000000
000000
000000
000000
000000
000000
000000
000000
000000
000000
ENDCHAR
STARTCHAR char17
ENCODING 17
SWIDTH 1743 0
DWIDTH 21 0
BBX 18 35 1 -9
BITMAP
000000
000000
000000
000000
000000
000000
000000
000000
000000
FFFC00
FFFE00
FFFF00
FFFF80
0007C0
0003C0
0003C0
0003C0
0007C0
000F80
FFFF00
FFFE00
FFFC00
000000
000000
000000
000000
000000
000000
000000
000000
000000
000000
000000
000000
000000
ENDCHAR
STARTCHAR char18
ENCODING 18
SWIDTH 1494 0
DWIDTH 18 0
BBX 14 35 1 -9
BITMAP
0000
0000
0000
0FC0
1FE0
3FF0
7FF8
FCFC
F87C
F03C
F01C
F01C
F01C
F01C
F01C
F01C
F01C
F01C
F01C
F01C
F01C
F01C
F01C
F01C
F01C
601C
0000
0000
0000
0000
0000
0000
0000
0000
0000
ENDCHAR
STARTCHAR char19
ENCODING 19
SWIDTH 1494 0
DWIDTH 18 0
BBX 14 35 1 -9
BITMAP
0000
0000
0000
601C
F01C
F01C
F01C
F01C
F01C
F01C
F01C
F01C
F01C
F01C
F01C
F01C
F01C
F01C
F01C
F03C
F87C
FCFC
7FF8
3FF0
1FE0
0FC0
0000
0000
0000
0000
0000
0000
0000
0000
0000
ENDCHAR
STARTCHAR char20
ENCODING 20
SWIDTH 1660 0
DWIDTH 20 0
BBX 17 35 0 -9
BITMAP
000000
000000
000000
E00380
E00380
F00380
780700
780700
380600
3FFE00
3FFE00
1FFE00
1C0C00
1C1C00
1E3C00
0E3800
063800
073800
077000
037000
037000
03F000
01E000
01C000
00C000
000000
000000
000000
000000
000000
000000
000000
000000
000000
000000
ENDCHAR
STARTCHAR char21
ENCODING 21
SWIDTH 1494 0
DWIDTH 18 0
BBX 15 35 0 -9
BITMAP
0000
0000
0000
FFFE
FFFE
FFFE
FFFE
000E
000E
000E
000E
000E
001E
01FE
01FE
01FE
001E
000E
000E
000E
000E
000E
FFFE
FFFE
FFFE
FFFE
0000
0000
0000
0000
0000
0000
0000
0000
0000
ENDCHAR
STARTCHAR char22
ENCODING 22
SWIDTH 1743 0
DWIDTH 21 0
BBX 19 35 0 -9
BITMAP
000000
000000
000000
000000
000000
000000
000000
07FC00
0FFE00
3E1F00
3C0F80
7C0FC0
FE1FE0
E73DE0
C3F8E0
C1F0E0
C1F0E0
C3F0E0
E7F8E0
FF1DE0
FE0FC0
7C0780
3E0F00
1FFE00
0FFC00
07F800
000000
000000
000000
000000
000000
000000
000000
000000
000000
ENDCHAR
STARTCHAR char23
ENCODING 23
SWIDTH 1660 0
DWIDTH 20 0
BBX 17 35 0 -9
BITMAP
000000
000000
000000
000000
000000
000000
000000
000000
000000
000000
041000
0E3800
1E1C00
3C0E00
780700
FFFF80
FFFF80
FFFF80
FFFF80
780700
3C1E00
1E3C00
0E3800
000000
000000
000000
000000
000000
000000
000000
000000
000000
000000
000000
000000
ENDCHAR
STARTCHAR char24
ENCODING 24
SWIDTH 1743 0
DWIDTH 21 0
BBX 17 35 0 -9
BITMAP
000000
000000
000000
000000
000000
000000
000000
000000
060000
0E0000
1C0000
380000
780000
FFFF80
FFFF80
FFFF80
780000
380000
1C0000
0E0000
060000
000000
000000
000000
000000
000000
000000
000000
000000
000000
000000
000000
000000
000000
000000
ENDCHAR
STARTCHAR char25
ENCODING 25
SWIDTH 2158 0
DWIDTH 26 0
BBX 23 35 0 -9
BITMAP
000000
000000
000000
000000
000000
000000
000000
000000
000180
0001C0
0000E0
000070
000038
00003C
FFFFFE
FFFFFE
FFFFFE
00003E
00003C
000078
0000F0
0001E0
0001C0
000000
000000
000000
000000
000000
000000
000000
000000
000000
000000
000000
000000
ENDCHAR
STARTCHAR char26
ENCODING 26
SWIDTH 1328 0
DWIDTH 16 0
BBX 14 35 0 -9
BITMAP
0000
0000
0000
0000
0000
0000
0000
0000
0000
0000
0008
001C
003C
0078
FFFC
FFFC
01E0
03C0
07C0
FFFC
FFFC
3C00
7800
F000
0000
0000
0000
0000
0000
0000
0000
0000
0000
0000
0000
ENDCHAR
STARTCHAR char27
ENCODING 27
SWIDTH 1577 0
DWIDTH 19 0
BBX 16 35 0 -9
BITMAP
0000
0000
0000
0000
0000
0000
0000
0000
0000
0000
0000
0000
1E03
3F03
7F87
7FCE
FBFE
F3FC
E1F8
C0F8
0000
0000
0000
0000
0000
0000
0000
0000
0000
0000
0000
0000
0000
0000
0000
ENDCHAR
STARTCHAR char28
ENCODING 28
SWIDTH 1577 0
DWIDTH 19 0
BBX 14 35 1 -9
BITMAP
0000
0000
0000
0000
0000
0000
0000
000C
003C
01F8
07E0
0FC0
3F00
FC00
FC00
3F00
07C0
01F0
00F8
003C
000C
0000
FFFC
FFFC
FFFC
7FFC
0000
0000
0000
0000
0000
0000
0000
0000
0000
ENDCHAR
STARTCHAR char29
ENCODING 29
SWIDTH 1328 0
DWIDTH 16 0
BBX 14 35 0 -9
BITMAP
0000
0000
0000
0000
0000
0000
0000
C000
F000
7E00
1F80
0FC0
03F0
00FC
00FC
03F0
0F80
3E00
7C00
F000
C000
0000
FFFC
FFFC
FFFC
FFF8
0000
0000
0000
0000
0000
0000
0000
0000
0000
ENDCHAR
STARTCHAR char30
ENCODING 30
SWIDTH 1328 0
DWIDTH 16 0
BBX 14 35 0 -9
BITMAP
0000
0000
0000
0000
0000
0000
0000
0000
0000
0000
FFF8
FFFC
FFFC
FFFC
0000
FFFC
FFFC
FFFC
FFF8
0000
FFFC
FFFC
FFFC
0000
0000
0000
0000
0000
0000
0000
0000
0000
0000
0000
0000
ENDCHAR
STARTCHAR char31
ENCODING 31
SWIDTH 1660 0
DWIDTH 20 0
BBX 16 35 0 -9
BITMAP
0000
0000
0000
0000
0000
0000
0000
0000
0000
0000
C003
E007
E007
F007
780E
780E
3C1C
3C3C
1C38
1E78
0E78
07F0
07F0
03E0
03C0
0180
0000
0000
0000
0000
0000
0000
0000
0000
0000
ENDCHAR
STARTCHAR char32
ENCODING 32
SWIDTH 996 0
DWIDTH 12 0
BBX 1 35 0 -9
BITMAP
00
00
00
00
00
00
00
00
00
00
00
00
00
00
00
00
00
00
00
00
00
00
00
00
00
00
00
00
00
00
00
00
00
00
00
ENDCHAR
STARTCHAR char33
ENCODING 33
SWIDTH 581 0
DWIDTH 7 0
BBX 5 35 0 -9
BITMAP
00
00
60
F0
F8
F8
F8
F8
F8
F8
70
60
60
60
60
60
60
00
00
00
70
F8
F8
F8
70
20
00
00
00
00
00
00
00
00
00
ENDCHAR
STARTCHAR char34
ENCODING 34
SWIDTH 1079 0
DWIDTH 13 0
BBX 9 35 1 -9
BITMAP
F380
F380
F380
F380
F380
F380
E380
4100
0000
0000
0000
0000
0000
0000
0000
0000
0000
0000
0000
0000
0000
0000
0000
0000
0000
0000
0000
0000
0000
0000
0000
0000
0000
0000
0000
ENDCHAR
STARTCHAR char35
ENCODING 35
SWIDTH 1328 0
DWIDTH 16 0
BBX 14 35 0 -9
BITMAP
0000
0000
0000
0000
0000
0000
0000
3CF0
3CF0
3CF0
FFF8
FFFC
FFFC
FFFC
3CF0
3CF0
FFFC
FFFC
FFFC
FFFC
3CF0
3CF0
0000
0000
0000
0000
0000
0000
0000
0000
0000
0000
0000
0000
0000
ENDCHAR
STARTCHAR char36
ENCODING 36
SWIDTH 1328 0
DWIDTH 16 0
BBX 14 35 0 -9
BITMAP
0300
0300
0FE0
1FF0
3FF8
633C
E33C
E33C
E31C
F300
FF00
FF00
7F00
7FE0
1FF0
0FF8
03FC
03FC
033C
033C
C33C
C33C
E37C
FFF8
7FF0
3FE0
0300
0300
0000
0000
0000
0000
0000
0000
0000
ENDCHAR
STARTCHAR char37
ENCODING 37
SWIDTH 1494 0
DWIDTH 18 0
BBX 15 35 0 -9
BITMAP
0000
0000
0000
01FE
03FE
03FC
7F3C
FE78
DC78
FCF0
78F0
30E0
01C0
01C0
0380
0380
0700
0700
0F00
1E00
1E3C
3C7E
3C76
387E
383C
1018
0000
0000
0000
0000
0000
0000
0000
0000
0000
ENDCHAR
STARTCHAR char38
ENCODING 38
SWIDTH 2241 0
DWIDTH 27 0
BBX 23 35 0 -9
BITMAP
000000
000000
03E000
07F000
073800
0E3C00
1E3C00
1E3C00
1E3C00
1F3800
1F3800
0FF000
07E07E
0FE0FE
1FF18E
39F98E
71FB00
E0FF00
E07F00
F07E00
F83F00
F87F82
FFFFF6
7F87FE
1C01F0
0800E0
000000
000000
000000
000000
000000
000000
000000
000000
000000
ENDCHAR
STARTCHAR char39
ENCODING 39
SWIDTH 581 0
DWIDTH 7 0
BBX 5 35 0 -9
BITMAP
60
F0
F8
78
38
38
30
60
C0
00
00
00
00
00
00
00
00
00
00
00
00
00
00
00
00
00
00
00
00
00
00
00
00
00
00
ENDCHAR
STARTCHAR char40
ENCODING 40
SWIDTH 913 0
DWIDTH 11 0
BBX 9 35 0 -9
BITMAP
0180
0300
0600
0600
0C00
1C00
1C00
3800
7800
7800
7800
7000
6000
E000
E000
E000
E000
E000
E000
E000
6000
6000
7000
3800
3800
1800
1C00
0C00
0600
0300
0000
0000
0000
0000
0000
ENDCHAR
STARTCHAR char41
ENCODING 41
SWIDTH 747 0
DWIDTH 9 0
BBX 7 35 0 -9
BITMAP
C0
C0
60
60
30
38
38
3C
3C
1C
1C
1E
1E
1E
1E
1E
1E
1E
1E
1E
1E
1E
1C
1C
18
38
30
60
60
C0
00
00
00
00
00
ENDCHAR
STARTCHAR char42
ENCODING 42
SWIDTH 1162 0
DWIDTH 14 0
BBX 12 35 0 -9
BITMAP
0000
0000
0000
0000
0000
0000
0000
0000
0000
0600
0600
0600
0600
C670
E6F0
E0F0
3D00
0E00
0600
71E0
E0F0
C670
0600
0600
0600
0400
0000
0000
0000
0000
0000
0000
0000
0000
0000
ENDCHAR
STARTCHAR char43
ENCODING 43
SWIDTH 1245 0
DWIDTH 15 0
BBX 12 35 1 -9
BITMAP
0000
0000
0000
0000
0000
0000
0000
0000
0000
0000
0000
0000
0600
0600
0600
0600
FFF0
FFF0
7FE0
0600
0600
0600
0600
0000
0000
0000
0000
0000
0000
0000
0000
0000
0000
0000
0000
ENDCHAR
STARTCHAR char44
ENCODING 44
SWIDTH 581 0
DWIDTH 7 0
BBX 5 35 0 -9
BITMAP
00
00
00
00
00
00
00
00
00
00
00
00
00
00
00
00
00
00
00
00
00
60
F0
F8
78
38
30
60
C0
00
00
00
00
00
00
ENDCHAR
STARTCHAR char45
ENCODING 45
SWIDTH 913 0
DWIDTH 11 0
BBX 8 35 0 -9
BITMAP
00
00
00
00
00
00
00
00
00
00
00
00
00
00
00
00
FF
FF
FF
FF
00
00
00
00
00
00
00
00
00
00
00
00
00
00
00
ENDCHAR
STARTCHAR char46
ENCODING 46
SWIDTH 664 0
DWIDTH 8 0
BBX 5 35 0 -9
BITMAP
00
00
00
00
00
00
00
00
00
00
00
00
00
00
00
00
00
00
00
00
00
60
F0
F8
70
20
00
00
00
00
00
00
00
00
00
ENDCHAR
STARTCHAR char47
ENCODING 47
SWIDTH 996 0
DWIDTH 12 0
BBX 9 35 0 -9
BITMAP
0000
0000
0180
0180
0380
0380
0300
0300
0300
0600
0600
0600
0600
0E00
1C00
1C00
1C00
1800
3800
3800
3800
7800
7000
6000
E000
E000
C000
C000
C000
0000
0000
0000
0000
0000
0000
ENDCHAR
STARTCHAR char48
ENCODING 48
SWIDTH 1328 0
DWIDTH 16 0
BBX 14 35 0 -9
BITMAP
0000
0000
0780
0FC0
1FE0
3CF0
7878
7878
F87C
F87C
F87C
F87C
F87C
F87C
F87C
F87C
F87C
F87C
F87C
F87C
7878
7878
3CF0
3FE0
0FC0
0780
0000
0000
0000
0000
0000
0000
0000
0000
0000
ENDCHAR
STARTCHAR char49
ENCODING 49
SWIDTH 1162 0
DWIDTH 14 0
BBX 11 35 0 -9
BITMAP
0000
0000
0300
0F00
1F00
7F00
1F00
1F00
1F00
1F00
1F00
1F00
1F00
1F00
1F00
1F00
1F00
1F00
1F00
1F00
1F00
1F00
1F00
3F80
FFE0
FFE0
0000
0000
0000
0000
0000
0000
0000
0000
0000
ENDCHAR
STARTCHAR char50
ENCODING 50
SWIDTH 1328 0
DWIDTH 16 0
BBX 14 35 0 -9
BITMAP
0000
0000
0700
1FC0
3FE0
61F0
C0F8
C0F8
C0FC
E0FC
E0FC
F0F8
70F8
00F8
01F0
01F0
0380
0780
0700
0E00
1C00
3800
7000
FFF8
FFF8
FFF8
0038
0018
0000
0000
0000
0000
0000
0000
0000
ENDCHAR
STARTCHAR char51
ENCODING 51
SWIDTH 1328 0
DWIDTH 16 0
BBX 14 35 0 -9
BITMAP
0000
0000
0F80
1FE0
3FF0
71F0
60F8
E0F8
FCF8
7CF0
39F0
11E0
0180
0300
1FF0
38F8
38F8
00F8
00FC
00FC
00F8
C0F8
E1F0
FFE0
7F80
3F00
0000
0000
0000
0000
0000
0000
0000
0000
0000
ENDCHAR
STARTCHAR char52
ENCODING 52
SWIDTH 1660 0
DWIDTH 20 0
BBX 16 35 0 -9
BITMAP
0000
0000
000C
001C
003C
007C
00FC
01FC
037C
037C
067C
0C7C
1C7C
1C7C
387C
707C
FFFF
FFFF
FFFF
007C
007C
007C
007C
00FC
03FF
03FF
0000
0000
0000
0000
0000
0000
0000
0000
0000
ENDCHAR
STARTCHAR char53
ENCODING 53
SWIDTH 1494 0
DWIDTH 18 0
BBX 15 35 0 -9
BITMAP
0000
0000
300C
381C
3C38
3FF8
3FF8
3FC0
3800
3800
3800
3800
39E0
3FF8
3CFC
387C
387E
007E
007E
007E
007C
607C
F0F8
7FF0
3FC0
1F80
0000
0000
0000
0000
0000
0000
0000
0000
0000
ENDCHAR
STARTCHAR char54
ENCODING 54
SWIDTH 1328 0
DWIDTH 16 0
BBX 14 35 0 -9
BITMAP
0000
0000
03E0
0FF0
1FF8
3C3C
3C3C
7838
7800
F800
F800
F800
FBE0
FFF8
FC78
F87C
F87C
F87C
F87C
F87C
F87C
787C
7C78
3FF0
1FE0
0FC0
0000
0000
0000
0000
0000
0000
0000
0000
0000
ENDCHAR
STARTCHAR char55
ENCODING 55
SWIDTH 1328 0
DWIDTH 16 0
BBX 14 35 0 -9
BITMAP
6000
6000
7FFC
FFFC
FFF8
FFF8
C038
8038
8070
0070
0060
00C0
01C0
0180
0380
0380
0700
0700
0F00
1F00
1F00
1F00
3F00
1E00
1C00
0800
0000
0000
0000
0000
0000
0000
0000
0000
0000
ENDCHAR
STARTCHAR char56
ENCODING 56
SWIDTH 1494 0
DWIDTH 18 0
BBX 15 35 0 -9
BITMAP
0000
0000
07C0
0FF0
1FF8
3C3C
781C
780C
7C1C
7E7C
3FF8
3FF0
3FF0
1FF8
1FFC
38FC
787E
703E
601E
E00E
E00E
600C
701C
3FF8
1FE0
0FC0
0000
0000
0000
0000
0000
0000
0000
0000
0000
ENDCHAR
STARTCHAR char57
ENCODING 57
SWIDTH 1328 0
DWIDTH 16 0
BBX 14 35 0 -9
BITMAP
0000
0000
0780
1FE0
3FF0
7C78
7878
F87C
F87C
F87C
F87C
F87C
F87C
F87C
78FC
3FFC
1E7C
007C
0078
0078
0078
60F0
70F0
7FE0
3F80
1F00
0000
0000
0000
0000
0000
0000
0000
0000
0000
ENDCHAR
STARTCHAR char58
ENCODING 58
SWIDTH 664 0
DWIDTH 8 0
BBX 6 35 0 -9
BITMAP
00
00
00
00
00
00
00
00
00
70
F8
FC
FC
70
60
00
00
00
00
30
78
FC
FC
78
00
00
00
00
00
00
00
00
00
00
00
ENDCHAR
STARTCHAR char59
ENCODING 59
SWIDTH 581 0
DWIDTH 7 0
BBX 5 35 0 -9
BITMAP
00
00
00
00
00
00
00
00
60
F0
F8
F8
F8
F0
60
00
00
00
00
70
F8
F8
F8
F8
18
18
30
20
C0
80
00
00
00
00
00
ENDCHAR
STARTCHAR char60
ENCODING 60
SWIDTH 1162 0
DWIDTH 14 0
BBX 12 35 0 -9
BITMAP
0000
0000
0000
0000
0000
0000
0070
00F0
01E0
0380
0780
0F00
1E00
3C00
7800
F000
7000
3800
1C00
0E00
0700
0380
01C0
00E0
0070
0020
0000
0000
0000
0000
0000
0000
0000
0000
0000
ENDCHAR
STARTCHAR char61
ENCODING 61
SWIDTH 1162 0
DWIDTH 14 0
BBX 12 35 0 -9
BITMAP
0000
0000
0000
0000
0000
0000
0000
0000
0000
0000
0000
0000
FFF0
FFF0
FFF0
0000
0000
FFE0
FFF0
FFF0
FFE0
0000
0000
0000
0000
0000
0000
0000
0000
0000
0000
0000
0000
0000
0000
ENDCHAR
STARTCHAR char62
ENCODING 62
SWIDTH 1162 0
DWIDTH 14 0
BBX 11 35 0 -9
BITMAP
0000
0000
0000
0000
0000
0000
C000
E000
7000
3C00
1C00
0E00
0700
0380
01C0
00E0
01E0
03C0
0780
0F00
1E00
3C00
7800
F000
E000
C000
0000
0000
0000
0000
0000
0000
0000
0000
0000
ENDCHAR
STARTCHAR char63
ENCODING 63
SWIDTH 996 0
DWIDTH 12 0
BBX 9 35 0 -9
BITMAP
0000
0000
6000
F800
FC00
FE00
FF00
0300
0180
0180
0180
0380
3F80
3F80
7F00
7E00
7000
6000
2000
0000
0000
6000
F000
F800
7000
2000
0000
0000
0000
0000
0000
0000
0000
0000
0000
ENDCHAR
STARTCHAR char64
ENCODING 64
SWIDTH 1909 0
DWIDTH 23 0
BBX 20 35 1 -9
BITMAP
000000
000000
000000
000000
000000
000000
000000
000000
07FF00
1FFF80
3FFFC0
7FFFE0
7003E0
63F1F0
C7F8F0
CF7CF0
CE3CF0
CE1CF0
CE1CF0
CE1DF0
CF3FE0
CFFFE0
C7FFC0
E00000
7FFFE0
3FFFF0
1FFFF0
000000
000000
000000
000000
000000
000000
000000
000000
ENDCHAR
STARTCHAR char65
ENCODING 65
SWIDTH 2158 0
DWIDTH 26 0
BBX 22 35 0 -9
BITMAP
000000
000000
001800
003800
007800
007800
007C00
00FC00
00FC00
00FC00
01FE00
01BE00
01BE00
031E00
030F00
060F00
07FF80
07FF80
0FFF80
1C07C0
1C03E0
3803E0
3803E0
FC03F8
FC0FFC
FC0FFC
000000
000000
000000
000000
000000
000000
000000
000000
000000
ENDCHAR
STARTCHAR char66
ENCODING 66
SWIDTH 1826 0
DWIDTH 22 0
BBX 19 35 0 -9
BITMAP
000000
000000
FFF800
7FFE00
3FFF00
3E0F00
3E0F80
3E0780
3E0780
3E0780
3E0F80
3E0F80
3E1F00
3FFC00
3FFE00
3E1F80
3E0780
3E07C0
3E03E0
3E03E0
3E03E0
3E03E0
3E07E0
7FFFC0
FFFF00
FFFE00
000000
000000
000000
000000
000000
000000
000000
000000
000000
ENDCHAR
STARTCHAR char67
ENCODING 67
SWIDTH 2075 0
DWIDTH 25 0
BBX 21 35 0 -9
BITMAP
000000
00FE00
03FF98
07E1F8
0FC0F8
1F8078
3F0038
3E0018
7E0018
7E0000
7E0000
7C0000
FC0000
FC0000
FC0000
FC0000
FC0000
7C0000
7E0018
7E0018
3E0038
3F0078
1F81F8
0FFFF8
00FF18
007E10
000000
000000
000000
000000
000000
000000
000000
000000
000000
ENDCHAR
STARTCHAR char68
ENCODING 68
SWIDTH 2241 0
DWIDTH 27 0
BBX 23 35 0 -9
BITMAP
000000
000000
FFFC00
7FFF80
3FFFC0
1F03E0
1F01F0
1F01F8
1F00F8
1F00FC
1F00FC
1F007E
1F007E
1F007E
1F007E
1F007E
1F007E
1F007E
1F00FC
1F00FC
1F00FC
1F00F8
1F01F0
3FFFE0
FFFF80
FFFF00
000000
000000
000000
000000
000000
000000
000000
000000
000000
ENDCHAR
STARTCHAR char69
ENCODING 69
SWIDTH 1826 0
DWIDTH 22 0
BBX 19 35 0 -9
BITMAP
000000
000000
FFFF80
3FFF80
1FFF80
1F0380
1F0180
1F0080
1F0080
1F0400
1F0C00
1F0C00
1F1C00
1FFC00
1FFC00
1F1C00
1F0C00
1F0C00
1F0000
1F0000
1F0060
1F0060
1F00E0
3FFFE0
FFFFE0
FFFFC0
000000
000000
000000
000000
000000
000000
000000
000000
000000
ENDCHAR
STARTCHAR char70
ENCODING 70
SWIDTH 1743 0
DWIDTH 21 0
BBX 17 35 0 -9
BITMAP
000000
000000
FFFF80
7FFF80
3FFF80
3F0380
3F0180
3F0080
3F0080
3F0400
3F0C00
3F1C00
3F3C00
3FFC00
3FFC00
3F3C00
3F1C00
3F0C00
3F0000
3F0000
3F0000
3F0000
3F0000
7F8000
FFC000
FFC000
000000
000000
000000
000000
000000
000000
000000
000000
000000
ENDCHAR
STARTCHAR char71
ENCODING 71
SWIDTH 2158 0
DWIDTH 26 0
BBX 22 35 0 -9
BITMAP
000000
01FC00
07FF00
0F87E0
1F03E0
3E00E0
7E00E0
7C0060
FC0060
FC0000
FC0000
F80000
F80000
F80000
F80000
F80000
F807FC
F801F8
F801F8
FC01F8
7C01F0
7E01F0
3F03F0
1FFF00
07FC00
03F800
000000
000000
000000
000000
000000
000000
000000
000000
000000
ENDCHAR
STARTCHAR char72
ENCODING 72
SWIDTH 2324 0
DWIDTH 28 0
BBX 24 35 0 -9
BITMAP
000000
000000
FFC3FF
7FC1FF
3F80FE
3F00FC
3F00FC
3F00FC
3F00FC
3F00FC
3F00FC
3F00FC
3F00FC
3FFFFC
3FFFFC
3F00FC
3F00FC
3F00FC
3F00FC
3F00FC
3F00FC
3F00FC
3F00FC
7F80FE
FFC3FF
FFC3FF
000000
000000
000000
000000
000000
000000
000000
000000
000000
ENDCHAR
STARTCHAR char73
ENCODING 73
SWIDTH 1245 0
DWIDTH 15 0
BBX 13 35 0 -9
BITMAP
0000
0000
FFF8
3FE0
1FC0
1F80
1F80
1F80
1F80
1F80
1F80
1F80
1F80
1F80
1F80
1F80
1F80
1F80
1F80
1F80
1F80
1F80
1F80
3FC0
FFF0
FFF0
0000
0000
0000
0000
0000
0000
0000
0000
0000
ENDCHAR
STARTCHAR char74
ENCODING 74
SWIDTH 1328 0
DWIDTH 16 0
BBX 14 35 0 -9
BITMAP
0000
0000
07FC
07F8
03F0
01F0
01F0
01F0
01F0
01F0
01F0
01F0
01F0
01F0
01F0
01F0
01F0
01F0
01F0
01F0
01F0
01F0
01F0
01F0
01F0
01F0
01F0
01F0
01F0
81F0
C1E0
E1C0
F3C0
FF80
7F00
ENDCHAR
STARTCHAR char75
ENCODING 75
SWIDTH 2324 0
DWIDTH 28 0
BBX 24 35 0 -9
BITMAP
000000
000000
FFE3FC
7FE3FC
3FC3FC
1F81C0
1F0180
1F0380
1F0300
1F0600
1F0600
1F0E00
1F1C00
1F3C00
1F7E00
1FFF00
1F9F00
1F8F80
1F07C0
1F07E0
1F03F0
1F01F8
1F01F8
3F81FC
FFC3FF
FFC3FF
000000
000000
000000
000000
000000
000000
000000
000000
000000
ENDCHAR
STARTCHAR char76
ENCODING 76
SWIDTH 1826 0
DWIDTH 22 0
BBX 19 35 0 -9
BITMAP
000000
000000
FFC000
7FC000
3F8000
3F0000
3F0000
3F0000
3F0000
3F0000
3F0000
3F0000
3F0000
3F0000
3F0000
3F0000
3F0000
3F0000
3F0000
3F0000
3F0060
3F0060
3F00E0
7FFFE0
FFFFE0
FFFFC0
000000
000000
000000
000000
000000
000000
000000
000000
000000
ENDCHAR
STARTCHAR char77
ENCODING 77
SWIDTH 2656 0
DWIDTH 32 0
BBX 28 35 0 -9
BITMAP
00000000
00000000
FE000FF0
7F001FE0
3F001FC0
3F003F00
3F807F00
3F807F00
3FC07F00
3BC0FF00
3BC0FF00
3BE0EF00
3BF0CF00
39F18F00
39F18F00
38F98F00
38FB0F00
38FF0F00
387F0F00
387F0F00
387E0F00
383E0F00
383C0F00
7C3C1FE0
FF183FE0
FF003FE0
00000000
00000000
00000000
00000000
00000000
00000000
00000000
00000000
00000000
ENDCHAR
STARTCHAR char78
ENCODING 78
SWIDTH 2241 0
DWIDTH 27 0
BBX 23 35 0 -9
BITMAP
000000
000000
FE00FE
FE007E
FE003C
7F0018
3F8018
3F8018
3FC018
3BE018
3BF018
3BF018
39F818
38FC18
387E18
387E18
383F18
381F98
380FF8
3807F8
3803F8
3803F8
3801F8
7C00F8
FC0078
FC0030
000000
000000
000000
000000
000000
000000
000000
000000
000000
ENDCHAR
STARTCHAR char79
ENCODING 79
SWIDTH 2241 0
DWIDTH 27 0
BBX 23 35 0 -9
BITMAP
000000
01FE00
07FF80
0F87E0
1F03F0
3E01F8
3E00F8
7C007C
FC007C
FC007E
FC007E
F8007E
F8003E
F8001E
F8001E
F8001E
F8003E
F8007E
FC007E
FC007C
7C007C
3E00F8
1F81F0
0FFFE0
03FF80
01FF00
000000
000000
000000
000000
000000
000000
000000
000000
000000
ENDCHAR
STARTCHAR char80
ENCODING 80
SWIDTH 1909 0
DWIDTH 23 0
BBX 20 35 0 -9
BITMAP
000000
000000
FFFC00
3FFF80
1FFFC0
1F07E0
1F03E0
1F03F0
1F03F0
1F03F0
1F03E0
1F07E0
1F07C0
1FFF80
1FFF00
1F0000
1F0000
1F0000
1F0000
1F0000
1F0000
1F0000
1F0000
3F8000
3FC000
3FC000
000000
000000
000000
000000
000000
000000
000000
000000
000000
ENDCHAR
STARTCHAR char81
ENCODING 81
SWIDTH 2324 0
DWIDTH 28 0
BBX 31 35 0 -9
BITMAP
00000000
001E0000
01FFC000
03E1E000
07C0F000
0F00F800
1F007C00
3E007E00
3E007E00
7E003E00
7C001F00
7C001F00
7C001F00
FC001F00
FC001F00
FC001F00
FC001F00
7C001F00
7C001E00
7E001E00
7E003C00
3E007C00
1F007800
0F81E000
03FFE000
01FFC000
001E0000
001C0000
007FF802
00E1FE06
01807FFC
00003FFC
00001FFC
000007F8
000001E0
ENDCHAR
STARTCHAR char82
ENCODING 82
SWIDTH 2241 0
DWIDTH 27 0
BBX 23 35 0 -9
BITMAP
000000
000000
FFFF00
3FFF80
1FFFC0
1F07E0
1F03F0
1F03F0
1F03F0
1F03F0
1F03F0
1F03E0
1F03C0
1F0780
1FFE00
1FFE00
1F3F00
1F1F80
1F0F80
1F07C0
1F07E0
1F03F0
1F01F0
3F81F8
3FC1FE
3FC0FE
000000
000000
000000
000000
000000
000000
000000
000000
000000
ENDCHAR
STARTCHAR char83
ENCODING 83
SWIDTH 1660 0
DWIDTH 20 0
BBX 16 35 0 -9
BITMAP
0000
07C0
0FE6
1E3E
3C1E
3C0E
7806
7806
7C02
7C00
7F00
7F80
7FE0
3FF8
07FC
01FE
007E
003F
401F
400F
400F
600E
F01E
DFFC
0FF0
07E0
0000
0000
0000
0000
0000
0000
0000
0000
0000
ENDCHAR
STARTCHAR char84
ENCODING 84
SWIDTH 2158 0
DWIDTH 26 0
BBX 22 35 0 -9
BITMAP
000000
000000
FFFFFC
FFFFFC
FFFFFC
E0FC1C
C0FC0C
C0FC0C
C0FC0C
00FC00
00FC00
00FC00
00FC00
00FC00
00FC00
00FC00
00FC00
00FC00
00FC00
00FC00
00FC00
00FC00
00FC00
01FE00
07FF80
07FF80
000000
000000
000000
000000
000000
000000
000000
000000
000000
ENDCHAR
STARTCHAR char85
ENCODING 85
SWIDTH 2324 0
DWIDTH 28 0
BBX 24 35 0 -9
BITMAP
000000
000000
FFE03F
7FE03F
3FC01E
1F000C
1F000C
1F000C
1F000C
1F000C
1F000C
1F000C
1F000C
1F000C
1F000C
1F000C
1F000C
1F000C
1F000C
1F000C
1F000C
1F801C
0FC038
03FFF0
007F80
003F00
000000
000000
000000
000000
000000
000000
000000
000000
000000
ENDCHAR
STARTCHAR char86
ENCODING 86
SWIDTH 2241 0
DWIDTH 27 0
BBX 23 35 0 -9
BITMAP
000000
000000
FFE1FE
7FF1FE
3FE0FE
1F803C
1F8018
1F8018
0F8030
07C070
07C070
07C0E0
03C0E0
03E0C0
03F180
01F180
01F300
01F300
01FF00
00FE00
00FE00
00FC00
007C00
007800
007800
003000
000000
000000
000000
000000
000000
000000
000000
000000
000000
ENDCHAR
STARTCHAR char87
ENCODING 87
SWIDTH 2905 0
DWIDTH 35 0
BBX 31 35 0 -9
BITMAP
00000000
00000000
FFC0C1FE
7FC0E1FE
3F81E0FE
3F01E038
1F03F018
1F03F030
1F83F030
0F87F830
0787F860
0787F8E0
0786F8E0
03C6FCE0
03CC7DC0
03CC7DC0
03FC7DC0
03FC7F80
01F83F00
01F81F00
01F81F00
00F81E00
00F00E00
00F00C00
00700C00
00200C00
00000000
00000000
00000000
00000000
00000000
00000000
00000000
00000000
00000000
ENDCHAR
STARTCHAR char88
ENCODING 88
SWIDTH 2241 0
DWIDTH 27 0
BBX 23 35 0 -9
BITMAP
000000
000000
FFC7FC
7F81F0
3F01E0
3F01C0
3F0180
1F8180
0FC300
07C600
07E600
03FE00
01FC00
01F800
00FC00
00FE00
00FE00
01FF00
039F80
030F80
0E07C0
1C07E0
1C03F0
7C03F8
FF0FFE
FF0FFE
000000
000000
000000
000000
000000
000000
000000
000000
000000
ENDCHAR
STARTCHAR char89
ENCODING 89
SWIDTH 2158 0
DWIDTH 26 0
BBX 22 35 0 -9
BITMAP
000000
000000
FFC1FC
7F80F8
3F0070
3F0070
1F00E0
1F80E0
0F81C0
07C180
07C380
03E300
03F300
01F600
01FC00
01FC00
00F800
00F800
00F800
00F800
00F800
00F800
00F800
01FC00
07FF00
07FF00
000000
000000
000000
000000
000000
000000
000000
000000
000000
ENDCHAR
STARTCHAR char90
ENCODING 90
SWIDTH 1826 0
DWIDTH 22 0
BBX 19 35 0 -9
BITMAP
000000
000000
7FFFC0
7FFFE0
7FFFC0
700F80
601F80
603F00
603F00
007E00
007C00
00FC00
00FC00
01F800
01F800
03F000
03E000
07C000
0FC000
1F8000
1F00E0
3F00E0
7E01E0
7FFFC0
FFFF80
FFFF80
000000
000000
000000
000000
000000
000000
000000
000000
000000
ENDCHAR
STARTCHAR char91
ENCODING 91
SWIDTH 996 0
DWIDTH 12 0
BBX 8 35 1 -9
BITMAP
00
00
FF
FF
FF
FF
F8
F0
F0
F0
F0
F0
F0
F0
F0
F0
F0
F0
F0
F0
F0
F0
F0
F0
F0
F0
F0
F8
FF
FF
FF
00
00
00
00
ENDCHAR
STARTCHAR char92
ENCODING 92
SWIDTH 1328 0
DWIDTH 16 0
BBX 13 35 1 -9
BITMAP
0000
0000
E000
F000
7800
7800
7800
7C00
3C00
3C00
3E00
1E00
0E00
0E00
0F00
0700
0700
0780
0780
0380
03C0
03E0
01E0
01E0
01E0
00F0
00F0
00F0
00F8
0078
0078
0000
0000
0000
0000
ENDCHAR
STARTCHAR char93
ENCODING 93
SWIDTH 996 0
DWIDTH 12 0
BBX 8 35 1 -9
BITMAP
00
00
FF
FF
FF
FF
0F
07
07
07
07
07
07
07
07
07
07
07
07
07
07
07
07
07
07
07
07
1F
FF
FF
FF
00
00
00
00
ENDCHAR
STARTCHAR char95
ENCODING 95
SWIDTH 1743 0
DWIDTH 21 0
BBX 17 35 0 -9
BITMAP
000000
000000
000000
000000
000000
000000
000000
000000
000000
000000
000000
000000
000000
000000
000000
000000
000000
000000
000000
000000
000000
000000
000000
000000
FFFF80
FFFF80
FFFF80
000000
000000
000000
000000
000000
000000
000000
000000
ENDCHAR
STARTCHAR char96
ENCODING 96
SWIDTH 581 0
DWIDTH 7 0
BBX 5 35 0 -9
BITMAP
38
70
C0
C0
E0
F0
F8
F8
70
00
00
00
00
00
00
00
00
00
00
00
00
00
00
00
00
00
00
00
00
00
00
00
00
00
00
ENDCHAR
STARTCHAR char97
ENCODING 97
SWIDTH 1494 0
DWIDTH 18 0
BBX 15 35 0 -9
BITMAP
0000
0000
0000
0000
0000
0000
0000
0000
0000
07C0
1FE0
3FF0
7CF8
78F8
78F8
00F8
03F8
0FF8
1FF8
7CF8
78F8
F8F8
F9F8
FFFE
7E7C
3C38
0000
0000
0000
0000
0000
0000
0000
0000
0000
ENDCHAR
STARTCHAR char98
ENCODING 98
SWIDTH 1660 0
DWIDTH 20 0
BBX 16 35 0 -9
BITMAP
0000
0000
FC00
FC00
FC00
7C00
7C00
7C00
7C00
7CE0
7FF8
7FFC
7F1E
7E0F
7C0F
7C0F
7C0F
7C0F
7C0F
7C0F
7C0F
7C0F
7E1E
7FFE
77F8
23F0
0000
0000
0000
0000
0000
0000
0000
0000
0000
ENDCHAR
STARTCHAR char99
ENCODING 99
SWIDTH 1328 0
DWIDTH 16 0
BBX 14 35 0 -9
BITMAP
0000
0000
0000
0000
0000
0000
0000
0000
0000
01C0
07E0
0FF0
3E78
7C3C
F83C
F800
F800
F800
F800
F800
F800
7C0C
7E1C
3FF8
1FE0
0FC0
0000
0000
0000
0000
0000
0000
0000
0000
0000
ENDCHAR
STARTCHAR char100
ENCODING 100
SWIDTH 1577 0
DWIDTH 19 0
BBX 15 35 0 -9
BITMAP
0000
0000
0006
007E
007E
003E
003E
003E
003E
073E
1FFE
3FFE
7CFE
F87E
F83E
F83E
F83E
F83E
F83E
F83E
F83E
F83E
7C7E
7FFE
1FEE
0FC6
0000
0000
0000
0000
0000
0000
0000
0000
0000
ENDCHAR
STARTCHAR char101
ENCODING 101
SWIDTH 1245 0
DWIDTH 15 0
BBX 13 35 0 -9
BITMAP
0000
0000
0000
0000
0000
0000
0000
0000
0000
0FC0
1FE0
3FF0
7878
F878
F878
FFF8
FFF8
F000
E000
F000
F800
F800
7C18
7FF0
1FE0
0FC0
0000
0000
0000
0000
0000
0000
0000
0000
0000
ENDCHAR
STARTCHAR char102
ENCODING 102
SWIDTH 1328 0
DWIDTH 16 0
BBX 14 35 0 -9
BITMAP
0000
0000
03E0
07F0
0FF8
1E3C
1E1C
3E00
3E00
3E00
FFE0
FFF0
FFE0
3E00
3E00
3E00
3E00
3E00
3E00
3E00
3E00
3E00
3E00
7F00
FF80
FF80
0000
0000
0000
0000
0000
0000
0000
0000
0000
ENDCHAR
STARTCHAR char103
ENCODING 103
SWIDTH 1660 0
DWIDTH 20 0
BBX 16 35 0 -9
BITMAP
0000
0000
0000
0000
0000
0000
0000
0000
0000
070E
1FFF
3FFF
70F7
E070
E078
E078
E078
F070
F8F0
7FE0
3F80
6000
E000
F000
FFE0
FFF0
7FF8
3FFC
003C
C03C
C03C
E038
F070
7FE0
3F80
ENDCHAR
STARTCHAR char104
ENCODING 104
SWIDTH 1660 0
DWIDTH 20 0
BBX 16 35 0 -9
BITMAP
0000
0000
3C00
FC00
FC00
7C00
7C00
7C00
7C00
7C00
7C30
7C78
7DFC
7F3E
7E3E
7C3E
7C3E
7C3E
7C3E
7C3E
7C3E
7C3E
7C3E
7C3E
FC3F
FC3F
0000
0000
0000
0000
0000
0000
0000
0000
0000
ENDCHAR
STARTCHAR char105
ENCODING 105
SWIDTH 996 0
DWIDTH 12 0
BBX 9 35 0 -9
BITMAP
0000
0000
0C00
1C00
3E00
3E00
0C00
0000
0000
0600
FE00
FE00
3E00
3E00
3E00
3E00
3E00
3E00
3E00
3E00
3E00
3E00
3E00
3E00
FF80
FF80
0000
0000
0000
0000
0000
0000
0000
0000
0000
ENDCHAR
STARTCHAR char106
ENCODING 106
SWIDTH 1162 0
DWIDTH 14 0
BBX 12 35 0 -9
BITMAP
0000
0000
0180
03C0
03C0
03C0
0180
0000
0000
0060
07F0
07F0
01F0
01F0
01F0
01F0
01F0
01F0
01F0
01F0
01F0
01F0
01F0
01F0
01F0
01F0
01F0
01F0
01F0
01F0
E1F0
E1F0
F3E0
FFC0
7F00
ENDCHAR
STARTCHAR char107
ENCODING 107
SWIDTH 1660 0
DWIDTH 20 0
BBX 16 35 0 -9
BITMAP
0000
0000
0E00
3E00
3E00
3E00
3E00
3E00
3E00
3E00
3E00
3E00
3E1E
3E1C
3E38
3E70
3EE0
3FC0
3FC0
3FE0
3EF0
3E78
3E3C
7E1E
FF1F
FF1F
0000
0000
0000
0000
0000
0000
0000
0000
0000
ENDCHAR
STARTCHAR char108
ENCODING 108
SWIDTH 913 0
DWIDTH 11 0
BBX 8 35 0 -9
BITMAP
00
00
0E
FE
FE
3E
3E
3E
3E
3E
3E
3E
3E
3E
3E
3E
3E
3E
3E
3E
3E
3E
3E
7E
FF
FF
00
00
00
00
00
00
00
00
00
ENDCHAR
STARTCHAR char109
ENCODING 109
SWIDTH 2656 0
DWIDTH 32 0
BBX 26 35 0 -9
BITMAP
00000000
00000000
00000000
00000000
00000000
00000000
00000000
00000000
00000000
7C7C1E00
FC7E7F00
FEFFFF80
3F0F87C0
3E0F07C0
3E0F07C0
3E0F07C0
3E0F07C0
3E0F07C0
3E0F07C0
3E0F07C0
3E0F07C0
3E0F07C0
3E0F07C0
3E0F07C0
3F1F8FC0
3F1F8FC0
00000000
00000000
00000000
00000000
00000000
00000000
00000000
00000000
00000000
ENDCHAR
STARTCHAR char110
ENCODING 110
SWIDTH 1743 0
DWIDTH 21 0
BBX 17 35 0 -9
BITMAP
000000
000000
000000
000000
000000
000000
000000
000000
000000
0E7C00
3E7E00
3EFF00
3F0F00
3E0F00
3E0F00
3E0F00
3E0F00
3E0F00
3E0F00
3E0F00
3E0F00
3E0F00
3E0F00
3E0F00
FF1F80
FF1F80
000000
000000
000000
000000
000000
000000
000000
000000
000000
ENDCHAR
STARTCHAR char111
ENCODING 111
SWIDTH 1494 0
DWIDTH 18 0
BBX 15 35 0 -9
BITMAP
0000
0000
0000
0000
0000
0000
0000
0000
0000
0FE0
1FF0
3FF8
7C7C
F83E
F83E
F83E
F83E
F83E
F83E
F83E
F83E
783C
7C7C
1FF0
07C0
0380
0000
0000
0000
0000
0000
0000
0000
0000
0000
ENDCHAR
STARTCHAR char112
ENCODING 112
SWIDTH 1743 0
DWIDTH 21 0
BBX 17 35 0 -9
BITMAP
000000
000000
000000
000000
000000
000000
000000
000000
000000
04F800
FDF800
FFFC00
7F1C00
7E0F00
7C0F00
7C0F00
7C0780
7C0780
7C0780
7C0700
7C0F00
7C0F00
7E1E00
7FFC00
7FF800
7DF000
7C0000
7C0000
7C0000
7C0000
3C0000
3C0000
7E0000
FF0000
000000
ENDCHAR
STARTCHAR char113
ENCODING 113
SWIDTH 1660 0
DWIDTH 20 0
BBX 16 35 0 -9
BITMAP
0000
0000
0000
0000
0000
0000
0000
0000
0000
078C
1FCC
3FFC
7CFC
787C
F83C
F83C
F83C
F83C
F83C
F83C
F83C
F83C
787C
7CFC
1FFC
0FBC
003C
003C
003C
003C
003C
003E
007F
00FF
0000
ENDCHAR
STARTCHAR char114
ENCODING 114
SWIDTH 1162 0
DWIDTH 14 0
BBX 12 35 0 -9
BITMAP
0000
0000
0000
0000
0000
0000
0000
0000
0000
0CC0
FDE0
FFF0
7FF0
7E60
7C00
7C00
7C00
7C00
7C00
7C00
7C00
7C00
7C00
7C00
FC00
FC00
0000
0000
0000
0000
0000
0000
0000
0000
0000
ENDCHAR
STARTCHAR char115
ENCODING 115
SWIDTH 1162 0
DWIDTH 14 0
BBX 12 35 0 -9
BITMAP
0000
0000
0000
0000
0000
0000
0000
0000
0000
0F40
1FC0
3FC0
7840
7800
7C00
7F00
3FC0
1FC0
0FE0
03F0
80F0
C0F0
E1E0
BF80
9F80
8F00
0000
0000
0000
0000
0000
0000
0000
0000
0000
ENDCHAR
STARTCHAR char116
ENCODING 116
SWIDTH 1079 0
DWIDTH 13 0
BBX 10 35 0 -9
BITMAP
0000
0000
0000
0000
0000
0400
0C00
1C00
3C00
FF80
FF80
FF80
3C00
3C00
3C00
3C00
3C00
3C00
3C00
3C00
3C00
3C00
3C00
3EC0
1FC0
0F80
0000
0000
0000
0000
0000
0000
0000
0000
0000
ENDCHAR
STARTCHAR char117
ENCODING 117
SWIDTH 1660 0
DWIDTH 20 0
BBX 16 35 0 -9
BITMAP
0000
0000
0000
0000
0000
0000
0000
0000
0000
FC7E
7C3E
7C3E
7C3E
7C3E
7C3E
7C3E
7C3E
7C3E
7C3E
7C3E
7C3E
7C7E
7CFE
3FBF
1FBF
0F1E
0000
0000
0000
0000
0000
0000
0000
0000
0000
ENDCHAR
STARTCHAR char118
ENCODING 118
SWIDTH 1494 0
DWIDTH 18 0
BBX 16 35 0 -9
BITMAP
0000
0000
0000
0000
0000
0000
0000
0000
0000
FF1F
7C3F
7C1E
7C0C
3E1C
3E38
1E38
1F70
1F70
1FE0
0FC0
07C0
0780
0780
0300
0300
0300
0000
0000
0000
0000
0000
0000
0000
0000
0000
ENDCHAR
STARTCHAR char119
ENCODING 119
SWIDTH 2158 0
DWIDTH 26 0
BBX 22 35 0 -9
BITMAP
000000
000000
000000
000000
000000
000000
000000
000000
000000
FF083C
7C1838
7C3818
7C3C18
7C3C38
3C7C70
3E7E70
3E7E70
1E7E60
1ECFE0
1F8FE0
0F8FC0
078780
078780
070700
070700
030300
000000
000000
000000
000000
000000
000000
000000
000000
000000
ENDCHAR
STARTCHAR char120
ENCODING 120
SWIDTH 1826 0
DWIDTH 22 0
BBX 17 35 0 -9
BITMAP
000000
000000
000000
000000
000000
000000
000000
000000
000000
FF0F80
7E0F80
3E0700
3F0600
0F9C00
07F800
03F800
03F000
03F000
03F800
03FC00
0E7C00
1C3E00
383E00
783F00
F83F80
F83F80
000000
000000
000000
000000
000000
000000
000000
000000
000000
ENDCHAR
STARTCHAR char121
ENCODING 121
SWIDTH 1660 0
DWIDTH 20 0
BBX 16 35 0 -9
BITMAP
0000
0000
0000
0000
0000
0000
0000
0000
0000
FF1F
7E1F
3E0E
3E0C
3E0C
1E0C
1F18
1F38
0F38
07B0
07F0
03E0
03C0
03C0
0180
0180
0180
0180
0300
0300
0300
8600
CE00
FC00
FC00
7000
ENDCHAR
STARTCHAR char122
ENCODING 122
SWIDTH 1162 0
DWIDTH 14 0
BBX 12 35 0 -9
BITMAP
0000
0000
0000
0000
0000
0000
0000
0000
0000
FFE0
FFF0
FFE0
C3C0
83C0
8780
0780
0F00
1F00
3F00
3E00
7E30
7C30
F870
FFF0
FFF0
FFE0
0000
0000
0000
0000
0000
0000
0000
0000
0000
ENDCHAR
STARTCHAR char123
ENCODING 123
SWIDTH 1079 0
DWIDTH 13 0
BBX 9 35 1 -9
BITMAP
0000
0000
0780
0F80
1F00
3C00
3C00
3C00
3E00
1E00
0E00
0E00
0E00
1C00
3800
7800
F800
7800
3800
1800
0C00
0E00
0E00
0E00
1E00
3E00
3C00
3C00
3C00
1F00
0780
0000
0000
0000
0000
ENDCHAR
STARTCHAR char124
ENCODING 124
SWIDTH 581 0
DWIDTH 7 0
BBX 4 35 1 -9
BITMAP
00
00
E0
F0
F0
F0
F0
F0
F0
F0
F0
F0
F0
F0
F0
F0
F0
F0
F0
F0
F0
F0
F0
F0
F0
F0
F0
F0
F0
F0
F0
00
00
00
00
ENDCHAR
STARTCHAR char125
ENCODING 125
SWIDTH 1079 0
DWIDTH 13 0
BBX 9 35 1 -9
BITMAP
0000
0000
F800
7800
3C00
0E00
0E00
0E00
1E00
3C00
3C00
3C00
1C00
0C00
0600
0700
0780
0780
0700
0600
1C00
3C00
3C00
3C00
3E00
1E00
0E00
0E00
0E00
7C00
F800
0000
0000
0000
0000
ENDCHAR
STARTCHAR char126
ENCODING 126
SWIDTH 1577 0
DWIDTH 19 0
BBX 16 35 0 -9
BITMAP
0000
0000
0000
0000
0000
0000
0000
0000
0000
0000
0000
0000
1E03
3F03
7F87
7FCE
FBFE
F3FC
E1F8
C0F8
0000
0000
0000
0000
0000
0000
0000
0000
0000
0000
0000
0000
0000
0000
0000
ENDCHAR
ENDFONT
