STARTFONT 2.1
FONT -MIT-36VBEE KST-Medium-R-Normal--36-12-200-200-P-20-ISO8859-1
SIZE 12 200 200
FONTBOUNDINGBOX 34 36 -6 -7
STARTPROPERTIES 17
ADD_STYLE_NAME ""
AVERAGE_WIDTH 20
CHARSET_ENCODING "1"
CHARSET_REGISTRY "ISO8859"
DEFAULT_CHAR 0
FAMILY "36VBEE KST"
FONT_ASCENT 29
FONT_DESCENT 7
FOUNDRY "MIT"
PIXEL_SIZE 36
POINT_SIZE 12
RESOLUTION_X 200
RESOLUTION_Y 200
SETWIDTH_NAME "Normal"
SLANT "R"
SPACING "P"
WEIGHT_NAME "Medium"
ENDPROPERTIES
CHARS 79
STARTCHAR char32
ENCODING 32
SWIDTH 747 0
DWIDTH 9 0
BBX 1 36 0 -7
BITMAP
00
00
00
00
00
00
00
00
00
00
00
00
00
00
00
00
00
00
00
00
00
00
00
00
00
00
00
00
00
00
00
00
00
00
00
00
ENDCHAR
STARTCHAR char33
ENCODING 33
SWIDTH 1245 0
DWIDTH 15 0
BBX 11 36 2 -7
BITMAP
0E00
1F00
1F00
3F80
7FC0
FFE0
FFE0
FFE0
FFE0
7FC0
7FC0
7FC0
3F80
3F80
3F80
1F00
1F00
1F00
0E00
0E00
0E00
0000
0000
0E00
1F00
1F00
0E00
0000
0000
0000
0000
0000
0000
0000
0000
0000
ENDCHAR
STARTCHAR char34
ENCODING 34
SWIDTH 1245 0
DWIDTH 15 0
BBX 13 36 0 -7
BITMAP
3060
78F0
F8F8
F8F8
F8F8
78F0
78F0
38E0
18C0
0880
0000
0000
0000
0000
0000
0000
0000
0000
0000
0000
0000
0000
0000
0000
0000
0000
0000
0000
0000
0000
0000
0000
0000
0000
0000
0000
ENDCHAR
STARTCHAR char39
ENCODING 39
SWIDTH 747 0
DWIDTH 9 0
BBX 8 36 0 -7
BITMAP
3C
FE
FF
FF
E7
03
06
1C
38
30
10
00
00
00
00
00
00
00
00
00
00
00
00
00
00
00
00
00
00
00
00
00
00
00
00
00
ENDCHAR
STARTCHAR char40
ENCODING 40
SWIDTH 1577 0
DWIDTH 19 0
BBX 10 36 6 -7
BITMAP
0000
01C0
0380
0F00
1F00
1E00
3E00
3C00
3C00
7800
F800
F800
F800
F800
F800
F800
F800
F800
F800
7800
3C00
3C00
3E00
1E00
1E00
0F00
0380
01C0
0000
0000
0000
0000
0000
0000
0000
0000
ENDCHAR
STARTCHAR char41
ENCODING 41
SWIDTH 1577 0
DWIDTH 19 0
BBX 10 36 6 -7
BITMAP
0000
E000
7000
3C00
3E00
1E00
1F00
0F00
0F00
0780
07C0
07C0
07C0
07C0
07C0
07C0
07C0
07C0
07C0
0780
0F00
0F00
1F00
1E00
1E00
3C00
7000
E000
0000
0000
0000
0000
0000
0000
0000
0000
ENDCHAR
STARTCHAR char44
ENCODING 44
SWIDTH 1162 0
DWIDTH 14 0
BBX 9 36 2 -7
BITMAP
0000
0000
0000
0000
0000
0000
0000
0000
0000
0000
0000
0000
0000
0000
0000
0000
0000
0000
0000
0000
0000
0000
0000
0000
1C00
3E00
7F80
FF00
3E00
1C00
3800
7000
0000
0000
0000
0000
ENDCHAR
STARTCHAR char45
ENCODING 45
SWIDTH 1245 0
DWIDTH 15 0
BBX 14 36 0 -7
BITMAP
0000
0000
0000
0000
0000
0000
0000
0000
0000
0000
0000
0000
003C
7FF8
7FF8
7FF8
7FF8
F000
0000
0000
0000
0000
0000
0000
0000
0000
0000
0000
0000
0000
0000
0000
0000
0000
0000
0000
ENDCHAR
STARTCHAR char46
ENCODING 46
SWIDTH 1162 0
DWIDTH 14 0
BBX 9 36 2 -7
BITMAP
0000
0000
0000
0000
0000
0000
0000
0000
0000
0000
0000
0000
0000
0000
0000
0000
0000
0000
0000
0000
0000
0000
1C00
3E00
7F80
FF00
3E00
1C00
0000
0000
0000
0000
0000
0000
0000
0000
ENDCHAR
STARTCHAR char47
ENCODING 47
SWIDTH 1328 0
DWIDTH 16 0
BBX 13 36 1 -7
BITMAP
0078
0070
00F0
00F0
00E0
01E0
01E0
01C0
03C0
03C0
0380
0780
0780
0700
0F00
0F00
0E00
1E00
1E00
1C00
3C00
3C00
3800
7800
7800
7000
F000
F000
E000
E000
0000
0000
0000
0000
0000
0000
ENDCHAR
STARTCHAR char48
ENCODING 48
SWIDTH 1577 0
DWIDTH 19 0
BBX 18 36 0 -7
BITMAP
000000
000000
07F000
1FFC00
381C00
701C00
703E00
703F00
E01380
E00380
E00380
E001C0
E001C0
E001C0
E001C0
E001C0
E001C0
E001C0
F001C0
F003C0
F803C0
F807C0
FFFFC0
7FFF80
7FFF80
3FFF00
1FFE00
0FF800
000000
000000
000000
000000
000000
000000
000000
000000
ENDCHAR
STARTCHAR char49
ENCODING 49
SWIDTH 1079 0
DWIDTH 13 0
BBX 12 36 0 -7
BITMAP
00C0
01C0
03C0
07C0
0FC0
3FC0
F3C0
E3C0
03C0
03C0
03C0
03C0
03C0
03C0
03C0
03C0
03C0
03C0
03C0
03C0
03C0
03C0
03C0
03C0
07E0
0FF0
1FF0
0FF0
0000
0000
0000
0000
0000
0000
0000
0000
ENDCHAR
STARTCHAR char50
ENCODING 50
SWIDTH 1826 0
DWIDTH 22 0
BBX 19 36 0 -7
BITMAP
07F800
1FFE00
3C3F00
781F80
700F80
700FC0
704FC0
70C7C0
7FC7C0
7FC7C0
7FCF80
3FCF80
3F8F00
001E00
003C00
007800
00F000
01C000
038080
0701C0
0C0180
1C01C0
3C79C0
3FFFE0
7FFFE0
7FFFE0
FFFFE0
7FFFC0
000000
000000
000000
000000
000000
000000
000000
000000
ENDCHAR
STARTCHAR char51
ENCODING 51
SWIDTH 1826 0
DWIDTH 22 0
BBX 19 36 0 -7
BITMAP
1FFC00
3FFF00
780F80
780F80
7E0F80
7E0F80
000F80
003F00
00FC00
03C000
0F0000
0FE000
01FC00
001F00
000F80
0007C0
0007E0
0007E0
0007E0
0007E0
7007E0
F007E0
F8FFE0
FFFFE0
FFFFC0
FFFFC0
7FFF80
3FFE00
000000
000000
000000
000000
000000
000000
000000
000000
ENDCHAR
STARTCHAR char52
ENCODING 52
SWIDTH 1909 0
DWIDTH 23 0
BBX 20 36 0 -7
BITMAP
03FE00
07FF00
07FE00
033C00
033C00
033C00
033C00
033E00
063E00
063E00
0E3E00
0E3E00
1C3E00
1C3E00
3C3E00
383E60
783E70
F87FF0
FFFFF0
FFFFF0
FFFFF0
7FFFE0
003E00
003E00
003F00
00FF80
00FF80
007F80
000000
000000
000000
000000
000000
000000
000000
000000
ENDCHAR
STARTCHAR char53
ENCODING 53
SWIDTH 1743 0
DWIDTH 21 0
BBX 18 36 0 -7
BITMAP
000000
787E00
FFFE00
FFFE00
7FFC00
7FFC00
300000
300000
300000
180000
1FFC00
7FFE00
781F00
700F80
600F80
0007C0
0007C0
0007C0
0007C0
7007C0
F807C0
F00FC0
FFFFC0
FFFFC0
FFFF80
FFFF80
7FFF00
1FF800
000000
000000
000000
000000
000000
000000
000000
000000
ENDCHAR
STARTCHAR char54
ENCODING 54
SWIDTH 1826 0
DWIDTH 22 0
BBX 19 36 0 -7
BITMAP
000000
000000
03FE00
0FFF00
1E7F00
183F00
381E00
300000
700000
600000
61FC00
67FE00
EE0F00
EC0780
F803C0
F803C0
F801C0
F001E0
F001E0
7803E0
7803E0
7C07C0
7F1FC0
3FFFC0
3FFF80
1FFF80
0FFE00
038000
000000
000000
000000
000000
000000
000000
000000
000000
ENDCHAR
STARTCHAR char55
ENCODING 55
SWIDTH 1826 0
DWIDTH 22 0
BBX 19 36 0 -7
BITMAP
000000
000000
000380
FFFFC0
FFFFE0
7FFFC0
7DFB80
3C0700
1E0700
0E0E00
0E0E00
0C0E00
081C00
001C00
003C00
003C00
003C00
007800
007800
007800
00F800
00F800
00F800
00FC00
01FC00
03FE00
03FF00
01FE00
000000
000000
000000
000000
000000
000000
000000
000000
ENDCHAR
STARTCHAR char56
ENCODING 56
SWIDTH 1826 0
DWIDTH 22 0
BBX 19 36 0 -7
BITMAP
000000
000000
07F800
1FFE00
7C1F00
780780
780780
780700
780700
780E00
3C1C00
0FF800
07F800
0E1E00
1C0700
380380
300380
7001C0
7001C0
F001C0
F003E0
F003E0
FFFFE0
7FFFC0
7FFFC0
7FFF80
3FFF00
0FF000
000000
000000
000000
000000
000000
000000
000000
000000
ENDCHAR
STARTCHAR char57
ENCODING 57
SWIDTH 1909 0
DWIDTH 23 0
BBX 20 36 0 -7
BITMAP
000000
000000
07FC00
1FFE00
3E0780
7C0380
7C01C0
7C01C0
FC01E0
FC01E0
7C01E0
7C01E0
7E03F0
3F8FF0
1FFEF0
07F8F0
0000F0
0000F0
0000F0
0001E0
3801E0
3803E0
783FE0
7FFFC0
7FFFC0
3FFF80
1FFF00
0FFC00
000000
000000
000000
000000
000000
000000
000000
000000
ENDCHAR
STARTCHAR char58
ENCODING 58
SWIDTH 1245 0
DWIDTH 15 0
BBX 9 36 2 -7
BITMAP
0000
0000
0000
0000
0000
0000
0000
0000
0000
0000
1C00
3E00
7F80
FF00
3E00
1C00
0000
0000
0000
0000
0000
0000
1C00
3E00
7F80
FF00
3E00
1C00
0000
0000
0000
0000
0000
0000
0000
0000
ENDCHAR
STARTCHAR char59
ENCODING 59
SWIDTH 1245 0
DWIDTH 15 0
BBX 9 36 2 -7
BITMAP
0000
0000
0000
0000
0000
0000
0000
0000
0000
0000
0000
0000
1C00
3E00
7F80
FF00
3E00
1C00
0000
0000
0000
0000
0000
0000
1C00
3E00
7F80
FF00
3E00
1C00
3800
7000
0000
0000
0000
0000
ENDCHAR
STARTCHAR char61
ENCODING 61
SWIDTH 1577 0
DWIDTH 19 0
BBX 16 36 1 -7
BITMAP
0000
0000
0000
0000
0000
0000
0000
0000
0000
0000
0000
0000
0000
FFFF
FFFF
0000
0000
0000
0000
FFFF
FFFF
0000
0000
0000
0000
0000
0000
0000
0000
0000
0000
0000
0000
0000
0000
0000
ENDCHAR
STARTCHAR char63
ENCODING 63
SWIDTH 1743 0
DWIDTH 21 0
BBX 13 36 0 -7
BITMAP
1F00
3FC0
79E0
78F0
F070
F878
F878
7078
0078
0078
0078
0070
01C0
0380
0700
0E00
0E00
0E00
0E00
0E00
0000
0000
0E00
1F00
3FC0
7F80
1F00
0E00
0000
0000
0000
0000
0000
0000
0000
0000
ENDCHAR
STARTCHAR char65
ENCODING 65
SWIDTH 2158 0
DWIDTH 26 0
BBX 23 36 0 -7
BITMAP
7FFFF0
FFFFF8
F1FE78
73BE78
7B1E78
3B1FF0
0E1EE0
060DC0
040700
0C0E00
0C3F00
186780
19C780
1B8780
3E0780
3C07C0
3803C0
7003C0
6003C0
6003C0
E003E0
E003E0
F001E0
F801E0
F801F0
F801F0
F803FC
F807FE
700000
000000
000000
000000
000000
000000
000000
000000
ENDCHAR
STARTCHAR char66
ENCODING 66
SWIDTH 2075 0
DWIDTH 25 0
BBX 22 36 0 -7
BITMAP
7FFFC0
FFFFF0
FFC0F8
E78078
778078
3B8078
0C8070
070070
05C060
0678C0
079F80
0787C0
0781E0
0780F0
0780F8
078078
07807C
07807C
07803C
07803C
07807C
07807C
07807C
07C1FC
07FFFC
0FFFFC
3FFFF8
7FFFF0
3F8FC0
000000
000000
000000
000000
000000
000000
000000
ENDCHAR
STARTCHAR char67
ENCODING 67
SWIDTH 1992 0
DWIDTH 24 0
BBX 21 36 0 -7
BITMAP
007C00
01FF00
0783C0
0E01E0
0CC1E0
1DE1F0
39B1F0
38BFF0
701FF0
701FF0
701FE0
700FC0
F00000
E00000
F00000
F00000
F00000
F00000
F80000
7C0000
7C0000
7E0018
3F8038
3FF3F8
1FFFF0
1FFFF0
07FFE0
03FFC0
007F00
000000
000000
000000
000000
000000
000000
000000
ENDCHAR
STARTCHAR char68
ENCODING 68
SWIDTH 2158 0
DWIDTH 26 0
BBX 23 36 0 -7
BITMAP
7FF800
FFFF00
F7C3C0
73C1E0
33C070
1BC070
0EC038
038038
00C018
03701C
03B81C
03D81C
03DC1C
03F81C
03F01E
03801C
03801E
07801C
07803C
07C03C
07C07C
07807C
0701F8
0FFFF8
1FFFF8
7FFFF0
FFFFE0
7FFFC0
003E00
000000
000000
000000
000000
000000
000000
000000
ENDCHAR
STARTCHAR char69
ENCODING 69
SWIDTH 1909 0
DWIDTH 23 0
BBX 20 36 0 -7
BITMAP
3FFFC0
FFFFE0
FF87E0
FF03E0
3F03C0
1F0700
1F0E00
1F3800
1F7000
1EC000
1F9E00
1DFF00
1FFF00
1DFF00
1EF100
1E0000
1E0000
1E0000
1F0000
1F0000
1F0000
1F0000
1F0030
1FFFF0
3FFFF0
7FFFF0
FFFFF0
FFFFE0
180000
000000
000000
000000
000000
000000
000000
000000
ENDCHAR
STARTCHAR char70
ENCODING 70
SWIDTH 1909 0
DWIDTH 23 0
BBX 20 36 0 -7
BITMAP
03FF80
7FFFF0
FF83F0
7F03E0
1F03C0
1F0780
1F0F00
1F1C00
1F3800
1F6000
1ECE00
0FFF80
0FFF80
0FFF80
0EF800
0F0000
0F0000
0F0000
0F0000
0F0000
0F0000
0F0000
0F0000
0F0000
0F8000
1FC000
7FE000
7FF000
200000
000000
000000
000000
000000
000000
000000
000000
ENDCHAR
STARTCHAR char71
ENCODING 71
SWIDTH 2158 0
DWIDTH 26 0
BBX 23 36 0 -7
BITMAP
000000
007FC0
03FFF0
07FFF0
0F01F0
1E01E0
3C03C0
380F00
381C00
703000
70E000
71C000
71C3FE
71C3FC
70C1F8
7000F8
7800F8
F800F8
7800F8
7C00F8
7C00F8
3E00F8
3FC3F8
1FFFF8
1FFFF8
0FFFFC
07FFFC
01FFF8
000000
000000
000000
000000
000000
000000
000000
000000
ENDCHAR
STARTCHAR char72
ENCODING 72
SWIDTH 2158 0
DWIDTH 26 0
BBX 23 36 0 -7
BITMAP
000000
7FFFF0
FFFFF0
77C070
77C030
39C000
0F0000
03FE00
027FC0
03CFF0
03C3F8
03C0F8
03C07C
03C07C
03C03C
03C03C
03C03E
03C03E
03C03C
03C03C
03C03C
03C03C
03C038
03C038
07E030
0FF030
1FF860
000060
000060
000060
000060
00007C
00007C
000000
000000
000000
ENDCHAR
STARTCHAR char73
ENCODING 73
SWIDTH 1245 0
DWIDTH 15 0
BBX 13 36 0 -7
BITMAP
0000
1F00
FFF0
FFE0
EFC0
6F80
3780
1B80
0E80
0380
0CE0
0F30
0F98
0F88
0F88
0F80
0F80
0F80
0F80
0F80
0F80
0F80
0F80
0F80
0F80
1FC0
3FE0
1800
0000
0000
0000
0000
0000
0000
0000
0000
ENDCHAR
STARTCHAR char74
ENCODING 74
SWIDTH 1660 0
DWIDTH 20 0
BBX 17 36 0 -7
BITMAP
000000
3FFE00
FFFF80
F80780
780F00
3CFE00
1CFC00
3C7C00
1C7C00
007C00
007C00
007C00
007C00
007C00
007C00
007C00
003C00
003C00
003C00
003C00
003C00
003C00
003C00
003C00
183C00
387C00
787E00
7FFF00
FFFF00
7FFE00
7FFC00
1FF800
000000
000000
000000
000000
ENDCHAR
STARTCHAR char75
ENCODING 75
SWIDTH 2241 0
DWIDTH 27 0
BBX 24 36 0 -7
BITMAP
000000
3F0000
FFF0FC
FFE0F8
CFC0F0
6F80E0
7781C0
3B0380
0E0700
070E00
0DF800
0F3F00
0F1F80
0F0F80
0F8FC0
0F07C0
0F07E0
0F03E0
0F03E0
0F03E0
0F01E0
0F01F0
0F01F0
0F81F0
0F81F8
3FC1FC
7FE0FF
3FE07F
000000
000000
000000
000000
000000
000000
000000
000000
ENDCHAR
STARTCHAR char76
ENCODING 76
SWIDTH 1992 0
DWIDTH 24 0
BBX 21 36 0 -7
BITMAP
000000
3FC000
7FC000
3F8000
1F8000
0F8000
0F8000
0F8000
0F8000
0F8000
0F8000
0F8000
0F8000
0F8000
0F8180
0F81C0
0F81C0
0F81C0
0F80C0
0F80C0
0FC060
0FC060
1F01F0
3C1FF0
707FF8
C3FFF8
FFFFF8
7F0000
000000
000000
000000
000000
000000
000000
000000
000000
ENDCHAR
STARTCHAR char77
ENCODING 77
SWIDTH 3154 0
DWIDTH 38 0
BBX 34 36 0 -7
BITMAP
0000000000
0003FFFF80
FFFFFFFFC0
FFFFFFFFC0
F3C7E3F1C0
F387C1F3C0
7B03C0FF80
1F03C0FA00
06E001F800
0EFFFF7800
0E01C07C00
0C03C07C00
1C03C03C00
1C03C03E00
1803C03E00
1803C03E00
1803C03E00
1803C01E00
1803C01E00
3803C01E00
3803E01E00
3803E01E00
3803E01E00
3C03E03E00
3E03E03E00
3F07F0FE00
1FCFF9FE00
1FCE30C400
0000000000
0000000000
0000000000
0000000000
0000000000
0000000000
0000000000
0000000000
ENDCHAR
STARTCHAR char78
ENCODING 78
SWIDTH 2407 0
DWIDTH 29 0
BBX 26 36 0 -7
BITMAP
00000000
3FFFF000
7FFFFC00
FFFFFE00
E780FE00
E7807F00
E7803F00
77801F00
3B801F80
1E801F80
0F801F00
03C01F00
06F01F00
07381F00
079C1E00
078E1E00
078F3C00
078F3800
07803000
07803000
07803000
07803000
07807380
07807FC0
07807FC0
1FE03FC0
3FF03FC0
1FE00C00
00000000
00000000
00000000
00000000
00000000
00000000
00000000
00000000
ENDCHAR
STARTCHAR char79
ENCODING 79
SWIDTH 1909 0
DWIDTH 23 0
BBX 20 36 0 -7
BITMAP
000000
03F800
07FE00
0E0700
180380
3803C0
7003C0
7002E0
6006E0
E00CF0
E03870
E07070
E1C070
E38070
E30070
E60070
E40070
EC00F0
FC00F0
F800F0
FC01F0
7C03E0
7F0FE0
3FFFE0
3FFFC0
1FFF80
0FFF00
07FE00
000000
000000
000000
000000
000000
000000
000000
000000
ENDCHAR
STARTCHAR char80
ENCODING 80
SWIDTH 1992 0
DWIDTH 24 0
BBX 21 36 0 -7
BITMAP
000000
0FF000
FFFF00
FF9F80
7E03C0
1E01E0
1E01F0
1E00F8
1E00F8
1E00F8
1E00F8
1E60F8
1EF0F8
1FF1F8
1FFFF8
1FFFF0
1EFFF0
1E7FE0
1E1F80
1E0000
1E0000
1F0000
1F0000
1F0000
1F0000
3F8000
7FE000
780000
000000
000000
000000
000000
000000
000000
000000
000000
ENDCHAR
STARTCHAR char81
ENCODING 81
SWIDTH 1909 0
DWIDTH 23 0
BBX 20 36 0 -7
BITMAP
000000
006000
07FE00
0F1F00
1C0780
3807C0
7007C0
7007E0
7006E0
E00EF0
E01CF0
E07870
E0E070
E38070
E30070
E60070
E40070
FC0070
FC00F0
FC00F0
FC01F0
7C03F0
7F07E0
3FFFE0
3FFFC0
1FFFC0
0FFF80
07FE00
003000
003E00
007F00
007F00
003900
000000
000000
000000
ENDCHAR
STARTCHAR char82
ENCODING 82
SWIDTH 2490 0
DWIDTH 30 0
BBX 27 36 0 -7
BITMAP
00000000
00000000
7FFFF800
FFFFFC00
77C03C00
77803C00
3B803C00
0E803800
07007000
05E1C000
077F8000
078F8000
07C7E000
07C1F800
07C0F800
07C0FC00
07C07C00
07C07C00
07C07C00
07C03C00
07C03C00
07C03E00
07C03E00
07C03E00
07C03E00
0FE03F00
3FF01FC0
3FF01FE0
00000000
00000000
00000000
00000000
00000000
00000000
00000000
00000000
ENDCHAR
STARTCHAR char83
ENCODING 83
SWIDTH 1909 0
DWIDTH 23 0
BBX 20 36 0 -7
BITMAP
000000
1FFF80
7FFFC0
7807C0
7003C0
780700
7E0600
3F8300
1FE000
07F800
01FE00
007F00
001F80
000FC0
0003E0
1F83E0
3FC1E0
7FE1F0
7FF1F0
7CF1F0
F801F0
F803F0
7C0FF0
7FFFE0
7FFFE0
3FFFC0
1FFF80
07BC00
000000
000000
000000
000000
000000
000000
000000
000000
ENDCHAR
STARTCHAR char84
ENCODING 84
SWIDTH 2241 0
DWIDTH 27 0
BBX 24 36 0 -7
BITMAP
000000
000000
7FFFFE
FFFFFF
F87E1F
783C1E
3C3C1C
1C3C1C
0E3C38
063C30
0E3C38
0C3C38
003C00
003C00
003C00
003C00
003C00
003C00
003C00
003C00
003C00
003C00
003C00
003C00
007E00
00FF00
03FFC0
01FF80
000000
000000
000000
000000
000000
000000
000000
000000
ENDCHAR
STARTCHAR char85
ENCODING 85
SWIDTH 2158 0
DWIDTH 26 0
BBX 23 36 0 -7
BITMAP
000000
0007F8
FFC7FC
FFC3F8
F1C1F0
7981F0
1B01F0
0701F0
0F81F0
0CE1F0
1C71F0
1819F0
380DF0
380DF0
7807F0
7803F0
7803F0
7801F0
7801F0
7801F0
7C01F0
7E01F0
7F83F0
3FFFF0
1FFFF8
0FFFFE
07FFFE
01FE00
000000
000000
000000
000000
000000
000000
000000
000000
ENDCHAR
STARTCHAR char86
ENCODING 86
SWIDTH 2324 0
DWIDTH 28 0
BBX 25 36 0 -7
BITMAP
00000000
3FF81E00
FFF87F00
F0F1FF00
F3C7FF80
2F3C1F00
3EE00F00
3F000F00
1F000F00
1F800F00
0F800E00
07C00E00
07C00C00
07C00C00
03E01C00
03E01800
01F01800
01F03000
00F83000
00F82000
007C6000
007CC000
003F8000
003F8000
001F0000
001F0000
000E0000
000C0000
00000000
00000000
00000000
00000000
00000000
00000000
00000000
00000000
ENDCHAR
STARTCHAR char87
ENCODING 87
SWIDTH 3154 0
DWIDTH 38 0
BBX 34 36 0 -7
BITMAP
0000000000
000003FF00
7FF007FFC0
FFF8030DC0
DF18000D80
FF00000D00
3F00000C00
1F6003EC00
0F7FFF8C00
0F03F80C00
0F01F01C00
0F81F01C00
0F81F81800
0781F81800
0781F81800
0781FC1800
07C37C3000
07C37C3000
03C33E3000
03E63E7000
03FE1FE000
01FC1FE000
01FC1FE000
01F80FC000
00F80FC000
00F0078000
0070078000
0060000000
0000000000
0000000000
0000000000
0000000000
0000000000
0000000000
0000000000
0000000000
ENDCHAR
STARTCHAR char88
ENCODING 88
SWIDTH 2324 0
DWIDTH 28 0
BBX 25 36 0 -7
BITMAP
00001C00
7FF07C00
FFF1FC00
E0E7FC00
E3CC3800
3FB03800
3F407000
1F806000
0FC0C000
07C18000
07E30000
03F60000
01FC0000
00F80000
00FC0000
007E0000
007E0000
01DF0000
039F8000
070F8000
0E07C000
0C03E000
3803F000
7801F800
7C01FE00
FF83FF00
FF87FF80
FF800000
00000000
00000000
00000000
00000000
00000000
00000000
00000000
00000000
ENDCHAR
STARTCHAR char89
ENCODING 89
SWIDTH 2324 0
DWIDTH 28 0
BBX 25 36 0 -7
BITMAP
00000000
03F80F00
FFFC7F80
F0F1FF80
F1CF8F00
2FBC0F00
1FC00F00
0FC00E00
07E00C00
03F01C00
03F01800
01F83000
00FC6000
007EC000
007F8000
003F0000
001F0000
000F0000
000F0000
000F0000
000F0000
000F0000
000F0000
000F8000
000F8000
003FE000
007FF000
007FE000
00000000
00000000
00000000
00000000
00000000
00000000
00000000
00000000
ENDCHAR
STARTCHAR char90
ENCODING 90
SWIDTH 2241 0
DWIDTH 27 0
BBX 24 36 0 -7
BITMAP
000000
0FFFF0
FFFFF8
FC01F8
F801F8
7803F0
3C03E0
0E07E0
0787C0
078F80
079F00
071F00
073E00
067C60
007CE0
00F9E0
01F1E0
03F1E0
03E1E0
07C078
0F801C
0F800E
1F000E
3FFFFF
7FFFFF
7FFFFF
7FFFFF
3FF1F8
000000
000000
000000
000000
000000
000000
000000
000000
ENDCHAR
STARTCHAR char91
ENCODING 91
SWIDTH 1245 0
DWIDTH 15 0
BBX 9 36 0 -7
BITMAP
FF80
FF80
FC00
F800
F800
F800
7800
7800
7800
7800
7800
7800
7800
7800
7800
7800
7800
7800
7800
7800
7800
7800
F800
F800
FC00
FF80
FF80
FF80
0000
0000
0000
0000
0000
0000
0000
0000
ENDCHAR
STARTCHAR char93
ENCODING 93
SWIDTH 1245 0
DWIDTH 15 0
BBX 9 36 0 -7
BITMAP
FF80
FF80
1F80
0F80
0F80
0F80
0F00
0F00
0F00
0F00
0F00
0F00
0F00
0F00
0F00
0F00
0F00
0F00
0F00
0F00
0F00
0F00
0F80
0F80
1F80
FF80
FF80
FF80
0000
0000
0000
0000
0000
0000
0000
0000
ENDCHAR
STARTCHAR char96
ENCODING 96
SWIDTH 747 0
DWIDTH 9 0
BBX 8 36 0 -7
BITMAP
3C
7F
FF
FF
E7
C0
60
38
1C
0C
08
00
00
00
00
00
00
00
00
00
00
00
00
00
00
00
00
00
00
00
00
00
00
00
00
00
ENDCHAR
STARTCHAR char97
ENCODING 97
SWIDTH 1660 0
DWIDTH 20 0
BBX 17 36 0 -7
BITMAP
000000
000000
000000
000000
000000
000000
000000
000000
000000
1FFC00
7FFE00
F83F00
F81F00
7FFF00
7FFF00
01DF00
071F00
1C1F00
381F00
781F00
F81F00
F81F00
F81F00
FFFF00
FFFF00
FFFF80
7FFF80
7FFF80
000000
000000
000000
000000
000000
000000
000000
000000
ENDCHAR
STARTCHAR char98
ENCODING 98
SWIDTH 1743 0
DWIDTH 21 0
BBX 18 36 0 -7
BITMAP
000000
000000
FC0000
FC0000
FC0000
7C0000
7C0000
7C0000
3C0000
3CFC00
3FFE00
3F8F00
3E0780
3C03C0
3C03C0
3C03C0
3C03C0
3C03C0
3C03C0
3C03C0
3C03C0
3E03C0
3E07C0
3FFFC0
3FFF80
3FFF80
1FFF00
1FFE00
000000
000000
000000
000000
000000
000000
000000
000000
ENDCHAR
STARTCHAR char99
ENCODING 99
SWIDTH 1494 0
DWIDTH 18 0
BBX 15 36 0 -7
BITMAP
0000
0000
0000
0000
0000
0000
0000
0000
0000
07F0
1FF8
383C
707C
70FC
E0FC
E038
E000
E000
E000
E000
E000
F000
F806
FFFE
7FFE
7FFE
3FFE
1FFC
0000
0000
0000
0000
0000
0000
0000
0000
ENDCHAR
STARTCHAR char100
ENCODING 100
SWIDTH 1743 0
DWIDTH 21 0
BBX 18 36 0 -7
BITMAP
000000
003E00
007F00
003F00
001F00
001F00
001F00
001F00
071F00
1FFF00
3FFF00
783F00
701F00
F00F00
F00F00
E00F00
E00F00
E00F00
E00F00
F00F00
F00F00
F00F00
F81F00
FFFF00
7FFF80
3FFFC0
3FFFC0
0FFFC0
000000
000000
000000
000000
000000
000000
000000
000000
ENDCHAR
STARTCHAR char101
ENCODING 101
SWIDTH 1660 0
DWIDTH 20 0
BBX 17 36 0 -7
BITMAP
000000
000000
000000
000000
000000
000000
000000
000000
000000
07FE00
1F7F00
380F00
380F00
700F00
701E00
703800
70F000
F1C000
F38000
F70000
760100
7E0180
7E0780
7FFF80
3FFF80
3FFF00
1FFF00
07FC00
000000
000000
000000
000000
000000
000000
000000
000000
ENDCHAR
STARTCHAR char102
ENCODING 102
SWIDTH 996 0
DWIDTH 12 0
BBX 10 36 0 -7
BITMAP
3C00
FFC0
FFC0
FFC0
FFC0
FF00
7000
7C00
FF80
7F80
3F00
3E00
1E00
1E00
1E00
1E00
1E00
1E00
1E00
1E00
1E00
1E00
1E00
1E00
1E00
7F00
7F80
7F80
0000
0000
0000
0000
0000
0000
0000
0000
ENDCHAR
STARTCHAR char103
ENCODING 103
SWIDTH 1660 0
DWIDTH 20 0
BBX 17 36 0 -7
BITMAP
000000
000000
000000
000000
000000
000000
000000
000000
000000
000000
03FF80
0FFF80
1E3F80
3C1F00
781F00
700F00
F00F00
F00F00
F00F00
F00F00
F00F00
F00F00
F01F00
F81F00
FC3F00
FFFF00
7FFF00
7FFF00
3FFF00
0FFF00
000F00
E00F00
F00F00
F83F00
FFFE00
7FF800
ENDCHAR
STARTCHAR char104
ENCODING 104
SWIDTH 1743 0
DWIDTH 21 0
BBX 18 36 0 -7
BITMAP
000000
000000
000000
FE0000
FE0000
7C0000
7C0000
7C0000
7C0000
7C0000
7C7C00
7DFE00
7FFF00
7E1F00
7C0F00
3C0F00
3C0F00
3C0F00
3C0F00
3C0F00
3C0F00
3C0F00
3C0F00
3C0F80
3C0F80
3E0F80
7F1FC0
FF1FC0
000000
000000
000000
000000
000000
000000
000000
000000
ENDCHAR
STARTCHAR char105
ENCODING 105
SWIDTH 747 0
DWIDTH 9 0
BBX 7 36 0 -7
BITMAP
00
00
00
00
00
78
78
00
00
00
38
FC
7C
78
78
78
78
78
78
78
78
78
78
78
78
7C
FE
FE
00
00
00
00
00
00
00
00
ENDCHAR
STARTCHAR char106
ENCODING 106
SWIDTH 996 0
DWIDTH 12 0
BBX 10 36 0 -7
BITMAP
0000
0000
0000
0000
0000
0F00
0F00
0000
0000
0000
0FC0
0F80
0780
0780
0780
0780
0780
0780
0780
0780
0780
0780
0780
0780
0780
0780
0780
07C0
63C0
F1C0
F9C0
E1C0
E380
7F00
0000
0000
ENDCHAR
STARTCHAR char107
ENCODING 107
SWIDTH 1992 0
DWIDTH 24 0
BBX 21 36 0 -7
BITMAP
000000
000000
000000
000000
FF0000
FE0000
3C0000
3C0000
3C0000
3C0000
3C1800
3CFF00
39CF80
3F07C0
3C03C0
3C0780
3CFE00
3CC000
3C3800
3C1E00
3C0F00
3C0780
3C0780
3C07C0
3C07C0
3E07C0
7F07F8
7F03F0
000000
000000
000000
000000
000000
000000
000000
000000
ENDCHAR
STARTCHAR char108
ENCODING 108
SWIDTH 747 0
DWIDTH 9 0
BBX 7 36 0 -7
BITMAP
00
00
00
38
F8
F8
78
78
78
78
78
78
78
78
78
78
78
78
78
78
78
78
78
7C
7C
7C
FE
FE
00
00
00
00
00
00
00
00
ENDCHAR
STARTCHAR char109
ENCODING 109
SWIDTH 2573 0
DWIDTH 31 0
BBX 28 36 0 -7
BITMAP
00000000
00000000
00000000
00000000
00000000
00000000
00000000
00000000
00000000
00000000
FE380F00
FE7E1F80
7DFE3FC0
7FBFF7C0
7C1F83C0
781F03C0
781F03C0
780F03C0
780F03C0
780F03C0
780F03C0
780F03C0
780F03C0
780F03E0
780F03E0
7C0F03E0
FE3F87F0
FE3F83E0
00000000
00000000
00000000
00000000
00000000
00000000
00000000
00000000
ENDCHAR
STARTCHAR char110
ENCODING 110
SWIDTH 1660 0
DWIDTH 20 0
BBX 17 36 0 -7
BITMAP
000000
000000
000000
000000
000000
000000
000000
000000
000000
000000
FE7C00
FEFC00
FDFE00
7FBE00
7E1E00
7C1E00
7C0E00
7C0E00
7C0E00
7C0E00
7C0E00
7C0E00
7C0F00
7C0F00
7C0F00
7C1F00
7E3F80
FE1F00
000000
000000
000000
000000
000000
000000
000000
000000
ENDCHAR
STARTCHAR char111
ENCODING 111
SWIDTH 1660 0
DWIDTH 20 0
BBX 17 36 0 -7
BITMAP
000000
000000
000000
000000
000000
000000
000000
000000
000000
03E000
0FF800
1C1C00
380E00
700F00
700700
700700
E00700
F00780
F00780
F00F80
F80F00
7C1F00
7FFF00
7FFE00
3FFE00
3FFC00
1FF800
078000
000000
000000
000000
000000
000000
000000
000000
000000
ENDCHAR
STARTCHAR char112
ENCODING 112
SWIDTH 1660 0
DWIDTH 20 0
BBX 17 36 0 -7
BITMAP
000000
000000
000000
000000
000000
000000
000000
000000
000000
000000
FE7800
FEFC00
7F9E00
3E0F00
3C0700
3C0380
3C0380
3C0380
3C0380
3C0380
3C0380
3D0780
3F8780
3F9F00
3FFF00
3FFE00
3FFC00
3CF000
3C0000
3C0000
3C0000
7C0000
FE0000
FF0000
000000
000000
ENDCHAR
STARTCHAR char113
ENCODING 113
SWIDTH 1660 0
DWIDTH 20 0
BBX 17 36 0 -7
BITMAP
000000
000000
000000
000000
000000
000000
000000
000000
000000
000000
0F3F80
1FDF00
3FFE00
703E00
701E00
E01E00
E01E00
E01E00
E01E00
E01E00
E01E00
E01E00
F01E00
F87E00
7FFE00
7FFE00
3FFE00
1FEE00
000F00
000F00
000F80
000F80
000F00
000E00
000000
000000
ENDCHAR
STARTCHAR char114
ENCODING 114
SWIDTH 1245 0
DWIDTH 15 0
BBX 13 36 0 -7
BITMAP
0000
0000
0000
0000
0000
0000
0000
0000
0000
0000
0000
FCE0
79F0
7FF8
7C78
7878
7870
7870
7840
7800
7800
7800
7800
7800
7800
7800
FC00
FC00
0000
0000
0000
0000
0000
0000
0000
0000
ENDCHAR
STARTCHAR char115
ENCODING 115
SWIDTH 1660 0
DWIDTH 20 0
BBX 17 36 0 -7
BITMAP
000000
000000
000000
000000
000000
000000
000000
000000
000000
000000
07F800
7FFE00
7C0E00
7C0000
7E0000
3F8000
0FF000
01FC00
007E00
003F00
701F00
780F80
780F80
F81F80
FFFF80
FFFF00
7FFF00
3FFC00
000000
000000
000000
000000
000000
000000
000000
000000
ENDCHAR
STARTCHAR char116
ENCODING 116
SWIDTH 996 0
DWIDTH 12 0
BBX 10 36 0 -7
BITMAP
0000
0000
0000
0000
0C00
1800
7800
F800
7800
7800
F800
FFC0
7F80
7F80
7B80
7980
7800
7800
7800
7800
7800
7800
7800
7800
7800
7C00
FE00
FE00
0000
0000
0000
0000
0000
0000
0000
0000
ENDCHAR
STARTCHAR char117
ENCODING 117
SWIDTH 1660 0
DWIDTH 20 0
BBX 17 36 0 -7
BITMAP
000000
000000
000000
000000
000000
000000
000000
000000
000000
000000
000780
F83F80
F81F00
780F00
780F00
780F00
780F00
780F00
780F00
780F00
7C0F00
7C0F00
3C0F00
3C1F00
3FFF00
3FFF00
3F9F80
1F3E00
000000
000000
000000
000000
000000
000000
000000
000000
ENDCHAR
STARTCHAR char118
ENCODING 118
SWIDTH 1826 0
DWIDTH 22 0
BBX 19 36 0 -7
BITMAP
000000
000000
000000
000000
000000
000000
000000
000000
000000
000000
FF7FE0
7E7BE0
3E31E0
1E20C0
1E00C0
0F01C0
0F0180
0F0180
078100
078100
03C300
03C200
01E200
01FC00
01FC00
00F800
00F000
007000
000000
000000
000000
000000
000000
000000
000000
000000
ENDCHAR
STARTCHAR char119
ENCODING 119
SWIDTH 2241 0
DWIDTH 27 0
BBX 24 36 0 -7
BITMAP
000000
000000
000000
000000
000000
000000
000000
000000
000000
000000
FE3FFE
7E700F
3E6006
3E6206
1E0606
1E0604
1F070C
0F0F0C
0F0F08
078F88
079F98
07DB90
03F3F0
03F3F0
03F1E0
01E1E0
01E1E0
00E080
000000
000000
000000
000000
000000
000000
000000
000000
ENDCHAR
STARTCHAR char120
ENCODING 120
SWIDTH 1660 0
DWIDTH 20 0
BBX 17 36 0 -7
BITMAP
000000
000000
000000
000000
000000
000000
000000
000000
000000
000000
000000
FF9F00
7FCE00
3C0C00
1E1800
1E3000
0F2000
07C000
03C000
03C000
03E000
06F000
0C7800
183800
383C00
781E00
F81F00
FC3F80
000000
000000
000000
000000
000000
000000
000000
000000
ENDCHAR
STARTCHAR char121
ENCODING 121
SWIDTH 1743 0
DWIDTH 21 0
BBX 18 36 0 -7
BITMAP
000000
000000
000000
000000
000000
000000
000000
000000
000000
000000
000000
FF83C0
F9FFC0
7983C0
3C03C0
3C0380
1E0380
1E0300
0F0300
0F0600
070600
078C00
038C00
01F800
01F000
00F000
00F000
00F000
00F000
00F000
03F000
07E000
03E000
01E000
01E000
000000
ENDCHAR
STARTCHAR char122
ENCODING 122
SWIDTH 1660 0
DWIDTH 20 0
BBX 17 36 0 -7
BITMAP
000000
000000
000000
000000
000000
000000
000000
000000
000000
000000
7FFF00
FFFF00
701F00
303E00
307C00
007C00
00F800
01F000
03E000
07C000
0F8300
0F0300
1F0300
3FFF00
7FFF80
FFFF80
FFFF80
FFFF80
000000
000000
000000
000000
000000
000000
000000
000000
ENDCHAR
ENDFONT
