STARTFONT 2.1
FONT -MIT-40VRI KST-Medium-R-Normal--40-14-200-200-P-24-ISO8859-1
SIZE 14 200 200
FONTBOUNDINGBOX 40 40 -4 -7
STARTPROPERTIES 17
ADD_STYLE_NAME ""
AVERAGE_WIDTH 24
CHARSET_ENCODING "1"
CHARSET_REGISTRY "ISO8859"
DEFAULT_CHAR 0
FAMILY "40VRI KST"
FONT_ASCENT 33
FONT_DESCENT 7
FOUNDRY "MIT"
PIXEL_SIZE 40
POINT_SIZE 14
RESOLUTION_X 200
RESOLUTION_Y 200
SETWIDTH_NAME "Normal"
SLANT "R"
SPACING "P"
WEIGHT_NAME "Medium"
ENDPROPERTIES
CHARS 122
STARTCHAR char1
ENCODING 1
SWIDTH 1633 0
DWIDTH 23 0
BBX 20 40 0 -7
BITMAP
00F000
00F000
00F000
00F000
00F000
00F000
00F000
00F000
00F000
00F000
00F000
00F000
00F000
00F000
00F000
00F000
00F000
00F000
00F000
00F000
00F000
00F000
00F000
F0F0F0
78F1E0
3CF3C0
1EF780
0FFF00
07FE00
03FC00
01F800
00F000
006000
000000
000000
000000
000000
000000
000000
000000
ENDCHAR
STARTCHAR char2
ENCODING 2
SWIDTH 2485 0
DWIDTH 35 0
BBX 31 40 0 -7
BITMAP
00000000
00000000
00000000
00000000
00000000
00000000
00000000
00000000
00000000
00000000
00000018
00000038
00000070
000000E0
000000E0
000001C0
000003C0
0FC00780
1FF00F00
3FFC1E00
701F3E00
E007FC00
E003F800
E001F000
E001E000
E003E000
6007E000
701F7000
383E380E
3FF83E1C
1FF01FFC
0FE007F8
00000000
00000000
00000000
00000000
00000000
00000000
00000000
00000000
ENDCHAR
STARTCHAR char3
ENCODING 3
SWIDTH 2201 0
DWIDTH 31 0
BBX 27 40 0 -7
BITMAP
00000000
00000000
00001F00
00003F80
000071C0
0000E1E0
0001C0E0
000380E0
000700E0
000E00E0
001E01C0
003C0380
00380380
00300780
00300700
00700E00
00701C00
00E03C00
01E07E00
01C01E00
03C00E00
03800F00
03800780
070003C0
070001E0
0E0000E0
0E0000E0
1E0000E0
1E1801C0
3C1C0380
3C1FFF80
3C0FFF00
78000000
78000000
70000000
70000000
70000000
F0000000
F0000000
F0000000
ENDCHAR
STARTCHAR char4
ENCODING 4
SWIDTH 1917 0
DWIDTH 27 0
BBX 23 40 0 -7
BITMAP
000000
000000
000000
000000
000000
000000
000000
003800
007C00
007C00
00EE00
00EE00
01C700
01C700
038380
038380
0701C0
0701C0
0E00E0
0E00E0
1C0070
1C0070
380038
380038
70001C
70001C
E0000E
E0000E
C00006
000000
000000
000000
000000
000000
000000
000000
000000
000000
000000
000000
ENDCHAR
STARTCHAR char5
ENCODING 5
SWIDTH 1349 0
DWIDTH 19 0
BBX 15 40 0 -7
BITMAP
0000
0000
0000
0000
0000
0000
0000
0000
0000
0000
0000
0000
0000
0000
0000
0000
FFFE
FFFE
FFFE
000E
000E
000E
000E
000E
000E
0000
0000
0000
0000
0000
0000
0000
0000
0000
0000
0000
0000
0000
0000
0000
ENDCHAR
STARTCHAR char6
ENCODING 6
SWIDTH 1349 0
DWIDTH 19 0
BBX 13 40 0 -7
BITMAP
0000
0000
0000
0000
0000
0000
0000
01F8
07C0
0F00
1E00
3C00
3800
7800
7800
7800
F000
F000
FFF8
FFF8
F000
F000
7000
7800
3800
1C00
1E00
0F00
03C0
01F8
0000
0000
0000
0000
0000
0000
0000
0000
0000
0000
ENDCHAR
STARTCHAR char7
ENCODING 7
SWIDTH 1775 0
DWIDTH 25 0
BBX 21 40 0 -7
BITMAP
000000
000000
000000
000000
000000
000000
000000
000000
000000
000000
000000
000000
FFFF80
FFFFF0
7FFFF8
3C07F8
3C0780
3C0780
3C0780
3C0780
3C0380
3C0380
3C0380
3C0380
3C0380
3C0380
3C0380
3C0380
3C0380
380380
780380
F003C0
0001F8
000000
000000
000000
000000
000000
000000
000000
ENDCHAR
STARTCHAR char8
ENCODING 8
SWIDTH 1633 0
DWIDTH 23 0
BBX 19 40 0 -7
BITMAP
000000
000000
000000
000000
C00000
F00000
F80000
7C0000
1E0000
0F0000
070000
078000
038000
03C000
01C000
01E000
01E000
01E000
03E000
07F000
0E7000
1C3800
1C3800
381C00
781C00
700E00
E00E00
E00700
C00380
8001C0
0000E0
000060
000000
000000
000000
000000
000000
000000
000000
000000
ENDCHAR
STARTCHAR char11
ENCODING 11
SWIDTH 1633 0
DWIDTH 23 0
BBX 20 40 0 -7
BITMAP
006000
00F000
01F800
03FC00
07FE00
0FFF00
1EF780
3CF3C0
78F1E0
F0F0F0
00F000
00F000
00F000
00F000
00F000
00F000
00F000
00F000
00F000
00F000
00F000
00F000
00F000
00F000
00F000
00F000
00F000
00F000
00F000
00F000
00F000
00F000
00F000
000000
000000
000000
000000
000000
000000
000000
ENDCHAR
STARTCHAR char12
ENCODING 12
SWIDTH 2130 0
DWIDTH 30 0
BBX 29 40 0 -7
BITMAP
00000000
00000000
0003E1F0
001FF3F8
001E7FB8
003C7F38
003C7E18
007C7E18
00783E00
00783E00
00783C00
00F87C00
00F07C00
00F07C00
0FFFFF00
0FFFFF00
01F0F000
01E0F000
01E0F000
01E0F000
01E0F000
03E0F000
03C1E000
03C1E000
03C1E000
03C1E000
0381C000
0781C000
0781C000
0783C000
0F03C000
0F038000
CE738000
CE678000
8E678000
9C670000
FC7F0000
F07E0000
00000000
00000000
ENDCHAR
STARTCHAR char14
ENCODING 14
SWIDTH 2556 0
DWIDTH 36 0
BBX 32 40 1 -7
BITMAP
00000000
00000000
00000000
00000000
00000000
00000000
00000000
00000000
00000000
00000000
07E007F0
0FF80FF8
1C3C3C3C
381E781E
700FF00E
7007E00F
F003C00F
F003C00F
F003C00F
F003C00F
F003C00F
F003C00F
F007E00F
700FF00E
781E781E
3C3C3C3C
1FFC3FF8
0FF81FF0
00000000
00000000
00000000
00000000
00000000
00000000
00000000
00000000
00000000
00000000
00000000
00000000
ENDCHAR
STARTCHAR char15
ENCODING 15
SWIDTH 1633 0
DWIDTH 23 0
BBX 19 40 0 -7
BITMAP
0F0000
078000
01C000
00E000
007000
007800
003C00
001C00
000E00
000F00
000700
000380
000380
0001C0
0001C0
0FF1C0
1FFFE0
3FFFE0
7007E0
7003E0
E001E0
E000E0
E000E0
E000E0
E000E0
E000E0
E001E0
6001C0
7001C0
3C0780
1FFF00
0FFE00
000000
000000
000000
000000
000000
000000
000000
000000
ENDCHAR
STARTCHAR char16
ENCODING 16
SWIDTH 1917 0
DWIDTH 27 0
BBX 21 40 0 -7
BITMAP
000000
000000
000000
000000
000000
000000
000000
000000
000000
000000
0FFFF8
1FFFF8
3FFFF8
7C0000
F80000
F00000
E00000
E00000
E00000
E00000
E00000
F00000
F80000
7C0000
3FFFF8
1FFFF8
0FFFF8
000000
000000
000000
000000
000000
000000
000000
000000
000000
000000
000000
000000
000000
ENDCHAR
STARTCHAR char17
ENCODING 17
SWIDTH 1917 0
DWIDTH 27 0
BBX 21 40 0 -7
BITMAP
000000
000000
000000
000000
000000
000000
000000
000000
000000
000000
FFFF80
FFFFC0
FFFFE0
0001F0
0000F8
000078
000038
000038
000038
000038
000038
000078
0000F8
0001F0
FFFFE0
FFFFC0
FFFF80
000000
000000
000000
000000
000000
000000
000000
000000
000000
000000
000000
000000
000000
ENDCHAR
STARTCHAR char18
ENCODING 18
SWIDTH 1633 0
DWIDTH 23 0
BBX 16 40 2 -7
BITMAP
0000
0000
0000
0000
0000
0000
0000
0000
0FF0
1FF8
3FFC
7FFE
F81F
F00F
E007
E007
E007
E007
E007
E007
E007
E007
E007
E007
E007
E007
E007
E007
E007
E007
E007
E007
0000
0000
0000
0000
0000
0000
0000
0000
ENDCHAR
STARTCHAR char19
ENCODING 19
SWIDTH 1633 0
DWIDTH 23 0
BBX 16 40 2 -7
BITMAP
0000
0000
0000
0000
0000
0000
0000
0000
E007
E007
E007
E007
E007
E007
E007
E007
E007
E007
E007
E007
E007
E007
E007
E007
E007
E007
F00F
F81F
7FFF
3FFE
1FFC
0FF8
0000
0000
0000
0000
0000
0000
0000
0000
ENDCHAR
STARTCHAR char20
ENCODING 20
SWIDTH 1775 0
DWIDTH 25 0
BBX 21 40 0 -7
BITMAP
E00038
E00038
E00038
F00078
700070
700070
7800F0
7800F0
3800E0
3C01E0
3C01E0
1FFFC0
1FFFC0
1FFFC0
0E0380
0F0780
0F0780
070700
078F00
078F00
038E00
038E00
03FE00
01FC00
01FC00
01FC00
00F800
00F800
00F800
007000
007000
007000
000000
000000
000000
000000
000000
000000
000000
000000
ENDCHAR
STARTCHAR char21
ENCODING 21
SWIDTH 1633 0
DWIDTH 23 0
BBX 19 40 0 -7
BITMAP
FFFFE0
FFFFE0
FFFFE0
0000E0
0000E0
0000E0
0000E0
0000E0
0000E0
0000E0
0000E0
0000E0
0000E0
0000E0
00FFE0
00FFE0
00FFE0
0000E0
0000E0
0000E0
0000E0
0000E0
0000E0
0000E0
0000E0
0000E0
0000E0
0000E0
0000E0
FFFFE0
FFFFE0
FFFFE0
000000
000000
000000
000000
000000
000000
000000
000000
ENDCHAR
STARTCHAR char22
ENCODING 22
SWIDTH 1775 0
DWIDTH 25 0
BBX 21 40 0 -7
BITMAP
000000
000000
000000
000000
000000
000000
000000
000000
01FC00
07FF00
0FFF80
1C01C0
3E03E0
7F07F0
678F30
E3FE38
E1FC38
E0F838
E0F838
E1FC38
E3FE38
678F30
7F07F0
3E03E0
1C01C0
0FFF80
07FF00
01FC00
000000
000000
000000
000000
000000
000000
000000
000000
000000
000000
000000
000000
ENDCHAR
STARTCHAR char23
ENCODING 23
SWIDTH 1917 0
DWIDTH 27 0
BBX 25 40 0 -7
BITMAP
00000000
00000000
00000000
00000000
00000000
00000000
00000000
00000000
00000000
00000000
01004000
03006000
07007000
0E003800
1C001C00
38000E00
70000700
FFFFFF80
FFFFFF80
FFFFFF80
70000700
38000E00
1C001C00
0E003800
07007000
03006000
01004000
00000000
00000000
00000000
00000000
00000000
00000000
00000000
00000000
00000000
00000000
00000000
00000000
00000000
ENDCHAR
STARTCHAR char24
ENCODING 24
SWIDTH 1988 0
DWIDTH 28 0
BBX 24 40 0 -7
BITMAP
000000
000000
000000
000000
000000
000000
000000
000000
000000
000000
010000
030000
070000
0E0000
1C0000
380000
700000
FFFFFF
FFFFFF
FFFFFF
700000
380000
1C0000
0E0000
070000
030000
010000
000000
000000
000000
000000
000000
000000
000000
000000
000000
000000
000000
000000
000000
ENDCHAR
STARTCHAR char25
ENCODING 25
SWIDTH 1988 0
DWIDTH 28 0
BBX 24 40 0 -7
BITMAP
000000
000000
000000
000000
000000
000000
000000
000000
000000
000000
000080
0000C0
0000E0
000070
000038
00001C
00000E
FFFFFF
FFFFFF
FFFFFF
00000E
00001C
000038
000070
0000E0
0000C0
000080
000000
000000
000000
000000
000000
000000
000000
000000
000000
000000
000000
000000
000000
ENDCHAR
STARTCHAR char26
ENCODING 26
SWIDTH 1775 0
DWIDTH 25 0
BBX 19 40 1 -7
BITMAP
000000
000000
000000
000000
0000E0
0000E0
0001C0
0001C0
000380
000380
000700
000700
000E00
001E00
001C00
FFFFE0
FFFFE0
7FFFC0
00F000
00E000
01C000
FFFFE0
FFFFE0
FFFFE0
070000
0F0000
0E0000
1C0000
1C0000
380000
380000
700000
700000
E00000
E00000
000000
000000
000000
000000
000000
ENDCHAR
STARTCHAR char27
ENCODING 27
SWIDTH 1775 0
DWIDTH 25 0
BBX 21 40 0 -7
BITMAP
000000
000000
000000
000000
000000
000000
000000
000000
000000
000000
000000
000000
000000
0F8008
1FC008
3FE008
7FF018
7FF838
71FC70
E0FFF0
C07FF0
803FE0
801FC0
800F80
000000
000000
000000
000000
000000
000000
000000
000000
000000
000000
000000
000000
000000
000000
000000
000000
ENDCHAR
STARTCHAR char28
ENCODING 28
SWIDTH 1562 0
DWIDTH 22 0
BBX 18 40 0 -7
BITMAP
000000
000000
000000
000000
000000
000000
000000
0001C0
0007C0
001FC0
003F00
00FC00
03F000
1FC000
7F0000
FC0000
FC0000
FC0000
3F0000
0FE000
03F800
00FE00
003F80
000FC0
0003C0
000000
000000
000000
000000
FFFFC0
FFFFC0
FFFFC0
000000
000000
000000
000000
000000
000000
000000
000000
ENDCHAR
STARTCHAR char29
ENCODING 29
SWIDTH 1562 0
DWIDTH 22 0
BBX 18 40 0 -7
BITMAP
000000
000000
000000
000000
000000
000000
000000
E00000
F80000
FE0000
3F0000
0FC000
03F800
00FE00
003F80
000FC0
000FC0
000FC0
003F00
01FC00
07F000
1FC000
3F0000
FC0000
F00000
000000
000000
000000
000000
FFFFC0
FFFFC0
FFFFC0
000000
000000
000000
000000
000000
000000
000000
000000
ENDCHAR
STARTCHAR char30
ENCODING 30
SWIDTH 1349 0
DWIDTH 19 0
BBX 15 40 0 -7
BITMAP
0000
0000
0000
0000
0000
0000
0000
0000
0000
0000
0000
FFFE
FFFE
FFFE
0000
0000
0000
0000
FFFE
FFFE
FFFE
0000
0000
0000
0000
FFFE
FFFE
FFFE
0000
0000
0000
0000
0000
0000
0000
0000
0000
0000
0000
0000
ENDCHAR
STARTCHAR char31
ENCODING 31
SWIDTH 1917 0
DWIDTH 27 0
BBX 23 40 0 -7
BITMAP
000000
000000
000000
000000
000000
000000
000000
000000
000000
000000
C00006
E0000E
E0000E
F0001C
70001C
380038
380038
1C0070
1C0070
0E00F0
0E00E0
0701E0
0701C0
0783C0
038380
03C780
01C700
01EE00
00EE00
007C00
003800
001000
000000
000000
000000
000000
000000
000000
000000
000000
ENDCHAR
STARTCHAR char32
ENCODING 32
SWIDTH 1136 0
DWIDTH 16 0
BBX 1 40 0 -7
BITMAP
00
00
00
00
00
00
00
00
00
00
00
00
00
00
00
00
00
00
00
00
00
00
00
00
00
00
00
00
00
00
00
00
00
00
00
00
00
00
00
00
ENDCHAR
STARTCHAR char33
ENCODING 33
SWIDTH 1065 0
DWIDTH 15 0
BBX 11 40 0 -7
BITMAP
0000
0000
01C0
03E0
03E0
03E0
03E0
07E0
07C0
07C0
0780
0780
0F80
0F00
0F00
0F00
0E00
0E00
0E00
1C00
1C00
1C00
1800
1800
0000
0000
0000
0000
7800
F800
F800
F000
0000
0000
0000
0000
0000
0000
0000
0000
ENDCHAR
STARTCHAR char34
ENCODING 34
SWIDTH 1207 0
DWIDTH 17 0
BBX 11 40 2 -7
BITMAP
E0E0
E0E0
E0E0
E0E0
E0E0
E0E0
E0E0
E0E0
E0E0
E0E0
4040
0000
0000
0000
0000
0000
0000
0000
0000
0000
0000
0000
0000
0000
0000
0000
0000
0000
0000
0000
0000
0000
0000
0000
0000
0000
0000
0000
0000
0000
ENDCHAR
STARTCHAR char35
ENCODING 35
SWIDTH 1562 0
DWIDTH 22 0
BBX 21 40 0 -7
BITMAP
000000
000000
000000
000000
000000
000000
000000
000000
000000
000000
000000
000000
0071C0
00F3C0
01F3C0
01E780
0FFFF0
3FFFF8
7FFFF0
1FFFC0
078F00
078E00
070E00
0F1C00
3FFF00
7FFFC0
FFFF80
7FFE00
3CF000
7CF000
78F000
70E000
000000
000000
000000
000000
000000
000000
000000
000000
ENDCHAR
STARTCHAR char36
ENCODING 36
SWIDTH 1633 0
DWIDTH 23 0
BBX 19 40 0 -7
BITMAP
000000
000000
003600
003600
01FF00
03FF80
07FFC0
0F67E0
1E6660
1C6660
1C6660
1CCC60
1CCC00
1EEC00
1FEC00
1FFC00
0FFC00
07FC00
03FE00
01FE00
01FF00
01BF00
01BF80
033380
C331C0
C331C0
C331C0
C663C0
E66780
F67F80
7FFF00
7FFC00
3FF000
1FC000
0D8000
098000
000000
000000
000000
000000
ENDCHAR
STARTCHAR char37
ENCODING 37
SWIDTH 1704 0
DWIDTH 24 0
BBX 21 40 0 -7
BITMAP
000000
000000
003FF0
007FF0
00E0E0
3FC0E0
7F81C0
C301C0
C30380
C30380
C30700
7E0700
3C0E00
000E00
001C00
001C00
003800
003800
007000
007000
00E000
00E000
01C000
01C000
038000
0381E0
0703F0
070618
0E0618
1E0618
1C03F0
1C01E0
000000
000000
000000
000000
000000
000000
000000
000000
ENDCHAR
STARTCHAR char38
ENCODING 38
SWIDTH 2485 0
DWIDTH 35 0
BBX 31 40 0 -7
BITMAP
00000000
00000000
000FF800
001FFE00
003E3E00
003C3E00
007C3E00
007C3E00
007C3E00
007C3E00
007C7C00
007CF800
007FE000
007F8070
007F00F8
007F01F8
03FF03F8
07FF03F8
0FBF8778
1F1F8600
3E1FC600
7C1FEC00
7C0FFC00
7C0FFC00
FC07F800
FE07F800
FE07F802
7F07FC1E
7F07FE3E
7F8FFF7C
3FFFFFFC
1FFE3FF0
0FF80F80
00000000
00000000
00000000
00000000
00000000
00000000
00000000
ENDCHAR
STARTCHAR char39
ENCODING 39
SWIDTH 781 0
DWIDTH 11 0
BBX 7 40 0 -7
BITMAP
00
00
00
00
70
F8
FC
FE
FE
FE
0E
0E
1C
F8
F0
E0
00
00
00
00
00
00
00
00
00
00
00
00
00
00
00
00
00
00
00
00
00
00
00
00
ENDCHAR
STARTCHAR char40
ENCODING 40
SWIDTH 1065 0
DWIDTH 15 0
BBX 11 40 2 -7
BITMAP
0000
0020
0060
00E0
01C0
0380
0700
0E00
0C00
1800
1800
3800
3000
7000
E000
E000
E000
E000
E000
E000
E000
E000
E000
E000
E000
E000
E000
6000
6000
6000
3000
3800
1800
1800
0800
0000
0000
0000
0000
0000
ENDCHAR
STARTCHAR char41
ENCODING 41
SWIDTH 1065 0
DWIDTH 15 0
BBX 11 40 2 -7
BITMAP
0200
0300
0300
0380
0180
00C0
00C0
00C0
00E0
00E0
00E0
00E0
00E0
00E0
00E0
00E0
00E0
00E0
00E0
00E0
00E0
00C0
0180
0380
0300
0300
0700
0E00
1C00
3800
7000
E000
C000
8000
0000
0000
0000
0000
0000
0000
ENDCHAR
STARTCHAR char42
ENCODING 42
SWIDTH 1917 0
DWIDTH 27 0
BBX 23 40 0 -7
BITMAP
000000
000000
000000
000000
000000
000000
000000
003800
003800
003800
F0381E
F8383E
F8383E
3C3878
0638C0
033980
01FF00
00FE00
007C00
00FE00
01FF00
033980
0638C0
3C3878
F8383E
F8383E
F0381E
003800
003800
003800
000000
000000
000000
000000
000000
000000
000000
000000
000000
000000
ENDCHAR
STARTCHAR char43
ENCODING 43
SWIDTH 1420 0
DWIDTH 20 0
BBX 15 40 1 -7
BITMAP
0000
0000
0000
0000
0000
0000
0000
0000
0000
0000
0000
0000
0380
0380
0380
0380
0380
0380
FFFE
FFFE
FFFE
0380
0380
0380
0380
0380
0380
0000
0000
0000
0000
0000
0000
0000
0000
0000
0000
0000
0000
0000
ENDCHAR
STARTCHAR char44
ENCODING 44
SWIDTH 852 0
DWIDTH 12 0
BBX 7 40 0 -7
BITMAP
00
00
00
00
00
00
00
00
00
00
00
00
00
00
00
00
00
00
00
00
00
00
00
00
00
00
30
78
FC
FC
FE
7E
0E
1E
3C
78
E0
C0
00
00
ENDCHAR
STARTCHAR char45
ENCODING 45
SWIDTH 1349 0
DWIDTH 19 0
BBX 15 40 0 -7
BITMAP
0000
0000
0000
0000
0000
0000
0000
0000
0000
0000
0000
0000
0000
0000
0000
0000
0000
0000
FFFE
FFFE
FFFE
0000
0000
0000
0000
0000
0000
0000
0000
0000
0000
0000
0000
0000
0000
0000
0000
0000
0000
0000
ENDCHAR
STARTCHAR char46
ENCODING 46
SWIDTH 639 0
DWIDTH 9 0
BBX 5 40 0 -7
BITMAP
00
00
00
00
00
00
00
00
00
00
00
00
00
00
00
00
00
00
00
00
00
00
00
00
00
00
70
F8
F8
F8
F8
70
00
00
00
00
00
00
00
00
ENDCHAR
STARTCHAR char47
ENCODING 47
SWIDTH 2201 0
DWIDTH 31 0
BBX 29 40 0 -7
BITMAP
00000000
00000000
00000000
00000000
00000008
00000018
00000038
00000070
000000E0
000001C0
00000380
00000700
00000E00
00001C00
00003800
00007000
0000E000
0001C000
00038000
00070000
000E0000
001C0000
00380000
00700000
00E00000
01C00000
03800000
07000000
0E000000
1C000000
38000000
70000000
E0000000
00000000
00000000
00000000
00000000
00000000
00000000
00000000
ENDCHAR
STARTCHAR char48
ENCODING 48
SWIDTH 1562 0
DWIDTH 22 0
BBX 16 40 0 -7
BITMAP
0000
0000
0000
0000
01FC
03FE
070E
0F0E
1E0F
3E0F
7C0F
7C0F
7C0F
7C0F
F80F
F80F
F80F
F00F
F00F
F01F
F01F
F01F
F03F
F03F
F03E
F03E
F07C
F07C
F0F8
F0F0
7FF0
3FE0
0000
0000
0000
0000
0000
0000
0000
0000
ENDCHAR
STARTCHAR char49
ENCODING 49
SWIDTH 1562 0
DWIDTH 22 0
BBX 11 40 4 -7
BITMAP
0000
0000
0000
0000
0FE0
07E0
03E0
01E0
01E0
01E0
01E0
03E0
03E0
03E0
03E0
03E0
07C0
07C0
07C0
07C0
0FC0
0F80
0F80
0F80
0F80
0F80
0F80
0F80
0F80
1F80
3FC0
FFE0
0000
0000
0000
0000
0000
0000
0000
0000
ENDCHAR
STARTCHAR char50
ENCODING 50
SWIDTH 1562 0
DWIDTH 22 0
BBX 18 40 0 -7
BITMAP
000000
000000
000000
000000
01FE00
03FF00
078780
0707C0
0607C0
0407C0
0787C0
0787C0
0787C0
0787C0
0007C0
000F80
001F00
001E00
003C00
003800
007000
00E000
01C000
038000
070000
0E0380
1C0300
7FFF00
FFFF00
FFFF00
FFFE00
FFFE00
000000
000000
000000
000000
000000
000000
000000
000000
ENDCHAR
STARTCHAR char51
ENCODING 51
SWIDTH 1562 0
DWIDTH 22 0
BBX 18 40 0 -7
BITMAP
000000
000000
000000
000000
03FE00
07FF00
078780
0787C0
0787C0
0787C0
0307C0
000FC0
000F80
001F80
003F00
027F00
07FF00
07FF00
003F80
001F80
000F80
000F80
000F80
000F80
001F80
F01F80
F01F80
F03F00
F03E00
E07C00
FFFC00
7FF800
000000
000000
000000
000000
000000
000000
000000
000000
ENDCHAR
STARTCHAR char52
ENCODING 52
SWIDTH 1562 0
DWIDTH 22 0
BBX 18 40 0 -7
BITMAP
000000
000000
000000
000000
000380
000780
000F80
001F80
001F80
003F80
007F80
003F00
01BF00
03BF00
033F00
033E00
063E00
0E3E00
1C7E00
187E00
387C40
787C40
7FFFC0
FFFFC0
07FFC0
007DC0
007CC0
00FC00
00FC00
01FC00
01FC00
07FE00
000000
000000
000000
000000
000000
000000
000000
000000
ENDCHAR
STARTCHAR char53
ENCODING 53
SWIDTH 1562 0
DWIDTH 22 0
BBX 18 40 0 -7
BITMAP
000000
000000
000040
003FC0
03FFC0
03FF80
07FF80
07FF80
0F8000
0E0000
0C0000
0C0000
0C0000
0C0000
0E0000
1F0000
1FF000
0FFC00
003E00
001F00
000F80
000F80
000F80
600F80
F00F80
F00F80
F01F80
F01F00
703E00
787C00
3FFC00
1FF800
000000
000000
000000
000000
000000
000000
000000
000000
ENDCHAR
STARTCHAR char54
ENCODING 54
SWIDTH 1562 0
DWIDTH 22 0
BBX 16 40 0 -7
BITMAP
0000
0000
000F
003F
007E
00F8
01E0
0380
0780
1F00
1F00
3E00
7E00
7CF8
FFF8
FFBC
FC1F
F80F
F00F
F00F
F00F
F00F
F00F
F00F
E01F
E01F
E03F
E03E
F03E
707C
3FFC
1FF0
0000
0000
0000
0000
0000
0000
0000
0000
ENDCHAR
STARTCHAR char55
ENCODING 55
SWIDTH 1562 0
DWIDTH 22 0
BBX 16 40 0 -7
BITMAP
0000
0000
0000
0000
1FFF
3FFF
3FFF
7FFF
7FFF
E00E
C00C
001C
0018
0038
0030
0070
0070
00F0
00E0
01C0
01C0
0380
0780
0F80
1F00
1F00
1E00
1E00
1E00
1E00
1E00
1E00
0000
0000
0000
0000
0000
0000
0000
0000
ENDCHAR
STARTCHAR char56
ENCODING 56
SWIDTH 1562 0
DWIDTH 22 0
BBX 18 40 0 -7
BITMAP
000000
000000
000000
000000
01FF80
03FFC0
07C7C0
0787C0
0F87C0
0F87C0
1F87C0
1F07C0
1F07C0
1F07C0
0F07C0
078F80
07FF80
07FF00
0FFF00
0FFF00
1E0F80
3C0F80
7C0F80
7C0F80
FC0F80
FC0F80
FC0F80
F81F80
783F80
787F00
3FFF00
1FFE00
000000
000000
000000
000000
000000
000000
000000
000000
ENDCHAR
STARTCHAR char57
ENCODING 57
SWIDTH 1562 0
DWIDTH 22 0
BBX 18 40 0 -7
BITMAP
000000
000000
000000
000000
01FF00
078780
0F03C0
1F03C0
3F01C0
3E01C0
7E01C0
7C03C0
7C03C0
7C03C0
7C03C0
7C03C0
7C03C0
7C07C0
7C0FC0
3E1FC0
1FFF80
0FFF80
01FF80
003F80
003F00
003E00
007C00
00F000
01C000
078000
3F0000
7E0000
F80000
000000
000000
000000
000000
000000
000000
000000
ENDCHAR
STARTCHAR char58
ENCODING 58
SWIDTH 781 0
DWIDTH 11 0
BBX 7 40 0 -7
BITMAP
00
00
00
00
00
00
00
00
00
00
00
00
00
00
1C
3E
3E
3E
3E
18
00
00
00
00
00
00
70
F8
F8
F8
F8
60
00
00
00
00
00
00
00
00
ENDCHAR
STARTCHAR char59
ENCODING 59
SWIDTH 852 0
DWIDTH 12 0
BBX 8 40 0 -7
BITMAP
00
00
00
00
00
00
00
00
00
00
00
00
00
06
1F
1F
1F
1F
0C
00
00
00
00
00
00
00
30
78
FC
FC
FE
7E
0E
1E
3C
78
E0
C0
00
00
ENDCHAR
STARTCHAR char60
ENCODING 60
SWIDTH 1562 0
DWIDTH 22 0
BBX 18 40 0 -7
BITMAP
000000
000000
000000
000000
000000
000000
000000
000000
000000
000000
0001C0
0007C0
001F80
007E00
01F800
07E000
1F8000
7E0000
FC0000
FC0000
7E0000
1F8000
07E000
01F800
007E00
001F80
0007C0
0001C0
000000
000000
000000
000000
000000
000000
000000
000000
000000
000000
000000
000000
ENDCHAR
STARTCHAR char61
ENCODING 61
SWIDTH 1775 0
DWIDTH 25 0
BBX 19 40 2 -7
BITMAP
000000
000000
000000
000000
000000
000000
000000
000000
000000
000000
000000
000000
000000
000000
000000
FFFFE0
FFFFE0
FFFFE0
000000
000000
000000
000000
FFFFE0
FFFFE0
FFFFE0
000000
000000
000000
000000
000000
000000
000000
000000
000000
000000
000000
000000
000000
000000
000000
ENDCHAR
STARTCHAR char62
ENCODING 62
SWIDTH 1562 0
DWIDTH 22 0
BBX 18 40 0 -7
BITMAP
000000
000000
000000
000000
000000
000000
000000
000000
000000
000000
E00000
F80000
7E0000
1F8000
07E000
01F800
007E00
001F80
000FC0
000FC0
001F80
007E00
01F800
07E000
1F8000
7E0000
F80000
E00000
000000
000000
000000
000000
000000
000000
000000
000000
000000
000000
000000
000000
ENDCHAR
STARTCHAR char63
ENCODING 63
SWIDTH 1420 0
DWIDTH 20 0
BBX 16 40 0 -7
BITMAP
0000
0000
0000
0000
0FF8
1C1E
1C07
1E07
1E07
1E07
1E07
0007
000F
001F
007F
01FE
03FE
07FC
0FF0
0FC0
0F00
0E00
1C00
1C00
1800
0000
0000
0000
3800
7C00
FC00
FC00
7000
0000
0000
0000
0000
0000
0000
0000
ENDCHAR
STARTCHAR char64
ENCODING 64
SWIDTH 2201 0
DWIDTH 31 0
BBX 27 40 1 -7
BITMAP
00000000
00000000
00000000
00000000
00000000
00000000
00000000
00000000
03FFFC00
07FFFE00
0FFFFF00
1E001F80
3C000780
380003C0
700001E0
61FF01E0
E3FF81E0
C7FFC1E0
C781E1E0
C701E1E0
C701E1E0
C701E1E0
C701E1E0
C701E1C0
C701E3C0
C781FFC0
C7FFFF80
C3FFFF00
C0000000
E0000020
700000E0
3FFFFFE0
1FFFFF80
00000000
00000000
00000000
00000000
00000000
00000000
00000000
ENDCHAR
STARTCHAR char65
ENCODING 65
SWIDTH 2201 0
DWIDTH 31 0
BBX 24 40 0 -7
BITMAP
000000
000000
00007C
0000FE
0001FE
0001DE
00039E
00039E
00071E
00071E
000E1E
001E1E
001C1E
00381E
00381E
00701E
00701E
00E01E
00E01E
01FFFE
01FFFE
03801E
03801E
07001E
07001E
0E001E
0E001E
1E001E
1C001E
3C003E
7E007F
FF00FF
000000
000000
000000
000000
000000
000000
000000
000000
ENDCHAR
STARTCHAR char66
ENCODING 66
SWIDTH 2130 0
DWIDTH 30 0
BBX 26 40 0 -7
BITMAP
00000000
00000000
07FFFE00
01FFFF00
007C0F80
00FC07C0
00FC07C0
00FC07C0
01FC07C0
01FC0FC0
01F80FC0
01F80FC0
01F80FC0
03F81F80
03F83F00
03F87C00
03FFFC00
03FFF800
03F07E00
03E03E00
07E03F00
07E01F80
07E01F80
0FC00F80
0FC00F80
0FC00F80
0F801F80
0F801F00
0F803F00
1F80FE00
7FFFFC00
FFFFF000
00000000
00000000
00000000
00000000
00000000
00000000
00000000
00000000
ENDCHAR
STARTCHAR char67
ENCODING 67
SWIDTH 1917 0
DWIDTH 27 0
BBX 24 40 0 -7
BITMAP
001FF0
007FF8
01FC7D
03F81F
07F00F
0FE00F
1F8007
3F0006
7F0002
7E0000
7E0000
7E0000
FE0000
FC0000
FC0000
FC0000
FC0000
FC0000
FC0000
FC0000
FC0000
FC0000
FC0000
FC000E
FC000E
FC001E
FE003C
7FC0FC
7FFFFC
3FFFFC
0FFFFC
03F81E
000000
000000
000000
000000
000000
000000
000000
000000
ENDCHAR
STARTCHAR char68
ENCODING 68
SWIDTH 2201 0
DWIDTH 31 0
BBX 28 40 0 -7
BITMAP
00000000
00000000
03FFF800
01FFFE00
00FE1F80
00FE07C0
00FC07C0
00FC03E0
01FC01E0
01FC01E0
01F801E0
01F801F0
01F801F0
03F801F0
03F001F0
03F001F0
03F001F0
07F001F0
07F003E0
07E003E0
07E003E0
07E007E0
07E007C0
0FC007C0
0FC00F80
0FC00F80
0FC00F00
0F801F00
1F803E00
1F83FC00
7FFFF800
FFFFE000
00000000
00000000
00000000
00000000
00000000
00000000
00000000
00000000
ENDCHAR
STARTCHAR char69
ENCODING 69
SWIDTH 2130 0
DWIDTH 30 0
BBX 26 40 0 -7
BITMAP
00000000
00000000
07FFFFC0
03FFFFC0
01FC07C0
01FC01C0
01FC01C0
01FC01C0
01FC01C0
01FC00C0
01F870C0
01F87000
03F87000
03F86000
03F8E000
03FBE000
03FFE000
07FFE000
07F1E000
07E1E000
0FE1C000
0FE1C000
0FE0C000
0FC08380
0FC00380
0FC00700
1F800F00
1F801F00
1F803F00
3F807E00
7FFFFE00
FFFFFE00
00000000
00000000
00000000
00000000
00000000
00000000
00000000
00000000
ENDCHAR
STARTCHAR char70
ENCODING 70
SWIDTH 2201 0
DWIDTH 31 0
BBX 27 40 0 -7
BITMAP
00000000
00000000
03FFFFE0
01FFFFE0
00FE03E0
00FE00E0
01FC00E0
01FC0040
01FC0040
01FC0040
01F80040
01F82000
01F86000
03F06000
03F1E000
03F7E000
03FFE000
07FFE000
07F1E000
07E1C000
07E1C000
0FE1C000
0FE1C000
0FC1C000
0FC00000
0FC00000
0FC00000
0FC00000
1FC00000
1F800000
7FC00000
FFE00000
00000000
00000000
00000000
00000000
00000000
00000000
00000000
00000000
ENDCHAR
STARTCHAR char71
ENCODING 71
SWIDTH 2130 0
DWIDTH 30 0
BBX 26 40 0 -7
BITMAP
00000000
00000000
003FE3C0
00FFF3C0
01F83FC0
03E03F80
07E01F80
0FC01F80
1F800F80
1F000780
3F000380
3F000300
7E000000
7E000000
FC000000
FC000000
FC000000
FC000000
FC000000
FC000000
FC000000
FC00FFC0
FC00FF00
FC007F00
FC007E00
FE00FE00
7E00FE00
7F01FC00
3F01F800
1F83F000
0FFFF000
07FFC000
03FF0000
00000000
00000000
00000000
00000000
00000000
00000000
00000000
ENDCHAR
STARTCHAR char72
ENCODING 72
SWIDTH 2698 0
DWIDTH 38 0
BBX 34 40 0 -7
BITMAP
0000000000
0000000000
03FFC3FFC0
00FF80FF80
007F007F00
007E007E00
00FE00FE00
00FC00FC00
00FC00FC00
01FC01FC00
01FC01FC00
01FC01FC00
01F801F800
03F803F800
03F803F800
03F807F000
03FFFFF000
03FFFFF000
03F807F000
03F007F000
03F007F000
03F007F000
07F007F000
07E007E000
0FE00FE000
0FE00FE000
0FE00FE000
0FC00FC000
0FC00FC000
1F801F8000
7FC07FC000
FFF0FFF000
0000000000
0000000000
0000000000
0000000000
0000000000
0000000000
0000000000
0000000000
ENDCHAR
STARTCHAR char73
ENCODING 73
SWIDTH 1420 0
DWIDTH 20 0
BBX 18 40 0 -7
BITMAP
000000
000000
03FFC0
00FF80
007F00
007E00
00FE00
00FC00
00FC00
01FC00
01FC00
01FC00
01F800
03F800
03F800
03F000
03F000
03F000
03F000
03F000
07F000
07E000
0FE000
0FE000
0FE000
0FC000
0FC000
1FC000
1F8000
3F8000
7FC000
FFF000
000000
000000
000000
000000
000000
000000
000000
000000
ENDCHAR
STARTCHAR char74
ENCODING 74
SWIDTH 1775 0
DWIDTH 25 0
BBX 21 40 0 -7
BITMAP
000000
000000
007FF8
000FE0
000FE0
000FC0
001F80
001F80
001F80
001F80
003F80
003F80
003F80
003F80
007F00
007F00
007F00
007E00
007E00
007E00
007E00
007E00
007E00
00FE00
00FC00
00FC00
00FC00
01F800
01F800
71F000
F1F000
F1F000
E1F000
FFE000
3FC000
1F0000
000000
000000
000000
000000
ENDCHAR
STARTCHAR char75
ENCODING 75
SWIDTH 2485 0
DWIDTH 35 0
BBX 31 40 0 -7
BITMAP
00000000
00000000
07FFC3FE
01FF80FC
007E0070
00FC00E0
00FC01C0
00FC0380
01FC0700
01FC0E00
01FC1C00
01F83800
03F8F000
03F9E000
03FFE000
03FFC000
03FFC000
03FFC000
03FFE000
07FFF000
07E3F000
07E3F000
0FE1F800
0FE0FC00
0FE07E00
0FC03E00
0FC03F00
1FC01F80
1FC01FC0
1FC00FE0
7FC01FF0
FFF03FF8
00000000
00000000
00000000
00000000
00000000
00000000
00000000
00000000
ENDCHAR
STARTCHAR char76
ENCODING 76
SWIDTH 1917 0
DWIDTH 27 0
BBX 23 40 0 -7
BITMAP
000000
000000
03FFC0
00FF80
007E00
00FC00
00FC00
00FC00
01FC00
01FC00
01FC00
01F800
03F800
03F800
03F000
03F000
03F000
03F000
03F000
07E000
07E000
0FE000
0FE000
0FE002
0FC002
0FC006
1FC00E
1FC01E
1FC03E
3FC07E
7FFFFE
FFFFFC
000000
000000
000000
000000
000000
000000
000000
000000
ENDCHAR
STARTCHAR char77
ENCODING 77
SWIDTH 2911 0
DWIDTH 41 0
BBX 37 40 0 -7
BITMAP
0000000000
0000000000
03FF000FF8
00FF801FF0
00FF801FE0
00FF803FC0
00FF803FC0
00FF807F80
00FF807F80
00FF80FF80
00FF80FF80
01FF81FF80
01FF81BF80
01FF83BF80
01FF833F80
01BF873F80
03BF867F00
03BF8E7F00
03BF8C7F00
039FFC7E00
039FFC7E00
071FF87E00
071FF8FE00
0E0FF0FE00
0E0FE0FC00
0E0FE1FC00
0E0FC1FC00
0E0FC1FC00
0E0F81FC00
0C0F01FC00
3E0E07FE00
FF0E1FFF00
0000000000
0000000000
0000000000
0000000000
0000000000
0000000000
0000000000
0000000000
ENDCHAR
STARTCHAR char78
ENCODING 78
SWIDTH 2343 0
DWIDTH 33 0
BBX 32 40 0 -7
BITMAP
00000000
00000000
0FFE007F
01FE001F
00FE000E
00FE000E
00FF000C
01FF000C
01FF801C
019F801C
018FC01C
018FC038
0187E038
0387E030
0387F030
0303F070
0301F870
0701F870
0601FC70
0601FC60
0E00FC60
0E00FEE0
0E007FE0
0C007FE0
0C003FC0
0C003FC0
0C001FC0
1C001FC0
1C000F80
3C000F80
7E000780
FF000300
00000000
00000000
00000000
00000000
00000000
00000000
00000000
00000000
ENDCHAR
STARTCHAR char79
ENCODING 79
SWIDTH 1988 0
DWIDTH 28 0
BBX 24 40 0 -7
BITMAP
000000
000000
007FF0
00FFF8
01E07C
03E03E
07C01E
0F800F
1F800F
3F000F
7F000F
7E000F
7E001F
FE001F
FC001F
FC001F
FC003F
FC003F
FC003F
F8003F
F8003F
F8007F
F8007E
F0007E
F0007E
F000FC
F001F8
F001F0
7801E0
7C03C0
3E0780
1FFF00
0FFC00
000000
000000
000000
000000
000000
000000
000000
ENDCHAR
STARTCHAR char80
ENCODING 80
SWIDTH 2201 0
DWIDTH 31 0
BBX 27 40 0 -7
BITMAP
00000000
00000000
03FFF800
01FFFE00
00FE1F80
00FC07C0
01FC07C0
01FC07E0
01F807E0
01F807E0
01F807E0
03F807E0
03F007E0
03F00FE0
03F01FC0
07F03F80
07FFFF80
07FFFC00
07FFC000
07FC0000
0FE00000
0FC00000
0FC00000
0FC00000
0FC00000
1FC00000
1F800000
3F800000
3F800000
3F800000
7FC00000
FFE00000
00000000
00000000
00000000
00000000
00000000
00000000
00000000
00000000
ENDCHAR
STARTCHAR char81
ENCODING 81
SWIDTH 1988 0
DWIDTH 28 0
BBX 24 40 0 -7
BITMAP
000000
000000
007FF0
00FFF8
01F07C
03E03E
07C01E
0F800F
1F800F
3F000F
7F000F
7E000F
7E000F
7E001F
FE001F
FC001F
FC003F
FC003F
FC003F
FC003F
F8003F
F8007F
F8007E
F0007E
F0007E
F000FE
F000FC
F001F8
7001F0
7803E0
3C07C0
3E0F80
1FFC00
0FF800
07F000
03F000
01F000
01F800
00FC00
007E00
ENDCHAR
STARTCHAR char82
ENCODING 82
SWIDTH 2130 0
DWIDTH 30 0
BBX 26 40 0 -7
BITMAP
00000000
00000000
07FFFE00
03FFFF00
01FC1F80
01FC0FC0
01F80FC0
03F80FC0
03F00FC0
03F00FC0
03F00FC0
03F00FC0
07F00F80
07E01F80
07FFFF00
0FFFFC00
0FFFC000
0FFFC000
0FE3E000
0FE1E000
0FE1F000
0FC0F800
0FC0FC00
1F807C00
1F807E00
1F807E00
1F807E00
3F807E00
3F807F00
7F003F00
FF801F80
FFC01FC0
00000000
00000000
00000000
00000000
00000000
00000000
00000000
00000000
ENDCHAR
STARTCHAR char83
ENCODING 83
SWIDTH 1775 0
DWIDTH 25 0
BBX 21 40 0 -7
BITMAP
000000
000000
01FF88
03FFF8
0701F8
0E0078
0C0078
1C0038
1C0030
1E0030
1F0010
1FC000
1FF000
0FFC00
0FFE00
07FF00
03FF80
01FFC0
007FC0
003FE0
001FE0
000FF0
0007F0
4003F0
C001F0
E001F0
E001F0
F001E0
F801C0
FC0380
FF0F00
0FFE00
03F000
000000
000000
000000
000000
000000
000000
000000
ENDCHAR
STARTCHAR char84
ENCODING 84
SWIDTH 1988 0
DWIDTH 28 0
BBX 27 40 0 -7
BITMAP
00000000
00000000
1FFFFFE0
3FFFFFE0
3E1F8FE0
7C1F81E0
781F81C0
703F81C0
E03F01C0
C03F01C0
C07F01C0
007E0000
007E0000
007E0000
007E0000
007E0000
00FE0000
00FE0000
00FC0000
01FC0000
01FC0000
01F80000
01F80000
01F80000
03F00000
03F00000
03F00000
03F00000
07F00000
07F00000
0FF80000
7FFE0000
00000000
00000000
00000000
00000000
00000000
00000000
00000000
00000000
ENDCHAR
STARTCHAR char85
ENCODING 85
SWIDTH 2272 0
DWIDTH 32 0
BBX 31 40 0 -7
BITMAP
00000000
00000000
3FF800FE
0FE0003C
0FE00038
0FC00038
1FC00030
1F800030
1F800030
1F800070
1F800060
3F800060
3F0000E0
3F0000C0
7F0000C0
7F000080
7F000180
7E000180
7E000180
7E000180
FE000300
FC000700
FC000700
FC000600
FC000E00
FC000E00
FC000C00
7C001C00
7E003800
7F00F000
3FFFF000
1FFFC000
01F80000
00000000
00000000
00000000
00000000
00000000
00000000
00000000
ENDCHAR
STARTCHAR char86
ENCODING 86
SWIDTH 1988 0
DWIDTH 28 0
BBX 24 40 1 -7
BITMAP
000000
000000
FFE0FF
7F003E
7E001C
7E0038
7E0030
7E0060
7E0060
7E00E0
7E00C0
7E0180
7E0180
7E0380
7E0300
3E0700
3E0600
3E0E00
3E0C00
3E1C00
3E1800
3E3800
3E3000
3E7000
3E6000
3EC000
3EC000
3FC000
3FC000
3F0000
3F0000
3F0000
000000
000000
000000
000000
000000
000000
000000
000000
ENDCHAR
STARTCHAR char87
ENCODING 87
SWIDTH 3053 0
DWIDTH 43 0
BBX 40 40 0 -7
BITMAP
0000000000
0000000000
FFFFFFFFFF
7FFFFFFFFE
3F81FC3838
3F81FC7070
3F81FCE0E0
3F81FDC1C0
3F81FD8180
3F81FF8180
3F81FF0300
3F81FF0300
3F81FF0700
3F81FE0E00
3F01FE1C00
7F03FC1C00
7F03F83800
7F07F83000
7F0FF07000
7F1FF0E000
7F1FF1C000
7F37F18000
7F37F38000
7F77F70000
7FE7FF0000
7FC7FE0000
7F83FC0000
7F83F80000
7F03F80000
7F03F80000
7E03F00000
7803F00000
0000000000
0000000000
0000000000
0000000000
0000000000
0000000000
0000000000
0000000000
ENDCHAR
STARTCHAR char88
ENCODING 88
SWIDTH 2343 0
DWIDTH 33 0
BBX 29 40 0 -7
BITMAP
00000000
00000000
07FF07F8
03FE03F0
01FC01C0
01FE0180
00FE0180
00FE0380
007F0700
003F0E00
003F8C00
003F9C00
001FB800
001FF000
001FE000
000FE000
000FE000
000FE000
000FF000
000FF000
000FF000
001FF000
003FF800
0071F800
0061FC00
00E1FC00
01C0FC00
03C0FE00
0380FE00
0300FE00
1F80FF80
FFC3FFF0
00000000
00000000
00000000
00000000
00000000
00000000
00000000
00000000
ENDCHAR
STARTCHAR char89
ENCODING 89
SWIDTH 2201 0
DWIDTH 31 0
BBX 27 40 0 -7
BITMAP
00000000
00000000
FFF87FE0
7FE01F80
3F801E00
1FC01E00
0FC01C00
0FC01800
0FC03800
0FC03000
0FE07000
07E06000
07F0C000
07F0C000
03F1C000
03F18000
01F38000
01FF8000
01FF0000
01FF0000
01FE0000
01FE0000
01FC0000
01FC0000
03F00000
03F00000
03F00000
03F00000
07F00000
07F00000
0FF80000
7FFE0000
00000000
00000000
00000000
00000000
00000000
00000000
00000000
00000000
ENDCHAR
STARTCHAR char90
ENCODING 90
SWIDTH 2130 0
DWIDTH 30 0
BBX 26 40 0 -7
BITMAP
00000000
00000000
00FFFFC0
01FFFFC0
03F00FC0
03E07FC0
03C07F80
03807F00
0300FE00
0300FE00
0201FC00
0003F800
0003F000
0007F000
000FE000
000FE000
001FC000
003F8000
007F8000
00FF0000
01FE0000
03FC0000
03F80000
07F00200
07F00600
0FF00E00
0FE00E00
1FC01E00
3F803E00
7F807C00
FFFFFC00
FFFFFC00
00000000
00000000
00000000
00000000
00000000
00000000
00000000
00000000
ENDCHAR
STARTCHAR char91
ENCODING 91
SWIDTH 1633 0
DWIDTH 23 0
BBX 19 40 0 -7
BITMAP
000FE0
001FE0
001FE0
001F00
003E00
003E00
003C00
003C00
007C00
007C00
007800
00F800
00F800
01F000
01F000
01E000
01E000
03E000
03C000
07C000
07C000
0F8000
0F8000
0F8000
0F0000
1F0000
1E0000
3E0000
3E0000
3E0000
7C0000
7C0000
7C0000
780000
F80000
F00000
F00000
F00000
FC0000
FE0000
ENDCHAR
STARTCHAR char92
ENCODING 92
SWIDTH 1420 0
DWIDTH 20 0
BBX 16 40 1 -7
BITMAP
E000
F000
F000
7800
7800
3800
3C00
3C00
1C00
1E00
1E00
1E00
0F00
0F00
0700
0700
0780
0380
03C0
03C0
03C0
01E0
01E0
00E0
00E0
00F0
00F0
0078
0078
0038
003C
003C
001C
001E
001E
001E
000F
000F
0007
0007
ENDCHAR
STARTCHAR char93
ENCODING 93
SWIDTH 1633 0
DWIDTH 23 0
BBX 19 40 0 -7
BITMAP
000FE0
000FE0
000FE0
0003E0
0001E0
0001E0
0001E0
0001E0
0003C0
0003C0
0003C0
000780
000780
000F00
000F00
001E00
001E00
001E00
003E00
003C00
003C00
007C00
007800
007800
00F000
00F000
01F000
01F000
01E000
01E000
03C000
03C000
03C000
07C000
078000
0F8000
1F8000
3F0000
FF0000
FE0000
ENDCHAR
STARTCHAR char95
ENCODING 95
SWIDTH 1775 0
DWIDTH 25 0
BBX 24 40 0 -7
BITMAP
000000
000000
000000
000000
000000
000000
000000
000000
000000
000000
000000
000000
000000
000000
000000
000000
000000
000000
000000
000000
000000
000000
000000
000000
000000
000000
000000
000000
000000
000000
000000
000000
000000
000000
FFFFFF
FFFFFF
000000
000000
000000
000000
ENDCHAR
STARTCHAR char96
ENCODING 96
SWIDTH 781 0
DWIDTH 11 0
BBX 7 40 0 -7
BITMAP
00
00
7C
FE
FE
FC
E0
C0
E0
F0
78
3C
1C
0E
00
00
00
00
00
00
00
00
00
00
00
00
00
00
00
00
00
00
00
00
00
00
00
00
00
00
ENDCHAR
STARTCHAR char97
ENCODING 97
SWIDTH 1633 0
DWIDTH 23 0
BBX 19 40 0 -7
BITMAP
000000
000000
000000
000000
000000
000000
000000
000000
000000
000000
000000
000000
000000
01F000
03F8E0
0FFDE0
1FFFE0
3F1FC0
7E1FC0
7C0F80
7C0F80
F80F00
F81F00
F01E00
F01E00
F03C00
F03C20
F07860
F0FFE0
F1FFC0
7FFFC0
7F1F80
000000
000000
000000
000000
000000
000000
000000
000000
ENDCHAR
STARTCHAR char98
ENCODING 98
SWIDTH 1562 0
DWIDTH 22 0
BBX 16 40 0 -7
BITMAP
0000
0000
1FC0
1FC0
0FC0
0FC0
0FC0
0F80
0F80
1F80
1F80
1F00
3F00
3F18
3FF8
7FFC
7FFE
7F0F
7E0F
7C0F
7C0F
FC0F
F80F
F80F
F80F
F01F
F01F
F03F
F03E
F07C
FFFC
7FF8
0000
0000
0000
0000
0000
0000
0000
0000
ENDCHAR
STARTCHAR char99
ENCODING 99
SWIDTH 1420 0
DWIDTH 20 0
BBX 16 40 0 -7
BITMAP
0000
0000
0000
0000
0000
0000
0000
0000
0000
0000
0000
0000
0000
0078
03FC
0FFE
1FFF
3F0F
7E0F
7C0F
FC00
FC00
FC00
F800
F800
F800
F002
F006
F80E
7C1C
3FFC
1FF8
0000
0000
0000
0000
0000
0000
0000
0000
ENDCHAR
STARTCHAR char100
ENCODING 100
SWIDTH 1775 0
DWIDTH 25 0
BBX 21 40 0 -7
BITMAP
000000
000000
0007F8
0003F8
0001F8
0001F8
0001F0
0001F0
0001F0
0003F0
0003F0
0003E0
0003E0
00E3E0
03F7E0
0FFFC0
1FFFC0
1F9FC0
3F0F80
3E0F80
7E0F80
7C1F80
FC1F00
F81F00
F81F00
F83F00
F83F10
F83F30
787F70
7CFFE0
3FF7E0
1FC3C0
000000
000000
000000
000000
000000
000000
000000
000000
ENDCHAR
STARTCHAR char101
ENCODING 101
SWIDTH 1420 0
DWIDTH 20 0
BBX 16 40 0 -7
BITMAP
0000
0000
0000
0000
0000
0000
0000
0000
0000
0000
0000
0000
0000
0078
01FE
07FF
1FFF
3F0F
3F0F
7E0F
FE0F
FC1F
FFFE
FFF8
FC00
F800
F002
F006
780E
7C1C
3FFC
1FF8
0000
0000
0000
0000
0000
0000
0000
0000
ENDCHAR
STARTCHAR char102
ENCODING 102
SWIDTH 1420 0
DWIDTH 20 0
BBX 19 40 0 -7
BITMAP
000000
000000
0007C0
001FE0
003EE0
003C60
007C60
007860
007800
007800
00F000
00F000
01F000
01F000
07FC00
0FFE00
01F000
01F000
01F000
03E000
03E000
03C000
03C000
03C000
07C000
07C000
078000
078000
078000
0F8000
0F0000
0F0000
CF0000
CE0000
8E0000
9C0000
FC0000
F80000
000000
000000
ENDCHAR
STARTCHAR char103
ENCODING 103
SWIDTH 1917 0
DWIDTH 27 0
BBX 21 40 2 -7
BITMAP
000000
000000
000000
000000
000000
000000
000000
000000
000000
000000
000000
000000
000000
000000
000000
003C18
00FE78
01FFF8
03EFF8
07C7C0
0F8780
0F0780
0F0780
0F0780
0F0780
0F0F00
1F1E00
3C3C00
787800
780000
3F0000
3FFC00
7FFE00
7FFF00
F00F00
E00700
E00700
F00F00
FFFF00
3FFE00
ENDCHAR
STARTCHAR char104
ENCODING 104
SWIDTH 1633 0
DWIDTH 23 0
BBX 19 40 0 -7
BITMAP
000000
000000
0FE000
03E000
01E000
03E000
03E000
03E000
07E000
07E000
07E000
07C000
0FC000
0FC000
0FC000
0F8F80
0F9FC0
1FFFC0
1FF1E0
1FC1E0
3F81E0
3F83E0
3F03C0
3E03C0
7E0780
7E0780
7E0FA0
7C0FE0
7C0FE0
FC0FE0
F807C0
F80380
000000
000000
000000
000000
000000
000000
000000
000000
ENDCHAR
STARTCHAR char105
ENCODING 105
SWIDTH 994 0
DWIDTH 14 0
BBX 10 40 0 -7
BITMAP
0000
0000
0380
07C0
07C0
07C0
07C0
07C0
0000
0000
0000
0000
0000
FF80
FF80
FF80
3F80
3F00
3F00
3F00
3F00
7E00
7E00
7E00
7C00
FC40
FC40
FCC0
FDC0
FF80
FF00
7E00
0000
0000
0000
0000
0000
0000
0000
0000
ENDCHAR
STARTCHAR char106
ENCODING 106
SWIDTH 1633 0
DWIDTH 23 0
BBX 19 40 0 -7
BITMAP
000000
000000
000000
000000
0003E0
0003E0
0003E0
0003C0
000000
000000
000000
000000
000000
000000
00FF00
00FF00
003F00
001F00
001F00
001F00
003F00
003F00
003E00
003E00
007E00
007E00
007C00
007C00
00FC00
00F800
01F800
01F800
01F800
01F000
03F000
03F000
73F000
F7E000
FFE000
7FC000
ENDCHAR
STARTCHAR char107
ENCODING 107
SWIDTH 1633 0
DWIDTH 23 0
BBX 19 40 0 -7
BITMAP
000000
000000
1FE000
0FE000
07E000
07E000
07E000
07C000
0FC000
0FC000
0FC000
0F8000
0F8000
0F83C0
0F87E0
1F8FE0
1F8FE0
1F81E0
3FB1C0
3FF000
3FF000
3FF800
3FFC00
7E3E00
7E3E00
7E3E00
7C7C60
FC7C60
FC7CE0
F87FE0
F87FC0
F83F80
000000
000000
000000
000000
000000
000000
000000
000000
ENDCHAR
STARTCHAR char108
ENCODING 108
SWIDTH 1065 0
DWIDTH 15 0
BBX 11 40 0 -7
BITMAP
0000
0000
1FE0
0FE0
07E0
07E0
07E0
07C0
0FC0
0FC0
0FC0
0F80
0F80
0F80
0F80
1F80
1F00
1F00
3F00
3E00
3E00
7E00
7E00
7E00
7C00
7C00
FC40
FCC0
FDC0
FF80
FF00
7E00
0000
0000
0000
0000
0000
0000
0000
0000
ENDCHAR
STARTCHAR char109
ENCODING 109
SWIDTH 2698 0
DWIDTH 38 0
BBX 32 40 2 -7
BITMAP
00000000
00000000
00000000
00000000
00000000
00000000
00000000
00000000
00000000
00000000
00000000
00000000
00000000
7FCFC1F0
7FDFC3F8
7F9FEFFC
1FC3FFFE
1FC1F8FE
1F81F0FE
1F03F0FC
3F03F0FC
3E03E0FC
3E07E0F8
3E07E0F8
7E0FC0F0
7E0FC0F0
7C0FC0F1
7C0F80F3
7C0F80FF
FC0F80FE
F81F80FC
F81F0078
00000000
00000000
00000000
00000000
00000000
00000000
00000000
00000000
ENDCHAR
STARTCHAR char110
ENCODING 110
SWIDTH 1633 0
DWIDTH 23 0
BBX 19 40 0 -7
BITMAP
000000
000000
000000
000000
000000
000000
000000
000000
000000
000000
000000
000000
000000
7F0F00
7F9F80
7F9FC0
1FC7E0
1FC7E0
1F87E0
1F87E0
3F87E0
3F07C0
3F0780
3E0F80
7E0F80
7E0F80
7E0FA0
7C0FE0
7C0FE0
FC0FE0
F807C0
F803C0
000000
000000
000000
000000
000000
000000
000000
000000
ENDCHAR
STARTCHAR char111
ENCODING 111
SWIDTH 1562 0
DWIDTH 22 0
BBX 18 40 0 -7
BITMAP
000000
000000
000000
000000
000000
000000
000000
000000
000000
000000
000000
000000
000000
007C00
01FE00
0FFF00
1FFF80
1E0780
3E0780
3C07C0
7C07C0
FC07C0
FC0FC0
FC0FC0
FC0F80
F80F80
F81F80
F81F00
F83E00
7C7C00
3FFC00
1FF800
000000
000000
000000
000000
000000
000000
000000
000000
ENDCHAR
STARTCHAR char112
ENCODING 112
SWIDTH 1775 0
DWIDTH 25 0
BBX 21 40 0 -7
BITMAP
000000
000000
000000
000000
000000
000000
000000
000000
000000
000000
000000
000000
000000
000000
000000
1FC3C0
07E7E0
07E070
07F078
07F038
07F038
07E038
0FE038
0FC038
0FC038
0F8078
0F8078
1FC0F8
1FE1F0
1FF3F0
1F7FE0
3E1F80
3E0000
3E0000
7E0000
7E0000
7C0000
7C0000
FC0000
FE0000
ENDCHAR
STARTCHAR char113
ENCODING 113
SWIDTH 1633 0
DWIDTH 23 0
BBX 19 40 0 -7
BITMAP
000000
000000
000000
000000
000000
000000
000000
000000
000000
000000
000000
000000
000000
000000
000000
01F1E0
07FFE0
0FFFE0
1F87C0
3E07C0
7807C0
7007C0
F007C0
F00F80
F00F80
F00F80
F00F80
F01F00
F03F00
707F00
787E00
3F3E00
003E00
003E00
007E00
007C00
007C00
00FC00
00FC00
00FE00
ENDCHAR
STARTCHAR char114
ENCODING 114
SWIDTH 1207 0
DWIDTH 17 0
BBX 15 40 0 -7
BITMAP
0000
0000
0000
0000
0000
0000
0000
0000
0000
0000
0000
0000
0000
001C
003E
FF7E
3FFE
3FFE
3F9C
7F00
7F00
7E00
7E00
7C00
7C00
FC00
FC00
FC00
F800
F800
F000
F000
0000
0000
0000
0000
0000
0000
0000
0000
ENDCHAR
STARTCHAR char115
ENCODING 115
SWIDTH 1207 0
DWIDTH 17 0
BBX 13 40 0 -7
BITMAP
0000
0000
0000
0000
0000
0000
0000
0000
0000
0000
0000
0000
0000
03F0
07F8
0E78
1C38
1C38
1E18
1F00
1F80
1FC0
1FE0
0FF0
07F8
03F8
71F8
F0F8
F0F8
F0F0
FFF0
7FE0
0000
0000
0000
0000
0000
0000
0000
0000
ENDCHAR
STARTCHAR char116
ENCODING 116
SWIDTH 1065 0
DWIDTH 15 0
BBX 11 40 0 -7
BITMAP
0000
0000
0000
0000
0000
0000
0000
0000
0000
0000
0F00
0F80
0F80
0F80
3FC0
FFE0
7FC0
3F00
3F00
3E00
3E00
7E00
7E00
7E00
7C00
7C00
7C40
FCC0
FDC0
FF80
FF00
7E00
0000
0000
0000
0000
0000
0000
0000
0000
ENDCHAR
STARTCHAR char117
ENCODING 117
SWIDTH 1775 0
DWIDTH 25 0
BBX 21 40 0 -7
BITMAP
000000
000000
000000
000000
000000
000000
000000
000000
000000
000000
000000
000000
000000
000000
000000
FE07C0
FE0FC0
FE0FC0
FE0F80
FE0F80
FC0F80
FC0F80
FC1F80
FC1F80
F81F00
F83F00
F83F18
F83F18
F87F30
FBFFF0
FFE3E0
7F81C0
000000
000000
000000
000000
000000
000000
000000
000000
ENDCHAR
STARTCHAR char118
ENCODING 118
SWIDTH 1562 0
DWIDTH 22 0
BBX 18 40 0 -7
BITMAP
000000
000000
000000
000000
000000
000000
000000
000000
000000
000000
000000
000000
000000
0780C0
0FC1C0
1FC3C0
3FC3C0
77C1C0
E7C040
E7C040
07C040
0780C0
0F80C0
0F81C0
1F81C0
1F0180
1F0380
1F0700
1F0E00
1F1C00
0FFC00
07F800
000000
000000
000000
000000
000000
000000
000000
000000
ENDCHAR
STARTCHAR char119
ENCODING 119
SWIDTH 2201 0
DWIDTH 31 0
BBX 27 40 0 -7
BITMAP
00000000
00000000
00000000
00000000
00000000
00000000
00000000
00000000
00000000
00000000
00000000
00000000
00000000
0F000040
1F8000E0
3FC1F8E0
7FC1F8E0
FFC1F8E0
DF81F060
9F83F020
1F83F020
1F07F020
1F07F020
1F0FF060
3F0FE0E0
3F1FE0E0
3F3FE0C0
7F7FE1C0
7FF7E1C0
7FF3E380
7FE3FF80
1FC1FF00
00000000
00000000
00000000
00000000
00000000
00000000
00000000
00000000
ENDCHAR
STARTCHAR char120
ENCODING 120
SWIDTH 1775 0
DWIDTH 25 0
BBX 21 40 0 -7
BITMAP
000000
000000
000000
000000
000000
000000
000000
000000
000000
000000
000000
000000
000000
038010
0FC078
3FC1F8
3FC3F8
63E700
E1EE00
C1FE00
01FC00
01F800
01F800
01F800
01F800
01F840
03F840
03F8C0
47FFC0
EF7F80
FF3F00
7E1E00
000000
000000
000000
000000
000000
000000
000000
000000
ENDCHAR
STARTCHAR char121
ENCODING 121
SWIDTH 1633 0
DWIDTH 23 0
BBX 21 40 0 -7
BITMAP
000000
000000
000000
000000
000000
000000
000000
000000
000000
000000
000000
000000
000000
000000
000000
038018
0FC038
1FC078
3FC078
3FE0F0
77E0C0
63F180
63F180
41F380
01F380
01FF00
00FF00
00FE00
00FE00
00FC00
00FC00
00F800
00F800
00F000
00F000
00E000
E1C000
F38000
FF8000
7F0000
ENDCHAR
STARTCHAR char122
ENCODING 122
SWIDTH 1562 0
DWIDTH 22 0
BBX 18 40 0 -7
BITMAP
000000
000000
000000
000000
000000
000000
000000
000000
000000
000000
000000
000000
000000
060040
0FC040
0FF040
1FFFC0
1FFFC0
1E3F80
183E00
003800
007000
00E000
01C000
078000
0F0300
1F0380
3F8180
7FFF80
EFFF80
C3FF00
80FE00
000000
000000
000000
000000
000000
000000
000000
000000
ENDCHAR
STARTCHAR char123
ENCODING 123
SWIDTH 1207 0
DWIDTH 17 0
BBX 11 40 2 -7
BITMAP
03E0
07E0
0F80
1C00
1C00
1C00
1C00
1C00
1E00
1E00
0E00
0E00
0E00
0E00
0C00
0800
0000
2000
6000
E000
E000
6000
2000
0000
0800
0C00
0E00
0E00
0E00
0E00
1E00
1E00
1C00
1C00
1C00
1C00
1C00
0F00
07E0
03E0
ENDCHAR
STARTCHAR char124
ENCODING 124
SWIDTH 781 0
DWIDTH 11 0
BBX 3 40 3 -7
BITMAP
E0
E0
E0
E0
E0
E0
E0
E0
E0
E0
E0
E0
E0
E0
E0
E0
E0
E0
E0
E0
E0
E0
E0
E0
E0
E0
E0
E0
E0
E0
E0
E0
E0
E0
E0
E0
E0
E0
E0
E0
ENDCHAR
STARTCHAR char125
ENCODING 125
SWIDTH 1207 0
DWIDTH 17 0
BBX 11 40 2 -7
BITMAP
F800
FC00
1E00
0700
0700
0700
0700
0700
0F00
0F00
0E00
0E00
0E00
0E00
0600
0200
0000
0080
00C0
00E0
00E0
00C0
0080
0000
0200
0600
0E00
0E00
0E00
0E00
0F00
0F00
0700
0700
0700
0700
0700
1E00
FC00
F800
ENDCHAR
STARTCHAR char126
ENCODING 126
SWIDTH 1775 0
DWIDTH 25 0
BBX 21 40 0 -7
BITMAP
000000
000000
000000
000000
000000
000000
000000
000000
000000
000000
000000
000000
000000
0F8008
1FC008
3FE008
7FF018
7FF838
71FC70
E0FFF0
C07FF0
803FE0
801FC0
800F80
000000
000000
000000
000000
000000
000000
000000
000000
000000
000000
000000
000000
000000
000000
000000
000000
ENDCHAR
ENDFONT
