STARTFONT 2.1
FONT -MIT-ARROW3 KST-Medium-R-Normal--26-9-200-200-P-31-ISO8859-1
SIZE 9 200 200
FONTBOUNDINGBOX 64 26 0 -18
STARTPROPERTIES 17
ADD_STYLE_NAME ""
AVERAGE_WIDTH 31
CHARSET_ENCODING "1"
CHARSET_REGISTRY "ISO8859"
DEFAULT_CHAR 0
FAMILY "ARROW3 KST"
FONT_ASCENT 8
FONT_DESCENT 18
FOUNDRY "MIT"
PIXEL_SIZE 26
POINT_SIZE 9
RESOLUTION_X 200
RESOLUTION_Y 200
SETWIDTH_NAME "Normal"
SLANT "R"
SPACING "P"
WEIGHT_NAME "Medium"
ENDPROPERTIES
CHARS 15
STARTCHAR char0
ENCODING 0
SWIDTH 2220 0
DWIDTH 20 0
BBX 32 26 0 -18
BITMAP
00000000
10000000
28000000
6C000000
AA000000
28000000
28000000
28000000
28000000
28000000
28000000
28000000
00000000
00000000
00000000
00000000
00000000
00000000
00000000
00000000
00000000
00000000
00000000
00000000
00000000
00000000
ENDCHAR
STARTCHAR char1
ENCODING 1
SWIDTH 2220 0
DWIDTH 20 0
BBX 32 26 0 -18
BITMAP
00000000
00000000
00800000
00400000
FFE00000
00100000
FFE00000
00400000
00800000
00000000
00000000
00000000
00000000
00000000
00000000
00000000
00000000
00000000
00000000
00000000
00000000
00000000
00000000
00000000
00000000
00000000
ENDCHAR
STARTCHAR char2
ENCODING 2
SWIDTH 2220 0
DWIDTH 20 0
BBX 32 26 0 -18
BITMAP
00000000
7F000000
85000000
85000000
85000000
7D000000
05000000
05000000
05000000
05000000
05000000
0F000000
00000000
00000000
00000000
00000000
00000000
00000000
00000000
00000000
00000000
00000000
00000000
00000000
00000000
00000000
ENDCHAR
STARTCHAR char72
ENCODING 72
SWIDTH 2220 0
DWIDTH 20 0
BBX 17 26 0 -18
BITMAP
FFFF80
800080
800080
800080
800080
800080
800080
600300
380E00
1E3C00
0FF800
07F000
07F000
06B000
041000
088800
100400
208200
400100
808080
800080
81C080
87F080
9FFC80
FFFF80
000000
ENDCHAR
STARTCHAR char88
ENCODING 88
SWIDTH 999 0
DWIDTH 9 0
BBX 32 26 0 -18
BITMAP
00000000
80800000
41000000
22000000
14000000
08000000
14000000
22000000
41000000
80800000
00000000
00000000
00000000
00000000
00000000
00000000
00000000
00000000
00000000
00000000
00000000
00000000
00000000
00000000
00000000
00000000
ENDCHAR
STARTCHAR char97
ENCODING 97
SWIDTH 4662 0
DWIDTH 42 0
BBX 64 26 0 -18
BITMAP
0FFFFFFFF0000000
1000000008000000
238F3C6244000000
4249209282000000
838F38F301000000
424A209282000000
23893C9244000000
1000000008000000
0FFFFFFFF0000000
0000000000000000
0000000000000000
0000000000000000
0000000000000000
0000000000000000
0000000000000000
0000000000000000
0000000000000000
0000000000000000
0000000000000000
0000000000000000
0000000000000000
0000000000000000
0000000000000000
0000000000000000
0000000000000000
0000000000000000
ENDCHAR
STARTCHAR char98
ENCODING 98
SWIDTH 4662 0
DWIDTH 42 0
BBX 64 26 0 -18
BITMAP
0FFFFFFFF0000000
1000000008000000
21C83C63C4000000
4208209242000000
820838F3C1000000
4208209282000000
21CF3C9244000000
1000000008000000
0FFFFFFFF0000000
0000000000000000
0000000000000000
0000000000000000
0000000000000000
0000000000000000
0000000000000000
0000000000000000
0000000000000000
0000000000000000
0000000000000000
0000000000000000
0000000000000000
0000000000000000
0000000000000000
0000000000000000
0000000000000000
0000000000000000
ENDCHAR
STARTCHAR char99
ENCODING 99
SWIDTH 3996 0
DWIDTH 36 0
BBX 64 26 0 -18
BITMAP
0FFFFFFC00000000
1000000200000000
21C6208100000000
4209208080000000
820F208040000000
4209208080000000
21C93CF100000000
1000000200000000
0FFFFFFC00000000
0000000000000000
0000000000000000
0000000000000000
0000000000000000
0000000000000000
0000000000000000
0000000000000000
0000000000000000
0000000000000000
0000000000000000
0000000000000000
0000000000000000
0000000000000000
0000000000000000
0000000000000000
0000000000000000
0000000000000000
ENDCHAR
STARTCHAR char100
ENCODING 100
SWIDTH 3330 0
DWIDTH 30 0
BBX 32 26 0 -18
BITMAP
0FFFFF00
10000080
23C71C40
42082020
83862010
42012020
23CE1C40
10000080
0FFFFF00
00000000
00000000
00000000
00000000
00000000
00000000
00000000
00000000
00000000
00000000
00000000
00000000
00000000
00000000
00000000
00000000
00000000
ENDCHAR
STARTCHAR char101
ENCODING 101
SWIDTH 6549 0
DWIDTH 59 0
BBX 57 26 0 -18
BITMAP
0FFFFFFFFFFFF800
1000400000000400
23865C924F24E200
424960A348244100
838F60C34E184080
424960A2C8244100
23897C924F244200
1000400000000400
0FFFFFFFFFFFF800
0000000000000000
0000000000000000
0000000000000000
0000000000000000
0000000000000000
0000000000000000
0000000000000000
0000000000000000
0000000000000000
0000000000000000
0000000000000000
0000000000000000
0000000000000000
0000000000000000
0000000000000000
0000000000000000
0000000000000000
ENDCHAR
STARTCHAR char102
ENCODING 102
SWIDTH 3996 0
DWIDTH 36 0
BBX 64 26 0 -18
BITMAP
0FFFFFFC00000000
1000000200000000
224F20F100000000
4248209080000000
83CE20F040000000
4248208080000000
224F3C8100000000
1000000200000000
0FFFFFFC00000000
0000000000000000
0000000000000000
0000000000000000
0000000000000000
0000000000000000
0000000000000000
0000000000000000
0000000000000000
0000000000000000
0000000000000000
0000000000000000
0000000000000000
0000000000000000
0000000000000000
0000000000000000
0000000000000000
0000000000000000
ENDCHAR
STARTCHAR char103
ENCODING 103
SWIDTH 5217 0
DWIDTH 47 0
BBX 64 26 0 -18
BITMAP
0FFFFFFFFF800000
1000000000400000
23C938624E200000
4249249244100000
83C9389244080000
4289249244100000
224F3863C4200000
1000000000400000
0FFFFFFFFF800000
0000000000000000
0000000000000000
0000000000000000
0000000000000000
0000000000000000
0000000000000000
0000000000000000
0000000000000000
0000000000000000
0000000000000000
0000000000000000
0000000000000000
0000000000000000
0000000000000000
0000000000000000
0000000000000000
0000000000000000
ENDCHAR
STARTCHAR char106
ENCODING 106
SWIDTH 3885 0
DWIDTH 35 0
BBX 64 26 0 -18
BITMAP
0FFFFFF800000000
1000000400000000
220E49E200000000
4204690100000000
820469C080000000
4204590100000000
23CE49E200000000
1000000400000000
0FFFFFF800000000
0000000000000000
0000000000000000
0000000000000000
0000000000000000
0000000000000000
0000000000000000
0000000000000000
0000000000000000
0000000000000000
0000000000000000
0000000000000000
0000000000000000
0000000000000000
0000000000000000
0000000000000000
0000000000000000
0000000000000000
ENDCHAR
STARTCHAR char107
ENCODING 107
SWIDTH 2886 0
DWIDTH 26 0
BBX 32 26 0 -18
BITMAP
0FFFF000
10000800
2227C400
42210200
82210100
41410200
20810400
10000800
0FFFF000
00000000
00000000
00000000
00000000
00000000
00000000
00000000
00000000
00000000
00000000
00000000
00000000
00000000
00000000
00000000
00000000
00000000
ENDCHAR
STARTCHAR char108
ENCODING 108
SWIDTH 4107 0
DWIDTH 37 0
BBX 64 26 0 -18
BITMAP
0FFFFFFE00000000
1000000100000000
23CF3CD880000000
420924A840000000
83C93CA820000000
4209288840000000
220F248880000000
1000000100000000
0FFFFFFE00000000
0000000000000000
0000000000000000
0000000000000000
0000000000000000
0000000000000000
0000000000000000
0000000000000000
0000000000000000
0000000000000000
0000000000000000
0000000000000000
0000000000000000
0000000000000000
0000000000000000
0000000000000000
0000000000000000
0000000000000000
ENDCHAR
ENDFONT
