STARTFONT 2.1
FONT -MIT-ENT KST-Medium-R-Normal--170-61-200-200-P-570-ISO8859-1
SIZE 61 200 200
FONTBOUNDINGBOX 348 170 -20 -170
STARTPROPERTIES 17
ADD_STYLE_NAME ""
AVERAGE_WIDTH 570
CHARSET_ENCODING "1"
CHARSET_REGISTRY "ISO8859"
DEFAULT_CHAR 0
FAMILY "ENT KST"
FONT_ASCENT 0
FONT_DESCENT 170
FOUNDRY "MIT"
PIXEL_SIZE 170
POINT_SIZE 61
RESOLUTION_X 200
RESOLUTION_Y 200
SETWIDTH_NAME "Normal"
SLANT "R"
SPACING "P"
WEIGHT_NAME "Medium"
ENDPROPERTIES
CHARS 2
STARTCHAR char69
ENCODING 69
SWIDTH 8000 0
DWIDTH 500 0
BBX 268 170 20 -170
BITMAP
00000000000000000000000000000000000000000000000000000000000000000000
00000000000000000000000000000000000000000000000000000000000000000000
0000000000000000000000000000000000000000000000000000000FE20000000000
0000000000000000000000000000000000000000000000000000FFF06C8000000000
0000000000000000000000000000000000000000000000000FFF0FFF418000000000
00000000000000000000000000000000000000000000007FFFFFF00128F000000000
00000000000000000000000000000000000000000007F07FF0000001472800000000
00000000000000000000000000000000000000000007F0000007FFFA993C00000000
0000000000000000000000000000000000000000000003FFFFF8000295C200000000
000000000000000000000000000000000000000007FFFC0000000005401E00000000
000000000000000000000000000000000000000002000000000000093C1600000000
00000000000000000000000000000000000000000000000000000009240C00000000
000000780000000000000000000000000000000007FFFFFFFFFFFFF59C1600000000
00007F9910000000000000000000000000000000000000000000000A440000000000
00FF81F314000000000000000000000000000000000000000000000A4C2C00000000
0F1FFE4C8300000000000000000000000000000001FE000000000006534800000000
0FE00069F78000000000000000000000000000000101FFFFFFFC000492B800000000
400000AA4CC0000000000000000000000000000001E000000046FFFA149000000000
4000014A4A8000000000000000000000000000000060070000890002876000000000
FFFFFF0A71400000000000000000000000000000000007001F30F801518000000000
800002D18DC00000000000000000000000000000000000001C403800A80000000000
80000299027000000000000000000000000000000000000004808000770000000000
600002A4022000000000000000000000000000000000000009030000000000000000
9FF802A203F000000000000000000000000000000000000012040000000000000000
4007FADE022000000000000000000000000000000000000024080000000000000000
400005220240000000000000000000000000000000000000C8100000000000000000
48000496054000000000000000000000000000000000000110200000000000000000
01C00299806000000000000000000000000000000000000220400000000000000000
01DE02A0FD2000000000000000000000000000000000000440800000000000000000
001FF18CA3600000000000000000000000000000000C000881000000000000000000
0001EE2322F000000000000000000000000000000015501102000000000000000000
00001EDBAC080000000000000000000000000000038A50260C000000000000000000
000001C05186000000000000000000000000000007B5684810000000000000000000
00000001E101000000000000000000000000000007B57B9020000000000000000000
00000001E500C0000000000000000000000000001F5A8CF040000000000000000000
0000000062C03000000000000000000000000000FF949C6880000000000000000000
0000000001B008000000000000000000000000036A23BCB900000000000000000000
0000000000480600000000000000000000000003FFDC249E00000000000000000000
00000000003601000000000000000000000000035222245800020000000000000000
00000000000900C00000000000000000000000055222225600000000000000000000
000000000006C020000000000000000000000006A222122FFE0807FF000000000000
000000000001B0180000000000000000000001F6A2200017C1F7F7FFFFFFE0007000
000000000000480400000000000000000000FF6C1BFDE30FBFE00FFF3FFFEFFFF040
0000000000003603000000000000000000FFC09B384200E07E1FF0003FFE0FFFFE60
000000000000090080000000000000007F64FEF0C081001C01F80FFC0001FFF801C0
00000000000006C0600000000000003FBB67C707010080038007C003FE000007FED0
00000000000001301000000000001FCFDB7C78180200800060003F0001FF00001F20
00000000000000C80C000000001FE777EF8780E0040040001C0000FC0000FFC3E120
00000000000000360200000007E39979F07803000800200003800003E00001CC0120
000000000000000901800001F9C45E1E03801C0030002000006000001F80FE080240
0000000000000006C040003EF237C3E03C00600040001000001C0000005F00080240
0000000000000001303001D80FF07C03C003800080000800000380001FE0001002C0
0000000000000000C8083DC77C0F801C000C0001000008000000603FE02000100680
0000000000000000260433DF81F001E0007000020000040000FFDFC0002000101A00
00000000000000001900F3E01E001E00018000040000023FFF002000004000202800
000000000000000006C8FC03E001E0000E0000080007FCC000002000004000274000
0000000000000000013E007C000E000030000011FFF8010000002000004000DB8000
000000000000000000CEFE8000700000C0000FFE000001000000200000401CBC0000
0000000000000000002300FFFFFFFFFEFFFFF020000001000000400000879DC00000
0000000000000000001B0080008000010000002000000100000040003E4780000000
000000000000000000068080008000010000002000000100000040FFC1C000000000
00000000000000000002804000400000800000200000010000FFBF01FC0000000000
00000000000000000001404000400000800000200000011FFF0083FE000000000000
00000000000000000000C0400040000080000010000001E0000FFC00000000000000
000000000000000000004C200020000080000010007FFF08FFF00000000000000000
000000000000000000000FC7FFD00000400007EFFFBFF76900000000000000000000
0000000000000000000005C70037FFFFFFFFFBEDFDE0893C00000000000000000000
00000000000000000000010EEFFBFFFFDFFEFC02A210917800000000000000000000
0000000000000000000000CC0800000000010007911112E000000000000000000000
000000000000000000000033060000000001000AC89125C000000000000000000000
000000000000000000000008810000000002000C24492A8000000000000000000000
00000000000000000000000660C000000002000C1A49540000000000000000000000
000000000000000000000001103000000002000C0529680000000000000000000000
000000000000000000000000CC080000000200180395B00000000000000000000000
000000000000000000000000230600000002001800ECA00000000000000000000000
00000000000000000000000018810000000000180046000000000000000000000000
0000000000000000000000000460C000000C00300008000000000000000000000000
00000000000000000000000003102000000800300000000000000000000000000000
00000000000000000000000000CC18FFFFEFD0300000000000000000000000000000
000000000000000000000000002304FFFFF86E700000000000000000000000000000
00000000000000000000000000188200000861100000000000000000000000000000
00000000000000000000000000046080001017010000000000000000000000000000
0000000000000000000000000003103000601402C000000000000000000000000000
00000000000000000000000000008C8FC08022013000000000000000000000000000
000000000000000000000000000063803F00C0302800000000000000000000000000
0000000000000000000000000000010000C102505E00000000000000000000000000
00000000000000000000000000002A00023204A04700000000000000000000000000
00000000000000000000000000003C00020D0920C100000000000000000000000000
000000000000000000000000000023000402B630F180000000000000000000000000
000000000000000000000000000020C0040408481540000000000000000000000000
0000000000000000000000000000203808046CB00720000000000000000000000000
00000000000000000000000000001006080893400020000000000000000000000000
00000000000000000000000000002801D008A6800190000000000000000000000000
000000000000000000000000000016003C11250000C8000000000000000000000000
0000000000000000000000000000090013114A000058000000000000000000000000
000000000000000000000000000003C010FA4A000028000000000000000000000000
000000000000000000000000000000A0102694000028000000000000000000000000
00000000000000000000000000000050102124000028000000000000000000000000
0000000000000000000000000000002C102240000028000000000000000000000000
0000000000000000000000000000001A102258000028000000000000000000000000
00000000000000000000000000000005902258000028000000000000000000000000
00000000000000000000000000000002502258000038000000000000000000000000
00000000000000000000000000000001A02258000050000000000000000000000000
000000000000000000000000000000005F2258000050000000000000000000000000
0000000000000000000000000000000028FD600000A0000000000000000000000000
0000000000000000000000000000000014218C0000A0000000000000000000000000
000000000000000000000000000000000810AA000120000000000000000000000000
00000000000000000000000000000000000895000340000000000000000000000000
000000000000000000000000000000000008524006C0000000000000000000000000
00000000000000000000000000000000018429B00CC0000000000000000000000000
000000000000000000000000000000000032606BE900000000000000000000000000
00000000000000000000000000000000003C021FA200000000000000000000000000
00000000000000000000000000000000000E62882C00000000000000000000000000
000000000000000000000000000000000001EC897000000000000000000000000000
0000000000000000000000000000000000000D8C0000000000000000000000000000
00000000000000000000000000000000000000FC0000000000000000000000000000
00000000000000000000000000000000000000000000000000000000000000000000
00000000000000000000000000000000000000000000000000000000000000000000
00000000000000000000000000000000000000000000000000000000000000000000
00000000000000000000000000000000000000000000000000000000000000000000
00000000000000000000000000000000000000000000000000000000000000000000
00000000000000000000000000000000000000000000000000000000000000000000
00000000000000000000000000000000000000000000000000000000000000000000
00000000000000000000000000000000000000000000000000000000000000000000
00000000000000000000000000000000000000000000000000000000000000000000
00000000000000000000000000000000000000000000000000000000000000000000
00000000000000000000000000000000000000000000000000000000000000000000
00000000000000000000000000000000000000000000000000000000000000000000
00000000000000000000000000000000000000000000000000000000000000000000
00000000000000000000000000000000000000000000000000000000000000000000
00000000000000000000000000000000000000000000000000000000000000000000
00000000000000000000000000000000000000000000000000000000000000000000
00000000000000000000000000000000000000000000000000000000000000000000
00000000000000000000000000000000000000000000000000000000000000000000
00000000000000000000000000000000000000000000000000000000000000000000
00000000000000000000000000000000000000000000000000000000000000000000
00000000000000000000000000000000000000000000000000000000000000000000
00000000000000000000000000000000000000000000000000000000000000000000
00000000000000000000000000000000000000000000000000000000000000000000
00000000000000000000000000000000000000000000000000000000000000000000
00000000000000000000000000000000000000000000000000000000000000000000
00000000000000000000000000000000000000000000000000000000000000000000
00000000000000000000000000000000000000000000000000000000000000000000
00000000000000000000000000000000000000000000000000000000000000000000
00000000000000000000000000000000000000000000000000000000000000000000
00000000000000000000000000000000000000000000000000000000000000000000
00000000000000000000000000000000000000000000000000000000000000000000
00000000000000000000000000000000000000000000000000000000000000000000
00000000000000000000000000000000000000000000000000000000000000000000
00000000000000000000000000000000000000000000000000000000000000000000
00000000000000000000000000000000000000000000000000000000000000000000
00000000000000000000000000000000000000000000000000000000000000000000
00000000000000000000000000000000000000000000000000000000000000000000
00000000000000000000000000000000000000000000000000000000000000000000
00000000000000000000000000000000000000000000000000000000000000000000
00000000000000000000000000000000000000000000000000000000000000000000
00000000000000000000000000000000000000000000000000000000000000000000
00000000000000000000000000000000000000000000000000000000000000000000
00000000000000000000000000000000000000000000000000000000000000000000
00000000000000000000000000000000000000000000000000000000000000000000
00000000000000000000000000000000000000000000000000000000000000000000
00000000000000000000000000000000000000000000000000000000000000000000
00000000000000000000000000000000000000000000000000000000000000000000
00000000000000000000000000000000000000000000000000000000000000000000
00000000000000000000000000000000000000000000000000000000000000000000
00000000000000000000000000000000000000000000000000000000000000000000
00000000000000000000000000000000000000000000000000000000000000000000
00000000000000000000000000000000000000000000000000000000000000000000
00000000000000000000000000000000000000000000000000000000000000000000
00000000000000000000000000000000000000000000000000000000000000000000
ENDCHAR
STARTCHAR char70
ENCODING 70
SWIDTH 10240 0
DWIDTH 640 0
BBX 368 170 20 -170
BITMAP
00000000000000000000000000000000000000000FFFFE0000000000000000000000000000000000000000000000
000000000000000000000000000000000000000077FFFFFFFFFFFFFFFFFFFE000000000000000000000000000000
0000000000000000000000000000000000000001BA0001FFFFFFFFFFFFFFFFFFFFFFFFFFFFFFFE00000000000000
00000000000000000000000000000000000000016200000000000000000000FFFFFFFFFFFFFFFFFFFFFFFFFFFE00
0000000000000000000000000000000000000001A3FFFFFFFFFFFFFFFFFF0000000000000000007FFFFFFFFFFFF0
00000000000000000000000000000000000000037E000000000000000000FFFFFFFFFFFFFFFFFFFFFFFF80000058
0000000000000000000000000000000000000007A20000000000000000000000000000000000000000007FFFFFFE
0000000000000000000000000000000000000007220000000000000000000000000000000000000000000000002A
0000000000000000000000000000000000000005220000000000000000000000000000000000000000000000002B
0000000000000000000000000000000000000001FFFFFFFFFFFFFFFFFFFFFFFFFFFFFFFFFFFFFFFFFFFFFFFFFFD9
0000000000000000000000000000000000000007220000000000000000000000000000000000000000000000004E
0000000000000000000000000000000000000005220000000000000000000000000000000000000000000000004B
0000000000000000000000000000000000000007220000000000000000000000000000000000000000000000004B
0000000000000000000000000000000000000001E20000000000000000000000000000000000007FFFFFFFFFFFF6
00000000000000000000000000000000000000053FFFFFFFFFFFFFFFFFFFFFFFFFFFFFFFFFFFFF8000000000004E
00000000000000000000000000000000000000072200000000000000000000000000000000000000000000000054
0000000000000000000000000000000000000003A200000000000000000000000000000000000000000000000038
0000000000000000000000000000000000000002620000000000000000000000000000000001FFFFFFFFFFFFFF90
0000000000000000000000000000000000000000BE000000000000007FFFFFFFFFFFFFFFFFFE0000000001FFFFE0
000000000000000000000000000000000000000063FFFFFFFFFFFFFF80000000000001FFFFFFFFFFFFFFFE000000
00000000000000000000000000000000000000001A000000000201FFFFFFFFFFFFFFFE0000000000000000000000
000000000000000000000000000000000000000007FFFFFFFFFFFE40000000000000000000000000000000000000
00000000000000000000000000000000000000000000000000020040000000000000000000000000000000000000
00000000000000000000000000000000000000000000000000020080000000000000000000000000000000000000
00000000000000000000000000000000000000000000000000020080000000000000000000000000000000000000
000000000000000000000000000000000000000007FFFFFFFFFE0080000000000000000000000000000000000000
00000000000000000000000000000000000000001F800000000200FFFFFFFFFFFFFFFFFC00000000000000000000
000000000000000000000000000000000000000034000000000200800000000003FFFFFFFFFFFF00000000000000
00000000000000000000000000000000000000006FFFFFFFFFFE00FFFFFFFFFFFFFFFFFC00000500000000000000
000000000000000000000000000000000000000074800000000200800000000000000003FFFFFFC0000000000000
00000000000000000000000000000000000000006480000000020080000000000000000000000360000000000000
0000000000000000000C0000000000000000000047FFFFFFFFFC0080000000000000000000000220000000000000
000000000000000001FF800000000000000000007C800000000400FFFFFFFFFFFFFFFFFFFFFFFFE0000000000000
000000000000000001F7600000000000000000006480000000040080000000000000000000000560000000000000
00000000000000000FFFE00000000000000000003480000003FC01000000000000000000000007A0000000000000
00000000000000003FFFFC0000000000000000006FFFFFFFFE04017FFFFFFFFFFFFFFFFFFFFFFD80000000000000
000000000000000055249F0000000000000000003480000002040100000000000000000000000F80000000000000
000000000000000075249580000000000000000028800000020401000000000003FFFFFFFFFFFF00000000000000
000000000000000069244AC000000000000000001FFFFFFFFE0401FFFFFFFFFFFFFFFFFFFFFFF800000000000000
0000000FFFFFFFFFFFFFFFC0000000000000000003800000020401FFFFFFFFFFFC00000000000000000000000000
0007FFF0004000010000083FFFFE000000000000007FFFFFFE040100000000000000000000000000000000000000
03B8010000400001000008000021FFFFE00000000000000002040100000000000000000000000000000000000000
3C4001000040000100000800002000081FC000000000000002040100000000000000000000000000000000000000
E0200080002000010000080000200008003C00000000000002040100000000000000000000000000000000000000
202000800020000100000800002000100023F80000000000020C0100000000000000000000000000000000000000
90200080003FFFFFFFFFF7FFFFC00010004044000000000003080200000000000000000000000000000000000000
901003FFFFF0000100000800007FFE10004042000000000003080200000000000000000000000000000000000000
50FFFC200017FFFFFFFFF800008001FF804084000000000003080200000000000000000000000000000000000000
4F02007FFFF87F0060002FFFFFF000407FFE84000000000001080200000000000000000000000000000000000000
3307FFF80FFF00FC1C00C00FE00FFFFFC20188000000000001080200000000000000000000000000000000000000
0DFFFFF7FFFEFFFFFFFFFFFE3FFE07FFFF0668000000000001080200000000000000000000000000000000000000
03FFFFFFFFFFFFB0C1010207FFFFFFFFFFFA18000000000001080200000000000000000000000000000000000000
01FFFFFFFFFFFF0C20810C08E3FFFFFFFFFFA0000000000001080200000000000000000000000000000000000000
0003FFFFFFFFFFC3108210371FE000000000C0000000000001080200000000000000000000000000000000000000
000001DFFFF83FF8CC4220D9FFF80000000080000000000001080200000000000000000000000000000000000000
0000000007FFFEFE3FFFDF6FE1FC0000000040000000000001080400000000000000000000000000000000000000
00000000000003FFF22223F7FDFE0000000020000000000001080400000000000000000000000000000000000000
0000000000000003C91244F800010000000010000000000001180400000000000000000000000000000000000000
0000000000000000A9124BA000008000000008000000000001100400000000000000000000000000000000000000
000000000000000074928D4000004000000004000000000001100400000000000000000000000000000000000000
00000000000000003A529F8000002000000004000000000001900400000000000000000000000000000000000000
00000000000000000F4ABA0000001000000002000000000001900400000000000000000000000000000000000000
000000000000000007AD7C0000000800000001000000000000900400000000000000000000000000000000000000
000000000000000003EDF00000000400000000800000000000900400000000000000000000000000000000000000
000000000000000000FFE00000000200000000400000000000900400000000000000000000000000000000000000
0000000000000000007F400000000180000000200000000000900400000000000000000000000000000000000000
0000000000000000001E000000000040000000100000000000900800000000000000000000000000000000000000
00000000000000000000000000000020000000100000000000900800000000000000000000000000000000000000
00000000000000000000000000000010000000080000000000900800000000000000000000000000000000000000
00000000000000000000000000000008000000040000000000900800000000000000000000000000000000000000
00000000000000000000000000000004000000020000000000900800000000000000000000000000000000000000
00000000000000000000000000000002000000010000000000B00800000000000000000000000000000000000000
00000000000000000000000000000001000000008000000000A00800000000000000000000000000000000000000
00000000000000000000000000000000BFFFFFC08000000000A00800000000000000000000000000000000000000
00000000000000000000000000000000BFFE1FFF0000000000E00800000000000000000000000000000000000000
000000000000000000000000000000034000100FFF80000000600800000000000000000000000000000000000000
000000000000000000000000000007FC40000000007FF80000600800000000000000000000000000000000000000
00000000000000000000000000000404FFFFFFFE000007FF80601000000000000000000000000000000000000000
00000000000000000000000000000C0780001001FFFE00007FE01000000000000000000000000000000000000000
000000000000000000000000000007FC800010000001FFFE00201FF0000000000000000000000000000000000000
00000000000000000000000000000C088000100000000001FFE0100FE80000000000000000000000000000000000
00000000000000000000000000001C08800010000000000000201F00080000000000000000000000000000000000
000000000000000000000000000014088000100000000000001E10FFF80000000000000000000000000000000000
0000000000000000000000000000140880001000000000000001F000080000000000000000000000000000000000
0000000000000000000000000000140FFFFFFFFFFFFF800000000000080000000000000000000000000000000000
00000000000000000000000000001FF88000200000007FFFFFFFFFC0080000000000000000000000000000000000
0000000000000000000000000000140880002000000000000000003FF80000000000000000000000000000000000
00000000000000000000000000001408800020000000000000000000080000000000000000000000000000000000
00000000000000000000000000001408800020000000000000000000080000000000000000000000000000000000
00000000000000000000000000001408800020000000000000000000080000000000000000000000000000000000
00000000000000000000000000001C0880002000000000000000003FF80000000000000000000000000000000000
000000000000000000000000000017F80000200000007FFFFFFFFFC0080000000000000000000000000000000000
0000000000000000000000000000140F7FFFFFFFFFFF800000000000080000000000000000000000000000000000
00000000000000000000000000001408400020000000000000000000080000000000000000000000000000000000
00000000000000000000000000000408400020000000000000000000F00000000000000000000000000000000000
00000000000000000000000000000C0840002000000000000000FFFF100000000000000000000000000000000000
000000000000000000000000000014004000200000000001FFFF0000000000000000000000000000000000000000
000000000000000000000000000017F6400020000001FFFE0000001FF00000000000000000000000000000000000
00000000000000000000000000000409FFFE2001FFFE00000003FFE0000000000000000000000000000000000000
000000000000000000000000000004084001FFFE000000003FFC0000000000000000000000000000000000000000
000000000000000000000000000007FA40001000000003FFC0000000000000000000000000000000000000000000
00000000000000000000000000000001C0001000007FFC0000000000000000000000000000000000000000000000
000000000000000000000000000000007FFFF007FF80000000000000000000000000000000000000000000000000
0000000000000000000000000000000000000FF80000000000000000000000000000000000000000000000000000
00000000000000000000000000000000000000000000000000000000000000000000000000000000000000000000
00000000000000000000000000000000000000000000000000000000000000000000000000000000000000000000
00000000000000000000000000000000000000000000000000000000000000000000000000000000000000000000
00000000000000000000000000000000000000000000000000000000000000000000000000000000000000000000
00000000000000000000000000000000000000000000000000000000000000000000000000000000000000000000
00000000000000000000000000000000000000000000000000000000000000000000000000000000000000000000
00000000000000000000000000000000000000000000000000000000000000000000000000000000000000000000
00000000000000000000000000000000000000000000000000000000000000000000000000000000000000000000
00000000000000000000000000000000000000000000000000000000000000000000000000000000000000000000
00000000000000000000000000000000000000000000000000000000000000000000000000000000000000000000
00000000000000000000000000000000000000000000000000000000000000000000000000000000000000000000
00000000000000000000000000000000000000000000000000000000000000000000000000000000000000000000
00000000000000000000000000000000000000000000000000000000000000000000000000000000000000000000
00000000000000000000000000000000000000000000000000000000000000000000000000000000000000000000
00000000000000000000000000000000000000000000000000000000000000000000000000000000000000000000
00000000000000000000000000000000000000000000000000000000000000000000000000000000000000000000
00000000000000000000000000000000000000000000000000000000000000000000000000000000000000000000
00000000000000000000000000000000000000000000000000000000000000000000000000000000000000000000
00000000000000000000000000000000000000000000000000000000000000000000000000000000000000000000
00000000000000000000000000000000000000000000000000000000000000000000000000000000000000000000
00000000000000000000000000000000000000000000000000000000000000000000000000000000000000000000
00000000000000000000000000000000000000000000000000000000000000000000000000000000000000000000
00000000000000000000000000000000000000000000000000000000000000000000000000000000000000000000
00000000000000000000000000000000000000000000000000000000000000000000000000000000000000000000
00000000000000000000000000000000000000000000000000000000000000000000000000000000000000000000
00000000000000000000000000000000000000000000000000000000000000000000000000000000000000000000
00000000000000000000000000000000000000000000000000000000000000000000000000000000000000000000
00000000000000000000000000000000000000000000000000000000000000000000000000000000000000000000
00000000000000000000000000000000000000000000000000000000000000000000000000000000000000000000
00000000000000000000000000000000000000000000000000000000000000000000000000000000000000000000
00000000000000000000000000000000000000000000000000000000000000000000000000000000000000000000
00000000000000000000000000000000000000000000000000000000000000000000000000000000000000000000
00000000000000000000000000000000000000000000000000000000000000000000000000000000000000000000
00000000000000000000000000000000000000000000000000000000000000000000000000000000000000000000
00000000000000000000000000000000000000000000000000000000000000000000000000000000000000000000
00000000000000000000000000000000000000000000000000000000000000000000000000000000000000000000
00000000000000000000000000000000000000000000000000000000000000000000000000000000000000000000
00000000000000000000000000000000000000000000000000000000000000000000000000000000000000000000
00000000000000000000000000000000000000000000000000000000000000000000000000000000000000000000
00000000000000000000000000000000000000000000000000000000000000000000000000000000000000000000
00000000000000000000000000000000000000000000000000000000000000000000000000000000000000000000
00000000000000000000000000000000000000000000000000000000000000000000000000000000000000000000
00000000000000000000000000000000000000000000000000000000000000000000000000000000000000000000
00000000000000000000000000000000000000000000000000000000000000000000000000000000000000000000
00000000000000000000000000000000000000000000000000000000000000000000000000000000000000000000
00000000000000000000000000000000000000000000000000000000000000000000000000000000000000000000
00000000000000000000000000000000000000000000000000000000000000000000000000000000000000000000
00000000000000000000000000000000000000000000000000000000000000000000000000000000000000000000
00000000000000000000000000000000000000000000000000000000000000000000000000000000000000000000
00000000000000000000000000000000000000000000000000000000000000000000000000000000000000000000
00000000000000000000000000000000000000000000000000000000000000000000000000000000000000000000
00000000000000000000000000000000000000000000000000000000000000000000000000000000000000000000
00000000000000000000000000000000000000000000000000000000000000000000000000000000000000000000
00000000000000000000000000000000000000000000000000000000000000000000000000000000000000000000
00000000000000000000000000000000000000000000000000000000000000000000000000000000000000000000
00000000000000000000000000000000000000000000000000000000000000000000000000000000000000000000
00000000000000000000000000000000000000000000000000000000000000000000000000000000000000000000
00000000000000000000000000000000000000000000000000000000000000000000000000000000000000000000
00000000000000000000000000000000000000000000000000000000000000000000000000000000000000000000
00000000000000000000000000000000000000000000000000000000000000000000000000000000000000000000
00000000000000000000000000000000000000000000000000000000000000000000000000000000000000000000
00000000000000000000000000000000000000000000000000000000000000000000000000000000000000000000
00000000000000000000000000000000000000000000000000000000000000000000000000000000000000000000
00000000000000000000000000000000000000000000000000000000000000000000000000000000000000000000
00000000000000000000000000000000000000000000000000000000000000000000000000000000000000000000
00000000000000000000000000000000000000000000000000000000000000000000000000000000000000000000
ENDCHAR
ENDFONT
