STARTFONT 2.1
FONT -MIT-MITBIG KST-Medium-R-Normal--226-81-200-200-P-241-ISO8859-1
SIZE 81 200 200
FONTBOUNDINGBOX 241 226 0 0
STARTPROPERTIES 17
ADD_STYLE_NAME ""
AVERAGE_WIDTH 241
CHARSET_ENCODING "1"
CHARSET_REGISTRY "ISO8859"
DEFAULT_CHAR 0
FAMILY "MITBIG KST"
FONT_ASCENT 226
FONT_DESCENT 0
FOUNDRY "MIT"
PIXEL_SIZE 226
POINT_SIZE 81
RESOLUTION_X 200
RESOLUTION_Y 200
SETWIDTH_NAME "Normal"
SLANT "R"
SPACING "P"
WEIGHT_NAME "Medium"
ENDPROPERTIES
CHARS 1
STARTCHAR char65
ENCODING 65
SWIDTH 2892 0
DWIDTH 241 0
BBX 241 226 0 0
BITMAP
000000000000007FFC00000000000000000000000000000000000000000000
00000000000007FFFF00000000000000000000000000000000000000000000
0000000000003FFFFFC0000000000000003FFFFFFFFF000000000000000000
0000000000007F1C73E000000000000001FFFFFFFFFFE00000000000000000
000000000000FE0C31F000000000000003FFFFFFFFFFF00000000000000000
000000000000FF0E39F800000000000007C000000001F80000000000000000
000000000001E7FFFFFC0000000000000F00000000007C0000000000000000
000000000001C0FFFFFE0000000000001E00000000003C0000000000000000
000000000001C07FFFFE0000000000001C060000000C3E0000000000000000
000000000001C03DCFFE0000000000003C07000000381E0000000000000000
000000000001FC1CCDFF0000000000003803FFFFFFF81E0000000000000000
000000000003FE0CCCFF0000000000003801FFFFFFF81E0000000000000000
000000000003BE0CCCDF0000000000007800F80000F83C0000000000000000
0000000000039C0CCCCF0000000000007800F80000F83C0000000000000000
000000000003800CCCCF0000000000003800FFFFFFFC7C0000000000000000
000000000007800CCCCF0000000000003803FFFFFFFFF80000000000000000
000000000007000CCCCF0000000000003C07E66631FFF00000000000000000
000000000007000CCCCF0000000000001E0FE66631FFC00000000000000000
000000000007000CCCCF0000000000001E00E66630DF000000000000000000
000000000007000CCCCF0000000000000F81E666301E000000000000000000
000000000007000CCCCF0000000000000FFFE666301E000000000000000000
00000000000F000CCCCF00000000000003FFE666301E000000000000000000
00000000000FF00CCCCF00000000000001FFE666601E000000000000000000
00000000000FF00CCCCF000000000000003FE666601E000000000000000000
00000000000FF00CCCCE0000000000000001E666601E000000000000000000
000000000000F00CCCCE0000000000000000E666603E000000000000000000
000000000000F00CCCCE0000000000000001E666E03C000000000000000000
000000000000E00CCCEE0000000000000001E666C078000000000000000000
000000000000E00EEEEF0000000000000001E667CCF8000000000000000000
000000000000E00EFFFF0000000000000001E667CCF8000000000000000000
000000000000E007FFFF8000000000000001CEE7C8F8000000000000000000
000000000001E007FFFFC000000000000003CCEF99F8000000000000000000
00000000000FFFC3FFFFF000000000000003CCCF99F8000000000000000000
0000000001FFFFC0FFFFFF000000000000079DFF99FC000000000000000000
000000000FFFFFC07FFFFFE00000000000079FFF99BF000000000000000000
000000003FFFE1C00FFFFFF800000000000FBFE199BFFE0000000000000000
00000000FFF9E1C003CF81FE00000000001FFFF199BFFF8000000000000000
00000001FCF1E1C003CF007F00000000003FF9F999FFFFE000000000000000
00000007F0F1E1C007CF001F8000000000FFF07F99F87FF000000000000000
0000000FC0F1FFC00FCF0007C000000007FFF03FD8F87FFC00000000000000
0000001F00F3FFC03FCF0003E00000001FFDF03FFCF8FBFE00000000000000
0000003E00F3FFFFFFCF0001F00000003F9CF83FFFF8F3FF00000000000000
0000007C00F3C7FFFFCF8000F8000000FC0E781EFFF8F3DF80000000000000
000000F800F3C1FFF3CF80007C000001F00E3C1E3FF8F387C0000000000000
000001F800F3C01E03CFC0007E000003E00F1E1E0038E383E0000000000000
000003F000F3C01E01CFC0007F000007800F8E0E0038E781F0000000000000
000003F000F3C1FF81CF30004F00000F000FCF0F0038E780F8000000000000
000007F800F3C1FF81CF18008F80001F000FC78F0039E78078000000000000
00000FD800F3E1FF81CF06020F80003E000FE3C70039FF807E000000000000
00000FC800F3F1C383CF01FC0FC0007F000FF1C78039FFFFFFFFFE00000000
00001FCC00F1F9C383CF00000FC0007B000FF1E7803BFFFFFFFFFF00000000
00001E4601F0FFC387CF00000FE000F1000FF8F3C03BFFFFFFFFFFFE000000
00003E4301F07FC3FFCF000009E001E1000E7C73C03FF80000000E06000000
00003C60C7F01FC3FF8F000008E001E0800E3E7BC03FF80000000E06000000
00003C203CF007C3FC0F000008F001C0400E3E3DE03FF80000000E07F00000
00007C2000F003C3E00F000010F003C0300E3F1FE03FF80000000E041C0000
00007C3000F001C3C0070000107803C00E0E3F9FE03FF80000000E040C0000
00007C1000F001C380070000207803C003FE1F8FF03FF80000000E040C0000
0000FE18007001C380070000207807C0000E1FC7F03FF80000000E04100000
0000F60C007001FF8007000040380780000E1BE7F83FF80000000E081FF000
0000F20600F001FFC00F000040380780000E19E3F83FF80000000E08203000
0000F30300F007FFF00F0001803C0F80000E08F1FC3FF80000000E08206000
0000E100C0F00FFFF80F0003003C0F80000E08F8FC3FF80000000E10404000
0001E18070F01F81FC070006003C0FC0000E0878FC3FF80000000E1040E000
0001E0800FF01E007E07001E003C0FC0000E083C7E3FF80000000E1081FE00
0001E04000F03C001E0700FFFC3C0E40000E083E3E3F780000000E10820C00
0001E06000F0781F1F07FFF803FC0E40000E081F3E3E780000000E11040800
0001E03000F0781FFF07C038007C0E40000E080F9F3E780000000E21041000
0001E01800F07001FF070006003C0E20000E08078F3E780000000E22083000
0001E00E00F0F0003F0F0001001C0E20000E0807CFFE780000000E22107000
0001E00700F0F0001F070000C01C0E10000E0803C7FE7FFFE0000E2421FF80
0001E007E0F0E01FCF070000201C0E18000E0401E3FC7FFFF8000E24230700
0001E07FFFF1E00FFF078000101C0E08000E0401F1FC7C0018000F68440600
0001F3800FF9E000FF07FFC0081C0E04000E0400F9FC783FFC000F48880800
0001FC00FFFFE0003F0FFFF0041C0E02000F0C00FFFC781FFFFC0F59102000
0000F003FFFFE00F9F0FFFFC041C0E01000FFFFFFFFFF80000060FD120C000
0000F007FFFFE01FEF0FE0FE023C0E00C00FFFFFFFFFF8007FFC0FF241E000
0000F01FFFFFE001FF3F803F033C0F00381FFFFFFFFFF8003FFE0FFC87FF80
0000F01F8001E0007FFE001F01380F0003FC71CF0FC0F80000040FFF980E00
0000F03E0000E0001FF8000F81F80F000018308607007800FFFE0FFF203000
0000787C0000F01F9FF0000780F8070000381082070078007FFC0FFFC0C000
000078780000F01FDFC00007C0F80780007810820700780000060FFF860000
00007CF000007801FF800003C0F0078000981041070078007FFE0FFFF00000
00003CF000007C00FC000001C0F003C00308084107007C003FFC0FFFC00000
00003FF000003E03F8000001E0E003F00C10084107007E0000060FFFE00000
00003FE000001F0FE0000001E1E003FFF010084107007FFFFFFFFFFFFFFF80
00001FE000001FFFC0000001E1E001C00010084087007FFFFFFFFFFFFFFF80
00001FE000000FFF00000001E3C001E00020082087007FFFFFFFFFFFFFFF80
00000FE0000007FC00000001E7C000E000200820870078FF800F803E000000
00000FE0000007F000000001E78000F000400820870078E78007801C000000
000007E000000FE000000001FF00007000400820870078E78007803C000000
000003E000003F8000000001FF000078008008204700F8E78007807C000000
000003F000007E0000000003FE00003C008008204703F0E7C00F81FC000000
000001F00001FC0000000003FC00003C010008204F07E0E7C01F87F0000000
000000F80007F00000000007F800001E010010207F9FC0E7C07FFFC0000000
0000007C000FC18000000007F000000F020010207FFF00E7C0FFFF00000000
0000007C003F87800000000FE0000007CC001020FFFE00E7C3FFFC00000000
0000003F00FE3E000000001FC0000003F8001023FFFC00E7EFF7F000000000
0000000FEFF8F8000000007F00000001F800203FEFFC00E7FF87E000000000
00000007FFF9E0001FFFFFFE00000000FE00307FE7FC00E7FF078000000000
00000003FFFF87803FFFFFFE000000003FC03FFE673C00E7FC040000000000
00000003FFFE3F807FFFFFFE000000001FFFFFF0273C00E7F8000000000000
00000003E07DFE00FC1FCFBE0000000007FFFFE0273C00E7F0000000000000
00000003C07FF001F00F079E0000000001FFFC40273C00E7F0000000000000
00000007807F8783E007079C0000000001F00040273C00E7F0000000000000
00000007807C7F87C00707BC0000000001E00040273C00E7F0000000000000
00000007807FFE1FC00707BC0000000001E00040273C00E7F0000000000000
0000000F007FE0FFC00707BC0000000001E00080273C00E7F0000000000000
0000000F007C07FFC00707BC0000000000E00080273C00E7F8000000000000
0000000F007FFFFF800707BC0000000000E00080273C00E7F8000000000000
0000001F007FFFE3800707BC0000000000E00100273C00E7F8000000000000
0000001E007FFFE3800707BC0000000000E00100273C00E7F8000000000000
0000001E007FF0E3800707B80000000000E00100273C00E778000000000000
0000003E007800E3800707F80000000000E00200273C00E778000000000000
0000003C007800E3800707F80000000000E00200273C00E73C000000000000
0000003C007800E3800707F80000000000E00200273C00E73C000000000000
0000007C007800E3800707F80000000000E00400273C00E73C000000000000
00000078007800E3800707F80000000000E00400273C00E73C000000000000
00000078007800E3800707F80000000000E00400273C00E71C000000000000
00000078007800E3800707F80000000000F00800273C00E71C000000000000
0000000F007C07FF800707BC0000000000E00080273C00F7F8000000000000
0000000F007FFFFF800707BC0000000000E00080273C00F7F8000000000000
0000001F007FFFE3800707BC0000000000E00100273C00F7F8000000000000
0000001E007FFFE3800707BC0000000000E00100273C00F7F8000000000000
0000001E007FF0E3800707B80000000000E00100273C00F7F8000000000000
0000003E007800E3800707F80000000000E00200273C00F7F8000000000000
0000003C007800E3800707F80000000000E00200273C00F7BC000000000000
0000003C007800E3800707F80000000000E00200273C00F7BC000000000000
0000007C007800E3800707F80000000000E00400273C00F7BC000000000000
00000078007800E3800707F80000000000E00400273C00F7BC000000000000
00000078007800E3800707F80000000000E00400273C00F79C000000000000
00000078007800E3800707F80000000000F00800273C00F79C000000000000
000000F0007800E3800707F80000000000F01000273C00F79E000000000000
000000F0007800E3800707F80000000000F01000273C00F79E000000000000
000000F0007800E3800707F00000000000F02000273C00F79E000000000000
000000F0007800E3800707F00000000000F02000273C00F78E000000000000
000001E0007800E3800707F00000000000F04000273C00F78F000000000000
000001E0007800E3800707F00000000000F04000473C00F78F000000000000
000001E0007800E3800707F00000000000F08000473C00F78F000000000000
000003C0007800E3800707F00000000000F08000473C00F78F000000000000
000003C0007800E3800707F00000000000F10000473C00F787000000000000
000003C0007800E3800F07F00000000000720000473C00F787800000000000
00000380007C00E3801F07F000000000007C0000473E00F787800000000000
00000780003F00E3803E07E00000000000780000873F00F787800000000000
00000780001F80E380FC07E00000000000780000873F00F787800000000000
00000F00000FF0E383F807E00000000000780000873F80F787800000000000
00000F000003FFE39FF007E00000000000780000873F80F783800000000000
00000F000001FFE3FFC007E00000000000780000873FC0F783C00000000000
00000E0000007FE3FF0007E00000000000780001073FE0F783C00000000000
00001E0000000FE3FC0007E00000000000780001073DE0F783C00000000000
00001E00000001E3E00007E00000000000780001073CF0F781C00000000000
00001E00000001E3C00007E00000000000780001073CF8F781E00000000000
00003C00000001E3C00007E00000000000780001073C78F781E00000000000
00003C0000007FFFFFF807C00000000000780001073C7CF781E00000000000
00003C000003FFFFFFF807C00000000000780002073C3DF781E00000000000
00003800000FFFFFFFF807C00000000000780002073C1FF780E00000000000
00007800003FFFFFFFF807C00000000000380002073C1FF780F00000000000
0000780001FF8000007807C00000000000380002073C0FF780F00000000000
0000700001FE0000007807C00000000000380002073C0FF780F00000000000
0000F00000FC0000007807C000000000003800060F3C0FF780F00000000000
0000F000007E00000078078000000000003800073F3FFFF7C0F80000000000
0000F000003F00000078078000000000003FFFFFFE7FFFF7FFF80000000000
0001E000001F80000078078000000000003FFFFFFC7FFFF7FFF80000000000
0001E000001FE000007C078000000000003FFFFFF0F803F3FFF80000000000
0001E00007FFFFFFFFFFFF8000000000003C000001F801F800F80000000000
0001E00007FFFFFFFFFFFF8000000000003C000007FFFFFC00780000000000
0003E00007FFFFFFFFFFFF8000000000003FFFFFFFFFFFFFFFFC0000000000
0003F00007FFFFFFFFFFFF8000000000003FFFFFFFFFFFFFFFFC0000000000
0003FFFFFFF800000000078000000000003FFFFFFFFFFFFFFFFC0000000000
0007FFFFFFF800000000078000000000001FFFFFFE00007FFFFC0000000000
0007FFFFFFFC0000000007800000000000003C003C000078007C0000000000
0000FF0001FE0000000007800000000000003C003C00007800780000000000
00000F0001FF0000000007800000000000003C007800007800780000000000
00000F0001EF8000000007800000000000003C007800007800780000000000
00000F0001E780000000078000000000000038007800007800F00000000000
00000F0001E7C000000007800000000000003800F000007800F00000000000
00000F0001E3E000000007800000000000007800F000007800F00000000000
00000F0001E1F000000007800000000000007800F000007801E00000000000
00000F0001E0FFFFFFFFFF800000000000007801E000007801E00000000000
00000F0001E07FFFFFFFFF800000000000007801E000007801E00000000000
00000F0001E03FFFFFFFFF800000000000007801E000007801E00000000000
00000F0001E03FFFFFFFFF800000000000007801E000007801E00000000000
00000F0001E01E0000003C000000000000007801E000007801E00000000000
00000F0001E01E0000003C000000000000007801C000007803E00000000000
00000F0001E01E0000003C000000000000007801C000007803C00000000000
00000F0001E01E0000003C000000000000007801C000007803C00000000000
00000F0001E01E0000003C000000000000007803C000007803C00000000000
00000F0001E01E0000003C000000000000007803C000007803C00000000000
00000F0001FFFFFFFFFFFF800000000000007803C000007803C00000000000
00000F0001FFFFFFFFFFFF800000000000007803C000007803C00000000000
00000F0001FFFFFFFFFFFF800000000000007803C000007803C00000000000
00000F0001FFFFFFFFFFFF800000000000007803C000007803C00000000000
00000F0003F00000000007800000000000007803C000007803C00000000000
00000F0003F00000000007800000000000007803C000007803C00000000000
00000F0003F00000000007800000000000007803C000007803C00000000000
00000F0003F00000000007800000000000007803C000007803C00000000000
00000F0003F00000000007800000000000007801E000007803C00000000000
00000F0003F00000000007800000000000007801E000007803E00000000000
00000F0003F00000000007800000000000007801E000007801E00000000000
00000F0003F00000000007800000000000003801E000007801E00000000000
00000F0003F00000000007800000000000003800E000007801E00000000000
00000F0007F00000000007800000000000003800E000007801F00000000000
00000F0007F00000000007800000000000003C00F000007800F00000000000
00000F0007F00000000007800000000000003C00F000003C00F00000000000
00000F0007F00000000007800000000000003C007000003C00F00000000000
00000F0007F00000000007800000000000003C007800003C00780000000000
00001F0007F00000000007800000000000001C007800003C00780000000000
00003F800FF00000000007800000000000001C007C00003C007C0000000000
00007FE00FF00000000007800000000000001E00FC00003C00FC0000000000
0000FFF00FF00000000007800000000000001E01FE00001E01FE0000000000
0001F9F80FF00000000007800000000000001E03FE00001E07FE0000000000
0003F0FE0FF00000000007800000000000001E07FF00001E0FFF0000000000
0007E03F1FF00000000007800000000000000E1F8F00001E1F9F0000000000
000F801FDFF00000000007800000000000000F3F0780001E3F0F8000000000
001F000FFFF00000000007800000000000000FFE07C0000FFE07C000000000
003E0003FFF00000000007800000000000000FFC03E0000FFC07C000000000
007C0001FEF000000000078000000000000007F801F0000FF003E000000000
00F80000FCF000000000078000000000000007E001F0000FE001F000000000
01F000007CF000000000078000000000000007C000F80007C000F800000000
03E000007CF000000000078000000000000007C0007C0007C0007C00000000
07C0000C78F000000000078000000000000003C1C03F0007C1C07F00000000
0F80003EF8F000000000078000000000000003C3E03F8007C3E03F80000000
1FFFFFFFFFFFFFFFFFFFFF8000000000000003FFFFFFFFFFFFFFFFC0000000
3FFFFFFFFFFFFFFFFFFFFF8000000000000001FFFFFFFFFFFFFFFFF0000000
7FFFFFFFFFFFFFFFFFFFFF8000000000000001FFFFFFFFFFFFFFFFFC000000
FFFFFFFFFFFFFFFFFFFFFF8000000000000000FFFFFFFFFFFFFFFFFC000000
ENDCHAR
ENDFONT
