STARTFONT 2.1
FONT -MIT-OLDERA KST-Medium-R-Normal--15-5-200-200-P-15-ISO8859-1
SIZE 5 200 200
FONTBOUNDINGBOX 15 15 -11 -6
STARTPROPERTIES 17
ADD_STYLE_NAME ""
AVERAGE_WIDTH 15
CHARSET_ENCODING "1"
CHARSET_REGISTRY "ISO8859"
DEFAULT_CHAR 0
FAMILY "OLDERA KST"
FONT_ASCENT 9
FONT_DESCENT 6
FOUNDRY "MIT"
PIXEL_SIZE 15
POINT_SIZE 5
RESOLUTION_X 200
RESOLUTION_Y 200
SETWIDTH_NAME "Normal"
SLANT "R"
SPACING "P"
WEIGHT_NAME "Medium"
ENDPROPERTIES
CHARS 64
STARTCHAR char32
ENCODING 32
SWIDTH 3000 0
DWIDTH 15 0
BBX 1 15 0 -6
BITMAP
00
00
00
00
00
00
00
00
00
00
00
00
00
00
00
ENDCHAR
STARTCHAR char33
ENCODING 33
SWIDTH 3000 0
DWIDTH 15 0
BBX 1 15 0 -6
BITMAP
00
00
00
00
00
00
00
00
00
00
00
00
00
00
00
ENDCHAR
STARTCHAR char65
ENCODING 65
SWIDTH 3000 0
DWIDTH 15 0
BBX 4 15 11 -6
BITMAP
30
70
F0
B0
30
30
30
30
10
00
00
00
00
00
00
ENDCHAR
STARTCHAR char66
ENCODING 66
SWIDTH 3000 0
DWIDTH 15 0
BBX 15 15 0 -6
BITMAP
0000
0000
0000
0000
C002
C006
FFFE
7FFC
0000
0000
0300
0300
0000
0000
0000
ENDCHAR
STARTCHAR char67
ENCODING 67
SWIDTH 3000 0
DWIDTH 15 0
BBX 15 15 0 -6
BITMAP
0000
0000
0000
0000
C002
C006
FFFE
7FFC
0000
0660
0660
0000
0180
0180
0000
ENDCHAR
STARTCHAR char68
ENCODING 68
SWIDTH 3000 0
DWIDTH 15 0
BBX 15 15 0 -6
BITMAP
0000
0000
0CC0
0CC0
C002
C006
FFFE
7FFC
0000
0000
0000
0000
0000
0000
0000
ENDCHAR
STARTCHAR char69
ENCODING 69
SWIDTH 3000 0
DWIDTH 15 0
BBX 15 15 0 -6
BITMAP
0200
0200
0380
0280
C782
C006
FFFE
7FFC
0000
0000
0000
0000
0000
0000
0000
ENDCHAR
STARTCHAR char70
ENCODING 70
SWIDTH 3000 0
DWIDTH 15 0
BBX 15 15 0 -6
BITMAP
0000
0300
0300
0CC0
CCC2
C006
FFFE
7FFC
0000
0000
0000
0000
0000
0000
0000
ENDCHAR
STARTCHAR char71
ENCODING 71
SWIDTH 3000 0
DWIDTH 15 0
BBX 8 15 7 -6
BITMAP
00
00
00
00
00
00
7F
FF
06
18
30
66
66
60
30
ENDCHAR
STARTCHAR char72
ENCODING 72
SWIDTH 3000 0
DWIDTH 15 0
BBX 11 15 4 -6
BITMAP
0000
0000
0000
0000
0000
0000
7F00
FF00
0600
1800
3000
6660
6660
6180
3180
ENDCHAR
STARTCHAR char73
ENCODING 73
SWIDTH 3000 0
DWIDTH 15 0
BBX 8 15 7 -6
BITMAP
00
00
00
00
00
00
7F
FF
06
18
30
60
60
60
30
ENDCHAR
STARTCHAR char74
ENCODING 74
SWIDTH 3000 0
DWIDTH 15 0
BBX 8 15 7 -6
BITMAP
00
00
00
0C
0C
00
7F
FF
06
18
30
60
60
60
30
ENDCHAR
STARTCHAR char75
ENCODING 75
SWIDTH 3000 0
DWIDTH 15 0
BBX 7 15 8 -6
BITMAP
00
00
00
00
70
1C
06
06
38
E0
00
00
00
00
00
ENDCHAR
STARTCHAR char76
ENCODING 76
SWIDTH 3000 0
DWIDTH 15 0
BBX 7 15 8 -6
BITMAP
00
E0
E0
00
70
1C
06
06
38
E0
00
00
00
00
00
ENDCHAR
STARTCHAR char77
ENCODING 77
SWIDTH 3000 0
DWIDTH 15 0
BBX 8 15 7 -6
BITMAP
00
00
00
00
00
00
01
03
03
06
7C
F8
00
00
00
ENDCHAR
STARTCHAR char78
ENCODING 78
SWIDTH 3000 0
DWIDTH 15 0
BBX 8 15 7 -6
BITMAP
00
00
00
00
38
38
01
03
03
06
7C
F8
00
00
00
ENDCHAR
STARTCHAR char79
ENCODING 79
SWIDTH 3000 0
DWIDTH 15 0
BBX 15 15 0 -6
BITMAP
0000
0000
0000
0000
0000
01B6
01B6
81FC
C0C0
C0C0
C180
7F00
3E00
0000
0000
ENDCHAR
STARTCHAR char80
ENCODING 80
SWIDTH 3000 0
DWIDTH 15 0
BBX 15 15 0 -6
BITMAP
0060
0060
0198
0198
0000
01B6
01B6
81FC
C0C0
C0C0
C180
7F00
3E00
0000
0000
ENDCHAR
STARTCHAR char81
ENCODING 81
SWIDTH 3000 0
DWIDTH 15 0
BBX 15 15 0 -6
BITMAP
0000
0000
0000
0078
00EC
00C6
03FE
81FC
C0C0
C0C0
C180
7F00
3E00
0000
0000
ENDCHAR
STARTCHAR char82
ENCODING 82
SWIDTH 3000 0
DWIDTH 15 0
BBX 15 15 0 -6
BITMAP
0000
0E00
0E78
00EC
00C6
03FE
81FC
C0C0
C0C0
C180
7F00
3E00
0000
0000
0000
ENDCHAR
STARTCHAR char83
ENCODING 83
SWIDTH 3000 0
DWIDTH 15 0
BBX 12 15 3 -6
BITMAP
0C00
0600
0600
07C0
07E0
0C30
3FF0
FFE0
0000
0000
0000
0000
0000
0000
0000
ENDCHAR
STARTCHAR char84
ENCODING 84
SWIDTH 3000 0
DWIDTH 15 0
BBX 9 15 6 -6
BITMAP
0000
0000
0780
0F80
0C00
0C00
1F80
3F80
6000
C000
C000
C000
FF00
7E00
0000
ENDCHAR
STARTCHAR char85
ENCODING 85
SWIDTH 3000 0
DWIDTH 15 0
BBX 10 15 5 -6
BITMAP
0000
E000
E3C0
07C0
0C00
0C00
0FC0
1FC0
3000
C000
C000
C000
7F80
3F00
0000
ENDCHAR
STARTCHAR char86
ENCODING 86
SWIDTH 3000 0
DWIDTH 15 0
BBX 12 15 3 -6
BITMAP
00E0
00E0
0000
00F0
80F0
C030
FFF0
7FE0
0000
0000
0000
0000
0000
0000
0000
ENDCHAR
STARTCHAR char87
ENCODING 87
SWIDTH 3000 0
DWIDTH 15 0
BBX 11 15 4 -6
BITMAP
0000
0000
0D80
0D80
0000
0780
07C0
07C0
80C0
C060
C060
C060
60C0
3FC0
1F80
ENDCHAR
STARTCHAR char88
ENCODING 88
SWIDTH 3000 0
DWIDTH 15 0
BBX 12 15 3 -6
BITMAP
0000
07F0
07F0
0300
01C0
80E0
FFE0
7FC0
0000
0000
0000
0000
0000
0000
0000
ENDCHAR
STARTCHAR char89
ENCODING 89
SWIDTH 3000 0
DWIDTH 15 0
BBX 9 15 6 -6
BITMAP
0000
0000
0100
0180
0180
0180
0180
0180
4180
C180
C180
C180
7F00
3E00
0000
ENDCHAR
STARTCHAR char90
ENCODING 90
SWIDTH 3000 0
DWIDTH 15 0
BBX 7 15 8 -6
BITMAP
00
00
00
00
1C
0E
1E
70
C0
C0
C0
C0
C0
C0
C0
ENDCHAR
STARTCHAR char91
ENCODING 91
SWIDTH 3000 0
DWIDTH 15 0
BBX 9 15 6 -6
BITMAP
0000
0000
0000
0000
1C00
1C00
8180
C180
C180
C180
7300
3C00
0000
0000
0000
ENDCHAR
STARTCHAR char92
ENCODING 92
SWIDTH 3000 0
DWIDTH 15 0
BBX 7 15 8 -6
BITMAP
00
00
00
0E
1E
1E
06
06
7C
F8
00
00
00
00
00
ENDCHAR
STARTCHAR char93
ENCODING 93
SWIDTH 3000 0
DWIDTH 15 0
BBX 10 15 5 -6
BITMAP
0000
0000
0000
0000
0000
0F00
7F80
FFC0
30C0
30C0
30C0
1F80
0F00
0600
0000
ENDCHAR
STARTCHAR char94
ENCODING 94
SWIDTH 3000 0
DWIDTH 15 0
BBX 14 15 1 -6
BITMAP
0000
0000
0000
0000
0000
0000
00FC
01FC
2180
6060
C060
70C0
3F80
1F00
0000
ENDCHAR
STARTCHAR char95
ENCODING 95
SWIDTH 3000 0
DWIDTH 15 0
BBX 13 15 2 -6
BITMAP
0000
0000
0000
0000
0000
0000
0FF8
3FF0
C000
7FE0
3FC0
0000
0000
0000
0000
ENDCHAR
STARTCHAR char97
ENCODING 97
SWIDTH 3000 0
DWIDTH 15 0
BBX 15 15 0 -6
BITMAP
0706
0406
0306
0406
0006
000E
FFFE
FFFC
0000
0000
0000
0000
0000
0000
0000
ENDCHAR
STARTCHAR char98
ENCODING 98
SWIDTH 3000 0
DWIDTH 15 0
BBX 15 15 0 -6
BITMAP
0000
0000
0000
0000
000C
0006
FFFE
FFFC
0000
01C0
01C0
0000
0000
0000
0000
ENDCHAR
STARTCHAR char99
ENCODING 99
SWIDTH 3000 0
DWIDTH 15 0
BBX 15 15 0 -6
BITMAP
0000
0000
0000
0000
000C
0006
FFFE
FFFC
0000
0E38
0E38
0000
01C0
01C0
0000
ENDCHAR
STARTCHAR char100
ENCODING 100
SWIDTH 3000 0
DWIDTH 15 0
BBX 15 15 0 -6
BITMAP
0000
0000
1CE0
1CE0
000C
0006
FFFE
FFFC
0000
0000
0000
0000
0000
0000
0000
ENDCHAR
STARTCHAR char101
ENCODING 101
SWIDTH 3000 0
DWIDTH 15 0
BBX 15 15 0 -6
BITMAP
0200
0200
0380
0280
078C
0006
FFFE
FFFC
0000
0000
0000
0000
0000
0000
0000
ENDCHAR
STARTCHAR char102
ENCODING 102
SWIDTH 3000 0
DWIDTH 15 0
BBX 15 15 0 -6
BITMAP
0000
0700
0700
38E0
38EC
0006
FFFE
FFFC
0000
0000
0000
0000
0000
0000
0000
ENDCHAR
STARTCHAR char103
ENCODING 103
SWIDTH 3000 0
DWIDTH 15 0
BBX 15 15 0 -6
BITMAP
0000
0000
0180
03E0
0638
000E
FFFE
FFFC
0000
0700
0700
0000
0000
0000
0000
ENDCHAR
STARTCHAR char104
ENCODING 104
SWIDTH 3000 0
DWIDTH 15 0
BBX 15 15 0 -6
BITMAP
0000
0000
0180
03E0
0638
000E
FFFE
FFFC
0000
0E38
0E38
0000
01C0
01C0
0000
ENDCHAR
STARTCHAR char105
ENCODING 105
SWIDTH 3000 0
DWIDTH 15 0
BBX 15 15 0 -6
BITMAP
0000
0000
0180
03E0
0638
000E
FFFE
FFFC
0000
0000
0000
0000
0000
0000
0000
ENDCHAR
STARTCHAR char106
ENCODING 106
SWIDTH 3000 0
DWIDTH 15 0
BBX 15 15 0 -6
BITMAP
3800
3800
0180
03E0
0638
000E
FFFE
FFFC
0000
0000
0000
0000
0000
0000
0000
ENDCHAR
STARTCHAR char107
ENCODING 107
SWIDTH 3000 0
DWIDTH 15 0
BBX 7 15 8 -6
BITMAP
20
38
28
78
00
1C
06
06
38
E0
00
00
00
00
00
ENDCHAR
STARTCHAR char108
ENCODING 108
SWIDTH 3000 0
DWIDTH 15 0
BBX 9 15 4 -6
BITMAP
0000
0000
0000
0000
0000
0F00
1800
0F80
3000
C000
0000
0000
0000
0000
0000
ENDCHAR
STARTCHAR char109
ENCODING 109
SWIDTH 3000 0
DWIDTH 15 0
BBX 8 15 7 -6
BITMAP
04
04
07
05
0F
00
01
03
03
06
7C
F8
00
00
00
ENDCHAR
STARTCHAR char110
ENCODING 110
SWIDTH 3000 0
DWIDTH 15 0
BBX 9 15 6 -6
BITMAP
1C00
1C00
0000
E380
E380
0000
0080
0180
0180
0300
7E00
FC00
0000
0000
0000
ENDCHAR
STARTCHAR char111
ENCODING 111
SWIDTH 3000 0
DWIDTH 15 0
BBX 15 15 0 -6
BITMAP
0000
0000
0000
0000
01B6
19B6
FFFE
E7FC
0000
0000
0000
0000
0000
0000
0000
ENDCHAR
STARTCHAR char112
ENCODING 112
SWIDTH 3000 0
DWIDTH 15 0
BBX 15 15 0 -6
BITMAP
0300
0300
0CC0
0CC0
01B6
19B6
FFFE
E7FC
0000
0000
0000
0000
0000
0000
0000
ENDCHAR
STARTCHAR char113
ENCODING 113
SWIDTH 3000 0
DWIDTH 15 0
BBX 15 15 0 -6
BITMAP
0000
0000
0000
0078
00EC
18C6
FFFE
E7FC
0000
0000
0000
0000
0000
0000
0000
ENDCHAR
STARTCHAR char114
ENCODING 114
SWIDTH 3000 0
DWIDTH 15 0
BBX 15 15 0 -6
BITMAP
0000
0000
0E00
0E78
00EC
18C6
FFFE
E7FC
0000
0000
0000
0000
0000
0000
0000
ENDCHAR
STARTCHAR char115
ENCODING 115
SWIDTH 3000 0
DWIDTH 15 0
BBX 12 15 3 -6
BITMAP
0C70
0670
0600
07C0
07E0
0C30
3FF0
FFE0
0000
0000
0000
0000
0000
0000
0000
ENDCHAR
STARTCHAR char116
ENCODING 116
SWIDTH 3000 0
DWIDTH 15 0
BBX 15 15 0 -6
BITMAP
0000
0078
00FC
0184
0180
00C0
FFFE
FFFC
0000
0000
0000
0000
0000
0000
0000
ENDCHAR
STARTCHAR char117
ENCODING 117
SWIDTH 3000 0
DWIDTH 15 0
BBX 15 15 0 -6
BITMAP
3800
3878
00FC
0184
0180
00C0
FFFE
FFFC
0000
0000
0000
0000
0000
0000
0000
ENDCHAR
STARTCHAR char118
ENCODING 118
SWIDTH 3000 0
DWIDTH 15 0
BBX 15 15 0 -6
BITMAP
0700
0700
0018
003C
003C
0006
FFFE
FFFC
0000
0000
0000
0000
0000
0000
0000
ENDCHAR
STARTCHAR char119
ENCODING 119
SWIDTH 3000 0
DWIDTH 15 0
BBX 15 15 0 -6
BITMAP
7380
7380
0018
003C
003C
0006
FFFE
FFFC
0000
0000
0000
0000
0000
0000
0000
ENDCHAR
STARTCHAR char120
ENCODING 120
SWIDTH 3000 0
DWIDTH 15 0
BBX 13 15 0 -6
BITMAP
07F8
07F8
0000
07F8
00C0
0030
FFF8
7FF0
0000
0000
0000
0000
0000
0000
0000
ENDCHAR
STARTCHAR char121
ENCODING 121
SWIDTH 3000 0
DWIDTH 15 0
BBX 15 15 0 -6
BITMAP
0006
0006
0006
0006
0006
000E
FFFE
FFFC
0000
0000
0000
0000
0000
0000
0000
ENDCHAR
STARTCHAR char122
ENCODING 122
SWIDTH 3000 0
DWIDTH 15 0
BBX 15 15 0 -6
BITMAP
0000
0000
0000
0000
0038
007C
FFFE
FFFC
0038
0000
0000
0000
0000
0000
0000
ENDCHAR
STARTCHAR char123
ENCODING 123
SWIDTH 3000 0
DWIDTH 15 0
BBX 15 15 0 -6
BITMAP
0380
0386
0006
0006
0006
0006
FFFE
FFFC
0000
0000
0000
0000
0000
0000
0000
ENDCHAR
STARTCHAR char124
ENCODING 124
SWIDTH 3000 0
DWIDTH 15 0
BBX 9 15 4 -6
BITMAP
0000
0000
0000
0000
0000
0000
8180
C180
C180
C180
7300
3C00
0000
0000
0000
ENDCHAR
STARTCHAR char125
ENCODING 125
SWIDTH 3000 0
DWIDTH 15 0
BBX 15 15 0 -6
BITMAP
0000
0000
0000
0000
07E0
0E30
FFFE
FFFC
0730
03E0
0000
0000
0000
0000
0000
ENDCHAR
STARTCHAR char126
ENCODING 126
SWIDTH 3000 0
DWIDTH 15 0
BBX 15 15 0 -6
BITMAP
0000
0000
0000
0000
000C
0006
FFFE
FFFC
0000
1CE0
1CE0
0000
0000
0000
0000
ENDCHAR
STARTCHAR char127
ENCODING 127
SWIDTH 3000 0
DWIDTH 15 0
BBX 13 15 2 -6
BITMAP
0000
0000
0000
0000
0000
0000
3FF8
7FF8
C000
C000
0000
0000
0000
0000
0000
ENDCHAR
ENDFONT
