STARTFONT 2.1
FONT -MIT-PLUNK KST-Medium-R-Normal--30-10-200-200-P-18-ISO8859-1
SIZE 10 200 200
FONTBOUNDINGBOX 20 30 -2 -9
STARTPROPERTIES 17
ADD_STYLE_NAME ""
AVERAGE_WIDTH 18
CHARSET_ENCODING "1"
CHARSET_REGISTRY "ISO8859"
DEFAULT_CHAR 0
FAMILY "PLUNK KST"
FONT_ASCENT 21
FONT_DESCENT 9
FOUNDRY "MIT"
PIXEL_SIZE 30
POINT_SIZE 10
RESOLUTION_X 200
RESOLUTION_Y 200
SETWIDTH_NAME "Normal"
SLANT "R"
SPACING "P"
WEIGHT_NAME "Medium"
ENDPROPERTIES
CHARS 95
STARTCHAR char0
ENCODING 0
SWIDTH 2000 0
DWIDTH 20 0
BBX 20 30 0 -9
BITMAP
C30C30
E79E70
3CF3C0
186180
3CF3C0
E79E70
C30C30
E79E70
3CF3C0
186180
3CF3C0
E79E70
C30C30
E79E70
3CF3C0
186180
3CF3C0
E79E70
C30C30
E79E70
3CF3C0
186180
3CF3C0
E79E70
C30C30
E79E70
3CF3C0
186180
3CF3C0
E79E70
ENDCHAR
STARTCHAR char32
ENCODING 32
SWIDTH 2000 0
DWIDTH 20 0
BBX 16 30 2 -9
BITMAP
0000
0000
0000
0000
0000
0000
0000
0000
0000
0000
0000
0000
0000
0000
0000
0000
C003
C003
C003
FFFF
FFFF
0000
0000
0000
0000
0000
0000
0000
0000
0000
ENDCHAR
STARTCHAR char33
ENCODING 33
SWIDTH 1800 0
DWIDTH 18 0
BBX 14 30 2 -9
BITMAP
0000
0300
0780
0780
0300
0300
0300
6318
FFFC
FFFC
6318
0300
0300
0300
0300
0300
0300
0300
0300
0300
0300
0000
0000
0000
0000
0000
0000
0000
0000
0000
ENDCHAR
STARTCHAR char34
ENCODING 34
SWIDTH 1100 0
DWIDTH 11 0
BBX 7 30 2 -9
BITMAP
00
00
7C
FE
C6
C6
C6
FE
7C
00
00
00
00
00
00
00
00
00
00
00
00
00
00
00
00
00
00
00
00
00
ENDCHAR
STARTCHAR char35
ENCODING 35
SWIDTH 2400 0
DWIDTH 24 0
BBX 20 30 2 -9
BITMAP
000000
000000
000000
000000
000000
000000
000000
000000
000F00
1C3FC0
7F70E0
E3E070
C1C030
C1C030
E3E070
7F70E0
1C3FC0
000F00
000000
000000
000000
000000
000000
000000
000000
000000
000000
000000
000000
000000
ENDCHAR
STARTCHAR char36
ENCODING 36
SWIDTH 1600 0
DWIDTH 16 0
BBX 12 30 2 -9
BITMAP
0000
0000
0000
0000
00C0
00C0
0180
0180
1FC0
3FE0
7370
E330
C300
C600
C600
E630
7670
3FE0
1F80
0C00
0C00
1800
1800
0000
0000
0000
0000
0000
0000
0000
ENDCHAR
STARTCHAR char37
ENCODING 37
SWIDTH 1700 0
DWIDTH 17 0
BBX 13 30 2 -9
BITMAP
0000
0000
0000
0000
0000
0000
0000
0700
0700
0700
0000
0000
FFF8
FFF8
0000
0000
0700
0700
0700
0000
0000
0000
0000
0000
0000
0000
0000
0000
0000
0000
ENDCHAR
STARTCHAR char38
ENCODING 38
SWIDTH 2100 0
DWIDTH 21 0
BBX 17 30 2 -9
BITMAP
000000
000000
01C000
01C000
036000
036000
063000
063000
063000
0C1800
0C1800
180C00
180C00
300600
300600
300600
600300
600300
C00180
C00180
C00180
000000
000000
000000
000000
000000
000000
000000
000000
000000
ENDCHAR
STARTCHAR char39
ENCODING 39
SWIDTH 800 0
DWIDTH 8 0
BBX 4 30 2 -9
BITMAP
00
00
00
00
00
00
00
00
00
00
60
F0
F0
60
00
00
00
00
00
00
00
00
00
00
00
00
00
00
00
00
ENDCHAR
STARTCHAR char40
ENCODING 40
SWIDTH 1100 0
DWIDTH 11 0
BBX 7 30 2 -9
BITMAP
00
06
06
0C
0C
18
18
30
30
60
60
C0
60
60
30
30
18
18
0C
0C
06
06
00
00
00
00
00
00
00
00
ENDCHAR
STARTCHAR char41
ENCODING 41
SWIDTH 1100 0
DWIDTH 11 0
BBX 7 30 2 -9
BITMAP
00
C0
C0
60
60
30
30
18
18
0C
0C
06
0C
0C
18
18
30
30
60
60
C0
C0
00
00
00
00
00
00
00
00
ENDCHAR
STARTCHAR char42
ENCODING 42
SWIDTH 800 0
DWIDTH 8 0
BBX 4 30 2 -9
BITMAP
00
00
00
00
00
00
00
00
00
00
60
F0
F0
60
00
00
00
00
00
00
00
00
00
00
00
00
00
00
00
00
ENDCHAR
STARTCHAR char43
ENCODING 43
SWIDTH 1800 0
DWIDTH 18 0
BBX 14 30 2 -9
BITMAP
0000
0000
0000
0000
0000
0000
0000
0300
0300
0300
0300
0300
FFFC
FFFC
0300
0300
0300
0300
0300
FFFC
FFFC
0000
0000
0000
0000
0000
0000
0000
0000
0000
ENDCHAR
STARTCHAR char44
ENCODING 44
SWIDTH 1800 0
DWIDTH 18 0
BBX 14 30 2 -9
BITMAP
0000
0000
0000
0000
0000
0000
0000
FF80
FFE0
0070
0038
0018
001C
3FFC
3FFC
001C
0018
0038
0070
FFE0
FF80
0000
0000
0000
0000
0000
0000
0000
0000
0000
ENDCHAR
STARTCHAR char45
ENCODING 45
SWIDTH 1800 0
DWIDTH 18 0
BBX 14 30 2 -9
BITMAP
0000
0000
0000
0000
0000
0000
0000
FFFC
FFFC
0300
0300
0300
0300
0300
FFFC
FFFC
0300
0300
0300
0300
0300
0000
0000
0000
0000
0000
0000
0000
0000
0000
ENDCHAR
STARTCHAR char46
ENCODING 46
SWIDTH 1900 0
DWIDTH 19 0
BBX 15 30 2 -9
BITMAP
0000
0000
0000
0000
0000
0000
0000
0380
07C0
07C0
0380
0000
0000
0000
0000
0000
0000
701C
F83E
F83E
701C
0000
0000
0000
0000
0000
0000
0000
0000
0000
ENDCHAR
STARTCHAR char47
ENCODING 47
SWIDTH 2300 0
DWIDTH 23 0
BBX 19 30 2 -9
BITMAP
000000
000000
03F800
0FFE00
1C0700
380380
7007C0
600EC0
C01C60
C03860
C07060
C0E060
C1C060
C38060
C70060
6E00C0
7C01C0
380380
1C0700
0FFE00
03F800
000000
000000
000000
000000
000000
000000
000000
000000
000000
ENDCHAR
STARTCHAR char48
ENCODING 48
SWIDTH 2300 0
DWIDTH 23 0
BBX 19 30 2 -9
BITMAP
000000
000000
03F800
0FFE00
1C0700
380380
7001C0
6000C0
C00060
C00060
C00060
C00060
C00060
C00060
C00060
6000C0
7001C0
380380
1C0700
0FFE00
03F800
000000
000000
000000
000000
000000
000000
000000
000000
000000
ENDCHAR
STARTCHAR char49
ENCODING 49
SWIDTH 2300 0
DWIDTH 23 0
BBX 19 30 2 -9
BITMAP
000000
000000
FFFFE0
FFFFE0
C00060
C00060
C00060
C00060
C00060
C00060
C00060
C00060
C00060
C00060
C00060
C00060
C00060
C00060
C00060
FFFFE0
FFFFE0
000000
000000
000000
000000
000000
000000
000000
000000
000000
ENDCHAR
STARTCHAR char50
ENCODING 50
SWIDTH 2400 0
DWIDTH 24 0
BBX 20 30 1 -9
BITMAP
000000
000000
006000
00F000
00F000
019800
019800
030C00
030C00
060600
060600
0C0300
0C0300
180180
180180
3000C0
3000C0
600060
600060
FFFFF0
FFFFF0
000000
000000
000000
000000
000000
000000
000000
000000
000000
ENDCHAR
STARTCHAR char51
ENCODING 51
SWIDTH 2500 0
DWIDTH 25 0
BBX 21 30 2 -9
BITMAP
000000
002000
007000
00F800
01DC00
038E00
070700
0E0380
1C01C0
3800E0
700070
E00038
700070
3800E0
1C01C0
0E0380
070700
038E00
01DC00
00F800
007000
002000
000000
000000
000000
000000
000000
000000
000000
000000
ENDCHAR
STARTCHAR char52
ENCODING 52
SWIDTH 2300 0
DWIDTH 23 0
BBX 19 30 2 -9
BITMAP
000000
000000
03F800
0FFE00
1CE700
38E380
70E1C0
60E0C0
C0E060
C0E060
FFFFE0
FFFFE0
FFFFE0
C0E060
C0E060
60E0C0
70E1C0
38E380
1CE700
0FFE00
03F800
000000
000000
000000
000000
000000
000000
000000
000000
000000
ENDCHAR
STARTCHAR char53
ENCODING 53
SWIDTH 2300 0
DWIDTH 23 0
BBX 19 30 2 -9
BITMAP
000000
000000
03F800
0FFE00
1C0700
380380
7001C0
6000C0
C00060
C00060
FFFFE0
FFFFE0
FFFFE0
C00060
C00060
6000C0
7001C0
380380
1C0700
0FFE00
03F800
000000
000000
000000
000000
000000
000000
000000
000000
000000
ENDCHAR
STARTCHAR char54
ENCODING 54
SWIDTH 2300 0
DWIDTH 23 0
BBX 19 30 2 -9
BITMAP
000000
000000
03F800
0FFE00
1C0700
380380
7C07C0
6E0EC0
C71C60
C3B860
C1F060
C0E060
C1F060
C3B860
C71C60
6E0EC0
7C07C0
380380
1C0700
0FFE00
03F800
000000
000000
000000
000000
000000
000000
000000
000000
000000
ENDCHAR
STARTCHAR char55
ENCODING 55
SWIDTH 2000 0
DWIDTH 20 0
BBX 16 30 2 -9
BITMAP
0000
0000
07E0
1FF8
381C
6006
6006
C003
C003
C003
C003
C003
C003
C003
C003
C003
C003
C003
C003
C003
C003
0000
0000
0000
0000
0000
0000
0000
0000
0000
ENDCHAR
STARTCHAR char56
ENCODING 56
SWIDTH 2100 0
DWIDTH 21 0
BBX 17 30 2 -9
BITMAP
000000
000000
000000
000000
008000
008000
01C000
01C000
03E000
03E000
FFFF80
7FFF00
1FFC00
0FF800
0FF800
1FFC00
1F7C00
3E3E00
380E00
200200
000000
000000
000000
000000
000000
000000
000000
000000
000000
000000
ENDCHAR
STARTCHAR char57
ENCODING 57
SWIDTH 1100 0
DWIDTH 11 0
BBX 7 30 2 -9
BITMAP
00
00
00
00
00
00
00
00
00
38
7C
FE
FE
7C
38
00
00
00
00
00
00
00
00
00
00
00
00
00
00
00
ENDCHAR
STARTCHAR char58
ENCODING 58
SWIDTH 1700 0
DWIDTH 17 0
BBX 13 30 2 -9
BITMAP
0000
0000
0000
0000
0000
0000
0000
0000
0000
0000
7070
F8F8
F8F8
7070
0000
0000
0000
0000
0000
0000
0000
0000
0000
0000
0000
0000
0000
0000
0000
0000
ENDCHAR
STARTCHAR char59
ENCODING 59
SWIDTH 1100 0
DWIDTH 11 0
BBX 7 30 2 -9
BITMAP
00
FE
FE
FE
FE
FE
FE
FE
FE
FE
FE
FE
FE
FE
FE
FE
FE
FE
FE
FE
FE
FE
00
00
00
00
00
00
00
00
ENDCHAR
STARTCHAR char60
ENCODING 60
SWIDTH 2000 0
DWIDTH 20 0
BBX 16 30 2 -9
BITMAP
0000
0000
0007
000E
0038
0070
01C0
0380
0E00
1C00
7000
E000
7000
1C00
0E00
0380
01C0
0070
0038
000E
0007
0000
0000
0000
FFFF
FFFF
0000
0000
0000
0000
ENDCHAR
STARTCHAR char61
ENCODING 61
SWIDTH 1800 0
DWIDTH 18 0
BBX 14 30 2 -9
BITMAP
0000
0000
0000
0000
0000
0000
000C
0018
0030
0060
FFFC
FFFC
0180
0300
0600
FFFC
FFFC
1800
3000
6000
C000
0000
0000
0000
0000
0000
0000
0000
0000
0000
ENDCHAR
STARTCHAR char62
ENCODING 62
SWIDTH 2000 0
DWIDTH 20 0
BBX 16 30 2 -9
BITMAP
0000
0000
E000
7000
1C00
0E00
0380
01C0
0070
0038
000E
0007
000E
0038
0070
01C0
0380
0E00
1C00
7000
E000
0000
0000
0000
FFFF
FFFF
0000
0000
0000
0000
ENDCHAR
STARTCHAR char63
ENCODING 63
SWIDTH 1600 0
DWIDTH 16 0
BBX 12 30 2 -9
BITMAP
0000
0000
0600
0600
0000
0000
0000
0600
0600
0600
0600
0E00
1C00
3800
6000
E030
C030
E070
70E0
3FC0
1F80
0000
0000
0000
0000
0000
0000
0000
0000
0000
ENDCHAR
STARTCHAR char64
ENCODING 64
SWIDTH 2400 0
DWIDTH 24 0
BBX 20 30 2 -9
BITMAP
000000
000000
3E0600
7F0600
E30C00
C00C00
C01800
E31800
7F3000
3E3000
006000
006000
006000
00C3C0
00C7E0
018E70
018C30
030C30
030E70
0607E0
0603C0
000000
000000
000000
000000
000000
000000
000000
000000
000000
ENDCHAR
STARTCHAR char65
ENCODING 65
SWIDTH 2100 0
DWIDTH 21 0
BBX 17 30 2 -9
BITMAP
000000
000000
E00380
E00380
E00380
700700
700700
7FFF00
3FFE00
380E00
380E00
1C1C00
1C1C00
1C1C00
0E3800
0E3800
077000
077000
077000
03E000
03E000
000000
000000
000000
000000
000000
000000
000000
000000
000000
ENDCHAR
STARTCHAR char66
ENCODING 66
SWIDTH 1800 0
DWIDTH 18 0
BBX 14 30 2 -9
BITMAP
0000
0000
0000
0000
0000
0000
0000
07FC
1FFC
3800
7000
E000
C000
FFF0
FFF0
C000
E000
7000
3800
1FFC
07FC
0000
0000
0000
0000
0000
0000
0000
0000
0000
ENDCHAR
STARTCHAR char67
ENCODING 67
SWIDTH 2000 0
DWIDTH 20 0
BBX 16 30 2 -9
BITMAP
0000
0000
07F0
1FFC
318E
6307
6303
C603
C600
C600
C600
C600
C600
C600
C600
C603
6303
6307
318E
1FFC
07F0
0000
0000
0000
0000
0000
0000
0000
0000
0000
ENDCHAR
STARTCHAR char68
ENCODING 68
SWIDTH 2400 0
DWIDTH 24 0
BBX 20 30 2 -9
BITMAP
000000
000000
FFFFF0
FFFFF0
600060
600060
3000C0
3000C0
180180
180180
0C0300
0C0300
060600
060600
030C00
030C00
019800
019800
00F000
00F000
006000
000000
000000
000000
000000
000000
000000
000000
000000
000000
ENDCHAR
STARTCHAR char69
ENCODING 69
SWIDTH 1700 0
DWIDTH 17 0
BBX 13 30 2 -9
BITMAP
0000
FFF8
FFF8
0038
0038
0038
0038
0038
0038
0038
7FF8
7FF8
0038
0038
0038
0038
0038
0038
0038
FFF8
FFF8
0000
0000
0000
0000
0000
0000
0000
0000
0000
ENDCHAR
STARTCHAR char70
ENCODING 70
SWIDTH 1900 0
DWIDTH 19 0
BBX 16 30 2 -9
BITMAP
0000
0000
3C00
7E00
C600
C300
0300
0180
0180
0380
03C0
06C0
06C0
0C60
0C60
1860
1830
3030
3033
601E
600C
0000
0000
0000
0000
0000
0000
0000
0000
0000
ENDCHAR
STARTCHAR char71
ENCODING 71
SWIDTH 1900 0
DWIDTH 19 0
BBX 15 30 2 -9
BITMAP
0000
0000
0000
0000
0000
0000
0000
07FE
1FFE
3800
7000
E000
C000
C000
C000
C000
E000
7000
3800
1FFE
07FE
0000
0000
0000
0000
0000
0000
0000
0000
0000
ENDCHAR
STARTCHAR char72
ENCODING 72
SWIDTH 1900 0
DWIDTH 19 0
BBX 15 30 2 -9
BITMAP
0000
0000
0000
0030
0030
0060
0060
07FE
1FFE
38C0
70C0
E0C0
C180
C180
C180
C180
E300
7300
3B00
1FFE
07FE
0600
0600
0C00
0C00
0000
0000
0000
0000
0000
ENDCHAR
STARTCHAR char73
ENCODING 73
SWIDTH 1900 0
DWIDTH 19 0
BBX 15 30 2 -9
BITMAP
0000
0000
0000
0000
0000
0000
0000
07FE
1FFE
3800
7000
E000
C000
C000
C000
C000
E000
7000
3800
1FFE
07FE
0000
0000
0000
7FFE
7FFE
0000
0000
0000
0000
ENDCHAR
STARTCHAR char74
ENCODING 74
SWIDTH 1900 0
DWIDTH 19 0
BBX 15 30 2 -9
BITMAP
0000
0000
0000
0000
0000
0000
0000
FFC0
FFF0
0038
001C
000C
0006
0006
0006
0006
000C
001C
0038
FFF0
FFC0
0000
0000
0000
0000
0000
0000
0000
0000
0000
ENDCHAR
STARTCHAR char75
ENCODING 75
SWIDTH 1900 0
DWIDTH 19 0
BBX 15 30 2 -9
BITMAP
0000
0000
0000
0060
0060
00C0
00C0
FFC0
FFF0
01B8
019C
018C
0306
0306
0306
0306
060C
061C
0638
FFF0
FFC0
0C00
0C00
1800
1800
0000
0000
0000
0000
0000
ENDCHAR
STARTCHAR char76
ENCODING 76
SWIDTH 1900 0
DWIDTH 19 0
BBX 15 30 2 -9
BITMAP
0000
0000
0000
0000
0000
0000
0000
FFC0
FFF0
0038
001C
000C
0006
0006
0006
0006
000C
001C
0038
FFF0
FFC0
0000
0000
0000
FFFC
FFFC
0000
0000
0000
0000
ENDCHAR
STARTCHAR char77
ENCODING 77
SWIDTH 1900 0
DWIDTH 19 0
BBX 16 30 2 -9
BITMAP
0000
0000
0000
0000
0000
0000
0000
0C18
0C18
0C18
0C18
1830
1830
1830
1830
3060
3060
3063
78C6
7FFC
6F38
6000
C000
C000
C000
C000
0000
0000
0000
0000
ENDCHAR
STARTCHAR char78
ENCODING 78
SWIDTH 1900 0
DWIDTH 19 0
BBX 16 30 2 -9
BITMAP
0000
0000
0000
0018
0018
0030
0030
07FF
1FFF
3860
7060
E0C0
C0C0
FFFC
FFFC
C180
E180
7300
3B00
1FFF
07FF
0600
0600
0C00
0C00
0000
0000
0000
0000
0000
ENDCHAR
STARTCHAR char79
ENCODING 79
SWIDTH 2400 0
DWIDTH 24 0
BBX 20 30 2 -9
BITMAP
000000
000000
000000
000000
000020
000070
0000E0
01F9C0
07FF80
0E0700
1C0F00
181D80
183980
187180
18E180
19C180
1B8180
0F0380
0E0700
1FFE00
39F800
700000
E00000
400000
000000
000000
000000
000000
000000
000000
ENDCHAR
STARTCHAR char80
ENCODING 80
SWIDTH 2600 0
DWIDTH 26 0
BBX 22 30 2 -9
BITMAP
000000
000000
000000
000000
000000
000000
000000
000000
00003C
0F00FC
3FC3C0
70EF80
E07C00
C03800
C03800
E07C00
70EF80
3FC3C0
0F00FC
00003C
000000
000000
000000
000000
000000
000000
000000
000000
000000
000000
ENDCHAR
STARTCHAR char81
ENCODING 81
SWIDTH 1900 0
DWIDTH 19 0
BBX 15 30 2 -9
BITMAP
0000
0000
0000
0000
0000
0000
0C00
1800
3000
FFFE
FFFE
3000
1800
0C00
0060
0030
0018
FFFE
FFFE
0018
0030
0060
0000
0000
0000
0000
0000
0000
0000
0000
ENDCHAR
STARTCHAR char82
ENCODING 82
SWIDTH 1700 0
DWIDTH 17 0
BBX 14 30 2 -9
BITMAP
0000
0000
FFC0
FFF0
CC38
CC18
CC18
CC18
CC18
CC38
CC70
CFE0
CFC0
CC60
CC60
CC30
CC30
CC18
CC18
CC0C
CC0C
0000
0000
0000
0000
0000
0000
0000
0000
0000
ENDCHAR
STARTCHAR char83
ENCODING 83
SWIDTH 2100 0
DWIDTH 21 0
BBX 17 30 2 -9
BITMAP
000000
000000
000000
000000
000000
000000
000000
1F0000
3F8380
71C700
E0FE00
007C00
000000
1F0000
3F8380
71C700
E0FE00
007C00
000000
000000
000000
000000
000000
000000
000000
000000
000000
000000
000000
000000
ENDCHAR
STARTCHAR char84
ENCODING 84
SWIDTH 2000 0
DWIDTH 20 0
BBX 16 30 2 -9
BITMAP
0000
0000
0180
0180
0180
0180
0180
0180
0180
0180
0180
0180
0180
0180
0180
0180
0180
0180
0180
FFFF
FFFF
0000
0000
0000
0000
0000
0000
0000
0000
0000
ENDCHAR
STARTCHAR char85
ENCODING 85
SWIDTH 2000 0
DWIDTH 20 0
BBX 16 30 2 -9
BITMAP
0000
0000
C003
C003
C003
C003
C003
C003
C003
C003
C003
C003
C003
C003
C003
C003
6006
6006
381C
1FF8
07E0
0000
0000
0000
0000
0000
0000
0000
0000
0000
ENDCHAR
STARTCHAR char86
ENCODING 86
SWIDTH 2100 0
DWIDTH 21 0
BBX 17 30 2 -9
BITMAP
000000
000000
C00180
C00180
C00180
600300
600300
300600
300600
300600
180C00
180C00
0C1800
0C1800
063000
063000
063000
036000
036000
01C000
01C000
000000
000000
000000
000000
000000
000000
000000
000000
000000
ENDCHAR
STARTCHAR char87
ENCODING 87
SWIDTH 1800 0
DWIDTH 18 0
BBX 14 30 2 -9
BITMAP
0000
0000
0000
0000
0000
FFFC
FFFC
0000
0000
0000
FFFC
FFFC
0000
0000
0000
FFFC
FFFC
0000
0000
0000
0000
0000
0000
0000
0000
0000
0000
0000
0000
0000
ENDCHAR
STARTCHAR char88
ENCODING 88
SWIDTH 2000 0
DWIDTH 20 0
BBX 16 30 2 -9
BITMAP
0000
0000
0000
0000
0000
0000
0000
E007
700E
381C
1C38
0E70
07E0
03C0
03C0
07E0
0E70
1C38
381C
700E
E007
0000
0000
0000
0000
0000
0000
0000
0000
0000
ENDCHAR
STARTCHAR char89
ENCODING 89
SWIDTH 2300 0
DWIDTH 23 0
BBX 18 30 2 -9
BITMAP
000000
0000C0
0000C0
000180
000180
000300
000300
000600
000600
000C00
000C00
F81800
F81800
0C3000
0C3000
066000
066000
03C000
03C000
018000
018000
000000
000000
000000
000000
000000
000000
000000
000000
000000
ENDCHAR
STARTCHAR char90
ENCODING 90
SWIDTH 1100 0
DWIDTH 11 0
BBX 7 30 2 -9
BITMAP
00
00
00
00
00
00
00
00
80
E0
F0
FC
FE
FC
F0
E0
80
00
00
00
00
00
00
00
00
00
00
00
00
00
ENDCHAR
STARTCHAR char91
ENCODING 91
SWIDTH 1700 0
DWIDTH 17 0
BBX 13 30 2 -9
BITMAP
0000
0000
0038
0038
0070
0070
00E0
01C0
0380
0E00
3C00
F000
3C00
0E00
0380
01C0
00E0
0070
0070
0038
0038
0000
0000
0000
0000
0000
0000
0000
0000
0000
ENDCHAR
STARTCHAR char92
ENCODING 92
SWIDTH 1600 0
DWIDTH 16 0
BBX 12 30 2 -9
BITMAP
0000
03F0
03F0
03F0
07E0
07E0
07E0
0FC0
0FC0
0FC0
1F80
1F80
1F80
3F00
3F00
3F00
7E00
7E00
7E00
FC00
FC00
FC00
0000
0000
0000
0000
0000
0000
0000
0000
ENDCHAR
STARTCHAR char93
ENCODING 93
SWIDTH 1800 0
DWIDTH 18 0
BBX 14 30 2 -9
BITMAP
0000
0000
E000
E000
7000
7000
3800
1C00
0E00
0380
01F0
007C
01F0
0380
0E00
1C00
3800
7000
7000
E000
E000
0000
0000
0000
0000
0000
0000
0000
0000
0000
ENDCHAR
STARTCHAR char94
ENCODING 94
SWIDTH 1200 0
DWIDTH 12 0
BBX 8 30 2 -9
BITMAP
00
00
00
00
00
00
18
18
18
18
18
18
18
18
18
99
DB
7E
3C
18
18
00
00
00
00
00
00
00
00
00
ENDCHAR
STARTCHAR char95
ENCODING 95
SWIDTH 1900 0
DWIDTH 19 0
BBX 15 30 2 -9
BITMAP
0000
0000
0000
0000
0000
0000
0000
0000
0000
0060
0030
0018
FFFE
FFFE
0018
0030
0060
0000
0000
0000
0000
0000
0000
0000
0000
0000
0000
0000
0000
0000
ENDCHAR
STARTCHAR char96
ENCODING 96
SWIDTH 1600 0
DWIDTH 16 0
BBX 1 30 0 -9
BITMAP
00
00
00
00
00
00
00
00
00
00
00
00
00
00
00
00
00
00
00
00
00
00
00
00
00
00
00
00
00
00
ENDCHAR
STARTCHAR char97
ENCODING 97
SWIDTH 2100 0
DWIDTH 21 0
BBX 19 30 1 -9
BITMAP
000000
000000
1C0E00
381C00
7C1E00
7E1F80
7F0FC0
3F87E0
1FCDE0
0FF8E0
1FF1C0
33F800
61FC00
F0FE00
FC7F00
FE3F80
7F1FC0
7F0FC0
7F07C0
7E0380
F80700
000000
000000
000000
000000
000000
000000
000000
000000
000000
ENDCHAR
STARTCHAR char98
ENCODING 98
SWIDTH 2300 0
DWIDTH 23 0
BBX 19 30 2 -9
BITMAP
000000
000000
000000
000000
000000
000000
000000
000000
000000
0F0600
1F8300
39E180
707FE0
E01FE0
400180
000300
000600
000000
000000
000000
000000
000000
000000
000000
000000
000000
000000
000000
000000
000000
ENDCHAR
STARTCHAR char99
ENCODING 99
SWIDTH 2300 0
DWIDTH 23 0
BBX 19 30 2 -9
BITMAP
000000
000000
03F800
0FFE00
1C0700
380380
7001C0
61F0C0
C3F860
C71C60
C60060
C60060
C60060
C71C60
C3F860
61F0C0
7001C0
380380
1C0700
0FFE00
03F800
000000
000000
000000
000000
000000
000000
000000
000000
000000
ENDCHAR
STARTCHAR char100
ENCODING 100
SWIDTH 1700 0
DWIDTH 17 0
BBX 13 30 2 -9
BITMAP
0000
0000
7000
7C00
0F00
0380
01C0
00E0
0060
0770
1FF0
3838
6018
E018
C018
C018
C018
6030
7070
3FE0
0F80
0000
0000
0000
0000
0000
0000
0000
0000
0000
ENDCHAR
STARTCHAR char101
ENCODING 101
SWIDTH 2100 0
DWIDTH 21 0
BBX 17 30 2 -9
BITMAP
000000
000000
000000
000000
000000
000000
000000
000000
000000
0F0000
3F8380
71C700
E0FE00
007C00
000000
000000
000000
FFFF80
FFFF80
000000
000000
000000
000000
000000
000000
000000
000000
000000
000000
000000
ENDCHAR
STARTCHAR char102
ENCODING 102
SWIDTH 2400 0
DWIDTH 24 0
BBX 20 30 2 -9
BITMAP
000000
000000
000000
000000
000000
000000
000000
000000
000000
040200
0E0700
1C0380
3801C0
FFFFF0
FFFFF0
3801C0
1C0380
0E0700
040200
000000
000000
000000
000000
000000
000000
000000
000000
000000
000000
000000
ENDCHAR
STARTCHAR char103
ENCODING 103
SWIDTH 2100 0
DWIDTH 21 0
BBX 17 30 2 -9
BITMAP
000000
000000
000000
000000
000000
000000
000000
006000
003000
001800
FFFC00
FFFE00
000700
000380
000700
FFFE00
FFFC00
001800
003000
006000
000000
000000
000000
000000
000000
000000
000000
000000
000000
000000
ENDCHAR
STARTCHAR char104
ENCODING 104
SWIDTH 1900 0
DWIDTH 19 0
BBX 17 30 1 -9
BITMAP
000000
000000
006000
006380
00CE00
00F800
03E000
0F8000
398000
E1FE00
03FF00
030300
030300
030300
060600
060600
060600
0C0C00
0C0C00
0C0C00
0C0C00
000000
000000
000000
000000
000000
000000
000000
000000
000000
ENDCHAR
STARTCHAR char105
ENCODING 105
SWIDTH 1300 0
DWIDTH 13 0
BBX 9 30 0 -9
BITMAP
FF80
FF80
C000
C000
C000
C000
C000
C000
C000
C000
C000
C000
C000
C000
C000
C000
C000
C000
C000
C000
C000
0000
0000
0000
0000
0000
0000
0000
0000
0000
ENDCHAR
STARTCHAR char106
ENCODING 106
SWIDTH 1300 0
DWIDTH 13 0
BBX 9 30 0 -9
BITMAP
FF80
FF80
0180
0180
0180
0180
0180
0180
0180
0180
0180
0180
0180
0180
0180
0180
0180
0180
0180
0180
0180
0000
0000
0000
0000
0000
0000
0000
0000
0000
ENDCHAR
STARTCHAR char107
ENCODING 107
SWIDTH 1300 0
DWIDTH 13 0
BBX 9 30 2 -9
BITMAP
C000
C000
C000
C000
C000
C000
C000
C000
C000
C000
C000
C000
C000
C000
C000
C000
C000
C000
C000
FF80
FF80
0000
0000
0000
0000
0000
0000
0000
0000
0000
ENDCHAR
STARTCHAR char108
ENCODING 108
SWIDTH 1300 0
DWIDTH 13 0
BBX 9 30 0 -9
BITMAP
0180
0180
0180
0180
0180
0180
0180
0180
0180
0180
0180
0180
0180
0180
0180
0180
0180
0180
0180
FF80
FF80
0000
0000
0000
0000
0000
0000
0000
0000
0000
ENDCHAR
STARTCHAR char109
ENCODING 109
SWIDTH 1100 0
DWIDTH 11 0
BBX 7 30 2 -9
BITMAP
00
00
C6
C6
C6
C6
C6
C6
C6
C6
C6
C6
C6
C6
C6
C6
C6
C6
C6
C6
C6
00
00
00
00
00
00
00
00
00
ENDCHAR
STARTCHAR char110
ENCODING 110
SWIDTH 2300 0
DWIDTH 23 0
BBX 19 30 2 -9
BITMAP
000000
000000
000000
000000
000000
000000
000000
000000
000000
FFFFE0
FFFFE0
000060
000060
000060
000060
000060
000060
000060
000000
000000
000000
000000
000000
000000
000000
000000
000000
000000
000000
000000
ENDCHAR
STARTCHAR char111
ENCODING 111
SWIDTH 1300 0
DWIDTH 13 0
BBX 9 30 2 -9
BITMAP
0000
0000
0000
0000
0000
0000
0000
3E00
7F00
E380
C180
C180
C180
E380
7F00
3E00
0000
0000
0000
0000
0000
0000
0000
0000
0000
0000
0000
0000
0000
0000
ENDCHAR
STARTCHAR char112
ENCODING 112
SWIDTH 2100 0
DWIDTH 21 0
BBX 17 30 2 -9
BITMAP
000000
000000
000000
000000
000000
C00000
C00000
C00000
C00000
C00000
FFFF80
FFFF80
C00000
C00000
C00000
C00000
C00000
000000
000000
000000
000000
000000
000000
000000
000000
000000
000000
000000
000000
000000
ENDCHAR
STARTCHAR char113
ENCODING 113
SWIDTH 2100 0
DWIDTH 21 0
BBX 17 30 2 -9
BITMAP
000000
000000
000000
000000
C00000
C00000
C00000
C00000
FFFF80
FFFF80
C00000
C00000
C00000
FFFF80
FFFF80
C00000
C00000
C00000
C00000
000000
000000
000000
000000
000000
000000
000000
000000
000000
000000
000000
ENDCHAR
STARTCHAR char114
ENCODING 114
SWIDTH 2300 0
DWIDTH 23 0
BBX 19 30 2 -9
BITMAP
000000
000000
03F800
0FFE00
1C0700
300180
6000C0
67F8C0
C7FC60
C60C60
C60C60
C7F860
C7FC60
C60C60
C60C60
660CC0
6000C0
300180
1C0700
0FFE00
03F800
000000
000000
000000
000000
000000
000000
000000
000000
000000
ENDCHAR
STARTCHAR char115
ENCODING 115
SWIDTH 1400 0
DWIDTH 14 0
BBX 10 30 2 -9
BITMAP
0000
0000
0000
0000
0000
0600
0E00
1F00
3F00
6D80
CD80
18C0
1800
1800
3000
3000
3000
6000
6000
0000
0000
0000
0000
0000
0000
0000
0000
0000
0000
0000
ENDCHAR
STARTCHAR char116
ENCODING 116
SWIDTH 1400 0
DWIDTH 14 0
BBX 10 30 2 -9
BITMAP
0000
0000
0000
0000
0000
1800
1C00
3E00
3F00
6D80
6CC0
C600
0600
0600
0300
0300
0300
0180
0180
0000
0000
0000
0000
0000
0000
0000
0000
0000
0000
0000
ENDCHAR
STARTCHAR char117
ENCODING 117
SWIDTH 1500 0
DWIDTH 15 0
BBX 11 30 2 -9
BITMAP
0000
0000
0000
0000
0000
0180
0180
0300
0300
0300
0600
0600
C600
6C60
6DC0
3F00
3E00
1C00
1800
0000
0000
0000
0000
0000
0000
0000
0000
0000
0000
0000
ENDCHAR
STARTCHAR char118
ENCODING 118
SWIDTH 1500 0
DWIDTH 15 0
BBX 11 30 2 -9
BITMAP
0000
0000
0000
0000
0000
3000
3000
1800
1800
1800
0C00
0C00
0C60
C6C0
76C0
1F80
0F80
0700
0300
0000
0000
0000
0000
0000
0000
0000
0000
0000
0000
0000
ENDCHAR
STARTCHAR char119
ENCODING 119
SWIDTH 2200 0
DWIDTH 22 0
BBX 18 30 2 -9
BITMAP
000000
000000
0071C0
00E380
01C700
038E00
071C00
0E3800
1C7000
38E000
71C000
E38000
71C000
38E000
1C7000
0E3800
071C00
038E00
01C700
00E380
0071C0
000000
000000
000000
000000
000000
000000
000000
000000
000000
ENDCHAR
STARTCHAR char120
ENCODING 120
SWIDTH 2200 0
DWIDTH 22 0
BBX 18 30 2 -9
BITMAP
000000
000000
E38000
71C000
38E000
1C7000
0E3800
071C00
038E00
01C700
00E380
0071C0
00E380
01C700
038E00
071C00
0E3800
1C7000
38E000
71C000
E38000
000000
000000
000000
000000
000000
000000
000000
000000
000000
ENDCHAR
STARTCHAR char121
ENCODING 121
SWIDTH 1300 0
DWIDTH 13 0
BBX 9 30 2 -9
BITMAP
0000
0000
0000
0000
0000
0000
0000
0000
0000
0000
0800
1C00
3E00
6300
C180
0000
0000
0000
0000
0000
0000
0000
0000
0000
0000
0000
0000
0000
0000
0000
ENDCHAR
STARTCHAR char122
ENCODING 122
SWIDTH 2100 0
DWIDTH 21 0
BBX 17 30 2 -9
BITMAP
000000
000000
000000
000000
000000
000000
000000
000000
000000
000000
1F0000
3F8380
71C700
E0FE00
007C00
000000
000000
000000
000000
000000
000000
000000
000000
000000
000000
000000
000000
000000
000000
000000
ENDCHAR
STARTCHAR char123
ENCODING 123
SWIDTH 1900 0
DWIDTH 19 0
BBX 15 30 2 -9
BITMAP
0000
0000
0000
0000
0000
0000
0000
0000
00C0
0060
0030
0018
FFFE
FFFE
0018
0030
0060
00C0
0000
0000
0000
0000
0000
0000
0000
0000
0000
0000
0000
0000
ENDCHAR
STARTCHAR char124
ENCODING 124
SWIDTH 1600 0
DWIDTH 16 0
BBX 12 30 2 -9
BITMAP
0000
0000
0000
0000
0000
0000
0000
0000
0000
0000
0000
0000
0000
0000
0000
0000
0000
0000
0000
0000
0000
0000
0000
0000
0000
0000
0000
0000
FFF0
FFF0
ENDCHAR
STARTCHAR char125
ENCODING 125
SWIDTH 1600 0
DWIDTH 16 0
BBX 12 30 2 -9
BITMAP
0000
0000
0000
0000
0000
0000
0000
0000
0000
0000
0000
0000
FFF0
FFF0
0000
0000
0000
0000
0000
0000
0000
0000
0000
0000
0000
0000
0000
0000
0000
0000
ENDCHAR
ENDFONT
