STARTFONT 2.1
FONT -MIT-QUUX-F KST-Medium-R-Normal--25-9-200-200-P-22-ISO8859-1
SIZE 9 200 200
FONTBOUNDINGBOX 22 25 -8 -5
STARTPROPERTIES 17
ADD_STYLE_NAME ""
AVERAGE_WIDTH 22
CHARSET_ENCODING "1"
CHARSET_REGISTRY "ISO8859"
DEFAULT_CHAR 0
FAMILY "QUUX-F KST"
FONT_ASCENT 20
FONT_DESCENT 5
FOUNDRY "MIT"
PIXEL_SIZE 25
POINT_SIZE 9
RESOLUTION_X 200
RESOLUTION_Y 200
SETWIDTH_NAME "Normal"
SLANT "R"
SPACING "P"
WEIGHT_NAME "Medium"
ENDPROPERTIES
CHARS 127
STARTCHAR char1
ENCODING 1
SWIDTH 2442 0
DWIDTH 22 0
BBX 13 25 5 -5
BITMAP
0F80
0F80
0F80
0F80
0F80
0F80
0F80
0F80
8F88
CF98
EFB8
FFF8
FFF8
FFF8
7FF0
3FE0
1FC0
0F80
0700
0200
0000
0000
0000
0000
0000
ENDCHAR
STARTCHAR char2
ENCODING 2
SWIDTH 2442 0
DWIDTH 22 0
BBX 19 25 1 -5
BITMAP
000000
000000
000000
000000
000000
000000
000000
000000
0FF3E0
3FFFC0
7FFFC0
FC7F00
F83E00
F83E00
F83E00
F83E00
F83E00
FC7F00
7FFF80
3FF7C0
0FC3E0
000000
000000
000000
000000
ENDCHAR
STARTCHAR char3
ENCODING 3
SWIDTH 2442 0
DWIDTH 22 0
BBX 15 25 2 -5
BITMAP
0000
0000
0000
0FC0
3FF0
7FF8
F87C
F87C
F87C
FFF8
FFF0
FFFC
F87E
F83E
F83E
F83E
F87E
FFFC
FFF8
FFE0
F800
F800
F800
0000
0000
ENDCHAR
STARTCHAR char4
ENCODING 4
SWIDTH 2442 0
DWIDTH 22 0
BBX 19 25 1 -5
BITMAP
000000
000000
000000
000000
01F000
01F000
03F800
03F800
07FC00
07FC00
0FFE00
1FBF00
1FBF00
3F1F80
7E0FC0
7E0FC0
FC07E0
000000
000000
000000
000000
000000
000000
000000
000000
ENDCHAR
STARTCHAR char5
ENCODING 5
SWIDTH 2442 0
DWIDTH 22 0
BBX 19 25 2 -5
BITMAP
000000
000000
000000
000000
000000
000000
FFFFE0
FFFFE0
FFFFE0
FFFFE0
0007E0
0007E0
0007E0
0007E0
000000
000000
000000
000000
000000
000000
000000
000000
000000
000000
000000
ENDCHAR
STARTCHAR char6
ENCODING 6
SWIDTH 2442 0
DWIDTH 22 0
BBX 14 25 5 -5
BITMAP
0000
0000
0000
0000
0000
0000
0000
0FFC
3FFC
7FFC
FC00
F800
FFC0
FFC0
FFC0
F800
FC00
7FFC
3FFC
0FFC
0000
0000
0000
0000
0000
ENDCHAR
STARTCHAR char7
ENCODING 7
SWIDTH 2442 0
DWIDTH 22 0
BBX 19 25 1 -5
BITMAP
000000
000000
000000
000000
000000
000000
000000
1E0060
7FF1E0
FFFFE0
EFFFE0
8F1F00
0F1E00
0F1E00
1E1E00
1E1E00
1E1E00
3C1E00
3C1E00
3C1E00
000000
000000
000000
000000
000000
ENDCHAR
STARTCHAR char8
ENCODING 8
SWIDTH 2442 0
DWIDTH 22 0
BBX 16 25 2 -5
BITMAP
0000
7C00
7C00
3E00
1F00
1F80
0F80
07C0
07E0
03E0
03F0
07F0
0FF8
1FF8
3E7C
7C7C
7C7C
F83E
F81F
F81F
0000
0000
0000
0000
0000
ENDCHAR
STARTCHAR char9
ENCODING 9
SWIDTH 2442 0
DWIDTH 22 0
BBX 19 25 2 -5
BITMAP
000000
000000
000000
000000
000000
000000
000000
F801E0
7C03E0
3E07C0
1F0780
0F8F80
07DF00
03FE00
01FC00
00F800
01F000
01E000
03E000
03C000
07C000
078000
0F8000
1F0000
3E0000
ENDCHAR
STARTCHAR char10
ENCODING 10
SWIDTH 2442 0
DWIDTH 22 0
BBX 15 25 4 -5
BITMAP
0000
0000
0000
0000
07F0
1FF0
3FF0
3E00
3E00
3E00
1FF8
7FFC
FFFE
F83E
F01E
F01E
F83E
FFFE
7FFC
1FF0
0000
0000
0000
0000
0000
ENDCHAR
STARTCHAR char11
ENCODING 11
SWIDTH 2442 0
DWIDTH 22 0
BBX 13 25 5 -5
BITMAP
0200
0700
0F80
1FC0
3FE0
7FF0
FFF8
FFF8
FFF8
EFB8
CF98
8F88
0F80
0F80
0F80
0F80
0F80
0F80
0F80
0F80
0000
0000
0000
0000
0000
ENDCHAR
STARTCHAR char12
ENCODING 12
SWIDTH 2442 0
DWIDTH 22 0
BBX 17 25 3 -5
BITMAP
000000
000000
03E000
03E000
03E000
03E000
03E000
FFFF80
FFFF80
FFFF80
FFFF80
03E000
03E000
03E000
03E000
FFFF80
FFFF80
FFFF80
FFFF80
000000
000000
000000
000000
000000
000000
ENDCHAR
STARTCHAR char13
ENCODING 13
SWIDTH 2442 0
DWIDTH 22 0
BBX 18 25 2 -5
BITMAP
000000
000000
000000
1FFE00
7FFF80
FFFFC0
F1E3C0
F1E3C0
F1E3C0
FFFFC0
FFFFC0
FFFFC0
F1E3C0
F1E3C0
F1E3C0
FFFFC0
7FFF80
1FFE00
000000
000000
000000
000000
000000
000000
000000
ENDCHAR
STARTCHAR char14
ENCODING 14
SWIDTH 2442 0
DWIDTH 22 0
BBX 19 25 2 -5
BITMAP
000000
000000
000000
000000
000000
000000
1F1F00
7FBFC0
FFFFE0
F1F1E0
F1F1E0
F1F1E0
FFFFE0
7FBFC0
1F1F00
000000
000000
000000
000000
000000
000000
000000
000000
000000
000000
ENDCHAR
STARTCHAR char15
ENCODING 15
SWIDTH 2442 0
DWIDTH 22 0
BBX 15 25 4 -5
BITMAP
0000
0000
0000
0000
0FE0
3FF8
7FFC
F87E
003E
003E
07FE
1FFE
3FFE
7C3E
781E
781E
7C3E
3FFC
1FF8
07E0
0000
0000
0000
0000
0000
ENDCHAR
STARTCHAR char16
ENCODING 16
SWIDTH 2442 0
DWIDTH 22 0
BBX 17 25 3 -5
BITMAP
000000
000000
000000
000000
000000
0FFF80
3FFF80
7FFF80
FFFF80
FC0000
F80000
F80000
F80000
F80000
FC0000
FFFF80
7FFF80
3FFF80
0FFF80
000000
000000
000000
000000
000000
000000
ENDCHAR
STARTCHAR char17
ENCODING 17
SWIDTH 2442 0
DWIDTH 22 0
BBX 17 25 3 -5
BITMAP
000000
000000
000000
000000
000000
FFF800
FFFE00
FFFF00
FFFF80
001F80
000F80
000F80
000F80
000F80
001F80
FFFF80
FFFF00
FFFE00
FFF800
000000
000000
000000
000000
000000
000000
ENDCHAR
STARTCHAR char18
ENCODING 18
SWIDTH 2442 0
DWIDTH 22 0
BBX 15 25 4 -5
BITMAP
0000
0000
0000
F83E
F83E
F83E
F83E
F83E
F83E
F83E
F83E
F83E
F83E
F83E
FC7E
FFFE
7FFC
3FF8
0FE0
0000
0000
0000
0000
0000
0000
ENDCHAR
STARTCHAR char19
ENCODING 19
SWIDTH 2442 0
DWIDTH 22 0
BBX 15 25 4 -5
BITMAP
0000
0FE0
3FF8
7FFC
FFFE
FC7E
F83E
F83E
F83E
F83E
F83E
F83E
F83E
F83E
F83E
F83E
F83E
0000
0000
0000
0000
0000
0000
0000
0000
ENDCHAR
STARTCHAR char20
ENCODING 20
SWIDTH 2442 0
DWIDTH 22 0
BBX 19 25 1 -5
BITMAP
FC07E0
FC07E0
7E0FC0
7FFFC0
7FFFC0
3FFF80
3FFF80
3F1F80
1F1F00
1F1F00
1FBF00
0FBE00
0FBE00
0FFE00
07FC00
07FC00
07FC00
03F800
03F800
01F000
000000
000000
000000
000000
000000
ENDCHAR
STARTCHAR char21
ENCODING 21
SWIDTH 2442 0
DWIDTH 22 0
BBX 14 25 4 -5
BITMAP
FFFC
FFFC
FFFC
FFFC
00FC
00FC
00FC
00FC
FFFC
FFFC
FFFC
FFFC
00FC
00FC
00FC
00FC
FFFC
FFFC
FFFC
FFFC
0000
0000
0000
0000
0000
ENDCHAR
STARTCHAR char22
ENCODING 22
SWIDTH 2442 0
DWIDTH 22 0
BBX 18 25 2 -5
BITMAP
000000
000000
000000
1FFE00
7FFF80
FFFFC0
FE1FC0
FF3FC0
F7FBC0
F3F3C0
F1E3C0
F3F3C0
F7FBC0
FF3FC0
FE1FC0
FFFFC0
7FFF80
1FFE00
000000
000000
000000
000000
000000
000000
000000
ENDCHAR
STARTCHAR char23
ENCODING 23
SWIDTH 2442 0
DWIDTH 22 0
BBX 20 25 1 -5
BITMAP
000000
000000
000000
000000
020400
060600
0E0700
1E0780
3FFFC0
7FFFE0
FFFFF0
7FFFE0
3FFFC0
1E0780
0E0700
060600
020400
000000
000000
000000
000000
000000
000000
000000
000000
ENDCHAR
STARTCHAR char24
ENCODING 24
SWIDTH 2442 0
DWIDTH 22 0
BBX 20 25 1 -5
BITMAP
000000
000000
000000
000000
03F000
07E000
0FC000
1F8000
3FFFF0
7FFFF0
FFFFF0
7FFFF0
3FFFF0
1F8000
0FC000
07E000
03F000
000000
000000
000000
000000
000000
000000
000000
000000
ENDCHAR
STARTCHAR char25
ENCODING 25
SWIDTH 2442 0
DWIDTH 22 0
BBX 20 25 1 -5
BITMAP
000000
000000
000000
000000
00FC00
007E00
003F00
001F80
FFFFC0
FFFFE0
FFFFF0
FFFFE0
FFFFC0
001F80
003F00
007E00
00FC00
000000
000000
000000
000000
000000
000000
000000
000000
ENDCHAR
STARTCHAR char26
ENCODING 26
SWIDTH 2442 0
DWIDTH 22 0
BBX 19 25 1 -5
BITMAP
000000
0001E0
0003E0
0007C0
000F80
FFFFE0
FFFFE0
FFFFE0
FFFFE0
00F800
01F000
03E000
FFFFE0
FFFFE0
FFFFE0
FFFFE0
3E0000
7C0000
F80000
F00000
000000
000000
000000
000000
000000
ENDCHAR
STARTCHAR char27
ENCODING 27
SWIDTH 2442 0
DWIDTH 22 0
BBX 19 25 1 -5
BITMAP
004000
00E000
01F000
03F800
07FC00
0FFE00
1FBF00
3F1F80
7E0FC0
FC07E0
7E0FC0
3F1F80
1FBF00
0FFE00
07FC00
03F800
01F000
00E000
004000
000000
000000
000000
000000
000000
000000
ENDCHAR
STARTCHAR char28
ENCODING 28
SWIDTH 2442 0
DWIDTH 22 0
BBX 20 25 1 -5
BITMAP
0003C0
000FE0
003FF0
00FFC0
03FF00
0FFC00
3FF000
FFC000
3FF000
0FFC00
03FF00
00FFC0
003FF0
000FE0
0003C0
000000
FFFFF0
FFFFF0
FFFFF0
FFFFF0
000000
000000
000000
000000
000000
ENDCHAR
STARTCHAR char29
ENCODING 29
SWIDTH 2442 0
DWIDTH 22 0
BBX 20 25 1 -5
BITMAP
3C0000
7F0000
FFC000
3FF000
0FFC00
03FF00
00FFC0
003FF0
00FFC0
03FF00
0FFC00
3FF000
FFC000
7F0000
3C0000
000000
FFFFF0
FFFFF0
FFFFF0
FFFFF0
000000
000000
000000
000000
000000
ENDCHAR
STARTCHAR char30
ENCODING 30
SWIDTH 2442 0
DWIDTH 22 0
BBX 19 25 1 -5
BITMAP
000000
000000
000000
FFFFE0
FFFFE0
FFFFE0
FFFFE0
000000
000000
FFFFE0
FFFFE0
FFFFE0
FFFFE0
000000
000000
FFFFE0
FFFFE0
FFFFE0
FFFFE0
000000
000000
000000
000000
000000
000000
ENDCHAR
STARTCHAR char31
ENCODING 31
SWIDTH 2442 0
DWIDTH 22 0
BBX 19 25 1 -5
BITMAP
000000
000000
000000
000000
FC07E0
7E0FC0
7E0FC0
3F1F80
1FBF00
1FBF00
0FFE00
07FC00
07FC00
03F800
03F800
01F000
01F000
000000
000000
000000
000000
000000
000000
000000
000000
ENDCHAR
STARTCHAR char32
ENCODING 32
SWIDTH 2442 0
DWIDTH 22 0
BBX 1 25 0 -5
BITMAP
00
00
00
00
00
00
00
00
00
00
00
00
00
00
00
00
00
00
00
00
00
00
00
00
00
ENDCHAR
STARTCHAR char33
ENCODING 33
SWIDTH 2442 0
DWIDTH 22 0
BBX 10 25 7 -5
BITMAP
FFC0
FFC0
FFC0
7F80
7F80
7F80
7F80
3F00
3F00
3F00
3F00
1E00
1E00
0000
0000
3F00
7F80
7F80
7F80
3F00
0000
0000
0000
0000
0000
ENDCHAR
STARTCHAR char34
ENCODING 34
SWIDTH 2442 0
DWIDTH 22 0
BBX 13 25 5 -5
BITMAP
F8F8
F8F8
F8F8
F8F8
F8F8
F8F8
F8F8
0000
0000
0000
0000
0000
0000
0000
0000
0000
0000
0000
0000
0000
0000
0000
0000
0000
0000
ENDCHAR
STARTCHAR char35
ENCODING 35
SWIDTH 2442 0
DWIDTH 22 0
BBX 19 25 1 -5
BITMAP
1F1F00
1F1F00
1F1F00
1F1F00
FFFFE0
FFFFE0
FFFFE0
FFFFE0
1F1F00
1F1F00
1F1F00
1F1F00
FFFFE0
FFFFE0
FFFFE0
FFFFE0
1F1F00
1F1F00
1F1F00
1F1F00
000000
000000
000000
000000
000000
ENDCHAR
STARTCHAR char36
ENCODING 36
SWIDTH 2442 0
DWIDTH 22 0
BBX 19 25 1 -5
BITMAP
01F000
01F000
1FFF00
3FFF80
7FFFC0
F9F3E0
F9F000
F9F000
FFFE00
7FFF80
3FFFC0
0FFFE0
01F3E0
01F3E0
F9F3E0
7FFFC0
3FFF80
1FFF00
01F000
01F000
000000
000000
000000
000000
000000
ENDCHAR
STARTCHAR char37
ENCODING 37
SWIDTH 2442 0
DWIDTH 22 0
BBX 20 25 1 -5
BITMAP
1C01F0
7F01F0
FF81F0
E383E0
E387C0
E38F80
FF9F00
7F3E00
1C7C00
00F800
01F000
03E380
07CFE0
0F9FF0
1F1C70
3E1C70
7C1C70
F81FF0
F80FE0
F80380
000000
000000
000000
000000
000000
ENDCHAR
STARTCHAR char38
ENCODING 38
SWIDTH 2442 0
DWIDTH 22 0
BBX 19 25 1 -5
BITMAP
1FC000
7FF000
FFF800
F8F800
F8F800
F8F800
FDF000
7FE000
3FC000
1F8000
3FC000
7FE000
FDF7E0
F9FFC0
F8FF80
F87F00
FCFF00
FFFF80
7FFFC0
1FC7E0
000000
000000
000000
000000
000000
ENDCHAR
STARTCHAR char39
ENCODING 39
SWIDTH 2442 0
DWIDTH 22 0
BBX 9 25 6 -5
BITMAP
1F80
1F80
3F00
3F00
7E00
7E00
FC00
FC00
0000
0000
0000
0000
0000
0000
0000
0000
0000
0000
0000
0000
0000
0000
0000
0000
0000
ENDCHAR
STARTCHAR char40
ENCODING 40
SWIDTH 2442 0
DWIDTH 22 0
BBX 11 25 6 -5
BITMAP
07E0
0FC0
1F80
3F00
3F00
7E00
7E00
FC00
FC00
FC00
FC00
FC00
FC00
7E00
7E00
3F00
3F00
1F80
0FC0
07E0
0000
0000
0000
0000
0000
ENDCHAR
STARTCHAR char41
ENCODING 41
SWIDTH 2442 0
DWIDTH 22 0
BBX 11 25 4 -5
BITMAP
FC00
7E00
3F00
1F80
1F80
0FC0
0FC0
07E0
07E0
07E0
07E0
07E0
07E0
0FC0
0FC0
1F80
1F80
3F00
7E00
FC00
0000
0000
0000
0000
0000
ENDCHAR
STARTCHAR char42
ENCODING 42
SWIDTH 2442 0
DWIDTH 22 0
BBX 19 25 1 -5
BITMAP
004000
00E000
00E000
01F000
03F800
FFFFE0
FFFFE0
7FFFC0
3FFF80
1FFF00
1FFF00
3FFF80
7FFFC0
FFFFE0
FFFFE0
03F800
01F000
00E000
00E000
004000
000000
000000
000000
000000
000000
ENDCHAR
STARTCHAR char43
ENCODING 43
SWIDTH 2442 0
DWIDTH 22 0
BBX 17 25 3 -5
BITMAP
000000
000000
03E000
03E000
03E000
03E000
03E000
03E000
FFFF80
FFFF80
FFFF80
FFFF80
03E000
03E000
03E000
03E000
03E000
03E000
000000
000000
000000
000000
000000
000000
000000
ENDCHAR
STARTCHAR char44
ENCODING 44
SWIDTH 2442 0
DWIDTH 22 0
BBX 8 25 6 -5
BITMAP
00
00
00
00
00
00
00
00
00
00
00
00
00
00
00
7E
FF
FF
FF
7F
1E
1C
38
60
00
ENDCHAR
STARTCHAR char45
ENCODING 45
SWIDTH 2442 0
DWIDTH 22 0
BBX 18 25 1 -5
BITMAP
000000
000000
000000
000000
000000
000000
000000
000000
FFFFC0
FFFFC0
FFFFC0
FFFFC0
000000
000000
000000
000000
000000
000000
000000
000000
000000
000000
000000
000000
000000
ENDCHAR
STARTCHAR char46
ENCODING 46
SWIDTH 2442 0
DWIDTH 22 0
BBX 8 25 6 -5
BITMAP
00
00
00
00
00
00
00
00
00
00
00
00
00
00
00
7E
FF
FF
FF
7E
00
00
00
00
00
ENDCHAR
STARTCHAR char47
ENCODING 47
SWIDTH 2442 0
DWIDTH 22 0
BBX 19 25 1 -5
BITMAP
0007E0
000FC0
000FC0
001F80
003F00
003F00
007E00
00FC00
00FC00
01F800
03F000
07E000
07E000
0FC000
1F8000
1F8000
3F0000
7E0000
7E0000
FC0000
000000
000000
000000
000000
000000
ENDCHAR
STARTCHAR char48
ENCODING 48
SWIDTH 2442 0
DWIDTH 22 0
BBX 19 25 1 -5
BITMAP
07FC00
1FFF00
7FFFC0
FFFFE0
FE07E0
FC0FE0
FC1FE0
FC3FE0
FC7FE0
FCF7E0
FDE7E0
FFC7E0
FF87E0
FF07E0
FE07E0
FC0FE0
FFFFE0
7FFFC0
1FFF00
07FC00
000000
000000
000000
000000
000000
ENDCHAR
STARTCHAR char49
ENCODING 49
SWIDTH 2442 0
DWIDTH 22 0
BBX 13 25 5 -5
BITMAP
1FC0
3FC0
7FC0
FFC0
0FC0
0FC0
0FC0
0FC0
0FC0
0FC0
0FC0
0FC0
0FC0
0FC0
0FC0
0FC0
7FF8
7FF8
7FF8
7FF8
0000
0000
0000
0000
0000
ENDCHAR
STARTCHAR char50
ENCODING 50
SWIDTH 2442 0
DWIDTH 22 0
BBX 19 25 1 -5
BITMAP
07FC00
1FFF00
7FFFC0
FFFFE0
FE0FE0
FC07E0
000FE0
001FC0
003F80
007F00
00FE00
01FC00
03F800
0FE000
1FC000
7F0000
FFFFE0
FFFFE0
FFFFE0
FFFFE0
000000
000000
000000
000000
000000
ENDCHAR
STARTCHAR char51
ENCODING 51
SWIDTH 2442 0
DWIDTH 22 0
BBX 19 25 1 -5
BITMAP
07FC00
1FFF00
7FFFC0
FFFFE0
FC0FE0
FC07E0
0007E0
000FE0
01FFC0
01FF00
01FF00
01FFC0
000FE0
0007E0
FC07E0
FC0FE0
FFFFE0
7FFFC0
1FFF00
07FC00
000000
000000
000000
000000
000000
ENDCHAR
STARTCHAR char52
ENCODING 52
SWIDTH 2442 0
DWIDTH 22 0
BBX 19 25 1 -5
BITMAP
003F00
007F00
00FF00
01FF00
03FF00
07FF00
0FFF00
1FBF00
3F3F00
7E3F00
FC3F00
FFFFE0
FFFFE0
FFFFE0
FFFFE0
003F00
003F00
003F00
003F00
003F00
000000
000000
000000
000000
000000
ENDCHAR
STARTCHAR char53
ENCODING 53
SWIDTH 2442 0
DWIDTH 22 0
BBX 19 25 1 -5
BITMAP
FFFFE0
FFFFE0
FFFFE0
FFFFE0
FC0000
FC0000
FC0000
FFFC00
FFFF00
FFFFC0
FFFFE0
000FE0
0007E0
0007E0
FC07E0
FE0FE0
FFFFE0
7FFFC0
1FFF00
07FC00
000000
000000
000000
000000
000000
ENDCHAR
STARTCHAR char54
ENCODING 54
SWIDTH 2442 0
DWIDTH 22 0
BBX 19 25 1 -5
BITMAP
07FC00
1FFF00
7FFFC0
FFFFE0
FE0FE0
FC07E0
FC0000
FC0000
FFFE00
FFFF80
FFFFC0
FFFFE0
FE0FE0
FC07E0
FC07E0
FE0FE0
FFFFE0
7FFFC0
1FFF00
07FC00
000000
000000
000000
000000
000000
ENDCHAR
STARTCHAR char55
ENCODING 55
SWIDTH 2442 0
DWIDTH 22 0
BBX 19 25 1 -5
BITMAP
FFFFE0
FFFFE0
FFFFE0
FFFFE0
000FC0
000FC0
001F80
001F80
003F00
003F00
007E00
007E00
00FC00
00FC00
01F800
01F800
03F000
03F000
07E000
07E000
000000
000000
000000
000000
000000
ENDCHAR
STARTCHAR char56
ENCODING 56
SWIDTH 2442 0
DWIDTH 22 0
BBX 19 25 1 -5
BITMAP
07FC00
1FFF00
7FFFC0
FFFFE0
FE0FE0
FC07E0
FC07E0
FE0FE0
7FFFC0
1FFF00
1FFF00
7FFFC0
FE0FE0
FC07E0
FC07E0
FE0FE0
FFFFE0
7FFFC0
1FFF00
07FC00
000000
000000
000000
000000
000000
ENDCHAR
STARTCHAR char57
ENCODING 57
SWIDTH 2442 0
DWIDTH 22 0
BBX 19 25 1 -5
BITMAP
07FC00
1FFF00
7FFFC0
FFFFE0
FE0FE0
FC07E0
FC07E0
FE0FE0
FFFFE0
7FFFE0
3FFFE0
0FFFE0
0007E0
0007E0
FC07E0
FE0FE0
FFFFE0
7FFFC0
1FFF00
07FC00
000000
000000
000000
000000
000000
ENDCHAR
STARTCHAR char58
ENCODING 58
SWIDTH 2442 0
DWIDTH 22 0
BBX 8 25 6 -5
BITMAP
00
00
00
00
00
00
00
7E
FF
FF
FF
7E
00
00
00
7E
FF
FF
FF
7E
00
00
00
00
00
ENDCHAR
STARTCHAR char59
ENCODING 59
SWIDTH 2442 0
DWIDTH 22 0
BBX 8 25 6 -5
BITMAP
00
00
00
00
00
00
00
7E
FF
FF
FF
7E
00
00
00
7E
FF
FF
FF
7F
1E
1C
38
60
00
ENDCHAR
STARTCHAR char60
ENCODING 60
SWIDTH 2442 0
DWIDTH 22 0
BBX 20 25 1 -5
BITMAP
000000
000000
000080
0003C0
000FE0
003FF0
00FFC0
03FF00
0FFC00
3FF000
FFC000
3FF000
0FFC00
03FF00
00FFC0
003FF0
000FE0
0003C0
000080
000000
000000
000000
000000
000000
000000
ENDCHAR
STARTCHAR char61
ENCODING 61
SWIDTH 2442 0
DWIDTH 22 0
BBX 18 25 2 -5
BITMAP
000000
000000
000000
000000
000000
FFFFC0
FFFFC0
FFFFC0
FFFFC0
000000
000000
000000
FFFFC0
FFFFC0
FFFFC0
FFFFC0
000000
000000
000000
000000
000000
000000
000000
000000
000000
ENDCHAR
STARTCHAR char62
ENCODING 62
SWIDTH 2442 0
DWIDTH 22 0
BBX 20 25 1 -5
BITMAP
000000
000000
100000
3C0000
7F0000
FFC000
3FF000
0FFC00
03FF00
00FFC0
003FF0
00FFC0
03FF00
0FFC00
3FF000
FFC000
7F0000
3C0000
100000
000000
000000
000000
000000
000000
000000
ENDCHAR
STARTCHAR char63
ENCODING 63
SWIDTH 2442 0
DWIDTH 22 0
BBX 19 25 1 -5
BITMAP
07FC00
1FFF00
7FFFC0
FFFFE0
FE0FE0
FC07E0
0007E0
001FE0
007FC0
01FF00
03FC00
03F800
03F000
000000
000000
03F000
07F800
07F800
07F800
03F000
000000
000000
000000
000000
000000
ENDCHAR
STARTCHAR char64
ENCODING 64
SWIDTH 2442 0
DWIDTH 22 0
BBX 19 25 1 -5
BITMAP
07FC00
1FFF00
7FFFC0
FE0FE0
F803E0
F0E1E0
F1F1E0
F3F9E0
F3B9E0
F71DE0
F71DE0
F3BFE0
F3FFE0
F1FFC0
F0E000
F80000
FE07E0
7FFFE0
1FFF80
07FE00
000000
000000
000000
000000
000000
ENDCHAR
STARTCHAR char65
ENCODING 65
SWIDTH 2442 0
DWIDTH 22 0
BBX 19 25 1 -5
BITMAP
01F000
03F800
03F800
07FC00
07FC00
07FC00
0FFE00
0FBE00
0FBE00
1FBF00
1F1F00
1F1F00
3F1F80
3FFF80
3FFF80
7FFFC0
7FFFC0
7E0FC0
FC07E0
FC07E0
000000
000000
000000
000000
000000
ENDCHAR
STARTCHAR char66
ENCODING 66
SWIDTH 2442 0
DWIDTH 22 0
BBX 19 25 1 -5
BITMAP
FFFC00
FFFF00
FFFFC0
FFFFE0
FC0FE0
FC07E0
FC07E0
FC0FE0
FFFFC0
FFFF00
FFFF00
FFFFC0
FC0FE0
FC07E0
FC07E0
FC0FE0
FFFFE0
FFFFC0
FFFF00
FFFC00
000000
000000
000000
000000
000000
ENDCHAR
STARTCHAR char67
ENCODING 67
SWIDTH 2442 0
DWIDTH 22 0
BBX 19 25 1 -5
BITMAP
07FC00
1FFF00
7FFFC0
FFFFE0
FE0FE0
FC07E0
FC0000
FC0000
FC0000
FC0000
FC0000
FC0000
FC0000
FC0000
FC07E0
FE0FE0
FFFFE0
7FFFC0
1FFF00
07FC00
000000
000000
000000
000000
000000
ENDCHAR
STARTCHAR char68
ENCODING 68
SWIDTH 2442 0
DWIDTH 22 0
BBX 19 25 1 -5
BITMAP
FFFC00
FFFF00
FFFFC0
FFFFE0
FC0FE0
FC07E0
FC07E0
FC07E0
FC07E0
FC07E0
FC07E0
FC07E0
FC07E0
FC07E0
FC07E0
FC0FE0
FFFFE0
FFFFC0
FFFF00
FFFC00
000000
000000
000000
000000
000000
ENDCHAR
STARTCHAR char69
ENCODING 69
SWIDTH 2442 0
DWIDTH 22 0
BBX 19 25 1 -5
BITMAP
FFFFE0
FFFFE0
FFFFE0
FFFFE0
FC0000
FC0000
FC0000
FC0000
FFFC00
FFFC00
FFFC00
FFFC00
FC0000
FC0000
FC0000
FC0000
FFFFE0
FFFFE0
FFFFE0
FFFFE0
000000
000000
000000
000000
000000
ENDCHAR
STARTCHAR char70
ENCODING 70
SWIDTH 2442 0
DWIDTH 22 0
BBX 19 25 1 -5
BITMAP
FFFFE0
FFFFE0
FFFFE0
FFFFE0
FC0000
FC0000
FC0000
FC0000
FFFC00
FFFC00
FFFC00
FFFC00
FC0000
FC0000
FC0000
FC0000
FC0000
FC0000
FC0000
FC0000
000000
000000
000000
000000
000000
ENDCHAR
STARTCHAR char71
ENCODING 71
SWIDTH 2442 0
DWIDTH 22 0
BBX 19 25 1 -5
BITMAP
07FC00
1FFF00
7FFFC0
FFFFE0
FC07E0
F80000
F80000
F80000
F87FE0
F87FE0
F87FE0
F87FE0
F803E0
F803E0
F803E0
FC07E0
FFFFC0
7FFF80
1FFF00
07FC00
000000
000000
000000
000000
000000
ENDCHAR
STARTCHAR char72
ENCODING 72
SWIDTH 2442 0
DWIDTH 22 0
BBX 19 25 1 -5
BITMAP
FC07E0
FC07E0
FC07E0
FC07E0
FC07E0
FC07E0
FC07E0
FC07E0
FFFFE0
FFFFE0
FFFFE0
FFFFE0
FC07E0
FC07E0
FC07E0
FC07E0
FC07E0
FC07E0
FC07E0
FC07E0
000000
000000
000000
000000
000000
ENDCHAR
STARTCHAR char73
ENCODING 73
SWIDTH 2442 0
DWIDTH 22 0
BBX 12 25 6 -5
BITMAP
FFF0
FFF0
FFF0
FFF0
1F80
1F80
1F80
1F80
1F80
1F80
1F80
1F80
1F80
1F80
1F80
1F80
FFF0
FFF0
FFF0
FFF0
0000
0000
0000
0000
0000
ENDCHAR
STARTCHAR char74
ENCODING 74
SWIDTH 2442 0
DWIDTH 22 0
BBX 17 25 2 -5
BITMAP
001F80
001F80
001F80
001F80
001F80
001F80
001F80
001F80
001F80
001F80
001F80
001F80
001F80
FC1F80
FC1F80
FE3F80
FFFF80
7FFF00
3FFE00
0FF800
000000
000000
000000
000000
000000
ENDCHAR
STARTCHAR char75
ENCODING 75
SWIDTH 2442 0
DWIDTH 22 0
BBX 20 25 1 -5
BITMAP
FC07F0
FC0FE0
FC1FC0
FC3F80
FC7F00
FCFE00
FDFC00
FFF800
FFF000
FFE000
FFE000
FFF000
FFF800
FDFC00
FCFE00
FC7F00
FC3F80
FC1FC0
FC0FE0
FC07F0
000000
000000
000000
000000
000000
ENDCHAR
STARTCHAR char76
ENCODING 76
SWIDTH 2442 0
DWIDTH 22 0
BBX 19 25 1 -5
BITMAP
FC0000
FC0000
FC0000
FC0000
FC0000
FC0000
FC0000
FC0000
FC0000
FC0000
FC0000
FC0000
FC0000
FC0000
FC0000
FC0000
FFFFE0
FFFFE0
FFFFE0
FFFFE0
000000
000000
000000
000000
000000
ENDCHAR
STARTCHAR char77
ENCODING 77
SWIDTH 2442 0
DWIDTH 22 0
BBX 19 25 1 -5
BITMAP
FC07E0
FE0FE0
FF1FE0
FFBFE0
FFFFE0
FFFFE0
FFFFE0
FFFFE0
FFFFE0
FDF7E0
FCE7E0
FC47E0
FC07E0
FC07E0
FC07E0
FC07E0
FC07E0
FC07E0
FC07E0
FC07E0
000000
000000
000000
000000
000000
ENDCHAR
STARTCHAR char78
ENCODING 78
SWIDTH 2442 0
DWIDTH 22 0
BBX 19 25 1 -5
BITMAP
FC07E0
FE07E0
FE07E0
FF07E0
FF87E0
FFC7E0
FFC7E0
FFE7E0
FFF7E0
FFFFE0
FFFFE0
FDFFE0
FCFFE0
FC7FE0
FC7FE0
FC3FE0
FC1FE0
FC0FE0
FC0FE0
FC07E0
000000
000000
000000
000000
000000
ENDCHAR
STARTCHAR char79
ENCODING 79
SWIDTH 2442 0
DWIDTH 22 0
BBX 19 25 1 -5
BITMAP
07FC00
1FFF00
7FFFC0
FFFFE0
FE0FE0
FC07E0
FC07E0
FC07E0
FC07E0
FC07E0
FC07E0
FC07E0
FC07E0
FC07E0
FC07E0
FE0FE0
FFFFE0
7FFFC0
1FFF00
07FC00
000000
000000
000000
000000
000000
ENDCHAR
STARTCHAR char80
ENCODING 80
SWIDTH 2442 0
DWIDTH 22 0
BBX 19 25 1 -5
BITMAP
FFFC00
FFFF00
FFFFC0
FFFFC0
FC0FE0
FC07E0
FC07E0
FC07E0
FC0FE0
FFFFC0
FFFFC0
FFFF00
FFFC00
FC0000
FC0000
FC0000
FC0000
FC0000
FC0000
FC0000
000000
000000
000000
000000
000000
ENDCHAR
STARTCHAR char81
ENCODING 81
SWIDTH 2442 0
DWIDTH 22 0
BBX 20 25 1 -5
BITMAP
07FC00
1FFF00
7FFFC0
FFFFE0
FE0FE0
FC07E0
FC07E0
FC07E0
FC07E0
FC07E0
FC07E0
FC07E0
FC07E0
FCFFE0
FC7FE0
FE3FC0
FFFF80
7FFFC0
1FFFE0
07E3F0
000000
000000
000000
000000
000000
ENDCHAR
STARTCHAR char82
ENCODING 82
SWIDTH 2442 0
DWIDTH 22 0
BBX 19 25 1 -5
BITMAP
FFFC00
FFFF00
FFFFC0
FFFFC0
FC0FE0
FC07E0
FC07E0
FC07E0
FC0FE0
FFFFC0
FFFFC0
FFFF00
FFFE00
FC3F00
FC1F00
FC1F80
FC0F80
FC0FC0
FC07C0
FC07E0
000000
000000
000000
000000
000000
ENDCHAR
STARTCHAR char83
ENCODING 83
SWIDTH 2442 0
DWIDTH 22 0
BBX 19 25 1 -5
BITMAP
07FC00
1FFF00
7FFFC0
FFFFE0
FE0FE0
FC07E0
FC0000
FE0000
7FE000
1FFC00
07FF00
00FFC0
000FE0
0007E0
FC07E0
FE0FE0
FFFFE0
7FFFC0
1FFF00
07FC00
000000
000000
000000
000000
000000
ENDCHAR
STARTCHAR char84
ENCODING 84
SWIDTH 2442 0
DWIDTH 22 0
BBX 18 25 1 -5
BITMAP
FFFFC0
FFFFC0
FFFFC0
FFFFC0
03F000
03F000
03F000
03F000
03F000
03F000
03F000
03F000
03F000
03F000
03F000
03F000
03F000
03F000
03F000
03F000
000000
000000
000000
000000
000000
ENDCHAR
STARTCHAR char85
ENCODING 85
SWIDTH 2442 0
DWIDTH 22 0
BBX 19 25 1 -5
BITMAP
FC07E0
FC07E0
FC07E0
FC07E0
FC07E0
FC07E0
FC07E0
FC07E0
FC07E0
FC07E0
FC07E0
FC07E0
FC07E0
FC07E0
FC07E0
FE0FE0
FFFFE0
7FFFC0
1FFF00
07FC00
000000
000000
000000
000000
000000
ENDCHAR
STARTCHAR char86
ENCODING 86
SWIDTH 2442 0
DWIDTH 22 0
BBX 19 25 1 -5
BITMAP
FC07E0
FC07E0
7E0FC0
7E0FC0
7E0FC0
3F1F80
3F1F80
3F1F80
1FBF00
1FBF00
1FBF00
0FFE00
0FFE00
0FFE00
07FC00
07FC00
07FC00
03F800
03F800
03F800
000000
000000
000000
000000
000000
ENDCHAR
STARTCHAR char87
ENCODING 87
SWIDTH 2442 0
DWIDTH 22 0
BBX 19 25 1 -5
BITMAP
FC07E0
FC07E0
FC07E0
FC07E0
7E0FC0
7E4FC0
7EEFC0
7EEFC0
3FFF80
3FFF80
3FFF80
3FFF80
1FFF00
1FFF00
1FBF00
1FBF00
0F1E00
0F1E00
0F1E00
0F1E00
000000
000000
000000
000000
000000
ENDCHAR
STARTCHAR char88
ENCODING 88
SWIDTH 2442 0
DWIDTH 22 0
BBX 19 25 1 -5
BITMAP
FC07E0
7E0FC0
7E0FC0
3F1F80
1FBF00
1FBF00
0FFE00
07FC00
07FC00
03F800
03F800
07FC00
07FC00
0FFE00
1FBF00
1FBF00
3F1F80
7E0FC0
7E0FC0
FC07E0
000000
000000
000000
000000
000000
ENDCHAR
STARTCHAR char89
ENCODING 89
SWIDTH 2442 0
DWIDTH 22 0
BBX 20 25 1 -5
BITMAP
FC03F0
7E07E0
7E07E0
3F0FC0
1F9F80
1F9F80
0FFF00
07FE00
07FE00
03FC00
01F800
01F800
01F800
01F800
01F800
01F800
01F800
01F800
01F800
01F800
000000
000000
000000
000000
000000
ENDCHAR
STARTCHAR char90
ENCODING 90
SWIDTH 2442 0
DWIDTH 22 0
BBX 19 25 1 -5
BITMAP
FFFFE0
FFFFE0
FFFFE0
FFFFE0
000FC0
001F80
003F00
007E00
7FFFC0
7FFFC0
7FFFC0
7FFFC0
0FC000
1F8000
3F0000
7E0000
FFFFE0
FFFFE0
FFFFE0
FFFFE0
000000
000000
000000
000000
000000
ENDCHAR
STARTCHAR char91
ENCODING 91
SWIDTH 2442 0
DWIDTH 22 0
BBX 12 25 7 -5
BITMAP
FFF0
FFF0
FFF0
FFF0
FC00
FC00
FC00
FC00
FC00
FC00
FC00
FC00
FC00
FC00
FC00
FC00
FFF0
FFF0
FFF0
FFF0
0000
0000
0000
0000
0000
ENDCHAR
STARTCHAR char92
ENCODING 92
SWIDTH 2442 0
DWIDTH 22 0
BBX 19 25 1 -5
BITMAP
FC0000
7E0000
7E0000
3F0000
1F8000
1F8000
0FC000
07E000
07E000
03F000
01F800
00FC00
00FC00
007E00
003F00
003F00
001F80
000FC0
000FC0
0007E0
000000
000000
000000
000000
000000
ENDCHAR
STARTCHAR char93
ENCODING 93
SWIDTH 2442 0
DWIDTH 22 0
BBX 12 25 3 -5
BITMAP
FFF0
FFF0
FFF0
FFF0
03F0
03F0
03F0
03F0
03F0
03F0
03F0
03F0
03F0
03F0
03F0
03F0
FFF0
FFF0
FFF0
FFF0
0000
0000
0000
0000
0000
ENDCHAR
STARTCHAR char94
ENCODING 94
SWIDTH 2442 0
DWIDTH 22 0
BBX 19 25 1 -5
BITMAP
01F000
03F800
07FC00
0FFE00
1FBF00
3F1F80
7E0FC0
FC07E0
000000
000000
000000
000000
000000
000000
000000
000000
000000
000000
000000
000000
000000
000000
000000
000000
000000
ENDCHAR
STARTCHAR char95
ENCODING 95
SWIDTH 2442 0
DWIDTH 22 0
BBX 22 25 0 -5
BITMAP
000000
000000
000000
000000
000000
000000
000000
000000
000000
000000
000000
000000
000000
000000
000000
000000
000000
000000
000000
000000
000000
FFFFFC
FFFFFC
FFFFFC
FFFFFC
ENDCHAR
STARTCHAR char96
ENCODING 96
SWIDTH 2442 0
DWIDTH 22 0
BBX 9 25 8 -5
BITMAP
FC00
FC00
7E00
7E00
3F00
3F00
1F80
1F80
0000
0000
0000
0000
0000
0000
0000
0000
0000
0000
0000
0000
0000
0000
0000
0000
0000
ENDCHAR
STARTCHAR char97
ENCODING 97
SWIDTH 2442 0
DWIDTH 22 0
BBX 15 25 4 -5
BITMAP
0000
0000
0000
0000
0000
0000
0000
1FF8
7FFC
FFFE
001E
001E
1FFE
7FFE
FFFE
F83E
F83E
FFFE
7FFE
1FDE
0000
0000
0000
0000
0000
ENDCHAR
STARTCHAR char98
ENCODING 98
SWIDTH 2442 0
DWIDTH 22 0
BBX 15 25 4 -5
BITMAP
F000
F000
F000
F000
F000
F000
F000
FFF0
FFFC
FFFE
F03E
F01E
F01E
F01E
F01E
F01E
F03E
FFFE
FFFC
FFF0
0000
0000
0000
0000
0000
ENDCHAR
STARTCHAR char99
ENCODING 99
SWIDTH 2442 0
DWIDTH 22 0
BBX 15 25 4 -5
BITMAP
0000
0000
0000
0000
0000
0000
0000
1FF0
7FFC
FFFE
F81E
F000
F000
F000
F000
F000
F81E
FFFE
7FFC
1FF0
0000
0000
0000
0000
0000
ENDCHAR
STARTCHAR char100
ENCODING 100
SWIDTH 2442 0
DWIDTH 22 0
BBX 15 25 4 -5
BITMAP
001E
001E
001E
001E
001E
001E
001E
1FFE
7FFE
FFFE
F81E
F01E
F01E
F01E
F01E
F01E
F81E
FFFE
7FFE
1FFE
0000
0000
0000
0000
0000
ENDCHAR
STARTCHAR char101
ENCODING 101
SWIDTH 2442 0
DWIDTH 22 0
BBX 15 25 4 -5
BITMAP
0000
0000
0000
0000
0000
0000
0000
1FF0
7FFC
FFFE
F01E
F01E
FFFE
FFFE
FFFE
F000
F000
FFFE
7FFC
1FF0
0000
0000
0000
0000
0000
ENDCHAR
STARTCHAR char102
ENCODING 102
SWIDTH 2442 0
DWIDTH 22 0
BBX 15 25 4 -5
BITMAP
07F0
0FFC
1FFE
1E1E
1E1E
1E00
1E00
1E00
1E00
FFE0
FFE0
FFE0
1E00
1E00
1E00
1E00
1E00
1E00
1E00
1E00
0000
0000
0000
0000
0000
ENDCHAR
STARTCHAR char103
ENCODING 103
SWIDTH 2442 0
DWIDTH 22 0
BBX 15 25 4 -5
BITMAP
0000
0000
0000
0000
0000
0000
0000
1FFE
7FFE
FFFE
F83E
F01E
F01E
F01E
F01E
F01E
F83E
FFFE
7FFE
1FFE
001E
001E
FFFE
7FFC
1FF0
ENDCHAR
STARTCHAR char104
ENCODING 104
SWIDTH 2442 0
DWIDTH 22 0
BBX 15 25 4 -5
BITMAP
F000
F000
F000
F000
F000
F000
F000
FFF0
FFFC
FFFE
F03E
F01E
F01E
F01E
F01E
F01E
F01E
F01E
F01E
F01E
0000
0000
0000
0000
0000
ENDCHAR
STARTCHAR char105
ENCODING 105
SWIDTH 2442 0
DWIDTH 22 0
BBX 10 25 7 -5
BITMAP
0000
0000
0C00
1E00
1E00
0C00
0000
FE00
FE00
FE00
1E00
1E00
1E00
1E00
1E00
1E00
1E00
FFC0
FFC0
FFC0
0000
0000
0000
0000
0000
ENDCHAR
STARTCHAR char106
ENCODING 106
SWIDTH 2442 0
DWIDTH 22 0
BBX 12 25 4 -5
BITMAP
0000
0000
0060
00F0
00F0
0060
0000
07F0
07F0
07F0
00F0
00F0
00F0
00F0
00F0
00F0
00F0
00F0
00F0
00F0
F0F0
F0F0
FFF0
7FE0
1F80
ENDCHAR
STARTCHAR char107
ENCODING 107
SWIDTH 2442 0
DWIDTH 22 0
BBX 15 25 4 -5
BITMAP
F000
F000
F000
F000
F000
F000
F000
F07E
F0FC
F1F8
F7E0
FFC0
FF80
FF00
FF80
FFC0
F7E0
F1F8
F0FC
F07E
0000
0000
0000
0000
0000
ENDCHAR
STARTCHAR char108
ENCODING 108
SWIDTH 2442 0
DWIDTH 22 0
BBX 10 25 7 -5
BITMAP
FE00
FE00
FE00
1E00
1E00
1E00
1E00
1E00
1E00
1E00
1E00
1E00
1E00
1E00
1E00
1E00
1E00
FFC0
FFC0
FFC0
0000
0000
0000
0000
0000
ENDCHAR
STARTCHAR char109
ENCODING 109
SWIDTH 2442 0
DWIDTH 22 0
BBX 18 25 2 -5
BITMAP
000000
000000
000000
000000
000000
000000
000000
F71E00
FFFF80
FFFFC0
FBF7C0
F1E3C0
F1E3C0
F1E3C0
F1E3C0
F1E3C0
F1E3C0
F1E3C0
F1E3C0
F1E3C0
000000
000000
000000
000000
000000
ENDCHAR
STARTCHAR char110
ENCODING 110
SWIDTH 2442 0
DWIDTH 22 0
BBX 15 25 4 -5
BITMAP
0000
0000
0000
0000
0000
0000
0000
F7F0
FFFC
FFFE
F83E
F01E
F01E
F01E
F01E
F01E
F01E
F01E
F01E
F01E
0000
0000
0000
0000
0000
ENDCHAR
STARTCHAR char111
ENCODING 111
SWIDTH 2442 0
DWIDTH 22 0
BBX 15 25 4 -5
BITMAP
0000
0000
0000
0000
0000
0000
0000
1FF0
7FFC
FFFE
F83E
F01E
F01E
F01E
F01E
F01E
F83E
FFFE
7FFC
1FF0
0000
0000
0000
0000
0000
ENDCHAR
STARTCHAR char112
ENCODING 112
SWIDTH 2442 0
DWIDTH 22 0
BBX 15 25 4 -5
BITMAP
0000
0000
0000
0000
0000
0000
0000
FFF0
FFFC
FFFE
F03E
F01E
F01E
F01E
F01E
F01E
F03E
FFFE
FFFC
FFF0
F000
F000
F000
F000
F000
ENDCHAR
STARTCHAR char113
ENCODING 113
SWIDTH 2442 0
DWIDTH 22 0
BBX 15 25 4 -5
BITMAP
0000
0000
0000
0000
0000
0000
0000
1FFE
7FFE
FFFE
F81E
F01E
F01E
F01E
F01E
F01E
F81E
FFFE
7FFE
1FFE
001E
001E
001E
001E
001E
ENDCHAR
STARTCHAR char114
ENCODING 114
SWIDTH 2442 0
DWIDTH 22 0
BBX 15 25 4 -5
BITMAP
0000
0000
0000
0000
0000
0000
0000
F7F0
FFFC
FFFE
F83E
F01E
F000
F000
F000
F000
F000
F000
F000
F000
0000
0000
0000
0000
0000
ENDCHAR
STARTCHAR char115
ENCODING 115
SWIDTH 2442 0
DWIDTH 22 0
BBX 15 25 4 -5
BITMAP
0000
0000
0000
0000
0000
0000
0000
1FF0
7FFC
FFFE
F000
F000
FFF0
7FFC
1FFE
001E
001E
FFFE
7FFC
1FF0
0000
0000
0000
0000
0000
ENDCHAR
STARTCHAR char116
ENCODING 116
SWIDTH 2442 0
DWIDTH 22 0
BBX 16 25 4 -5
BITMAP
0000
0000
0000
0780
0780
0780
0780
FFFE
FFFE
FFFE
0780
0780
0780
0780
0780
0780
078F
07FF
03FE
00F8
0000
0000
0000
0000
0000
ENDCHAR
STARTCHAR char117
ENCODING 117
SWIDTH 2442 0
DWIDTH 22 0
BBX 15 25 4 -5
BITMAP
0000
0000
0000
0000
0000
0000
0000
F01E
F01E
F01E
F01E
F01E
F01E
F01E
F01E
F01E
F83E
FFFE
7FFE
1FDE
0000
0000
0000
0000
0000
ENDCHAR
STARTCHAR char118
ENCODING 118
SWIDTH 2442 0
DWIDTH 22 0
BBX 15 25 4 -5
BITMAP
0000
0000
0000
0000
0000
0000
0000
F01E
F01E
783C
783C
783C
3C78
3C78
1EF0
1EF0
0FE0
0FE0
07C0
07C0
0000
0000
0000
0000
0000
ENDCHAR
STARTCHAR char119
ENCODING 119
SWIDTH 2442 0
DWIDTH 22 0
BBX 19 25 2 -5
BITMAP
000000
000000
000000
000000
000000
000000
000000
F0E1E0
F0E1E0
79F3C0
79F3C0
79F3C0
7BFBC0
3FBF80
3FBF80
3F1F80
1F1F00
1E0F00
1E0F00
1E0F00
000000
000000
000000
000000
000000
ENDCHAR
STARTCHAR char120
ENCODING 120
SWIDTH 2442 0
DWIDTH 22 0
BBX 17 25 4 -5
BITMAP
000000
000000
000000
000000
000000
000000
000000
F80F80
7C1F00
3E3E00
1F7C00
0FF800
07F000
03E000
07F000
0FF800
1F7C00
3E3E00
7C1F00
F80F80
000000
000000
000000
000000
000000
ENDCHAR
STARTCHAR char121
ENCODING 121
SWIDTH 2442 0
DWIDTH 22 0
BBX 16 25 4 -5
BITMAP
0000
0000
0000
0000
0000
0000
0000
F81F
F81F
7C3E
7C3E
3E7C
3E7C
1FF8
1FF8
0FF0
07F0
07E0
03E0
07C0
07C0
0F80
0F80
1F00
1F00
ENDCHAR
STARTCHAR char122
ENCODING 122
SWIDTH 2442 0
DWIDTH 22 0
BBX 15 25 4 -5
BITMAP
0000
0000
0000
0000
0000
0000
0000
FFFE
FFFE
FFFE
007C
00F8
7FFC
7FFC
7FFC
3E00
7C00
FFFE
FFFE
FFFE
0000
0000
0000
0000
0000
ENDCHAR
STARTCHAR char123
ENCODING 123
SWIDTH 2442 0
DWIDTH 22 0
BBX 13 25 5 -5
BITMAP
00F8
03F8
07F8
0FC0
0F80
0F80
0F80
0F80
3F00
FC00
FC00
3F00
0F80
0F80
0F80
0F80
0FC0
07F8
03F8
00F8
0000
0000
0000
0000
0000
ENDCHAR
STARTCHAR char124
ENCODING 124
SWIDTH 2442 0
DWIDTH 22 0
BBX 5 25 7 -5
BITMAP
F8
F8
F8
F8
F8
F8
F8
F8
F8
F8
F8
F8
F8
F8
F8
F8
F8
F8
F8
F8
F8
F8
F8
F8
F8
ENDCHAR
STARTCHAR char125
ENCODING 125
SWIDTH 2442 0
DWIDTH 22 0
BBX 13 25 3 -5
BITMAP
F000
FE00
FF00
1F80
0F80
0F80
0F80
0F80
07E0
01F8
01F8
07E0
0F80
0F80
0F80
0F80
1F80
FF00
FE00
F800
0000
0000
0000
0000
0000
ENDCHAR
STARTCHAR char126
ENCODING 126
SWIDTH 2442 0
DWIDTH 22 0
BBX 19 25 1 -5
BITMAP
000000
000000
000000
000000
000000
000000
1F0020
7FC0E0
FFF3E0
FFFFE0
FFFFE0
F9FFE0
E07FC0
801F00
000000
000000
000000
000000
000000
000000
000000
000000
000000
000000
000000
ENDCHAR
STARTCHAR char127
ENCODING 127
SWIDTH 2442 0
DWIDTH 22 0
BBX 19 25 1 -5
BITMAP
FFFFE0
FFFFE0
FFFFE0
FFFFE0
FFFFE0
FFFFE0
FFFFE0
FFFFE0
FFFFE0
FFFFE0
FFFFE0
FFFFE0
FFFFE0
FFFFE0
FFFFE0
FFFFE0
FFFFE0
FFFFE0
FFFFE0
FFFFE0
000000
000000
000000
000000
000000
ENDCHAR
ENDFONT
