STARTFONT 2.1
FONT -MIT-S25APL KST-Medium-R-Normal--25-9-200-200-P-14-ISO8859-1
SIZE 9 200 200
FONTBOUNDINGBOX 26 25 -2 -5
STARTPROPERTIES 17
ADD_STYLE_NAME ""
AVERAGE_WIDTH 14
CHARSET_ENCODING "1"
CHARSET_REGISTRY "ISO8859"
DEFAULT_CHAR 0
FAMILY "S25APL KST"
FONT_ASCENT 20
FONT_DESCENT 5
FOUNDRY "MIT"
PIXEL_SIZE 25
POINT_SIZE 9
RESOLUTION_X 200
RESOLUTION_Y 200
SETWIDTH_NAME "Normal"
SLANT "R"
SPACING "P"
WEIGHT_NAME "Medium"
ENDPROPERTIES
CHARS 117
STARTCHAR char1
ENCODING 1
SWIDTH 777 0
DWIDTH 7 0
BBX 4 25 1 -5
BITMAP
00
00
00
00
00
00
00
00
00
60
F0
F0
60
00
00
00
60
F0
F0
90
10
30
60
60
C0
ENDCHAR
STARTCHAR char2
ENCODING 2
SWIDTH 777 0
DWIDTH 7 0
BBX 4 25 1 -5
BITMAP
00
00
00
00
00
00
00
00
60
F0
F0
60
00
00
00
00
60
F0
F0
60
00
00
00
00
00
ENDCHAR
STARTCHAR char3
ENCODING 3
SWIDTH 888 0
DWIDTH 8 0
BBX 5 25 1 -5
BITMAP
00
00
F8
F8
C0
C0
C0
C0
C0
C0
C0
C0
C0
C0
C0
C0
C0
C0
C0
C0
F8
F8
00
00
00
ENDCHAR
STARTCHAR char5
ENCODING 5
SWIDTH 777 0
DWIDTH 7 0
BBX 4 25 1 -5
BITMAP
00
60
F0
F0
F0
F0
F0
60
60
60
60
60
60
00
00
00
60
F0
F0
60
00
00
00
00
00
ENDCHAR
STARTCHAR char6
ENCODING 6
SWIDTH 1554 0
DWIDTH 14 0
BBX 12 25 0 -5
BITMAP
0000
0000
0600
0600
0600
0600
1F80
3FC0
76E0
E670
C630
C630
C630
C630
E670
76E0
3FC0
1F80
0600
0600
0600
0600
0000
0000
0000
ENDCHAR
STARTCHAR char7
ENCODING 7
SWIDTH 1554 0
DWIDTH 14 0
BBX 12 25 0 -5
BITMAP
6000
6000
7000
3000
3000
3800
1F80
3FC0
7CE0
EC70
CC30
CE30
C630
C630
E770
73E0
3FC0
1F80
0180
0180
01C0
00C0
00E0
0060
0060
ENDCHAR
STARTCHAR char8
ENCODING 8
SWIDTH 1332 0
DWIDTH 12 0
BBX 10 25 0 -5
BITMAP
0000
0000
0000
0000
0000
FFC0
FFC0
0C00
0C00
0C00
0C00
0C00
0C00
0C00
0C00
0C00
0C00
0C00
FFC0
FFC0
0000
0000
0000
0000
0000
ENDCHAR
STARTCHAR char14
ENCODING 14
SWIDTH 1887 0
DWIDTH 17 0
BBX 14 25 1 -5
BITMAP
0000
0000
FFFC
FFFC
C78C
C78C
C30C
C30C
C00C
C00C
C00C
C00C
C00C
C00C
C00C
C00C
C00C
C00C
C00C
C00C
FFFC
FFFC
0000
0000
0000
ENDCHAR
STARTCHAR char15
ENCODING 15
SWIDTH 1554 0
DWIDTH 14 0
BBX 12 25 0 -5
BITMAP
0000
0000
0000
0000
0000
0000
1F80
3FC0
74E0
F4F0
CD30
C7F0
FE30
CB30
F2F0
72E0
3FC0
1F80
0000
0000
0000
0000
0000
0000
0000
ENDCHAR
STARTCHAR char16
ENCODING 16
SWIDTH 2109 0
DWIDTH 19 0
BBX 17 25 0 -5
BITMAP
000000
000000
000000
000000
000000
000000
008000
01C000
036000
036000
1E3080
3F3180
6DDB00
CC7E00
183C00
180C00
300600
300600
600300
600300
000000
000000
000000
000000
000000
ENDCHAR
STARTCHAR char17
ENCODING 17
SWIDTH 2109 0
DWIDTH 19 0
BBX 17 25 0 -5
BITMAP
000000
000000
000000
000000
000000
000000
600300
600300
300600
300600
1E0C80
3F0D80
6DDB00
CC7E00
063C00
063000
036000
036000
01C000
008000
000000
000000
000000
000000
000000
ENDCHAR
STARTCHAR char18
ENCODING 18
SWIDTH 1554 0
DWIDTH 14 0
BBX 12 25 0 -5
BITMAP
0000
0000
1F80
3FC0
70E0
E070
C030
C030
C030
C030
E070
F0F0
FFF0
DFB0
C030
C030
C030
C030
C030
C030
0000
0000
0000
0000
0000
ENDCHAR
STARTCHAR char19
ENCODING 19
SWIDTH 1554 0
DWIDTH 14 0
BBX 12 25 0 -5
BITMAP
0000
0000
0600
0600
0600
0600
1F80
1F80
1F80
3FC0
36C0
36C0
76E0
6660
6660
E670
C630
C630
FFF0
FFF0
0600
0600
0000
0000
0000
ENDCHAR
STARTCHAR char20
ENCODING 20
SWIDTH 1554 0
DWIDTH 14 0
BBX 12 25 0 -5
BITMAP
0000
0000
0600
0600
FFF0
FFF0
C630
C630
E670
6660
6660
76E0
36C0
36C0
3FC0
1F80
1F80
1F80
0600
0600
0600
0600
0000
0000
0000
ENDCHAR
STARTCHAR char21
ENCODING 21
SWIDTH 1554 0
DWIDTH 14 0
BBX 12 25 0 -5
BITMAP
0000
0000
0000
0000
0000
0000
1F80
3FC0
70E0
E070
C030
DFB0
DFB0
C030
E070
70E0
3FC0
1F80
0000
0000
0000
0000
0000
0000
0000
ENDCHAR
STARTCHAR char22
ENCODING 22
SWIDTH 1443 0
DWIDTH 13 0
BBX 10 25 1 -5
BITMAP
00C0
01C0
0180
0180
0380
0300
0300
0700
0600
0600
0E00
0C00
FFC0
FFC0
1800
1800
3800
3000
3000
7000
6000
6000
E000
C000
C000
ENDCHAR
STARTCHAR char23
ENCODING 23
SWIDTH 1443 0
DWIDTH 13 0
BBX 10 25 1 -5
BITMAP
C000
C000
E000
6000
6000
7000
3000
3000
3800
1800
1800
1C00
FFC0
FFC0
0E00
0600
0600
0700
0300
0300
0380
0180
0180
01C0
00C0
ENDCHAR
STARTCHAR char24
ENCODING 24
SWIDTH 1998 0
DWIDTH 18 0
BBX 15 25 1 -5
BITMAP
0000
0000
0000
0000
0000
0100
C386
C6C6
66CC
6C6C
3C78
3838
1830
3838
3C78
6C6C
66CC
C6C6
C386
0100
0000
0000
0000
0000
0000
ENDCHAR
STARTCHAR char25
ENCODING 25
SWIDTH 2109 0
DWIDTH 19 0
BBX 17 25 0 -5
BITMAP
000000
000000
000000
000000
000000
1FFE00
1FFE00
180600
180600
1C0E00
1E0C80
3F0D80
6FDF00
C67E00
063C00
073800
033000
033000
03F000
00C000
000000
000000
000000
000000
000000
ENDCHAR
STARTCHAR char26
ENCODING 26
SWIDTH 1887 0
DWIDTH 17 0
BBX 14 25 1 -5
BITMAP
0000
0000
FFFC
FFFC
F03C
F03C
F03C
F03C
F87C
D86C
D86C
DCEC
DCEC
CCCC
CFCC
CF8C
C78C
C78C
C30C
C30C
FFFC
FFFC
0000
0000
0000
ENDCHAR
STARTCHAR char27
ENCODING 27
SWIDTH 1887 0
DWIDTH 17 0
BBX 14 25 1 -5
BITMAP
0000
0000
FFFC
FFFC
C00C
C00C
C00C
C60C
CC0C
D80C
F00C
FFFC
FFFC
F00C
D80C
CC0C
C60C
C00C
C00C
C00C
FFFC
FFFC
0000
0000
0000
ENDCHAR
STARTCHAR char28
ENCODING 28
SWIDTH 1887 0
DWIDTH 17 0
BBX 14 25 1 -5
BITMAP
0000
0000
FFFC
FFFC
C00C
C00C
C00C
C18C
C0CC
C06C
C03C
FFFC
FFFC
C03C
C06C
C0CC
C18C
C00C
C00C
C00C
FFFC
FFFC
0000
0000
0000
ENDCHAR
STARTCHAR char29
ENCODING 29
SWIDTH 1887 0
DWIDTH 17 0
BBX 14 25 1 -5
BITMAP
0000
0000
FFFC
FFFC
C00C
C00C
C00C
C30C
C30C
C00C
C00C
DFEC
DFEC
C00C
C00C
C30C
C30C
C00C
C00C
C00C
FFFC
FFFC
0000
0000
0000
ENDCHAR
STARTCHAR char30
ENCODING 30
SWIDTH 1332 0
DWIDTH 12 0
BBX 10 25 0 -5
BITMAP
0000
0C00
0C00
0C00
3F00
7F80
EDC0
CCC0
CC00
CC00
EC00
7F00
3F80
0DC0
0CC0
0CC0
CCC0
EDC0
7F80
3F00
0C00
0C00
0C00
0000
0000
ENDCHAR
STARTCHAR char31
ENCODING 31
SWIDTH 1554 0
DWIDTH 14 0
BBX 12 25 0 -5
BITMAP
0000
0000
7FE0
7FE0
0600
0600
1F80
3FC0
76E0
E670
C630
C630
C630
C630
E670
76E0
3FC0
1F80
0600
0600
7FE0
7FE0
0000
0000
0000
ENDCHAR
STARTCHAR char32
ENCODING 32
SWIDTH 1110 0
DWIDTH 10 0
BBX 1 25 0 -5
BITMAP
00
00
00
00
00
00
00
00
00
00
00
00
00
00
00
00
00
00
00
00
00
00
00
00
00
ENDCHAR
STARTCHAR char33
ENCODING 33
SWIDTH 888 0
DWIDTH 8 0
BBX 5 25 1 -5
BITMAP
08
18
30
20
60
60
40
C0
C0
C0
80
80
80
C0
C0
C0
40
60
60
20
30
18
08
00
00
ENDCHAR
STARTCHAR char34
ENCODING 34
SWIDTH 888 0
DWIDTH 8 0
BBX 5 25 1 -5
BITMAP
80
C0
60
20
30
30
10
18
18
18
08
08
08
18
18
18
10
30
30
20
60
C0
80
00
00
ENDCHAR
STARTCHAR char35
ENCODING 35
SWIDTH 777 0
DWIDTH 7 0
BBX 5 25 0 -5
BITMAP
00
00
F8
F8
18
18
18
18
18
18
18
18
18
18
18
18
18
18
18
18
F8
F8
00
00
00
ENDCHAR
STARTCHAR char36
ENCODING 36
SWIDTH 1332 0
DWIDTH 12 0
BBX 10 25 0 -5
BITMAP
0000
0C00
0C00
0C00
3F00
7F80
EDC0
CCC0
CC00
CC00
EC00
7F00
3F80
0DC0
0CC0
0CC0
CCC0
EDC0
7F80
3F00
0C00
0C00
0C00
0000
0000
ENDCHAR
STARTCHAR char37
ENCODING 37
SWIDTH 1332 0
DWIDTH 12 0
BBX 10 25 0 -5
BITMAP
0000
0000
0000
0000
0000
0000
0000
0000
0000
FFC0
FFC0
0000
0000
FFC0
FFC0
0000
0000
0000
0000
0000
0000
0000
0000
0000
0000
ENDCHAR
STARTCHAR char38
ENCODING 38
SWIDTH 1110 0
DWIDTH 10 0
BBX 8 25 0 -5
BITMAP
00
00
00
00
00
00
00
00
00
C3
66
3C
18
3C
66
C3
00
00
00
00
00
00
00
00
00
ENDCHAR
STARTCHAR char39
ENCODING 39
SWIDTH 1332 0
DWIDTH 12 0
BBX 10 25 0 -5
BITMAP
0000
C000
6000
3000
1800
0C00
0600
0300
0180
00C0
0180
0300
0600
0C00
1800
3000
6000
C000
0000
0000
0000
FFC0
0000
0000
0000
ENDCHAR
STARTCHAR char40
ENCODING 40
SWIDTH 1887 0
DWIDTH 17 0
BBX 15 25 0 -5
BITMAP
0000
0000
0000
0000
0000
0000
C006
C006
600C
600C
3018
3018
1830
1830
0C60
0C60
06C0
06C0
0380
0100
0000
0000
0000
0000
0000
ENDCHAR
STARTCHAR char41
ENCODING 41
SWIDTH 1998 0
DWIDTH 18 0
BBX 15 25 1 -5
BITMAP
0000
0000
0000
0000
0000
0100
0380
06C0
06C0
0C60
0C60
1830
1830
3018
3018
600C
600C
C006
C006
0000
0000
0000
0000
0000
0000
ENDCHAR
STARTCHAR char42
ENCODING 42
SWIDTH 1332 0
DWIDTH 12 0
BBX 10 25 0 -5
BITMAP
0000
0040
00C0
00C0
0180
0180
0300
FFC0
FFC0
0600
0C00
FFC0
FFC0
3000
6000
6000
C000
8000
8000
0000
0000
0000
0000
0000
0000
ENDCHAR
STARTCHAR char43
ENCODING 43
SWIDTH 1443 0
DWIDTH 13 0
BBX 10 25 1 -5
BITMAP
0000
0000
0000
0000
0000
0000
0000
0C00
0C00
0000
0000
FFC0
FFC0
0000
0000
0C00
0C00
0000
0000
0000
0000
0000
0000
0000
0000
ENDCHAR
STARTCHAR char44
ENCODING 44
SWIDTH 666 0
DWIDTH 6 0
BBX 4 25 0 -5
BITMAP
00
00
00
00
00
00
00
00
00
00
00
00
00
00
00
00
60
F0
F0
10
10
30
60
60
C0
ENDCHAR
STARTCHAR char45
ENCODING 45
SWIDTH 1443 0
DWIDTH 13 0
BBX 10 25 1 -5
BITMAP
0000
0000
0000
0000
0000
0000
0000
0C00
0C00
0C00
0C00
FFC0
FFC0
0C00
0C00
0C00
0C00
0000
0000
0000
0000
0000
0000
0000
0000
ENDCHAR
STARTCHAR char46
ENCODING 46
SWIDTH 666 0
DWIDTH 6 0
BBX 4 25 0 -5
BITMAP
00
00
00
00
00
00
00
00
00
00
00
00
00
00
00
00
00
E0
F0
E0
00
00
00
00
00
ENDCHAR
STARTCHAR char47
ENCODING 47
SWIDTH 1443 0
DWIDTH 13 0
BBX 10 25 1 -5
BITMAP
00C0
01C0
0180
0180
0380
0300
0300
0700
0600
0600
0E00
0C00
0C00
1C00
1800
1800
3800
3000
3000
7000
6000
6000
E000
C000
C000
ENDCHAR
STARTCHAR char48
ENCODING 48
SWIDTH 1554 0
DWIDTH 14 0
BBX 11 25 0 -5
BITMAP
0000
0000
0780
0CC0
18C0
38E0
70E0
70E0
70E0
F0E0
E0E0
E0E0
E1E0
E1E0
E1C0
E1C0
E380
E380
6700
3E00
0000
0000
0000
0000
0000
ENDCHAR
STARTCHAR char49
ENCODING 49
SWIDTH 1554 0
DWIDTH 14 0
BBX 8 25 2 -5
BITMAP
00
00
1F
0F
07
07
07
0F
0E
0E
0E
0E
1E
1C
1C
1C
1C
1C
3C
FF
00
00
00
00
00
ENDCHAR
STARTCHAR char50
ENCODING 50
SWIDTH 1554 0
DWIDTH 14 0
BBX 12 25 0 -5
BITMAP
0000
0000
07C0
0CE0
1870
1070
1C70
1C70
1C70
00E0
01C0
0180
0300
0600
0C00
1860
3040
FFC0
FFC0
FFC0
0000
0000
0000
0000
0000
ENDCHAR
STARTCHAR char51
ENCODING 51
SWIDTH 1554 0
DWIDTH 14 0
BBX 12 25 0 -5
BITMAP
0000
0000
0FC0
1CE0
1C70
1C70
08F0
00E0
01E0
0BC0
1FC0
01E0
00E0
00E0
00E0
E1E0
E1E0
E1C0
C380
7F00
0000
0000
0000
0000
0000
ENDCHAR
STARTCHAR char52
ENCODING 52
SWIDTH 1554 0
DWIDTH 14 0
BBX 12 25 0 -5
BITMAP
0000
0000
0060
00E0
01E0
01E0
03E0
05C0
0DC0
09C0
19C0
33C0
2390
6390
FFF0
03B0
03B0
0780
0780
1FC0
0000
0000
0000
0000
0000
ENDCHAR
STARTCHAR char53
ENCODING 53
SWIDTH 1554 0
DWIDTH 14 0
BBX 12 25 0 -5
BITMAP
0000
0010
0FF0
0FE0
1FE0
1800
1000
1000
1000
3800
3F80
01C0
00E0
00E0
40E0
E0E0
E1E0
61C0
6380
3F00
0000
0000
0000
0000
0000
ENDCHAR
STARTCHAR char54
ENCODING 54
SWIDTH 1554 0
DWIDTH 14 0
BBX 11 25 0 -5
BITMAP
0000
00E0
03C0
0700
0C00
1C00
3800
7800
7780
FDC0
F0E0
E0E0
E0E0
E0E0
E0E0
C1E0
C1C0
E1C0
6380
3E00
0000
0000
0000
0000
0000
ENDCHAR
STARTCHAR char55
ENCODING 55
SWIDTH 1554 0
DWIDTH 14 0
BBX 11 25 0 -5
BITMAP
0000
0000
3FE0
3FE0
7FE0
40C0
C080
0180
0100
0300
0300
0600
0600
0C00
1C00
3800
3800
3800
3800
3800
0000
0000
0000
0000
0000
ENDCHAR
STARTCHAR char56
ENCODING 56
SWIDTH 1554 0
DWIDTH 14 0
BBX 12 25 0 -5
BITMAP
0000
0000
07E0
0E70
1C70
1C70
3C70
3870
1870
1CE0
0FC0
1FC0
38E0
70E0
70E0
F0E0
F0E0
61E0
73C0
3F80
0000
0000
0000
0000
0000
ENDCHAR
STARTCHAR char57
ENCODING 57
SWIDTH 1554 0
DWIDTH 14 0
BBX 12 25 0 -5
BITMAP
0000
0000
07C0
1C60
3870
3830
7830
7070
7070
7070
7070
70F0
39E0
1FE0
01E0
01C0
0380
0600
1C00
7800
E000
0000
0000
0000
0000
ENDCHAR
STARTCHAR char58
ENCODING 58
SWIDTH 1332 0
DWIDTH 12 0
BBX 10 25 0 -5
BITMAP
0000
00C0
0180
0300
0600
0C00
1800
3000
6000
C000
6000
3000
1800
0C00
0600
0300
0180
00C0
0000
0000
0000
FFC0
0000
0000
0000
ENDCHAR
STARTCHAR char59
ENCODING 59
SWIDTH 1776 0
DWIDTH 16 0
BBX 14 25 0 -5
BITMAP
0000
0000
0000
0000
000C
003C
00F0
03C0
0F00
3C00
7000
E000
7000
3C00
0F00
03C0
00F0
003C
000C
0000
0000
0000
0000
0000
0000
ENDCHAR
STARTCHAR char60
ENCODING 60
SWIDTH 1443 0
DWIDTH 13 0
BBX 10 25 1 -5
BITMAP
0000
0000
FFC0
FFC0
0000
0000
0000
0000
0000
0000
0000
0000
0000
0000
0000
0000
0000
0000
0000
0000
0000
0000
0000
0000
0000
ENDCHAR
STARTCHAR char61
ENCODING 61
SWIDTH 1554 0
DWIDTH 14 0
BBX 12 25 0 -5
BITMAP
0000
0000
0000
0000
0000
0000
0000
0000
0000
0000
6060
F0F0
F0F0
6060
0000
0000
0000
0000
0000
0000
0000
0000
0000
0000
0000
ENDCHAR
STARTCHAR char62
ENCODING 62
SWIDTH 1776 0
DWIDTH 16 0
BBX 14 25 0 -5
BITMAP
0000
0000
0000
0000
C000
F000
3C00
0F00
03C0
00F0
0038
001C
0038
00F0
03C0
0F00
3C00
F000
C000
0000
0000
0000
0000
0000
0000
ENDCHAR
STARTCHAR char63
ENCODING 63
SWIDTH 1443 0
DWIDTH 13 0
BBX 10 25 1 -5
BITMAP
C000
E000
6000
6000
7000
3000
3000
3800
1800
1800
1C00
0C00
0C00
0E00
0600
0600
0700
0300
0300
0380
0180
0180
01C0
00C0
00C0
ENDCHAR
STARTCHAR char64
ENCODING 64
SWIDTH 1998 0
DWIDTH 18 0
BBX 15 25 1 -5
BITMAP
0000
0000
0000
0000
0000
0000
0600
0C00
1800
3000
6000
FFFE
FFFE
6000
3000
1800
0C00
0600
0000
0000
0000
0000
0000
0000
0000
ENDCHAR
STARTCHAR char65
ENCODING 65
SWIDTH 2331 0
DWIDTH 21 0
BBX 19 25 0 -5
BITMAP
000000
000000
000000
000000
000000
000000
000180
000300
000600
000400
1C0C00
3F0C00
61CC00
C07800
C03800
C03000
40E000
61D860
3F0EC0
1E0780
000000
000000
000000
000000
000000
ENDCHAR
STARTCHAR char66
ENCODING 66
SWIDTH 1332 0
DWIDTH 12 0
BBX 10 25 0 -5
BITMAP
0000
0000
0000
0000
0000
0C00
0C00
0C00
0C00
0C00
0C00
0C00
0C00
0C00
0C00
0C00
0C00
0C00
FFC0
FFC0
0000
0000
0000
0000
0000
ENDCHAR
STARTCHAR char67
ENCODING 67
SWIDTH 1554 0
DWIDTH 14 0
BBX 12 25 0 -5
BITMAP
0000
0000
0000
0000
0000
1F80
3FC0
70E0
E070
C030
C030
C030
C030
C030
C030
C030
C030
C030
C030
C030
0000
0000
0000
0000
0000
ENDCHAR
STARTCHAR char68
ENCODING 68
SWIDTH 888 0
DWIDTH 8 0
BBX 5 25 1 -5
BITMAP
00
00
C0
C0
C0
C0
C0
C0
C0
C0
C0
C0
C0
C0
C0
C0
C0
C0
C0
C0
F8
F8
00
00
00
ENDCHAR
STARTCHAR char69
ENCODING 69
SWIDTH 1221 0
DWIDTH 11 0
BBX 9 25 0 -5
BITMAP
0000
0000
0000
0000
0000
0380
0E00
1800
3000
6000
6000
E000
FF80
E000
6000
6000
3000
1800
0E00
0380
0000
0000
0000
0000
0000
ENDCHAR
STARTCHAR char70
ENCODING 70
SWIDTH 1332 0
DWIDTH 12 0
BBX 12 25 0 -5
BITMAP
0000
0000
0000
0000
0000
0000
0000
0000
0000
0000
0000
0000
0000
0000
0000
0000
0000
0000
0000
0000
FFF0
FFF0
0000
0000
0000
ENDCHAR
STARTCHAR char71
ENCODING 71
SWIDTH 1554 0
DWIDTH 14 0
BBX 12 25 0 -5
BITMAP
0000
0000
0000
0000
0000
FFF0
FFF0
C030
C030
E070
6060
6060
70E0
30C0
30C0
39C0
1980
1980
1F80
0600
0000
0000
0000
0000
0000
ENDCHAR
STARTCHAR char72
ENCODING 72
SWIDTH 1554 0
DWIDTH 14 0
BBX 12 25 0 -5
BITMAP
0000
0000
0000
0000
0000
0600
1F80
1980
1980
39C0
30C0
30C0
70E0
6060
6060
E070
C030
C030
FFF0
FFF0
0000
0000
0000
0000
0000
ENDCHAR
STARTCHAR char73
ENCODING 73
SWIDTH 1110 0
DWIDTH 10 0
BBX 8 25 0 -5
BITMAP
00
00
00
00
00
F0
F8
38
18
18
18
18
18
18
18
18
18
1C
1F
0F
00
00
00
00
00
ENDCHAR
STARTCHAR char74
ENCODING 74
SWIDTH 777 0
DWIDTH 7 0
BBX 5 25 0 -5
BITMAP
00
00
00
00
00
00
00
00
00
00
70
D8
88
D8
70
00
00
00
00
00
00
00
00
00
00
ENDCHAR
STARTCHAR char75
ENCODING 75
SWIDTH 666 0
DWIDTH 6 0
BBX 3 25 1 -5
BITMAP
E0
E0
E0
E0
E0
E0
40
00
00
00
00
00
00
00
00
00
00
00
00
00
00
00
00
00
00
ENDCHAR
STARTCHAR char76
ENCODING 76
SWIDTH 1887 0
DWIDTH 17 0
BBX 14 25 1 -5
BITMAP
0000
0000
FFFC
FFFC
C00C
C00C
C00C
C00C
C00C
C00C
C00C
C00C
C00C
C00C
C00C
C00C
C00C
C00C
C00C
C00C
FFFC
FFFC
0000
0000
0000
ENDCHAR
STARTCHAR char77
ENCODING 77
SWIDTH 555 0
DWIDTH 5 0
BBX 2 25 1 -5
BITMAP
00
00
C0
C0
C0
C0
C0
C0
C0
C0
C0
C0
C0
C0
C0
C0
C0
C0
C0
C0
C0
C0
00
00
00
ENDCHAR
STARTCHAR char78
ENCODING 78
SWIDTH 1332 0
DWIDTH 12 0
BBX 10 25 0 -5
BITMAP
0000
0000
0000
0000
0000
FFC0
FFC0
0C00
0C00
0C00
0C00
0C00
0C00
0C00
0C00
0C00
0C00
0C00
0C00
0C00
0000
0000
0000
0000
0000
ENDCHAR
STARTCHAR char79
ENCODING 79
SWIDTH 1554 0
DWIDTH 14 0
BBX 12 25 0 -5
BITMAP
0000
0000
0000
0000
0000
0000
1F80
3FC0
70E0
E070
C030
C030
C030
C030
E070
70E0
3FC0
1F80
0000
0000
0000
0000
0000
0000
0000
ENDCHAR
STARTCHAR char80
ENCODING 80
SWIDTH 1332 0
DWIDTH 12 0
BBX 10 25 0 -5
BITMAP
0000
0000
0000
0000
0000
0000
1E00
0C00
CCC0
EDC0
3300
0000
3300
EDC0
CCC0
0C00
1E00
0000
0000
0000
0000
0000
0000
0000
0000
ENDCHAR
STARTCHAR char81
ENCODING 81
SWIDTH 1221 0
DWIDTH 11 0
BBX 9 25 0 -5
BITMAP
0000
3E00
6700
C100
E180
E380
4380
0780
0F00
1E00
1C00
1800
1000
1000
1000
0000
0000
1800
3C00
1800
0000
0000
0000
0000
0000
ENDCHAR
STARTCHAR char82
ENCODING 82
SWIDTH 1332 0
DWIDTH 12 0
BBX 9 25 1 -5
BITMAP
0000
0000
0000
0000
0000
0000
0000
0000
0000
3E00
7F00
E380
C180
C180
C180
E380
FF00
FE00
C000
C000
C000
C000
0000
0000
0000
ENDCHAR
STARTCHAR char83
ENCODING 83
SWIDTH 888 0
DWIDTH 8 0
BBX 5 25 1 -5
BITMAP
00
00
F8
F8
C0
C0
C0
C0
C0
C0
C0
C0
C0
C0
C0
C0
C0
C0
C0
C0
C0
C0
00
00
00
ENDCHAR
STARTCHAR char84
ENCODING 84
SWIDTH 2109 0
DWIDTH 19 0
BBX 17 25 0 -5
BITMAP
000000
000000
000000
000000
000000
000000
000000
000000
000000
000000
1E0080
3F0180
61C300
C07E00
803C00
000000
000000
000000
000000
000000
000000
000000
000000
000000
000000
ENDCHAR
STARTCHAR char85
ENCODING 85
SWIDTH 1443 0
DWIDTH 13 0
BBX 12 25 0 -5
BITMAP
0600
0600
0600
0600
0600
0600
0600
0600
0600
0600
0600
0600
0600
8610
C630
6660
36C0
1F80
0F00
0600
0000
0000
0000
0000
0000
ENDCHAR
STARTCHAR char86
ENCODING 86
SWIDTH 1554 0
DWIDTH 14 0
BBX 12 25 0 -5
BITMAP
0000
0000
0000
0000
0000
C030
C030
C030
C030
C030
C030
C030
C030
C030
C030
C030
E070
70E0
3FC0
1F80
0000
0000
0000
0000
0000
ENDCHAR
STARTCHAR char88
ENCODING 88
SWIDTH 1887 0
DWIDTH 17 0
BBX 15 25 0 -5
BITMAP
0000
0000
0000
0000
0000
0000
0000
0000
FFF0
FFF8
001C
000E
0006
0006
0006
0006
000E
001C
FFF8
FFF0
0000
0000
0000
0000
0000
ENDCHAR
STARTCHAR char89
ENCODING 89
SWIDTH 1443 0
DWIDTH 13 0
BBX 12 25 0 -5
BITMAP
0600
0F00
1F80
36C0
6660
C630
8610
0600
0600
0600
0600
0600
0600
0600
0600
0600
0600
0600
0600
0600
0000
0000
0000
0000
0000
ENDCHAR
STARTCHAR char90
ENCODING 90
SWIDTH 1887 0
DWIDTH 17 0
BBX 15 25 0 -5
BITMAP
0000
0000
0000
0000
0000
0000
0000
0000
1FFE
3FFE
7000
E000
C000
C000
C000
C000
E000
7000
3FFE
1FFE
0000
0000
0000
0000
0000
ENDCHAR
STARTCHAR char91
ENCODING 91
SWIDTH 1221 0
DWIDTH 11 0
BBX 8 25 1 -5
BITMAP
0F
1E
30
30
30
30
18
18
10
20
60
E0
60
20
10
18
18
38
30
30
30
1E
0F
00
00
ENDCHAR
STARTCHAR char93
ENCODING 93
SWIDTH 1221 0
DWIDTH 11 0
BBX 8 25 1 -5
BITMAP
F0
78
0C
0C
0C
1C
18
18
08
04
06
07
06
04
08
18
18
0C
0C
0C
0C
78
F0
00
00
ENDCHAR
STARTCHAR char95
ENCODING 95
SWIDTH 1443 0
DWIDTH 13 0
BBX 10 25 1 -5
BITMAP
0000
0000
0000
0000
0000
0000
0000
0000
0000
0000
0000
FFC0
FFC0
0000
0000
0000
0000
0000
0000
0000
0000
0000
0000
0000
0000
ENDCHAR
STARTCHAR char96
ENCODING 96
SWIDTH 1998 0
DWIDTH 18 0
BBX 15 25 1 -5
BITMAP
0000
0000
0000
0000
0000
0000
00C0
0060
0030
0018
000C
FFFE
FFFE
000C
0018
0030
0060
00C0
0000
0000
0000
0000
0000
0000
0000
ENDCHAR
STARTCHAR char97
ENCODING 97
SWIDTH 1998 0
DWIDTH 18 0
BBX 16 25 0 -5
BITMAP
0000
003F
007F
007F
00CF
00CF
018F
018F
031E
031E
061E
061E
0FFE
0C1E
181E
183C
303C
303C
603C
F07F
0000
0000
0000
0000
0000
ENDCHAR
STARTCHAR char98
ENCODING 98
SWIDTH 2109 0
DWIDTH 19 0
BBX 17 25 0 -5
BITMAP
000000
1FFE00
038700
078380
078380
078780
078780
070780
0F0F00
0F1C00
0FF800
0F1E00
0E0E00
1E0F00
1E0700
1E0700
1C0F00
1C0E00
3C3E00
FFF800
000000
000000
000000
000000
000000
ENDCHAR
STARTCHAR char99
ENCODING 99
SWIDTH 1887 0
DWIDTH 17 0
BBX 16 25 0 -5
BITMAP
01F8
079D
0F07
1E07
3C02
7802
7800
7800
F000
F000
F000
F000
F000
F000
F006
F006
780C
7E3C
3FFC
0F8E
0000
0000
0000
0000
0000
ENDCHAR
STARTCHAR char100
ENCODING 100
SWIDTH 2220 0
DWIDTH 20 0
BBX 18 25 0 -5
BITMAP
000000
0FFC00
03CF00
07C380
078380
0781C0
0781C0
0781C0
0F01C0
0F01C0
0F01C0
0F03C0
0F03C0
1E03C0
1E0380
1E0780
1E0700
1E0F00
3C7C00
FFF000
000000
000000
000000
000000
000000
ENDCHAR
STARTCHAR char101
ENCODING 101
SWIDTH 2109 0
DWIDTH 19 0
BBX 17 25 0 -5
BITMAP
000000
1FFF80
078780
078180
078180
078180
079980
0F1800
0F1000
0F7000
0FF000
1F3000
1E3000
1E3000
1E2300
1E0300
3C0600
3C0E00
3C1E00
FFFE00
000000
000000
000000
000000
000000
ENDCHAR
STARTCHAR char102
ENCODING 102
SWIDTH 2220 0
DWIDTH 20 0
BBX 18 25 0 -5
BITMAP
000000
0FFFC0
03C3C0
07C080
078080
078080
078880
079800
0F1800
0F7000
0FF000
0F3000
0E3000
1E3000
1E3000
1E0000
1E0000
1E0000
3C0000
FF0000
000000
000000
000000
000000
000000
ENDCHAR
STARTCHAR char103
ENCODING 103
SWIDTH 2109 0
DWIDTH 19 0
BBX 17 25 0 -5
BITMAP
000000
01F380
079B80
0E0F00
1E0F00
3C0700
380300
780200
780000
F00000
F00000
F00000
F00000
F03F80
F01E00
F01E00
783E00
783C00
3C7800
1FF000
0FC000
000000
000000
000000
000000
ENDCHAR
STARTCHAR char104
ENCODING 104
SWIDTH 2664 0
DWIDTH 24 0
BBX 22 25 0 -5
BITMAP
000000
0FF3FC
03C0F0
03C0F0
0781E0
0781E0
0781E0
0781E0
0F03C0
0F03C0
0FFFC0
0F03C0
0F03C0
0F03C0
1E0780
1E0780
1E0780
1E0780
3C0F00
FF3FC0
000000
000000
000000
000000
000000
ENDCHAR
STARTCHAR char105
ENCODING 105
SWIDTH 1443 0
DWIDTH 13 0
BBX 12 25 0 -5
BITMAP
0000
0FF0
03C0
03C0
0780
0780
0780
0780
0F00
0F00
0F00
0F00
0F00
1E00
1E00
1E00
1E00
3C00
3C00
FF00
0000
0000
0000
0000
0000
ENDCHAR
STARTCHAR char106
ENCODING 106
SWIDTH 1776 0
DWIDTH 16 0
BBX 14 25 0 -5
BITMAP
0000
03FC
00F0
00F0
01E0
01E0
01E0
01E0
01E0
03C0
03C0
03C0
03C0
03C0
03C0
0780
0780
0780
6700
E700
C700
7E00
1800
0000
0000
ENDCHAR
STARTCHAR char107
ENCODING 107
SWIDTH 2442 0
DWIDTH 22 0
BBX 20 25 0 -5
BITMAP
000000
1FF3F0
03C0C0
078180
078300
078600
078C00
0F1800
0F7000
0FE000
0FE000
0FF000
1E7800
1E7800
1E3C00
1E1E00
1E0E00
3C0F00
3C0780
FF1FE0
000000
000000
000000
000000
000000
ENDCHAR
STARTCHAR char108
ENCODING 108
SWIDTH 1887 0
DWIDTH 17 0
BBX 15 25 0 -5
BITMAP
0000
0FF0
03C0
0780
0780
0780
0780
0F00
0F00
0F00
0F00
0F00
1E00
1E00
1E02
1E02
3C06
3C0E
3C1E
FFFC
0000
0000
0000
0000
0000
ENDCHAR
STARTCHAR char109
ENCODING 109
SWIDTH 2886 0
DWIDTH 26 0
BBX 24 25 0 -5
BITMAP
000000
0FE03F
03E07C
03E07C
03E0F8
07E0F8
07E1F8
07E178
07E378
05E278
0DE6F0
0DE4F0
0DFCF0
09F8F0
18F9F0
18F1E0
18F1E0
18E1E0
10C1E0
FCCFF8
000000
000000
000000
000000
000000
ENDCHAR
STARTCHAR char110
ENCODING 110
SWIDTH 2331 0
DWIDTH 21 0
BBX 21 25 0 -5
BITMAP
000000
1FC0F8
03C030
07C030
07E020
05E060
04F060
04F060
0C7840
0C78C0
083CC0
083CC0
183C80
181E80
101F80
100F80
100F80
300700
300700
FC0300
000000
000000
000000
000000
000000
ENDCHAR
STARTCHAR char111
ENCODING 111
SWIDTH 1998 0
DWIDTH 18 0
BBX 16 25 0 -5
BITMAP
0000
03F8
071C
0E0E
1C06
3C07
7807
7807
780F
F00F
F00F
F00F
F00F
F01E
E01E
E01E
E03C
6038
7070
38E0
1F80
0000
0000
0000
0000
ENDCHAR
STARTCHAR char112
ENCODING 112
SWIDTH 2220 0
DWIDTH 20 0
BBX 18 25 0 -5
BITMAP
000000
0FFC00
03CF00
078380
078380
0783C0
0783C0
0F03C0
0F0780
0F0F00
0FFE00
0FF000
1E0000
1E0000
1E0000
1E0000
3C0000
3C0000
3C0000
FF0000
000000
000000
000000
000000
000000
ENDCHAR
STARTCHAR char113
ENCODING 113
SWIDTH 1998 0
DWIDTH 18 0
BBX 16 25 0 -5
BITMAP
0000
03F8
071C
0E0E
1C06
3C07
7807
7807
780F
F00F
F00F
F00F
F00F
F01E
E01E
E01E
E03C
6038
7070
38E0
1F80
0F00
0700
0780
03C0
ENDCHAR
STARTCHAR char114
ENCODING 114
SWIDTH 2109 0
DWIDTH 19 0
BBX 17 25 0 -5
BITMAP
000000
1FFE00
078F00
078780
0F0780
0F0780
0F0780
0F0700
1E0F00
1FFC00
1FE000
1E7000
1E3800
1E3C00
3C1C00
3C1E00
3C1E00
3C1E00
780E00
FE0F80
000000
000000
000000
000000
000000
ENDCHAR
STARTCHAR char115
ENCODING 115
SWIDTH 1776 0
DWIDTH 16 0
BBX 14 25 0 -5
BITMAP
0000
07E4
0C7C
181C
101C
3008
3808
3E00
1F80
1FC0
0FE0
03F0
01F0
00F8
4078
C038
C038
E030
F060
9DC0
0F00
0000
0000
0000
0000
ENDCHAR
STARTCHAR char116
ENCODING 116
SWIDTH 1998 0
DWIDTH 18 0
BBX 18 25 0 -5
BITMAP
000000
3FFFC0
38E780
71E180
61E180
41E180
C3C180
03C000
03C000
03C000
03C000
078000
078000
078000
078000
0F0000
0F0000
0F0000
0F0000
7FC000
000000
000000
000000
000000
000000
ENDCHAR
STARTCHAR char117
ENCODING 117
SWIDTH 2220 0
DWIDTH 20 0
BBX 20 25 0 -5
BITMAP
000000
7F81F0
1E0060
1E0040
3C0040
3C00C0
3C0080
3C0080
780180
780100
780100
780100
780300
F00200
F00600
F00600
F00400
700C00
783800
3FF000
070000
000000
000000
000000
000000
ENDCHAR
STARTCHAR char118
ENCODING 118
SWIDTH 2220 0
DWIDTH 20 0
BBX 15 25 1 -5
BITMAP
0000
FE3E
700C
7018
7010
7030
7020
7060
7040
70C0
7080
7180
7100
7300
7200
7600
7400
7C00
7800
7800
0000
0000
0000
0000
0000
ENDCHAR
STARTCHAR char119
ENCODING 119
SWIDTH 2997 0
DWIDTH 27 0
BBX 26 25 0 -5
BITMAP
00000000
FFFFFFC0
3C3C6300
3C3CC600
3C3D8C00
3C3D0800
3C3F1800
3C3E1000
3C3E3000
787C6000
787C4000
78F8C000
79F98000
79790000
7B7B0000
7E7E0000
7C7C0000
7C7C0000
78780000
70780000
00000000
00000000
00000000
00000000
00000000
ENDCHAR
STARTCHAR char120
ENCODING 120
SWIDTH 2331 0
DWIDTH 21 0
BBX 19 25 0 -5
BITMAP
000000
1FE7E0
078180
07C100
03C300
03C600
01E400
01EC00
01F800
00F000
00F000
00F800
00F800
01F800
033C00
023C00
063C00
0C1E00
081E00
FE7FC0
000000
000000
000000
000000
000000
ENDCHAR
STARTCHAR char121
ENCODING 121
SWIDTH 2220 0
DWIDTH 20 0
BBX 18 25 0 -5
BITMAP
000000
FF9FC0
3C0600
1E0600
1E0C00
1E0800
1E1800
0F1000
0F3000
0F2000
076000
07C000
07C000
078000
078000
0F0000
0F0000
0F0000
0F0000
7FC000
000000
000000
000000
000000
000000
ENDCHAR
STARTCHAR char122
ENCODING 122
SWIDTH 2109 0
DWIDTH 19 0
BBX 17 25 0 -5
BITMAP
000000
07FF80
0F0780
0E1F80
0C1E00
083E00
083C00
007800
00F800
00F000
01E000
03E000
07C000
0F8000
0F0200
1F0600
1E0600
3C0E00
7C1C00
FFFC00
000000
000000
000000
000000
000000
ENDCHAR
STARTCHAR char123
ENCODING 123
SWIDTH 1887 0
DWIDTH 17 0
BBX 15 25 0 -5
BITMAP
0000
C006
4004
600C
600C
2008
3FF8
3018
1010
1830
1830
0820
0820
0C60
0440
0440
06C0
0280
0380
0100
0000
0000
0000
0000
0000
ENDCHAR
STARTCHAR char124
ENCODING 124
SWIDTH 1887 0
DWIDTH 17 0
BBX 15 25 0 -5
BITMAP
0000
FFFE
FFF8
8018
8018
0018
0018
0018
0118
0198
01F8
0198
0118
0018
0018
0018
8018
8018
FFF8
FFFE
0000
0000
0000
0000
0000
ENDCHAR
STARTCHAR char125
ENCODING 125
SWIDTH 2331 0
DWIDTH 21 0
BBX 18 25 1 -5
BITMAP
000000
000000
000000
000000
000000
000000
000000
0C0C00
180600
300300
600180
FFFFC0
FFFFC0
600180
300300
180600
0C0C00
000000
000000
000000
000000
000000
000000
000000
000000
ENDCHAR
STARTCHAR char127
ENCODING 127
SWIDTH 1110 0
DWIDTH 10 0
BBX 1 25 0 -5
BITMAP
00
00
00
00
00
00
00
00
00
00
00
00
00
00
00
00
00
00
00
00
00
00
00
00
00
ENDCHAR
ENDFONT
