STARTFONT 2.1
FONT -MIT-S25CHP KST-Medium-R-Normal--25-9-200-200-P-30-ISO8859-1
SIZE 9 200 200
FONTBOUNDINGBOX 30 25 0 -2
STARTPROPERTIES 17
ADD_STYLE_NAME ""
AVERAGE_WIDTH 30
CHARSET_ENCODING "1"
CHARSET_REGISTRY "ISO8859"
DEFAULT_CHAR 0
FAMILY "S25CHP KST"
FONT_ASCENT 23
FONT_DESCENT 2
FOUNDRY "MIT"
PIXEL_SIZE 25
POINT_SIZE 9
RESOLUTION_X 200
RESOLUTION_Y 200
SETWIDTH_NAME "Normal"
SLANT "R"
SPACING "P"
WEIGHT_NAME "Medium"
ENDPROPERTIES
CHARS 6
STARTCHAR char66
ENCODING 66
SWIDTH 3108 0
DWIDTH 28 0
BBX 24 25 0 -2
BITMAP
001800
003C00
006600
00C300
018E00
033840
0621E0
063F60
060060
060060
060060
060060
061860
061860
06FF60
061860
061860
0318C0
019980
00C300
007E00
3FFFFC
FE007F
000000
000000
ENDCHAR
STARTCHAR char67
ENCODING 67
SWIDTH 2886 0
DWIDTH 26 0
BBX 22 25 0 -2
BITMAP
000000
01FE00
07FF80
0FCFC0
1F03E0
3C00F0
380070
787C78
70FE38
F1C71C
F3839C
E3039C
E7001C
E7001C
E7001C
F3039C
F3839C
71C738
78FE78
387C70
3C00F0
1F03E0
0FCFC0
07FF80
01FE00
ENDCHAR
STARTCHAR char75
ENCODING 75
SWIDTH 3774 0
DWIDTH 34 0
BBX 30 25 0 -2
BITMAP
00030000
00030000
00030000
00FFFC00
00030000
00030000
07C30F80
1C6318E0
38333070
701FE038
E007801C
C0F33C0C
C398670C
E20CC11C
63048318
31848630
1FFFFFE0
18000060
18400860
18E31C60
18400860
18000060
1FFFFFE0
1FFFFFE0
00000000
ENDCHAR
STARTCHAR char78
ENCODING 78
SWIDTH 3774 0
DWIDTH 34 0
BBX 29 25 0 -2
BITMAP
00000000
00E0E000
00B1A000
009B2000
00CE3000
00C01C00
03800700
031C0F80
0E1C00C0
0C000060
780001E0
C3010030
863F00F0
CC630018
C8C30018
7F8F0018
00180018
00700018
00C00018
01800018
01800018
01FFFFF8
01FFFFF8
00000000
00000000
ENDCHAR
STARTCHAR char81
ENCODING 81
SWIDTH 3774 0
DWIDTH 34 0
BBX 30 25 0 -2
BITMAP
00000000
00FCFC00
00848400
00CCCC00
FC4848FC
84484884
CC4CC8CC
484CC848
4CC48CC8
4CC48CC8
46878588
66830598
62830518
33800730
30000030
1FFFFFE0
18000060
18400860
18E31C60
18500218
18000060
1FFFFFE0
1FFFFFE0
00000000
00000000
ENDCHAR
STARTCHAR char82
ENCODING 82
SWIDTH 2886 0
DWIDTH 26 0
BBX 21 25 0 -2
BITMAP
000000
000000
F8F8F8
C88898
CF8F98
C00018
C00018
FFFFF8
1C01C0
0C0180
0C0180
0C0180
0C0180
0C0180
0C0180
1800C0
300060
600030
C00018
C00018
C00018
FFFFF8
FFFFF8
000000
000000
ENDCHAR
ENDFONT
