STARTFONT 2.1
FONT -MIT-S25CYR KST-Medium-R-Normal--29-10-200-200-P-17-ISO8859-1
SIZE 10 200 200
FONTBOUNDINGBOX 25 29 0 -5
STARTPROPERTIES 17
ADD_STYLE_NAME ""
AVERAGE_WIDTH 17
CHARSET_ENCODING "1"
CHARSET_REGISTRY "ISO8859"
DEFAULT_CHAR 0
FAMILY "S25CYR KST"
FONT_ASCENT 24
FONT_DESCENT 5
FOUNDRY "MIT"
PIXEL_SIZE 29
POINT_SIZE 10
RESOLUTION_X 200
RESOLUTION_Y 200
SETWIDTH_NAME "Normal"
SLANT "R"
SPACING "P"
WEIGHT_NAME "Medium"
ENDPROPERTIES
CHARS 67
STARTCHAR char1
ENCODING 1
SWIDTH 2100 0
DWIDTH 21 0
BBX 18 29 0 -5
BITMAP
000000
000000
000000
000000
000000
000000
000000
000000
000000
000000
F1C000
F1F3C0
70E380
18C700
0CCC00
0ECC00
0FFC00
1DCC00
38C600
70C600
70C300
F1E3C0
F3E3C0
000000
000000
000000
000000
000000
000000
ENDCHAR
STARTCHAR char4
ENCODING 4
SWIDTH 1200 0
DWIDTH 12 0
BBX 10 29 0 -5
BITMAP
0000
0000
0000
0000
0000
0000
0000
0000
0000
0000
F000
F800
F000
E000
7000
7C00
7F80
73C0
E1C0
E1C0
E1C0
FFC0
FF00
0000
0000
0000
0000
0000
0000
ENDCHAR
STARTCHAR char16
ENCODING 16
SWIDTH 2700 0
DWIDTH 27 0
BBX 24 29 0 -5
BITMAP
000000
000000
000000
000000
F807C0
F81FF0
707878
70701C
70E01C
70C00E
71C00E
71C006
7B8007
738007
618007
618007
71C00E
61C00E
60C00C
60E01C
707038
F83CF0
000FC0
000000
000000
000000
000000
000000
000000
ENDCHAR
STARTCHAR char17
ENCODING 17
SWIDTH 1900 0
DWIDTH 19 0
BBX 16 29 0 -5
BITMAP
0000
0000
0000
0000
07FF
1FFF
3C1E
381C
701C
701C
701C
301C
381C
1C1C
0FFC
07BC
071C
0E1C
0E1C
1C1C
381C
387E
707F
E000
C000
0000
0000
0000
0000
ENDCHAR
STARTCHAR char18
ENCODING 18
SWIDTH 1700 0
DWIDTH 17 0
BBX 14 29 0 -5
BITMAP
0000
0000
0000
0000
FC00
F000
7000
7000
3000
3000
3000
3000
3FE0
3038
3038
301C
301C
301C
301C
301C
7038
FFF0
FFC0
0000
0000
0000
0000
0000
0000
ENDCHAR
STARTCHAR char19
ENCODING 19
SWIDTH 1800 0
DWIDTH 18 0
BBX 15 29 0 -5
BITMAP
0000
0000
0000
3F80
7FE0
FFF0
F078
E03C
C01E
000E
000E
0F0E
1FFE
3FFE
33EE
000E
000E
801E
803C
E078
F0F0
FFE0
7F80
0000
0000
0000
0000
0000
0000
ENDCHAR
STARTCHAR char22
ENCODING 22
SWIDTH 2200 0
DWIDTH 22 0
BBX 19 29 0 -5
BITMAP
000000
000000
000000
000000
000000
000000
000000
000000
000000
000000
000000
7DF3E0
78F3E0
30E1C0
30E1C0
30E1C0
30E180
30E180
30E180
30E180
70E180
FFE1C0
7FFFC0
000000
000000
000000
000000
000000
000000
ENDCHAR
STARTCHAR char25
ENCODING 25
SWIDTH 1700 0
DWIDTH 17 0
BBX 14 29 0 -5
BITMAP
0000
0000
0000
0000
0000
0000
0000
0000
0000
7800
FDF8
78F0
78E0
38E0
38E0
38E0
38E0
38E0
38E0
38E0
78E0
FEF8
FFF8
003C
001C
000C
0000
0000
0000
ENDCHAR
STARTCHAR char30
ENCODING 30
SWIDTH 2300 0
DWIDTH 23 0
BBX 20 29 0 -5
BITMAP
000000
000000
000000
E003F0
FC03F0
F800E0
7000E0
7000E0
7000E0
7000E0
7000E0
7FE0E0
78F0E0
7038E0
7018E0
701CE0
701CE0
701C60
701C60
3038E0
7038E0
7FF1F0
FFC0F0
000000
000000
000000
000000
000000
000000
ENDCHAR
STARTCHAR char31
ENCODING 31
SWIDTH 1300 0
DWIDTH 13 0
BBX 11 29 0 -5
BITMAP
0000
0000
0000
0000
0000
0000
0000
0000
0000
0000
3E00
FF00
7380
61C0
00C0
3CE0
7FE0
1FC0
01C0
81C0
C3C0
FF00
7E00
0000
0000
0000
0000
0000
0000
ENDCHAR
STARTCHAR char32
ENCODING 32
SWIDTH 1200 0
DWIDTH 12 0
BBX 1 29 0 -5
BITMAP
00
00
00
00
00
00
00
00
00
00
00
00
00
00
00
00
00
00
00
00
00
00
00
00
00
00
00
00
00
ENDCHAR
STARTCHAR char34
ENCODING 34
SWIDTH 1200 0
DWIDTH 12 0
BBX 10 29 0 -5
BITMAP
0000
0000
0000
0000
0000
0000
0000
0000
0000
0000
F1C0
F3C0
E1C0
E180
E180
E180
7180
7F80
3980
0180
01C0
07C0
03C0
0000
0000
0000
0000
0000
0000
ENDCHAR
STARTCHAR char35
ENCODING 35
SWIDTH 1800 0
DWIDTH 18 0
BBX 15 29 0 -5
BITMAP
0000
0000
0000
0000
FC3E
F83E
701C
701C
701C
701C
701C
701C
701C
701C
703C
3FFC
001C
001C
001C
001C
001C
007E
007E
0000
0000
0000
0000
0000
0000
ENDCHAR
STARTCHAR char36
ENCODING 36
SWIDTH 1200 0
DWIDTH 12 0
BBX 10 29 0 -5
BITMAP
0000
0000
0000
0000
3380
7F80
3F80
3300
0000
0000
1F00
7F80
6180
E1C0
E1C0
FFC0
FFC0
C000
E000
E000
7040
7FC0
1F80
0000
0000
0000
0000
0000
0000
ENDCHAR
STARTCHAR char37
ENCODING 37
SWIDTH 1700 0
DWIDTH 17 0
BBX 14 29 0 -5
BITMAP
0000
0EE0
0EE0
0C40
FFF8
FFF8
701C
300C
3000
3000
3000
3020
3FE0
3FE0
3020
3020
3000
3000
3000
3004
300C
783C
FEF8
0000
0000
0000
0000
0000
0000
ENDCHAR
STARTCHAR char38
ENCODING 38
SWIDTH 2800 0
DWIDTH 28 0
BBX 25 29 0 -5
BITMAP
00000000
00000000
00000000
007E0C00
FCFE7E00
F87C7E00
78383C00
38383C00
38383C00
38383C00
38383C00
78383800
70383800
70383800
70383800
70383800
70383800
70383800
70383800
70383800
70383800
FFFFFE00
FFFFFF00
00000780
00000380
00000180
00000180
00000080
00000000
ENDCHAR
STARTCHAR char39
ENCODING 39
SWIDTH 2200 0
DWIDTH 22 0
BBX 19 29 0 -5
BITMAP
000000
000000
000000
000000
7FE000
E3C000
C38000
838000
038000
038000
038000
03FE00
01CF80
0181C0
0180E0
0180E0
0380E0
0380E0
0380E0
0381E0
07C7C0
0FFF80
07FE00
000000
000000
000000
000000
000000
000000
ENDCHAR
STARTCHAR char43
ENCODING 43
SWIDTH 2300 0
DWIDTH 23 0
BBX 20 29 0 -5
BITMAP
000000
000000
000000
000000
000000
000000
000000
000000
000000
39E3C0
F9F7C0
79E7C0
70E380
70E380
70E380
70E380
70E380
70E380
70E380
70C380
70C380
FFFFE0
7F7FE0
0000E0
000070
000060
000000
000000
000000
ENDCHAR
STARTCHAR char60
ENCODING 60
SWIDTH 2100 0
DWIDTH 21 0
BBX 18 29 0 -5
BITMAP
000000
000000
000000
000000
000000
000000
000000
000000
000000
000000
783C00
78FE00
71C380
718180
718180
7B81C0
7F81C0
738180
738180
718380
71C380
F8FF80
003C00
000000
000000
000000
000000
000000
000000
ENDCHAR
STARTCHAR char61
ENCODING 61
SWIDTH 1800 0
DWIDTH 18 0
BBX 15 29 0 -5
BITMAP
0000
0000
0000
0000
0000
0000
0000
0000
0000
0000
F83E
F83E
F03E
601C
601C
781C
7F9C
63DC
61DC
61DC
61DC
FBDE
FFFE
073E
0000
0000
0000
0000
0000
ENDCHAR
STARTCHAR char62
ENCODING 62
SWIDTH 1300 0
DWIDTH 13 0
BBX 11 29 0 -5
BITMAP
0000
0000
0000
0000
0000
0000
0000
0000
0000
0000
0FE0
7FE0
79C0
E1C0
E1C0
71C0
3FC0
1CC0
39C0
31C0
71C0
E3E0
C3E0
0000
0000
0000
0000
0000
0000
ENDCHAR
STARTCHAR char64
ENCODING 64
SWIDTH 2600 0
DWIDTH 26 0
BBX 23 29 0 -5
BITMAP
000000
000000
000000
000000
FC7C7E
FCFC7E
F0383C
703038
703038
703038
703038
703038
703038
703038
703038
703038
703038
703038
703038
707038
707038
FFFFFC
FFFC1C
000000
000000
000000
000000
000000
000000
ENDCHAR
STARTCHAR char65
ENCODING 65
SWIDTH 1900 0
DWIDTH 19 0
BBX 16 29 0 -5
BITMAP
0000
0000
0000
0080
0380
07C0
07C0
07C0
07C0
06E0
06E0
0460
0C70
0C70
1830
1830
1FF0
1A18
301C
301C
301C
F03E
F83D
0000
0000
0000
0000
0000
0000
ENDCHAR
STARTCHAR char66
ENCODING 66
SWIDTH 1800 0
DWIDTH 18 0
BBX 15 29 0 -5
BITMAP
0000
0000
0000
0000
07F0
FFF8
7838
3018
3000
3000
3000
3000
3FF0
3878
303C
301C
301C
301E
301C
301C
383C
7878
7FF8
0000
0000
0000
0000
0000
0000
ENDCHAR
STARTCHAR char68
ENCODING 68
SWIDTH 2200 0
DWIDTH 22 0
BBX 19 29 0 -5
BITMAP
000000
000000
000000
000000
0FFF80
0FFF00
070F00
070700
070700
060700
060600
060600
060600
060600
060600
060600
040700
0C0700
0C0700
0C0700
080700
181FC0
7FFFE0
7000E0
C00060
C00020
000000
000000
000000
ENDCHAR
STARTCHAR char69
ENCODING 69
SWIDTH 1700 0
DWIDTH 17 0
BBX 14 29 0 -5
BITMAP
0000
0000
0000
0000
FFF0
FFF8
7038
7008
7000
7000
7020
7020
7FE0
7DE0
7060
7000
7000
7000
7000
700C
7018
FFF8
7B00
0000
0000
0000
0000
0000
0000
ENDCHAR
STARTCHAR char70
ENCODING 70
SWIDTH 2000 0
DWIDTH 20 0
BBX 17 29 0 -5
BITMAP
000000
000000
000000
000000
07E000
07E000
03C000
0FF000
3FFE00
79CF00
F1C780
E1C380
E1C380
C1C380
E1C380
E1C380
E1C380
F1C700
7DDE00
1FFC00
01C000
03F000
03E000
000000
000000
000000
000000
000000
000000
ENDCHAR
STARTCHAR char71
ENCODING 71
SWIDTH 1400 0
DWIDTH 14 0
BBX 12 29 0 -5
BITMAP
0000
0000
0000
00E0
FFF0
F870
7030
7010
7000
7000
7000
7000
7000
7000
7000
7000
7000
7000
7000
7000
7000
FC00
F800
0000
0000
0000
0000
0000
0000
ENDCHAR
STARTCHAR char72
ENCODING 72
SWIDTH 1900 0
DWIDTH 19 0
BBX 16 29 0 -5
BITMAP
0000
0000
0000
0000
FC3E
FC3E
3C38
1C30
1C30
0E60
0740
07C0
0380
0380
03C0
07E0
04E0
0C70
1878
1838
703C
F87F
F83E
0000
0000
0000
0000
0000
0000
ENDCHAR
STARTCHAR char73
ENCODING 73
SWIDTH 2000 0
DWIDTH 20 0
BBX 17 29 0 -5
BITMAP
000000
000000
000000
000000
000F80
F80F00
700E00
700600
700E00
700E00
303600
303600
304600
30C600
318600
330600
320600
340600
380600
300700
300700
780F80
FC1E80
000000
000000
000000
000000
000000
000000
ENDCHAR
STARTCHAR char75
ENCODING 75
SWIDTH 2000 0
DWIDTH 20 0
BBX 17 29 0 -5
BITMAP
000000
000000
000000
000000
FC7E00
F87C00
703800
707000
706000
70C000
718000
738000
738000
778000
7B8000
718000
70E000
706000
707000
703800
703800
FC0C00
F80600
000300
000380
000000
000000
000000
000000
ENDCHAR
STARTCHAR char76
ENCODING 76
SWIDTH 2000 0
DWIDTH 20 0
BBX 17 29 0 -5
BITMAP
000000
000000
000000
000000
001F00
1FBF00
0F0E00
060600
060600
020600
020600
020600
020600
060600
060600
060600
060600
060600
040600
E40700
E40700
E80700
F80F80
700000
000000
000000
000000
000000
000000
ENDCHAR
STARTCHAR char77
ENCODING 77
SWIDTH 2300 0
DWIDTH 23 0
BBX 20 29 0 -5
BITMAP
000000
000000
000000
0E01C0
1F03C0
0F0380
0F0380
0F0780
0F8780
0F8580
0D85C0
09CDC0
09C9C0
18C8C0
18F8C0
18F0C0
1070C0
1070E0
1060E0
3060E0
3000E0
F801F0
E00010
000000
000000
000000
000000
000000
000000
ENDCHAR
STARTCHAR char78
ENCODING 78
SWIDTH 2000 0
DWIDTH 20 0
BBX 17 29 0 -5
BITMAP
000000
000000
000000
000000
F80F80
700F00
700600
700600
700600
700600
700600
300600
3FFE00
38C600
300600
300600
300600
300700
300700
300700
700700
700F00
FC1F80
000000
000000
000000
000000
000000
000000
ENDCHAR
STARTCHAR char79
ENCODING 79
SWIDTH 2100 0
DWIDTH 21 0
BBX 18 29 0 -5
BITMAP
000000
000000
000000
000000
03F000
0FFC00
1C0E00
380700
300700
700380
700380
E00380
E003C0
E003C0
E001C0
E00180
700380
700380
700780
380700
1C0E00
0FFC00
03F000
000000
000000
000000
000000
000000
000000
ENDCHAR
STARTCHAR char80
ENCODING 80
SWIDTH 2100 0
DWIDTH 21 0
BBX 18 29 0 -5
BITMAP
000000
000000
000000
000000
000000
FFFF80
FF0F80
380300
380300
380300
380300
380300
380300
380300
380300
380300
380300
380300
380300
380300
380300
7C07C0
7E01C0
000000
000000
000000
000000
000000
000000
ENDCHAR
STARTCHAR char82
ENCODING 82
SWIDTH 1700 0
DWIDTH 17 0
BBX 14 29 0 -5
BITMAP
0000
0000
0000
FF80
FFF0
7C78
703C
701C
701C
701C
701C
701C
701C
7078
7FF8
7FE0
7000
7000
7000
7000
7800
FC00
FC00
0000
0000
0000
0000
0000
0000
ENDCHAR
STARTCHAR char83
ENCODING 83
SWIDTH 1900 0
DWIDTH 19 0
BBX 16 29 0 -5
BITMAP
0000
0000
0000
01F0
07FE
0E1E
1C0F
1807
3000
7000
7000
6000
E000
E000
E000
E000
7000
7003
3803
3806
1E0E
07FE
01F8
0000
0000
0000
0000
0000
0000
ENDCHAR
STARTCHAR char84
ENCODING 84
SWIDTH 1700 0
DWIDTH 17 0
BBX 14 29 0 -5
BITMAP
0000
0000
0000
0000
7820
FFFC
E39C
C30C
8304
0300
0300
0300
0300
0300
0300
0300
0300
0300
0300
0700
0700
0FC0
0F80
0000
0000
0000
0000
0000
0000
ENDCHAR
STARTCHAR char85
ENCODING 85
SWIDTH 2000 0
DWIDTH 20 0
BBX 17 29 0 -5
BITMAP
000000
000000
000000
000F80
FC0F80
FC0780
7C0700
3C0600
1E0C00
1E0C00
0E1C00
0F1800
071800
07B800
03F000
03E000
01E000
78E000
78C000
78C000
798000
3F8000
0E0000
000000
000000
000000
000000
000000
000000
ENDCHAR
STARTCHAR char86
ENCODING 86
SWIDTH 1700 0
DWIDTH 17 0
BBX 14 29 0 -5
BITMAP
0000
0000
0000
0000
FFE0
F8F0
7038
7038
7038
7038
7038
7030
70E0
7FE0
7038
301C
300C
300C
301C
301C
703C
FFF0
FFC0
0000
0000
0000
0000
0000
0000
ENDCHAR
STARTCHAR char89
ENCODING 89
SWIDTH 2100 0
DWIDTH 21 0
BBX 18 29 0 -5
BITMAP
033000
073000
073000
03F000
FC0FC0
780700
380700
380700
380700
380F00
381B00
383300
386300
38C300
388300
390300
3A0300
3C0300
380300
380300
380380
3C0FC0
7C0000
000000
000000
000000
000000
000000
000000
ENDCHAR
STARTCHAR char90
ENCODING 90
SWIDTH 1700 0
DWIDTH 17 0
BBX 14 29 0 -5
BITMAP
0000
0000
0000
0700
3FE0
7070
6030
6038
4038
0030
0030
00E0
0FC0
0CF0
0038
0018
001C
003C
C038
4038
6078
7FE0
1F80
0000
0000
0000
0000
0000
0000
ENDCHAR
STARTCHAR char94
ENCODING 94
SWIDTH 2700 0
DWIDTH 27 0
BBX 24 29 0 -5
BITMAP
000000
000000
000000
000000
003C1F
7C7E3F
3C3C1E
1C1C1C
0C1C18
061C30
021C60
031C40
019CC0
03DDC0
03FFC0
033CE0
071C60
061C30
0E1838
0C1818
181C1C
381C0E
303E06
600003
E00001
400001
000000
000000
000000
ENDCHAR
STARTCHAR char95
ENCODING 95
SWIDTH 2100 0
DWIDTH 21 0
BBX 18 29 0 -5
BITMAP
000000
000000
000000
801800
FC3F80
F81F00
780E00
780E00
700E00
700E00
700E00
700E00
700E00
700E00
700E00
700E00
700E00
700E00
700E00
700E00
700E00
FFFFC0
FFFFC0
0003C0
0001C0
0000C0
0000C0
000040
000000
ENDCHAR
STARTCHAR char96
ENCODING 96
SWIDTH 1700 0
DWIDTH 17 0
BBX 14 29 0 -5
BITMAP
0000
0000
0000
0000
0000
0000
0000
0000
0000
3F80
7F80
7F00
E600
C600
07C0
07F8
0F78
0E1C
0E1C
0E1C
0F78
1FF8
0E20
0000
0000
0000
0000
0000
0000
ENDCHAR
STARTCHAR char97
ENCODING 97
SWIDTH 1200 0
DWIDTH 12 0
BBX 10 29 0 -5
BITMAP
0000
0000
0000
0000
0000
0000
0000
0000
0000
0000
1F00
3F80
7180
6180
2180
0380
1D80
7180
6180
C180
E180
7FC0
39C0
0000
0000
0000
0000
0000
0000
ENDCHAR
STARTCHAR char98
ENCODING 98
SWIDTH 1300 0
DWIDTH 13 0
BBX 11 29 0 -5
BITMAP
0000
0000
0000
0060
00C0
07C0
1F80
3E00
7000
6000
FF80
F1C0
E0C0
E060
C060
C060
C060
C060
E060
60E0
70C0
3FC0
1F00
0000
0000
0000
0000
0000
0000
ENDCHAR
STARTCHAR char100
ENCODING 100
SWIDTH 1500 0
DWIDTH 15 0
BBX 13 29 0 -5
BITMAP
0000
0000
0000
0000
0000
0000
0000
0000
0000
0000
3FF0
3FE0
1DE0
1CC0
1CC0
18C0
18C0
18C0
18C0
18C0
18C0
7FF0
FFF8
E038
C018
C018
0000
0000
0000
ENDCHAR
STARTCHAR char101
ENCODING 101
SWIDTH 1200 0
DWIDTH 12 0
BBX 10 29 0 -5
BITMAP
0000
0000
0000
0000
0000
0000
0000
0000
0000
0000
1E00
3F00
6380
E1C0
E1C0
FDC0
EC40
E000
E000
E000
70C0
3FC0
1F00
0000
0000
0000
0000
0000
0000
ENDCHAR
STARTCHAR char102
ENCODING 102
SWIDTH 1800 0
DWIDTH 18 0
BBX 15 29 0 -5
BITMAP
0000
0000
0000
0000
0000
0380
0780
0780
0380
0380
1B80
3FF8
779C
E38E
C38E
C386
C386
C386
E38E
E38E
E38C
73DC
3FF8
0380
0380
0380
0380
07C0
0000
ENDCHAR
STARTCHAR char103
ENCODING 103
SWIDTH 1100 0
DWIDTH 11 0
BBX 9 29 0 -5
BITMAP
0000
0000
0000
0000
0000
0000
0000
0000
0000
0000
FF80
FF80
7180
7180
7080
7000
7000
7000
7000
7000
7000
F000
F800
0000
0000
0000
0000
0000
0000
ENDCHAR
STARTCHAR char104
ENCODING 104
SWIDTH 1300 0
DWIDTH 13 0
BBX 11 29 0 -5
BITMAP
0000
0000
0000
0000
0000
0000
0000
0000
0000
0000
F9E0
F9E0
7980
1D00
1E00
1E00
0E00
1F00
1F80
3380
F1C0
F3E0
F3E0
0000
0000
0000
0000
0000
0000
ENDCHAR
STARTCHAR char105
ENCODING 105
SWIDTH 1400 0
DWIDTH 14 0
BBX 12 29 0 -5
BITMAP
0000
0000
0000
0000
0000
0000
0000
0000
0000
0000
79F0
F8F0
30E0
30E0
30E0
31E0
3260
3E60
3E60
3860
3860
78F0
7CF0
0000
0000
0000
0000
0000
0000
ENDCHAR
STARTCHAR char107
ENCODING 107
SWIDTH 1500 0
DWIDTH 15 0
BBX 13 29 0 -5
BITMAP
0000
0000
0000
0000
0000
0000
0000
0000
0000
0000
F8C0
F8F0
78C0
3180
3300
3700
3F00
3B80
31C0
70E0
70E0
F8F0
38F8
0000
0000
0000
0000
0000
0000
ENDCHAR
STARTCHAR char108
ENCODING 108
SWIDTH 1400 0
DWIDTH 14 0
BBX 12 29 0 -5
BITMAP
0000
0000
0000
0000
0000
0000
0000
0000
0000
1000
1FF0
1FE0
0CE0
0CE0
0CE0
0CE0
0CE0
0CE0
08E0
E8E0
F8E0
F8F0
F0F0
6000
0000
0000
0000
0000
0000
ENDCHAR
STARTCHAR char109
ENCODING 109
SWIDTH 1700 0
DWIDTH 17 0
BBX 14 29 0 -5
BITMAP
0000
0000
0000
0000
0000
0000
0000
0000
0000
0000
F03C
F07C
7078
7870
7870
78F0
4CB0
4CB0
4D30
4730
4738
E638
E278
0000
0000
0000
0000
0000
0000
ENDCHAR
STARTCHAR char110
ENCODING 110
SWIDTH 1400 0
DWIDTH 14 0
BBX 12 29 0 -5
BITMAP
0000
0000
0000
0000
0000
0000
0000
0000
0000
0000
F9F0
F9E0
70E0
70C0
70C0
70C0
7FC0
70C0
70C0
70C0
70C0
70E0
F9F0
0000
0000
0000
0000
0000
0000
ENDCHAR
STARTCHAR char111
ENCODING 111
SWIDTH 1300 0
DWIDTH 13 0
BBX 11 29 0 -5
BITMAP
0000
0000
0000
0000
0000
0000
0000
0000
0000
0000
1F00
7F80
71C0
E0E0
E060
E060
C060
C060
E0E0
E0E0
71C0
3FC0
0C00
0000
0000
0000
0000
0000
0000
ENDCHAR
STARTCHAR char112
ENCODING 112
SWIDTH 1200 0
DWIDTH 12 0
BBX 10 29 0 -5
BITMAP
0000
0000
0000
0000
0000
0000
0000
0000
0000
0000
0000
FFC0
E3C0
E1C0
E180
E1C0
E180
E180
E180
E1C0
E1C0
E1C0
33C0
0000
0000
0000
0000
0000
0000
ENDCHAR
STARTCHAR char114
ENCODING 114
SWIDTH 1300 0
DWIDTH 13 0
BBX 11 29 0 -5
BITMAP
0000
0000
0000
0000
0000
0000
0000
0000
0000
0000
7F00
FFC0
F1C0
70E0
70E0
7060
7060
7060
70E0
70E0
70C0
7BC0
7700
7000
6000
7000
F000
F800
0000
ENDCHAR
STARTCHAR char115
ENCODING 115
SWIDTH 1200 0
DWIDTH 12 0
BBX 10 29 0 -5
BITMAP
0000
0000
0000
0000
0000
0000
0000
0000
0000
0C00
3F80
7FC0
71C0
E1C0
E080
E000
E000
E000
E000
F000
7DC0
3FC0
1F00
0000
0000
0000
0000
0000
0000
ENDCHAR
STARTCHAR char116
ENCODING 116
SWIDTH 1400 0
DWIDTH 14 0
BBX 12 29 0 -5
BITMAP
0000
0000
0000
0000
0000
0000
0000
0000
0000
0000
7FE0
7FE0
E760
C670
C620
0600
0600
0600
0600
0600
0F00
1F00
1F00
0000
0000
0000
0000
0000
0000
ENDCHAR
STARTCHAR char117
ENCODING 117
SWIDTH 1700 0
DWIDTH 17 0
BBX 14 29 0 -5
BITMAP
0000
0000
0000
0000
0000
0000
0000
0000
0000
0000
6C1C
FC7C
7C78
3C38
1C70
1C60
1E60
0EE0
0FC0
07C0
07C0
0380
0380
0380
0300
3700
7F00
7E00
3C00
ENDCHAR
STARTCHAR char118
ENCODING 118
SWIDTH 1300 0
DWIDTH 13 0
BBX 11 29 0 -5
BITMAP
0000
0000
0000
0000
0000
0000
0000
0000
0000
0000
FF00
FF80
E1C0
61C0
61C0
6780
7F80
61C0
60C0
60E0
60C0
FB80
FF00
0000
0000
0000
0000
0000
0000
ENDCHAR
STARTCHAR char121
ENCODING 121
SWIDTH 1300 0
DWIDTH 13 0
BBX 11 29 0 -5
BITMAP
0000
0000
0000
0000
3300
3B80
3B80
3F00
1E00
0000
F1E0
F1E0
61C0
E1C0
6100
6380
64C0
78C0
78C0
70C0
60C0
F1E0
01C0
0000
0000
0000
0000
0000
0000
ENDCHAR
STARTCHAR char122
ENCODING 122
SWIDTH 1100 0
DWIDTH 11 0
BBX 9 29 0 -5
BITMAP
0000
0000
0000
0000
0000
0000
0000
0000
0000
3C00
FE00
E700
C380
C380
0300
3F00
3F00
0380
8180
C180
E780
FF80
7800
0000
0000
0000
0000
0000
0000
ENDCHAR
ENDFONT
