STARTFONT 2.1
FONT -MIT-S25GRK KST-Medium-R-Normal--25-9-200-200-P-16-ISO8859-1
SIZE 9 200 200
FONTBOUNDINGBOX 25 25 0 -5
STARTPROPERTIES 17
ADD_STYLE_NAME ""
AVERAGE_WIDTH 16
CHARSET_ENCODING "1"
CHARSET_REGISTRY "ISO8859"
DEFAULT_CHAR 0
FAMILY "S25GRK KST"
FONT_ASCENT 20
FONT_DESCENT 5
FOUNDRY "MIT"
PIXEL_SIZE 25
POINT_SIZE 9
RESOLUTION_X 200
RESOLUTION_Y 200
SETWIDTH_NAME "Normal"
SLANT "R"
SPACING "P"
WEIGHT_NAME "Medium"
ENDPROPERTIES
CHARS 53
STARTCHAR char32
ENCODING 32
SWIDTH 1110 0
DWIDTH 10 0
BBX 1 25 0 -5
BITMAP
00
00
00
00
00
00
00
00
00
00
00
00
00
00
00
00
00
00
00
00
00
00
00
00
00
ENDCHAR
STARTCHAR char65
ENCODING 65
SWIDTH 2109 0
DWIDTH 19 0
BBX 17 25 0 -5
BITMAP
00C000
01C000
01C000
01E000
03E000
03E000
03F000
07F000
06F000
067800
0E7800
0E7800
0FFC00
1FFC00
1C3C00
181E00
381E00
381E00
FC7F80
FC7F80
000000
000000
000000
000000
000000
ENDCHAR
STARTCHAR char66
ENCODING 66
SWIDTH 2220 0
DWIDTH 20 0
BBX 18 25 0 -5
BITMAP
FFF000
FFFC00
1E1E00
1E0F00
1E0780
1E0780
1E0780
1E0F00
1E1F00
1FFE00
1FFF00
1E0F80
1E0780
1E03C0
1E03C0
1E03C0
1E03C0
1E0780
FFFF00
FFFE00
000000
000000
000000
000000
000000
ENDCHAR
STARTCHAR char67
ENCODING 67
SWIDTH 2664 0
DWIDTH 24 0
BBX 22 25 0 -5
BITMAP
FFC7F8
FFC7F8
1F01E0
0F0380
078700
078600
03CC00
01D800
01F800
00F800
00F800
00FC00
01FC00
019E00
031F00
070F00
0E0F80
1C07C0
FF1FFC
FF1FFC
000000
000000
000000
000000
000000
ENDCHAR
STARTCHAR char68
ENCODING 68
SWIDTH 1998 0
DWIDTH 18 0
BBX 16 25 0 -5
BITMAP
0000
0080
00C0
01C0
01E0
03E0
03F0
0670
0670
0638
0C38
0C38
181C
181C
181C
300E
300E
7FFE
7FFF
FFFF
0000
0000
0000
0000
0000
ENDCHAR
STARTCHAR char69
ENCODING 69
SWIDTH 2220 0
DWIDTH 20 0
BBX 18 25 0 -5
BITMAP
FFFFC0
FFFFC0
1E07C0
1E03C0
1E01C0
1E18C0
1E18C0
1E18C0
1E3800
1FF800
1FF800
1E3800
1E18C0
1E18C0
1E18C0
1E00C0
1E01C0
1E03C0
FFFFC0
FFFFC0
000000
000000
000000
000000
000000
ENDCHAR
STARTCHAR char70
ENCODING 70
SWIDTH 2109 0
DWIDTH 19 0
BBX 17 25 0 -5
BITMAP
000000
0FF800
0FF800
01C000
01C000
0FF800
3FFE00
79CF00
F1C780
E1C380
E1C380
E1C380
F1C780
79CF00
3FFE00
1FFC00
01C000
01C000
0FF800
0FF800
000000
000000
000000
000000
000000
ENDCHAR
STARTCHAR char71
ENCODING 71
SWIDTH 1776 0
DWIDTH 16 0
BBX 14 25 0 -5
BITMAP
0000
FFFC
FFFC
FFFC
1C1C
1C0C
1C0C
1C04
1C00
1C00
1C00
1C00
1C00
1C00
1C00
1C00
1C00
3E00
FF80
FF80
0000
0000
0000
0000
0000
ENDCHAR
STARTCHAR char72
ENCODING 72
SWIDTH 2442 0
DWIDTH 22 0
BBX 20 25 0 -5
BITMAP
FF9FF0
FF9FF0
1C0380
1C0380
1C0380
1C0380
1C0380
1C0380
1C0380
1FFF80
1FFF80
1C0380
1C0380
1C0380
1C0380
1C0380
1C0380
1C0380
FF9FF0
FF9FF0
000000
000000
000000
000000
000000
ENDCHAR
STARTCHAR char73
ENCODING 73
SWIDTH 1332 0
DWIDTH 12 0
BBX 10 25 0 -5
BITMAP
FFC0
FFC0
3F00
1E00
1E00
1E00
1E00
1E00
1E00
1E00
1E00
1E00
1E00
1E00
1E00
1E00
1E00
3F00
FFC0
FFC0
0000
0000
0000
0000
0000
ENDCHAR
STARTCHAR char74
ENCODING 74
SWIDTH 1776 0
DWIDTH 16 0
BBX 14 25 0 -5
BITMAP
0000
0000
0000
0000
0000
0000
0000
0070
00F8
31DC
718C
630C
C30C
C30C
C60C
C618
C638
E670
7FE0
3F80
0C00
0C00
1800
1800
1800
ENDCHAR
STARTCHAR char75
ENCODING 75
SWIDTH 2553 0
DWIDTH 23 0
BBX 21 25 0 -5
BITMAP
FFCFF0
FFCFF0
1E03C0
1E0300
1E0600
1E0C00
1E1800
1E3800
1E7800
1EF800
1FFC00
1FBC00
1F1E00
1E1E00
1E0F00
1E0780
1E0780
1E03C0
FFCFF8
FFCFF8
000000
000000
000000
000000
000000
ENDCHAR
STARTCHAR char76
ENCODING 76
SWIDTH 1887 0
DWIDTH 17 0
BBX 15 25 0 -5
BITMAP
0000
0380
0380
0380
0380
07C0
07C0
07C0
0CE0
0CE0
0CE0
0CE0
1870
1870
1870
3838
3838
7038
FCFE
FCFE
0000
0000
0000
0000
0000
ENDCHAR
STARTCHAR char77
ENCODING 77
SWIDTH 2997 0
DWIDTH 27 0
BBX 25 25 0 -5
BITMAP
FF007F80
FF007F80
1F007C00
1F80FC00
1F80FC00
1B80BC00
19C1BC00
19C1BC00
19C13C00
18E33C00
18E33C00
18F63C00
18F63C00
187E3C00
187C3C00
187C3C00
183C3C00
18383C00
FF38FF80
FF00FF80
00000000
00000000
00000000
00000000
00000000
ENDCHAR
STARTCHAR char78
ENCODING 78
SWIDTH 2442 0
DWIDTH 22 0
BBX 20 25 0 -5
BITMAP
FC0FF0
FE0FF0
1E0180
1F0180
1F0180
1B8180
19C180
19C180
18E180
18E180
187180
183980
183980
181D80
180D80
180F80
180780
180780
FF0380
FF0180
000000
000000
000000
000000
000000
ENDCHAR
STARTCHAR char79
ENCODING 79
SWIDTH 2109 0
DWIDTH 19 0
BBX 17 25 0 -5
BITMAP
07E000
0FF800
1C1C00
380E00
380700
700700
700780
F00780
F00780
F00780
F00780
F00780
F00780
F00780
700700
780700
380E00
1C1C00
0FF800
03E000
000000
000000
000000
000000
000000
ENDCHAR
STARTCHAR char80
ENCODING 80
SWIDTH 2109 0
DWIDTH 19 0
BBX 17 25 0 -5
BITMAP
000000
FFFF80
FFFF80
380E00
380E00
380E00
380E00
380E00
380E00
380E00
380E00
380E00
380E00
380E00
380E00
380E00
380E00
380E00
FE3F80
FE3F80
000000
000000
000000
000000
000000
ENDCHAR
STARTCHAR char81
ENCODING 81
SWIDTH 1887 0
DWIDTH 17 0
BBX 15 25 0 -5
BITMAP
0000
07E0
0FF0
3838
381C
700E
700E
E00E
E00E
FFFE
FFFE
FFFE
E00E
E00E
700E
701C
381C
3838
1FF0
07C0
0000
0000
0000
0000
0000
ENDCHAR
STARTCHAR char82
ENCODING 82
SWIDTH 1998 0
DWIDTH 18 0
BBX 16 25 0 -5
BITMAP
FFF0
FFFC
3C1E
3C0E
3C0F
3C0F
3C0F
3C0F
3C0F
3C3E
3FFC
3FF0
3C00
3C00
3C00
3C00
3C00
3C00
FF00
FF00
0000
0000
0000
0000
0000
ENDCHAR
STARTCHAR char83
ENCODING 83
SWIDTH 1776 0
DWIDTH 16 0
BBX 14 25 0 -5
BITMAP
0000
FFF8
FFFC
E03C
701C
380C
1C04
0E00
0700
0380
01C0
0180
0300
0600
0C04
180C
381C
7FFC
FFF8
FFF8
0000
0000
0000
0000
0000
ENDCHAR
STARTCHAR char84
ENCODING 84
SWIDTH 2220 0
DWIDTH 20 0
BBX 18 25 0 -5
BITMAP
FFFFC0
FFFFC0
F1E3C0
E1E1C0
C1E0C0
C1E0C0
81E040
81E040
01E000
01E000
01E000
01E000
01E000
01E000
01E000
01E000
01E000
01E000
0FFC00
0FFC00
000000
000000
000000
000000
000000
ENDCHAR
STARTCHAR char85
ENCODING 85
SWIDTH 1887 0
DWIDTH 17 0
BBX 15 25 0 -5
BITMAP
0000
1C30
3E78
7EFC
7FFC
E7CE
C7C6
C386
8382
0380
0380
0380
0380
0380
0380
0380
0380
0380
0FE0
0FE0
0000
0000
0000
0000
0000
ENDCHAR
STARTCHAR char86
ENCODING 86
SWIDTH 1221 0
DWIDTH 11 0
BBX 9 25 0 -5
BITMAP
0000
0000
0000
0000
0000
0000
0000
1F00
7F80
E000
C000
C000
7000
3F00
3E00
6000
C000
E080
7F80
3F00
0000
0000
0000
0000
0000
ENDCHAR
STARTCHAR char87
ENCODING 87
SWIDTH 1887 0
DWIDTH 17 0
BBX 15 25 0 -5
BITMAP
0000
07E0
1FF0
3838
701C
E00E
E00E
E00E
E00E
701C
701C
3018
3838
1830
1830
1C70
9C72
FC7E
FC7E
FC7E
0000
0000
0000
0000
0000
ENDCHAR
STARTCHAR char88
ENCODING 88
SWIDTH 1998 0
DWIDTH 18 0
BBX 16 25 0 -5
BITMAP
0006
603E
7FFE
FFFE
FFFE
F006
C004
8000
0010
0C70
0FF0
0FF0
0FF0
0C30
0800
2003
6003
7FFF
7FFE
FFFE
C002
8000
0000
0000
0000
ENDCHAR
STARTCHAR char89
ENCODING 89
SWIDTH 2331 0
DWIDTH 21 0
BBX 19 25 0 -5
BITMAP
000000
07FC00
07FC00
00E000
00E000
F0E1E0
F8E3E0
70E1C0
38E380
38E380
1CE700
1CE700
1FFF00
0FFE00
07F800
00E000
00E000
00E000
07FC00
07FC00
000000
000000
000000
000000
000000
ENDCHAR
STARTCHAR char90
ENCODING 90
SWIDTH 1887 0
DWIDTH 17 0
BBX 15 25 0 -5
BITMAP
7FFC
7FFC
7E7C
7878
70F8
70F0
61E0
63E0
43E0
07C0
0780
0F86
1F0E
1F0E
1E0E
3C1C
7C3C
7C7C
FFFC
FFFC
0000
0000
0000
0000
0000
ENDCHAR
STARTCHAR char97
ENCODING 97
SWIDTH 1776 0
DWIDTH 16 0
BBX 14 25 0 -5
BITMAP
0000
0000
0000
0000
0000
0000
0000
0704
1F8C
39CC
70D8
60F8
E0F0
C0E0
C0E0
C0E0
C1E0
E3EC
7F7C
3E38
0000
0000
0000
0000
0000
ENDCHAR
STARTCHAR char98
ENCODING 98
SWIDTH 1776 0
DWIDTH 16 0
BBX 14 25 0 -5
BITMAP
0000
01F0
03F8
071C
0E0C
0C0C
0C1C
1C38
1FF0
1FE0
38F0
3038
3018
3018
7018
6038
7070
7DE0
7FC0
6700
E000
C000
C000
C000
C000
ENDCHAR
STARTCHAR char99
ENCODING 99
SWIDTH 1776 0
DWIDTH 16 0
BBX 14 25 0 -5
BITMAP
0000
0000
0000
0000
0000
0000
0000
700C
F80C
DC18
0C38
0E30
0670
07E0
03C0
0380
0780
0780
0DC0
18C0
30C0
60E0
606C
C038
C030
ENDCHAR
STARTCHAR char100
ENCODING 100
SWIDTH 1221 0
DWIDTH 11 0
BBX 9 25 0 -5
BITMAP
0000
1C00
3F00
3300
3180
3180
3080
1800
0C00
0E00
1F00
3B00
6380
6180
C180
C180
C380
E700
7E00
3800
0000
0000
0000
0000
0000
ENDCHAR
STARTCHAR char101
ENCODING 101
SWIDTH 1221 0
DWIDTH 11 0
BBX 9 25 0 -5
BITMAP
0000
0000
0000
0000
0000
0000
0000
0F00
3F80
7000
E000
C000
C000
FF80
FF80
C000
C000
E080
7F80
3F00
0000
0000
0000
0000
0000
ENDCHAR
STARTCHAR char102
ENCODING 102
SWIDTH 1776 0
DWIDTH 16 0
BBX 14 25 0 -5
BITMAP
0000
00C0
00C0
00C0
0180
0180
0180
0FE0
3FF0
7198
C18C
C30C
C30C
C30C
C30C
C60C
E61C
6638
3FF0
1FC0
0600
0C00
0C00
0C00
0800
ENDCHAR
STARTCHAR char103
ENCODING 103
SWIDTH 1776 0
DWIDTH 16 0
BBX 14 25 0 -5
BITMAP
0000
0000
0000
0000
0000
0000
0000
1C04
3E0C
671C
E398
C198
C1B0
01F0
00E0
00E0
00C0
00C0
0180
0180
0380
0300
0300
0600
0600
ENDCHAR
STARTCHAR char104
ENCODING 104
SWIDTH 1554 0
DWIDTH 14 0
BBX 12 25 0 -5
BITMAP
0000
0000
0000
0000
0000
0000
0000
31C0
7FE0
FF60
CE30
CC30
0C30
0C30
1860
1860
1860
1860
30C0
30C0
00C0
00C0
0180
0180
0180
ENDCHAR
STARTCHAR char105
ENCODING 105
SWIDTH 888 0
DWIDTH 8 0
BBX 6 25 0 -5
BITMAP
00
00
00
00
00
00
00
30
30
30
60
60
60
60
C0
C0
CC
FC
F8
30
00
00
00
00
00
ENDCHAR
STARTCHAR char106
ENCODING 106
SWIDTH 1887 0
DWIDTH 17 0
BBX 15 25 0 -5
BITMAP
0000
00F0
01F8
0318
030C
030C
030C
038C
39DC
7CF8
7C78
F83C
F036
6030
6060
6060
30E0
39C0
1F80
0E00
0000
0000
0000
0000
0000
ENDCHAR
STARTCHAR char107
ENCODING 107
SWIDTH 1332 0
DWIDTH 12 0
BBX 10 25 0 -5
BITMAP
0000
0000
0000
0000
0000
0000
0000
30C0
31C0
3380
7300
7700
7E00
7C00
6E00
E600
C700
C3C0
C1C0
C080
0000
0000
0000
0000
0000
ENDCHAR
STARTCHAR char108
ENCODING 108
SWIDTH 1554 0
DWIDTH 14 0
BBX 12 25 0 -5
BITMAP
0000
E000
7000
3800
1800
0C00
0C00
0600
0600
0700
0700
0F80
1F80
3980
31C0
60C0
60E0
E060
C070
C030
0000
0000
0000
0000
0000
ENDCHAR
STARTCHAR char109
ENCODING 109
SWIDTH 1554 0
DWIDTH 14 0
BBX 12 25 0 -5
BITMAP
0000
0000
0000
0000
0000
0000
0000
1860
1860
1860
3860
3060
30E0
30C0
70C0
70C0
70F0
79F0
7FF0
6F60
E000
C000
C000
C000
C000
ENDCHAR
STARTCHAR char110
ENCODING 110
SWIDTH 1332 0
DWIDTH 12 0
BBX 10 25 0 -5
BITMAP
0000
0000
0000
0000
0000
0000
0000
6180
F0C0
30C0
30C0
30C0
60C0
6180
6300
6600
EC00
F800
F000
4000
0000
0000
0000
0000
0000
ENDCHAR
STARTCHAR char111
ENCODING 111
SWIDTH 1443 0
DWIDTH 13 0
BBX 11 25 0 -5
BITMAP
0000
0000
0000
0000
0000
0000
0000
0000
1F80
3FC0
7FC0
79E0
F1E0
F1E0
F1E0
F1E0
F1C0
7FC0
7F80
1F00
0000
0000
0000
0000
0000
ENDCHAR
STARTCHAR char112
ENCODING 112
SWIDTH 1776 0
DWIDTH 16 0
BBX 14 25 0 -5
BITMAP
0000
0000
0000
0000
0000
0000
0000
3FFC
7FFC
ECC0
CCC0
0CC0
0CC0
18C0
18C0
30C0
30C0
31C0
3180
3180
0000
0000
0000
0000
0000
ENDCHAR
STARTCHAR char113
ENCODING 113
SWIDTH 1443 0
DWIDTH 13 0
BBX 11 25 0 -5
BITMAP
0000
0700
0F80
19C0
18C0
3060
3060
6060
6060
FFE0
FFC0
C0C0
C180
C180
C300
C300
C600
CE00
7C00
3000
0000
0000
0000
0000
0000
ENDCHAR
STARTCHAR char114
ENCODING 114
SWIDTH 1554 0
DWIDTH 14 0
BBX 12 25 0 -5
BITMAP
0000
0000
0000
0000
0000
0000
0000
0780
0FE0
1CE0
1870
3030
3030
3030
3030
6070
60E0
71C0
7F80
6600
6000
C000
C000
C000
C000
ENDCHAR
STARTCHAR char115
ENCODING 115
SWIDTH 1554 0
DWIDTH 14 0
BBX 12 25 0 -5
BITMAP
0000
0000
0000
0000
0000
0000
0000
07F0
1FF0
3F00
7380
E180
C180
C180
C180
C180
C180
E700
7E00
3C00
0000
0000
0000
0000
0000
ENDCHAR
STARTCHAR char116
ENCODING 116
SWIDTH 1554 0
DWIDTH 14 0
BBX 12 25 0 -5
BITMAP
0000
0000
0000
0000
0000
0000
0000
1FF0
3FF0
7300
E300
C600
C600
0E00
0C00
0C00
1C00
1800
1800
1800
0000
0000
0000
0000
0000
ENDCHAR
STARTCHAR char117
ENCODING 117
SWIDTH 1443 0
DWIDTH 13 0
BBX 11 25 0 -5
BITMAP
0000
0000
0000
0000
0000
0000
0000
0000
70C0
F9C0
79E0
79E0
71C0
71C0
71C0
71C0
7180
7F80
3F00
1E00
0000
0000
0000
0000
0000
ENDCHAR
STARTCHAR char118
ENCODING 118
SWIDTH 1110 0
DWIDTH 10 0
BBX 8 25 0 -5
BITMAP
00
00
00
00
00
00
00
7C
FE
FF
E7
F2
F0
78
3C
3C
1E
7E
FC
78
00
00
00
00
00
ENDCHAR
STARTCHAR char119
ENCODING 119
SWIDTH 1887 0
DWIDTH 17 0
BBX 15 25 0 -5
BITMAP
0000
0000
0000
0000
0000
0000
0000
1818
381C
700E
6106
C386
C386
C386
C30C
C30C
C31C
E7B8
7FF8
3C60
0000
0000
0000
0000
0000
ENDCHAR
STARTCHAR char120
ENCODING 120
SWIDTH 1332 0
DWIDTH 12 0
BBX 10 25 0 -5
BITMAP
1800
3000
3100
3B80
1F80
1E00
3000
6000
6000
6000
6080
31C0
3F80
7E00
6000
C000
C000
C000
E000
7C00
1E00
0300
0300
7F00
1C00
ENDCHAR
STARTCHAR char121
ENCODING 121
SWIDTH 1887 0
DWIDTH 17 0
BBX 15 25 0 -5
BITMAP
0000
00E0
00E0
00E0
00C0
00C0
00C0
4182
E186
E186
E186
6306
630C
631C
6318
6638
6670
66E0
7FC0
3F80
0C00
0C00
1800
1800
1800
ENDCHAR
STARTCHAR char122
ENCODING 122
SWIDTH 1554 0
DWIDTH 14 0
BBX 12 25 0 -5
BITMAP
0000
1800
3800
3040
38E0
1DF0
0FE0
1F80
3C00
3000
3000
6000
6000
6000
6000
6000
7000
3000
3800
1C00
0C00
4E00
CE00
FC00
7800
ENDCHAR
ENDFONT
