STARTFONT 2.1
FONT -MIT-S30GRK KST-Medium-R-Normal--31-11-200-200-P-19-ISO8859-1
SIZE 11 200 200
FONTBOUNDINGBOX 30 31 0 -5
STARTPROPERTIES 17
ADD_STYLE_NAME ""
AVERAGE_WIDTH 19
CHARSET_ENCODING "1"
CHARSET_REGISTRY "ISO8859"
DEFAULT_CHAR 0
FAMILY "S30GRK KST"
FONT_ASCENT 26
FONT_DESCENT 5
FOUNDRY "MIT"
PIXEL_SIZE 31
POINT_SIZE 11
RESOLUTION_X 200
RESOLUTION_Y 200
SETWIDTH_NAME "Normal"
SLANT "R"
SPACING "P"
WEIGHT_NAME "Medium"
ENDPROPERTIES
CHARS 51
STARTCHAR char65
ENCODING 65
SWIDTH 2160 0
DWIDTH 24 0
BBX 21 31 0 -5
BITMAP
000000
000000
006000
007000
007000
00F000
00F800
00F800
00F800
01FC00
01FC00
01BC00
033E00
031E00
071E00
071F00
07FF00
07FF00
0FFF00
0C0F80
0C0780
1C07C0
3C03C0
7C07E0
FE1FF8
FE1FF8
000000
000000
000000
000000
000000
ENDCHAR
STARTCHAR char66
ENCODING 66
SWIDTH 2250 0
DWIDTH 25 0
BBX 22 31 0 -5
BITMAP
000000
7FFC00
FFFF00
7FFFC0
1F81E0
0F81F0
0F80F0
0F80F0
0F80F0
0F80F0
0F81F0
0F83E0
0FFFC0
0FFFC0
0F87E0
0F80F0
0F80F8
0F8078
0F807C
0F807C
0F807C
0F80F8
0F80F8
7F87F0
7FFFC0
7FFF00
000000
000000
000000
000000
000000
ENDCHAR
STARTCHAR char67
ENCODING 67
SWIDTH 2610 0
DWIDTH 29 0
BBX 26 31 0 -5
BITMAP
00000000
7FF1FF80
FFF1FF80
FFE0FF00
0FC07800
07C07000
03E0E000
01F1C000
01F18000
00FF0000
007F0000
007E0000
003E0000
003E0000
003F0000
007F8000
007F8000
00E7C000
01C7E000
0183E000
0381F000
0700F800
0E00FC00
7F01FF00
FFC3FFC0
FFC3FFC0
00000000
00000000
00000000
00000000
00000000
ENDCHAR
STARTCHAR char68
ENCODING 68
SWIDTH 2070 0
DWIDTH 23 0
BBX 20 31 0 -5
BITMAP
000000
000000
002000
007000
007000
00F000
00F800
01F800
01FC00
03FC00
031C00
031E00
071E00
060E00
0E0F00
0C0F00
1C0780
1C0780
180780
3807C0
3003C0
7003E0
7FFFE0
FFFFF0
FFFFF0
7FFFE0
000000
000000
000000
000000
000000
ENDCHAR
STARTCHAR char69
ENCODING 69
SWIDTH 2250 0
DWIDTH 25 0
BBX 21 31 0 -5
BITMAP
000000
000000
FFFFF0
FFFFF8
1FC1F8
0F8078
0F0038
0F0018
0F0218
0F0618
0F0618
0F0600
0F0E00
0FFE00
0FFE00
0F8E00
0F0618
0F0618
0F0618
0F0218
0F0018
0F0038
0F0078
1F80F8
7FFFF8
7FFFF0
000000
000000
000000
000000
000000
ENDCHAR
STARTCHAR char70
ENCODING 70
SWIDTH 1980 0
DWIDTH 22 0
BBX 19 31 0 -5
BITMAP
000000
000000
000000
0FFE00
0FFE00
07FC00
01F000
01F000
07FC00
3FFF00
7FFFC0
F9F3E0
F0E1E0
F0E1E0
E0E0E0
E0E0E0
F0E1E0
F1F1E0
7FFFE0
3FFF80
1FFE00
01F000
01F000
07FC00
0FFE00
0FFE00
000000
000000
000000
000000
000000
ENDCHAR
STARTCHAR char71
ENCODING 71
SWIDTH 1980 0
DWIDTH 22 0
BBX 19 31 0 -5
BITMAP
000000
000000
7FFFE0
FFFFE0
7FFFE0
1F83E0
0F01E0
0F00E0
0F00E0
0F00E0
0F00E0
0F0060
0F0000
0F0000
0F0000
0F0000
0F0000
0F0000
0F0000
0F0000
0F0000
0F0000
0F0000
3F8000
7FE000
FFF000
000000
000000
000000
000000
000000
ENDCHAR
STARTCHAR char72
ENCODING 72
SWIDTH 2430 0
DWIDTH 27 0
BBX 24 31 0 -5
BITMAP
000000
000000
FFE7FF
FFE7FF
1F00F8
0E0070
0E0070
0E0070
0E0070
0E0070
0E0070
0E0070
0FFFF0
0FFFF0
0FFFF0
0E0070
0E0070
0E0070
0E0070
0E0070
0E0070
0E0070
0E0070
1F00F8
FFE7FF
FFE7FF
000000
000000
000000
000000
000000
ENDCHAR
STARTCHAR char73
ENCODING 73
SWIDTH 1170 0
DWIDTH 13 0
BBX 11 31 0 -5
BITMAP
0000
0000
FFE0
FFC0
1F00
1F00
1F00
1F00
1F00
1F00
1F00
1F00
1F00
1F00
1F00
1F00
1F00
1F00
1F00
1F00
1F00
1F00
1F00
7FC0
FFE0
FFE0
0000
0000
0000
0000
0000
ENDCHAR
STARTCHAR char74
ENCODING 74
SWIDTH 1800 0
DWIDTH 20 0
BBX 17 31 0 -5
BITMAP
000000
000000
000000
000000
000000
000000
000000
000000
000000
000000
000000
001C00
007F00
187F80
38FF80
70F380
71E380
E1C380
E18380
E38380
F30700
F71E00
7FFC00
7FF800
3FF000
0F8000
0E0000
0E0000
0E0000
0E0000
0C0000
ENDCHAR
STARTCHAR char75
ENCODING 75
SWIDTH 2520 0
DWIDTH 28 0
BBX 25 31 0 -5
BITMAP
00000000
7FF1FF80
7FF1FF80
1FC0FF00
07807800
07807000
0780E000
0781C000
07838000
07870000
07860000
078E0000
079C0000
07BE0000
07EF0000
07C78000
0783C000
0781E000
0781E000
0780F000
07807800
07807800
0F807C00
1F807E00
FFF1FF80
FFF1FF80
00000000
00000000
00000000
00000000
00000000
ENDCHAR
STARTCHAR char76
ENCODING 76
SWIDTH 1890 0
DWIDTH 21 0
BBX 18 31 0 -5
BITMAP
000000
000000
000000
000000
00C000
00C000
01E000
01E000
01E000
01F000
03F000
03F000
03F000
077800
067800
067800
0E7800
0C3C00
0C3C00
1C3C00
181E00
181E00
381E00
7C1F00
FE3FC0
FE3FC0
000000
000000
000000
000000
000000
ENDCHAR
STARTCHAR char77
ENCODING 77
SWIDTH 3150 0
DWIDTH 35 0
BBX 30 31 0 -5
BITMAP
7E0001F8
FF8007FC
7FC007F0
3FC007E0
0FC00FC0
07E00FC0
07E00FC0
07E009C0
06F019C0
06F019C0
067011C0
067831C0
067821C0
063C21C0
063C61C0
063C61C0
061E41C0
061FC1C0
061F81C0
060F81C0
060F81C0
060781C0
0E0703E0
3F8707F8
7FC21FFC
7F800FFC
00000000
00000000
00000000
00000000
00000000
ENDCHAR
STARTCHAR char78
ENCODING 78
SWIDTH 2430 0
DWIDTH 27 0
BBX 24 31 0 -5
BITMAP
000000
FE01FF
FF01FF
3F007C
1F8038
0F8018
0FC018
0DE018
0DF018
0CF018
0CF818
0C7818
0C3C18
0C3E18
0C1F18
0C0F18
0C0F98
0C07D8
0C03F8
0C03F8
0C01F8
0C00F8
1C0078
3C0038
FF8038
FF8010
000000
000000
000000
000000
000000
ENDCHAR
STARTCHAR char79
ENCODING 79
SWIDTH 2250 0
DWIDTH 25 0
BBX 22 31 0 -5
BITMAP
01FC00
03FF00
070780
0E01C0
1C00E0
3C00E0
3800F0
780078
780078
780078
F8007C
F8007C
F8007C
F8007C
F8007C
F8007C
F80078
780078
780078
380070
3800F0
1C00E0
1C01C0
0E0380
038F00
00FC00
000000
000000
000000
000000
000000
ENDCHAR
STARTCHAR char80
ENCODING 80
SWIDTH 2160 0
DWIDTH 24 0
BBX 21 31 0 -5
BITMAP
000000
000000
000000
FFFFF8
FFFFF0
3E03E0
1E03C0
1E03C0
1E03C0
1C03C0
1C03C0
1C03C0
1C03C0
1C03C0
1C03C0
1C03C0
1C03C0
1C03C0
1C03C0
1C03C0
1C03C0
1C03C0
1C03C0
1E03C0
FF8FF8
FF8FF8
000000
000000
000000
000000
000000
ENDCHAR
STARTCHAR char81
ENCODING 81
SWIDTH 1890 0
DWIDTH 21 0
BBX 18 31 0 -5
BITMAP
000000
000000
000000
03F800
0FFC00
1F1E00
3E0F00
3C0780
780780
7803C0
F803C0
F803C0
F803C0
FFFFC0
FFFFC0
FFFFC0
F803C0
F803C0
F803C0
780780
780780
3C0700
3C0F00
1FFE00
0FF800
03E000
000000
000000
000000
000000
000000
ENDCHAR
STARTCHAR char82
ENCODING 82
SWIDTH 2160 0
DWIDTH 24 0
BBX 21 31 0 -5
BITMAP
000000
FFFF00
7FFFC0
0F83E0
0F01F0
0700F0
070078
070078
070078
070078
0700F8
0701F0
0783E0
07FFC0
07FE00
078000
0F0000
0F0000
0F0000
0F0000
0F0000
0F0000
0F0000
0F0000
7FC000
FFF000
000000
000000
000000
000000
000000
ENDCHAR
STARTCHAR char83
ENCODING 83
SWIDTH 1800 0
DWIDTH 20 0
BBX 17 31 0 -5
BITMAP
000000
000000
000000
000000
FFFF00
FFFF80
FF0F80
7F0780
3F8380
1FC380
0FE180
07F180
03F000
00F000
00E000
00C000
01C000
038000
070080
0E0180
1C0380
3C0780
7FFF00
FFFF00
FFFE00
FFFE00
000000
000000
000000
000000
000000
ENDCHAR
STARTCHAR char84
ENCODING 84
SWIDTH 2340 0
DWIDTH 26 0
BBX 23 31 0 -5
BITMAP
7FFFF8
7FFFFC
7FFFFC
787C3C
707C1C
E0780C
E0780C
C0780E
C07806
007804
007800
007800
007800
007800
007800
007800
007800
007800
007800
007800
007800
007800
007800
00FC00
07FFC0
03FF00
000000
000000
000000
000000
000000
ENDCHAR
STARTCHAR char85
ENCODING 85
SWIDTH 1800 0
DWIDTH 20 0
BBX 17 31 0 -5
BITMAP
000000
000000
000000
1C0C00
3E3E00
7E7F00
FF7F00
E7FF80
C3E380
C3E180
C3E180
83C180
03C180
03C000
03C000
03C000
03C000
03C000
03C000
03C000
03C000
03C000
03C000
07E000
1FF800
1FF800
000000
000000
000000
000000
000000
ENDCHAR
STARTCHAR char87
ENCODING 87
SWIDTH 1800 0
DWIDTH 20 0
BBX 17 31 0 -5
BITMAP
000000
000000
000000
07E000
1FF800
3E7E00
780F00
F00F00
F00780
F00780
F00780
F00780
F00780
F00700
700F00
780F00
380E00
381E00
181C00
8C1980
CC1980
FC3B80
FE3F80
FE3F00
7E3F00
7E3F00
000000
000000
000000
000000
000000
ENDCHAR
STARTCHAR char88
ENCODING 88
SWIDTH 1890 0
DWIDTH 21 0
BBX 18 31 0 -5
BITMAP
000080
C00780
E1FF80
FFFF80
FFFF80
FFFF80
F80180
C00180
800000
800000
040C00
041C00
07FC00
0FF800
0FF800
0FF800
0C0800
0C0800
080040
600040
6000C0
7FFFC0
7FFFC0
7FFFC0
FFFFC0
E000C0
C00080
C00000
000000
000000
000000
ENDCHAR
STARTCHAR char89
ENCODING 89
SWIDTH 2250 0
DWIDTH 25 0
BBX 22 31 0 -5
BITMAP
000000
000000
000000
000000
07FF00
07FF00
01FC00
007800
E0783C
F8787C
F878FC
7C78F8
3C78F0
3C79F0
1C79F0
1E79E0
1E79E0
0F7BC0
0FFFC0
07FF80
03FE00
007800
007800
007800
03FF00
03FF00
000000
000000
000000
000000
000000
ENDCHAR
STARTCHAR char90
ENCODING 90
SWIDTH 1800 0
DWIDTH 20 0
BBX 17 31 0 -5
BITMAP
000000
000000
3FFF80
7FFF80
7FFF00
7E1F00
783E00
703E00
707C00
707C00
60F800
60F000
01F000
03E000
03E000
07C080
0FC180
0F8180
1F8180
1F0380
3E0380
7E0780
7C0F00
FC3F00
FFFF00
FFFF00
000000
000000
000000
000000
000000
ENDCHAR
STARTCHAR char97
ENCODING 97
SWIDTH 1710 0
DWIDTH 19 0
BBX 16 31 0 -5
BITMAP
0000
0000
0000
0000
0000
0000
0000
0000
0000
0000
0000
0300
0FE3
1FE7
3FF7
7CFF
787E
F87E
F07C
F07C
F078
F0F8
F3FF
FFFF
7F1F
1C1C
0000
0000
0000
0000
0000
ENDCHAR
STARTCHAR char98
ENCODING 98
SWIDTH 1620 0
DWIDTH 18 0
BBX 15 31 0 -5
BITMAP
0000
0000
0000
01F8
03FE
079E
060E
0E0E
0C0E
1C0E
1F9E
1FFC
3FF8
3BF8
303C
703C
701C
701C
701E
703C
703C
787C
FCF8
FFF8
EFE0
E3C0
C000
C000
C000
C000
0000
ENDCHAR
STARTCHAR char99
ENCODING 99
SWIDTH 1710 0
DWIDTH 19 0
BBX 16 31 0 -5
BITMAP
0000
0000
0000
0000
0000
0000
0000
0000
0000
0000
0000
3803
7C07
FE0F
FF1E
1F1C
0FBC
07FC
07F0
07E0
03E0
03C0
07E0
07E0
0FE0
1CE0
38F0
3078
F07F
E03F
401C
ENDCHAR
STARTCHAR char100
ENCODING 100
SWIDTH 1260 0
DWIDTH 14 0
BBX 12 31 0 -5
BITMAP
0000
0000
0700
0F80
1FC0
1FE0
1FE0
1EF0
0E20
0F00
0780
07C0
1FC0
3FE0
7FE0
78F0
78F0
F0F0
F0F0
F1F0
F1E0
F1E0
73C0
7FC0
3F80
1E00
0000
0000
0000
0000
0000
ENDCHAR
STARTCHAR char101
ENCODING 101
SWIDTH 990 0
DWIDTH 11 0
BBX 9 31 0 -5
BITMAP
0000
0000
0000
0000
0000
0000
0000
0000
0000
0000
0780
1F80
3F80
7F00
FC00
FF80
FF80
FF80
FF80
F000
F000
F980
7F80
3F80
0F00
0000
0000
0000
0000
0000
0000
ENDCHAR
STARTCHAR char102
ENCODING 102
SWIDTH 1890 0
DWIDTH 21 0
BBX 18 31 0 -5
BITMAP
000000
000000
000000
000000
003000
003800
003800
007000
007000
007000
007000
01F800
0FFE00
1FFF00
3FFF80
78E780
78E3C0
F8E3C0
F1C7C0
F1C7C0
F1C780
79CF80
7FFF00
3FFF00
1FFC00
07F000
038000
038000
038000
030000
030000
ENDCHAR
STARTCHAR char103
ENCODING 103
SWIDTH 1890 0
DWIDTH 21 0
BBX 18 31 0 -5
BITMAP
000000
000000
000000
000000
000000
000000
000000
000000
000000
000000
000000
0F0000
3F8380
7FC3C0
7FC380
7FC780
E1E700
E0EE00
40FE00
007C00
007C00
007800
007800
007000
007000
00F000
00F000
00E000
01E000
01E000
00C000
ENDCHAR
STARTCHAR char104
ENCODING 104
SWIDTH 1350 0
DWIDTH 15 0
BBX 13 31 0 -5
BITMAP
0000
0000
0000
0000
0000
0000
0000
0000
0000
0000
0000
10E0
79F0
FFF8
FFF8
FFF8
DE38
9E38
1C78
1C78
3C70
3C70
3870
3870
38E0
10E0
00E0
00E0
01E0
01C0
0080
ENDCHAR
STARTCHAR char105
ENCODING 105
SWIDTH 810 0
DWIDTH 9 0
BBX 7 31 0 -5
BITMAP
00
00
00
00
00
00
00
00
00
00
00
30
78
78
78
78
70
F0
F0
F0
F2
FE
FE
FE
7C
10
00
00
00
00
00
ENDCHAR
STARTCHAR char106
ENCODING 106
SWIDTH 1800 0
DWIDTH 20 0
BBX 17 31 0 -5
BITMAP
000000
000000
000000
007000
01FC00
01FE00
01FE00
01CF00
01CF00
01CF00
01EF00
01EF00
38FF00
7C7F00
FE3F00
FE1F80
FE1F80
FC1F80
7C3C00
783C00
783800
787800
78F800
78F000
7FF000
3FE000
0F8000
000000
000000
000000
000000
ENDCHAR
STARTCHAR char107
ENCODING 107
SWIDTH 1170 0
DWIDTH 13 0
BBX 11 31 0 -5
BITMAP
0000
0000
0000
0000
0000
0000
0000
0000
0000
0000
0000
0060
38E0
39E0
79E0
7B80
7F80
7E00
7E00
FF00
FF00
F780
E780
E3E0
E3E0
41C0
0000
0000
0000
0000
0000
ENDCHAR
STARTCHAR char108
ENCODING 108
SWIDTH 1530 0
DWIDTH 17 0
BBX 14 31 0 -5
BITMAP
0000
0000
0000
0000
F000
F800
7C00
3E00
1E00
0F00
0F00
0F00
0780
0780
07C0
07C0
0FC0
0FE0
1DE0
3CE0
38F0
78F0
7078
F078
F03C
F03C
E01C
0000
0000
0000
0000
ENDCHAR
STARTCHAR char109
ENCODING 109
SWIDTH 1620 0
DWIDTH 18 0
BBX 15 31 0 -5
BITMAP
0000
0000
0000
0000
0000
0000
0000
0000
0000
0000
0000
0008
1C18
1C38
1C38
1C38
1C78
3C78
3878
3878
3878
78FE
7FFE
7FFE
7FFC
FF18
E000
E000
E000
E000
C000
ENDCHAR
STARTCHAR char110
ENCODING 110
SWIDTH 1170 0
DWIDTH 13 0
BBX 11 31 0 -5
BITMAP
0000
0000
0000
0000
0000
0000
0000
0000
0000
0000
0000
0060
F8E0
F8E0
F8E0
38E0
38E0
71C0
71C0
7380
7700
7E00
7C00
F800
F000
C000
0000
0000
0000
0000
0000
ENDCHAR
STARTCHAR char111
ENCODING 111
SWIDTH 1260 0
DWIDTH 14 0
BBX 12 31 0 -5
BITMAP
0000
0000
0000
0000
0000
0000
0000
0000
0000
0000
0F80
3FE0
3FE0
7FF0
F8F0
F0F0
F0F0
F0F0
E0F0
E0F0
F0F0
F1E0
7FC0
3F80
1F00
0000
0000
0000
0000
0000
0000
ENDCHAR
STARTCHAR char112
ENCODING 112
SWIDTH 1800 0
DWIDTH 20 0
BBX 17 31 0 -5
BITMAP
000000
000000
000000
000000
000000
000000
000000
000000
000000
000000
000000
000000
1FFF80
3FFF80
7FFF80
FFFF00
E77000
C77000
077000
0E7000
0E7000
0E7000
1C7000
1C7000
1C7000
3C7000
186000
000000
000000
000000
000000
ENDCHAR
STARTCHAR char113
ENCODING 113
SWIDTH 1350 0
DWIDTH 15 0
BBX 13 31 0 -5
BITMAP
0000
0000
0000
03E0
07E0
0FF0
0FF0
1E78
1C78
3C78
3C78
7C78
7FF8
7FF0
7FF0
79F0
70F0
F1E0
F1E0
F1E0
F1C0
F3C0
F780
7F80
7E00
3C00
0000
0000
0000
0000
0000
ENDCHAR
STARTCHAR char114
ENCODING 114
SWIDTH 1620 0
DWIDTH 18 0
BBX 15 31 0 -5
BITMAP
0000
0000
0000
0000
0000
0000
0000
0000
0000
0000
0000
01E0
03F8
07F8
0FFC
1E3C
1E1C
1C1E
1C1E
3C3C
3C3C
3C3C
3C78
3FF8
7FF0
7BC0
7000
F000
7000
E000
6000
ENDCHAR
STARTCHAR char115
ENCODING 115
SWIDTH 1710 0
DWIDTH 19 0
BBX 16 31 0 -5
BITMAP
0000
0000
0000
0000
0000
0000
0000
0000
0000
0000
0000
01FF
0FFF
1FFE
3FF8
78F0
78F0
70F0
70F0
F0F0
F0E0
71E0
7FC0
3FC0
1F00
0000
0000
0000
0000
0000
0000
ENDCHAR
STARTCHAR char116
ENCODING 116
SWIDTH 1620 0
DWIDTH 18 0
BBX 15 31 0 -5
BITMAP
0000
0000
0000
0000
0000
0000
0000
0000
0000
0000
0000
0FFC
1FFE
3FFC
7FFC
7FC0
E380
4380
0780
0780
0F80
0F00
0F00
0F00
0F00
0E00
0000
0000
0000
0000
0000
ENDCHAR
STARTCHAR char117
ENCODING 117
SWIDTH 1350 0
DWIDTH 15 0
BBX 13 31 0 -5
BITMAP
0000
0000
0000
0000
0000
0000
0000
0000
0000
0000
0000
0000
7030
F870
F878
3C78
3C78
3870
3870
3870
7870
7870
78E0
39E0
3FE0
1FC0
0E00
0000
0000
0000
0000
ENDCHAR
STARTCHAR char118
ENCODING 118
SWIDTH 990 0
DWIDTH 11 0
BBX 9 31 0 -5
BITMAP
0000
0000
0000
0000
0000
0000
0000
0000
0000
0000
0000
7F00
7F80
FF80
F780
F180
F000
F800
7C00
3E00
1E00
1F00
0F00
7F00
FF00
7C00
0000
0000
0000
0000
0000
ENDCHAR
STARTCHAR char119
ENCODING 119
SWIDTH 1890 0
DWIDTH 21 0
BBX 18 31 0 -5
BITMAP
000000
000000
000000
000000
000000
000000
000000
000000
000000
000000
000000
000000
060E00
1E0F00
3C0780
780780
78C3C0
F1E3C0
F1E1C0
F1E1C0
F1E1C0
F1E3C0
7BF780
3FFF00
3FFE00
1E3C00
000000
000000
000000
000000
000000
ENDCHAR
STARTCHAR char120
ENCODING 120
SWIDTH 1260 0
DWIDTH 14 0
BBX 12 31 0 -5
BITMAP
0000
0C00
1E00
1C00
1C60
1FE0
0FE0
0FE0
1C00
3C00
3800
3800
3800
3800
3FF0
3FF0
1FF0
1FC0
1C00
3800
7000
7000
F000
FC00
7F80
7FC0
3FE0
07E0
07E0
07E0
07C0
ENDCHAR
STARTCHAR char121
ENCODING 121
SWIDTH 1890 0
DWIDTH 21 0
BBX 18 31 0 -5
BITMAP
000000
000000
003000
007800
007800
007800
007800
00F800
00F000
00F000
00F000
60F0C0
F0E1C0
F1E1C0
F1E3C0
F9C380
79C380
79C700
7BCF00
7BDE00
7BFE00
7FFE00
7FFC00
3FF000
1FE000
0F8000
070000
070000
0E0000
0E0000
0E0000
ENDCHAR
STARTCHAR char122
ENCODING 122
SWIDTH 1350 0
DWIDTH 15 0
BBX 13 31 0 -5
BITMAP
0000
0000
0000
0000
1E00
3E00
3E00
1C78
1FF8
0FF8
0FF8
0F00
3C00
3C00
7800
7000
7000
7000
7000
7000
7800
7800
3C00
3E00
1E00
0E00
EE00
EE00
FE00
FC00
1000
ENDCHAR
ENDFONT
