STARTFONT 2.1
FONT -MIT-S30LAT KST-Medium-R-Normal--30-10-200-200-P-16-ISO8859-1
SIZE 10 200 200
FONTBOUNDINGBOX 16 30 0 -5
STARTPROPERTIES 17
ADD_STYLE_NAME ""
AVERAGE_WIDTH 16
CHARSET_ENCODING "1"
CHARSET_REGISTRY "ISO8859"
DEFAULT_CHAR 0
FAMILY "S30LAT KST"
FONT_ASCENT 25
FONT_DESCENT 5
FOUNDRY "MIT"
PIXEL_SIZE 30
POINT_SIZE 10
RESOLUTION_X 200
RESOLUTION_Y 200
SETWIDTH_NAME "Normal"
SLANT "R"
SPACING "P"
WEIGHT_NAME "Medium"
ENDPROPERTIES
CHARS 123
STARTCHAR char1
ENCODING 1
SWIDTH 1600 0
DWIDTH 16 0
BBX 16 30 0 -5
BITMAP
0000
0000
0000
0000
0000
0300
0300
0300
0300
0300
0300
0300
0300
0300
0300
4308
6318
7338
3330
3B70
1B60
0FC0
0FC0
0780
0300
0000
0000
0000
0000
0000
ENDCHAR
STARTCHAR char2
ENCODING 2
SWIDTH 1600 0
DWIDTH 16 0
BBX 16 30 0 -5
BITMAP
0000
0000
0000
0000
0000
0000
0000
0000
0000
0000
0000
0000
1E04
3F1C
61B0
40F0
C060
C060
C060
C060
C060
40F0
61B0
3F1C
1E04
0000
0000
0000
0000
0000
ENDCHAR
STARTCHAR char3
ENCODING 3
SWIDTH 1600 0
DWIDTH 16 0
BBX 16 30 0 -5
BITMAP
0000
0000
0000
0000
0000
00E0
03F0
07F8
0E38
1C18
1818
3030
3030
6060
60C0
61C0
60F0
E038
E01C
E01C
E01C
E01C
F838
FFF0
CFE0
C000
C000
C000
C000
C000
ENDCHAR
STARTCHAR char4
ENCODING 4
SWIDTH 1600 0
DWIDTH 16 0
BBX 16 30 0 -5
BITMAP
0000
0000
0000
0000
0000
0000
0000
0000
0000
0000
0000
0000
0300
0780
0CC0
0CC0
1860
1860
3030
3030
6018
6018
C00C
C00C
8004
0000
0000
0000
0000
0000
ENDCHAR
STARTCHAR char5
ENCODING 5
SWIDTH 1600 0
DWIDTH 16 0
BBX 16 30 0 -5
BITMAP
0000
0000
0000
0000
0000
0000
0000
0000
0000
0000
0000
0000
0000
0000
0000
FFFC
FFFC
000C
000C
000C
000C
0000
0000
0000
0000
0000
0000
0000
0000
0000
ENDCHAR
STARTCHAR char6
ENCODING 6
SWIDTH 1600 0
DWIDTH 16 0
BBX 16 30 0 -5
BITMAP
0000
0000
0000
0000
0000
0000
0000
0000
0000
0000
0000
0000
03E0
0F00
1C00
1800
3000
3000
3F80
3000
3000
1800
1C00
0F00
03E0
0000
0000
0000
0000
0000
ENDCHAR
STARTCHAR char7
ENCODING 7
SWIDTH 1600 0
DWIDTH 16 0
BBX 16 30 0 -5
BITMAP
0000
0000
0000
0000
0000
0000
0000
0000
0000
0000
0000
0000
FFC0
FFF8
307C
3060
3060
3060
3060
3060
3060
3060
3060
3060
F07C
0000
0000
0000
0000
0000
ENDCHAR
STARTCHAR char8
ENCODING 8
SWIDTH 1600 0
DWIDTH 16 0
BBX 16 30 0 -5
BITMAP
0000
0000
0000
0000
0000
0000
0000
F800
1C00
0600
0600
0300
0300
0180
0180
01C0
03C0
0660
0C60
1830
3030
6018
C018
800C
800C
0000
0000
0000
0000
0000
ENDCHAR
STARTCHAR char11
ENCODING 11
SWIDTH 1600 0
DWIDTH 16 0
BBX 16 30 0 -5
BITMAP
0000
0000
0000
0000
0000
0300
0780
0FC0
0FC0
1B60
3B70
3330
7338
6318
4308
0300
0300
0300
0300
0300
0300
0300
0300
0300
0300
0000
0000
0000
0000
0000
ENDCHAR
STARTCHAR char14
ENCODING 14
SWIDTH 1600 0
DWIDTH 16 0
BBX 16 30 0 -5
BITMAP
0000
0000
0000
0000
0000
0000
0000
0000
0000
0000
0000
0000
0000
0000
3870
7CF8
C78C
C30C
C30C
C30C
C78C
7CF8
3870
0000
0000
0000
0000
0000
0000
0000
ENDCHAR
STARTCHAR char15
ENCODING 15
SWIDTH 1600 0
DWIDTH 16 0
BBX 16 30 0 -5
BITMAP
0000
0000
0000
0000
0000
0780
0FE0
0C30
0018
0018
0018
0018
0018
0018
0F98
1FF8
3038
6018
6018
6018
6018
6030
30E0
3FC0
0F80
0000
0000
0000
0000
0000
ENDCHAR
STARTCHAR char16
ENCODING 16
SWIDTH 1600 0
DWIDTH 16 0
BBX 16 30 0 -5
BITMAP
0000
0000
0000
0000
0000
0000
0000
0000
0000
0000
0000
0000
07FC
1FFC
3800
7000
E000
C000
C000
C000
E000
7000
3800
1FFC
07FC
0000
0000
0000
0000
0000
ENDCHAR
STARTCHAR char17
ENCODING 17
SWIDTH 1600 0
DWIDTH 16 0
BBX 16 30 0 -5
BITMAP
0000
0000
0000
0000
0000
0000
0000
0000
0000
0000
0000
0000
FF80
FFE0
0070
0038
001C
000C
000C
000C
001C
0038
0070
FFE0
FF80
0000
0000
0000
0000
0000
ENDCHAR
STARTCHAR char18
ENCODING 18
SWIDTH 1600 0
DWIDTH 16 0
BBX 16 30 0 -5
BITMAP
0000
0000
0000
0000
0000
0000
0000
0000
0700
1FC0
38E0
7070
6030
6030
6030
6030
6030
6030
6030
6030
6030
6030
6030
6030
6030
0000
0000
0000
0000
0000
ENDCHAR
STARTCHAR char19
ENCODING 19
SWIDTH 1600 0
DWIDTH 16 0
BBX 16 30 0 -5
BITMAP
0000
0000
0000
0000
0000
0000
0000
0000
6030
6030
6030
6030
6030
6030
6030
6030
6030
6030
6030
6030
6030
7070
38E0
1FC0
0700
0000
0000
0000
0000
0000
ENDCHAR
STARTCHAR char20
ENCODING 20
SWIDTH 1600 0
DWIDTH 16 0
BBX 16 30 0 -5
BITMAP
0000
0000
0000
0000
0000
C00C
C00C
6018
6018
6018
3030
3030
3FF0
1FE0
1860
1860
0CC0
0CC0
0CC0
0780
0780
0780
0300
0300
0300
0000
0000
0000
0000
0000
ENDCHAR
STARTCHAR char21
ENCODING 21
SWIDTH 1600 0
DWIDTH 16 0
BBX 16 30 0 -5
BITMAP
0000
0000
0000
0000
0000
FFFC
FFF8
0018
0018
0018
0018
0018
0018
0018
07F8
07F8
0018
0018
0018
0018
0018
0018
0018
FFF8
FFFC
0000
0000
0000
0000
0000
ENDCHAR
STARTCHAR char22
ENCODING 22
SWIDTH 1600 0
DWIDTH 16 0
BBX 16 30 0 -5
BITMAP
0000
0000
0000
0000
0000
0000
0000
0000
0000
0000
0000
0000
0780
1FE0
3030
7878
4CC8
C78C
C30C
C78C
4CC8
7878
3030
1FE0
0780
0000
0000
0000
0000
0000
ENDCHAR
STARTCHAR char23
ENCODING 23
SWIDTH 1600 0
DWIDTH 16 0
BBX 16 30 0 -5
BITMAP
0000
0000
0000
0000
0000
0000
0000
0000
0000
0000
0000
0000
0000
0840
1860
3030
7FF8
E01C
E01C
7FF8
3030
1860
0840
0000
0000
0000
0000
0000
0000
0000
ENDCHAR
STARTCHAR char24
ENCODING 24
SWIDTH 1600 0
DWIDTH 16 0
BBX 16 30 0 -5
BITMAP
0000
0000
0000
0000
0000
0000
0000
0000
0000
0000
0000
0000
0000
0C00
1800
3000
6000
FFFC
FFFC
6000
3000
1800
0C00
0000
0000
0000
0000
0000
0000
0000
ENDCHAR
STARTCHAR char25
ENCODING 25
SWIDTH 1600 0
DWIDTH 16 0
BBX 16 30 0 -5
BITMAP
0000
0000
0000
0000
0000
0000
0000
0000
0000
0000
0000
0000
0000
00C0
0060
0030
0018
FFFC
FFFC
0018
0030
0060
00C0
0000
0000
0000
0000
0000
0000
0000
ENDCHAR
STARTCHAR char26
ENCODING 26
SWIDTH 1600 0
DWIDTH 16 0
BBX 16 30 0 -5
BITMAP
0000
0000
0000
0000
0000
0000
0000
0000
0000
0000
0000
0000
0018
0030
0060
7FF8
7FF8
0180
0300
7FF8
7FF8
1800
3000
6000
0000
0000
0000
0000
0000
0000
ENDCHAR
STARTCHAR char27
ENCODING 27
SWIDTH 1600 0
DWIDTH 16 0
BBX 16 30 0 -5
BITMAP
0000
0000
0000
0000
0000
0200
0700
0700
0700
0D80
0D80
18C0
3060
6030
C018
C018
6030
3060
18C0
0D80
0D80
0700
0700
0700
0200
0000
0000
0000
0000
0000
ENDCHAR
STARTCHAR char28
ENCODING 28
SWIDTH 1600 0
DWIDTH 16 0
BBX 16 30 0 -5
BITMAP
0000
0000
0000
0000
0000
0000
0000
0000
0000
0018
0078
01E0
0780
1E00
7800
7800
1E00
0780
01E0
0078
0018
0000
0000
7FF8
7FF8
0000
0000
0000
0000
0000
ENDCHAR
STARTCHAR char29
ENCODING 29
SWIDTH 1600 0
DWIDTH 16 0
BBX 16 30 0 -5
BITMAP
0000
0000
0000
0000
0000
0000
0000
0000
0000
6000
7800
1E00
0780
01E0
0078
0078
01E0
0780
1E00
7800
6000
0000
0000
7FF8
7FF8
0000
0000
0000
0000
0000
ENDCHAR
STARTCHAR char30
ENCODING 30
SWIDTH 1600 0
DWIDTH 16 0
BBX 16 30 0 -5
BITMAP
0000
0000
0000
0000
0000
0000
0000
0000
0000
0000
0000
0000
0000
7FF8
7FF8
0000
0000
7FF8
7FF8
0000
0000
7FF8
7FF8
0000
0000
0000
0000
0000
0000
0000
ENDCHAR
STARTCHAR char31
ENCODING 31
SWIDTH 1600 0
DWIDTH 16 0
BBX 16 30 0 -5
BITMAP
0000
0000
0000
0000
0000
0000
0000
0000
0000
0000
0000
0000
8004
C00C
C00C
6018
6018
3030
3030
1860
1860
0CC0
0CC0
0780
0300
0000
0000
0000
0000
0000
ENDCHAR
STARTCHAR char32
ENCODING 32
SWIDTH 1600 0
DWIDTH 16 0
BBX 16 30 0 -5
BITMAP
0000
0000
0000
0000
0000
0000
0000
0000
0000
0000
0000
0000
0000
0000
0000
0000
0000
0000
0000
0000
0000
0000
0000
0000
0000
0000
0000
0000
0000
0000
ENDCHAR
STARTCHAR char33
ENCODING 33
SWIDTH 1600 0
DWIDTH 16 0
BBX 16 30 0 -5
BITMAP
0000
0000
0000
0000
0000
0380
0380
0380
0380
0380
0380
0380
0380
0380
0380
0380
0380
0380
0380
0000
0000
0000
0380
0380
0380
0000
0000
0000
0000
0000
ENDCHAR
STARTCHAR char34
ENCODING 34
SWIDTH 1600 0
DWIDTH 16 0
BBX 16 30 0 -5
BITMAP
0000
0000
0000
0000
0000
18C0
18C0
18C0
18C0
18C0
18C0
18C0
18C0
0000
0000
0000
0000
0000
0000
0000
0000
0000
0000
0000
0000
0000
0000
0000
0000
0000
ENDCHAR
STARTCHAR char35
ENCODING 35
SWIDTH 1600 0
DWIDTH 16 0
BBX 16 30 0 -5
BITMAP
0000
0000
0000
0000
0000
060C
060C
060C
0C18
0C18
7FFC
7FFC
1830
1830
1830
3060
3060
3060
FFF8
FFF8
60C0
60C0
C180
C180
C180
0000
0000
0000
0000
0000
ENDCHAR
STARTCHAR char36
ENCODING 36
SWIDTH 1600 0
DWIDTH 16 0
BBX 16 30 0 -5
BITMAP
0000
0000
0000
0000
0000
0CC0
0CC0
1FE0
3FF0
7CF8
6CD8
6CC0
7CC0
3CC0
1FC0
0FE0
0CF0
0CF8
0CD8
6CD8
7CF8
3FF0
1FE0
0CC0
0CC0
0000
0000
0000
0000
0000
ENDCHAR
STARTCHAR char37
ENCODING 37
SWIDTH 1600 0
DWIDTH 16 0
BBX 16 30 0 -5
BITMAP
0000
0000
0000
0000
0000
0018
3818
7C30
C630
C660
C660
7CC0
38C0
0180
0180
0300
0300
0600
0670
0CF8
0D8C
198C
198C
30F8
3070
0000
0000
0000
0000
0000
ENDCHAR
STARTCHAR char38
ENCODING 38
SWIDTH 1600 0
DWIDTH 16 0
BBX 16 30 0 -5
BITMAP
0000
0000
0000
0000
0000
03C0
0EE0
0C70
1830
1830
1C60
0EE0
0780
1F00
3F00
7380
E1C0
E1CC
E0EC
E0EC
E078
7078
78FC
3FCC
0F80
0000
0000
0000
0000
0000
ENDCHAR
STARTCHAR char39
ENCODING 39
SWIDTH 1600 0
DWIDTH 16 0
BBX 16 30 0 -5
BITMAP
0000
0000
0000
0000
0000
0E00
1F00
1F00
0F00
0700
0600
0C00
0800
0000
0000
0000
0000
0000
0000
0000
0000
0000
0000
0000
0000
0000
0000
0000
0000
0000
ENDCHAR
STARTCHAR char40
ENCODING 40
SWIDTH 1600 0
DWIDTH 16 0
BBX 16 30 0 -5
BITMAP
0000
0000
0000
0000
0000
0070
00E0
00C0
0180
0180
0180
0180
0380
0380
0380
0380
0380
0380
0180
0180
0180
0180
00C0
00E0
0070
0000
0000
0000
0000
0000
ENDCHAR
STARTCHAR char41
ENCODING 41
SWIDTH 1600 0
DWIDTH 16 0
BBX 16 30 0 -5
BITMAP
0000
0000
0000
0000
0000
3800
1C00
0C00
0600
0600
0600
0600
0700
0700
0700
0700
0700
0700
0600
0600
0600
0600
0C00
1C00
3800
0000
0000
0000
0000
0000
ENDCHAR
STARTCHAR char42
ENCODING 42
SWIDTH 1600 0
DWIDTH 16 0
BBX 16 30 0 -5
BITMAP
0000
0000
0000
0000
0000
0000
0000
0000
0000
0000
0000
0780
0780
0780
0300
E31C
E01C
F87C
1860
0000
0CC0
1CE0
3870
3870
3870
0000
0000
0000
0000
0000
ENDCHAR
STARTCHAR char43
ENCODING 43
SWIDTH 1600 0
DWIDTH 16 0
BBX 16 30 0 -5
BITMAP
0000
0000
0000
0000
0000
0000
0000
0000
0000
0000
0000
0300
0300
0300
0300
0300
0300
FFFC
FFFC
0300
0300
0300
0300
0300
0300
0000
0000
0000
0000
0000
ENDCHAR
STARTCHAR char44
ENCODING 44
SWIDTH 1600 0
DWIDTH 16 0
BBX 16 30 0 -5
BITMAP
0000
0000
0000
0000
0000
0000
0000
0000
0000
0000
0000
0000
0000
0000
0000
0000
0000
0000
0000
0000
0000
0E00
1F00
1F00
0F00
0700
0600
0C00
0800
0000
ENDCHAR
STARTCHAR char45
ENCODING 45
SWIDTH 1600 0
DWIDTH 16 0
BBX 16 30 0 -5
BITMAP
0000
0000
0000
0000
0000
0000
0000
0000
0000
0000
0000
0000
0000
0000
0000
0000
0000
7FF8
7FF8
0000
0000
0000
0000
0000
0000
0000
0000
0000
0000
0000
ENDCHAR
STARTCHAR char46
ENCODING 46
SWIDTH 1600 0
DWIDTH 16 0
BBX 16 30 0 -5
BITMAP
0000
0000
0000
0000
0000
0000
0000
0000
0000
0000
0000
0000
0000
0000
0000
0000
0000
0000
0000
0000
0E00
1F00
1F00
1F00
0E00
0000
0000
0000
0000
0000
ENDCHAR
STARTCHAR char47
ENCODING 47
SWIDTH 1600 0
DWIDTH 16 0
BBX 16 30 0 -5
BITMAP
0000
0000
0000
0000
0000
0038
0030
0070
0060
00E0
00C0
01C0
0180
0380
0300
0700
0600
0E00
0C00
1C00
1800
3800
3000
7000
6000
0000
0000
0000
0000
0000
ENDCHAR
STARTCHAR char48
ENCODING 48
SWIDTH 1600 0
DWIDTH 16 0
BBX 16 30 0 -5
BITMAP
0000
0000
0000
0000
0000
1FE0
3FF0
7878
703C
603C
6038
6078
60F8
61D8
6398
6718
6E18
7C18
7818
7018
F018
F038
7878
3FF0
1FE0
0000
0000
0000
0000
0000
ENDCHAR
STARTCHAR char49
ENCODING 49
SWIDTH 1600 0
DWIDTH 16 0
BBX 16 30 0 -5
BITMAP
0000
0000
0000
0000
0000
0E00
1E00
3600
6600
0600
0600
0600
0600
0600
0600
0600
0600
0600
0600
0600
0600
0600
0600
7FE0
7FE0
0000
0000
0000
0000
0000
ENDCHAR
STARTCHAR char50
ENCODING 50
SWIDTH 1600 0
DWIDTH 16 0
BBX 16 30 0 -5
BITMAP
0000
0000
0000
0000
0000
1FC0
7FF0
6030
C018
C018
0018
0018
0030
0060
00C0
0180
0300
0600
0C00
1800
3000
6000
C000
FFF8
FFF8
0000
0000
0000
0000
0000
ENDCHAR
STARTCHAR char51
ENCODING 51
SWIDTH 1600 0
DWIDTH 16 0
BBX 16 30 0 -5
BITMAP
0000
0000
0000
0000
0000
1FC0
7FF0
6030
C018
C018
0018
0030
0030
0060
07C0
07C0
0060
0030
0030
0018
C018
C018
6030
7FF0
1FC0
0000
0000
0000
0000
0000
ENDCHAR
STARTCHAR char52
ENCODING 52
SWIDTH 1600 0
DWIDTH 16 0
BBX 16 30 0 -5
BITMAP
0000
0000
0000
0000
0000
0300
0700
0600
0C00
0C00
1800
1800
30C0
30C0
60C0
60C0
C0C0
C0C0
FFF8
FFF8
00C0
00C0
00C0
00C0
00C0
0000
0000
0000
0000
0000
ENDCHAR
STARTCHAR char53
ENCODING 53
SWIDTH 1600 0
DWIDTH 16 0
BBX 16 30 0 -5
BITMAP
0000
0000
0000
0000
0000
FFF0
FFF0
C000
C000
C000
C000
C000
C000
C000
FFC0
FFF0
0030
0018
0018
0018
C018
C018
6030
7FF0
1FC0
0000
0000
0000
0000
0000
ENDCHAR
STARTCHAR char54
ENCODING 54
SWIDTH 1600 0
DWIDTH 16 0
BBX 16 30 0 -5
BITMAP
0000
0000
0000
0000
0000
1FC0
7FF0
6030
C018
C018
C000
C000
C000
C000
C700
DFC0
F8F0
E030
C018
C018
C018
C018
6030
7FF0
1FC0
0000
0000
0000
0000
0000
ENDCHAR
STARTCHAR char55
ENCODING 55
SWIDTH 1600 0
DWIDTH 16 0
BBX 16 30 0 -5
BITMAP
0000
0000
0000
0000
0000
FFF8
FFF8
0018
0018
0018
0030
0060
00C0
0180
0300
1FE0
3FC0
0600
0600
0600
0C00
0C00
0C00
0C00
0C00
0000
0000
0000
0000
0000
ENDCHAR
STARTCHAR char56
ENCODING 56
SWIDTH 1600 0
DWIDTH 16 0
BBX 16 30 0 -5
BITMAP
0000
0000
0000
0000
0000
0F80
3FE0
3060
6030
6030
6030
3060
3DE0
0F80
0700
1FC0
78F0
6030
C018
C018
C018
C018
6030
7FF0
1FC0
0000
0000
0000
0000
0000
ENDCHAR
STARTCHAR char57
ENCODING 57
SWIDTH 1600 0
DWIDTH 16 0
BBX 16 30 0 -5
BITMAP
0000
0000
0000
0000
0000
1FC0
7FF0
6030
C018
C018
C018
C018
6038
78F8
1FD8
0718
0018
0018
0018
0018
C018
C018
6030
7FF0
1FC0
0000
0000
0000
0000
0000
ENDCHAR
STARTCHAR char58
ENCODING 58
SWIDTH 1600 0
DWIDTH 16 0
BBX 16 30 0 -5
BITMAP
0000
0000
0000
0000
0000
0000
0000
0000
0000
0000
0000
0000
0E00
1F00
1F00
1F00
0E00
0000
0000
0000
0E00
1F00
1F00
1F00
0E00
0000
0000
0000
0000
0000
ENDCHAR
STARTCHAR char59
ENCODING 59
SWIDTH 1600 0
DWIDTH 16 0
BBX 16 30 0 -5
BITMAP
0000
0000
0000
0000
0000
0000
0000
0000
0000
0000
0000
0000
0000
0E00
1F00
1F00
1F00
0E00
0000
0000
0000
0E00
1F00
1F00
0F00
0700
0600
0C00
0800
0000
ENDCHAR
STARTCHAR char60
ENCODING 60
SWIDTH 1600 0
DWIDTH 16 0
BBX 16 30 0 -5
BITMAP
0000
0000
0000
0000
0000
0000
0000
0000
0000
0000
0000
0000
0018
0078
01E0
0780
1E00
7800
7800
1E00
0780
01E0
0078
0018
0000
0000
0000
0000
0000
0000
ENDCHAR
STARTCHAR char61
ENCODING 61
SWIDTH 1600 0
DWIDTH 16 0
BBX 16 30 0 -5
BITMAP
0000
0000
0000
0000
0000
0000
0000
0000
0000
0000
0000
0000
0000
0000
0000
7FF8
7FF8
0000
0000
7FF8
7FF8
0000
0000
0000
0000
0000
0000
0000
0000
0000
ENDCHAR
STARTCHAR char62
ENCODING 62
SWIDTH 1600 0
DWIDTH 16 0
BBX 16 30 0 -5
BITMAP
0000
0000
0000
0000
0000
0000
0000
0000
0000
0000
0000
0000
6000
7800
1E00
0780
01E0
0078
0078
01E0
0780
1E00
7800
6000
0000
0000
0000
0000
0000
0000
ENDCHAR
STARTCHAR char63
ENCODING 63
SWIDTH 1600 0
DWIDTH 16 0
BBX 16 30 0 -5
BITMAP
0000
0000
0000
0000
0000
0FC0
1FE0
3870
7038
6018
0018
0018
0038
0070
00E0
01C0
0380
0700
0600
0600
0000
0000
0700
0700
0700
0000
0000
0000
0000
0000
ENDCHAR
STARTCHAR char64
ENCODING 64
SWIDTH 1600 0
DWIDTH 16 0
BBX 16 30 0 -5
BITMAP
0000
0000
0000
0000
0000
0000
0000
0000
0000
0000
0000
0FC0
3FF0
6038
C01C
C78C
CFEC
CC6C
CC6C
CFF8
C7F0
E000
701C
3FF8
0FE0
0000
0000
0000
0000
0000
ENDCHAR
STARTCHAR char65
ENCODING 65
SWIDTH 1600 0
DWIDTH 16 0
BBX 16 30 0 -5
BITMAP
FFF8
FFF8
0000
0000
0000
0200
0700
0700
0F80
0D80
0D80
18C0
18C0
18C0
3060
3060
3060
7FF0
7FF0
6030
6030
E038
C018
C018
C018
0000
0000
0000
0000
0000
ENDCHAR
STARTCHAR char66
ENCODING 66
SWIDTH 1600 0
DWIDTH 16 0
BBX 16 30 0 -5
BITMAP
0000
0000
0000
0000
0000
FF80
FFE0
C060
C030
C030
C030
C030
C030
C060
FFE0
FFF0
C030
C018
C018
C018
C018
C018
C030
FFF0
FFC0
0000
0000
0000
0000
0000
ENDCHAR
STARTCHAR char67
ENCODING 67
SWIDTH 1600 0
DWIDTH 16 0
BBX 16 30 0 -5
BITMAP
3060
18C0
0D80
0700
0000
1FC0
7FF0
6030
C018
C018
C000
C000
C000
C000
C000
C000
C000
C000
C000
C000
C018
C018
6030
7FF0
1FC0
0000
0000
0000
0000
0000
ENDCHAR
STARTCHAR char68
ENCODING 68
SWIDTH 1600 0
DWIDTH 16 0
BBX 16 30 0 -5
BITMAP
0000
0000
0000
0000
0000
FFC0
FFF0
C030
C018
C018
C018
C018
C018
C018
C018
C018
C018
C018
C018
C018
C018
C018
C030
FFF0
FFC0
0000
0000
0000
0000
0000
ENDCHAR
STARTCHAR char69
ENCODING 69
SWIDTH 1600 0
DWIDTH 16 0
BBX 16 30 0 -5
BITMAP
FFF8
FFF8
0000
0000
0000
FFF8
FFF8
C000
C000
C000
C000
C000
C000
C000
FFE0
FFE0
C000
C000
C000
C000
C000
C000
C000
FFF8
FFF8
0000
0000
0000
0000
0000
ENDCHAR
STARTCHAR char70
ENCODING 70
SWIDTH 1600 0
DWIDTH 16 0
BBX 16 30 0 -5
BITMAP
0000
0000
0000
0000
0000
FFF8
FFF8
C000
C000
C000
C000
C000
C000
C000
FFE0
FFE0
C000
C000
C000
C000
C000
C000
C000
C000
C000
0000
0000
0000
0000
0000
ENDCHAR
STARTCHAR char71
ENCODING 71
SWIDTH 1600 0
DWIDTH 16 0
BBX 16 30 0 -5
BITMAP
3060
18C0
0D80
0700
0000
1FC0
7FF0
6030
C018
C018
C000
C000
C000
C000
C000
C000
C0F8
C0F8
C018
C018
C018
C018
6030
7FF0
1FC0
0000
0000
0000
0000
0000
ENDCHAR
STARTCHAR char72
ENCODING 72
SWIDTH 1600 0
DWIDTH 16 0
BBX 16 30 0 -5
BITMAP
0000
0000
0000
0000
0000
C018
C018
C018
C018
C018
C018
C018
C018
C018
FFF8
FFF8
C018
C018
C018
C018
C018
C018
C018
C018
C018
0000
0000
0000
0000
0000
ENDCHAR
STARTCHAR char73
ENCODING 73
SWIDTH 1600 0
DWIDTH 16 0
BBX 16 30 0 -5
BITMAP
FFF8
FFF8
0000
0000
0000
1F80
1F80
0600
0600
0600
0600
0600
0600
0600
0600
0600
0600
0600
0600
0600
0600
0600
0600
1F80
1F80
0000
0000
0000
0000
0000
ENDCHAR
STARTCHAR char74
ENCODING 74
SWIDTH 1600 0
DWIDTH 16 0
BBX 16 30 0 -5
BITMAP
0000
0000
0000
0000
0000
0018
0018
0018
0018
0018
0018
0018
0018
0018
0018
0018
0018
0018
0018
0018
C018
C018
6030
7FF0
1FC0
0000
0000
0000
0000
0000
ENDCHAR
STARTCHAR char75
ENCODING 75
SWIDTH 1600 0
DWIDTH 16 0
BBX 16 30 0 -5
BITMAP
0000
0000
0000
0000
0000
C018
C038
C070
C0E0
C1C0
C380
C700
CE00
DC00
F800
F000
F800
DC00
CE00
C700
C380
C1C0
C0E0
C070
C030
0000
0700
0700
0600
0C00
ENDCHAR
STARTCHAR char76
ENCODING 76
SWIDTH 1600 0
DWIDTH 16 0
BBX 16 30 0 -5
BITMAP
0000
0000
0000
0000
0000
C000
C000
C000
C000
C000
C000
C000
C000
C000
C000
C000
C000
C000
C000
C000
C000
C000
C000
FFF8
FFF8
0000
0700
0700
0600
0C00
ENDCHAR
STARTCHAR char77
ENCODING 77
SWIDTH 1600 0
DWIDTH 16 0
BBX 16 30 0 -5
BITMAP
0000
0000
0000
0000
0000
C018
E038
F078
F8F8
DDD8
CD98
C718
C218
C218
C018
C018
C018
C018
C018
C018
C018
C018
C018
C018
C018
0000
0000
0000
0000
0000
ENDCHAR
STARTCHAR char78
ENCODING 78
SWIDTH 1600 0
DWIDTH 16 0
BBX 16 30 0 -5
BITMAP
0000
0000
0000
0000
0000
E018
E018
F018
F018
D818
D818
CC18
CC18
C618
C618
C318
C318
C198
C198
C0D8
C0D8
C078
C078
C038
C038
0000
0700
0700
0600
0C00
ENDCHAR
STARTCHAR char79
ENCODING 79
SWIDTH 1600 0
DWIDTH 16 0
BBX 16 30 0 -5
BITMAP
0000
0000
0000
0000
0000
1FC0
7FF0
6030
C018
C018
C018
C018
C018
C018
C018
C018
C018
C018
C018
C018
C018
C018
6030
7FF0
1FC0
0000
0000
0000
0000
0000
ENDCHAR
STARTCHAR char80
ENCODING 80
SWIDTH 1600 0
DWIDTH 16 0
BBX 16 30 0 -5
BITMAP
0000
0000
0000
0000
0000
FFC0
FFF0
C030
C018
C018
C018
C018
C018
C030
FFF0
FFC0
C000
C000
C000
C000
C000
C000
C000
C000
C000
0000
0000
0000
0000
0000
ENDCHAR
STARTCHAR char81
ENCODING 81
SWIDTH 1600 0
DWIDTH 16 0
BBX 16 30 0 -5
BITMAP
0000
0000
0000
0000
0000
1FC0
7FF0
6030
C018
C018
C018
C018
C018
C018
C018
C018
C018
C018
C018
C018
C0D8
C0F8
6070
7FF8
1FDC
000C
0000
0000
0000
0000
ENDCHAR
STARTCHAR char82
ENCODING 82
SWIDTH 1600 0
DWIDTH 16 0
BBX 16 30 0 -5
BITMAP
0000
0000
0000
0000
0000
FFC0
FFF0
C030
C018
C018
C018
C018
C018
C030
FFF0
FFC0
C060
C060
C030
C030
C030
C030
C030
C018
C018
0000
0700
0700
0600
0C00
ENDCHAR
STARTCHAR char83
ENCODING 83
SWIDTH 1600 0
DWIDTH 16 0
BBX 16 30 0 -5
BITMAP
3060
18C0
0D80
0700
0000
1FC0
7FF0
6030
C018
C018
C000
C000
C000
6000
7FE0
1FF0
0030
0018
0018
0018
C018
C018
6030
7FF0
1FC0
0000
0000
0000
0000
0000
ENDCHAR
STARTCHAR char84
ENCODING 84
SWIDTH 1600 0
DWIDTH 16 0
BBX 16 30 0 -5
BITMAP
0000
0000
0000
0000
0000
7FF8
7FF8
0300
0300
0300
0300
0300
0300
0300
0300
0300
0300
0300
0300
0300
0300
0300
0300
0300
0300
0000
0000
0000
0000
0000
ENDCHAR
STARTCHAR char85
ENCODING 85
SWIDTH 1600 0
DWIDTH 16 0
BBX 16 30 0 -5
BITMAP
FFF8
FFF8
0000
0000
0000
C018
C018
C018
C018
C018
C018
C018
C018
C018
C018
C018
C018
C018
C018
C018
C018
C018
6030
7FF0
1FC0
0000
0000
0000
0000
0000
ENDCHAR
STARTCHAR char86
ENCODING 86
SWIDTH 1600 0
DWIDTH 16 0
BBX 16 30 0 -5
BITMAP
0000
0000
0000
0000
0000
C018
C018
6030
6030
6030
3060
3060
3060
18C0
18C0
18C0
0D80
0D80
0D80
0700
0700
0700
0200
0200
0200
0000
0000
0000
0000
0000
ENDCHAR
STARTCHAR char87
ENCODING 87
SWIDTH 1600 0
DWIDTH 16 0
BBX 16 30 0 -5
BITMAP
0000
0000
0000
0000
0000
C018
C018
C018
C018
C018
C018
C018
C018
C018
C018
C018
C218
C218
C718
CF98
DDD8
F8F8
F078
E038
C018
0000
0000
0000
0000
0000
ENDCHAR
STARTCHAR char88
ENCODING 88
SWIDTH 1600 0
DWIDTH 16 0
BBX 16 30 0 -5
BITMAP
0000
0000
0000
0000
0000
C018
C018
6030
6030
3060
3060
18C0
18C0
0D80
0F80
0F80
0D80
18C0
18C0
3060
3060
6030
6030
C018
C018
0000
0000
0000
0000
0000
ENDCHAR
STARTCHAR char89
ENCODING 89
SWIDTH 1600 0
DWIDTH 16 0
BBX 16 30 0 -5
BITMAP
0000
0000
0000
0000
0000
4008
4008
6018
6018
3030
3030
1860
1860
0CC0
0FC0
0780
0300
0300
0300
0300
0300
0300
0300
0300
0300
0000
0000
0000
0000
0000
ENDCHAR
STARTCHAR char90
ENCODING 90
SWIDTH 1600 0
DWIDTH 16 0
BBX 16 30 0 -5
BITMAP
3060
18C0
0D80
0700
0000
FFF8
FFF8
0038
0030
0060
00E0
00C0
0180
0380
3FF0
7FE0
0E00
0C00
1800
3800
3000
6000
E000
FFF8
FFF8
0000
0000
0000
0000
0000
ENDCHAR
STARTCHAR char91
ENCODING 91
SWIDTH 1600 0
DWIDTH 16 0
BBX 16 30 0 -5
BITMAP
0000
0000
0000
0000
0000
01F8
01F8
0180
0180
0180
0180
0180
0180
0180
0180
0180
0180
0180
0180
0180
0180
0180
0180
01F8
01F8
0000
0000
0000
0000
0000
ENDCHAR
STARTCHAR char92
ENCODING 92
SWIDTH 1600 0
DWIDTH 16 0
BBX 16 30 0 -5
BITMAP
0000
0000
0000
0000
0000
7000
3000
3800
1800
1C00
0C00
0E00
0600
0700
0300
0380
0180
01C0
00C0
00E0
0060
0070
0030
0038
0018
0000
0000
0000
0000
0000
ENDCHAR
STARTCHAR char93
ENCODING 93
SWIDTH 1600 0
DWIDTH 16 0
BBX 16 30 0 -5
BITMAP
0000
0000
0000
0000
0000
7E00
7E00
0600
0600
0600
0600
0600
0600
0600
0600
0600
0600
0600
0600
0600
0600
0600
0600
7E00
7E00
0000
0000
0000
0000
0000
ENDCHAR
STARTCHAR char94
ENCODING 94
SWIDTH 1600 0
DWIDTH 16 0
BBX 16 30 0 -5
BITMAP
0000
0000
0000
0000
0000
0300
0780
0FC0
0FC0
1860
3870
3030
7038
6018
4008
0000
0000
0000
0000
0000
0000
0000
0000
0000
0000
0000
0000
0000
0000
0000
ENDCHAR
STARTCHAR char95
ENCODING 95
SWIDTH 1600 0
DWIDTH 16 0
BBX 16 30 0 -5
BITMAP
0000
0000
0000
0000
0000
0000
0000
0000
0000
0000
0000
0000
0000
0000
0000
0000
0000
0000
0000
0000
0000
0000
0000
0000
0000
0000
0000
FFFF
FFFF
0000
ENDCHAR
STARTCHAR char96
ENCODING 96
SWIDTH 1600 0
DWIDTH 16 0
BBX 16 30 0 -5
BITMAP
0000
0000
0000
0000
0000
0040
00C0
0180
0380
03C0
03E0
03E0
01C0
0000
0000
0000
0000
0000
0000
0000
0000
0000
0000
0000
0000
0000
0000
0000
0000
0000
ENDCHAR
STARTCHAR char97
ENCODING 97
SWIDTH 1600 0
DWIDTH 16 0
BBX 16 30 0 -5
BITMAP
0000
0000
0000
0000
0000
0000
7FF8
7FF8
0000
0000
0000
0FE0
1FF0
3018
3018
0018
0078
07F8
3F98
7018
6018
6038
6078
3FD8
1F98
0000
0000
0000
0000
0000
ENDCHAR
STARTCHAR char98
ENCODING 98
SWIDTH 1600 0
DWIDTH 16 0
BBX 16 30 0 -5
BITMAP
0000
0000
0000
0000
0000
0000
0000
6000
6000
6000
6000
6000
63C0
6FF0
7830
7018
6018
6018
6018
6018
6018
7018
7830
6FF0
63C0
0000
0000
0000
0000
0000
ENDCHAR
STARTCHAR char99
ENCODING 99
SWIDTH 1600 0
DWIDTH 16 0
BBX 16 30 0 -5
BITMAP
0000
0000
0000
0000
0000
0000
0000
1860
0CC0
0780
0300
0000
0FE0
3FF0
3018
6018
6000
6000
6000
6000
6000
6018
3018
3FF0
0FE0
0000
0000
0000
0000
0000
ENDCHAR
STARTCHAR char100
ENCODING 100
SWIDTH 1600 0
DWIDTH 16 0
BBX 16 30 0 -5
BITMAP
0000
0000
0000
0000
0000
0000
0000
0018
0018
0018
0018
0018
0F18
3FD8
3078
6038
6018
6018
6018
6018
6018
6038
3078
3FD8
0F18
0000
0000
0000
0000
0000
ENDCHAR
STARTCHAR char101
ENCODING 101
SWIDTH 1600 0
DWIDTH 16 0
BBX 16 30 0 -5
BITMAP
0000
0000
0000
0000
0000
0000
0000
7FF8
7FF8
0000
0000
0000
0FC0
3FF0
3030
6018
6018
7FF8
7FF8
6000
6000
6018
3018
3FF0
0FE0
0000
0000
0000
0000
0000
ENDCHAR
STARTCHAR char102
ENCODING 102
SWIDTH 1600 0
DWIDTH 16 0
BBX 16 30 0 -5
BITMAP
0000
0000
0000
0000
0000
0000
0000
00F0
01F0
0300
0300
0300
0300
1FF0
1FF0
0300
0300
0300
0300
0300
0300
0300
0300
0300
0300
0000
0000
0000
0000
0000
ENDCHAR
STARTCHAR char103
ENCODING 103
SWIDTH 1600 0
DWIDTH 16 0
BBX 16 30 0 -5
BITMAP
0000
0000
0000
0000
0000
0000
0000
1860
0CC0
0780
0300
0000
0F18
3FD8
3078
6038
6018
6018
6018
6018
6018
6038
3078
3FD8
0F18
0018
0018
3030
3FF0
1FC0
ENDCHAR
STARTCHAR char104
ENCODING 104
SWIDTH 1600 0
DWIDTH 16 0
BBX 16 30 0 -5
BITMAP
0000
0000
0000
0000
0000
0000
0000
6000
6000
6000
6000
6000
63C0
6FF0
7C30
7018
6018
6018
6018
6018
6018
6018
6018
6018
6018
0000
0000
0000
0000
0000
ENDCHAR
STARTCHAR char105
ENCODING 105
SWIDTH 1600 0
DWIDTH 16 0
BBX 16 30 0 -5
BITMAP
0000
0000
0000
0000
0000
0000
0000
7FF8
7FF8
0000
0000
0000
0300
0300
0300
0300
0300
0300
0300
0300
0300
0300
0300
0300
0300
0000
0000
0000
0000
0000
ENDCHAR
STARTCHAR char106
ENCODING 106
SWIDTH 1600 0
DWIDTH 16 0
BBX 16 30 0 -5
BITMAP
0000
0000
0000
0000
0000
0000
0000
01C0
01C0
01C0
0000
0000
0000
00C0
00C0
00C0
00C0
00C0
00C0
00C0
00C0
00C0
00C0
00C0
00C0
00C0
00C0
00C0
0F80
0F00
ENDCHAR
STARTCHAR char107
ENCODING 107
SWIDTH 1600 0
DWIDTH 16 0
BBX 16 30 0 -5
BITMAP
0000
0000
0000
0000
0000
0000
0000
6000
6000
6000
6000
6000
60E0
61C0
6380
6700
6E00
7E00
7F00
7380
61C0
60E0
6070
6038
6018
0000
0380
0380
0300
0600
ENDCHAR
STARTCHAR char108
ENCODING 108
SWIDTH 1600 0
DWIDTH 16 0
BBX 16 30 0 -5
BITMAP
0000
0000
0000
0000
0000
0000
0300
0300
0300
0300
0300
0300
0300
0300
0300
0300
0300
0300
0300
0300
0300
0300
0300
0300
0300
0000
0380
0380
0300
0600
ENDCHAR
STARTCHAR char109
ENCODING 109
SWIDTH 1600 0
DWIDTH 16 0
BBX 16 30 0 -5
BITMAP
0000
0000
0000
0000
0000
0000
0000
0000
0000
0000
0000
6000
6E70
7EF8
6318
6318
6318
6318
6318
6318
6318
6318
6318
6318
6318
0000
0000
0000
0000
0000
ENDCHAR
STARTCHAR char110
ENCODING 110
SWIDTH 1600 0
DWIDTH 16 0
BBX 16 30 0 -5
BITMAP
0000
0000
0000
0000
0000
0000
0000
0000
0000
0000
0000
0000
67E0
6FF0
7838
7018
6018
6018
6018
6018
6018
6018
6018
6018
6018
0000
0380
0380
0300
0600
ENDCHAR
STARTCHAR char111
ENCODING 111
SWIDTH 1600 0
DWIDTH 16 0
BBX 16 30 0 -5
BITMAP
0000
0000
0000
0000
0000
0000
0000
0000
0000
0000
0000
0000
0FC0
3FF0
3030
6018
6018
6018
6018
6018
6018
6018
3030
3FF0
0FC0
0000
0000
0000
0000
0000
ENDCHAR
STARTCHAR char112
ENCODING 112
SWIDTH 1600 0
DWIDTH 16 0
BBX 16 30 0 -5
BITMAP
0000
0000
0000
0000
0000
0000
0000
0000
0000
0000
0000
6000
63C0
6FF0
7830
7018
6018
6018
6018
6018
6018
7018
7830
6FF0
63C0
6000
6000
6000
6000
6000
ENDCHAR
STARTCHAR char113
ENCODING 113
SWIDTH 1600 0
DWIDTH 16 0
BBX 16 30 0 -5
BITMAP
0000
0000
0000
0000
0000
0000
0000
0000
0000
0000
0000
0000
0F18
3FD8
3078
6038
6018
6018
6018
6018
6018
6038
3078
3FD8
0F18
0018
0018
0018
0018
0018
ENDCHAR
STARTCHAR char114
ENCODING 114
SWIDTH 1600 0
DWIDTH 16 0
BBX 16 30 0 -5
BITMAP
0000
0000
0000
0000
0000
0000
0000
0000
0000
0000
0000
0000
6380
6FE0
7C70
7030
6000
6000
6000
6000
6000
6000
6000
6000
6000
0000
0380
0380
0300
0600
ENDCHAR
STARTCHAR char115
ENCODING 115
SWIDTH 1600 0
DWIDTH 16 0
BBX 16 30 0 -5
BITMAP
0000
0000
0000
0000
0000
0000
0000
1860
0CC0
0780
0300
0000
0FE0
1FF0
3018
3018
3000
3FE0
1FF0
0018
0018
3018
3018
1FF0
0FE0
0000
0000
0000
0000
0000
ENDCHAR
STARTCHAR char116
ENCODING 116
SWIDTH 1600 0
DWIDTH 16 0
BBX 16 30 0 -5
BITMAP
0000
0000
0000
0000
0000
0000
0000
0300
0300
0300
0300
0300
1FF0
1FF0
0300
0300
0300
0300
0300
0300
0300
0300
0300
01F0
00F0
0000
0000
0000
0000
0000
ENDCHAR
STARTCHAR char117
ENCODING 117
SWIDTH 1600 0
DWIDTH 16 0
BBX 16 30 0 -5
BITMAP
0000
0000
0000
0000
0000
0000
0000
7FF8
7FF8
0000
0000
0000
6018
6018
6018
6018
6018
6018
6018
6018
6018
6038
30F8
3FD8
0F18
0000
0000
0000
0000
0000
ENDCHAR
STARTCHAR char118
ENCODING 118
SWIDTH 1600 0
DWIDTH 16 0
BBX 16 30 0 -5
BITMAP
0000
0000
0000
0000
0000
0000
0000
0000
0000
0000
0000
0000
6018
6018
7038
3030
3870
1860
1CE0
0CC0
0FC0
0780
0780
0300
0300
0000
0000
0000
0000
0000
ENDCHAR
STARTCHAR char119
ENCODING 119
SWIDTH 1600 0
DWIDTH 16 0
BBX 16 30 0 -5
BITMAP
0000
0000
0000
0000
0000
0000
0000
0000
0000
0000
0000
0000
6018
6018
6018
6018
6018
6018
6018
6318
6798
6CD8
7878
7038
6018
0000
0000
0000
0000
0000
ENDCHAR
STARTCHAR char120
ENCODING 120
SWIDTH 1600 0
DWIDTH 16 0
BBX 16 30 0 -5
BITMAP
0000
0000
0000
0000
0000
0000
0000
0000
0000
0000
0000
0000
4008
6018
7038
3870
1CE0
0FC0
0780
0FC0
1CE0
3870
7038
6018
4008
0000
0000
0000
0000
0000
ENDCHAR
STARTCHAR char121
ENCODING 121
SWIDTH 1600 0
DWIDTH 16 0
BBX 16 30 0 -5
BITMAP
0000
0000
0000
0000
0000
0000
0000
0000
0000
0000
0000
0000
6018
6018
6018
6018
6018
6018
6018
6018
6018
6038
30F8
3FD8
0F18
0018
0018
3030
3FF0
1FC0
ENDCHAR
STARTCHAR char122
ENCODING 122
SWIDTH 1600 0
DWIDTH 16 0
BBX 16 30 0 -5
BITMAP
0000
0000
0000
0000
0000
0000
0000
1860
0CC0
0780
0300
0000
7FF8
7FF8
0030
0060
00C0
0180
1FE0
3FC0
0C00
1800
3000
7FF8
7FF8
0000
0000
0000
0000
0000
ENDCHAR
STARTCHAR char123
ENCODING 123
SWIDTH 1600 0
DWIDTH 16 0
BBX 16 30 0 -5
BITMAP
0000
0000
0000
0000
0000
0038
0060
00C0
00C0
0060
0060
0060
0060
00C0
01C0
01C0
00C0
0060
0060
0060
0060
00C0
00C0
0060
0038
0000
0000
0000
0000
0000
ENDCHAR
STARTCHAR char124
ENCODING 124
SWIDTH 1600 0
DWIDTH 16 0
BBX 16 30 0 -5
BITMAP
0000
0000
0000
0000
0000
0300
0300
0300
0300
0300
0300
0300
0300
0300
0300
0300
0300
0300
0300
0300
0300
0300
0300
0300
0300
0000
0000
0000
0000
0000
ENDCHAR
STARTCHAR char125
ENCODING 125
SWIDTH 1600 0
DWIDTH 16 0
BBX 16 30 0 -5
BITMAP
0000
0000
0000
0000
0000
7000
1800
0C00
0C00
1800
1800
1800
1800
0C00
0E00
0E00
0C00
1800
1800
1800
1800
0C00
0C00
1800
7000
0000
0000
0000
0000
0000
ENDCHAR
STARTCHAR char126
ENCODING 126
SWIDTH 1600 0
DWIDTH 16 0
BBX 16 30 0 -5
BITMAP
0000
0000
0000
0000
0000
1C04
3E04
7F0C
E71C
C3F8
81F0
80E0
0000
0000
0000
0000
0000
0000
0000
0000
0000
0000
0000
0000
0000
0000
0000
0000
0000
0000
ENDCHAR
STARTCHAR char127
ENCODING 127
SWIDTH 1600 0
DWIDTH 16 0
BBX 16 30 0 -5
BITMAP
0000
0000
0000
0000
0000
FFF8
FFF8
FFF8
FFF8
FFF8
FFF8
FFF8
FFF8
FFF8
FFF8
FFF8
FFF8
FFF8
FFF8
FFF8
FFF8
FFF8
FFF8
FFF8
FFF8
0000
0000
0000
0000
0000
ENDCHAR
ENDFONT
