STARTFONT 2.1
FONT -MIT-S35GER KST-Medium-R-Normal--35-12-200-200-P-18-ISO8859-1
SIZE 12 200 200
FONTBOUNDINGBOX 29 35 0 -5
STARTPROPERTIES 17
ADD_STYLE_NAME ""
AVERAGE_WIDTH 18
CHARSET_ENCODING "1"
CHARSET_REGISTRY "ISO8859"
DEFAULT_CHAR 0
FAMILY "S35GER KST"
FONT_ASCENT 30
FONT_DESCENT 5
FOUNDRY "MIT"
PIXEL_SIZE 35
POINT_SIZE 12
RESOLUTION_X 200
RESOLUTION_Y 200
SETWIDTH_NAME "Normal"
SLANT "R"
SPACING "P"
WEIGHT_NAME "Medium"
ENDPROPERTIES
CHARS 53
STARTCHAR char32
ENCODING 32
SWIDTH 830 0
DWIDTH 10 0
BBX 1 35 0 -5
BITMAP
00
00
00
00
00
00
00
00
00
00
00
00
00
00
00
00
00
00
00
00
00
00
00
00
00
00
00
00
00
00
00
00
00
00
00
ENDCHAR
STARTCHAR char65
ENCODING 65
SWIDTH 1909 0
DWIDTH 23 0
BBX 20 35 0 -5
BITMAP
000000
000000
000000
000000
000000
000000
1F0070
3F81F0
63D9E0
E3EFC0
E1EF80
E1EF80
F1EF80
F1F780
F9F780
79E780
3DE780
3DE780
1DE780
1DC780
19C780
338780
030780
0E0F80
3E0F80
7F1F80
3FF7E0
0FC7C0
038380
000100
000000
000000
000000
000000
000000
ENDCHAR
STARTCHAR char66
ENCODING 66
SWIDTH 1992 0
DWIDTH 24 0
BBX 21 35 0 -5
BITMAP
000000
000000
000000
000000
000000
0F0780
3FCFC0
73FFE0
71F9F0
F1F1F0
F0F1F0
F8F1F0
F8F0F0
FCF878
7CFBF8
3CFFE0
3CFFE0
1CF3F0
39F1F0
79E0F8
61C0F8
038078
3F0078
3F0038
7F8030
7FC030
CFE060
03F8C0
01FF80
003C00
000000
000000
000000
000000
000000
ENDCHAR
STARTCHAR char67
ENCODING 67
SWIDTH 1743 0
DWIDTH 21 0
BBX 19 35 0 -5
BITMAP
000000
000000
000000
000000
000000
000000
078840
0FFEC0
1C7FC0
3C3F80
787F00
786000
F8E000
F0E000
F0F000
F0F800
F0F800
F07C00
F07C00
F03E00
F01E00
F01E00
781E00
781E00
781C00
3C7860
1C0080
0F0100
07FE00
007800
000000
000000
000000
000000
000000
ENDCHAR
STARTCHAR char68
ENCODING 68
SWIDTH 1992 0
DWIDTH 24 0
BBX 21 35 0 -5
BITMAP
000000
000000
000000
000000
000000
000000
07F800
1FFC00
1FFF00
3FFF80
7FFFC0
607FC0
E067E0
C0C1F0
C1C070
C1E038
61F038
31F018
00F008
007808
007008
007008
006008
0FC018
1FC010
3FE030
23FEE0
61FFC0
007F80
001800
000000
000000
000000
000000
000000
ENDCHAR
STARTCHAR char69
ENCODING 69
SWIDTH 1909 0
DWIDTH 23 0
BBX 20 35 0 -5
BITMAP
000000
000000
000000
000000
000000
03C400
07EE20
1E1FE0
1C1FC0
3C3F80
783300
786000
787000
F87000
F878E0
F879F0
F87FF0
F87E70
F83E60
F81E20
F80E00
780E00
780E00
380E00
3C3C20
1E3060
0E00C0
079F00
01FC00
000000
000000
000000
000000
000000
000000
ENDCHAR
STARTCHAR char70
ENCODING 70
SWIDTH 1826 0
DWIDTH 22 0
BBX 19 35 0 -5
BITMAP
000000
000000
000000
1F0000
3FC000
7FF0C0
FFF8C0
E7FFC0
C1FF80
C07F00
C03E00
403000
703000
1C7000
0071C0
0073E0
387FE0
7C78E0
9C7840
1E7C00
3C3E00
3C3E00
7C1F00
781F00
780F00
700F00
700F00
380E00
181C00
0FF800
01E000
000000
000000
000000
000000
ENDCHAR
STARTCHAR char71
ENCODING 71
SWIDTH 1992 0
DWIDTH 24 0
BBX 22 35 0 -5
BITMAP
000000
000000
000000
000000
000000
000000
03F818
0FF838
1E3C70
1C72F0
3C70F0
7870F8
78F0F0
F8F0F0
F8F8E0
F8F8E0
F07FF0
F07EF8
F03E7C
F03E7C
F01E7C
F01E7C
781E7C
789C78
387878
1C0070
1C00E0
0601C0
03FF00
003800
000000
000000
000000
000000
000000
ENDCHAR
STARTCHAR char72
ENCODING 72
SWIDTH 1992 0
DWIDTH 24 0
BBX 22 35 0 -5
BITMAP
000000
000000
000000
000000
000000
000000
000000
002000
007080
00F980
01FF80
03FF00
073E00
070780
0F0FE0
0F1FF0
0F3FF0
0FFFF8
0FC1F8
0FC078
0FC07C
07C038
27C038
F3E038
F9E038
F1C030
F1C030
718020
3F3FC0
007F80
007F00
006200
004000
006300
003F00
ENDCHAR
STARTCHAR char73
ENCODING 73
SWIDTH 1743 0
DWIDTH 21 0
BBX 19 35 0 -5
BITMAP
000000
000000
000000
000000
0F8000
3FC180
7FE180
7FF080
E3F880
C1FF80
C0FF80
C07F00
C01E00
C00F00
601F80
7E3C40
3E3C60
003C20
003E00
003F00
001F00
001F80
000F80
3007C0
7C07C0
FC03C0
9E01C0
9F0180
8F0180
878300
03FE00
01F800
000000
000000
000000
ENDCHAR
STARTCHAR char74
ENCODING 74
SWIDTH 1826 0
DWIDTH 22 0
BBX 19 35 0 -5
BITMAP
000000
000000
000000
000000
0F8000
3FC180
7FE080
7FF0C0
E3F8C0
E1FFC0
C07F80
C03F00
C00E00
C00F80
601EC0
3E1C40
1E1C20
003E20
003E00
001F00
001F80
000FC0
0007C0
3807C0
7E03C0
FE01C0
CF01C0
CF01C0
C78180
07C300
03FE00
00F800
000000
000000
000000
ENDCHAR
STARTCHAR char75
ENCODING 75
SWIDTH 1826 0
DWIDTH 22 0
BBX 19 35 0 -5
BITMAP
000000
000000
000000
000000
000000
00F800
07FE00
0F0300
1C3980
3CFCC0
3D9E60
7F1F60
7F0F20
7E0F20
7E0F20
7E07A0
7E07A0
3F7F00
3FFE00
1F3E00
1F3E00
0FBE00
0F9E00
E79E00
F39E00
E31E00
E31F80
660F00
3C0600
000000
000000
000000
000000
000000
000000
ENDCHAR
STARTCHAR char76
ENCODING 76
SWIDTH 1494 0
DWIDTH 18 0
BBX 15 35 0 -5
BITMAP
0000
0000
0000
0000
0000
0FC0
1FF0
3838
703C
F03C
F03C
F03C
F87C
F87C
FC78
7C78
7E78
3E78
1E3C
0E0C
0E00
0C00
3C00
7E02
FF06
FFFE
CFFC
87F8
01E0
0000
0000
0000
0000
0000
0000
ENDCHAR
STARTCHAR char77
ENCODING 77
SWIDTH 2573 0
DWIDTH 31 0
BBX 28 35 0 -5
BITMAP
00000000
00000000
00000000
00000000
00000000
0F070780
3FCF8FC0
73FBFBE0
61F1F1E0
E1F1F1E0
F1F1F1E0
F1F1F1E0
F9F1F1E0
FCF1F0E0
7CF1F070
7CF1F0F0
3EF1F1E0
1EF1F3C0
0EF1F3C0
0CF1E780
08E1E780
30E1E780
00E1C780
08C1C780
1FDD87C0
3FBF87F0
3F3F03F0
7F7E03C0
46440180
00000000
00000000
00000000
00000000
00000000
00000000
ENDCHAR
STARTCHAR char78
ENCODING 78
SWIDTH 2158 0
DWIDTH 26 0
BBX 23 35 0 -5
BITMAP
000000
000000
000000
000000
1F83E0
3FC7F0
71FC78
70FC78
F0FC78
F0F87C
F0F87C
F8F87C
FCF83C
7CF81C
7EF81E
3EF83C
1E78F0
0EF8F0
0CF9F0
0CF9E0
38F1E0
30F1E0
00E1E0
0CE1E0
1FE1F2
3FC1FE
3F81FC
6F00F8
430060
000000
000000
000000
000000
000000
000000
ENDCHAR
STARTCHAR char79
ENCODING 79
SWIDTH 2075 0
DWIDTH 25 0
BBX 23 35 0 -5
BITMAP
000000
000000
000000
000000
047E00
07FF80
07FFC0
07FFE0
0FFFF0
1803F8
380038
78001C
7C000C
7C000C
7E000E
3E0006
3F0006
9F0006
CF0006
C70004
6F0004
3E0004
080008
1F8008
3FF030
7FFFE0
67FFC0
C1FF80
407F00
000000
000000
000000
000000
000000
000000
ENDCHAR
STARTCHAR char80
ENCODING 80
SWIDTH 2075 0
DWIDTH 25 0
BBX 23 35 0 -5
BITMAP
000000
000000
000000
000000
0F03C0
3F87E0
7FFFF0
71F8F0
F1F8F8
F0F8F8
F8F878
F8F878
FCF87E
7CF9FC
7CFBC0
3EFBE0
1EFBF0
1CFBF8
1CF9F8
38F8FC
70F87C
00F81C
01F80C
07F80C
0FFC0C
1FFFFC
1FFFF8
38FFE0
30FFC0
007000
007000
007000
007000
002000
000000
ENDCHAR
STARTCHAR char81
ENCODING 81
SWIDTH 2490 0
DWIDTH 30 0
BBX 28 35 0 -5
BITMAP
00000000
00000000
00000000
00000000
087F0000
0FFF8000
0FFFE000
0FFFF000
1FFFF800
18FCFC00
38001C00
38000E00
7C000600
7C000700
7E000300
3E000300
1F000300
9F000300
87000300
87000300
46000200
3E000200
00000610
0F800630
3FE01FF0
7FFFFBE0
67FFF3E0
C0FFC3C0
403F0080
00000000
00000000
00000000
00000000
00000000
00000000
ENDCHAR
STARTCHAR char82
ENCODING 82
SWIDTH 2075 0
DWIDTH 25 0
BBX 23 35 0 -5
BITMAP
000000
000000
000000
000000
1F07C0
3FCFE0
61D8F0
E1F8F8
E1F878
F1F078
F0F078
F8F078
F8F038
FCF03C
7CF07E
7CFFF8
3CFFE0
38F1E0
30F1E0
E1F1E0
01F1E0
01F1E0
21F1E0
71E1E0
F1E1E0
F1C1FC
71C1F8
3F81F0
1E0060
000000
000000
000000
000000
000000
000000
ENDCHAR
STARTCHAR char83
ENCODING 83
SWIDTH 2075 0
DWIDTH 25 0
BBX 22 35 0 -5
BITMAP
000000
000000
000000
000000
000000
01F808
07FE08
0FFF98
1FFFF8
3FFFF8
301FF0
6007E0
600000
C3C000
C601C0
C407E0
CC3FF0
CFFFF8
C7FFFC
C7FE0C
C3F804
E04004
700004
78000C
3E0078
3FFFF8
1FFFF0
0FFFE0
03FF80
007C00
000000
000000
000000
000000
000000
ENDCHAR
STARTCHAR char84
ENCODING 84
SWIDTH 1909 0
DWIDTH 23 0
BBX 20 35 0 -5
BITMAP
000000
000000
000000
000000
07C000
1FF010
3FFC10
7FFE30
7FFFF0
60FFE0
C07FE0
C07FC0
C0E380
C1E000
41E000
61F000
39F000
01F800
00F800
007800
007000
0C6000
3FC000
3FC030
7FF060
47FFC0
C3FF80
C0FF00
003C00
000000
000000
000000
000000
000000
000000
ENDCHAR
STARTCHAR char85
ENCODING 85
SWIDTH 1826 0
DWIDTH 22 0
BBX 19 35 0 -5
BITMAP
000000
000000
000000
000000
180400
3C0E00
7C1F00
FE3FC0
FE3F80
3E1F00
1E1F00
3E1F00
3E1F00
3E1F00
3E0F00
3E0F00
3E0F00
3E0F00
3E0F00
3E0F00
3E0F00
3E0F00
3E0F00
3E1F00
3E3F20
7FCFE0
3F87C0
0F0700
060200
000000
000000
000000
000000
000000
000000
ENDCHAR
STARTCHAR char86
ENCODING 86
SWIDTH 2075 0
DWIDTH 25 0
BBX 22 35 0 -5
BITMAP
000000
000000
000000
000000
0F07C0
3FCFE0
61F9F0
61F9F0
E1F0F0
F1F0F0
F0F0F0
F8F070
F8F07C
FCF0FC
7CF1C0
3CF3C0
39F3C0
39E3E0
71E3F0
41C1F0
0300F8
3E00F8
7F0078
FF8038
FFC030
CFE070
87F060
81FFC0
007F80
000000
000000
000000
000000
000000
000000
ENDCHAR
STARTCHAR char87
ENCODING 87
SWIDTH 2656 0
DWIDTH 32 0
BBX 29 35 0 -5
BITMAP
00000000
00000000
00000000
00000000
00000000
1F0E0F80
7FDF3FC0
E3FFF3E0
E1F1E3E0
E1F183E0
E1F181E0
F1F181E0
F9F380E0
F9F380F8
F9F780F8
79F7C1C0
3DF3E3C0
39E3E3E0
19E1F3E0
71C0F1F0
4180E1F8
0100E0F8
3E004078
7E00C038
7F80E030
FFC1F030
8FFFFC20
87FFFFC0
01F87F80
00E03E00
00000000
00000000
00000000
00000000
00000000
ENDCHAR
STARTCHAR char88
ENCODING 88
SWIDTH 1577 0
DWIDTH 19 0
BBX 17 35 0 -5
BITMAP
000000
000000
000000
000000
1C0400
1E0F00
3F9F80
3FFF80
7FF780
7FF700
C7E300
03E000
03E000
03E000
03E200
0FE600
3FFE00
3FFE00
7FF800
73E000
63C000
03E000
03E000
03E100
E3E300
F7FF00
FCFE00
FCFC00
787C00
001000
000000
000000
000000
000000
000000
ENDCHAR
STARTCHAR char89
ENCODING 89
SWIDTH 1909 0
DWIDTH 23 0
BBX 20 35 0 -5
BITMAP
000000
000000
000000
000000
000000
1F8700
3FCF80
73FBC0
71F9C0
F1F9E0
F1F9E0
F0F9F0
F8F9F0
F8F9F0
7CF9F0
7EF1F0
3EF1F0
1EF1F0
1CF1F0
0CE1F0
19C1F0
2181F0
0301F0
0701E0
1F01E0
3F81E0
1FC1E0
03F1C0
19C380
1C8380
3C0700
1C0600
0E1800
07F000
000000
ENDCHAR
STARTCHAR char90
ENCODING 90
SWIDTH 1826 0
DWIDTH 22 0
BBX 19 35 0 -5
BITMAP
01F800
07FF00
0C0F00
300780
2007C0
0007C0
0407C0
0E07C0
1E07C0
1E07C0
1E0780
0E0F00
073E00
07FC00
07FE00
0FFF80
1FFFC0
180FC0
3003E0
0003E0
0001E0
F801E0
F801E0
7C01E0
3C01C0
3E03C0
1E0380
0F0E00
03FC00
000000
000000
000000
000000
000000
000000
ENDCHAR
STARTCHAR char97
ENCODING 97
SWIDTH 1162 0
DWIDTH 14 0
BBX 13 35 0 -5
BITMAP
0000
0000
0000
0000
0000
0000
0000
0000
0000
0000
0000
0000
0000
0600
0FC0
1FF0
3FF0
71E0
F1E0
F1E0
F1E0
F1E0
F1E0
F1E0
F1E0
71E0
7DF8
78F0
3060
0000
0000
0000
0000
0000
0000
ENDCHAR
STARTCHAR char98
ENCODING 98
SWIDTH 1245 0
DWIDTH 15 0
BBX 13 35 0 -5
BITMAP
0000
0000
0000
0000
0000
0000
0000
0000
0380
0700
CC00
FC00
7C00
7C00
7C20
7C70
3DF0
3FF0
3CF8
3CF8
3C78
3C78
3C78
3C78
3C78
3C78
3C78
7EF0
7FE0
3FC0
0700
0000
0000
0000
0000
ENDCHAR
STARTCHAR char99
ENCODING 99
SWIDTH 913 0
DWIDTH 11 0
BBX 9 35 0 -5
BITMAP
0000
0000
0000
0000
0000
0000
0000
0000
0000
0000
0000
0000
0000
0700
1F00
7F80
7F80
F300
F200
F000
F000
F000
F000
F000
F000
F800
7F80
7F00
3C00
0800
0000
0000
0000
0000
0000
ENDCHAR
STARTCHAR char100
ENCODING 100
SWIDTH 1079 0
DWIDTH 13 0
BBX 12 35 0 -5
BITMAP
0000
0000
0000
0000
0000
0000
0000
7000
E000
C000
E000
F000
FC00
FF00
7F80
1FC0
0FE0
39E0
79F0
78F0
78F0
78F0
78F0
78F0
78F0
78E0
FFC0
FF80
3E00
0400
0000
0000
0000
0000
0000
ENDCHAR
STARTCHAR char101
ENCODING 101
SWIDTH 996 0
DWIDTH 12 0
BBX 11 35 0 -5
BITMAP
0000
0000
0000
0000
0000
0000
0000
0000
0000
0000
0000
0000
0700
0F80
3F80
7F80
F7C0
F3E0
F380
FF00
FE00
F800
F800
F800
F840
7FC0
7F80
1E00
0E00
0000
0000
0000
0000
0000
0000
ENDCHAR
STARTCHAR char102
ENCODING 102
SWIDTH 830 0
DWIDTH 10 0
BBX 9 35 0 -5
BITMAP
0000
0000
0000
0000
0000
1C00
3F80
3F80
3F00
7E00
7000
7000
7E00
FF80
FF00
FE00
7C00
3C00
3C00
3C00
3C00
3C00
3C00
3C00
3C00
3C00
3C00
3800
1800
1800
1800
1800
0000
0000
0000
ENDCHAR
STARTCHAR char103
ENCODING 103
SWIDTH 1162 0
DWIDTH 14 0
BBX 12 35 0 -5
BITMAP
0000
0000
0000
0000
0000
0000
0000
0000
0000
0000
0000
0000
0000
0700
0FC0
1FF0
3FF0
7BF0
F1E0
F1E0
F1E0
F1E0
F1E0
F1E0
F1E0
F1E0
79E0
78E0
30F0
00F0
7070
70F0
78E0
3F80
0000
ENDCHAR
STARTCHAR char104
ENCODING 104
SWIDTH 1162 0
DWIDTH 14 0
BBX 12 35 0 -5
BITMAP
0000
0000
0000
0000
0000
0000
0300
0700
8E00
DC00
FC00
7800
7800
78E0
79E0
7FF0
7DF0
78F0
78F0
78F0
78F0
78F0
78F0
78F0
78F0
78F0
FEF0
7CE0
18E0
00E0
00C0
01C0
0180
0100
0000
ENDCHAR
STARTCHAR char105
ENCODING 105
SWIDTH 747 0
DWIDTH 9 0
BBX 8 35 0 -5
BITMAP
00
00
00
00
00
00
38
78
7C
78
38
30
00
30
78
FE
FE
FC
7C
7C
7C
7C
7C
7C
3C
3C
3F
3E
1C
08
00
00
00
00
00
ENDCHAR
STARTCHAR char106
ENCODING 106
SWIDTH 830 0
DWIDTH 10 0
BBX 8 35 0 -5
BITMAP
00
00
00
38
3C
7C
3C
18
00
00
18
3C
7E
FE
3C
3C
3C
3C
3C
3C
3C
3C
3C
3C
3C
3C
3E
3E
3B
E0
80
00
00
00
00
ENDCHAR
STARTCHAR char107
ENCODING 107
SWIDTH 913 0
DWIDTH 11 0
BBX 10 35 0 -5
BITMAP
0000
0000
0000
0000
0000
0000
0380
0780
CF80
7FC0
7FC0
3FC0
3E00
3F00
7F80
FF80
7F00
3C00
3C00
3C00
3C00
3C00
3C00
3C00
3C00
3C80
7F80
3E00
1C00
0000
0000
0000
0000
0000
0000
ENDCHAR
STARTCHAR char108
ENCODING 108
SWIDTH 913 0
DWIDTH 11 0
BBX 9 35 0 -5
BITMAP
0000
0000
0000
0000
0000
0000
0180
0700
CE00
FE00
7C00
7C00
3C00
3C00
3C00
3C00
3C00
3C00
3C00
3C00
3C00
3C00
3C00
3C00
3C00
3C00
7F80
7F00
1E00
0C00
0000
0000
0000
0000
0000
ENDCHAR
STARTCHAR char109
ENCODING 109
SWIDTH 2075 0
DWIDTH 25 0
BBX 22 35 0 -5
BITMAP
000000
000000
000000
000000
000000
000000
000000
000000
000000
000000
000000
000000
1060E0
38F1E0
79F3F8
FFFFF8
FE7CF0
3C78F0
3C78F0
3C78F0
3C78F0
3C78F0
3C78F0
3C7870
3C7870
3C787C
7EFC78
3C3870
181020
000000
000000
000000
000000
000000
000000
ENDCHAR
STARTCHAR char110
ENCODING 110
SWIDTH 1411 0
DWIDTH 17 0
BBX 14 35 0 -5
BITMAP
0000
0000
0000
0000
0000
0000
0000
0000
0000
0000
0000
0000
0000
1060
38F0
7FF8
FFF8
FCF8
3CF8
3CF8
3C78
3C78
3C78
3C78
3C78
3C78
3E7C
7E3C
1C38
0800
0000
0000
0000
0000
0000
ENDCHAR
STARTCHAR char111
ENCODING 111
SWIDTH 1162 0
DWIDTH 14 0
BBX 13 35 0 -5
BITMAP
0000
0000
0000
0000
0000
0000
0000
0000
0000
0000
0000
0000
0000
00E0
03E0
7FE0
7DF0
78F0
78F8
78F8
78F8
7878
7878
7878
7870
7C70
7FE0
FF80
1F00
0200
0000
0000
0000
0000
0000
ENDCHAR
STARTCHAR char112
ENCODING 112
SWIDTH 1162 0
DWIDTH 14 0
BBX 13 35 0 -5
BITMAP
0000
0000
0000
0000
0000
0000
0000
0000
0000
0000
4000
6000
E000
F0E0
F9F0
FFF0
7CF0
7CF8
7CF8
7CF8
7CF8
7CF8
7CF8
7CF0
FCF0
FFF0
FFE0
BF80
3F80
3C00
1800
1800
1800
1800
0000
ENDCHAR
STARTCHAR char113
ENCODING 113
SWIDTH 1079 0
DWIDTH 13 0
BBX 11 35 0 -5
BITMAP
0000
0000
0000
0000
0000
0000
0000
0000
0000
0000
0000
0000
0600
0F80
3FE0
7FE0
F7C0
F3C0
F3C0
F3C0
F3C0
F3C0
F3C0
F3C0
F3C0
FFC0
7FC0
79C0
31E0
01C0
01C0
01C0
0080
0000
0000
ENDCHAR
STARTCHAR char114
ENCODING 114
SWIDTH 996 0
DWIDTH 12 0
BBX 11 35 0 -5
BITMAP
0000
0000
0000
0000
0000
0000
0000
0000
0000
0000
0000
0000
0000
39C0
7BC0
FFC0
FFE0
3FC0
3C80
3C00
3C00
3C00
3C00
3C00
3C00
3C80
7F80
3F00
0C00
0000
0000
0000
0000
0000
0000
ENDCHAR
STARTCHAR char115
ENCODING 115
SWIDTH 830 0
DWIDTH 10 0
BBX 8 35 0 -5
BITMAP
00
00
00
00
00
00
1D
3F
3F
3F
3E
30
70
78
F8
F8
FC
7C
7C
7C
3C
38
38
38
38
38
38
38
38
38
38
18
10
00
00
ENDCHAR
STARTCHAR char116
ENCODING 116
SWIDTH 913 0
DWIDTH 11 0
BBX 9 35 0 -5
BITMAP
0000
0000
0000
0000
0000
0000
0000
0400
0C00
0C00
0C00
1C00
1C00
1C00
3F00
FF80
FF00
3E00
3E00
3C00
3C00
3C00
3C00
3C00
3C00
3C00
7F00
7E00
1C00
0800
0000
0000
0000
0000
0000
ENDCHAR
STARTCHAR char117
ENCODING 117
SWIDTH 1245 0
DWIDTH 15 0
BBX 13 35 0 -5
BITMAP
0000
0000
0000
0000
0000
0000
0000
0000
0000
0000
0000
0000
0000
1020
7870
F8F8
FDF8
F8F8
38F0
38F0
38F0
38F0
38F0
38F0
38F0
38F0
FFF8
7E78
3870
1000
0000
0000
0000
0000
0000
ENDCHAR
STARTCHAR char118
ENCODING 118
SWIDTH 1162 0
DWIDTH 14 0
BBX 12 35 0 -5
BITMAP
0000
0000
0000
0000
0000
0000
0000
0000
0000
0000
4000
C000
E000
E0E0
F1F0
FFF0
7FF0
7CF0
78F0
78F0
78F0
78F0
78F0
78F0
78F0
7CE0
FFE0
3F00
0E00
0000
0000
0000
0000
0000
0000
ENDCHAR
STARTCHAR char119
ENCODING 119
SWIDTH 1743 0
DWIDTH 21 0
BBX 19 35 0 -5
BITMAP
000000
000000
000000
000000
000000
000000
000000
000000
000000
000000
C00000
E00000
E00000
F0E1C0
F1E3C0
FFFFC0
7FFFE0
78F1E0
78F1E0
78F1E0
78F1E0
78F1E0
78F1E0
78F3C0
78F3C0
78FBC0
F8FF80
707E00
201C00
000000
000000
000000
000000
000000
000000
ENDCHAR
STARTCHAR char120
ENCODING 120
SWIDTH 1162 0
DWIDTH 14 0
BBX 13 35 0 -5
BITMAP
0000
0000
0000
0000
0000
0000
0000
0000
0000
0000
0000
0000
0000
1860
3CF0
7FF0
FFF8
3E70
3E60
3E00
3E00
1E00
1E00
1E00
1E00
3E00
7FE0
FFC0
E180
E000
E070
60F0
30E0
1FC0
0000
ENDCHAR
STARTCHAR char121
ENCODING 121
SWIDTH 1162 0
DWIDTH 14 0
BBX 12 35 0 -5
BITMAP
0000
0000
0000
0000
0000
0000
0000
0000
0000
0000
4000
E000
E000
E0C0
F1E0
FBE0
79E0
79F0
78F0
78F0
78F0
78F0
78F0
78F0
78F0
78E0
FCE0
7CE0
3CC0
00C0
00C0
0180
0180
0100
0000
ENDCHAR
STARTCHAR char122
ENCODING 122
SWIDTH 996 0
DWIDTH 12 0
BBX 10 35 0 -5
BITMAP
0000
0000
0000
0000
0000
0000
0000
0000
0000
0000
0000
0000
0C00
1E00
3F00
7F00
4F00
0E00
0E00
1C00
7CC0
FF80
4F80
1F80
33C0
63C0
63C0
C1C0
C1C0
C1C0
E3C0
6380
3F00
0E00
0000
ENDCHAR
ENDFONT
