STARTFONT 2.1
FONT -MIT-S38CYR KST-Medium-R-Normal--38-13-200-200-P-20-ISO8859-1
SIZE 13 200 200
FONTBOUNDINGBOX 34 38 -6 -8
STARTPROPERTIES 17
ADD_STYLE_NAME ""
AVERAGE_WIDTH 20
CHARSET_ENCODING "1"
CHARSET_REGISTRY "ISO8859"
DEFAULT_CHAR 0
FAMILY "S38CYR KST"
FONT_ASCENT 30
FONT_DESCENT 8
FOUNDRY "MIT"
PIXEL_SIZE 38
POINT_SIZE 13
RESOLUTION_X 200
RESOLUTION_Y 200
SETWIDTH_NAME "Normal"
SLANT "R"
SPACING "P"
WEIGHT_NAME "Medium"
ENDPROPERTIES
CHARS 97
STARTCHAR char1
ENCODING 1
SWIDTH 1900 0
DWIDTH 25 0
BBX 23 38 0 -8
BITMAP
03CF00
03CF00
01FE00
00FC00
000000
FF01FE
FF01FE
3C0078
3C0078
3C0078
3C0078
3C00F8
3C01F8
3C03F8
3C0778
3C0E78
3C0C78
3C3878
3C3078
3C6078
3CE078
3CC078
3D8078
3F0078
3E0078
3E0078
3C0078
3C0078
FF81FE
FF81FE
000000
000000
000000
000000
000000
000000
000000
000000
ENDCHAR
STARTCHAR char2
ENCODING 2
SWIDTH 1368 0
DWIDTH 18 0
BBX 15 38 0 -8
BITMAP
0000
0000
0000
0000
0000
0000
1EF0
1EF0
1EF0
1EF0
1FF0
0FE0
0380
FC7E
FC7E
FC7E
783C
783C
783C
787C
78FC
79BC
7B3C
7F3C
7E3C
7C3C
783C
783C
FC7E
FC7E
0000
0000
0000
0000
0000
0000
0000
0000
ENDCHAR
STARTCHAR char4
ENCODING 4
SWIDTH 1520 0
DWIDTH 20 0
BBX 18 38 0 -8
BITMAP
000000
000000
000000
000000
000000
000000
000000
000000
000000
000000
000000
000000
3FF000
7FF000
FFF000
FFF000
F7C000
F7C000
E7C000
07FC00
07FF00
07FF80
0787C0
0783C0
0783C0
0783C0
0787C0
0FFF80
1FFF80
1FFE00
000000
000000
000000
000000
000000
000000
000000
000000
ENDCHAR
STARTCHAR char5
ENCODING 5
SWIDTH 1596 0
DWIDTH 21 0
BBX 19 38 0 -8
BITMAP
000000
079E00
079E00
079E00
000000
FFFFC0
7FFFC0
3C03C0
3C01C0
3C00C0
3C0040
3C0000
3C0000
3C0200
3C0700
3C0700
3FFF00
3FFF00
3C0700
3C0700
3C0200
3C0000
3C0000
3C0000
3C0020
3C0060
3C00E0
3C01E0
7FFFE0
FFFFE0
000000
000000
000000
000000
000000
000000
000000
000000
ENDCHAR
STARTCHAR char6
ENCODING 6
SWIDTH 1292 0
DWIDTH 17 0
BBX 15 38 0 -8
BITMAP
0000
0000
0000
0000
0000
3CF0
3CF0
3CF0
3CF0
0000
0000
0000
0000
07C0
1FE0
3C70
7878
703C
703C
F03C
FFFE
F81C
F000
F000
F800
F800
7C0C
7E1E
3FFC
0FF0
0000
0000
0000
0000
0000
0000
0000
0000
ENDCHAR
STARTCHAR char14
ENCODING 14
SWIDTH 1900 0
DWIDTH 25 0
BBX 23 38 0 -8
BITMAP
000000
000000
000000
000000
000000
000000
FFFFFE
FFFFFE
FFFFFE
3C0078
3C0078
3C0078
3C0078
3C0078
3C0078
3C0078
3C0078
3C0078
3C0078
3C0078
3C0078
3C0078
3C0078
3C0078
3C0078
3C0078
3C0078
3C0078
FF01FE
FF01FE
000000
000000
000000
000000
000000
000000
000000
000000
ENDCHAR
STARTCHAR char15
ENCODING 15
SWIDTH 1292 0
DWIDTH 17 0
BBX 14 38 0 -8
BITMAP
0000
0000
0000
0000
0000
0000
0000
0000
0000
0000
0000
0000
0000
0000
FFFC
FFFC
F87C
7878
7878
7878
7878
7878
7878
7878
7878
7878
7878
7878
FCFC
FCFC
0000
0000
0000
0000
0000
0000
0000
0000
ENDCHAR
STARTCHAR char18
ENCODING 18
SWIDTH 1292 0
DWIDTH 17 0
BBX 15 38 0 -8
BITMAP
0000
0000
0000
0000
0000
0000
0000
0000
0000
0000
0000
0000
0000
FE00
FE00
FE00
7C00
7C00
7C00
7C00
7FF0
7FF8
787C
783C
781C
783E
783E
FFFC
FFF8
FFF0
0000
0000
0000
0000
0000
0000
0000
0000
ENDCHAR
STARTCHAR char19
ENCODING 19
SWIDTH 2280 0
DWIDTH 30 0
BBX 28 38 0 -8
BITMAP
00000000
00000000
00000000
00000000
FF000FF0
FF000FF0
FF000FF0
3C0003C0
3C0003C0
3C0003C0
3C0003C0
3C0003C0
3C0003C0
3C0003C0
3FFC03C0
3FFE03C0
3C0F83C0
3C07C3C0
3C03C3C0
3C01E3C0
3C01E3C0
3C01E3C0
3C01E3C0
3C01E3C0
3C01E3C0
3C03E3C0
3C03C3C0
3C0783C0
3FFF03C0
FFFC0FF0
FFF80FF0
00000000
00000000
00000000
00000000
00000000
00000000
00000000
ENDCHAR
STARTCHAR char20
ENCODING 20
SWIDTH 1748 0
DWIDTH 23 0
BBX 21 38 0 -8
BITMAP
000000
000000
000000
000000
000000
000000
000000
000000
000000
000000
000000
000000
FC01F8
FC01F8
FC01F8
7800F0
7800F0
7800F0
7800F0
7FC0F0
7FE0F0
783878
7838F0
781CF0
781CF0
7838F0
7870F0
787078
FFF1F8
FFF1F8
000000
000000
000000
000000
000000
000000
000000
000000
ENDCHAR
STARTCHAR char21
ENCODING 21
SWIDTH 1748 0
DWIDTH 23 0
BBX 21 38 0 -8
BITMAP
000000
000000
000000
000000
1FF800
7FFC00
7FFF00
FFFF00
FC0F80
F807C0
F003E0
F001F0
6001F0
0001F8
03E1F8
07F1F8
0FFFF8
1FFFF8
1FFEF8
187EF8
0001F8
0001F8
8001F8
C003F0
E003F0
F00FE0
F81FC0
FFFF80
FFFE00
7FFC00
000000
000000
000000
000000
000000
000000
000000
000000
ENDCHAR
STARTCHAR char22
ENCODING 22
SWIDTH 1292 0
DWIDTH 17 0
BBX 15 38 0 -8
BITMAP
0000
0000
0000
0000
0000
0000
0000
0000
0000
0000
0000
0000
0000
0F00
3FE0
7FF0
7C78
783C
303C
0FBE
3FFE
3FFE
1FFE
003E
003E
403C
F07C
FCF8
7FF8
1FC0
0000
0000
0000
0000
0000
0000
0000
0000
ENDCHAR
STARTCHAR char24
ENCODING 24
SWIDTH 1520 0
DWIDTH 20 0
BBX 17 38 0 -8
BITMAP
000000
000000
000000
000000
000000
000000
000000
000000
000000
000000
000000
000000
000000
040000
0C0000
1C0000
3C0000
7FFF80
FFFF80
FFFF80
7FFF80
3C0000
1C0000
0C0000
040000
000000
000000
000000
000000
000000
000000
000000
000000
000000
000000
000000
000000
000000
ENDCHAR
STARTCHAR char32
ENCODING 32
SWIDTH 1292 0
DWIDTH 17 0
BBX 1 38 0 -8
BITMAP
00
00
00
00
00
00
00
00
00
00
00
00
00
00
00
00
00
00
00
00
00
00
00
00
00
00
00
00
00
00
00
00
00
00
00
00
00
00
ENDCHAR
STARTCHAR char34
ENCODING 34
SWIDTH 1140 0
DWIDTH 15 0
BBX 13 38 0 -8
BITMAP
0000
0000
0000
0000
0000
0000
3060
78F0
F8F8
F8F8
F8F8
78F0
78F0
38E0
18C0
0880
0000
0000
0000
0000
0000
0000
0000
0000
0000
0000
0000
0000
0000
0000
0000
0000
0000
0000
0000
0000
0000
0000
ENDCHAR
STARTCHAR char35
ENCODING 35
SWIDTH 1444 0
DWIDTH 19 0
BBX 16 38 1 -8
BITMAP
0000
0000
0000
0000
0000
0000
0000
0000
0000
0000
0000
0C30
0C30
0C30
0C30
FFFF
FFFF
0C30
0C30
0C30
0C30
FFFF
FFFF
0C30
0C30
0C30
0C30
0000
0000
0000
0000
0000
0000
0000
0000
0000
0000
0000
ENDCHAR
STARTCHAR char36
ENCODING 36
SWIDTH 1824 0
DWIDTH 24 0
BBX 17 38 0 -8
BITMAP
000000
000000
000000
000000
01C000
01C000
01C000
01C000
0FF800
3DDE00
79CF00
F1C780
F1C780
F1C300
F1C000
F1C000
F9C000
79C000
3DC000
0FF800
01DE00
01CF00
01C780
01C780
61C780
F1C780
F1C780
79CF00
3DDE00
0FF800
01C000
01C000
01C000
01C000
000000
000000
000000
000000
ENDCHAR
STARTCHAR char37
ENCODING 37
SWIDTH 1368 0
DWIDTH 18 0
BBX 16 38 0 -8
BITMAP
0000
0000
0000
0000
0000
0000
0000
0000
0000
3FFE
7E1C
C638
C638
C670
7C70
3870
00E0
00E0
01C0
01C0
0380
0380
0380
071C
073E
0E63
0E63
0E63
1C3E
3FFC
7E00
0000
0000
0000
0000
0000
0000
0000
ENDCHAR
STARTCHAR char38
ENCODING 38
SWIDTH 1444 0
DWIDTH 19 0
BBX 16 38 0 -8
BITMAP
0000
0000
0000
0000
0000
0000
0000
0000
0000
0000
0000
0000
0000
0000
0000
F81F
FC3F
7E7E
1FF8
07E0
07E0
1FF8
7E7E
FC3F
F81F
0000
0000
0000
0000
0000
0000
0000
0000
0000
0000
0000
0000
0000
ENDCHAR
STARTCHAR char39
ENCODING 39
SWIDTH 684 0
DWIDTH 9 0
BBX 8 38 0 -8
BITMAP
00
00
00
00
00
00
3C
FE
FF
FF
E7
03
06
1C
38
30
10
00
00
00
00
00
00
00
00
00
00
00
00
00
00
00
00
00
00
00
00
00
ENDCHAR
STARTCHAR char40
ENCODING 40
SWIDTH 1444 0
DWIDTH 19 0
BBX 10 38 6 -8
BITMAP
0000
0000
0000
0000
0000
01C0
0380
0F00
1F00
1E00
3E00
3C00
3C00
7800
F800
F800
F800
F800
F800
F800
7800
3C00
3C00
3E00
1E00
1E00
0F00
0380
01C0
0000
0000
0000
0000
0000
0000
0000
0000
0000
ENDCHAR
STARTCHAR char41
ENCODING 41
SWIDTH 1444 0
DWIDTH 19 0
BBX 10 38 6 -8
BITMAP
0000
0000
0000
0000
0000
E000
7000
3C00
3E00
1E00
1F00
0F00
0F00
0780
07C0
07C0
07C0
07C0
07C0
07C0
0780
0F00
0F00
1F00
1E00
1E00
3C00
7000
E000
0000
0000
0000
0000
0000
0000
0000
0000
0000
ENDCHAR
STARTCHAR char43
ENCODING 43
SWIDTH 1368 0
DWIDTH 18 0
BBX 14 38 0 -8
BITMAP
0000
0000
0000
0000
0000
0000
0000
0000
0000
0000
0000
0780
0780
0780
0780
0780
FFFC
FFFC
FFFC
FFFC
0780
0780
0780
0780
0780
0000
0000
0000
0000
0000
0000
0000
0000
0000
0000
0000
0000
0000
ENDCHAR
STARTCHAR char44
ENCODING 44
SWIDTH 988 0
DWIDTH 13 0
BBX 8 38 2 -8
BITMAP
00
00
00
00
00
00
00
00
00
00
00
00
00
00
00
00
00
00
00
00
00
00
00
00
7C
FE
FE
FF
FF
7F
0F
0F
1E
1C
18
10
00
00
ENDCHAR
STARTCHAR char45
ENCODING 45
SWIDTH 1140 0
DWIDTH 15 0
BBX 12 38 0 -8
BITMAP
0000
0000
0000
0000
0000
0000
0000
0000
0000
0000
0000
0000
0000
0000
0000
0000
0000
FFF0
FFF0
FFF0
FFF0
0000
0000
0000
0000
0000
0000
0000
0000
0000
0000
0000
0000
0000
0000
0000
0000
0000
ENDCHAR
STARTCHAR char46
ENCODING 46
SWIDTH 912 0
DWIDTH 12 0
BBX 7 38 2 -8
BITMAP
00
00
00
00
00
00
00
00
00
00
00
00
00
00
00
00
00
00
00
00
00
00
00
00
7C
FE
FE
FE
FE
7C
00
00
00
00
00
00
00
00
ENDCHAR
STARTCHAR char47
ENCODING 47
SWIDTH 1216 0
DWIDTH 16 0
BBX 13 38 1 -8
BITMAP
0000
0000
0000
0000
0000
0000
0078
0070
00F0
00F0
00E0
01E0
01E0
01C0
03C0
03C0
0380
0780
0780
0700
0F00
0F00
0E00
1E00
1E00
1C00
3C00
3C00
3800
7800
7800
7000
F000
F000
E000
E000
0000
0000
ENDCHAR
STARTCHAR char48
ENCODING 48
SWIDTH 1976 0
DWIDTH 26 0
BBX 21 38 0 -8
BITMAP
000000
000000
000000
000000
000000
000000
007000
03FE00
0FFF80
1FFFC0
3F07E0
3E03E0
7C03F0
7C01F0
FC01F8
FC01F8
FC01F8
FC01F8
FC01F8
FC01F8
FC01F8
FC01F8
FC01F8
7C01F0
7C01F0
3E03E0
1F8FC0
0FFF80
07FF00
01F800
000000
000000
000000
000000
000000
000000
000000
000000
ENDCHAR
STARTCHAR char49
ENCODING 49
SWIDTH 1444 0
DWIDTH 19 0
BBX 15 38 0 -8
BITMAP
0000
0000
0000
0000
0000
00E0
01E0
01E0
07E0
7FE0
FFE0
FFE0
FFE0
07E0
07E0
07E0
07E0
07E0
07E0
07E0
07E0
07E0
07E0
07E0
07E0
07E0
0FF0
FFFE
FFFE
FFFE
0000
0000
0000
0000
0000
0000
0000
0000
ENDCHAR
STARTCHAR char50
ENCODING 50
SWIDTH 1900 0
DWIDTH 25 0
BBX 21 38 0 -8
BITMAP
000000
000000
000000
000000
000000
000000
00F800
07FF00
1FFFC0
3E1FE0
380FF0
7C07F8
7E03F8
7F03F8
7F03F8
7E03F0
3E07F0
0007E0
001FC0
007F80
01FE00
07F038
0FC038
1E0038
3CE038
7FFC78
7FFFF0
FFFFF0
F0FFE0
C01F80
000000
000000
000000
000000
000000
000000
000000
000000
ENDCHAR
STARTCHAR char51
ENCODING 51
SWIDTH 1672 0
DWIDTH 22 0
BBX 20 38 0 -8
BITMAP
000000
000000
000000
000000
000000
000000
03F800
0FFF00
1FFF80
3E3FC0
780FE0
7C07E0
FE07E0
7E07E0
7E07E0
380FC0
003F80
01FF00
01FF00
00FFC0
380FE0
7C07F0
FE07F0
FE07F0
FC07F0
F807F0
700FE0
3FFFC0
1FFF80
07FC00
000000
000000
000000
000000
000000
000000
000000
000000
ENDCHAR
STARTCHAR char52
ENCODING 52
SWIDTH 1900 0
DWIDTH 25 0
BBX 22 38 0 -8
BITMAP
000000
000000
000000
000000
000000
000000
000380
000780
000F80
001F80
003F80
007F80
00EF80
01CF80
038F80
070F80
0E0F80
1C0F80
380F80
700F80
FFFFFC
FFFFFC
FFFFFC
000F80
000F80
000F80
001F80
01FFF8
01FFF8
01FFF8
000000
000000
000000
000000
000000
000000
000000
000000
ENDCHAR
STARTCHAR char53
ENCODING 53
SWIDTH 1748 0
DWIDTH 23 0
BBX 19 38 0 -8
BITMAP
000000
000000
000000
000000
000000
000000
000000
7FFFE0
7FFFC0
7FFF80
7FFE00
700000
700000
700000
73F800
77FC00
7FFF00
7E7F80
781FC0
700FE0
0007E0
3807E0
7C07E0
FE07E0
FE07E0
FC0FE0
F81FC0
7FFF80
3FFF00
07F800
000000
000000
000000
000000
000000
000000
000000
000000
ENDCHAR
STARTCHAR char54
ENCODING 54
SWIDTH 1824 0
DWIDTH 24 0
BBX 20 38 0 -8
BITMAP
000000
000000
000000
000000
000000
000000
00FC00
03FF00
0FFFC0
1F83C0
3F07E0
3E0FE0
7E0FE0
7C0FE0
FC07C0
FC0000
FCF800
FDFF00
FFFFC0
FF0FE0
FC07E0
FC07F0
FC03F0
FC03F0
7C03F0
7C07E0
3E07C0
1FFFC0
0FFF00
03FC00
000000
000000
000000
000000
000000
000000
000000
000000
ENDCHAR
STARTCHAR char55
ENCODING 55
SWIDTH 1824 0
DWIDTH 24 0
BBX 20 38 0 -8
BITMAP
000000
000000
000000
000000
000000
000000
000000
E7FFF0
EFFFF0
FFFFF0
FFFFF0
F8FFF0
F003E0
E007C0
E00F80
E01F00
E03E00
003E00
007C00
00FC00
01F800
01F000
03F000
07F000
07E000
07E000
0FC000
0FC000
0FC000
0FC000
000000
000000
000000
000000
000000
000000
000000
000000
ENDCHAR
STARTCHAR char56
ENCODING 56
SWIDTH 1748 0
DWIDTH 23 0
BBX 19 38 0 -8
BITMAP
000000
000000
000000
000000
000000
000000
03F800
0FFF00
1FFF80
3E0FC0
7C07C0
7803E0
F803E0
F803E0
FC07C0
7F9F80
7FFF00
3FFE00
1FFE00
0FFF00
3F7FC0
7C1FE0
F807E0
F803E0
F801E0
F803C0
7C07C0
7FFF80
1FFF00
03F000
000000
000000
000000
000000
000000
000000
000000
000000
ENDCHAR
STARTCHAR char57
ENCODING 57
SWIDTH 1824 0
DWIDTH 24 0
BBX 20 38 0 -8
BITMAP
000000
000000
000000
000000
000000
000000
03F000
0FFC00
1FFE00
3F1F80
7E07C0
FC07C0
FC07E0
FC03E0
FC03F0
FC03F0
FC07F0
7FFFF0
7FFFF0
1FFBF0
03E3F0
3803F0
7C03F0
7E07E0
FE07E0
FE0FC0
7C1F80
3FFF00
1FFE00
07F000
000000
000000
000000
000000
000000
000000
000000
000000
ENDCHAR
STARTCHAR char58
ENCODING 58
SWIDTH 912 0
DWIDTH 12 0
BBX 7 38 2 -8
BITMAP
00
00
00
00
00
00
00
00
00
00
7C
FE
FE
FE
FE
7C
00
00
00
00
00
00
00
00
7C
FE
FE
FE
FE
7C
00
00
00
00
00
00
00
00
ENDCHAR
STARTCHAR char59
ENCODING 59
SWIDTH 988 0
DWIDTH 13 0
BBX 8 38 2 -8
BITMAP
00
00
00
00
00
00
00
00
00
00
7C
FE
FE
FE
FE
7C
00
00
00
00
00
00
00
00
7C
FE
FE
FF
FF
7F
0F
0F
1E
1C
18
10
00
00
ENDCHAR
STARTCHAR char61
ENCODING 61
SWIDTH 1444 0
DWIDTH 19 0
BBX 16 38 1 -8
BITMAP
0000
0000
0000
0000
0000
0000
0000
0000
0000
0000
0000
0000
0000
0000
0000
FFFF
FFFF
0000
0000
0000
0000
FFFF
FFFF
0000
0000
0000
0000
0000
0000
0000
0000
0000
0000
0000
0000
0000
0000
0000
ENDCHAR
STARTCHAR char65
ENCODING 65
SWIDTH 1900 0
DWIDTH 25 0
BBX 23 38 0 -8
BITMAP
000000
000000
000000
000000
001800
007800
007800
00FC00
03FC00
03FC00
01FE00
01FE00
01DE00
01CE00
018F00
038F00
030700
030780
070780
070380
0F0380
0FFFC0
0FFFC0
0E03C0
1C01E0
1C01E0
1C01F0
3C01F8
7C03FC
FE07FE
000000
000000
000000
000000
000000
000000
000000
000000
ENDCHAR
STARTCHAR char66
ENCODING 66
SWIDTH 1596 0
DWIDTH 21 0
BBX 19 38 0 -8
BITMAP
000000
000000
000000
000000
000000
FFFC00
FFFE00
FC0F00
3C0780
3C03C0
3C03C0
3C03C0
3C03C0
3C03C0
3C03C0
3C0780
3C0F00
3FFF00
3FFF80
3C03C0
3C01E0
3C01E0
3C01E0
3C01E0
3C01E0
3C01E0
3C01E0
3C03C0
FFFF80
FFFE00
000000
000000
000000
000000
000000
000000
000000
000000
ENDCHAR
STARTCHAR char67
ENCODING 67
SWIDTH 1672 0
DWIDTH 22 0
BBX 20 38 0 -8
BITMAP
000000
000000
000000
000000
007F80
01FFC0
07FFF0
0F83F0
1F01F0
1E00F0
1C0070
780000
780000
F80000
F80000
F80000
F80000
F00000
F00000
F00000
F00000
F80000
780030
7C0070
3C0070
3E00F0
1F00F0
0FFFF0
07FFE0
00FF00
000000
000000
000000
000000
000000
000000
000000
000000
ENDCHAR
STARTCHAR char68
ENCODING 68
SWIDTH 2052 0
DWIDTH 27 0
BBX 25 38 0 -8
BITMAP
00000000
00000000
00000000
00000000
00000000
0FFFFC00
0FFFFC00
0F80FC00
03C0F000
0380F000
0380F000
0380F000
0380F000
0380F000
0380F000
0380F000
0380F000
0380F000
0300F000
0300F000
0700F000
0700F000
0700F000
0600F000
0600F000
0E00F000
0C00F000
0C007800
1FFFFF00
FFFFFF00
FC001F80
F0000780
E0000380
C0000180
00000000
00000000
00000000
00000000
ENDCHAR
STARTCHAR char69
ENCODING 69
SWIDTH 1596 0
DWIDTH 21 0
BBX 19 38 0 -8
BITMAP
000000
000000
000000
000000
000000
000000
FFFF80
FFFFC0
7E0FC0
3E03E0
3E00E0
3C0040
3C0000
3C0200
3C0700
3E0700
3FFF00
3FFF00
3E1F00
3E0700
3C0200
3C0000
3C0000
3C0000
3C0000
3C0060
3C00E0
3E01E0
7FFFE0
FFFFC0
000000
000000
000000
000000
000000
000000
000000
000000
ENDCHAR
STARTCHAR char70
ENCODING 70
SWIDTH 1976 0
DWIDTH 26 0
BBX 24 38 0 -8
BITMAP
000000
000000
000000
000000
000000
01FE00
01FF00
01FE00
00FC00
03FF00
0FFFE0
1FF9F8
3E387C
7C383E
78381E
F0381E
F0381E
F0381F
F0381F
F0381E
F0381E
F8381E
78383C
3E38F8
1FFFF0
0FFFC0
007C00
007E00
00FF00
000400
000000
000000
000000
000000
000000
000000
000000
000000
ENDCHAR
STARTCHAR char71
ENCODING 71
SWIDTH 1444 0
DWIDTH 19 0
BBX 17 38 0 -8
BITMAP
000000
000000
000000
000000
000700
7FFF00
FFFF80
FE0780
7C0780
3C0380
3C0180
3C0000
3C0000
3C0000
3C0000
3C0000
3C0000
3C0000
3C0000
3C0000
3C0000
3C0000
3C0000
3C0000
3C0000
3C0000
3E0000
3E0000
7F8000
FF8000
000000
000000
000000
000000
000000
000000
000000
000000
ENDCHAR
STARTCHAR char72
ENCODING 72
SWIDTH 1976 0
DWIDTH 26 0
BBX 24 38 0 -8
BITMAP
000000
000000
000000
000000
000000
7F01FE
FF00FE
7E00FC
3E0078
3E0078
3C0078
3C0078
3C0078
3C0078
3C0078
3FFFF8
3FFFF8
3FFC78
3E0078
3C0078
3C0078
3C0078
3C0078
3C0078
3C007C
3E007C
3E007C
3E007C
7E00FE
FF81FF
000000
000000
000000
000000
000000
000000
000000
000000
ENDCHAR
STARTCHAR char73
ENCODING 73
SWIDTH 1976 0
DWIDTH 26 0
BBX 23 38 0 -8
BITMAP
000000
000000
000000
000000
000000
00007E
FF03FE
FF01FC
FE00F8
3C0078
3C0078
3C00F8
3C00F8
3C01F8
3C0378
3C0778
3C0E78
3C1C78
3C3878
3C3878
3C6078
3CC078
3D8078
3F8078
3E0078
3E0078
3E0078
3E007C
3F01FE
FF81FE
000000
000000
000000
000000
000000
000000
000000
000000
ENDCHAR
STARTCHAR char74
ENCODING 74
SWIDTH 2660 0
DWIDTH 35 0
BBX 32 38 0 -8
BITMAP
00000000
00000000
00000000
00000000
00000000
00000000
FF0FF1FE
FF1FF1FF
FF1FE1FE
3E0FC0FC
3E07C0F0
1E07C0E0
0707C1C0
0387C380
03C7C300
01E7C700
00E7CE00
00F7DE00
01FFFF00
01FFFF00
01EFEF00
01C7C780
03C3C780
0383C3C0
078383C0
070381E0
0E0780E0
0E07C070
1C07C078
381FE03C
780FE03C
F000001E
E000000F
E0000007
00000000
00000000
00000000
00000000
ENDCHAR
STARTCHAR char75
ENCODING 75
SWIDTH 1900 0
DWIDTH 25 0
BBX 23 38 0 -8
BITMAP
000000
000000
000000
000000
000000
7F87F8
FF87FC
FF8FF8
3F07E0
3E07C0
3E0780
3E0F00
3E1E00
3E3C00
3E3800
3E7800
3E7800
3EF800
3FF800
3F7C00
3E7C00
3E1E00
3E1F00
3E0F00
3E0F80
3E0780
1E03C0
3E01E0
7F80E0
FF8078
00003C
00001E
00001E
00000C
000000
000000
000000
000000
ENDCHAR
STARTCHAR char76
ENCODING 76
SWIDTH 1900 0
DWIDTH 25 0
BBX 23 38 0 -8
BITMAP
000000
000000
000000
000000
000000
0003FC
07FFFC
0FF1F8
07E0F8
01E078
01E070
01C070
01C078
01C078
01C078
01C078
01C078
01C078
01C078
01C078
01C078
01C078
01C078
018078
7B8078
FB8078
FB8078
FB007C
FF00FC
FE01FE
7C0000
380000
000000
000000
000000
000000
000000
000000
ENDCHAR
STARTCHAR char77
ENCODING 77
SWIDTH 2204 0
DWIDTH 29 0
BBX 27 38 0 -8
BITMAP
00000000
00000000
00000000
00000000
0F803F00
1FC03F00
0FC07E00
07C07C00
07E07C00
07E07C00
07E0FC00
07E0FC00
0EF0FE00
0EF0DE00
0EF1DE00
0EF9DE00
0E799E00
0C7B9E00
1C7F9F00
1C3F0F00
1C3E0F00
1C3E0F00
183E0F00
181E0F00
381E0F00
381C0F00
38080F80
78000F80
FE003FE0
FC001FC0
00000000
00000000
00000000
00000000
00000000
00000000
00000000
00000000
ENDCHAR
STARTCHAR char78
ENCODING 78
SWIDTH 1748 0
DWIDTH 23 0
BBX 21 38 0 -8
BITMAP
000000
000000
000000
000000
000000
FF07F8
FF07F8
FF07F8
7E03E0
7C03E0
7C01E0
7C01E0
7C01E0
7C01E0
7C01E0
7C03E0
7C03E0
7C03E0
3C03E0
3FFFE0
1FFFE0
0FC3E0
0003E0
0003E0
0003E0
0003E0
0003E0
0003E0
000FF0
000FF0
000000
000000
000000
000000
000000
000000
000000
000000
ENDCHAR
STARTCHAR char79
ENCODING 79
SWIDTH 1900 0
DWIDTH 25 0
BBX 23 38 0 -8
BITMAP
000000
000000
000000
000000
000000
00FE00
03FF00
07DFC0
0F01E0
1C00F0
3C0078
780078
70007C
70003C
F0003C
F0003C
F0003E
F0003E
F0003E
F0003E
F0001E
F0003E
F8003C
F8003C
78007C
3C0078
1E00F0
1F03E0
07FFC0
01FF00
000000
000000
000000
000000
000000
000000
000000
000000
ENDCHAR
STARTCHAR char80
ENCODING 80
SWIDTH 1672 0
DWIDTH 22 0
BBX 20 38 0 -8
BITMAP
000000
000000
000000
000000
7FFC00
FFFF00
FFFF00
7E07C0
7E03E0
3C03E0
3C01F0
3C01F0
3C01F0
3C01F0
3C01F0
3C01F0
3C01E0
3C03C0
3FFFC0
3FFF80
3FFE00
7E0000
7E0000
7E0000
7E0000
7E0000
7E0000
FF0000
FF8000
7F8000
000000
000000
000000
000000
000000
000000
000000
000000
ENDCHAR
STARTCHAR char81
ENCODING 81
SWIDTH 2812 0
DWIDTH 37 0
BBX 34 38 0 -8
BITMAP
0000000000
0000000000
0000000000
0000000000
7F8FF3FC00
FF9FF3FE00
FF1FF3FE00
7E07C1FE00
3E07C0F800
3E07C0F800
3E07C0F800
3E07C0F800
3E07C0F800
3E07C0F800
3E07C0F800
3E07C0F800
3E0780F800
3E0780F800
3E0780F800
3E0780F800
3E0780F800
3E0780F800
3E0780F800
3C0780F800
3C0780F800
3C0780F800
3C0780F800
7FFFFFFC00
FFFFFFFF00
FFFFFFFF80
0000001F80
0000000780
0000000780
00000007C0
00000003C0
0000000180
0000000000
0000000000
ENDCHAR
STARTCHAR char82
ENCODING 82
SWIDTH 1748 0
DWIDTH 23 0
BBX 21 38 0 -8
BITMAP
000000
000000
000000
000000
000000
03FFF8
07FFF8
0F8FF0
1F01E0
3E01E0
3C01C0
7C01E0
7801E0
7801E0
3801E0
3C01E0
3C03E0
1F03E0
0FFFE0
03FFE0
03E3E0
03C3E0
07C3C0
0783E0
0703E0
0F03E0
1E03E0
3E0FE0
3C0FF8
780FF0
F00000
E00000
E00000
000000
000000
000000
000000
000000
ENDCHAR
STARTCHAR char83
ENCODING 83
SWIDTH 2128 0
DWIDTH 28 0
BBX 25 38 0 -8
BITMAP
00000000
00000000
00000000
00000000
7F81F800
FFC3FE00
FF83FE00
7F01FC00
3E00F800
3E00F800
3E00F800
3E00F800
3E00F800
3E00F800
3E00F800
3E00F800
3E00F800
3E00F800
3E00F800
3E00F800
3E00F800
3E00F800
3E00F800
3E00F800
3E00F800
3E00F800
3E00F800
FFFFFE00
FFFFFF00
F9FFFF80
00001F80
00000F80
00000780
00000780
00000780
00000380
00000000
00000000
ENDCHAR
STARTCHAR char84
ENCODING 84
SWIDTH 1596 0
DWIDTH 21 0
BBX 19 38 0 -8
BITMAP
000000
000000
000000
000000
000000
000000
7F87E0
FFFFE0
FDF3E0
F1F1E0
E1F0E0
C1F060
01F000
01F000
01F000
01F000
01F000
01F000
01F000
01F000
01F000
01F000
01F000
01F000
01F000
01F000
01F000
01F000
07F800
07FC00
000000
000000
000000
000000
000000
000000
000000
000000
ENDCHAR
STARTCHAR char85
ENCODING 85
SWIDTH 2660 0
DWIDTH 35 0
BBX 32 38 0 -8
BITMAP
00000000
00000000
00000000
00000000
00000000
7F003F80
FF00FFC0
FF03FFF0
3E07C1F8
3E0F0078
3E0F007C
3E1E003C
3C1C003E
3C3C001E
3C3C001F
3C78000F
3FF8000F
3CF8000F
3C78000F
3C78000F
3C78000F
3C38001F
3C38001E
3C3C001E
3C1C001E
3C1E003C
3C0E0078
3C0781F0
FF03FFE0
7E01FFC0
00007E00
00000000
00000000
00000000
00000000
00000000
00000000
00000000
ENDCHAR
STARTCHAR char86
ENCODING 86
SWIDTH 1596 0
DWIDTH 21 0
BBX 19 38 0 -8
BITMAP
000000
000000
000000
000000
000000
007C00
FFFF00
FFFF00
FC1F80
7C0780
7C0380
7C0000
7C0000
7C0000
7C0000
7FF800
7FFE00
781F00
780780
7807C0
7803C0
7803E0
7803E0
7801E0
7803E0
7803E0
7803C0
7C0FC0
7FFF00
FFFE00
000000
000000
000000
000000
000000
000000
000000
000000
ENDCHAR
STARTCHAR char87
ENCODING 87
SWIDTH 2584 0
DWIDTH 34 0
BBX 31 38 0 -8
BITMAP
00000000
00000000
00000000
00000000
00000000
00000000
7F9FE3FE
FF9FF3FE
7F0FE1FE
3E07C0FC
3E0780F8
3E0780F8
3E0780F8
3E0780F8
3E0780F8
3E0780F8
3E0780F8
3E0780F8
3E0780F8
3C0780F8
3C0780F8
3C0780F8
3E0780F0
3E0780F0
3E0780F8
3E0780F8
3E0780F8
3E0F80F8
FFFFFFFC
FFFFFFFC
00000000
00000000
00000000
00000000
00000000
00000000
00000000
00000000
ENDCHAR
STARTCHAR char88
ENCODING 88
SWIDTH 1824 0
DWIDTH 24 0
BBX 22 38 0 -8
BITMAP
000000
000000
000000
000000
000000
7F87F8
FF87F8
7F87F8
7F83C0
1F83C0
0F8780
07C700
07CE00
03EE00
01FC00
01FC00
00FC00
00FC00
00FC00
00FE00
01FE00
019F00
038F80
078F80
0F07C0
0F07C0
1E03E0
7E03F8
FF07FC
FF07F8
000000
000000
000000
000000
000000
000000
000000
000000
ENDCHAR
STARTCHAR char89
ENCODING 89
SWIDTH 1976 0
DWIDTH 26 0
BBX 24 38 0 -8
BITMAP
000000
000000
000000
000000
FF80FE
FF80FE
FF80FF
FF007E
3F0078
1F8078
1F80F0
0FC0F0
0FC0E0
07E1E0
07E1E0
03E3C0
03F3C0
01F3C0
01FF80
00FF00
00FF00
1E7E00
3E3E00
3E3E00
3E3C00
3E3C00
3E3800
3EF800
1FF000
07C000
000000
000000
000000
000000
000000
000000
000000
000000
ENDCHAR
STARTCHAR char90
ENCODING 90
SWIDTH 1520 0
DWIDTH 20 0
BBX 18 38 0 -8
BITMAP
000000
000000
000000
000000
07E000
1FF800
7C3C00
F81E00
F00F00
F00F00
600F00
400F00
000F00
000F00
003E00
07F800
0FF800
0E3E00
001F00
000F80
000780
0007C0
0007C0
C00780
E00780
E00F80
F01F00
FFFF00
7FFE00
3FF000
000000
000000
000000
000000
000000
000000
000000
000000
ENDCHAR
STARTCHAR char91
ENCODING 91
SWIDTH 1140 0
DWIDTH 15 0
BBX 9 38 0 -8
BITMAP
0000
0000
0000
0000
0000
0000
FF80
FF80
FF80
FC00
F800
F800
F800
F800
F800
F800
F800
F800
F800
F800
F800
F800
F800
F800
F800
F800
F800
F800
F800
F800
F800
FC00
FF80
FF80
FF80
FF80
0000
0000
ENDCHAR
STARTCHAR char92
ENCODING 92
SWIDTH 1216 0
DWIDTH 16 0
BBX 13 38 1 -8
BITMAP
0000
0000
0000
0000
0000
0000
F000
7000
7800
7800
3800
3C00
3C00
1C00
1E00
1E00
0E00
0F00
0F00
0700
0780
0780
0380
03C0
03C0
01C0
01E0
01E0
00E0
00F0
00F0
0070
0078
0078
0038
0038
0000
0000
ENDCHAR
STARTCHAR char93
ENCODING 93
SWIDTH 1140 0
DWIDTH 15 0
BBX 9 38 0 -8
BITMAP
0000
0000
0000
0000
0000
0000
FF80
FF80
FF80
1F80
0F80
0F80
0F80
0F80
0F80
0F80
0F80
0F80
0F80
0F80
0F80
0F80
0F80
0F80
0F80
0F80
0F80
0F80
0F80
0F80
0F80
1F80
FF80
FF80
FF80
FF80
0000
0000
ENDCHAR
STARTCHAR char96
ENCODING 96
SWIDTH 684 0
DWIDTH 9 0
BBX 8 38 0 -8
BITMAP
00
00
00
00
00
00
3C
7F
FF
FF
E7
C0
60
38
1C
0C
08
00
00
00
00
00
00
00
00
00
00
00
00
00
00
00
00
00
00
00
00
00
ENDCHAR
STARTCHAR char97
ENCODING 97
SWIDTH 1140 0
DWIDTH 15 0
BBX 14 38 0 -8
BITMAP
0000
0000
0000
0000
0000
0000
0000
0000
0000
0000
0000
0000
0000
0FC0
1FE0
3CF0
78F0
7870
7070
3070
01F0
07F0
1C70
7870
E070
E070
E078
E0F8
FFFC
7F7C
0000
0000
0000
0000
0000
0000
0000
0000
ENDCHAR
STARTCHAR char98
ENCODING 98
SWIDTH 1292 0
DWIDTH 17 0
BBX 15 38 0 -8
BITMAP
0000
0000
0000
0000
0000
0000
0000
0000
0000
0000
0000
0000
0000
FFE0
FFF8
FFF8
783C
783C
783C
783C
7878
7FF0
787C
781C
381E
381E
381E
383E
FFF8
FFF0
0000
0000
0000
0000
0000
0000
0000
0000
ENDCHAR
STARTCHAR char99
ENCODING 99
SWIDTH 1140 0
DWIDTH 15 0
BBX 14 38 0 -8
BITMAP
0000
0000
0000
0000
0000
0000
0000
0000
0000
0000
0000
0000
0780
0FF0
3FF0
3EFC
7C7C
787C
F87C
F838
F800
F800
F800
F800
F800
FC00
7C7C
3FFC
3FFC
0FF0
0000
0000
0000
0000
0000
0000
0000
0000
ENDCHAR
STARTCHAR char100
ENCODING 100
SWIDTH 1520 0
DWIDTH 20 0
BBX 18 38 0 -8
BITMAP
000000
000000
000000
000000
000000
000000
000000
000000
000000
000000
000000
000000
000000
1FFF00
1FFF00
1FFF00
1F3E00
0F1E00
071E00
071E00
0F1E00
0F1E00
0E1E00
0E1E00
0E1E00
0E1E00
0C1E00
1C1E00
3FFF80
7FFF80
FC0F80
F007C0
E003C0
E003C0
C00180
000000
000000
000000
ENDCHAR
STARTCHAR char101
ENCODING 101
SWIDTH 1140 0
DWIDTH 15 0
BBX 14 38 0 -8
BITMAP
0000
0000
0000
0000
0000
0000
0000
0000
0000
0000
0000
0000
0000
0780
1FE0
3FF0
3870
7078
F078
F03C
FFFC
FFFC
F000
F000
F800
F804
781C
3E3C
1FF8
0FF0
0000
0000
0000
0000
0000
0000
0000
0000
ENDCHAR
STARTCHAR char102
ENCODING 102
SWIDTH 1748 0
DWIDTH 23 0
BBX 21 38 0 -8
BITMAP
000000
000000
000000
000000
000000
000000
007000
00F000
03F000
03F000
01F000
00F000
00F000
0FF000
1FFFC0
3FFFC0
78F0E0
70F0F0
F070F0
F07070
E07078
F07078
F07078
F07078
F07070
F07070
F07070
7870E0
3FFFE0
1FFF80
04F800
00F800
00F800
00F800
00F800
01F800
01FC00
000000
ENDCHAR
STARTCHAR char103
ENCODING 103
SWIDTH 1064 0
DWIDTH 14 0
BBX 13 38 0 -8
BITMAP
0000
0000
0000
0000
0000
0000
0000
0000
0000
0000
0000
0000
FFF0
FFF0
FFF8
7C78
7C78
7C78
7C30
7C00
7C00
7C00
7C00
7C00
7C00
7C00
7C00
7C00
FE00
7C00
0000
0000
0000
0000
0000
0000
0000
0000
ENDCHAR
STARTCHAR char104
ENCODING 104
SWIDTH 1368 0
DWIDTH 18 0
BBX 16 38 0 -8
BITMAP
0000
0000
0000
0000
0000
0000
0000
0000
0000
0000
0000
0000
0000
FC7F
FF7F
FE3F
7C3E
3C1E
3C1E
3C1E
3C1E
3FFE
3C1E
3C1E
3C1E
3C1E
3C1E
3C1E
3C1E
FE7F
7E3F
0000
0000
0000
0000
0000
0000
0000
ENDCHAR
STARTCHAR char105
ENCODING 105
SWIDTH 1368 0
DWIDTH 18 0
BBX 16 38 0 -8
BITMAP
0000
0000
0000
0000
0000
0000
0000
0000
0000
0000
0000
0000
0000
FC7F
FE7F
FE7F
7C3E
7C3E
783E
383E
387E
38DE
3D9E
3F9E
3F1E
3C1E
3C1E
7C1E
7C3F
FE7F
0000
0000
0000
0000
0000
0000
0000
0000
ENDCHAR
STARTCHAR char106
ENCODING 106
SWIDTH 2052 0
DWIDTH 27 0
BBX 25 38 0 -8
BITMAP
00000000
00000000
00000000
00000000
00000000
00000000
00000000
00000000
00000000
00000000
00000000
00000000
00000000
FE7F3F80
FE7F3F80
FE7F3F80
3E1E1E00
1E1E1C00
0F1E3800
071E7000
039EE000
03FFE000
07FFF000
0F3EF000
0F3E7800
1E3C7C00
3C3C3C00
7C3E3F00
FE7F3F80
FE7F3F80
00000000
00000000
00000000
00000000
00000000
00000000
00000000
00000000
ENDCHAR
STARTCHAR char107
ENCODING 107
SWIDTH 1444 0
DWIDTH 19 0
BBX 17 38 0 -8
BITMAP
000000
000000
000000
000000
000000
000000
000000
000000
000000
000000
000000
000000
000000
FC3F00
FF7F00
FE7F00
7C7800
7C7800
7CF000
7DE000
7DC000
7FE000
7FE000
7CF000
7C7800
7C7C00
7C3C00
7C3C00
FE7F00
FE7F80
000000
000000
000000
000000
000000
000000
000000
000000
ENDCHAR
STARTCHAR char108
ENCODING 108
SWIDTH 1444 0
DWIDTH 19 0
BBX 17 38 0 -8
BITMAP
000000
000000
000000
000000
000000
000000
000000
000000
000000
000000
000000
000000
040000
0FFF00
1FFF00
0F9F00
079E00
079E00
079E00
079E00
079E00
071E00
071E00
071F00
671F00
F71F00
FF1F00
FE1F00
FE1F80
FC3F80
7C3F00
000000
000000
000000
000000
000000
000000
000000
ENDCHAR
STARTCHAR char109
ENCODING 109
SWIDTH 1596 0
DWIDTH 21 0
BBX 19 38 0 -8
BITMAP
000000
000000
000000
000000
000000
000000
000000
000000
000000
000000
000000
000000
000000
7C03C0
FC07E0
7E07C0
7E0FC0
7E0FC0
7F0F80
7F1F80
7F1F80
7F9B80
739B80
73B380
73F380
73F380
71E7C0
71E7C0
79E7C0
78CFE0
000000
000000
000000
000000
000000
000000
000000
000000
ENDCHAR
STARTCHAR char110
ENCODING 110
SWIDTH 1292 0
DWIDTH 17 0
BBX 15 38 0 -8
BITMAP
0000
0000
0000
0000
0000
0000
0000
0000
0000
0000
0000
0000
0000
FEFC
FEFE
FCFC
7C7C
7878
7878
7878
7878
7878
7FF8
3FF8
1078
0078
0078
00FC
01FC
00FC
0000
0000
0000
0000
0000
0000
0000
0000
ENDCHAR
STARTCHAR char111
ENCODING 111
SWIDTH 1368 0
DWIDTH 18 0
BBX 16 38 0 -8
BITMAP
0000
0000
0000
0000
0000
0000
0000
0000
0000
0000
0000
0000
0000
07E0
1FF8
3C78
783C
701E
F00E
F00F
F00F
F00F
F00F
F00F
F01E
701E
781E
3FF8
0FF0
03C0
0000
0000
0000
0000
0000
0000
0000
0000
ENDCHAR
STARTCHAR char112
ENCODING 112
SWIDTH 1368 0
DWIDTH 18 0
BBX 16 38 0 -8
BITMAP
0000
0000
0000
0000
0000
0000
0000
0000
0000
0000
0000
0000
19E0
3FF0
FFF8
FC3C
781E
781E
780F
380F
380F
380F
380F
380F
381E
381E
3C1C
3C3C
3FF8
7CE0
7C00
7C00
7C00
7C00
7C00
FE00
FE00
0000
ENDCHAR
STARTCHAR char113
ENCODING 113
SWIDTH 2128 0
DWIDTH 28 0
BBX 25 38 0 -8
BITMAP
00000000
00000000
00000000
00000000
00000000
00000000
00000000
00000000
00000000
00000000
00000000
00000000
3C787E00
7EFEFF00
FEFEFF00
FCFCFE00
FC7C7C00
FC7C7C00
7C7C7C00
787C7C00
787C3C00
787C3C00
787C3C00
787C3C00
787C3C00
787C3C00
787C3C00
F87C3C00
FFFFFF00
FFFFFF80
000FFF80
00000780
00000780
00000380
00000180
00000000
00000000
00000000
ENDCHAR
STARTCHAR char114
ENCODING 114
SWIDTH 1368 0
DWIDTH 18 0
BBX 16 38 0 -8
BITMAP
0000
0000
0000
0000
0000
0000
0000
0000
0000
0000
0000
0000
0000
03FC
1FFF
3FFF
3E3F
7C3E
783E
781C
781C
3FFC
0FFC
0F3C
0E3C
1E3C
3C3C
3C3C
F8FF
F87F
0000
0000
0000
0000
0000
0000
0000
0000
ENDCHAR
STARTCHAR char115
ENCODING 115
SWIDTH 1520 0
DWIDTH 20 0
BBX 18 38 0 -8
BITMAP
000000
000000
000000
000000
000000
000000
000000
000000
000000
000000
000000
000000
FE1F00
FF7F80
FE7F80
7C3F00
7C3E00
7C3E00
7C3E00
7C3E00
7C3E00
7C3E00
7C3E00
7C3E00
7C3E00
7C3E00
7C3E00
FC3E00
FFFF80
FFFF80
000FC0
0003C0
0003C0
000180
000000
000000
000000
000000
ENDCHAR
STARTCHAR char116
ENCODING 116
SWIDTH 1292 0
DWIDTH 17 0
BBX 15 38 0 -8
BITMAP
0000
0000
0000
0000
0000
0000
0000
0000
0000
0000
0000
0000
0000
7FFC
FFFE
FFFE
F7DE
E7DE
E7CE
07C4
07C0
07C0
07C0
07C0
07C0
07C0
07C0
1FE0
1FE0
0FC0
0000
0000
0000
0000
0000
0000
0000
0000
ENDCHAR
STARTCHAR char117
ENCODING 117
SWIDTH 1900 0
DWIDTH 25 0
BBX 23 38 0 -8
BITMAP
000000
000000
000000
000000
000000
000000
000000
000000
000000
000000
000000
000000
000000
FC0FC0
FE1FE0
FC3EF0
78787C
78F03C
78E01E
7CE01E
7FE01E
7FE01E
79E01E
79E01E
79E01E
78E03E
78F03C
FC7C78
FC3FF0
381FE0
000000
000000
000000
000000
000000
000000
000000
000000
ENDCHAR
STARTCHAR char118
ENCODING 118
SWIDTH 1368 0
DWIDTH 18 0
BBX 16 38 0 -8
BITMAP
0000
0000
0000
0000
0004
000E
003E
01FC
07F8
0FF0
1FC0
3E00
3800
7FE0
7C70
FC3C
F81E
F00E
F00E
F00F
F00F
F00F
F00F
F00F
F00F
700E
781E
3C1C
1FFC
0FF0
0000
0000
0000
0000
0000
0000
0000
0000
ENDCHAR
STARTCHAR char119
ENCODING 119
SWIDTH 1976 0
DWIDTH 26 0
BBX 24 38 0 -8
BITMAP
000000
000000
000000
000000
000000
000000
000000
000000
000000
000000
000000
000000
000000
000000
7E7F3F
FE7F3F
FC3F3F
7C3C3E
7C3C1E
7C3C1E
7C3C1E
7C3C1E
7C3C1E
7C3C1E
7C3C1E
7C3C1E
7C3C3E
7C3C3E
FFFFFE
FFFFFF
000000
000000
000000
000000
000000
000000
000000
000000
ENDCHAR
STARTCHAR char120
ENCODING 120
SWIDTH 1368 0
DWIDTH 18 0
BBX 16 38 0 -8
BITMAP
0000
0000
0000
0000
0000
0000
0000
0000
0000
0000
0000
0000
0000
7F7F
7F7F
7F7E
3F3C
0F30
0FF0
07E0
07C0
03C0
07E0
07F0
0EF8
1E7C
3E7C
FE7F
FE7F
FE7F
0000
0000
0000
0000
0000
0000
0000
0000
ENDCHAR
STARTCHAR char121
ENCODING 121
SWIDTH 1520 0
DWIDTH 20 0
BBX 18 38 0 -8
BITMAP
000000
000000
000000
000000
000000
000000
000000
000000
000000
000000
000000
000000
000000
7E03C0
FF0FC0
FF1FC0
7F1FC0
3E0F80
3E0F00
1F1E00
1F1E00
0F9E00
0F9C00
0FFC00
07F800
07F800
03F800
03F800
01F000
01F000
01E000
01E000
11E000
3FC000
7FC000
7FC000
7F8000
3F0000
ENDCHAR
STARTCHAR char122
ENCODING 122
SWIDTH 1064 0
DWIDTH 14 0
BBX 13 38 0 -8
BITMAP
0000
0000
0000
0000
0000
0000
0000
0000
0000
0000
0000
0000
3F00
7FC0
7FE0
F8F0
F0F0
F0F0
E0F0
61F0
1FE0
1FE0
1FF0
00F8
C078
E078
F078
FDF0
FFF0
FFC0
0000
0000
0000
0000
0000
0000
0000
0000
ENDCHAR
STARTCHAR char124
ENCODING 124
SWIDTH 608 0
DWIDTH 8 0
BBX 4 38 2 -8
BITMAP
00
00
00
00
00
00
F0
F0
F0
F0
F0
F0
F0
F0
F0
F0
F0
F0
F0
F0
F0
F0
F0
F0
F0
F0
F0
F0
F0
F0
F0
F0
F0
F0
F0
F0
00
00
ENDCHAR
ENDFONT
