STARTFONT 2.1
FONT -MIT-S53SYM KST-Medium-R-Normal--53-19-200-200-P-17-ISO8859-1
SIZE 19 200 200
FONTBOUNDINGBOX 31 53 -9 -18
STARTPROPERTIES 17
ADD_STYLE_NAME ""
AVERAGE_WIDTH 17
CHARSET_ENCODING "1"
CHARSET_REGISTRY "ISO8859"
DEFAULT_CHAR 0
FAMILY "S53SYM KST"
FONT_ASCENT 35
FONT_DESCENT 18
FOUNDRY "MIT"
PIXEL_SIZE 53
POINT_SIZE 19
RESOLUTION_X 200
RESOLUTION_Y 200
SETWIDTH_NAME "Normal"
SLANT "R"
SPACING "P"
WEIGHT_NAME "Medium"
ENDPROPERTIES
CHARS 21
STARTCHAR char18
ENCODING 18
SWIDTH 1352 0
DWIDTH 26 0
BBX 22 53 0 -18
BITMAP
000000
000000
000000
000000
000000
000000
000000
00FC00
03FF00
0FFFC0
1F87E0
3E01F0
7C00F8
780078
F0003C
F0003C
F0003C
F0003C
F0003C
F0003C
F0003C
F0003C
F0003C
F0003C
F0003C
F0003C
F0003C
F0003C
F0003C
F0003C
F0003C
F0003C
F0003C
F0003C
F0003C
F0003C
F0003C
F0003C
F0003C
F0003C
F0003C
F0003C
F0003C
F0003C
F0003C
F0003C
000000
000000
000000
000000
000000
000000
000000
ENDCHAR
STARTCHAR char19
ENCODING 19
SWIDTH 1352 0
DWIDTH 26 0
BBX 22 53 0 -18
BITMAP
000000
000000
000000
000000
000000
000000
000000
000000
F0003C
F0003C
F0003C
F0003C
F0003C
F0003C
F0003C
F0003C
F0003C
F0003C
F0003C
F0003C
F0003C
F0003C
F0003C
F0003C
F0003C
F0003C
F0003C
F0003C
F0003C
F0003C
F0003C
F0003C
F0003C
F0003C
F0003C
F0003C
F0003C
F8007C
780078
7C00F8
3E03F0
1F8FE0
0FFFC0
03FF00
00FC00
000000
000000
000000
000000
000000
000000
000000
000000
ENDCHAR
STARTCHAR char32
ENCODING 32
SWIDTH 520 0
DWIDTH 10 0
BBX 1 53 0 -18
BITMAP
00
00
00
00
00
00
00
00
00
00
00
00
00
00
00
00
00
00
00
00
00
00
00
00
00
00
00
00
00
00
00
00
00
00
00
00
00
00
00
00
00
00
00
00
00
00
00
00
00
00
00
00
00
ENDCHAR
STARTCHAR char40
ENCODING 40
SWIDTH 676 0
DWIDTH 13 0
BBX 9 53 3 -18
BITMAP
0180
0380
0E00
0C00
3800
3000
7000
6000
6000
E000
C000
C000
C000
C000
C000
C000
C000
C000
C000
C000
C000
C000
C000
C000
C000
C000
C000
C000
C000
C000
C000
C000
C000
C000
C000
C000
C000
C000
C000
C000
C000
C000
C000
E000
6000
6000
7000
3000
3800
1C00
0E00
0380
0180
ENDCHAR
STARTCHAR char41
ENCODING 41
SWIDTH 676 0
DWIDTH 13 0
BBX 9 53 0 -18
BITMAP
C000
7000
3800
1800
0E00
0600
0700
0300
0300
0380
0180
0180
0180
0180
0180
0180
0180
0180
0180
0180
0180
0180
0180
0180
0180
0180
0180
0180
0180
0180
0180
0180
0180
0180
0180
0180
0180
0180
0180
0180
0180
0180
0180
0380
0300
0300
0700
0600
1E00
1800
3800
F000
C000
ENDCHAR
STARTCHAR char47
ENCODING 47
SWIDTH 1092 0
DWIDTH 21 0
BBX 18 53 1 -18
BITMAP
000000
0000C0
0000C0
0001C0
000180
000180
000380
000300
000300
000300
000700
000600
000E00
000C00
000C00
001C00
001800
001800
003800
003000
003000
007000
006000
006000
006000
00E000
00C000
01C000
018000
018000
038000
030000
030000
070000
060000
060000
0E0000
0C0000
0C0000
0C0000
1C0000
180000
380000
300000
300000
700000
600000
600000
C00000
C00000
C00000
C00000
000000
ENDCHAR
STARTCHAR char50
ENCODING 50
SWIDTH 1300 0
DWIDTH 25 0
BBX 23 53 2 -18
BITMAP
000006
000006
000006
000006
000006
00000C
00000C
00000C
00000C
000018
000018
000018
000018
000030
000030
000030
000030
000060
000060
000060
000060
0000C0
0000C0
0000C0
0000C0
000180
000180
000180
000180
000300
000300
000300
000300
000600
000600
000600
000600
000C00
000C00
000C00
000C00
F81800
F81800
1C1800
1C1800
0E3000
0E3000
073000
073000
03E000
03E000
01C000
00C000
ENDCHAR
STARTCHAR char73
ENCODING 73
SWIDTH 1092 0
DWIDTH 21 0
BBX 18 53 1 -18
BITMAP
000000
000000
000000
000000
001F00
003F80
0071C0
0060C0
0060C0
0060C0
0060C0
006000
006000
006000
006000
006000
006000
006000
00C000
00C000
00C000
00C000
00C000
00C000
00C000
00C000
00C000
00C000
00C000
00C000
00C000
00C000
00C000
00C000
00C000
018000
018000
018000
018000
018000
018000
C18000
C18000
C18000
C18000
C18000
E38000
7F0000
3E0000
000000
000000
000000
000000
ENDCHAR
STARTCHAR char80
ENCODING 80
SWIDTH 1456 0
DWIDTH 28 0
BBX 26 53 0 -18
BITMAP
00000000
00000000
00000000
00000000
00000000
00000000
00000000
FFFFFFC0
FFFFFFC0
38000700
38000700
38000700
38000700
38000700
38000700
38000700
38000700
38000700
38000700
38000700
38000700
38000700
38000700
38000700
38000700
38000700
38000700
38000700
38000700
38000700
38000700
38000700
38000700
38000700
38000700
38000700
38000700
38000700
38000700
38000700
38000700
38000700
38000700
38000700
FE001FC0
FE001FC0
00000000
00000000
00000000
00000000
00000000
00000000
00000000
ENDCHAR
STARTCHAR char83
ENCODING 83
SWIDTH 1768 0
DWIDTH 34 0
BBX 32 53 1 -18
BITMAP
00000000
00000000
00000000
00000000
00000000
00000000
00000000
FFFFFFFC
FFFFFFFC
E000001E
E000000E
70000007
38000003
1C000000
0E000000
07000000
03800000
01C00000
00E00000
00700000
00380000
001C0000
000E0000
00070000
00038000
0003C000
0003C000
00038000
00030000
00060000
000C0000
00180000
00300000
00600000
00C00000
01800000
03000000
06000000
0C000001
18000003
30000007
6000000F
C000001E
FFFFFFFE
FFFFFFFC
FFFFFFFC
00000000
00000000
00000000
00000000
00000000
00000000
00000000
ENDCHAR
STARTCHAR char91
ENCODING 91
SWIDTH 728 0
DWIDTH 14 0
BBX 10 53 3 -18
BITMAP
FFC0
FFC0
C000
C000
C000
C000
C000
C000
C000
C000
C000
C000
C000
C000
C000
C000
C000
C000
C000
C000
C000
C000
C000
C000
C000
C000
C000
C000
C000
C000
C000
C000
C000
C000
C000
C000
C000
C000
C000
C000
C000
C000
C000
C000
C000
C000
C000
C000
C000
C000
C000
FFC0
FFC0
ENDCHAR
STARTCHAR char93
ENCODING 93
SWIDTH 728 0
DWIDTH 14 0
BBX 10 53 1 -18
BITMAP
FFC0
FFC0
00C0
00C0
00C0
00C0
00C0
00C0
00C0
00C0
00C0
00C0
00C0
00C0
00C0
00C0
00C0
00C0
00C0
00C0
00C0
00C0
00C0
00C0
00C0
00C0
00C0
00C0
00C0
00C0
00C0
00C0
00C0
00C0
00C0
00C0
00C0
00C0
00C0
00C0
00C0
00C0
00C0
00C0
00C0
00C0
00C0
00C0
00C0
00C0
00C0
FFC0
FFC0
ENDCHAR
STARTCHAR char97
ENCODING 97
SWIDTH 728 0
DWIDTH 14 0
BBX 10 53 3 -18
BITMAP
FFC0
FFC0
C000
C000
C000
C000
C000
C000
C000
C000
C000
C000
C000
C000
C000
C000
C000
C000
C000
C000
C000
C000
C000
C000
C000
C000
C000
C000
C000
C000
C000
C000
C000
C000
C000
C000
C000
C000
C000
C000
C000
C000
C000
C000
C000
C000
C000
C000
C000
C000
C000
C000
C000
ENDCHAR
STARTCHAR char98
ENCODING 98
SWIDTH 728 0
DWIDTH 14 0
BBX 2 53 3 -18
BITMAP
C0
C0
C0
C0
C0
C0
C0
C0
C0
C0
C0
C0
C0
C0
C0
C0
C0
C0
C0
C0
C0
C0
C0
C0
C0
C0
C0
C0
C0
C0
C0
C0
C0
C0
C0
C0
C0
C0
C0
C0
C0
C0
C0
C0
C0
C0
C0
C0
C0
C0
C0
C0
C0
ENDCHAR
STARTCHAR char99
ENCODING 99
SWIDTH 728 0
DWIDTH 14 0
BBX 10 53 3 -18
BITMAP
C000
C000
C000
C000
C000
C000
C000
C000
C000
C000
C000
C000
C000
C000
C000
C000
C000
C000
C000
C000
C000
C000
C000
C000
C000
C000
C000
C000
C000
C000
C000
C000
C000
C000
C000
C000
C000
C000
C000
C000
C000
C000
C000
C000
C000
C000
C000
C000
C000
C000
C000
FFC0
FFC0
ENDCHAR
STARTCHAR char100
ENCODING 100
SWIDTH 728 0
DWIDTH 14 0
BBX 10 53 1 -18
BITMAP
FFC0
FFC0
00C0
00C0
00C0
00C0
00C0
00C0
00C0
00C0
00C0
00C0
00C0
00C0
00C0
00C0
00C0
00C0
00C0
00C0
00C0
00C0
00C0
00C0
00C0
00C0
00C0
00C0
00C0
00C0
00C0
00C0
00C0
00C0
00C0
00C0
00C0
00C0
00C0
00C0
00C0
00C0
00C0
00C0
00C0
00C0
00C0
00C0
00C0
00C0
00C0
00C0
00C0
ENDCHAR
STARTCHAR char101
ENCODING 101
SWIDTH 728 0
DWIDTH 14 0
BBX 2 53 9 -18
BITMAP
C0
C0
C0
C0
C0
C0
C0
C0
C0
C0
C0
C0
C0
C0
C0
C0
C0
C0
C0
C0
C0
C0
C0
C0
C0
C0
C0
C0
C0
C0
C0
C0
C0
C0
C0
C0
C0
C0
C0
C0
C0
C0
C0
C0
C0
C0
C0
C0
C0
C0
C0
C0
C0
ENDCHAR
STARTCHAR char102
ENCODING 102
SWIDTH 728 0
DWIDTH 14 0
BBX 10 53 1 -18
BITMAP
00C0
00C0
00C0
00C0
00C0
00C0
00C0
00C0
00C0
00C0
00C0
00C0
00C0
00C0
00C0
00C0
00C0
00C0
00C0
00C0
00C0
00C0
00C0
00C0
00C0
00C0
00C0
00C0
00C0
00C0
00C0
00C0
00C0
00C0
00C0
00C0
00C0
00C0
00C0
00C0
00C0
00C0
00C0
00C0
00C0
00C0
00C0
00C0
00C0
00C0
00C0
FFC0
FFC0
ENDCHAR
STARTCHAR char123
ENCODING 123
SWIDTH 728 0
DWIDTH 14 0
BBX 11 53 1 -18
BITMAP
0000
01E0
0380
0600
0C00
0C00
0C00
0C00
0C00
0C00
0C00
0C00
0C00
0C00
0C00
0C00
0C00
0C00
0C00
0C00
0C00
0C00
0C00
0C00
1800
7000
E000
7000
1800
0C00
0C00
0C00
0C00
0C00
0C00
0C00
0C00
0C00
0C00
0C00
0C00
0C00
0C00
0C00
0C00
0C00
0C00
0C00
0C00
0600
0380
01E0
0000
ENDCHAR
STARTCHAR char124
ENCODING 124
SWIDTH 364 0
DWIDTH 7 0
BBX 2 53 2 -18
BITMAP
C0
C0
C0
C0
C0
C0
C0
C0
C0
C0
C0
C0
C0
C0
C0
C0
C0
C0
C0
C0
C0
C0
C0
C0
C0
C0
C0
C0
C0
C0
C0
C0
C0
C0
C0
C0
C0
C0
C0
C0
C0
C0
C0
C0
C0
C0
C0
C0
C0
C0
C0
C0
C0
ENDCHAR
STARTCHAR char125
ENCODING 125
SWIDTH 728 0
DWIDTH 14 0
BBX 11 53 1 -18
BITMAP
0000
F000
3800
0C00
0600
0600
0600
0600
0600
0600
0600
0600
0600
0600
0600
0600
0600
0600
0600
0600
0600
0600
0600
0600
0300
01C0
00E0
01C0
0300
0600
0600
0600
0600
0600
0600
0600
0600
0600
0600
0600
0600
0600
0600
0600
0600
0600
0600
0600
0600
0C00
3800
F000
0000
ENDCHAR
ENDFONT
