STARTFONT 2.1
FONT -MIT-STAN KST-Medium-R-Normal--216-77-200-200-P-220-ISO8859-1
SIZE 77 200 200
FONTBOUNDINGBOX 194 216 -53 -108
STARTPROPERTIES 17
ADD_STYLE_NAME ""
AVERAGE_WIDTH 220
CHARSET_ENCODING "1"
CHARSET_REGISTRY "ISO8859"
DEFAULT_CHAR 0
FAMILY "STAN KST"
FONT_ASCENT 108
FONT_DESCENT 108
FOUNDRY "MIT"
PIXEL_SIZE 216
POINT_SIZE 77
RESOLUTION_X 200
RESOLUTION_Y 200
SETWIDTH_NAME "Normal"
SLANT "R"
SPACING "P"
WEIGHT_NAME "Medium"
ENDPROPERTIES
CHARS 2
STARTCHAR char83
ENCODING 83
SWIDTH 2592 0
DWIDTH 216 0
BBX 203 216 9 -108
BITMAP
0000000000000000000000000000000000000000000000000000
0000000000000000000000000000000000000000000000000080
0000000000000000000000000000000000000000000000000000
0000000000000000000000000000000000000000000000000000
0000000000000000000000000000000000000000000000000000
0000000000000000000000000000000000000000000000000000
0000000000000000000000000000000000000000000000000000
0000000000000000000000000000000000000000000000000000
0000000000000000000000004000000000000000000000000000
00000000000000000000FFFFFF80000000000000000000000000
0000000000000000003FF80007FE000000000000000000000000
000000000000000003F800010007F00000000000000000000000
00000000000000003F004773B3007E0000000000000000000020
0000000000000001F008EF333FB007C000000000000000000000
000000000000000F819CC200123B807800000000000000000000
000000000000003C19C807FFE011DC1F00000000000000000000
00000000000000E23883FFFFFFF01C43C0000000000000000000
0000000000000383983FE00001FF08E070000000000000000000
0000000000000E3703FC0000000FF06E1E000000000000000000
00000000000038311F80000000007E0707800000000000000000
000000000000E310F8000000000007C671E00000000000000000
000000000003C707C0000000000000F871700000000000000000
0000000000073B1E00000079E000001E071C0000000000000000
00000000001C307800000038C3900007C30E0000000000000000
00000000003A71E000180038C3980000F3738000000000000000
000000000063878001FF0038C31C70003C30E000000000000000
0000000001839E0000FF8031C31C72000F297000000000000000
00000000033838007C618039C31E638003C71800000000000000
000000000E38E001FE60C039C33E638000E38E00000000000000
000000001C3B8001C770C019C33E431F007A5300000000000000
000000003B870000C330C019C337C73F801C71C0000000000000
00000000638C00FCC330C038C733C679C00E78E0000000000000
00000000C3B801FEE338C038FE33C660E0038770000000000000
00000001987001876619C0307C31CEE0E401E738000000000000
0000000338C01B837E1F80701071CEC0E700770C000000000000
0000000639803B03BF1F01E00010CCC0E7C03876000000000000
0000000C0300FF01B3D001C00000DCC0EEC00C73000000000000
0000001B8E01E1819880000000001CE1CC600771800000000000
000000339C03C18198000000000000739C60038CC00000000000
00000063B801C9C390000FFFFF00007F986001C7600000000000
000000C47018FCFF0001F80003F8003F386000E7300000000000
000001D8E038FC7E001F03FFFC0F00003FE00077180000000000
00000318C03C701C00787FFFFFF0F0007FC00018EC0000000000
00000311800E38000387F00000FE1C00E600000C660000000000
0000062301C71C000E7E00000007E30026000006630000000000
00000DC603FF1C0031E000008000F8C006000C03118000000000
000019CC03FF8E00C780000180001E3003001F0388C000000000
000019D800FFCC039E000001400003CE01801E01CEE000000000
000032381071E00670000001C00000E300003800EE6000000000
00006E3038382019E00000038000003CC0007060733000000000
00006E603C1C003780000004A000000E6000E060309800000000
0000CEC07F0E00CE0000000C600000039800E0F018CC00000000
000180803F8701980000001C10000001CC01C1C00CCE00000000
0001918019E60370000000D7580000006601C38406E600000000
000333039CFC06E0000003AAB60000003900CF06072300000000
000232038FF809C0000007FFFB8000001CC0FE0F031B00000000
000646070790130000000EDF9E40000007607C1E019D80000000
00044C0F0700260000001F9B97C0000003B0003E00DCC0000000
000DC80F83004C0000001F0385E0000001D800FE00C4C0000000
0019D81DC3C0980000003802C2E0000000EC01FC606260000000
00199008F18130000000100720600000003607DCF033A0000000
00303000790260000000001F50000000001B039FF033B0000000
003220703E06C000000000236C000000000D831F801B98000000
006660F00E0D80000000005A53A00000000EC13F040C18000000
006640C1040B0000000001EEE9B800000007403C0C0CCC000000
00C4C1C7C013000000000445C5760000000320383E06E4000000
00C981FFC026000000001FF766478000000190307E06E6000000
009980FEE02C000000001E6F63D780000000D821F00327000000
01B980786048000000003856300D800000006C03C18303000000
019B0000E098000000001D28480000000000340F81819B000000
01130001E0B0000000000102440000000000320E03C19D800000
03260007C1200000000007844B00000000001B0407C0FDC00000
0366000781600000000007045A80000000000D000F00CCC00000
0664000082C0000000001207CBF0000000000C801E0064C00000
066C000002C000000000100F4F4C0000000006801C0066600000
064C0780048000000000181CC2A3800000000340781037600000
0C080FE00580000000001056C031600000000360FFF837300000
0C981FF009000000000001CB8033B000000001A0FFF811300000
0D9838380B000000000001C9E01D5800000001B0FFF819300000
09D8303812000000000001876005DC00000000D0000419D80000
199038181600000000001F8F78053E00000000D8000C0DD80000
18307F18360000000000FF7F7F033E0000000068003E0D980000
19307FF8240000000001A6E7990006000000006801FE0CCC0000
332003F82C0000000001DACFB8000600000000341FFE064C0000
33A0C078680000000000F78E3A000000000000341FE7066C0000
3260E010480000000001361EFA800000000000161E3306E60000
3060FC00580000000003903852FE00000000001A0E7303660000
3260FFF0D0000000000300614AB780000000001A0E0203260000
26400FE0900000000002006F472B40000000000F0E0003060000
66403FC0B0000000000400DCC0A9F0000000000D070001320000
66C1FE00B000000000000394C0F5F8000000000D010181BB0000
64C1F800A0000000000006F640E07C0000000005801FC1BB0000
64C1FFE12000000000000E9460000C000000000687FFC1930000
6C817FC160000000000013E9E0000C000000000683FFC0830000
6C8003C16000000000003F29F00004000000000683E0C09B0000
4C8000416000000000003819E000000000000002C070C0DD8000
C18000C14000000000003038E80000000000000340F1C0DD8000
41823FC34000000000007835D80000000000000341FFC0C98000
C983FFC240000000000058EF7200000000000003419F80C18000
CD83FC42400000000000E06DFAE0000000000003410700C98000
DD838C02C00000000000C16E98B0000000000001610000CC8000
CD83FC02C0000000000007A881D0000000000001E000007CC000
C982FE82C0000000000003E4C780000000000001A010006CC000
C1001F82C000000000001AEECFB8000000000001A0E3E064C000
C9800382C0000000000FFAEB41B8000000000001A1C3E064C000
DD000082C0000000001F9CCB6D72000000000001A1C7706CC000
DD000202800000000037E499D123000000000001A1C6706EC000
C9000382C0000000007EE01ED8AF000000000001A0CE706EC000
C9000182C000000000DFD40BCF87800000000001A0FE7064C000
C1800182C000000001D64025EFFC800000000001A07CC060C000
C9820182C000000003F080257A32000000000001A0380064C000
DD83FF82C000000007C000373C99800000000001A000006CC000
DD83FF82C0000000042000DFAED3F00000000001A0C0006EC000
C983F842C00000000460035F3C995C0000000001A0FFF06CC000
C1820002C000800009C006DBC40D540000000001A0FFF064C000
C9800382C00778000FE0065F6705E60000000001A0AFF064C000
CD8001C2401C06003A0E0EDA6898CE0000000001A000306CC000
4D8388C140600183CE01DB7A72D8068000000001A000006EC000
4C8338C167C000CE1400F32AA170078000000001A000406EC000
448318C1780000381000324E3457840000000001A1807064C000
6081BFC16000000C000026CE67FE3417C000000161F07064C000
6481FFE1600000030000662CE3590F303800000141FFE064C000
6EC1FF61200000008000FA0A871A80E00780000341FFE0CC8000
6EC18000A00000008000F4082786801800E00003410FE0DE8000
64C100E0B00000007001EC0D23C1C0060038DE034000E0CD8000
60C00060B00000000E01800D23E2C002E00700F74000E0C98000
26400060BBC0000001C3C00C21F3C0003C00E00EC001E0C98000
37600030DE300000006DC00C2359C00002C01806800080D98000
366000705807F1C0000FC00C207BC00000000FC6800040DD8000
326001F058000F300007C00C2039E0000000003E8203C19D8000
30607FF86800000C000DB804E0389A000000000D870FC1930000
19207F802C000000800BC7C4403003A00000003D07FFC1830000
19307C002C000000200E00186030001F000017FD07FC81930000
1BB07000340000001804000440200000E00FF00B00F003F30000
199060001600000001040008700000001FF8001A0038033B0000
0C1800001A000000006000186400000003C0001A001C03360000
0C9800000B0000000007001051C000003E000036000F03260000
0CD800000B00000000006008803C0000C0000034000703660000
04CC000005800680000006186003800180000064000306E60000
06CC000005800840900700086000002E00000068000206EC0000
064C000006C010410C08818868004018000000680000064C0000
0604000002C0101A0410C1693203904E000000D000000C4C0000
23260000036020460190220023020809800000D000000C9C0000
033200000120204302402C1020820818800001B000000D980000
0333000001B030C08C30420C20700420C00003A0000019D80000
01930000009808810848810E20CA072078000360000019B00000
0189800980580C010011031E2202041042000740000030300000
00CD800F806C010288110398A203983181000680000033300000
00CC800F802C0580C80D03783200501102800D80000077600000
007CC01F80360025684D8202EA01502902801900000067600000
0064C01FC01B001007E5470DE200901602801B01180067E00000
0062603FE00980180001281D6245B80506403601F800C4C00000
003320070004C00401C0181370FA686D86406401F800C8C00000
0013B0070006C00000002C23382C6771E380E801F80199800000
001B300200036000000000D73C2801412E01D801FE01BD800000
001898000001B000000001EB3E0801401801B003FE033B800000
000C18000000980000000105130001602C032003F80323000000
000CEC0000004C00000006D7C900000000064000600767000000
0006E600000026000000047FED400000000E80002006E6000000
000266000000130000000879E580000000198000200EEE000000
0003230000001980000039BBA7C00000003B0000001CCC000000
00011180000004C00000F8C6E3A8000000660000001898000000
00019D800000027000698E8F42FC000001CC0000003F18000000
0000DCC0007F01B806F93E063BA98000039800000037B0000000
0000DC60007F80CC5D84D0136796B00007202000006370000000
0000646000F3C067642725AF6DD2AB001CC0300000E060000000
0000323001C1C033CCC0EA351C2BB0E03980700001C0C0000000
0000339801C0E00CECDC0C4FAE55319FF30078000198C0000000
00001B9C0180E806790076010E4F412FCC001C00031D80000000
00000C8C0180EC019E1E09BE7E4938CF980F8E00071B00000000
00000C4601C0CF00C7E032000162033E601FE7000E0700000000
0000067B01C3DF8033E098A5E61C89F9C01CE3800FE600000000
0000037180FF99C01C7CC0200C7247E7001873C019CC00000000
000001F1C0FFB8C0071F804127997F1E003879E031D800000000
000001C0E03E70C000E3F181F0C7FC70071878C0713800000000
000000C77000F0E00038FF9F037FE1C00F9FF880E63000000000
000000673800F1C7800707FFFFFF1E001DCFF801CE6000000000
000000331C01FFDFC000F07FFFC1F00018C798038EC000000000
0000001D0C019FBFF0001F80003F00011DF03807098000000000
0000000C77009E38F80001FFFFF000039FF8780EF38000000000
000000067380187038800000000000038F19F01CE70000000000
0000000771C0187010F0000000000003C60CE038EE0000000000
0000000190E0086111F0000000000001C60C80709C0000000000
00000001C7300461C1F1800000007C00E60C00EF380000000000
00000000E7180073E3F1CF000009FF00671803CE700000000000
00000000370E0030E771C773F9FCE78073F8038E600000000000
000000001877003DC671E673F9FCE1C071F00E03C00000000000
000000000C73801FCE73E673F9C0E1C038C01CE3800000000000
000000000670E00FCFF3EE7070C060C03C0078E7000000000000
00000000038E70001FE3FE7070F860C01800F0EE000000000000
0000000001C61C0038E33C7060F870C00003CE18000000000000
0000000000670F0018733C70E0E471C000070E70000000000000
000000000070E3C000771C70E0E07380001E8EE0000000000000
00000000001CF1E000771C71C0E13F80007CE3C0000000000000
000000000006623800171C71C0E13E0000F0E700000000000000
0000000000038E1E00030C73DCFF380007CE4E00000000000000
000000000000C72780000CF3FCFF00001F0E3C00000000000000
00000000000074E1F00000F3FCF00000F8CE7000000000000000
00000000000038707E00000000000003E0E1E000000000000000
0000000000000E770F0000000000001F89E78000000000000000
00000000000003C703F00000000000FE0E2E0000000000000000
00000000000000E3B87F0000000007F0DC380000000000000000
0000000000000078390FF8000001FF01C4E00000000000000000
000000000000000E13807FFD05FFF81DC7C00000000000000000
0000000000000003C19C03FFFFFE03BC1E000000000000000000
0000000000000000F01EE0027000379878000000000000000000
00000000000000001E08E311108E7B0FE0000000000000000000
000000000000000007E0677B39EE603F00000000000000000000
000000000000000000FC023BB9C401F800000000000000000000
0000000000000000000FE01110003FC000000000000000000000
00000000000000000000FF80007FF80000000000000000000000
0000000000000000000007FFFFFF000000000000000000000000
0000000000000000000000001000000000000000000000000000
0000000000000000000000000000000000000000000000000000
0000000000000000000000000000000000000000000000000000
0000000000000000000000000000000000000000000000000000
ENDCHAR
STARTCHAR char84
ENCODING 84
SWIDTH 2700 0
DWIDTH 225 0
BBX 128 216 53 -108
BITMAP
00000000000000000000000000000000
00000000000000000000000000000000
00000000000000000000000000000000
00000000000000000000000000000000
00000000000000000000000000000000
00000000000000000000000000000000
00000000000000000000000000000000
000000000000007F8000000000000000
00000000001FFE7F83F0000000000000
00000000001FFF7F83FFF00000000000
00000000000FFF8E01FFFF8000000000
000000000003FFCE007EFF8000000000
000000000003FFFE00FE0F8000000000
000000070003FFFE00FFCF81C0000000
0000001F8001DFFE00FFEF87F8000000
0000007FE003CFFE00FFC10FFE000000
000000FFF80FFFFE07FE000FFF800000
000000FFFE8FF9FE07FF800FF7E00000
000000FFFFCFF08007FF800FC0F00000
000001FFFFC0000000078007C0780000
000001FFFF00000020000007C07C0000
000001FBFC00000040000003C03E0000
000001E7F000000040000001E07E0000
000003C78000000060000000F07F0000
000003F600000000600000007FFF0000
000603F000000000E00000001FFF0000
000703E000000000E00000000FFE0000
000FC3C000000000E000000001FC0000
000FCF8000000000E000000000000C00
001FCF0000000000F000000000000C00
001F8C0000000001F000000000020E00
001F800000000003F800000000060E00
0039000000000006F800000000073E00
0038600000000004E00000000003FF00
007CE00000000004E00000000003FF00
007FE00000000000E00000000003FF80
00FFC00000000000E00000000001FF80
00FFC00000000003E00000000001FF80
01FFC0000000000FF00000000000FF80
01FF80000000000FF80000000000FDC0
03FF80000000001FF80000000000FDC0
039F80000000001FF800000000007EC0
078700000000001FE000000000007EE0
07C700000000001EE000000000002FE0
07EF000000000032E000000000001FE0
0FEE000000000031E000000000003FE0
0FC6000000000021E000000000003FF0
07C0000000000003E000000000003FF0
03C0000000000007E000000000003FF0
008000000000000FF800000000003EE0
000000000000001FFC00000000001E60
000000000000003FFE00000000001C00
000000001003C07FFF80000000001E00
08000000700660FFFFC0780000000F80
1EE00000700661FFFFE0CC0030000780
1FF00001F00761FFFFE0CC0070000000
1FF00003E007C0FFFFE19C00E0000000
1FF00007E00F80FFFD80FC01E0000004
1FF00005C01B80F7F180F802C000020E
1FF80003C019C1E7E1803804C000070E
3FF000038018C1C7E1833001C000070E
3FF00007801983C7F1837003800007FE
3FF000000007079FF9834003800007FE
3FF000000000073FF8000003000007FE
3FF000000000063FF8000000000003FE
3FF000000000063FFC000000000003FE
3FF000000000043FFC000000000003FE
3FF000000000043FFE000000000003FE
7FE000000000007FFF000000000003FE
7FE00000000000FFFF80000000000387
7FE00000000001FFFF80000000000306
3FE00000000001FFFF80000000000387
3FE00000000003FFF980000000000387
3FE00000000007FFFD80000000000387
1DE00000000007FFFF80000000000387
01E0000000000FEFFF000000000003CF
0000000000000FCFFF000000000001FF
000000000000078FEF800000000001FF
000000000000067FE3000000000001FF
00000000000004FFE1800000000001FE
00000000000004FFE1800000000000FE
00000000000000FBE0800000000000FC
00000000000000A1E00000000000007C
0000000000000001E000000000000000
00000001C000000FE000000000000000
00000003F800001FE000000000000000
0000000FFC00003FE000000000000000
0000003FFF0000FFE000000000000000
000000FF3F8003FFE000000000000000
000001FBF7E003FFF800000000000000
0F0007F011F003FFFC00000000000000
1F8007E402F807E7FF00003F00000000
1F801FE300FE07EFFF8000F7C0000000
1F803FE0003FFFFFFFE003F660000000
1F80FE00000FFFDFFFF00FF3B0000004
0F01F9000003FFBFFFF81FB0D800001E
0003F8C0000CFF3FFF7C7F316C00003F
0003C0800000FF7FF196E9809F00003F
000180000000067FF80BE2004D80003F
00000000000000FFFC00C00006C0001F
00000000000000FFFE00600043E0001C
00000000000001FFFF00380000F00000
00000000000003FFFF001C0002780000
00000000000003FFFF801600003C0000
00000000000007FFFF800300001E0000
0000000000000FFFFFC00180000F0000
0000000000000FFFFFC000C000038000
0000000000003FFFFFC000000001C000
0000000000003FFFFBC0000000008000
00C0000000007FDFF9E0000000000000
01C000000000FFBFFCE0000000000000
01C000000001FF3FFCE0000000000180
3FC000000003FF3FFC60000000000180
7FC000000007FE7FFE70000000000180
7FC00000000F3E7FFE70000000000180
FFC00000001E3CFFFE300000000001C0
FFC00000001839FFFF000000000001C0
FFC00000000011FFFF800000000001E0
FFC00000000003FFFFC00000000001E0
FFC00000000003FFFFF00000000001F3
F1C00000000003FFFFF80000000001F7
E1C00000000007FFF9F800000000013F
E0C0000000000FFFF8F00000000003BF
E0C0000000001FFFF8000000000003FF
E0C0000000001FFFFC000000000003FF
F1C0000000000FFFFE000000000003FF
FFC0000000000FFFF7800000000003FF
7FC0000000000FFFFB000000000003FF
7FC0000800040FFFFC000000000003FE
3FC0003F801FCDFFFE000000000003F6
01C0003FE01CE7FFFF07E000400003F6
00C0007070287FFFFF983807B00003E6
00C0008010307FFFFFD80C060C0003C2
000000C01070FFFFFFF0040C040003C0
000000C01870FFFFFFF0041C02000380
000001C01861FFFFFFF8041E03000300
000001C01863FCFFFFFC001E02000300
00C000C0386FFCFFFCFF021C02000300
70E000E0106FF0FFFC3E060C03000300
70E000FD702E63FFFC3C460C01000000
70E0007FF00FC7FFFF1CCC0E03000000
7FE0003FE78F9FFFFFCCE005F9000000
3FE0000E1FE77FFFFFE3B6E7F8000400
3FE0000638377FFFFFF19E78F0000780
3FE00006781FFFFFFFF9100860000780
3BF0000E380FFFFFFFFF300840000F80
3FF0002E380FFFFFFFFFF00C60000F80
3FF00000700DFFFFEFFF600460000F80
0FF00000700DFFFFE7FFE00200000C00
0FE00000780DFFFFF3FE400200000C18
1FE000003C07FFEFFBFE300200000C18
1FE000001F1FFFEFF9FF380400001E38
1FF000001F47F7CFE87FBC2C00001FF8
1FF00007878FF7CFC7478FF800001FF0
1FB0003DE31FEF1FF30F6FF3F0001FF0
1FF00030633FB63FF30C33930C001FF0
1FF00070234F163FCB10118804003FF0
1FF8007013EE0E2FCB20098802003FF0
1FF8006010FC0F2FCB600998000033E0
003800E000F80C7FC840091800003060
003800E000D8087FC860041800003060
003800601810081FC860000000003860
000000701058081FD860080402007C60
000000781058101FF030080C06007C00
0000007FE01F200FE02EB80B04007C00
000C0077C017400FE0126005A4007C00
000C00060003000FE00FC002D0001C00
000E00060003000FC0070001C0000000
020E00060003000FE0030000C0000000
031F00060003000FE0030000C0008000
03FF000E0002000FE0030000C001C000
03FF00000000000FE0030000E0018000
01FF80000000000FE000000000038000
01FF80000000000FE00000000003C300
01FF80000000000FE00000000007E700
00FFC0000000000FE00000000007FE00
00F8C0000000001FE0000000000FFE00
0070C0000000001FE0000000000FFC00
007020000000001FF0000000000FFC00
003078000000003FF0000000001DF800
00303C000000007FF80000000018F800
00001E00000000FFFC00000000003000
00001F80000001FCFC00000000807000
00000FC0000000184400000003C06000
00000FF0000000000000000007C06000
00000FF800000000000000003FC00000
00000FFC0000000000000000FF800000
00000FF9C000000000000003E7F00000
000007E3F00000000000000F9FF00000
000007E0FE0000000000001FFFF00000
000007E1FF7800000000003FFFF00000
000007F7F67FFE003FFFF03FFDE00000
000003FFC03FFFF07FFFF83FE3C00000
000001FF001FFFF07FFFF83F0F800000
0000007C000FC1F00FC1F81FFF000000
00000030001FF9F00FFFF007F8000000
00000000001FFDF00FFFE31FC0000000
00000000001FC1E00FE7F30F80000000
0000000000FFC1F00FC3FF0E00000000
0000000000FFFFF03FFBFF0000000000
00000000003FFFF07FF9FE0000000000
0000000000000FF07F80000000000000
00000000000000000000000000000000
00000000000000000000000000000000
00000000000000000000000000000000
00000000000000000000000000000000
00000000000000000000000000000000
00000000000000000000000000000000
00000000000000000000000000000000
00000000000000000000000000000000
00000000000000000000000000000000
00000000000000000000000000000000
00000000000000000000000000000000
00000000000000000000000000000000
00000000000000000000000000000000
00000000000000000000000000000000
ENDCHAR
ENDFONT
