STARTFONT 2.1
FONT -MIT-TR14 KST-Medium-R-Normal--39-14-200-200-P-21-ISO8859-1
SIZE 14 200 200
FONTBOUNDINGBOX 35 39 -3 -8
STARTPROPERTIES 17
ADD_STYLE_NAME ""
AVERAGE_WIDTH 21
CHARSET_ENCODING "1"
CHARSET_REGISTRY "ISO8859"
DEFAULT_CHAR 0
FAMILY "TR14 KST"
FONT_ASCENT 31
FONT_DESCENT 8
FOUNDRY "MIT"
PIXEL_SIZE 39
POINT_SIZE 14
RESOLUTION_X 200
RESOLUTION_Y 200
SETWIDTH_NAME "Normal"
SLANT "R"
SPACING "P"
WEIGHT_NAME "Medium"
ENDPROPERTIES
CHARS 122
STARTCHAR char0
ENCODING 0
SWIDTH 355 0
DWIDTH 5 0
BBX 1 39 0 -8
BITMAP
00
00
00
00
00
00
00
00
00
00
00
00
00
00
00
00
00
00
00
00
00
00
00
00
00
00
00
00
00
00
00
00
00
00
00
00
00
00
00
ENDCHAR
STARTCHAR char1
ENCODING 1
SWIDTH 994 0
DWIDTH 14 0
BBX 12 39 1 -8
BITMAP
0000
0000
0000
0000
0000
0000
0000
0000
0600
0600
0600
0600
0600
0600
0600
0600
0600
0600
0600
0600
0600
0600
0600
0600
C630
E670
76E0
3FC0
1F80
0F00
0600
0000
0000
0000
0000
0000
0000
0000
0000
ENDCHAR
STARTCHAR char2
ENCODING 2
SWIDTH 1988 0
DWIDTH 28 0
BBX 26 39 1 -8
BITMAP
00000000
00000000
00000000
00000000
00000000
00000000
00000000
00000000
00000000
00000000
00000000
00000000
00000000
00000380
00000700
00000E00
00001C00
00001C00
0FC03800
1FE07000
3FF06000
7078E000
E01FC000
E00FC000
E0078000
E00F0000
E01F8000
707BC1C0
3FF1E380
1FE0FF80
0FC07E00
00000000
00000000
00000000
00000000
00000000
00000000
00000000
00000000
ENDCHAR
STARTCHAR char3
ENCODING 3
SWIDTH 1775 0
DWIDTH 25 0
BBX 23 39 1 -8
BITMAP
000000
000000
000000
0000F0
0001F8
00039C
00070E
000E06
001C06
00380E
00380E
00701C
007038
00E070
00E0E0
01C1C0
01C3C0
0383E0
0380F0
070038
07001C
0E000C
0E000C
0C000C
1C400C
1C701C
387878
383FF0
380FC0
780000
700000
700000
700000
F00000
000000
000000
000000
000000
000000
ENDCHAR
STARTCHAR char4
ENCODING 4
SWIDTH 1633 0
DWIDTH 23 0
BBX 21 39 1 -8
BITMAP
000000
000000
000000
000000
000000
000000
000000
000000
000000
000000
000000
007000
00F800
00F800
01FC00
01DC00
03DE00
038E00
078F00
070700
0F0780
0E0380
1E03C0
1C01C0
3C01E0
3800E0
7800F0
700070
F00078
E00038
E00038
000000
000000
000000
000000
000000
000000
000000
000000
ENDCHAR
STARTCHAR char5
ENCODING 5
SWIDTH 1065 0
DWIDTH 15 0
BBX 13 39 1 -8
BITMAP
0000
0000
0000
0000
0000
0000
0000
0000
0000
0000
0000
0000
0000
0000
0000
0000
0000
FFF8
FFF8
FFF8
0038
0038
0038
0038
0038
0000
0000
0000
0000
0000
0000
0000
0000
0000
0000
0000
0000
0000
0000
ENDCHAR
STARTCHAR char6
ENCODING 6
SWIDTH 994 0
DWIDTH 14 0
BBX 12 39 1 -8
BITMAP
0000
0000
0000
0000
0000
0000
0000
0000
0000
00F0
03F0
0780
0E00
1C00
3800
7800
7000
7000
F000
FFF0
FFF0
F000
7000
7000
7800
3800
1C00
0E00
0780
03F0
00F0
0000
0000
0000
0000
0000
0000
0000
0000
ENDCHAR
STARTCHAR char7
ENCODING 7
SWIDTH 1420 0
DWIDTH 20 0
BBX 18 39 1 -8
BITMAP
000000
000000
000000
000000
000000
000000
000000
000000
000000
000000
FFF800
FFFF00
FFFF80
1C1FC0
1C1C00
1C1C00
1C1C00
1C1C00
1C1C00
1C1C00
1C1C00
1C1C00
1C1C00
1C1C00
1C1C00
FC1C00
FC1FC0
000FC0
000000
000000
000000
000000
000000
000000
000000
000000
000000
000000
000000
ENDCHAR
STARTCHAR char11
ENCODING 11
SWIDTH 923 0
DWIDTH 13 0
BBX 11 39 1 -8
BITMAP
0000
0000
0000
0E00
1F00
3F80
7FC0
EEE0
CE60
8E20
0E00
0E00
0E00
0E00
0E00
0E00
0E00
0E00
0E00
0E00
0E00
0E00
0E00
0E00
0E00
0E00
0E00
0E00
0E00
0E00
0E00
0E00
0000
0000
0000
0000
0000
0000
0000
ENDCHAR
STARTCHAR char14
ENCODING 14
SWIDTH 2059 0
DWIDTH 29 0
BBX 27 39 1 -8
BITMAP
00000000
00000000
00000000
00000000
00000000
00000000
00000000
00000000
00000000
00000000
00000000
00000000
00000000
00000000
0FC07E00
1FE0FF00
38F1E380
707BC1C0
E03F80E0
C01F0060
C00E0060
C00E0060
C00E0060
C01F0060
E03F80E0
707BC1C0
38F1E380
1FE0FF00
0FC07E00
00000000
00000000
00000000
00000000
00000000
00000000
00000000
00000000
00000000
00000000
ENDCHAR
STARTCHAR char15
ENCODING 15
SWIDTH 1349 0
DWIDTH 19 0
BBX 17 39 1 -8
BITMAP
000000
000000
000000
F80000
FE0000
1F0000
0F8000
07C000
01E000
00F000
00F800
007C00
003C00
003E00
001E00
000F00
000F00
000700
07E700
0FFF00
3FFF80
7C1F80
F00780
E00380
E00380
E00380
E00380
E00380
700700
7C1F00
3FFE00
0FF800
07F000
000000
000000
000000
000000
000000
000000
ENDCHAR
STARTCHAR char16
ENCODING 16
SWIDTH 1491 0
DWIDTH 21 0
BBX 19 39 1 -8
BITMAP
000000
000000
000000
000000
000000
000000
000000
000000
000000
000000
000000
000000
000000
000000
0FFFE0
1FFFE0
3FFFE0
780000
F00000
E00000
E00000
E00000
E00000
F00000
780000
3FFFE0
1FFFE0
0FFFE0
000000
000000
000000
000000
000000
000000
000000
000000
000000
000000
000000
ENDCHAR
STARTCHAR char17
ENCODING 17
SWIDTH 1491 0
DWIDTH 21 0
BBX 19 39 1 -8
BITMAP
000000
000000
000000
000000
000000
000000
000000
000000
000000
000000
000000
000000
000000
000000
FFFE00
FFFF00
FFFF80
0003C0
0001E0
0000E0
0000E0
0000E0
0000E0
0001E0
0003C0
FFFF80
FFFF00
FFFE00
000000
000000
000000
000000
000000
000000
000000
000000
000000
000000
000000
ENDCHAR
STARTCHAR char18
ENCODING 18
SWIDTH 1136 0
DWIDTH 16 0
BBX 14 39 1 -8
BITMAP
0000
0000
0000
0000
0000
0000
0000
0000
0000
0000
0000
0000
0000
0FC0
1FE0
3FF0
7878
F03C
E01C
E01C
E01C
E01C
E01C
E01C
E01C
E01C
E01C
E01C
E01C
E01C
E01C
0000
0000
0000
0000
0000
0000
0000
0000
ENDCHAR
STARTCHAR char19
ENCODING 19
SWIDTH 1136 0
DWIDTH 16 0
BBX 14 39 1 -8
BITMAP
0000
0000
0000
0000
0000
0000
0000
0000
0000
0000
0000
0000
0000
E01C
E01C
E01C
E01C
E01C
E01C
E01C
E01C
E01C
E01C
E01C
E01C
E01C
F03C
7878
3FF0
1FE0
0FC0
0000
0000
0000
0000
0000
0000
0000
0000
ENDCHAR
STARTCHAR char20
ENCODING 20
SWIDTH 1420 0
DWIDTH 20 0
BBX 18 39 1 -8
BITMAP
000000
000000
000000
000000
000000
000000
E001C0
E001C0
E001C0
700380
700380
700380
380700
380700
380700
1FFF00
1FFE00
1FFE00
0E1C00
0E1C00
0E1C00
073800
073800
073800
03F000
03F000
03F000
01E000
01E000
00C000
00C000
000000
000000
000000
000000
000000
000000
000000
000000
ENDCHAR
STARTCHAR char21
ENCODING 21
SWIDTH 1278 0
DWIDTH 18 0
BBX 16 39 1 -8
BITMAP
0000
0000
0000
0000
0000
FFFF
FFFF
FFFF
0007
0007
0007
0007
0007
0007
0007
0007
07FF
07FF
07FF
0007
0007
0007
0007
0007
0007
0007
0007
0007
FFFF
FFFF
FFFF
0000
0000
0000
0000
0000
0000
0000
0000
ENDCHAR
STARTCHAR char22
ENCODING 22
SWIDTH 9727 0
DWIDTH 137 0
BBX 19 39 0 -8
BITMAP
000000
000000
000000
000000
000000
000000
000000
FFFFE0
FFFFE0
FFFFE0
FFFFE0
FFFFE0
FFFFE0
FFFFE0
FFFFE0
FFFFE0
FFFFE0
FFFFE0
FFFFE0
FFFFE0
FFFFE0
FFFFE0
FFFFE0
FFFFE0
FFFFE0
FFFFE0
000000
000000
000000
000000
000000
000000
000000
000000
000000
000000
000000
000000
000000
ENDCHAR
STARTCHAR char23
ENCODING 23
SWIDTH 1846 0
DWIDTH 26 0
BBX 24 39 1 -8
BITMAP
000000
000000
000000
000000
000000
000000
000000
000000
000000
000000
000000
000000
000000
000000
018180
0381C0
0700E0
0E0070
1C0038
38001C
7FFFFE
FFFFFF
7FFFFE
38001C
1C0038
0E0070
0700E0
0381C0
018180
000000
000000
000000
000000
000000
000000
000000
000000
000000
000000
ENDCHAR
STARTCHAR char24
ENCODING 24
SWIDTH 1633 0
DWIDTH 23 0
BBX 21 39 1 -8
BITMAP
000000
000000
000000
000000
000000
000000
000000
000000
000000
000000
000000
000000
000000
000000
018000
038000
070000
0E0000
1C0000
380000
7FFFF8
FFFFF8
7FFFF8
380000
1C0000
0E0000
070000
038000
018000
000000
000000
000000
000000
000000
000000
000000
000000
000000
000000
ENDCHAR
STARTCHAR char25
ENCODING 25
SWIDTH 1633 0
DWIDTH 23 0
BBX 21 39 1 -8
BITMAP
000000
000000
000000
000000
000000
000000
000000
000000
000000
000000
000000
000000
000000
000000
000C00
000E00
000700
000380
0001C0
0000E0
FFFFF0
FFFFF8
FFFFF0
0000E0
0001C0
000380
000700
000E00
000C00
000000
000000
000000
000000
000000
000000
000000
000000
000000
000000
ENDCHAR
STARTCHAR char26
ENCODING 26
SWIDTH 1420 0
DWIDTH 20 0
BBX 18 39 1 -8
BITMAP
000000
000000
000000
000000
000700
000700
000F00
000E00
001E00
001C00
003C00
003800
FFFFC0
FFFFC0
FFFFC0
00E000
01E000
01C000
FFFFC0
FFFFC0
FFFFC0
070000
0F0000
0E0000
1E0000
1C0000
3C0000
380000
380000
000000
000000
000000
000000
000000
000000
000000
000000
000000
000000
ENDCHAR
STARTCHAR char27
ENCODING 27
SWIDTH 1633 0
DWIDTH 23 0
BBX 20 39 1 -8
BITMAP
000000
000000
000000
006000
006000
00F000
00F000
01F800
01F800
03FC00
079E00
0F0F00
1E0780
3E03C0
F801F0
F801F0
3C03C0
1E0780
0F0F00
079E00
03FC00
01F800
01F800
00F000
00F000
006000
006000
006000
000000
000000
000000
000000
000000
000000
000000
000000
000000
000000
000000
ENDCHAR
STARTCHAR char28
ENCODING 28
SWIDTH 1420 0
DWIDTH 20 0
BBX 18 39 1 -8
BITMAP
000000
000000
000000
000000
000000
000000
000000
000000
0001C0
0007C0
001F80
007E00
01F800
07E000
1F8000
7E0000
F80000
7E0000
1F8000
07E000
01F800
007E00
001F80
0007C0
0001C0
000000
000000
000000
FFFFC0
FFFFC0
FFFFC0
000000
000000
000000
000000
000000
000000
000000
000000
ENDCHAR
STARTCHAR char29
ENCODING 29
SWIDTH 1420 0
DWIDTH 20 0
BBX 18 39 1 -8
BITMAP
000000
000000
000000
000000
000000
000000
000000
000000
E00000
F80000
7E0000
1F8000
07E000
01F800
007E00
001F80
0007C0
001F80
007E00
01F800
07E000
1F8000
7E0000
F80000
E00000
000000
000000
000000
FFFFC0
FFFFC0
FFFFC0
000000
000000
000000
000000
000000
000000
000000
000000
ENDCHAR
STARTCHAR char30
ENCODING 30
SWIDTH 1065 0
DWIDTH 15 0
BBX 13 39 1 -8
BITMAP
0000
0000
0000
0000
0000
0000
0000
0000
0000
0000
0000
0000
0000
0000
0000
FFF8
FFF8
FFF8
0000
0000
FFF8
FFF8
FFF8
0000
0000
FFF8
FFF8
FFF8
0000
0000
0000
0000
0000
0000
0000
0000
0000
0000
0000
ENDCHAR
STARTCHAR char31
ENCODING 31
SWIDTH 1491 0
DWIDTH 21 0
BBX 19 39 1 -8
BITMAP
000000
000000
000000
000000
000000
000000
000000
000000
000000
000000
000000
000000
E000E0
E000E0
7001C0
7001C0
380380
380380
1C0700
1C0700
0E0E00
0E0E00
071C00
071C00
03B800
03B800
01F000
01F000
00E000
00E000
004000
000000
000000
000000
000000
000000
000000
000000
000000
ENDCHAR
STARTCHAR char32
ENCODING 32
SWIDTH 1207 0
DWIDTH 17 0
BBX 1 39 0 -8
BITMAP
00
00
00
00
00
00
00
00
00
00
00
00
00
00
00
00
00
00
00
00
00
00
00
00
00
00
00
00
00
00
00
00
00
00
00
00
00
00
00
ENDCHAR
STARTCHAR char33
ENCODING 33
SWIDTH 710 0
DWIDTH 10 0
BBX 6 39 2 -8
BITMAP
00
00
78
FC
FC
FC
FC
FC
FC
FC
78
78
78
78
78
78
78
30
30
30
30
30
30
30
00
00
30
78
FC
78
30
00
00
00
00
00
00
00
00
ENDCHAR
STARTCHAR char34
ENCODING 34
SWIDTH 923 0
DWIDTH 13 0
BBX 9 39 2 -8
BITMAP
0000
0000
E380
E380
E380
E380
E380
E380
E380
E380
6180
6180
0000
0000
0000
0000
0000
0000
0000
0000
0000
0000
0000
0000
0000
0000
0000
0000
0000
0000
0000
0000
0000
0000
0000
0000
0000
0000
0000
ENDCHAR
STARTCHAR char35
ENCODING 35
SWIDTH 1491 0
DWIDTH 21 0
BBX 19 39 1 -8
BITMAP
000000
000000
000000
000000
000000
000000
000000
FFFFE0
FFFFE0
FFFFE0
FFFFE0
FFFFE0
FFFFE0
FFFFE0
FFFFE0
FFFFE0
FFFFE0
FFFFE0
FFFFE0
FFFFE0
FFFFE0
FFFFE0
FFFFE0
FFFFE0
FFFFE0
FFFFE0
000000
000000
000000
000000
000000
000000
000000
000000
000000
000000
000000
000000
000000
ENDCHAR
STARTCHAR char36
ENCODING 36
SWIDTH 1491 0
DWIDTH 21 0
BBX 17 39 2 -8
BITMAP
000000
018000
018000
03C000
0FFC00
1FFE00
398E00
718600
718200
F18200
F18200
798000
7D8000
3F8000
3F8000
1FE000
0FF000
03FC00
01FE00
01FE00
019F00
018F00
018F80
418780
418780
418700
618700
718E00
799C00
3FF800
0FE000
018000
018000
000000
000000
000000
000000
000000
000000
ENDCHAR
STARTCHAR char37
ENCODING 37
SWIDTH 2485 0
DWIDTH 35 0
BBX 31 39 2 -8
BITMAP
00000000
00000000
00000000
00000180
03E00380
0FFC0700
1E1F3F00
3C0FFE00
780EEE00
780C1C00
700C1800
F0183000
F0187000
F0306000
7030C000
7861C020
3FC181F8
1F0383DC
0407070C
00060E06
000C1E06
001C1C06
00183C0E
00303C0E
0070780E
0060781C
00C0381C
01C03838
01801CF0
03001FE0
07000300
00000000
00000000
00000000
00000000
00000000
00000000
00000000
00000000
ENDCHAR
STARTCHAR char38
ENCODING 38
SWIDTH 1846 0
DWIDTH 26 0
BBX 24 39 1 -8
BITMAP
000000
000000
000000
000000
003C00
00FF00
01E700
03C380
038380
078380
078380
07C700
07C700
07CE7F
03F87F
03F03E
03F03C
07F038
0FF838
3CF830
787C70
707E60
F03EC0
F01FC0
F01F80
F00FC0
F007E0
F81FF0
FE7FFF
7FF1FF
3FE07F
0F8018
000000
000000
000000
000000
000000
000000
000000
ENDCHAR
STARTCHAR char39
ENCODING 39
SWIDTH 639 0
DWIDTH 9 0
BBX 5 39 2 -8
BITMAP
00
00
70
F8
F8
F8
38
38
70
E0
C0
00
00
00
00
00
00
00
00
00
00
00
00
00
00
00
00
00
00
00
00
00
00
00
00
00
00
00
00
ENDCHAR
STARTCHAR char40
ENCODING 40
SWIDTH 1207 0
DWIDTH 17 0
BBX 12 39 3 -8
BITMAP
0000
0030
00E0
01C0
0380
0700
0E00
0E00
1C00
1C00
3C00
3800
3800
7800
7800
7800
7800
F000
F000
F000
F000
7800
7800
7800
7800
3800
3800
3C00
1C00
1C00
0E00
0E00
0700
0380
01C0
00E0
0030
0000
0000
ENDCHAR
STARTCHAR char41
ENCODING 41
SWIDTH 1207 0
DWIDTH 17 0
BBX 12 39 2 -8
BITMAP
0000
C000
7000
3800
1C00
0E00
0700
0700
0380
0380
03C0
01C0
01C0
01E0
01E0
01E0
01E0
00F0
00F0
00F0
00F0
01E0
01E0
01E0
01E0
01C0
01C0
03C0
0380
0380
0700
0700
0E00
1C00
3800
7000
C000
0000
0000
ENDCHAR
STARTCHAR char42
ENCODING 42
SWIDTH 1136 0
DWIDTH 16 0
BBX 14 39 1 -8
BITMAP
0000
0000
0000
0000
0000
0000
0000
0300
0300
0780
0780
F33C
F33C
FB7C
1FF0
0780
0780
1FF0
FB7C
F33C
F33C
0780
0780
0300
0300
0000
0000
0000
0000
0000
0000
0000
0000
0000
0000
0000
0000
0000
0000
ENDCHAR
STARTCHAR char43
ENCODING 43
SWIDTH 1065 0
DWIDTH 15 0
BBX 13 39 1 -8
BITMAP
0000
0000
0000
0000
0000
0000
0000
0000
0000
0000
0000
0000
0000
0000
0700
0700
0700
0700
0700
FFF8
FFF8
FFF8
0700
0700
0700
0700
0700
0000
0000
0000
0000
0000
0000
0000
0000
0000
0000
0000
0000
ENDCHAR
STARTCHAR char44
ENCODING 44
SWIDTH 639 0
DWIDTH 9 0
BBX 5 39 2 -8
BITMAP
00
00
00
00
00
00
00
00
00
00
00
00
00
00
00
00
00
00
00
00
00
00
00
00
00
00
00
00
70
F8
F8
F8
38
38
70
E0
C0
00
00
ENDCHAR
STARTCHAR char45
ENCODING 45
SWIDTH 923 0
DWIDTH 13 0
BBX 11 39 1 -8
BITMAP
0000
0000
0000
0000
0000
0000
0000
0000
0000
0000
0000
0000
0000
0000
0000
0000
0000
0000
0000
FFE0
FFE0
FFE0
0000
0000
0000
0000
0000
0000
0000
0000
0000
0000
0000
0000
0000
0000
0000
0000
0000
ENDCHAR
STARTCHAR char46
ENCODING 46
SWIDTH 710 0
DWIDTH 10 0
BBX 6 39 2 -8
BITMAP
00
00
00
00
00
00
00
00
00
00
00
00
00
00
00
00
00
00
00
00
00
00
00
00
00
00
00
30
78
FC
78
30
00
00
00
00
00
00
00
ENDCHAR
STARTCHAR char47
ENCODING 47
SWIDTH 1136 0
DWIDTH 16 0
BBX 12 39 2 -8
BITMAP
0000
0000
0030
0030
0030
0070
0060
0060
00E0
00C0
00C0
01C0
0180
0180
0380
0300
0300
0700
0600
0600
0E00
0C00
0C00
1C00
1800
1800
3800
3000
3000
7000
6000
6000
E000
C000
C000
0000
0000
0000
0000
ENDCHAR
STARTCHAR char48
ENCODING 48
SWIDTH 1420 0
DWIDTH 20 0
BBX 18 39 1 -8
BITMAP
000000
000000
000000
01E000
0FFC00
1E1E00
3C0F00
380700
780780
780780
700380
F003C0
F003C0
F003C0
F003C0
F003C0
F003C0
F003C0
F003C0
F003C0
F003C0
F003C0
F003C0
700380
780780
780780
380700
3C0F00
1E1E00
0FFC00
01E000
000000
000000
000000
000000
000000
000000
000000
000000
ENDCHAR
STARTCHAR char49
ENCODING 49
SWIDTH 852 0
DWIDTH 12 0
BBX 10 39 1 -8
BITMAP
0000
0000
0000
0200
0E00
3E00
FE00
FE00
1E00
1E00
1E00
1E00
1E00
1E00
1E00
1E00
1E00
1E00
1E00
1E00
1E00
1E00
1E00
1E00
1E00
1E00
1E00
1E00
3F00
FFC0
FFC0
0000
0000
0000
0000
0000
0000
0000
0000
ENDCHAR
STARTCHAR char50
ENCODING 50
SWIDTH 1349 0
DWIDTH 19 0
BBX 17 39 1 -8
BITMAP
000000
000000
000000
000000
0FE000
1FF800
3FF800
71FC00
607C00
C03C00
803C00
001E00
001E00
001C00
003C00
003C00
003800
007000
007000
00E000
00C000
018000
038000
070000
0E0000
1C0180
380300
7FFF00
7FFE00
FFFE00
FFFC00
000000
000000
000000
000000
000000
000000
000000
000000
ENDCHAR
STARTCHAR char51
ENCODING 51
SWIDTH 1207 0
DWIDTH 17 0
BBX 15 39 1 -8
BITMAP
0000
0000
0000
0780
1FE0
3FF0
79F8
4078
C078
0038
0038
0038
0070
0060
00E0
03F0
0FF8
03FC
007C
003C
003E
001E
001E
001E
001C
001C
6038
F038
F8F0
FFC0
3F00
0000
0000
0000
0000
0000
0000
0000
0000
ENDCHAR
STARTCHAR char52
ENCODING 52
SWIDTH 1420 0
DWIDTH 20 0
BBX 18 39 1 -8
BITMAP
000000
000000
000000
001C00
003C00
003C00
007C00
007C00
00FC00
01FC00
03BC00
033C00
073C00
063C00
0C3C00
1C3C00
383C00
303C00
703C00
603C00
FFFFC0
FFFFC0
FFFFC0
FFFFC0
003C00
003C00
003C00
003C00
003C00
003C00
003C00
000000
000000
000000
000000
000000
000000
000000
000000
ENDCHAR
STARTCHAR char53
ENCODING 53
SWIDTH 1207 0
DWIDTH 17 0
BBX 15 39 1 -8
BITMAP
0000
0000
0000
0000
0FFC
0FFC
0FFC
1FFC
1800
3000
3E00
7F80
7FC0
FFE0
1FF0
03F8
00FC
007C
003C
003C
001E
001E
001E
001C
001C
0018
6038
F870
FFE0
FFC0
3E00
0000
0000
0000
0000
0000
0000
0000
0000
ENDCHAR
STARTCHAR char54
ENCODING 54
SWIDTH 1278 0
DWIDTH 18 0
BBX 16 39 1 -8
BITMAP
0000
0000
0000
001F
0078
01E0
0380
0700
0F00
1E00
1C00
3C00
7C00
79F0
7BFC
FFFE
FE3E
F01F
F00F
F00F
F00F
F007
F007
F807
780F
780F
7C0E
3C1E
1F3C
0FF8
03E0
0000
0000
0000
0000
0000
0000
0000
0000
ENDCHAR
STARTCHAR char55
ENCODING 55
SWIDTH 1278 0
DWIDTH 18 0
BBX 16 39 1 -8
BITMAP
0000
0000
0000
0000
7FFF
7FFF
7FFE
FFFE
C00E
800E
001C
001C
001C
0038
0038
0038
0070
0070
0070
00F0
00E0
00E0
00E0
01C0
01C0
01C0
0380
0380
0380
0700
0300
0000
0000
0000
0000
0000
0000
0000
0000
ENDCHAR
STARTCHAR char56
ENCODING 56
SWIDTH 1207 0
DWIDTH 17 0
BBX 15 39 1 -8
BITMAP
0000
0000
0000
0380
1FF0
3CF8
3038
701C
701C
701C
701C
7818
7C38
3E70
3FE0
1FC0
0FE0
0FF0
1FF8
38FC
707C
703E
701E
F01E
F00E
F00E
700C
781C
3C38
1FF0
07C0
0000
0000
0000
0000
0000
0000
0000
0000
ENDCHAR
STARTCHAR char57
ENCODING 57
SWIDTH 1278 0
DWIDTH 18 0
BBX 16 39 1 -8
BITMAP
0000
0000
0000
03C0
0FF8
1E7C
383C
381E
700E
700F
F00F
F00F
F007
F807
7807
7807
7C0F
3E1F
1FFF
0FFF
030E
001E
001C
003C
0038
0078
00F0
01E0
0780
3F00
7800
0000
0000
0000
0000
0000
0000
0000
0000
ENDCHAR
STARTCHAR char58
ENCODING 58
SWIDTH 781 0
DWIDTH 11 0
BBX 7 39 2 -8
BITMAP
00
00
00
00
00
00
00
00
00
00
00
00
00
38
7C
FE
FE
7C
38
00
00
00
00
00
00
38
7C
FE
FE
7C
38
00
00
00
00
00
00
00
00
ENDCHAR
STARTCHAR char59
ENCODING 59
SWIDTH 781 0
DWIDTH 11 0
BBX 7 39 2 -8
BITMAP
00
00
00
00
00
00
00
00
00
00
00
00
00
38
7C
FE
FE
7C
38
00
00
00
00
00
00
38
7C
FE
FE
7E
3E
0E
0E
1C
38
70
00
00
00
ENDCHAR
STARTCHAR char60
ENCODING 60
SWIDTH 1704 0
DWIDTH 24 0
BBX 20 39 2 -8
BITMAP
000000
000000
000000
000000
000000
000000
000000
000000
000000
000000
000030
0000F0
0003F0
000FC0
003F00
00FC00
03F000
0FC000
3F0000
FC0000
3F0000
0FC000
03F000
00FC00
003F00
000FC0
0003F0
0000F0
000030
000000
000000
000000
000000
000000
000000
000000
000000
000000
000000
ENDCHAR
STARTCHAR char61
ENCODING 61
SWIDTH 1704 0
DWIDTH 24 0
BBX 20 39 2 -8
BITMAP
000000
000000
000000
000000
000000
000000
000000
000000
000000
000000
000000
000000
000000
000000
FFFFF0
FFFFF0
FFFFF0
000000
000000
000000
000000
000000
FFFFF0
FFFFF0
FFFFF0
000000
000000
000000
000000
000000
000000
000000
000000
000000
000000
000000
000000
000000
000000
ENDCHAR
STARTCHAR char62
ENCODING 62
SWIDTH 1704 0
DWIDTH 24 0
BBX 20 39 2 -8
BITMAP
000000
000000
000000
000000
000000
000000
000000
000000
000000
000000
C00000
F00000
FC0000
3F0000
0FC000
03F000
00FC00
003F00
000FC0
0003F0
000FC0
003F00
00FC00
03F000
0FC000
3F0000
FC0000
F00000
C00000
000000
000000
000000
000000
000000
000000
000000
000000
000000
000000
ENDCHAR
STARTCHAR char63
ENCODING 63
SWIDTH 1207 0
DWIDTH 17 0
BBX 13 39 2 -8
BITMAP
0000
0000
0000
0700
1FC0
3FE0
70F0
6070
F038
F038
F038
6038
0038
0078
0078
00F0
01E0
03C0
0380
0780
0700
0700
0700
0000
0000
0000
0300
0780
0FC0
0FC0
0780
0300
0000
0000
0000
0000
0000
0000
0000
ENDCHAR
STARTCHAR char64
ENCODING 64
SWIDTH 2130 0
DWIDTH 30 0
BBX 26 39 2 -8
BITMAP
00000000
00000000
00000000
003F0000
00FFC000
03F3E000
07007000
0E001800
1C000C00
18000400
380C2600
303F6600
7071C300
60E1C300
E0C0C300
E1C0C300
E1C0C300
E1818200
E3818200
E3818600
E38384C0
61838CC0
71C78980
30FDF900
3838E300
18000200
1C000600
0E000C00
0F003800
07E3F000
00FF8000
001C0000
00000000
00000000
00000000
00000000
00000000
00000000
00000000
ENDCHAR
STARTCHAR char65
ENCODING 65
SWIDTH 2201 0
DWIDTH 31 0
BBX 29 39 1 -8
BITMAP
00000000
00000000
00000000
00000000
00030000
00030000
00078000
00078000
000FC000
000FC000
001FC000
001FE000
003BE000
003BF000
0071F000
0071F000
00E0F800
00E0F800
01C07C00
01C07C00
03FFFE00
03FFFE00
07FFFE00
07001F00
0E001F00
0E000F80
1C000F80
1C0007C0
3E000FE0
FF803FF8
FF803FF8
00000000
00000000
00000000
00000000
00000000
00000000
00000000
00000000
ENDCHAR
STARTCHAR char66
ENCODING 66
SWIDTH 1775 0
DWIDTH 25 0
BBX 23 39 1 -8
BITMAP
000000
000000
000000
000000
FFFFC0
FFFFF0
3F81F8
0F80F8
0F807C
0F803C
0F803E
0F803E
0F803E
0F803C
0F807C
0F81F8
0FFFF0
0FFFF8
0F81FC
0F807C
0F807E
0F803E
0F803E
0F803E
0F803E
0F803E
0F807C
0F80FC
3F83F8
FFFFE0
FFFF80
000000
000000
000000
000000
000000
000000
000000
000000
ENDCHAR
STARTCHAR char67
ENCODING 67
SWIDTH 1917 0
DWIDTH 27 0
BBX 25 39 1 -8
BITMAP
00000000
00000000
00000000
00000000
003FF100
01FFFF00
03E07F00
07C01F00
0F800780
1F000380
3E000380
3E000180
7C000180
7C000080
7C000000
FC000000
FC000000
FC000000
F8000000
FC000000
FC000000
FC000000
7C000000
7E000000
3E000080
3F000180
1F800300
0FE00E00
07FFFE00
03FFF800
00FFE000
000F0000
00000000
00000000
00000000
00000000
00000000
00000000
00000000
ENDCHAR
STARTCHAR char68
ENCODING 68
SWIDTH 2201 0
DWIDTH 31 0
BBX 29 39 1 -8
BITMAP
00000000
00000000
00000000
00000000
FFFFE000
FFFFFC00
1F80FF00
0F803F80
0F801FC0
0F800FE0
0F8007E0
0F8003F0
0F8001F0
0F8001F0
0F8001F8
0F8000F8
0F8000F8
0F8000F8
0F8000F8
0F8000F8
0F8001F8
0F8001F0
0F8001F0
0F8003F0
0F8003E0
0F8007C0
0F800FC0
0F803F80
1FFFFE00
FFFFF800
FFFF8000
00000000
00000000
00000000
00000000
00000000
00000000
00000000
00000000
ENDCHAR
STARTCHAR char69
ENCODING 69
SWIDTH 1917 0
DWIDTH 27 0
BBX 25 39 0 -8
BITMAP
00000000
00000000
00000000
00000000
FFFFFC00
FFFFFC00
3F807C00
0F801C00
0F800C00
0F800C00
0F800C00
0F800000
0F801000
0F803000
0F803000
0F807000
0FFFF000
0FFFF000
0F807000
0F803000
0F803000
0F801000
0F800000
0F800080
0F800180
0F800300
0F800700
0F800F00
3FFFFE00
FFFFFE00
FFFFFC00
00000000
00000000
00000000
00000000
00000000
00000000
00000000
00000000
ENDCHAR
STARTCHAR char70
ENCODING 70
SWIDTH 1775 0
DWIDTH 25 0
BBX 23 39 1 -8
BITMAP
000000
000000
000000
000000
FFFFFE
FFFFFE
3F801E
0F800E
0F8006
0F8006
0F8002
0F8000
0F8060
0F8060
0F80E0
0FFFE0
0FFFE0
0FFFE0
0F80E0
0F8060
0F8060
0F8000
0F8000
0F8000
0F8000
0F8000
0F8000
0F8000
3FC000
FFF000
FFF000
000000
000000
000000
000000
000000
000000
000000
000000
ENDCHAR
STARTCHAR char71
ENCODING 71
SWIDTH 2201 0
DWIDTH 31 0
BBX 29 39 1 -8
BITMAP
00000000
00000000
00000000
00000180
007FF180
01FFFF80
03F03F80
0F800F80
0F000780
1E0003C0
3E0001C0
3C0000C0
7C0000C0
7C000000
F8000000
F8000000
F8007FF8
F8007FF8
F8000FE0
F80007C0
F80007C0
7C0007C0
7C0007C0
7C0007C0
3E0007C0
3E0007C0
1F0007C0
0F8007C0
07F01FC0
03FFFF00
00FFFC00
0007C000
00000000
00000000
00000000
00000000
00000000
00000000
00000000
ENDCHAR
STARTCHAR char72
ENCODING 72
SWIDTH 2201 0
DWIDTH 31 0
BBX 29 39 1 -8
BITMAP
00000000
00000000
00000000
00000000
FFF07FF8
FFF07FF8
3FC01FE0
0F800F80
0F800F80
0F800F80
0F800F80
0F800F80
0F800F80
0F800F80
0F800F80
0F800F80
0FFFFF80
0FFFFF80
0F800F80
0F800F80
0F800F80
0F800F80
0F800F80
0F800F80
0F800F80
0F800F80
0F800F80
0F800F80
3FC01FE0
FFF07FF8
FFF07FF8
00000000
00000000
00000000
00000000
00000000
00000000
00000000
00000000
ENDCHAR
STARTCHAR char73
ENCODING 73
SWIDTH 1065 0
DWIDTH 15 0
BBX 13 39 1 -8
BITMAP
0000
0000
0000
0000
FFF8
FFF8
3FE0
0F80
0F80
0F80
0F80
0F80
0F80
0F80
0F80
0F80
0F80
0F80
0F80
0F80
0F80
0F80
0F80
0F80
0F80
0F80
0F80
0F80
3FE0
FFF8
FFF8
0000
0000
0000
0000
0000
0000
0000
0000
ENDCHAR
STARTCHAR char74
ENCODING 74
SWIDTH 1278 0
DWIDTH 18 0
BBX 15 39 1 -8
BITMAP
0000
0000
0000
0000
1FFE
1FFE
03F8
01F0
01F0
01F0
01F0
01F0
01F0
01F0
01F0
01F0
01F0
01F0
01F0
01F0
01F0
01F0
01F0
01F0
01E0
61E0
F1E0
F3C0
FFC0
FF80
7E00
0000
0000
0000
0000
0000
0000
0000
0000
ENDCHAR
STARTCHAR char75
ENCODING 75
SWIDTH 2201 0
DWIDTH 31 0
BBX 30 39 1 -8
BITMAP
00000000
00000000
00000000
00000000
FFF8FFF0
FFF8FFE0
3FE03F80
0F803C00
0F807800
0F80F000
0F81E000
0F83C000
0F878000
0F8F0000
0F9E0000
0FBC0000
0FFE0000
0FFF0000
0FFF8000
0FDFC000
0F8FE000
0F87F000
0F83F800
0F81FC00
0F80FE00
0F807F00
0F803F80
0F801FC0
3FE01FF0
FFF87FFC
FFF87FFC
00000000
00000000
00000000
00000000
00000000
00000000
00000000
00000000
ENDCHAR
STARTCHAR char76
ENCODING 76
SWIDTH 1775 0
DWIDTH 25 0
BBX 23 39 1 -8
BITMAP
000000
000000
000000
000000
FFF800
FFF800
3FE000
0F8000
0F8000
0F8000
0F8000
0F8000
0F8000
0F8000
0F8000
0F8000
0F8000
0F8000
0F8000
0F8000
0F8000
0F8000
0F8000
0F8002
0F8002
0F8006
0F800E
0F801C
3F80FC
FFFFF8
FFFFF8
000000
000000
000000
000000
000000
000000
000000
000000
ENDCHAR
STARTCHAR char77
ENCODING 77
SWIDTH 2698 0
DWIDTH 38 0
BBX 36 39 1 -8
BITMAP
0000000000
0000000000
0000000000
0000000000
FF80000FF0
FF80001FF0
3FC0001FC0
0FC0003F00
0FE0003F00
0FE0007F00
0FF0007F00
0FF000FF00
0DF800FF00
0DF801FF00
0CF801DF00
0CFC039F00
0C7C039F00
0C7E071F00
0C3E071F00
0C3F0E1F00
0C1F0E1F00
0C1F9C1F00
0C0F9C1F00
0C0FF81F00
0C07F81F00
0C07F01F00
0C03F01F00
0C03E01F00
3F01E07FC0
FFC1C1FFF0
FFC0C1FFF0
0000000000
0000000000
0000000000
0000000000
0000000000
0000000000
0000000000
0000000000
ENDCHAR
STARTCHAR char78
ENCODING 78
SWIDTH 2272 0
DWIDTH 32 0
BBX 30 39 1 -8
BITMAP
00000000
00000000
00000000
00000000
FF000FFC
FF800FFC
3FC003F0
0FE000C0
0FF000C0
0FF000C0
0FF800C0
0DFC00C0
0CFE00C0
0C7F00C0
0C3F80C0
0C1F80C0
0C0FC0C0
0C07E0C0
0C07F0C0
0C03F8C0
0C01FCC0
0C00FEC0
0C007EC0
0C003FC0
0C001FC0
0C000FC0
0C000FC0
0C0007C0
3F0003C0
FFC001C0
FFC000C0
00000040
00000000
00000000
00000000
00000000
00000000
00000000
00000000
ENDCHAR
STARTCHAR char79
ENCODING 79
SWIDTH 2059 0
DWIDTH 29 0
BBX 27 39 1 -8
BITMAP
00000000
00000000
00000000
003FC000
00FFF000
03F1F800
0F803E00
1F001F00
1E000F00
3E000F80
7C0007C0
7C0007C0
7C0007C0
FC0007E0
FC0007E0
FC0007E0
FC0007E0
FC0007E0
FC0007E0
FC0007E0
FC0007E0
7C0007C0
7C0007C0
7C0007C0
3E000F80
1E000F00
1F001F00
0F803E00
03F1F800
00FFE000
003FC000
00000000
00000000
00000000
00000000
00000000
00000000
00000000
00000000
ENDCHAR
STARTCHAR char80
ENCODING 80
SWIDTH 1704 0
DWIDTH 24 0
BBX 22 39 1 -8
BITMAP
000000
000000
000000
000000
FFFF80
FFFFE0
3F83F0
0F80F8
0F80F8
0F807C
0F807C
0F807C
0F807C
0F807C
0F80F8
0F80F8
0FC3F0
0FFFE0
0FFF00
0F8000
0F8000
0F8000
0F8000
0F8000
0F8000
0F8000
0F8000
0F8000
1FC000
FFF800
FFF800
000000
000000
000000
000000
000000
000000
000000
000000
ENDCHAR
STARTCHAR char81
ENCODING 81
SWIDTH 2059 0
DWIDTH 29 0
BBX 27 39 1 -8
BITMAP
00000000
00000000
00000000
003FC000
00FFF000
03F1F800
0F803E00
1F001F00
1E000F00
3E000F80
7C0007C0
7C0007C0
7C0007C0
FC0007E0
FC0007E0
FC0007E0
FC0007E0
FC0007E0
FC0007E0
FC0007E0
FC0007E0
7C0007C0
7C0007C0
7C0007C0
3E000F80
1E000F00
0F001E00
07803C00
03E0F800
00FFE000
003FC000
001FC000
000FE000
0007F000
0001F800
00007C00
00001F00
00000780
000000E0
ENDCHAR
STARTCHAR char82
ENCODING 82
SWIDTH 2130 0
DWIDTH 30 0
BBX 28 39 1 -8
BITMAP
00000000
00000000
00000000
00000000
FFFF8000
FFFFF000
1FFFF800
0F81F800
0F80FC00
0F807C00
0F807C00
0F807C00
0F807C00
0F80F800
0F81F800
0FFFF000
0FFFC000
0FFF0000
0F9F0000
0F8F8000
0F87C000
0F87E000
0F83F000
0F81F800
0F80F800
0F807C00
0F807E00
0F803F00
1FC01FC0
FFF83FF0
FFF83FF0
00000000
00000000
00000000
00000000
00000000
00000000
00000000
00000000
ENDCHAR
STARTCHAR char83
ENCODING 83
SWIDTH 1349 0
DWIDTH 19 0
BBX 17 39 1 -8
BITMAP
000000
000000
000000
018000
0FF300
3FFF00
781F00
F00F00
F00700
F00300
F80300
F80300
FE0000
7F8000
7FE000
3FF800
1FFC00
07FE00
03FF00
00FF00
003F80
001F80
C00F80
C00780
C00780
E00780
E00780
F80F00
FE3E00
FFFC00
C7F800
00C000
000000
000000
000000
000000
000000
000000
000000
ENDCHAR
STARTCHAR char84
ENCODING 84
SWIDTH 1917 0
DWIDTH 27 0
BBX 25 39 1 -8
BITMAP
00000000
00000000
00000000
00000000
7FFFFF00
7FFFFF00
7FFFFF00
E03E0380
C03E0180
C03E0180
003E0000
003E0000
003E0000
003E0000
003E0000
003E0000
003E0000
003E0000
003E0000
003E0000
003E0000
003E0000
003E0000
003E0000
003E0000
003E0000
003E0000
003E0000
007F0000
03FFE000
03FFE000
00000000
00000000
00000000
00000000
00000000
00000000
00000000
00000000
ENDCHAR
STARTCHAR char85
ENCODING 85
SWIDTH 2130 0
DWIDTH 30 0
BBX 28 39 1 -8
BITMAP
00000000
00000000
00000000
00000000
FFF80FF0
FFF80FF0
1FC003C0
0F800180
0F800180
0F800180
0F800180
0F800180
0F800180
0F800180
0F800180
0F800180
0F800180
0F800180
0F800180
0F800180
0F800180
0F800180
0F800180
0F800180
0F800180
0F800380
0FC00300
07C00700
07F00E00
03FFFC00
01FFF800
007FC000
00000000
00000000
00000000
00000000
00000000
00000000
00000000
ENDCHAR
STARTCHAR char86
ENCODING 86
SWIDTH 1917 0
DWIDTH 27 0
BBX 25 39 1 -8
BITMAP
00000000
00000000
00000000
00000000
FFF03F80
FFF03F80
3F800E00
1F800C00
0F800C00
0F800800
07C01800
07C01800
07E03000
03E03000
03E03000
03F06000
01F06000
01F86000
01F8C000
00F8C000
00FCC000
00FD8000
007F8000
007F8000
007F0000
003F0000
003F0000
003E0000
001E0000
001E0000
001C0000
000C0000
00000000
00000000
00000000
00000000
00000000
00000000
00000000
ENDCHAR
STARTCHAR char87
ENCODING 87
SWIDTH 2698 0
DWIDTH 38 0
BBX 36 39 1 -8
BITMAP
0000000000
0000000000
0000000000
0000000000
FFCFFE0FF0
FFCFFE0FF0
3F83F803C0
3F01F00180
1F01F80180
1F00F80300
1F80F80300
0F80FC0300
0F80FC0600
0FC0FC0600
07C0FE0600
07C1BE0C00
07E1BE0C00
03E19F0C00
03E31F1800
03F31F9800
01F30FB800
01FE0FF000
01FE0FF000
00FE07F000
00FC07E000
00FC07E000
007C03E000
007803C000
007803C000
003801C000
0030018000
0030018000
0000000000
0000000000
0000000000
0000000000
0000000000
0000000000
0000000000
ENDCHAR
STARTCHAR char88
ENCODING 88
SWIDTH 2201 0
DWIDTH 31 0
BBX 29 39 1 -8
BITMAP
00000000
00000000
00000000
00000000
7FF81FF8
7FF81FF8
1FE007E0
07E00780
03F00700
01F00E00
01F81C00
00FC3800
007E7000
007EE000
003FE000
001FC000
001F8000
000FC000
000FE000
001FE000
001BF000
0039F800
0070F800
00E0FC00
01C07E00
03803F00
07001F00
0E001F80
3E000FC0
FFC03FF8
FFC07FF8
00000000
00000000
00000000
00000000
00000000
00000000
00000000
00000000
ENDCHAR
STARTCHAR char89
ENCODING 89
SWIDTH 2130 0
DWIDTH 30 0
BBX 28 39 1 -8
BITMAP
00000000
00000000
00000000
00000000
FFF01FF0
FFF01FF0
3FC007C0
0FC00700
07C00700
03E00E00
03E00C00
01F01C00
01F81800
00F83800
007C7000
007C6000
003EE000
003FC000
001F8000
000F8000
000F0000
000F0000
000F0000
000F0000
000F0000
000F0000
000F0000
000F0000
001F8000
00FFF000
00FFF000
00000000
00000000
00000000
00000000
00000000
00000000
00000000
00000000
ENDCHAR
STARTCHAR char90
ENCODING 90
SWIDTH 1846 0
DWIDTH 26 0
BBX 24 39 1 -8
BITMAP
000000
000000
000000
000000
3FFFFE
3FFFFE
3FFFFC
3000F8
3001F8
2003F0
6003E0
6007E0
0007C0
000F80
001F00
003F00
003E00
007C00
00FC00
00F800
01F000
03F000
03E000
07C001
0FC003
1F8003
1F0003
3E0006
7E001E
7FFFFE
FFFFFE
000000
000000
000000
000000
000000
000000
000000
000000
ENDCHAR
STARTCHAR char91
ENCODING 91
SWIDTH 852 0
DWIDTH 12 0
BBX 7 39 3 -8
BITMAP
00
00
FE
FE
E0
E0
E0
E0
E0
E0
E0
E0
E0
E0
E0
E0
E0
E0
E0
E0
E0
E0
E0
E0
E0
E0
E0
E0
E0
E0
E0
E0
E0
E0
E0
FE
FE
00
00
ENDCHAR
STARTCHAR char92
ENCODING 92
SWIDTH 1136 0
DWIDTH 16 0
BBX 12 39 2 -8
BITMAP
0000
0000
C000
C000
C000
E000
6000
6000
7000
3000
3000
3800
1800
1800
1C00
0C00
0C00
0E00
0600
0600
0700
0300
0300
0380
0180
0180
01C0
00C0
00C0
00E0
0060
0060
0070
0030
0030
0000
0000
0000
0000
ENDCHAR
STARTCHAR char93
ENCODING 93
SWIDTH 781 0
DWIDTH 11 0
BBX 7 39 2 -8
BITMAP
00
00
FE
FE
0E
0E
0E
0E
0E
0E
0E
0E
0E
0E
0E
0E
0E
0E
0E
0E
0E
0E
0E
0E
0E
0E
0E
0E
0E
0E
0E
0E
0E
0E
0E
FE
FE
00
00
ENDCHAR
STARTCHAR char94
ENCODING 94
SWIDTH 1633 0
DWIDTH 23 0
BBX 21 39 1 -8
BITMAP
000000
000000
000000
001000
003800
007C00
00EE00
01C700
038380
0701C0
0E00E0
1C0070
380038
700018
E00008
000000
000000
000000
000000
000000
000000
000000
000000
000000
000000
000000
000000
000000
000000
000000
000000
000000
000000
000000
000000
000000
000000
000000
000000
ENDCHAR
STARTCHAR char95
ENCODING 95
SWIDTH 1491 0
DWIDTH 21 0
BBX 19 39 1 -8
BITMAP
000000
000000
000000
000000
000000
000000
000000
000000
000000
000000
000000
000000
000000
000000
000000
000000
000000
000000
000000
000000
000000
000000
000000
000000
000000
000000
000000
000000
000000
000000
000000
FFFFE0
FFFFE0
FFFFE0
000000
000000
000000
000000
000000
ENDCHAR
STARTCHAR char96
ENCODING 96
SWIDTH 639 0
DWIDTH 9 0
BBX 5 39 2 -8
BITMAP
00
00
18
38
70
E0
E0
F8
F8
F8
70
00
00
00
00
00
00
00
00
00
00
00
00
00
00
00
00
00
00
00
00
00
00
00
00
00
00
00
00
ENDCHAR
STARTCHAR char97
ENCODING 97
SWIDTH 1278 0
DWIDTH 18 0
BBX 17 39 1 -8
BITMAP
000000
000000
000000
000000
000000
000000
000000
000000
000000
000000
000000
000000
07C000
1FF000
387800
783800
783C00
783C00
703C00
00FC00
03FC00
0F3C00
3C3C00
383C00
703C00
F03C00
F03C00
F07D80
FFFF80
7FBF00
3F1E00
000000
000000
000000
000000
000000
000000
000000
000000
ENDCHAR
STARTCHAR char98
ENCODING 98
SWIDTH 1420 0
DWIDTH 20 0
BBX 19 39 0 -8
BITMAP
000000
000000
000000
040000
1E0000
7E0000
FE0000
1E0000
1E0000
1E0000
1E0000
1E0000
1E1000
1EFE00
1FFF00
1FFF80
1F0FC0
1E07C0
1E03E0
1E01E0
1E01E0
1E01E0
1E01E0
1E01E0
1E01C0
1E01C0
1E03C0
1E0380
1F0F00
0FFE00
07F800
01E000
000000
000000
000000
000000
000000
000000
000000
ENDCHAR
STARTCHAR char99
ENCODING 99
SWIDTH 1278 0
DWIDTH 18 0
BBX 16 39 1 -8
BITMAP
0000
0000
0000
0000
0000
0000
0000
0000
0000
0000
0000
0000
0180
07F0
1C7C
383C
303E
701E
F00C
E000
E000
E000
E000
E000
F001
F003
7806
7C1C
3FF8
1FF0
0FE0
0100
0000
0000
0000
0000
0000
0000
0000
ENDCHAR
STARTCHAR char100
ENCODING 100
SWIDTH 1491 0
DWIDTH 21 0
BBX 20 39 1 -8
BITMAP
000000
000000
000000
000180
000F80
003F80
000780
000780
000780
000780
000780
000780
01E780
07FF80
1F3F80
1C0F80
380780
780780
700780
700780
F00780
F00780
F00780
F80780
F80780
F80780
7C0780
7E0780
3F1FF0
1FFFE0
0FF780
038600
000000
000000
000000
000000
000000
000000
000000
ENDCHAR
STARTCHAR char101
ENCODING 101
SWIDTH 1207 0
DWIDTH 17 0
BBX 15 39 1 -8
BITMAP
0000
0000
0000
0000
0000
0000
0000
0000
0000
0000
0000
0000
0100
07E0
0EF8
183C
303C
701C
701E
7FFE
FFFC
E000
E000
E000
F000
7002
7802
7C0C
3FBC
1FF8
0FF0
0180
0000
0000
0000
0000
0000
0000
0000
ENDCHAR
STARTCHAR char102
ENCODING 102
SWIDTH 994 0
DWIDTH 14 0
BBX 14 39 1 -8
BITMAP
0000
0000
00E0
03F8
07FC
0E7C
0C3C
1C3C
1C18
1C00
3C00
3C00
3C00
FFC0
FFC0
3C00
3C00
3C00
3C00
3C00
3C00
3C00
3C00
3C00
3C00
3C00
3C00
3C00
3C00
FF00
FF00
0000
0000
0000
0000
0000
0000
0000
0000
ENDCHAR
STARTCHAR char103
ENCODING 103
SWIDTH 1349 0
DWIDTH 19 0
BBX 17 39 1 -8
BITMAP
000000
000000
000000
000000
000000
000000
000000
000000
000000
000000
000000
000000
03C000
0FFF80
1EFF80
3C3F80
3C3C00
381E00
381E00
381E00
3C1E00
3C1C00
1F3C00
0FF800
1FE000
1C0000
380000
3FF800
3FFE00
3FFF00
3FFF80
380380
700380
E00380
F00380
F80F00
FFFE00
7FFC00
1FE000
ENDCHAR
STARTCHAR char104
ENCODING 104
SWIDTH 1491 0
DWIDTH 21 0
BBX 20 39 0 -8
BITMAP
000000
000000
000000
0E0000
3E0000
FE0000
1E0000
1E0000
1E0000
1E0000
1E0000
1E0000
1E1800
1E7E00
1FFF00
1F8F00
1F0780
1E0780
1E0780
1E0780
1E0780
1E0780
1E0780
1E0780
1E0780
1E0780
1E0780
1E0780
1E0780
FF9FF0
FF9FF0
000000
000000
000000
000000
000000
000000
000000
000000
ENDCHAR
STARTCHAR char105
ENCODING 105
SWIDTH 852 0
DWIDTH 12 0
BBX 10 39 1 -8
BITMAP
0000
0000
0000
1C00
3E00
3E00
1C00
0000
0000
0000
0000
0000
0E00
3E00
FE00
FE00
1E00
1E00
1E00
1E00
1E00
1E00
1E00
1E00
1E00
1E00
1E00
1E00
1E00
FFC0
FFC0
0000
0000
0000
0000
0000
0000
0000
0000
ENDCHAR
STARTCHAR char106
ENCODING 106
SWIDTH 923 0
DWIDTH 13 0
BBX 11 39 -1 -8
BITMAP
0000
0000
0000
01C0
03E0
03E0
01C0
0000
0000
0000
0000
0060
01E0
07E0
01E0
01E0
01E0
01E0
01E0
01E0
01E0
01E0
01E0
01E0
01E0
01E0
01E0
01E0
01E0
01E0
01E0
01E0
01E0
01E0
01C0
E1C0
F380
FF00
7C00
ENDCHAR
STARTCHAR char107
ENCODING 107
SWIDTH 1420 0
DWIDTH 20 0
BBX 19 39 1 -8
BITMAP
000000
000000
000000
0C0000
7C0000
FC0000
3C0000
3C0000
3C0000
3C0000
3C0000
3C0000
3C0000
3C3FC0
3C1F00
3C0E00
3C1800
3C7000
3CE000
3DC000
3FC000
3FE000
3FE000
3DF000
3CF800
3C7C00
3C3E00
3C3E00
3C1F00
FF9FE0
FF9FE0
000000
000000
000000
000000
000000
000000
000000
000000
ENDCHAR
STARTCHAR char108
ENCODING 108
SWIDTH 852 0
DWIDTH 12 0
BBX 10 39 1 -8
BITMAP
0000
0000
0000
0E00
7E00
FE00
1E00
1E00
1E00
1E00
1E00
1E00
1E00
1E00
1E00
1E00
1E00
1E00
1E00
1E00
1E00
1E00
1E00
1E00
1E00
1E00
1E00
1E00
1E00
FFC0
FFC0
0000
0000
0000
0000
0000
0000
0000
0000
ENDCHAR
STARTCHAR char109
ENCODING 109
SWIDTH 2272 0
DWIDTH 32 0
BBX 30 39 1 -8
BITMAP
00000000
00000000
00000000
00000000
00000000
00000000
00000000
00000000
00000000
00000000
00000000
00000000
00380700
1CFE1FC0
FDFF3FC0
FF8FF1E0
3E07C0E0
3C0780F0
3C0780F0
3C0780F0
3C0780F0
3C0780F0
3C0780F0
3C0780F0
3C0780F0
3C0780F0
3C0780F0
3C0780F0
3C0780F0
FF3FE7FC
FF3FE7FC
00000000
00000000
00000000
00000000
00000000
00000000
00000000
00000000
ENDCHAR
STARTCHAR char110
ENCODING 110
SWIDTH 1562 0
DWIDTH 22 0
BBX 20 39 1 -8
BITMAP
000000
000000
000000
000000
000000
000000
000000
000000
000000
000000
000000
000000
061C00
1E7F00
7EFF00
FF8F80
1F0780
1E0780
1E0780
1E0780
1E0780
1E0780
1E0780
1E0780
1E0780
1E0780
1E0780
1E0780
1E0780
FF9FF0
FF9FF0
000000
000000
000000
000000
000000
000000
000000
000000
ENDCHAR
STARTCHAR char111
ENCODING 111
SWIDTH 1491 0
DWIDTH 21 0
BBX 19 39 1 -8
BITMAP
000000
000000
000000
000000
000000
000000
000000
000000
000000
000000
000000
000000
00E000
03FC00
0F1F00
1C0F00
380780
380780
7803C0
7003E0
7003E0
F001E0
F001E0
F001E0
F801C0
7801C0
7801C0
3C0380
3E0380
1F0F00
07FC00
01F000
000000
000000
000000
000000
000000
000000
000000
ENDCHAR
STARTCHAR char112
ENCODING 112
SWIDTH 1491 0
DWIDTH 21 0
BBX 19 39 1 -8
BITMAP
000000
000000
000000
000000
000000
000000
000000
000000
000000
000000
000000
000000
040000
3C7E00
FDFF00
FFFF80
1F0FC0
1E07C0
1E03E0
1E01E0
1E01E0
1E01E0
1E01E0
1E01E0
1E01E0
1E01C0
1E03C0
1E0380
1E0700
1E1E00
1FFC00
1EF000
1E0000
1E0000
1E0000
1E0000
1E0000
FF8000
FF8000
ENDCHAR
STARTCHAR char113
ENCODING 113
SWIDTH 1491 0
DWIDTH 21 0
BBX 19 39 1 -8
BITMAP
000000
000000
000000
000000
000000
000000
000000
000000
000000
000000
000000
000080
01E180
07FF80
1F1F80
3C0F80
380780
780780
700780
F00780
F00780
F00780
F00780
F00780
F00780
F00780
780F80
7C1F80
3FFF80
3FFF80
0FE780
030780
000780
000780
000780
000780
000780
003FE0
003FE0
ENDCHAR
STARTCHAR char114
ENCODING 114
SWIDTH 1136 0
DWIDTH 16 0
BBX 14 39 1 -8
BITMAP
0000
0000
0000
0000
0000
0000
0000
0000
0000
0000
0000
0000
0238
1E7C
FFFC
1FFC
1E18
1E00
1E00
1E00
1E00
1E00
1E00
1E00
1E00
1E00
1E00
1E00
1E00
FFC0
FFC0
0000
0000
0000
0000
0000
0000
0000
0000
ENDCHAR
STARTCHAR char115
ENCODING 115
SWIDTH 1065 0
DWIDTH 15 0
BBX 13 39 1 -8
BITMAP
0000
0000
0000
0000
0000
0000
0000
0000
0000
0000
0000
0000
0F00
3FD0
78F0
7070
F030
F030
F810
7E00
7F80
3FE0
1FF0
07F0
41F8
4078
4078
6038
7070
7CF0
6FE0
0300
0000
0000
0000
0000
0000
0000
0000
ENDCHAR
STARTCHAR char116
ENCODING 116
SWIDTH 923 0
DWIDTH 13 0
BBX 11 39 1 -8
BITMAP
0000
0000
0000
0000
0000
0000
0000
0000
0400
0C00
0C00
1C00
1C00
FFC0
FFC0
3C00
3C00
3C00
3C00
3C00
3C00
3C00
3C00
3C00
3C00
3C00
3C00
3C20
3E60
1FC0
0700
0000
0000
0000
0000
0000
0000
0000
0000
ENDCHAR
STARTCHAR char117
ENCODING 117
SWIDTH 1491 0
DWIDTH 21 0
BBX 20 39 0 -8
BITMAP
000000
000000
000000
000000
000000
000000
000000
000000
000000
000000
000000
000000
000000
FE1F80
3E0780
1E0380
1E0380
1E0380
1E0380
1E0380
1E0380
1E0380
1E0380
1E0380
1E0380
1E0380
1E0780
1F0F80
0FDFF0
0FFBE0
03F380
00C200
000000
000000
000000
000000
000000
000000
000000
ENDCHAR
STARTCHAR char118
ENCODING 118
SWIDTH 1278 0
DWIDTH 18 0
BBX 18 39 0 -8
BITMAP
000000
000000
000000
000000
000000
000000
000000
000000
000000
000000
000000
000000
000000
FF07C0
FF07C0
3E0380
1E0300
1E0700
0F0600
0F0600
0F8C00
078C00
079800
03D800
03F800
03F000
01F000
01E000
00E000
00E000
004000
000000
000000
000000
000000
000000
000000
000000
000000
ENDCHAR
STARTCHAR char119
ENCODING 119
SWIDTH 1917 0
DWIDTH 27 0
BBX 27 39 0 -8
BITMAP
00000000
00000000
00000000
00000000
00000000
00000000
00000000
00000000
00000000
00000000
00000000
00000000
00000000
FF3F87E0
FF3F87E0
3E0F01C0
1E0F8180
1E0F8180
1F078300
0F0FC300
0F0FC600
0F8FC600
079BE600
07D9EC00
03D1FC00
03F0FC00
03F0F800
01E0F800
01E07000
00E07000
00C07000
00402000
00000000
00000000
00000000
00000000
00000000
00000000
00000000
ENDCHAR
STARTCHAR char120
ENCODING 120
SWIDTH 1420 0
DWIDTH 20 0
BBX 18 39 1 -8
BITMAP
000000
000000
000000
000000
000000
000000
000000
000000
000000
000000
000000
000000
000000
7F1F80
7E0F80
1E0C00
0F1800
071800
07B000
03E000
03E000
01F000
01F800
03F800
063C00
041C00
0C1E00
180F00
380F00
FC3FC0
FC3FC0
000000
000000
000000
000000
000000
000000
000000
000000
ENDCHAR
STARTCHAR char121
ENCODING 121
SWIDTH 1420 0
DWIDTH 20 0
BBX 18 39 1 -8
BITMAP
000000
000000
000000
000000
000000
000000
000000
000000
000000
000000
000000
000000
000000
FF0FC0
FF0FC0
7C0380
3C0300
3E0600
1E0600
1E0600
1F0C00
0F0C00
0F8C00
079800
079800
03D800
03F000
03F000
01F000
01E000
00E000
00E000
00C000
00C000
01C000
738000
FF0000
FE0000
7C0000
ENDCHAR
STARTCHAR char122
ENCODING 122
SWIDTH 1349 0
DWIDTH 19 0
BBX 16 39 1 -8
BITMAP
0000
0000
0000
0000
0000
0000
0000
0000
0000
0000
0000
0000
0000
3FFF
3FFE
303E
203C
2078
00F8
00F0
01E0
03E0
07C0
0780
0F80
1F01
3E03
7C03
7C07
FFFF
FFFF
0000
0000
0000
0000
0000
0000
0000
0000
ENDCHAR
STARTCHAR char123
ENCODING 123
SWIDTH 1136 0
DWIDTH 16 0
BBX 11 39 3 -8
BITMAP
0000
00E0
0380
0300
0600
0700
0700
0F00
0F00
0F00
0F80
0780
0780
0780
0780
0700
0700
0E00
3C00
F800
3C00
0E00
0700
0700
0780
0780
0780
0780
0F80
0F00
0F00
0F00
0700
0700
0600
0300
0380
00E0
0000
ENDCHAR
STARTCHAR char124
ENCODING 124
SWIDTH 355 0
DWIDTH 5 0
BBX 3 39 1 -8
BITMAP
00
00
00
E0
E0
E0
E0
E0
E0
E0
E0
E0
E0
E0
E0
E0
E0
E0
E0
E0
E0
E0
E0
E0
E0
E0
E0
E0
E0
E0
E0
E0
E0
00
00
00
00
00
00
ENDCHAR
STARTCHAR char125
ENCODING 125
SWIDTH 1136 0
DWIDTH 16 0
BBX 11 39 2 -8
BITMAP
0000
E000
3800
1800
0C00
1C00
1C00
1E00
1E00
1E00
3E00
3C00
3C00
3C00
3C00
1C00
1C00
0E00
0780
03E0
0780
0E00
1C00
1C00
3C00
3C00
3C00
3C00
3E00
1E00
1E00
1E00
1C00
1C00
0C00
1800
3800
E000
0000
ENDCHAR
STARTCHAR char126
ENCODING 126
SWIDTH 1207 0
DWIDTH 17 0
BBX 15 39 1 -8
BITMAP
0000
0000
0000
0000
0000
0000
0000
0000
0000
0000
0000
0000
0000
0000
0000
0000
0000
1C06
3E06
7F06
7F8E
E7CE
E3FC
C1FC
C0F8
C070
0000
0000
0000
0000
0000
0000
0000
0000
0000
0000
0000
0000
0000
ENDCHAR
ENDFONT
